<svg xmlns="http://www.w3.org/2000/svg" viewBox="0 0 264.5 99.85"><defs><style>.cls-1{fill:#7e7e7f;}.cls-1,.cls-2,.cls-3,.cls-5{stroke:#231815;}.cls-1,.cls-2,.cls-3,.cls-5,.cls-6,.cls-7{stroke-miterlimit:10;}.cls-1,.cls-2,.cls-3{stroke-width:0.5px;}.cls-2{fill:#fbe6b6;}.cls-3,.cls-5,.cls-6,.cls-7{fill:none;}.cls-4{fill:#231815;}.cls-6{stroke:#00a0e9;}.cls-7{stroke:#e83818;}</style></defs><g id="图层_2" data-name="图层 2"><rect class="cls-1" x="61.84" y="12.57" width="11.33" height="11.27"/><rect class="cls-1" x="87.93" y="12.57" width="11.33" height="11.27"/><rect class="cls-1" x="114.03" y="12.57" width="11.33" height="11.27"/><rect class="cls-1" x="140.12" y="12.57" width="11.33" height="11.27"/><rect class="cls-1" x="166.21" y="12.57" width="11.33" height="11.27"/><rect class="cls-1" x="35.75" y="12.55" width="11.33" height="11.27"/><rect class="cls-1" x="61.84" y="40.95" width="11.33" height="11.27"/><rect class="cls-1" x="87.93" y="40.95" width="11.33" height="11.27"/><rect class="cls-1" x="114.03" y="40.95" width="11.33" height="11.27"/><rect class="cls-1" x="140.12" y="40.95" width="11.33" height="11.27"/><rect class="cls-1" x="166.21" y="40.95" width="11.33" height="11.27"/><rect class="cls-1" x="35.75" y="40.95" width="11.33" height="11.27"/><ellipse class="cls-2" cx="250.71" cy="46.5" rx="7.25" ry="6.75"/><ellipse class="cls-2" cx="14.49" cy="46.5" rx="7.25" ry="6.75"/><rect class="cls-3" x="0.25" y="0.25" width="264" height="65.13"/><rect class="cls-1" x="192.31" y="12.57" width="11.33" height="11.27"/><rect class="cls-1" x="218.52" y="12.57" width="11.33" height="11.27"/><rect class="cls-1" x="192.31" y="40.95" width="11.33" height="11.27"/><rect class="cls-1" x="218.52" y="40.95" width="11.33" height="11.27"/></g><g id="图层_3" data-name="图层 3"><path class="cls-4" d="M44.11,12.48h-.62V8.56a3.36,3.36,0,0,1-.58.43,3.75,3.75,0,0,1-.65.31V8.71a3.66,3.66,0,0,0,.91-.59,2.24,2.24,0,0,0,.54-.67h.4Z" transform="translate(-2.33 -2.23)"/><path class="cls-4" d="M45,62.49v.59H41.71a1.06,1.06,0,0,1,.08-.43,2,2,0,0,1,.4-.66,5.61,5.61,0,0,1,.81-.76,7.1,7.1,0,0,0,1.1-1.06,1.32,1.32,0,0,0,.29-.74.81.81,0,0,0-.27-.62.92.92,0,0,0-.68-.25.92.92,0,0,0-1,1l-.63-.06a1.57,1.57,0,0,1,.49-1.08,1.65,1.65,0,0,1,1.14-.37,1.57,1.57,0,0,1,1.14.4,1.32,1.32,0,0,1,.42,1,1.52,1.52,0,0,1-.12.59,2.51,2.51,0,0,1-.41.61,9.1,9.1,0,0,1-1,.88,9.44,9.44,0,0,0-.71.63,2.37,2.37,0,0,0-.26.34Z" transform="translate(-2.33 -2.23)"/><path class="cls-4" d="M68,11.16l.62-.08a1.32,1.32,0,0,0,.36.75.9.9,0,0,0,.62.23,1,1,0,0,0,.73-.3,1,1,0,0,0,.3-.74.91.91,0,0,0-.28-.7.93.93,0,0,0-.7-.28,1.52,1.52,0,0,0-.43.07l.06-.54h.1a1.26,1.26,0,0,0,.71-.21.7.7,0,0,0,.31-.63.75.75,0,0,0-.22-.56.82.82,0,0,0-.6-.22.83.83,0,0,0-.59.22,1.11,1.11,0,0,0-.31.68l-.62-.11a1.62,1.62,0,0,1,.52-1,1.44,1.44,0,0,1,1-.34,1.64,1.64,0,0,1,.76.18,1.15,1.15,0,0,1,.52.48,1.14,1.14,0,0,1,.19.64,1,1,0,0,1-.18.59,1.21,1.21,0,0,1-.51.43,1.23,1.23,0,0,1,.69.42,1.34,1.34,0,0,1,.24.81,1.46,1.46,0,0,1-.48,1.11,1.64,1.64,0,0,1-1.21.46,1.57,1.57,0,0,1-1.09-.39A1.51,1.51,0,0,1,68,11.16Z" transform="translate(-2.33 -2.23)"/><path class="cls-4" d="M70,63.08v-1.2H67.8v-.56l2.28-3.25h.51v3.25h.67v.56h-.67v1.2Zm0-1.76V59.06L68.4,61.32Z" transform="translate(-2.33 -2.23)"/><path class="cls-4" d="M94.11,11.17l.65-.06a1.16,1.16,0,0,0,.33.71.92.92,0,0,0,.63.24,1,1,0,0,0,.75-.33,1.25,1.25,0,0,0,.31-.89,1.16,1.16,0,0,0-.29-.83,1.11,1.11,0,0,0-1.31-.17,1,1,0,0,0-.38.35l-.58-.08.49-2.57H97.2v.59h-2l-.27,1.34a1.63,1.63,0,0,1,.95-.31,1.5,1.5,0,0,1,1.1.45,1.61,1.61,0,0,1,.45,1.17A1.84,1.84,0,0,1,97,12a1.61,1.61,0,0,1-1.32.61,1.58,1.58,0,0,1-1.11-.39A1.47,1.47,0,0,1,94.11,11.17Z" transform="translate(-2.33 -2.23)"/><path class="cls-4" d="M97.3,59.3l-.61,0a1.1,1.1,0,0,0-.23-.52.8.8,0,0,0-.61-.27.85.85,0,0,0-.52.17,1.42,1.42,0,0,0-.46.62,3.15,3.15,0,0,0-.17,1.16,1.38,1.38,0,0,1,.54-.51,1.44,1.44,0,0,1,.67-.16,1.41,1.41,0,0,1,1,.45,1.61,1.61,0,0,1,.43,1.17,1.87,1.87,0,0,1-.2.88,1.47,1.47,0,0,1-.56.62,1.64,1.64,0,0,1-2.06-.35,2.88,2.88,0,0,1-.49-1.86,3.35,3.35,0,0,1,.54-2.12,1.54,1.54,0,0,1,1.26-.57A1.33,1.33,0,0,1,97.3,59.3Zm-2.51,2.16a1.39,1.39,0,0,0,.14.6,1,1,0,0,0,.88.6.86.86,0,0,0,.67-.32,1.19,1.19,0,0,0,.28-.85,1.18,1.18,0,0,0-.27-.82.92.92,0,0,0-.7-.3,1,1,0,0,0-.71.3A1.1,1.1,0,0,0,94.79,61.46Z" transform="translate(-2.33 -2.23)"/><path class="cls-4" d="M120.12,8.13V7.54h3.24V8a6.54,6.54,0,0,0-.94,1.36,7.87,7.87,0,0,0-.73,1.73,7.08,7.08,0,0,0-.24,1.38h-.63a6.85,6.85,0,0,1,.23-1.43,7.41,7.41,0,0,1,.64-1.61,6.93,6.93,0,0,1,.88-1.31Z" transform="translate(-2.33 -2.23)"/><path class="cls-4" d="M121,60.36a1.07,1.07,0,0,1-.57-.4,1.06,1.06,0,0,1-.19-.62,1.21,1.21,0,0,1,.4-.92,1.44,1.44,0,0,1,1-.37,1.5,1.5,0,0,1,1.06.38,1.21,1.21,0,0,1,.4.93,1,1,0,0,1-.18.6,1.13,1.13,0,0,1-.56.4,1.3,1.3,0,0,1,.7.49,1.33,1.33,0,0,1,.24.8,1.44,1.44,0,0,1-.45,1.08,1.88,1.88,0,0,1-2.39,0,1.46,1.46,0,0,1-.46-1.1,1.29,1.29,0,0,1,.25-.82A1.25,1.25,0,0,1,121,60.36Zm-.33,1.27a1.14,1.14,0,0,0,.13.51.85.85,0,0,0,.37.38,1.08,1.08,0,0,0,.53.14,1,1,0,0,0,.73-.28,1,1,0,0,0,.29-.73,1,1,0,0,0-.3-.73,1,1,0,0,0-.74-.29.94.94,0,0,0-.72.29A1,1,0,0,0,120.7,61.63Zm.2-2.31a.78.78,0,0,0,.23.58.81.81,0,0,0,.6.23.8.8,0,0,0,.58-.23.75.75,0,0,0,.23-.55.78.78,0,0,0-.24-.57.8.8,0,0,0-.58-.23.78.78,0,0,0-.58.23A.71.71,0,0,0,120.9,59.32Z" transform="translate(-2.33 -2.23)"/><path class="cls-4" d="M146.46,11.32l.6-.05a1,1,0,0,0,.28.6.77.77,0,0,0,.55.19.9.9,0,0,0,.49-.13,1,1,0,0,0,.35-.35A2,2,0,0,0,149,11a3.2,3.2,0,0,0,.09-.75v-.13a1.36,1.36,0,0,1-.5.48,1.43,1.43,0,0,1-.7.18,1.41,1.41,0,0,1-1-.45,1.69,1.69,0,0,1-.43-1.19,1.69,1.69,0,0,1,.45-1.23A1.51,1.51,0,0,1,148,7.45a1.65,1.65,0,0,1,.89.26,1.7,1.7,0,0,1,.62.75,3.74,3.74,0,0,1,.21,1.41,4.54,4.54,0,0,1-.21,1.53,1.84,1.84,0,0,1-.62.87,1.62,1.62,0,0,1-1,.3,1.33,1.33,0,0,1-1.41-1.25ZM149,9.11a1.2,1.2,0,0,0-.28-.84A.87.87,0,0,0,148,8a.93.93,0,0,0-.71.33,1.28,1.28,0,0,0-.31.87,1.09,1.09,0,0,0,.29.78,1,1,0,0,0,.72.3.92.92,0,0,0,.7-.3A1.2,1.2,0,0,0,149,9.11Z" transform="translate(-2.33 -2.23)"/><path class="cls-4" d="M146.74,63.08h-.61V59.16a3,3,0,0,1-.59.42,4.22,4.22,0,0,1-.64.32v-.59a4.12,4.12,0,0,0,.9-.59,2.42,2.42,0,0,0,.55-.67h.39Z" transform="translate(-2.33 -2.23)"/><path class="cls-4" d="M148.32,60.61a4.66,4.66,0,0,1,.18-1.43,1.8,1.8,0,0,1,.54-.84,1.61,1.61,0,0,1,1.62-.13,1.32,1.32,0,0,1,.5.47,2.39,2.39,0,0,1,.31.74,4.74,4.74,0,0,1,.12,1.19A4.27,4.27,0,0,1,151.4,62a1.8,1.8,0,0,1-.54.84,1.36,1.36,0,0,1-.91.29,1.4,1.4,0,0,1-1.14-.51A3.33,3.33,0,0,1,148.32,60.61Zm.63,0a3.16,3.16,0,0,0,.29,1.64.82.82,0,0,0,1.42,0,3.05,3.05,0,0,0,.29-1.64,3.1,3.1,0,0,0-.29-1.65.84.84,0,0,0-.71-.4.79.79,0,0,0-.68.36A3.18,3.18,0,0,0,149,60.61Z" transform="translate(-2.33 -2.23)"/><path class="cls-4" d="M172.81,12.48h-.62V8.56a3.23,3.23,0,0,1-.58.42,3.51,3.51,0,0,1-.65.32V8.71a3.79,3.79,0,0,0,.9-.59,2.29,2.29,0,0,0,.55-.67h.4Z" transform="translate(-2.33 -2.23)"/><path class="cls-4" d="M176.18,12.48h-.62V8.56A2.9,2.9,0,0,1,175,9a3.51,3.51,0,0,1-.65.32V8.71a3.66,3.66,0,0,0,.91-.59,2.24,2.24,0,0,0,.54-.67h.4Z" transform="translate(-2.33 -2.23)"/><path class="cls-4" d="M172.55,63.08h-.62V59.16a3.23,3.23,0,0,1-.58.42,4.28,4.28,0,0,1-.65.32v-.59a3.89,3.89,0,0,0,.9-.59,2.42,2.42,0,0,0,.55-.67h.4Z" transform="translate(-2.33 -2.23)"/><path class="cls-4" d="M177.35,62.49v.59H174a1.25,1.25,0,0,1,.07-.43,2.24,2.24,0,0,1,.41-.66,6,6,0,0,1,.8-.76,6.82,6.82,0,0,0,1.11-1.06,1.32,1.32,0,0,0,.29-.74.81.81,0,0,0-.27-.62.92.92,0,0,0-.68-.25.92.92,0,0,0-1,1l-.63-.06a1.57,1.57,0,0,1,.49-1.08,1.65,1.65,0,0,1,1.14-.37,1.57,1.57,0,0,1,1.14.4,1.32,1.32,0,0,1,.42,1,1.52,1.52,0,0,1-.12.59,2.51,2.51,0,0,1-.41.61,9.1,9.1,0,0,1-.95.88,9.44,9.44,0,0,0-.71.63,2.37,2.37,0,0,0-.26.34Z" transform="translate(-2.33 -2.23)"/><path class="cls-4" d="M198.62,12.48H198V8.56a3.94,3.94,0,0,1-.59.43,4.07,4.07,0,0,1-.64.31V8.71a3.79,3.79,0,0,0,.9-.59,2.09,2.09,0,0,0,.54-.67h.4Z" transform="translate(-2.33 -2.23)"/><path class="cls-4" d="M200.2,11.16l.62-.08a1.32,1.32,0,0,0,.36.75.9.9,0,0,0,.62.23,1,1,0,0,0,.73-.3,1,1,0,0,0,.3-.74.91.91,0,0,0-.28-.7.93.93,0,0,0-.7-.28,1.64,1.64,0,0,0-.44.07l.07-.54h.1a1.26,1.26,0,0,0,.71-.21.7.7,0,0,0,.31-.63.72.72,0,0,0-.23-.56.8.8,0,0,0-.59-.22.84.84,0,0,0-.6.22,1.16,1.16,0,0,0-.3.68l-.62-.11a1.66,1.66,0,0,1,.51-1,1.48,1.48,0,0,1,1-.34,1.6,1.6,0,0,1,.75.18,1.18,1.18,0,0,1,.53.48,1.23,1.23,0,0,1,.19.64,1,1,0,0,1-.18.59,1.18,1.18,0,0,1-.52.43,1.22,1.22,0,0,1,.7.42,1.34,1.34,0,0,1,.24.81,1.46,1.46,0,0,1-.48,1.11,1.66,1.66,0,0,1-1.21.46,1.57,1.57,0,0,1-1.09-.39A1.51,1.51,0,0,1,200.2,11.16Z" transform="translate(-2.33 -2.23)"/><path class="cls-4" d="M198.62,63.08H198V59.16a3.34,3.34,0,0,1-.59.42,4.22,4.22,0,0,1-.64.32v-.59a4.12,4.12,0,0,0,.9-.59,2.2,2.2,0,0,0,.54-.67h.4Z" transform="translate(-2.33 -2.23)"/><path class="cls-4" d="M202.17,63.08v-1.2H200v-.56l2.28-3.25h.5v3.25h.68v.56h-.68v1.2Zm0-1.76V59.06l-1.57,2.26Z" transform="translate(-2.33 -2.23)"/><path class="cls-4" d="M224.45,12.48h-.61V8.56a3.94,3.94,0,0,1-.59.43,4.07,4.07,0,0,1-.64.31V8.71a3.79,3.79,0,0,0,.9-.59,2.29,2.29,0,0,0,.55-.67h.39Z" transform="translate(-2.33 -2.23)"/><path class="cls-4" d="M226,11.17l.64-.06a1.11,1.11,0,0,0,.34.71.88.88,0,0,0,.63.24,1,1,0,0,0,.75-.33,1.3,1.3,0,0,0,.31-.89,1.13,1.13,0,0,0-.3-.83,1,1,0,0,0-.77-.31,1.09,1.09,0,0,0-.54.14,1.07,1.07,0,0,0-.38.35l-.57-.08.48-2.57h2.49v.59h-2l-.27,1.34a1.65,1.65,0,0,1,.95-.31,1.51,1.51,0,0,1,1.11.45,1.61,1.61,0,0,1,.45,1.17A1.79,1.79,0,0,1,229,12a1.75,1.75,0,0,1-2.43.22A1.46,1.46,0,0,1,226,11.17Z" transform="translate(-2.33 -2.23)"/><path class="cls-4" d="M224.45,63.08h-.61V59.16a3.34,3.34,0,0,1-.59.42,4.22,4.22,0,0,1-.64.32v-.59a4.12,4.12,0,0,0,.9-.59,2.42,2.42,0,0,0,.55-.67h.39Z" transform="translate(-2.33 -2.23)"/><path class="cls-4" d="M229.22,59.3l-.61,0a1.2,1.2,0,0,0-.23-.52.83.83,0,0,0-.62-.27.85.85,0,0,0-.52.17,1.41,1.41,0,0,0-.45.62,3.12,3.12,0,0,0-.18,1.16,1.45,1.45,0,0,1,2.27-.22,1.61,1.61,0,0,1,.43,1.17,2,2,0,0,1-.2.88,1.54,1.54,0,0,1-.56.62,1.58,1.58,0,0,1-.81.22,1.56,1.56,0,0,1-1.25-.57,2.82,2.82,0,0,1-.49-1.86,3.35,3.35,0,0,1,.54-2.12,1.54,1.54,0,0,1,1.26-.57,1.33,1.33,0,0,1,1.42,1.25Zm-2.51,2.16a1.38,1.38,0,0,0,.13.6,1,1,0,0,0,.38.45,1,1,0,0,0,.51.15.88.88,0,0,0,.67-.32,1.19,1.19,0,0,0,.28-.85,1.13,1.13,0,0,0-.28-.82.89.89,0,0,0-.69-.3.94.94,0,0,0-.71.3A1.06,1.06,0,0,0,226.71,61.46Z" transform="translate(-2.33 -2.23)"/></g><g id="图层_5" data-name="图层 5"><line class="cls-5" x1="208.73" y1="89.82" x2="208.73" y2="99.85"/><line class="cls-5" x1="204.64" y1="92.41" x2="204.64" y2="98.04"/><path class="cls-4" d="M215.94,85.85v1.87h1.88V89h-1.88v1.86h-1.25V89h-1.88V87.72h1.88V85.85Z" transform="translate(-2.33 -2.23)"/><path class="cls-4" d="M204.89,87.77v1.37H202.2V87.77Z" transform="translate(-2.33 -2.23)"/><line class="cls-3" x1="183.94" y1="94.94" x2="191.86" y2="90.39"/><polygon class="cls-3" points="191.93 93.41 190.87 95.23 192.87 95.23 191.93 93.41"/><line class="cls-3" x1="190.8" y1="95.23" x2="204.24" y2="95.23"/><line class="cls-3" x1="177.54" y1="94.95" x2="183.94" y2="94.95"/><path class="cls-6" d="M196.9,22.39c-13.56,25.7-24.74,41.14-33.09,50.9-2.48,2.9-7.55,8.62-6,13.94C160.07,95,175,96.83,179.88,97.3" transform="translate(-2.33 -2.23)"/><path class="cls-7" d="M203.87,50.84c7.32,11.74,13.74,20.86,18.32,27.1,5.65,7.68,9.24,12,7.75,15.48-2.36,5.49-15.54,4.55-18.42,4.31" transform="translate(-2.33 -2.23)"/></g></svg>