<svg xmlns="http://www.w3.org/2000/svg" viewBox="0 0 342.44 83.73"><defs><style>.cls-1{fill:#7e7e7f;}.cls-1,.cls-2,.cls-3,.cls-8{stroke:#231815;}.cls-1,.cls-2,.cls-3,.cls-5,.cls-6,.cls-7,.cls-8,.cls-9{stroke-miterlimit:10;}.cls-1,.cls-2,.cls-3,.cls-5,.cls-6{stroke-width:0.5px;}.cls-2{fill:#fbe6b6;}.cls-3,.cls-5,.cls-7,.cls-8,.cls-9{fill:none;}.cls-4{fill:#231815;}.cls-5,.cls-6{stroke:#040000;}.cls-6{fill:#fff;}.cls-7{stroke:#22ac38;}.cls-9{stroke:#e60012;}</style></defs><g id="图层_2" data-name="图层 2"><rect class="cls-1" x="139.78" y="16.62" width="11.33" height="11.27"/><rect class="cls-1" x="165.87" y="16.62" width="11.33" height="11.27"/><rect class="cls-1" x="191.97" y="16.62" width="11.33" height="11.27"/><rect class="cls-1" x="218.06" y="16.62" width="11.33" height="11.27"/><rect class="cls-1" x="244.15" y="16.62" width="11.33" height="11.27"/><rect class="cls-1" x="113.69" y="16.6" width="11.33" height="11.27"/><rect class="cls-1" x="139.78" y="45" width="11.33" height="11.27"/><rect class="cls-1" x="165.87" y="45" width="11.33" height="11.27"/><rect class="cls-1" x="191.97" y="45" width="11.33" height="11.27"/><rect class="cls-1" x="218.06" y="45" width="11.33" height="11.27"/><rect class="cls-1" x="244.15" y="45" width="11.33" height="11.27"/><rect class="cls-1" x="113.69" y="45" width="11.33" height="11.27"/><ellipse class="cls-2" cx="328.65" cy="50.55" rx="7.25" ry="6.75"/><ellipse class="cls-2" cx="92.43" cy="50.55" rx="7.25" ry="6.75"/><rect class="cls-3" x="78.19" y="4.3" width="264" height="65.13"/><rect class="cls-1" x="270.25" y="16.62" width="11.33" height="11.27"/><rect class="cls-1" x="296.46" y="16.62" width="11.33" height="11.27"/><rect class="cls-1" x="270.25" y="45" width="11.33" height="11.27"/><rect class="cls-1" x="296.46" y="45" width="11.33" height="11.27"/></g><g id="图层_3" data-name="图层 3"><path class="cls-4" d="M124.37,47.58h-.62V43.66a3.23,3.23,0,0,1-.58.42,4.28,4.28,0,0,1-.65.32v-.6a3.4,3.4,0,0,0,.9-.58,2.42,2.42,0,0,0,.55-.67h.4Z" transform="translate(-4.65 -33.28)"/><path class="cls-4" d="M125.28,97.59v.59H122a1.25,1.25,0,0,1,.07-.43,2.29,2.29,0,0,1,.41-.67,6,6,0,0,1,.8-.76,6.42,6.42,0,0,0,1.11-1.06,1.25,1.25,0,0,0,.28-.74.78.78,0,0,0-.26-.61.93.93,0,0,0-.68-.26,1,1,0,0,0-.71.27,1,1,0,0,0-.27.74l-.63-.07a1.48,1.48,0,0,1,.49-1.07,1.64,1.64,0,0,1,1.13-.37,1.58,1.58,0,0,1,1.15.4,1.29,1.29,0,0,1,.42,1,1.4,1.4,0,0,1-.13.59,2,2,0,0,1-.41.61,9.94,9.94,0,0,1-.94.88,9.44,9.44,0,0,0-.71.63,1.34,1.34,0,0,0-.26.34Z" transform="translate(-4.65 -33.28)"/><path class="cls-4" d="M148.26,46.26l.62-.09a1.39,1.39,0,0,0,.36.76.9.9,0,0,0,.62.23,1,1,0,0,0,.73-.3,1,1,0,0,0,.3-.75.94.94,0,0,0-.28-.7,1,1,0,0,0-.7-.27,1.64,1.64,0,0,0-.44.07l.07-.54h.1a1.33,1.33,0,0,0,.71-.2.8.8,0,0,0,.08-1.19.81.81,0,0,0-.59-.23.85.85,0,0,0-.6.23,1.08,1.08,0,0,0-.3.68l-.62-.11a1.6,1.6,0,0,1,.51-1,1.48,1.48,0,0,1,1-.34,1.72,1.72,0,0,1,.75.17,1.3,1.3,0,0,1,.53.48,1.29,1.29,0,0,1,.19.65,1,1,0,0,1-.18.59,1.16,1.16,0,0,1-.52.42,1.18,1.18,0,0,1,.7.43,1.32,1.32,0,0,1,.24.81,1.46,1.46,0,0,1-.48,1.11,1.7,1.7,0,0,1-1.21.46,1.53,1.53,0,0,1-1.09-.4A1.51,1.51,0,0,1,148.26,46.26Z" transform="translate(-4.65 -33.28)"/><path class="cls-4" d="M150.23,98.18V97h-2.18v-.57l2.29-3.24h.5v3.24h.68V97h-.68v1.2Zm0-1.77V94.15l-1.57,2.26Z" transform="translate(-4.65 -33.28)"/><path class="cls-4" d="M174.37,46.27l.65-.06a1.13,1.13,0,0,0,.33.71.88.88,0,0,0,.63.24,1,1,0,0,0,.75-.34,1.24,1.24,0,0,0,.31-.89,1.14,1.14,0,0,0-.3-.83,1,1,0,0,0-.77-.3,1.08,1.08,0,0,0-.54.13,1,1,0,0,0-.37.35l-.58-.07.49-2.57h2.49v.58h-2l-.27,1.35a1.6,1.6,0,0,1,.94-.31,1.51,1.51,0,0,1,1.11.45,1.58,1.58,0,0,1,.45,1.17,1.88,1.88,0,0,1-.39,1.18,1.79,1.79,0,0,1-2.44.22A1.5,1.5,0,0,1,174.37,46.27Z" transform="translate(-4.65 -33.28)"/><path class="cls-4" d="M177.56,94.39l-.61,0a1.14,1.14,0,0,0-.23-.53.86.86,0,0,0-1.13-.09,1.32,1.32,0,0,0-.46.61,3.39,3.39,0,0,0-.18,1.16,1.46,1.46,0,0,1,.55-.5,1.44,1.44,0,0,1,.67-.16,1.41,1.41,0,0,1,1.05.45,1.61,1.61,0,0,1,.43,1.17,2,2,0,0,1-.2.88,1.53,1.53,0,0,1-.56.62,1.67,1.67,0,0,1-2.06-.35,2.83,2.83,0,0,1-.49-1.87,3.32,3.32,0,0,1,.54-2.11,1.54,1.54,0,0,1,1.26-.57,1.43,1.43,0,0,1,1,.33A1.39,1.39,0,0,1,177.56,94.39Zm-2.51,2.16a1.43,1.43,0,0,0,.14.61,1,1,0,0,0,.37.44.88.88,0,0,0,.51.16.86.86,0,0,0,.67-.32,1.21,1.21,0,0,0,.28-.85,1.18,1.18,0,0,0-.27-.82.92.92,0,0,0-.7-.3.94.94,0,0,0-.71.3A1.09,1.09,0,0,0,175.05,96.55Z" transform="translate(-4.65 -33.28)"/><path class="cls-4" d="M200.38,43.22v-.59h3.24v.48a7.15,7.15,0,0,0-1,1.35A8.65,8.65,0,0,0,202,46.2a6.4,6.4,0,0,0-.24,1.38h-.63a6.17,6.17,0,0,1,.23-1.43,7.48,7.48,0,0,1,.64-1.62,7.65,7.65,0,0,1,.88-1.31Z" transform="translate(-4.65 -33.28)"/><path class="cls-4" d="M201.28,95.46a1.14,1.14,0,0,1-.56-.4,1,1,0,0,1-.19-.62,1.19,1.19,0,0,1,.4-.92,1.62,1.62,0,0,1,2.1,0,1.24,1.24,0,0,1,.4.92,1,1,0,0,1-.19.61,1.11,1.11,0,0,1-.55.4,1.34,1.34,0,0,1,.7.48,1.35,1.35,0,0,1,.24.8,1.44,1.44,0,0,1-.45,1.08,1.86,1.86,0,0,1-2.4,0,1.46,1.46,0,0,1-.45-1.09,1.29,1.29,0,0,1,.25-.82A1.23,1.23,0,0,1,201.28,95.46ZM201,96.73a1,1,0,0,0,.13.51.85.85,0,0,0,.37.38,1.08,1.08,0,0,0,.53.14,1,1,0,0,0,.73-.29,1,1,0,0,0,.28-.72,1,1,0,0,0-.29-.73,1,1,0,0,0-.74-.29,1,1,0,0,0-1,1Zm.2-2.31a.84.84,0,0,0,1.41.58.74.74,0,0,0,.22-.55.75.75,0,0,0-.23-.57.86.86,0,0,0-1.17,0A.74.74,0,0,0,201.16,94.42Z" transform="translate(-4.65 -33.28)"/><path class="cls-4" d="M226.72,46.42l.59-.06a1.06,1.06,0,0,0,.29.61.76.76,0,0,0,.54.19,1,1,0,0,0,.5-.13,1.06,1.06,0,0,0,.35-.35,2,2,0,0,0,.23-.59,3.08,3.08,0,0,0,.09-.75v-.12a1.39,1.39,0,0,1-.51.48,1.37,1.37,0,0,1-.69.18,1.41,1.41,0,0,1-1.05-.45,1.64,1.64,0,0,1-.43-1.19,1.69,1.69,0,0,1,.45-1.23,1.49,1.49,0,0,1,1.13-.46,1.57,1.57,0,0,1,.89.26,1.68,1.68,0,0,1,.61.75,3.67,3.67,0,0,1,.21,1.41,4.57,4.57,0,0,1-.2,1.53,1.84,1.84,0,0,1-.62.87,1.68,1.68,0,0,1-1,.29,1.44,1.44,0,0,1-1-.32A1.42,1.42,0,0,1,226.72,46.42Zm2.52-2.21a1.17,1.17,0,0,0-.28-.84.89.89,0,0,0-.68-.31.93.93,0,0,0-.71.33,1.2,1.2,0,0,0-.31.87,1.09,1.09,0,0,0,.29.78.94.94,0,0,0,.71.3A.93.93,0,0,0,229,45,1.2,1.2,0,0,0,229.24,44.21Z" transform="translate(-4.65 -33.28)"/><path class="cls-4" d="M227,98.18h-.61V94.26a3.34,3.34,0,0,1-.59.42,4.22,4.22,0,0,1-.64.32v-.6a3.79,3.79,0,0,0,.9-.59,2.24,2.24,0,0,0,.54-.67h.4Z" transform="translate(-4.65 -33.28)"/><path class="cls-4" d="M228.58,95.7a4.7,4.7,0,0,1,.18-1.43,1.72,1.72,0,0,1,.54-.83,1.39,1.39,0,0,1,.91-.3,1.46,1.46,0,0,1,.71.17,1.32,1.32,0,0,1,.5.47,2.39,2.39,0,0,1,.31.74,4.72,4.72,0,0,1,.11,1.18,4.66,4.66,0,0,1-.18,1.43,1.8,1.8,0,0,1-.54.84,1.42,1.42,0,0,1-.91.29,1.38,1.38,0,0,1-1.14-.52A3.29,3.29,0,0,1,228.58,95.7Zm.63,0a3.07,3.07,0,0,0,.29,1.65.82.82,0,0,0,1.42,0,3.1,3.1,0,0,0,.29-1.65,3.05,3.05,0,0,0-.29-1.64.86.86,0,0,0-.72-.41.78.78,0,0,0-.67.36A3.11,3.11,0,0,0,229.21,95.7Z" transform="translate(-4.65 -33.28)"/><path class="cls-4" d="M253.06,47.58h-.61V43.66a3.23,3.23,0,0,1-.58.42,4.79,4.79,0,0,1-.65.32v-.6a3.76,3.76,0,0,0,.9-.58,2.42,2.42,0,0,0,.55-.67h.39Z" transform="translate(-4.65 -33.28)"/><path class="cls-4" d="M256.44,47.58h-.62V43.66a3.23,3.23,0,0,1-.58.42,4.28,4.28,0,0,1-.65.32v-.6a3.4,3.4,0,0,0,.9-.58,2.42,2.42,0,0,0,.55-.67h.4Z" transform="translate(-4.65 -33.28)"/><path class="cls-4" d="M252.8,98.18h-.61V94.26a3.23,3.23,0,0,1-.58.42A4.28,4.28,0,0,1,251,95v-.6a3.76,3.76,0,0,0,.9-.58,2.42,2.42,0,0,0,.55-.67h.39Z" transform="translate(-4.65 -33.28)"/><path class="cls-4" d="M257.61,97.59v.59H254.3a1.25,1.25,0,0,1,.07-.43,2.29,2.29,0,0,1,.41-.67,6,6,0,0,1,.8-.76,6.42,6.42,0,0,0,1.11-1.06,1.25,1.25,0,0,0,.28-.74.78.78,0,0,0-.26-.61.93.93,0,0,0-.68-.26,1,1,0,0,0-.71.27,1,1,0,0,0-.27.74l-.63-.07a1.48,1.48,0,0,1,.49-1.07,1.64,1.64,0,0,1,1.13-.37,1.58,1.58,0,0,1,1.15.4,1.29,1.29,0,0,1,.42,1,1.4,1.4,0,0,1-.13.59,2.25,2.25,0,0,1-.41.61,9.94,9.94,0,0,1-.94.88,9.44,9.44,0,0,0-.71.63,1.34,1.34,0,0,0-.26.34Z" transform="translate(-4.65 -33.28)"/><path class="cls-4" d="M278.88,47.58h-.62V43.66a2.9,2.9,0,0,1-.58.42,4.28,4.28,0,0,1-.65.32v-.6a3.63,3.63,0,0,0,.91-.58,2.37,2.37,0,0,0,.54-.67h.4Z" transform="translate(-4.65 -33.28)"/><path class="cls-4" d="M280.46,46.26l.61-.09a1.39,1.39,0,0,0,.36.76.91.91,0,0,0,.62.23,1,1,0,0,0,1-1,1,1,0,0,0-.28-.7,1,1,0,0,0-.7-.27,1.59,1.59,0,0,0-.44.07l.07-.54h.1a1.33,1.33,0,0,0,.71-.2.8.8,0,0,0,.08-1.19.81.81,0,0,0-.59-.23.85.85,0,0,0-.6.23,1.14,1.14,0,0,0-.31.68l-.61-.11a1.55,1.55,0,0,1,.51-1,1.48,1.48,0,0,1,1-.34,1.72,1.72,0,0,1,.75.17,1.3,1.3,0,0,1,.53.48,1.28,1.28,0,0,1,.18.65,1,1,0,0,1-.17.59,1.16,1.16,0,0,1-.52.42,1.13,1.13,0,0,1,.69.43,1.26,1.26,0,0,1,.25.81,1.46,1.46,0,0,1-.48,1.11,1.7,1.7,0,0,1-1.21.46,1.53,1.53,0,0,1-1.09-.4A1.51,1.51,0,0,1,280.46,46.26Z" transform="translate(-4.65 -33.28)"/><path class="cls-4" d="M278.88,98.18h-.62V94.26a2.9,2.9,0,0,1-.58.42A4.28,4.28,0,0,1,277,95v-.6a3.66,3.66,0,0,0,.91-.59,2.24,2.24,0,0,0,.54-.67h.4Z" transform="translate(-4.65 -33.28)"/><path class="cls-4" d="M282.43,98.18V97h-2.18v-.57l2.29-3.24h.5v3.24h.68V97H283v1.2Zm0-1.77V94.15l-1.57,2.26Z" transform="translate(-4.65 -33.28)"/><path class="cls-4" d="M304.71,47.58h-.62V43.66a2.9,2.9,0,0,1-.58.42,3.87,3.87,0,0,1-.65.32v-.6a3.63,3.63,0,0,0,.91-.58,2.37,2.37,0,0,0,.54-.67h.4Z" transform="translate(-4.65 -33.28)"/><path class="cls-4" d="M306.29,46.27l.64-.06a1.18,1.18,0,0,0,.33.71.93.93,0,0,0,.64.24,1,1,0,0,0,.75-.34,1.28,1.28,0,0,0,.31-.89,1.14,1.14,0,0,0-.3-.83,1.06,1.06,0,0,0-.78-.3,1.07,1.07,0,0,0-.91.48l-.58-.07.49-2.57h2.49v.58h-2l-.27,1.35a1.63,1.63,0,0,1,.95-.31,1.51,1.51,0,0,1,1.11.45,1.58,1.58,0,0,1,.45,1.17,1.83,1.83,0,0,1-.4,1.18,1.78,1.78,0,0,1-2.43.22A1.46,1.46,0,0,1,306.29,46.27Z" transform="translate(-4.65 -33.28)"/><path class="cls-4" d="M304.71,98.18h-.62V94.26a2.9,2.9,0,0,1-.58.42,3.87,3.87,0,0,1-.65.32v-.6a3.63,3.63,0,0,0,.91-.58,2.37,2.37,0,0,0,.54-.67h.4Z" transform="translate(-4.65 -33.28)"/><path class="cls-4" d="M309.48,94.39l-.61,0a1.25,1.25,0,0,0-.24-.53.82.82,0,0,0-.61-.26.85.85,0,0,0-.52.17,1.47,1.47,0,0,0-.46.61,3.19,3.19,0,0,0-.17,1.16,1.51,1.51,0,0,1,.54-.5,1.48,1.48,0,0,1,.68-.16,1.37,1.37,0,0,1,1,.45,1.62,1.62,0,0,1,.44,1.17,1.9,1.9,0,0,1-.21.88,1.47,1.47,0,0,1-.56.62,1.52,1.52,0,0,1-.8.21,1.62,1.62,0,0,1-1.26-.56,2.89,2.89,0,0,1-.48-1.87,3.32,3.32,0,0,1,.54-2.11,1.54,1.54,0,0,1,1.26-.57,1.44,1.44,0,0,1,1,.33A1.39,1.39,0,0,1,309.48,94.39ZM307,96.55a1.42,1.42,0,0,0,.13.61,1,1,0,0,0,.38.44.87.87,0,0,0,1.18-.16,1.26,1.26,0,0,0,.28-.85,1.13,1.13,0,0,0-.28-.82.91.91,0,0,0-.7-.3.94.94,0,0,0-.7.3A1,1,0,0,0,307,96.55Z" transform="translate(-4.65 -33.28)"/></g><g id="图层_4" data-name="图层 4"><rect class="cls-5" x="4.9" y="33.53" width="46.32" height="73.23" transform="translate(51.47 107.01) rotate(-180)"/><rect class="cls-5" x="9.28" y="40.34" width="10.26" height="59.68" transform="translate(24.18 107.08) rotate(-180)"/><circle class="cls-6" cx="46.57" cy="8.72" r="1.81"/><circle class="cls-6" cx="46.57" cy="54.13" r="1.81"/><circle class="cls-6" cx="46.57" cy="64.93" r="1.81"/><line class="cls-6" x1="44.76" y1="8.72" x2="14.9" y2="8.72"/><line class="cls-6" x1="44.76" y1="54.13" x2="14.9" y2="54.13"/><line class="cls-6" x1="44.76" y1="64.93" x2="14.9" y2="64.93"/><path class="cls-4" d="M41.8,82a1,1,0,0,1,.81.38A2.35,2.35,0,0,1,43,83.83a2.39,2.39,0,0,1-.35,1.46,1,1,0,0,1-.81.37,1,1,0,0,1-.85-.4,2.41,2.41,0,0,1-.32-1.43A2.33,2.33,0,0,1,41,82.37,1,1,0,0,1,41.8,82Zm0,.57a.38.38,0,0,0-.23.08.65.65,0,0,0-.15.29,4.29,4.29,0,0,0-.07.89,3.43,3.43,0,0,0,.07.87.52.52,0,0,0,.16.31.33.33,0,0,0,.22.08A.37.37,0,0,0,42,85a.61.61,0,0,0,.15-.28,3.83,3.83,0,0,0,.07-.9,4,4,0,0,0-.06-.86.67.67,0,0,0-.16-.32A.37.37,0,0,0,41.8,82.57Z" transform="translate(-4.65 -33.28)"/><path class="cls-4" d="M44.48,85.6,43.2,82H44l.9,2.65L45.77,82h.77L45.25,85.6Z" transform="translate(-4.65 -33.28)"/><path class="cls-4" d="M41.63,97.24l-1.28-3.58h.79l.9,2.65.88-2.65h.77L42.4,97.24Z" transform="translate(-4.65 -33.28)"/><path class="cls-4" d="M44.84,96.73V95.8H43.9v-.64h.94v-.93h.62v.93h.94v.64h-.94v.93Z" transform="translate(-4.65 -33.28)"/><path class="cls-4" d="M40.62,40.19v-3H39.56v-.61h2.85v.61H41.35v3Z" transform="translate(-4.65 -33.28)"/><path class="cls-4" d="M42.51,40.19l1.22-1.86-1.11-1.72h.85l.72,1.15.7-1.15h.84l-1.12,1.74,1.23,1.84H45L44.17,39l-.79,1.23Z" transform="translate(-4.65 -33.28)"/><path class="cls-4" d="M46.13,39.24v-.69h1.34v.69Z" transform="translate(-4.65 -33.28)"/><circle class="cls-6" cx="46.57" cy="20.67" r="1.81"/><line class="cls-6" x1="44.76" y1="20.67" x2="14.9" y2="20.67"/><path class="cls-4" d="M40,52.15v-3H38.94v-.6h2.84v.6H40.72v3Z" transform="translate(-4.65 -33.28)"/><path class="cls-4" d="M41.88,52.15l1.23-1.87L42,48.57h.84l.72,1.15.7-1.15h.84L44,50.3l1.22,1.85h-.87l-.8-1.24-.79,1.24Z" transform="translate(-4.65 -33.28)"/><path class="cls-4" d="M46.36,51.63V50.7h-.94v-.64h.94v-.93H47v.93h.94v.64H47v.93Z" transform="translate(-4.65 -33.28)"/><circle class="cls-6" cx="46.57" cy="31.72" r="1.81"/><line class="cls-6" x1="44.76" y1="31.72" x2="14.9" y2="31.72"/><circle class="cls-6" cx="46.57" cy="42.67" r="1.81"/><line class="cls-6" x1="44.76" y1="42.67" x2="14.9" y2="42.67"/><path class="cls-4" d="M38.92,63.67V60.09h1.52a2.4,2.4,0,0,1,.83.1.81.81,0,0,1,.42.34,1,1,0,0,1,.15.56,1,1,0,0,1-.23.67,1.21,1.21,0,0,1-.71.33,2,2,0,0,1,.39.3,4.94,4.94,0,0,1,.41.58l.43.7h-.86l-.52-.78c-.19-.28-.32-.45-.38-.53a.62.62,0,0,0-.22-.15,1.49,1.49,0,0,0-.36,0h-.15v1.5Zm.72-2.07h.53a2.76,2.76,0,0,0,.65,0,.41.41,0,0,0,.21-.15.54.54,0,0,0,.07-.27.41.41,0,0,0-.37-.43H39.64Z" transform="translate(-4.65 -33.28)"/><path class="cls-4" d="M42.16,63.67l1.22-1.87-1.1-1.71h.84l.72,1.15.7-1.15h.84l-1.11,1.74,1.22,1.84h-.87l-.8-1.24L43,63.67Z" transform="translate(-4.65 -33.28)"/><path class="cls-4" d="M46.64,63.15v-.93H45.7v-.64h.94v-.93h.63v.93h.94v.64h-.94v.93Z" transform="translate(-4.65 -33.28)"/><path class="cls-4" d="M39.54,74.62V71h1.52a2.43,2.43,0,0,1,.84.1.8.8,0,0,1,.41.34,1,1,0,0,1,.16.57.94.94,0,0,1-.24.66,1.05,1.05,0,0,1-.7.33,1.68,1.68,0,0,1,.38.3,4,4,0,0,1,.41.58l.44.7H41.9l-.53-.78a3.65,3.65,0,0,0-.38-.52.41.41,0,0,0-.21-.15,1.14,1.14,0,0,0-.37,0h-.14v1.49Zm.73-2.06h.53a2.6,2.6,0,0,0,.65,0,.38.38,0,0,0,.2-.15.46.46,0,0,0,.08-.27.44.44,0,0,0-.1-.29.47.47,0,0,0-.27-.14H40.27Z" transform="translate(-4.65 -33.28)"/><path class="cls-4" d="M42.79,74.62,44,72.75,42.9,71h.85l.72,1.15.7-1.15H46l-1.12,1.74,1.23,1.84h-.88l-.79-1.24-.79,1.24Z" transform="translate(-4.65 -33.28)"/><path class="cls-4" d="M46.4,73.67V73h1.35v.69Z" transform="translate(-4.65 -33.28)"/></g><g id="com1"><path class="cls-7" d="M125.28,49.89a56.24,56.24,0,0,0-24.63-11.23c-24.49-4.29-46,1.78-48,2.76" transform="translate(-4.65 -33.28)"/><path class="cls-8" d="M228,88.78a45.77,45.77,0,0,1-13.16,9.81C182.15,115.15,117.65,114.72,53,87.41" transform="translate(-4.65 -33.28)"/><path class="cls-9" d="M253.94,89.55c-9.33,5.66-54.17,31.64-116.52,26.23-43-3.73-72.87-10.11-84.39-17.57" transform="translate(-4.65 -33.28)"/><path class="cls-7" d="M53,54c6.51,1.82,63.36,16.11,97.06,7.21" transform="translate(-4.65 -33.28)"/><path class="cls-7" d="M53,65.56c6.51,2.84,87.62,9.43,121.32-4.39" transform="translate(-4.65 -33.28)"/><path class="cls-7" d="M53,76a264.78,264.78,0,0,0,103.36-.47c17.44-3.6,32.94-9.54,45.89-14.83" transform="translate(-4.65 -33.28)"/></g></svg>