<svg xmlns="http://www.w3.org/2000/svg" viewBox="0 0 352.5 111.3"><defs><style>.cls-1{fill:#7e7e7f;}.cls-1,.cls-2,.cls-3,.cls-8{stroke:#231815;}.cls-1,.cls-2,.cls-3,.cls-5,.cls-6,.cls-7,.cls-8,.cls-9{stroke-miterlimit:10;}.cls-1,.cls-2,.cls-3,.cls-5,.cls-6{stroke-width:0.5px;}.cls-2{fill:#fbe6b6;}.cls-3,.cls-5,.cls-7,.cls-8,.cls-9{fill:none;}.cls-4{fill:#231815;}.cls-5,.cls-6{stroke:#040000;}.cls-6{fill:#fff;}.cls-7{stroke:#22ac38;}.cls-9{stroke:#e60012;}</style></defs><g id="图层_2" data-name="图层 2"><rect class="cls-1" x="61.84" y="44.38" width="11.33" height="11.27"/><rect class="cls-1" x="87.93" y="44.38" width="11.33" height="11.27"/><rect class="cls-1" x="114.03" y="44.38" width="11.33" height="11.27"/><rect class="cls-1" x="140.12" y="44.38" width="11.33" height="11.27"/><rect class="cls-1" x="166.21" y="44.38" width="11.33" height="11.27"/><rect class="cls-1" x="35.75" y="44.37" width="11.33" height="11.27"/><rect class="cls-1" x="61.84" y="72.76" width="11.33" height="11.27"/><rect class="cls-1" x="87.93" y="72.76" width="11.33" height="11.27"/><rect class="cls-1" x="114.03" y="72.76" width="11.33" height="11.27"/><rect class="cls-1" x="140.12" y="72.76" width="11.33" height="11.27"/><rect class="cls-1" x="166.21" y="72.76" width="11.33" height="11.27"/><rect class="cls-1" x="35.75" y="72.76" width="11.33" height="11.27"/><ellipse class="cls-2" cx="250.71" cy="78.31" rx="7.25" ry="6.75"/><ellipse class="cls-2" cx="14.49" cy="78.31" rx="7.25" ry="6.75"/><rect class="cls-3" x="0.25" y="32.06" width="264" height="65.13"/><rect class="cls-1" x="192.31" y="44.38" width="11.33" height="11.27"/><rect class="cls-1" x="218.52" y="44.38" width="11.33" height="11.27"/><rect class="cls-1" x="192.31" y="72.76" width="11.33" height="11.27"/><rect class="cls-1" x="218.52" y="72.76" width="11.33" height="11.27"/></g><g id="图层_3" data-name="图层 3"><path class="cls-4" d="M46.17,47.58h-.61V43.66a3.23,3.23,0,0,1-.58.42,4.28,4.28,0,0,1-.65.32v-.6a3.76,3.76,0,0,0,.9-.58,2.42,2.42,0,0,0,.55-.67h.39Z" transform="translate(-4.4 -5.52)"/><path class="cls-4" d="M47.09,97.59v.59H43.78a1.05,1.05,0,0,1,.07-.43,2.24,2.24,0,0,1,.4-.67,7,7,0,0,1,.81-.76,6.66,6.66,0,0,0,1.1-1.06,1.2,1.2,0,0,0,.29-.74.82.82,0,0,0-.26-.61,1,1,0,0,0-1.39,0,1,1,0,0,0-.27.74l-.64-.07a1.56,1.56,0,0,1,.49-1.07,1.66,1.66,0,0,1,1.14-.37,1.57,1.57,0,0,1,1.14.4,1.29,1.29,0,0,1,.42,1,1.56,1.56,0,0,1-.12.59,2.25,2.25,0,0,1-.41.61,10.35,10.35,0,0,1-.95.88c-.37.31-.6.52-.71.63a2,2,0,0,0-.26.34Z" transform="translate(-4.4 -5.52)"/><path class="cls-4" d="M70.07,46.26l.61-.09a1.39,1.39,0,0,0,.36.76.91.91,0,0,0,.62.23,1,1,0,0,0,1-1,.93.93,0,0,0-1-1,1.58,1.58,0,0,0-.43.07l.07-.54h.1a1.27,1.27,0,0,0,.7-.2.71.71,0,0,0,.32-.63.74.74,0,0,0-.23-.56.81.81,0,0,0-.59-.23.85.85,0,0,0-.6.23,1.14,1.14,0,0,0-.31.68l-.61-.11a1.5,1.5,0,0,1,.51-1,1.48,1.48,0,0,1,1-.34,1.72,1.72,0,0,1,.75.17,1.3,1.3,0,0,1,.53.48,1.28,1.28,0,0,1,.18.65,1.1,1.1,0,0,1-.17.59,1.16,1.16,0,0,1-.52.42,1.13,1.13,0,0,1,.69.43,1.26,1.26,0,0,1,.25.81,1.46,1.46,0,0,1-.48,1.11,1.7,1.7,0,0,1-1.21.46,1.55,1.55,0,0,1-1.1-.4A1.5,1.5,0,0,1,70.07,46.26Z" transform="translate(-4.4 -5.52)"/><path class="cls-4" d="M72,98.18V97H69.86v-.57l2.29-3.24h.5v3.24h.68V97h-.68v1.2Zm0-1.77V94.15l-1.57,2.26Z" transform="translate(-4.4 -5.52)"/><path class="cls-4" d="M96.18,46.27l.64-.06a1.14,1.14,0,0,0,.34.71.88.88,0,0,0,.63.24,1,1,0,0,0,.75-.34,1.28,1.28,0,0,0,.31-.89,1.14,1.14,0,0,0-.3-.83,1,1,0,0,0-.77-.3,1.08,1.08,0,0,0-.54.13,1.16,1.16,0,0,0-.38.35l-.57-.07.48-2.57h2.49v.58h-2L97,44.57a1.63,1.63,0,0,1,1-.31,1.51,1.51,0,0,1,1.11.45,1.58,1.58,0,0,1,.45,1.17,1.83,1.83,0,0,1-.4,1.18,1.78,1.78,0,0,1-2.43.22A1.46,1.46,0,0,1,96.18,46.27Z" transform="translate(-4.4 -5.52)"/><path class="cls-4" d="M99.37,94.39l-.61,0a1.14,1.14,0,0,0-.24-.53.82.82,0,0,0-.61-.26.85.85,0,0,0-.52.17,1.38,1.38,0,0,0-.45.61,3.16,3.16,0,0,0-.18,1.16,1.51,1.51,0,0,1,.54-.5,1.48,1.48,0,0,1,.68-.16,1.41,1.41,0,0,1,1,.45,1.65,1.65,0,0,1,.43,1.17,1.9,1.9,0,0,1-.21.88,1.51,1.51,0,0,1-.55.62,1.58,1.58,0,0,1-.81.21,1.62,1.62,0,0,1-1.26-.56,2.89,2.89,0,0,1-.48-1.87,3.32,3.32,0,0,1,.54-2.11A1.54,1.54,0,0,1,98,93.15a1.44,1.44,0,0,1,1,.33A1.39,1.39,0,0,1,99.37,94.39Zm-2.51,2.16a1.42,1.42,0,0,0,.13.61,1,1,0,0,0,.38.44.87.87,0,0,0,1.18-.16,1.21,1.21,0,0,0,.28-.85,1.13,1.13,0,0,0-.28-.82.89.89,0,0,0-.69-.3.94.94,0,0,0-.71.3A1,1,0,0,0,96.86,96.55Z" transform="translate(-4.4 -5.52)"/><path class="cls-4" d="M122.18,43.22v-.59h3.25v.48a6.72,6.72,0,0,0-1,1.35,8.7,8.7,0,0,0-.73,1.74,6.41,6.41,0,0,0-.23,1.38h-.63a5.67,5.67,0,0,1,.23-1.43,7.48,7.48,0,0,1,.64-1.62,7.11,7.11,0,0,1,.88-1.31Z" transform="translate(-4.4 -5.52)"/><path class="cls-4" d="M123.09,95.46a1.17,1.17,0,0,1-.57-.4,1.05,1.05,0,0,1-.18-.62,1.22,1.22,0,0,1,.39-.92,1.45,1.45,0,0,1,1-.38,1.43,1.43,0,0,1,1,.39,1.21,1.21,0,0,1,.4.92,1,1,0,0,1-.18.61,1.16,1.16,0,0,1-.55.4,1.38,1.38,0,0,1,.7.48,1.35,1.35,0,0,1,.24.8,1.41,1.41,0,0,1-.46,1.08,1.84,1.84,0,0,1-2.39,0,1.46,1.46,0,0,1-.45-1.09,1.35,1.35,0,0,1,.24-.82A1.29,1.29,0,0,1,123.09,95.46Zm-.32,1.27a1.13,1.13,0,0,0,.12.51,1,1,0,0,0,.37.38,1.13,1.13,0,0,0,.53.14,1,1,0,0,0,1-1,1,1,0,0,0-.3-.73,1,1,0,0,0-1.74.71Zm.2-2.31a.76.76,0,0,0,.23.58.8.8,0,0,0,.59.22.78.78,0,0,0,.58-.22.71.71,0,0,0,.23-.55.79.79,0,0,0-.23-.57.82.82,0,0,0-.59-.23.8.8,0,0,0-.58.23A.7.7,0,0,0,123,94.42Z" transform="translate(-4.4 -5.52)"/><path class="cls-4" d="M148.53,46.42l.59-.06a1.06,1.06,0,0,0,.29.61.76.76,0,0,0,.54.19,1,1,0,0,0,.5-.13,1.06,1.06,0,0,0,.35-.35,2,2,0,0,0,.23-.59,3.08,3.08,0,0,0,.09-.75v-.12a1.56,1.56,0,0,1-.51.48,1.44,1.44,0,0,1-1.74-.27,1.64,1.64,0,0,1-.43-1.19,1.69,1.69,0,0,1,.45-1.23,1.49,1.49,0,0,1,1.12-.46,1.58,1.58,0,0,1,.9.26,1.68,1.68,0,0,1,.61.75,3.67,3.67,0,0,1,.21,1.41,4.54,4.54,0,0,1-.21,1.53,1.78,1.78,0,0,1-.62.87,1.63,1.63,0,0,1-1,.29,1.32,1.32,0,0,1-1.41-1.24Zm2.52-2.21a1.21,1.21,0,0,0-.28-.84.89.89,0,0,0-.68-.31,1,1,0,0,0-.72.33,1.24,1.24,0,0,0-.3.87,1,1,0,0,0,.29.78.94.94,0,0,0,.71.3.91.91,0,0,0,.7-.3A1.16,1.16,0,0,0,151.05,44.21Z" transform="translate(-4.4 -5.52)"/><path class="cls-4" d="M148.81,98.18h-.62V94.26a3.23,3.23,0,0,1-.58.42A4.28,4.28,0,0,1,147,95v-.6a3.42,3.42,0,0,0,.9-.59,2.29,2.29,0,0,0,.55-.67h.4Z" transform="translate(-4.4 -5.52)"/><path class="cls-4" d="M150.38,95.7a4.38,4.38,0,0,1,.19-1.43,1.72,1.72,0,0,1,.54-.83,1.37,1.37,0,0,1,.91-.3,1.42,1.42,0,0,1,.7.17,1.35,1.35,0,0,1,.51.47,2.66,2.66,0,0,1,.31.74,5.24,5.24,0,0,1,.11,1.18,4.66,4.66,0,0,1-.18,1.43,1.8,1.8,0,0,1-.54.84,1.44,1.44,0,0,1-.91.29,1.35,1.35,0,0,1-1.14-.52A3.28,3.28,0,0,1,150.38,95.7Zm.64,0a3.2,3.2,0,0,0,.28,1.65.87.87,0,0,0,.72.41.85.85,0,0,0,.71-.41A3.2,3.2,0,0,0,153,95.7a3.16,3.16,0,0,0-.29-1.64.86.86,0,0,0-.72-.41.8.8,0,0,0-.68.36A3.22,3.22,0,0,0,151,95.7Z" transform="translate(-4.4 -5.52)"/><path class="cls-4" d="M174.87,47.58h-.62V43.66a2.9,2.9,0,0,1-.58.42,3.87,3.87,0,0,1-.65.32v-.6a3.63,3.63,0,0,0,.91-.58,2.37,2.37,0,0,0,.54-.67h.4Z" transform="translate(-4.4 -5.52)"/><path class="cls-4" d="M178.24,47.58h-.61V43.66a3.23,3.23,0,0,1-.58.42,4.79,4.79,0,0,1-.65.32v-.6a3.76,3.76,0,0,0,.9-.58,2.42,2.42,0,0,0,.55-.67h.39Z" transform="translate(-4.4 -5.52)"/><path class="cls-4" d="M174.61,98.18H174V94.26a3.34,3.34,0,0,1-.59.42,3.87,3.87,0,0,1-.65.32v-.6a3.63,3.63,0,0,0,.91-.58,2.37,2.37,0,0,0,.54-.67h.4Z" transform="translate(-4.4 -5.52)"/><path class="cls-4" d="M179.42,97.59v.59h-3.31a1.05,1.05,0,0,1,.07-.43,2.24,2.24,0,0,1,.4-.67,7,7,0,0,1,.81-.76,6.66,6.66,0,0,0,1.1-1.06,1.27,1.27,0,0,0,.29-.74.82.82,0,0,0-.26-.61.94.94,0,0,0-.68-.26.93.93,0,0,0-.71.27,1,1,0,0,0-.27.74l-.64-.07a1.56,1.56,0,0,1,.49-1.07,1.66,1.66,0,0,1,1.14-.37,1.57,1.57,0,0,1,1.14.4,1.29,1.29,0,0,1,.42,1,1.56,1.56,0,0,1-.12.59,2.25,2.25,0,0,1-.41.61,10.35,10.35,0,0,1-.95.88c-.37.31-.6.52-.71.63a2,2,0,0,0-.26.34Z" transform="translate(-4.4 -5.52)"/><path class="cls-4" d="M200.69,47.58h-.62V43.66a3.23,3.23,0,0,1-.58.42,4.28,4.28,0,0,1-.65.32v-.6a3.57,3.57,0,0,0,.9-.58,2.42,2.42,0,0,0,.55-.67h.4Z" transform="translate(-4.4 -5.52)"/><path class="cls-4" d="M202.26,46.26l.62-.09a1.39,1.39,0,0,0,.36.76.91.91,0,0,0,.62.23,1,1,0,0,0,.73-.3,1,1,0,0,0,.3-.75.93.93,0,0,0-1-1,1.58,1.58,0,0,0-.43.07l.07-.54h.1a1.3,1.3,0,0,0,.7-.2.71.71,0,0,0,.32-.63.74.74,0,0,0-.23-.56.81.81,0,0,0-.59-.23.85.85,0,0,0-.6.23,1.14,1.14,0,0,0-.31.68l-.61-.11a1.5,1.5,0,0,1,.51-1,1.47,1.47,0,0,1,1-.34,1.73,1.73,0,0,1,.76.17,1.3,1.3,0,0,1,.53.48,1.28,1.28,0,0,1,.18.65,1.1,1.1,0,0,1-.17.59,1.16,1.16,0,0,1-.52.42,1.13,1.13,0,0,1,.69.43,1.32,1.32,0,0,1,.25.81,1.46,1.46,0,0,1-.48,1.11,1.7,1.7,0,0,1-1.21.46,1.54,1.54,0,0,1-1.6-1.41Z" transform="translate(-4.4 -5.52)"/><path class="cls-4" d="M200.69,98.18h-.62V94.26a3.23,3.23,0,0,1-.58.42,4.28,4.28,0,0,1-.65.32v-.6a3.6,3.6,0,0,0,.9-.59,2.29,2.29,0,0,0,.55-.67h.4Z" transform="translate(-4.4 -5.52)"/><path class="cls-4" d="M204.23,98.18V97h-2.17v-.57l2.29-3.24h.5v3.24h.68V97h-.68v1.2Zm0-1.77V94.15l-1.56,2.26Z" transform="translate(-4.4 -5.52)"/><path class="cls-4" d="M226.52,47.58h-.62V43.66a3.23,3.23,0,0,1-.58.42,4.28,4.28,0,0,1-.65.32v-.6a3.57,3.57,0,0,0,.9-.58,2.42,2.42,0,0,0,.55-.67h.4Z" transform="translate(-4.4 -5.52)"/><path class="cls-4" d="M228.09,46.27l.65-.06a1.18,1.18,0,0,0,.33.71.92.92,0,0,0,.63.24,1,1,0,0,0,.75-.34,1.24,1.24,0,0,0,.31-.89,1.18,1.18,0,0,0-.29-.83,1.06,1.06,0,0,0-.78-.3,1,1,0,0,0-.53.13,1.07,1.07,0,0,0-.38.35l-.58-.07.49-2.57h2.49v.58h-2l-.27,1.35a1.63,1.63,0,0,1,1-.31,1.5,1.5,0,0,1,1.1.45,1.58,1.58,0,0,1,.45,1.17,1.88,1.88,0,0,1-.39,1.18,1.6,1.6,0,0,1-1.32.6,1.58,1.58,0,0,1-1.11-.38A1.47,1.47,0,0,1,228.09,46.27Z" transform="translate(-4.4 -5.52)"/><path class="cls-4" d="M226.52,98.18h-.62V94.26a3.23,3.23,0,0,1-.58.42,4.28,4.28,0,0,1-.65.32v-.6a3.57,3.57,0,0,0,.9-.58,2.42,2.42,0,0,0,.55-.67h.4Z" transform="translate(-4.4 -5.52)"/><path class="cls-4" d="M231.28,94.39l-.61,0a1.14,1.14,0,0,0-.23-.53.83.83,0,0,0-.61-.26.85.85,0,0,0-.52.17,1.39,1.39,0,0,0-.46.61,3.19,3.19,0,0,0-.17,1.16,1.41,1.41,0,0,1,1.21-.66,1.41,1.41,0,0,1,1.05.45,1.61,1.61,0,0,1,.43,1.17,1.89,1.89,0,0,1-.2.88,1.53,1.53,0,0,1-.56.62,1.55,1.55,0,0,1-.81.21,1.58,1.58,0,0,1-1.25-.56,2.89,2.89,0,0,1-.49-1.87,3.32,3.32,0,0,1,.54-2.11,1.54,1.54,0,0,1,1.26-.57,1.41,1.41,0,0,1,1,.33A1.39,1.39,0,0,1,231.28,94.39Zm-2.51,2.16a1.43,1.43,0,0,0,.14.61.92.92,0,0,0,.38.44.87.87,0,0,0,.5.16.86.86,0,0,0,.67-.32,1.21,1.21,0,0,0,.28-.85,1.18,1.18,0,0,0-.27-.82.92.92,0,0,0-.7-.3,1,1,0,0,0-.71.3A1.09,1.09,0,0,0,228.77,96.55Z" transform="translate(-4.4 -5.52)"/></g><g id="图层_4" data-name="图层 4"><rect class="cls-5" x="305.93" y="35.51" width="46.32" height="59.23"/><rect class="cls-5" x="337.6" y="45.35" width="10.26" height="41.06"/><circle class="cls-6" cx="305.93" cy="49.87" r="1.81"/><circle class="cls-6" cx="305.93" cy="66.76" r="1.81"/><circle class="cls-6" cx="305.93" cy="82.01" r="1.81"/><line class="cls-6" x1="307.74" y1="49.87" x2="337.6" y2="49.87"/><line class="cls-6" x1="307.74" y1="66.76" x2="337.6" y2="66.76"/><line class="cls-6" x1="307.74" y1="82.01" x2="337.6" y2="82.01"/><path class="cls-4" d="M315.4,66.5a1,1,0,0,1,.82.38,2.35,2.35,0,0,1,.35,1.45,2.31,2.31,0,0,1-.36,1.46,1,1,0,0,1-.81.37,1,1,0,0,1-.84-.4,3.29,3.29,0,0,1,0-2.89A1,1,0,0,1,315.4,66.5Zm0,.57a.37.37,0,0,0-.22.08.65.65,0,0,0-.15.29,3.68,3.68,0,0,0-.07.89,4.18,4.18,0,0,0,.06.87.67.67,0,0,0,.16.31.37.37,0,0,0,.22.08.38.38,0,0,0,.23-.08.61.61,0,0,0,.15-.28,3.83,3.83,0,0,0,.07-.9,4,4,0,0,0-.06-.86.78.78,0,0,0-.16-.32A.38.38,0,0,0,315.4,67.07Z" transform="translate(-4.4 -5.52)"/><path class="cls-4" d="M318.09,70.1l-1.28-3.58h.78l.91,2.65.88-2.65h.76l-1.28,3.58Z" transform="translate(-4.4 -5.52)"/><path class="cls-4" d="M315.24,85.72,314,82.14h.78l.91,2.65.88-2.65h.76L316,85.72Z" transform="translate(-4.4 -5.52)"/><path class="cls-4" d="M318.44,85.21v-.93h-.94v-.64h.94V82.7h.63v.94H320v.64h-.94v.93Z" transform="translate(-4.4 -5.52)"/><path class="cls-4" d="M315.06,53.52v-3H314v-.6h2.85v.6h-1.06v3Z" transform="translate(-4.4 -5.52)"/><path class="cls-4" d="M317,53.52l1.22-1.87-1.11-1.71h.85l.72,1.15.7-1.15h.84l-1.12,1.74,1.23,1.84h-.87l-.8-1.24-.79,1.24Z" transform="translate(-4.4 -5.52)"/></g><g id="com1"><path class="cls-7" d="M97.94,49.9c10.1-15,21.21-24.11,30.58-29.77C175.08-8,245.85,7.07,308.51,55.39" transform="translate(-4.4 -5.52)"/><path class="cls-8" d="M151,49.9a107.77,107.77,0,0,1,40.26-18.16c61-13.13,111.23,34.61,117.28,40.54" transform="translate(-4.4 -5.52)"/><path class="cls-9" d="M175,89.55c6.87,6.62,24.57,21.79,51.56,25.8,45.36,6.75,78-23.8,82.19-27.82" transform="translate(-4.4 -5.52)"/></g></svg>