<svg xmlns="http://www.w3.org/2000/svg" viewBox="0 0 341.54 88.7"><defs><style>.cls-1{fill:#7e7e7f;}.cls-1,.cls-2,.cls-3,.cls-7{stroke:#231815;}.cls-1,.cls-2,.cls-3,.cls-5,.cls-6,.cls-7,.cls-8,.cls-9{stroke-miterlimit:10;}.cls-1,.cls-2,.cls-3,.cls-5,.cls-6{stroke-width:0.5px;}.cls-2{fill:#fbe6b6;}.cls-3,.cls-5,.cls-7,.cls-8,.cls-9{fill:none;}.cls-4{fill:#231815;}.cls-5,.cls-6{stroke:#040000;}.cls-6{fill:#fff;}.cls-8{stroke:#e60012;}.cls-9{stroke:#22ac38;}</style></defs><g id="图层_2" data-name="图层 2"><rect class="cls-1" x="138.88" y="13.27" width="11.33" height="11.27"/><rect class="cls-1" x="164.97" y="13.27" width="11.33" height="11.27"/><rect class="cls-1" x="191.06" y="13.27" width="11.33" height="11.27"/><rect class="cls-1" x="217.16" y="13.27" width="11.33" height="11.27"/><rect class="cls-1" x="243.25" y="13.27" width="11.33" height="11.27"/><rect class="cls-1" x="112.78" y="13.25" width="11.33" height="11.27"/><rect class="cls-1" x="138.88" y="41.65" width="11.33" height="11.27"/><rect class="cls-1" x="164.97" y="41.65" width="11.33" height="11.27"/><rect class="cls-1" x="191.06" y="41.65" width="11.33" height="11.27"/><rect class="cls-1" x="217.16" y="41.65" width="11.33" height="11.27"/><rect class="cls-1" x="243.25" y="41.65" width="11.33" height="11.27"/><rect class="cls-1" x="112.78" y="41.65" width="11.33" height="11.27"/><ellipse class="cls-2" cx="327.74" cy="47.19" rx="7.25" ry="6.75"/><ellipse class="cls-2" cx="91.52" cy="47.19" rx="7.25" ry="6.75"/><rect class="cls-3" x="77.29" y="0.95" width="264" height="65.13"/><rect class="cls-1" x="269.34" y="13.27" width="11.33" height="11.27"/><rect class="cls-1" x="295.56" y="13.27" width="11.33" height="11.27"/><rect class="cls-1" x="269.34" y="41.65" width="11.33" height="11.27"/><rect class="cls-1" x="295.56" y="41.65" width="11.33" height="11.27"/></g><g id="图层_3" data-name="图层 3"><path class="cls-4" d="M124.37,47.58h-.62V43.66a3.23,3.23,0,0,1-.58.42,4.28,4.28,0,0,1-.65.32v-.6a3.4,3.4,0,0,0,.9-.58,2.42,2.42,0,0,0,.55-.67h.4Z" transform="translate(-5.55 -36.64)"/><path class="cls-4" d="M125.28,97.59v.59H122a1.25,1.25,0,0,1,.07-.43,2.29,2.29,0,0,1,.41-.67,6,6,0,0,1,.8-.76,6.42,6.42,0,0,0,1.11-1.06,1.25,1.25,0,0,0,.28-.74.78.78,0,0,0-.26-.61.93.93,0,0,0-.68-.26,1,1,0,0,0-.71.27,1,1,0,0,0-.27.74l-.63-.07a1.48,1.48,0,0,1,.49-1.07,1.64,1.64,0,0,1,1.13-.37,1.58,1.58,0,0,1,1.15.4,1.29,1.29,0,0,1,.42,1,1.4,1.4,0,0,1-.13.59,2,2,0,0,1-.41.61,9.94,9.94,0,0,1-.94.88,9.44,9.44,0,0,0-.71.63,1.34,1.34,0,0,0-.26.34Z" transform="translate(-5.55 -36.64)"/><path class="cls-4" d="M148.26,46.26l.62-.09a1.39,1.39,0,0,0,.36.76.9.9,0,0,0,.62.23,1,1,0,0,0,.73-.3,1,1,0,0,0,.3-.75.94.94,0,0,0-.28-.7,1,1,0,0,0-.7-.27,1.64,1.64,0,0,0-.44.07l.07-.54h.1a1.33,1.33,0,0,0,.71-.2.8.8,0,0,0,.08-1.19.81.81,0,0,0-.59-.23.85.85,0,0,0-.6.23,1.08,1.08,0,0,0-.3.68l-.62-.11a1.6,1.6,0,0,1,.51-1,1.48,1.48,0,0,1,1-.34,1.72,1.72,0,0,1,.75.17,1.3,1.3,0,0,1,.53.48,1.29,1.29,0,0,1,.19.65,1,1,0,0,1-.18.59,1.16,1.16,0,0,1-.52.42,1.18,1.18,0,0,1,.7.43,1.32,1.32,0,0,1,.24.81,1.46,1.46,0,0,1-.48,1.11,1.7,1.7,0,0,1-1.21.46,1.53,1.53,0,0,1-1.09-.4A1.51,1.51,0,0,1,148.26,46.26Z" transform="translate(-5.55 -36.64)"/><path class="cls-4" d="M150.23,98.18V97h-2.18v-.57l2.29-3.24h.5v3.24h.68V97h-.68v1.2Zm0-1.77V94.15l-1.57,2.26Z" transform="translate(-5.55 -36.64)"/><path class="cls-4" d="M174.37,46.27l.65-.06a1.13,1.13,0,0,0,.33.71.88.88,0,0,0,.63.24,1,1,0,0,0,.75-.34,1.24,1.24,0,0,0,.31-.89,1.14,1.14,0,0,0-.3-.83,1,1,0,0,0-.77-.3,1.08,1.08,0,0,0-.54.13,1,1,0,0,0-.37.35l-.58-.07.49-2.57h2.49v.58h-2l-.27,1.35a1.6,1.6,0,0,1,.94-.31,1.51,1.51,0,0,1,1.11.45,1.58,1.58,0,0,1,.45,1.17,1.88,1.88,0,0,1-.39,1.18,1.79,1.79,0,0,1-2.44.22A1.5,1.5,0,0,1,174.37,46.27Z" transform="translate(-5.55 -36.64)"/><path class="cls-4" d="M177.56,94.39l-.61,0a1.14,1.14,0,0,0-.23-.53.86.86,0,0,0-1.13-.09,1.32,1.32,0,0,0-.46.61,3.39,3.39,0,0,0-.18,1.16,1.46,1.46,0,0,1,.55-.5,1.44,1.44,0,0,1,.67-.16,1.41,1.41,0,0,1,1.05.45,1.61,1.61,0,0,1,.43,1.17,2,2,0,0,1-.2.88,1.53,1.53,0,0,1-.56.62,1.67,1.67,0,0,1-2.06-.35,2.83,2.83,0,0,1-.49-1.87,3.32,3.32,0,0,1,.54-2.11,1.54,1.54,0,0,1,1.26-.57,1.43,1.43,0,0,1,1,.33A1.39,1.39,0,0,1,177.56,94.39Zm-2.51,2.16a1.43,1.43,0,0,0,.14.61,1,1,0,0,0,.37.44.88.88,0,0,0,.51.16.86.86,0,0,0,.67-.32,1.21,1.21,0,0,0,.28-.85,1.18,1.18,0,0,0-.27-.82.92.92,0,0,0-.7-.3.94.94,0,0,0-.71.3A1.09,1.09,0,0,0,175.05,96.55Z" transform="translate(-5.55 -36.64)"/><path class="cls-4" d="M200.38,43.22v-.59h3.24v.48a7.15,7.15,0,0,0-1,1.35A8.65,8.65,0,0,0,202,46.2a6.4,6.4,0,0,0-.24,1.38h-.63a6.17,6.17,0,0,1,.23-1.43,7.48,7.48,0,0,1,.64-1.62,7.65,7.65,0,0,1,.88-1.31Z" transform="translate(-5.55 -36.64)"/><path class="cls-4" d="M201.28,95.46a1.14,1.14,0,0,1-.56-.4,1,1,0,0,1-.19-.62,1.19,1.19,0,0,1,.4-.92,1.62,1.62,0,0,1,2.1,0,1.24,1.24,0,0,1,.4.92,1,1,0,0,1-.19.61,1.11,1.11,0,0,1-.55.4,1.34,1.34,0,0,1,.7.48,1.35,1.35,0,0,1,.24.8,1.44,1.44,0,0,1-.45,1.08,1.86,1.86,0,0,1-2.4,0,1.46,1.46,0,0,1-.45-1.09,1.29,1.29,0,0,1,.25-.82A1.23,1.23,0,0,1,201.28,95.46ZM201,96.73a1,1,0,0,0,.13.51.85.85,0,0,0,.37.38,1.08,1.08,0,0,0,.53.14,1,1,0,0,0,.73-.29,1,1,0,0,0,.28-.72,1,1,0,0,0-.29-.73,1,1,0,0,0-.74-.29,1,1,0,0,0-1,1Zm.2-2.31a.84.84,0,0,0,1.41.58.74.74,0,0,0,.22-.55.75.75,0,0,0-.23-.57.86.86,0,0,0-1.17,0A.74.74,0,0,0,201.16,94.42Z" transform="translate(-5.55 -36.64)"/><path class="cls-4" d="M226.72,46.42l.59-.06a1.06,1.06,0,0,0,.29.61.76.76,0,0,0,.54.19,1,1,0,0,0,.5-.13,1.06,1.06,0,0,0,.35-.35,2,2,0,0,0,.23-.59,3.08,3.08,0,0,0,.09-.75v-.12a1.39,1.39,0,0,1-.51.48,1.37,1.37,0,0,1-.69.18,1.41,1.41,0,0,1-1.05-.45,1.64,1.64,0,0,1-.43-1.19,1.69,1.69,0,0,1,.45-1.23,1.49,1.49,0,0,1,1.13-.46,1.57,1.57,0,0,1,.89.26,1.68,1.68,0,0,1,.61.75,3.67,3.67,0,0,1,.21,1.41,4.57,4.57,0,0,1-.2,1.53,1.84,1.84,0,0,1-.62.87,1.68,1.68,0,0,1-1,.29,1.44,1.44,0,0,1-1-.32A1.42,1.42,0,0,1,226.72,46.42Zm2.52-2.21a1.17,1.17,0,0,0-.28-.84.89.89,0,0,0-.68-.31.93.93,0,0,0-.71.33,1.2,1.2,0,0,0-.31.87,1.09,1.09,0,0,0,.29.78.94.94,0,0,0,.71.3A.93.93,0,0,0,229,45,1.2,1.2,0,0,0,229.24,44.21Z" transform="translate(-5.55 -36.64)"/><path class="cls-4" d="M227,98.18h-.61V94.26a3.34,3.34,0,0,1-.59.42,4.22,4.22,0,0,1-.64.32v-.6a3.79,3.79,0,0,0,.9-.59,2.24,2.24,0,0,0,.54-.67h.4Z" transform="translate(-5.55 -36.64)"/><path class="cls-4" d="M228.58,95.7a4.7,4.7,0,0,1,.18-1.43,1.72,1.72,0,0,1,.54-.83,1.39,1.39,0,0,1,.91-.3,1.46,1.46,0,0,1,.71.17,1.32,1.32,0,0,1,.5.47,2.39,2.39,0,0,1,.31.74,4.72,4.72,0,0,1,.11,1.18,4.66,4.66,0,0,1-.18,1.43,1.8,1.8,0,0,1-.54.84,1.42,1.42,0,0,1-.91.29,1.38,1.38,0,0,1-1.14-.52A3.29,3.29,0,0,1,228.58,95.7Zm.63,0a3.07,3.07,0,0,0,.29,1.65.82.82,0,0,0,1.42,0,3.1,3.1,0,0,0,.29-1.65,3.05,3.05,0,0,0-.29-1.64.86.86,0,0,0-.72-.41.78.78,0,0,0-.67.36A3.11,3.11,0,0,0,229.21,95.7Z" transform="translate(-5.55 -36.64)"/><path class="cls-4" d="M253.06,47.58h-.61V43.66a3.23,3.23,0,0,1-.58.42,4.79,4.79,0,0,1-.65.32v-.6a3.76,3.76,0,0,0,.9-.58,2.42,2.42,0,0,0,.55-.67h.39Z" transform="translate(-5.55 -36.64)"/><path class="cls-4" d="M256.44,47.58h-.62V43.66a3.23,3.23,0,0,1-.58.42,4.28,4.28,0,0,1-.65.32v-.6a3.4,3.4,0,0,0,.9-.58,2.42,2.42,0,0,0,.55-.67h.4Z" transform="translate(-5.55 -36.64)"/><path class="cls-4" d="M252.8,98.18h-.61V94.26a3.23,3.23,0,0,1-.58.42A4.28,4.28,0,0,1,251,95v-.6a3.76,3.76,0,0,0,.9-.58,2.42,2.42,0,0,0,.55-.67h.39Z" transform="translate(-5.55 -36.64)"/><path class="cls-4" d="M257.61,97.59v.59H254.3a1.25,1.25,0,0,1,.07-.43,2.29,2.29,0,0,1,.41-.67,6,6,0,0,1,.8-.76,6.42,6.42,0,0,0,1.11-1.06,1.25,1.25,0,0,0,.28-.74.78.78,0,0,0-.26-.61.93.93,0,0,0-.68-.26,1,1,0,0,0-.71.27,1,1,0,0,0-.27.74l-.63-.07a1.48,1.48,0,0,1,.49-1.07,1.64,1.64,0,0,1,1.13-.37,1.58,1.58,0,0,1,1.15.4,1.29,1.29,0,0,1,.42,1,1.4,1.4,0,0,1-.13.59,2.25,2.25,0,0,1-.41.61,9.94,9.94,0,0,1-.94.88,9.44,9.44,0,0,0-.71.63,1.34,1.34,0,0,0-.26.34Z" transform="translate(-5.55 -36.64)"/><path class="cls-4" d="M278.88,47.58h-.62V43.66a2.9,2.9,0,0,1-.58.42,4.28,4.28,0,0,1-.65.32v-.6a3.63,3.63,0,0,0,.91-.58,2.37,2.37,0,0,0,.54-.67h.4Z" transform="translate(-5.55 -36.64)"/><path class="cls-4" d="M280.46,46.26l.61-.09a1.39,1.39,0,0,0,.36.76.91.91,0,0,0,.62.23,1,1,0,0,0,1-1,1,1,0,0,0-.28-.7,1,1,0,0,0-.7-.27,1.59,1.59,0,0,0-.44.07l.07-.54h.1a1.33,1.33,0,0,0,.71-.2.8.8,0,0,0,.08-1.19.81.81,0,0,0-.59-.23.85.85,0,0,0-.6.23,1.14,1.14,0,0,0-.31.68l-.61-.11a1.55,1.55,0,0,1,.51-1,1.48,1.48,0,0,1,1-.34,1.72,1.72,0,0,1,.75.17,1.3,1.3,0,0,1,.53.48,1.28,1.28,0,0,1,.18.65,1,1,0,0,1-.17.59,1.16,1.16,0,0,1-.52.42,1.13,1.13,0,0,1,.69.43,1.26,1.26,0,0,1,.25.81,1.46,1.46,0,0,1-.48,1.11,1.7,1.7,0,0,1-1.21.46,1.53,1.53,0,0,1-1.09-.4A1.51,1.51,0,0,1,280.46,46.26Z" transform="translate(-5.55 -36.64)"/><path class="cls-4" d="M278.88,98.18h-.62V94.26a2.9,2.9,0,0,1-.58.42A4.28,4.28,0,0,1,277,95v-.6a3.66,3.66,0,0,0,.91-.59,2.24,2.24,0,0,0,.54-.67h.4Z" transform="translate(-5.55 -36.64)"/><path class="cls-4" d="M282.43,98.18V97h-2.18v-.57l2.29-3.24h.5v3.24h.68V97H283v1.2Zm0-1.77V94.15l-1.57,2.26Z" transform="translate(-5.55 -36.64)"/><path class="cls-4" d="M304.71,47.58h-.62V43.66a2.9,2.9,0,0,1-.58.42,3.87,3.87,0,0,1-.65.32v-.6a3.63,3.63,0,0,0,.91-.58,2.37,2.37,0,0,0,.54-.67h.4Z" transform="translate(-5.55 -36.64)"/><path class="cls-4" d="M306.29,46.27l.64-.06a1.18,1.18,0,0,0,.33.71.93.93,0,0,0,.64.24,1,1,0,0,0,.75-.34,1.28,1.28,0,0,0,.31-.89,1.14,1.14,0,0,0-.3-.83,1.06,1.06,0,0,0-.78-.3,1.07,1.07,0,0,0-.91.48l-.58-.07.49-2.57h2.49v.58h-2l-.27,1.35a1.63,1.63,0,0,1,.95-.31,1.51,1.51,0,0,1,1.11.45,1.58,1.58,0,0,1,.45,1.17,1.83,1.83,0,0,1-.4,1.18,1.78,1.78,0,0,1-2.43.22A1.46,1.46,0,0,1,306.29,46.27Z" transform="translate(-5.55 -36.64)"/><path class="cls-4" d="M304.71,98.18h-.62V94.26a2.9,2.9,0,0,1-.58.42,3.87,3.87,0,0,1-.65.32v-.6a3.63,3.63,0,0,0,.91-.58,2.37,2.37,0,0,0,.54-.67h.4Z" transform="translate(-5.55 -36.64)"/><path class="cls-4" d="M309.48,94.39l-.61,0a1.25,1.25,0,0,0-.24-.53.82.82,0,0,0-.61-.26.85.85,0,0,0-.52.17,1.47,1.47,0,0,0-.46.61,3.19,3.19,0,0,0-.17,1.16,1.51,1.51,0,0,1,.54-.5,1.48,1.48,0,0,1,.68-.16,1.37,1.37,0,0,1,1,.45,1.62,1.62,0,0,1,.44,1.17,1.9,1.9,0,0,1-.21.88,1.47,1.47,0,0,1-.56.62,1.52,1.52,0,0,1-.8.21,1.62,1.62,0,0,1-1.26-.56,2.89,2.89,0,0,1-.48-1.87,3.32,3.32,0,0,1,.54-2.11,1.54,1.54,0,0,1,1.26-.57,1.44,1.44,0,0,1,1,.33A1.39,1.39,0,0,1,309.48,94.39ZM307,96.55a1.42,1.42,0,0,0,.13.61,1,1,0,0,0,.38.44.87.87,0,0,0,1.18-.16,1.26,1.26,0,0,0,.28-.85,1.13,1.13,0,0,0-.28-.82.91.91,0,0,0-.7-.3.94.94,0,0,0-.7.3A1,1,0,0,0,307,96.55Z" transform="translate(-5.55 -36.64)"/></g><g id="图层_4" data-name="图层 4"><rect class="cls-5" x="5.8" y="36.89" width="46.32" height="59.23" transform="translate(52.37 96.36) rotate(-180)"/><rect class="cls-5" x="10.19" y="41.55" width="10.26" height="50.19" transform="translate(25.08 96.66) rotate(-180)"/><circle class="cls-6" cx="46.57" cy="8.61" r="1.81"/><circle class="cls-6" cx="46.57" cy="36.52" r="1.81"/><circle class="cls-6" cx="46.57" cy="50.75" r="1.81"/><line class="cls-6" x1="44.76" y1="8.61" x2="14.9" y2="8.61"/><line class="cls-6" x1="44.76" y1="36.52" x2="14.9" y2="36.52"/><line class="cls-6" x1="44.76" y1="50.75" x2="14.9" y2="50.75"/><path class="cls-4" d="M42.47,68.22a1,1,0,0,1,.81.38,2.35,2.35,0,0,1,.35,1.45,2.39,2.39,0,0,1-.35,1.46,1,1,0,0,1-.81.37,1,1,0,0,1-.85-.4,3.29,3.29,0,0,1,0-2.89A1,1,0,0,1,42.47,68.22Zm0,.57a.38.38,0,0,0-.23.08.65.65,0,0,0-.15.29,3.68,3.68,0,0,0-.07.89,4.18,4.18,0,0,0,.06.87.67.67,0,0,0,.16.31.38.38,0,0,0,.23.08.37.37,0,0,0,.22-.08.61.61,0,0,0,.15-.28,3.83,3.83,0,0,0,.07-.9,4.07,4.07,0,0,0-.06-.86.78.78,0,0,0-.16-.32A.37.37,0,0,0,42.47,68.79Z" transform="translate(-5.55 -36.64)"/><path class="cls-4" d="M45.15,71.82l-1.28-3.58h.79l.9,2.65.88-2.65h.76l-1.28,3.58Z" transform="translate(-5.55 -36.64)"/><path class="cls-4" d="M42.3,86.42,41,82.84h.78l.91,2.65.88-2.65h.76l-1.28,3.58Z" transform="translate(-5.55 -36.64)"/><path class="cls-4" d="M45.5,85.91V85h-.93v-.65h.93V83.4h.63v.93h.94V85h-.94v.93Z" transform="translate(-5.55 -36.64)"/><path class="cls-4" d="M31.36,43.43V39.86h1.52a2.75,2.75,0,0,1,.83.09.89.89,0,0,1,.42.35,1,1,0,0,1,.15.56,1,1,0,0,1-.23.66,1.16,1.16,0,0,1-.71.34,1.68,1.68,0,0,1,.38.3,3.37,3.37,0,0,1,.42.58l.43.69h-.86l-.52-.77c-.19-.28-.32-.46-.38-.53a.62.62,0,0,0-.22-.15,1.14,1.14,0,0,0-.37,0h-.14v1.49Zm.72-2.06h.53a3.51,3.51,0,0,0,.65,0,.37.37,0,0,0,.21-.16.53.53,0,0,0,.07-.26.42.42,0,0,0-.1-.3.44.44,0,0,0-.27-.14H32.08Z" transform="translate(-5.55 -36.64)"/><path class="cls-4" d="M34.78,42.27l.7-.07a.88.88,0,0,0,.26.52.8.8,0,0,0,.53.17.79.79,0,0,0,.52-.15.44.44,0,0,0,.18-.35.32.32,0,0,0-.08-.21.61.61,0,0,0-.26-.16l-.57-.15a2,2,0,0,1-.82-.36.91.91,0,0,1-.33-.72.88.88,0,0,1,.16-.51.93.93,0,0,1,.44-.36,1.87,1.87,0,0,1,.71-.13,1.49,1.49,0,0,1,1,.3,1,1,0,0,1,.36.79l-.72,0a.64.64,0,0,0-.2-.4.74.74,0,0,0-.46-.12.84.84,0,0,0-.49.13.26.26,0,0,0-.12.22.28.28,0,0,0,.11.22,1.74,1.74,0,0,0,.66.24,3.33,3.33,0,0,1,.78.26,1.07,1.07,0,0,1,.4.36,1.15,1.15,0,0,1,.14.57,1.09,1.09,0,0,1-.17.58,1,1,0,0,1-.48.4,2.19,2.19,0,0,1-.78.13,1.54,1.54,0,0,1-1-.32A1.32,1.32,0,0,1,34.78,42.27Z" transform="translate(-5.55 -36.64)"/><path class="cls-4" d="M39.49,43.43v-.72H38v-.6l1.55-2.27h.58v2.27h.44v.6h-.44v.72Zm0-1.32V40.89l-.82,1.22Z" transform="translate(-5.55 -36.64)"/><path class="cls-4" d="M41.52,41.5a.73.73,0,0,1-.39-.31.8.8,0,0,1-.12-.43.87.87,0,0,1,.28-.66,1.12,1.12,0,0,1,.79-.26,1.17,1.17,0,0,1,.8.26.91.91,0,0,1,.28.66.85.85,0,0,1-.13.45.77.77,0,0,1-.37.29,1,1,0,0,1,.46.35,1,1,0,0,1,.15.53,1.09,1.09,0,0,1-.31.81,1.18,1.18,0,0,1-.85.31,1.29,1.29,0,0,1-.81-.26,1,1,0,0,1-.38-.83,1.08,1.08,0,0,1,.14-.53A1,1,0,0,1,41.52,41.5Zm.07.85a.63.63,0,0,0,.15.44.5.5,0,0,0,.36.16.43.43,0,0,0,.35-.16.58.58,0,0,0,.14-.44.54.54,0,0,0-.14-.4.46.46,0,0,0-.36-.15.41.41,0,0,0-.37.17A.67.67,0,0,0,41.59,42.35Zm.07-1.54a.44.44,0,0,0,.11.32.41.41,0,0,0,.31.12.44.44,0,0,0,.32-.12.46.46,0,0,0,.11-.32.45.45,0,0,0-.11-.31.41.41,0,0,0-.31-.11.39.39,0,0,0-.31.11A.41.41,0,0,0,41.66,40.81Z" transform="translate(-5.55 -36.64)"/><path class="cls-4" d="M43.72,42.51l.68-.07a.57.57,0,0,0,.18.37.45.45,0,0,0,.69,0,.77.77,0,0,0,.15-.52.73.73,0,0,0-.15-.5.48.48,0,0,0-.38-.16.67.67,0,0,0-.53.26l-.56-.08.35-1.87H46v.65h-1.3l-.1.6A1.11,1.11,0,0,1,45,41a1,1,0,0,1,.78.33,1.2,1.2,0,0,1,.32.86,1.29,1.29,0,0,1-.26.79,1.13,1.13,0,0,1-1,.48,1.2,1.2,0,0,1-.81-.27A1.1,1.1,0,0,1,43.72,42.51Z" transform="translate(-5.55 -36.64)"/><path class="cls-4" d="M49.87,43.43h-.79l-.31-.81H47.34l-.3.81h-.76l1.39-3.57h.77ZM48.54,42l-.49-1.33L47.56,42Z" transform="translate(-5.55 -36.64)"/><circle class="cls-6" cx="46.57" cy="22.56" r="1.81"/><line class="cls-6" x1="44.76" y1="22.56" x2="14.9" y2="22.56"/><path class="cls-4" d="M31.36,57.39V53.81h1.52a2.4,2.4,0,0,1,.83.1.81.81,0,0,1,.42.34,1,1,0,0,1,.15.56,1,1,0,0,1-.23.67,1.21,1.21,0,0,1-.71.33,1.68,1.68,0,0,1,.38.3,3.84,3.84,0,0,1,.42.58l.43.7h-.86l-.52-.78c-.19-.28-.32-.45-.38-.53a.62.62,0,0,0-.22-.15,1.52,1.52,0,0,0-.37,0h-.14v1.5Zm.72-2.07h.53a2.76,2.76,0,0,0,.65,0,.41.41,0,0,0,.21-.15.57.57,0,0,0,.07-.27.41.41,0,0,0-.37-.43,4.36,4.36,0,0,0-.53,0h-.56Z" transform="translate(-5.55 -36.64)"/><path class="cls-4" d="M34.78,56.22l.7-.07a.88.88,0,0,0,.26.52.75.75,0,0,0,.53.17.79.79,0,0,0,.52-.15.43.43,0,0,0,.18-.34.33.33,0,0,0-.08-.22.52.52,0,0,0-.26-.15,5.14,5.14,0,0,0-.57-.16,2.05,2.05,0,0,1-.82-.35.94.94,0,0,1-.33-.72.89.89,0,0,1,.16-.52,1,1,0,0,1,.44-.36,1.88,1.88,0,0,1,.71-.12,1.54,1.54,0,0,1,1,.29,1,1,0,0,1,.36.79l-.72,0a.61.61,0,0,0-.2-.39.74.74,0,0,0-.46-.12.84.84,0,0,0-.49.12.27.27,0,0,0-.12.23.28.28,0,0,0,.11.21,1.74,1.74,0,0,0,.66.24,3.87,3.87,0,0,1,.78.26,1,1,0,0,1,.4.37,1.09,1.09,0,0,1,.14.57,1.08,1.08,0,0,1-.17.57,1,1,0,0,1-.48.4,2,2,0,0,1-.78.13,1.54,1.54,0,0,1-1-.31A1.37,1.37,0,0,1,34.78,56.22Z" transform="translate(-5.55 -36.64)"/><path class="cls-4" d="M39.49,57.39v-.72H38v-.6l1.55-2.28h.58v2.27h.44v.61h-.44v.72Zm0-1.33V54.84l-.82,1.22Z" transform="translate(-5.55 -36.64)"/><path class="cls-4" d="M41.52,55.46a.83.83,0,0,1-.39-.31.82.82,0,0,1-.12-.43.88.88,0,0,1,.28-.67,1.12,1.12,0,0,1,.79-.26,1.17,1.17,0,0,1,.8.26.91.91,0,0,1,.28.67.84.84,0,0,1-.13.44.85.85,0,0,1-.37.3,1,1,0,0,1,.46.35.94.94,0,0,1,.15.53,1.07,1.07,0,0,1-.31.8,1.14,1.14,0,0,1-.85.31,1.23,1.23,0,0,1-.81-.26,1,1,0,0,1-.38-.83,1.08,1.08,0,0,1,.14-.53A.91.91,0,0,1,41.52,55.46Zm.07.84a.62.62,0,0,0,.15.44.46.46,0,0,0,.36.16.45.45,0,0,0,.35-.15.61.61,0,0,0,.14-.44.55.55,0,0,0-.14-.41.46.46,0,0,0-.36-.15.44.44,0,0,0-.37.17A.67.67,0,0,0,41.59,56.3Zm.07-1.53a.48.48,0,0,0,.11.32.45.45,0,0,0,.31.11.4.4,0,0,0,.43-.44.38.38,0,0,0-.42-.42.41.41,0,0,0-.43.43Z" transform="translate(-5.55 -36.64)"/><path class="cls-4" d="M43.72,56.47l.68-.07a.57.57,0,0,0,.18.36.45.45,0,0,0,.69,0,.77.77,0,0,0,.15-.52.73.73,0,0,0-.15-.5.48.48,0,0,0-.38-.16.7.7,0,0,0-.53.26l-.56-.08.35-1.86H46v.64h-1.3l-.1.61A1,1,0,0,1,45,55a1,1,0,0,1,.78.33,1.23,1.23,0,0,1,.32.87,1.28,1.28,0,0,1-.26.78,1.13,1.13,0,0,1-1,.48,1.2,1.2,0,0,1-.81-.27A1.05,1.05,0,0,1,43.72,56.47Z" transform="translate(-5.55 -36.64)"/><path class="cls-4" d="M46.64,53.81h1.43a4.92,4.92,0,0,1,.64,0,1.11,1.11,0,0,1,.37.15,1.15,1.15,0,0,1,.28.3.82.82,0,0,1,.11.42.87.87,0,0,1-.51.78,1,1,0,0,1,.51.32.89.89,0,0,1,.17.54,1.2,1.2,0,0,1-.11.48,1,1,0,0,1-.31.36.93.93,0,0,1-.49.17c-.12,0-.41,0-.87,0H46.64Zm.73.59v.83h1a.52.52,0,0,0,.3-.13.37.37,0,0,0,.1-.28.4.4,0,0,0-.09-.27.38.38,0,0,0-.27-.12,6.14,6.14,0,0,0-.62,0Zm0,1.43v1H48a2.66,2.66,0,0,0,.49,0,.39.39,0,0,0,.26-.14.44.44,0,0,0,.1-.3.51.51,0,0,0-.07-.28.48.48,0,0,0-.23-.16,2.22,2.22,0,0,0-.64-.05Z" transform="translate(-5.55 -36.64)"/></g><g id="com2"><path class="cls-7" d="M228,89.55a54.45,54.45,0,0,1-13.16,15.35c-32.69,25.91-96.28,11-160.9-31.75" transform="translate(-5.55 -36.64)"/><path class="cls-8" d="M253.94,89.55C244.61,97,199.77,131,137.42,123.87c-43-4.87-72-26.72-83.48-36.48" transform="translate(-5.55 -36.64)"/><path class="cls-9" d="M53.58,45.46c7.51-.54,34.07-1.52,55.19,17a66.71,66.71,0,0,1,13.94,17.12" transform="translate(-5.55 -36.64)"/><path class="cls-9" d="M53.94,59.2c9.17,5.44,62.2,36.8,82.06,43.51,5,1.7,9.75,2.43,12.65,0,3.95-3.32,2.56-10.87,2.06-13.16" transform="translate(-5.55 -36.64)"/></g></svg>