<?xml version="1.0" encoding="UTF-8" standalone="no"?>
<!DOCTYPE svg PUBLIC "-//W3C//DTD SVG 1.1//EN" "http://www.w3.org/Graphics/SVG/1.1/DTD/svg11.dtd">
<!-- 由 Microsoft Visio, SVG Export 生成 TIO DI-PNP.svg 页-1 -->
<svg xmlns="http://www.w3.org/2000/svg" xmlns:xlink="http://www.w3.org/1999/xlink" xmlns:ev="http://www.w3.org/2001/xml-events"
		xmlns:v="http://schemas.microsoft.com/visio/2003/SVGExtensions/" width="7.87631in" height="4.40642in"
		viewBox="0 0 567.094 317.262" xml:space="preserve" color-interpolation-filters="sRGB" class="st11">
	<v:documentProperties v:langID="2052" v:metric="true" v:viewMarkup="false"/>

	<style type="text/css">
	<![CDATA[
		.st1 {fill:#ffffff;stroke:#000000;stroke-linecap:round;stroke-linejoin:round;stroke-width:1.5}
		.st2 {stroke:#000000;stroke-linecap:round;stroke-linejoin:round;stroke-width:2.25}
		.st3 {stroke:#000000;stroke-linecap:round;stroke-linejoin:round;stroke-width:3}
		.st4 {stroke:#0070c0;stroke-width:2.25}
		.st5 {stroke:#00b050;stroke-width:2.25}
		.st6 {stroke:#ff0000;stroke-width:2.25}
		.st7 {fill:none;stroke:none;stroke-linecap:round;stroke-linejoin:round;stroke-width:4.5}
		.st8 {fill:#000000;font-family:Arial;font-size:1.5em}
		.st9 {fill:none;stroke:none;stroke-linecap:round;stroke-linejoin:round;stroke-width:0.75}
		.st10 {fill:#000000;font-family:Arial;font-size:1.00001em;font-weight:bold}
		.st11 {fill:none;fill-rule:evenodd;font-size:12px;overflow:visible;stroke-linecap:square;stroke-miterlimit:3}
	]]>
	</style>

	<g v:mID="0" v:index="1" v:groupContext="foregroundPage">
		<title>页-1</title>
		<v:pageProperties v:drawingScale="0.0393701" v:pageScale="0.0393701" v:drawingUnits="24" v:shadowOffsetX="8.50394"
				v:shadowOffsetY="-8.50394"/>
		<g id="shape4-1" v:mID="4" v:groupContext="shape" transform="translate(34.0571,-32.5553)">
			<title>工作表.4</title>
			<rect x="0" y="294.585" width="32.5984" height="22.6772" class="st1"/>
		</g>
		<g id="shape3-3" v:mID="3" v:groupContext="shape" transform="translate(34.0571,-245.154)">
			<title>工作表.3</title>
			<rect x="0" y="294.585" width="32.5984" height="22.6772" class="st1"/>
		</g>
		<g id="shape1-5" v:mID="1" v:groupContext="shape" transform="translate(0.75,-55.2325)">
			<title>工作表.1</title>
			<rect x="0" y="127.341" width="99.2126" height="189.921" class="st1"/>
		</g>
		<g id="shape5-7" v:mID="5" v:groupContext="shape" transform="translate(16.9075,-206.886)">
			<title>工作表.5</title>
			<path d="M32.6 278.99 L32.6 317.26 L0 317.26" class="st2"/>
		</g>
		<g id="shape6-10" v:mID="6" v:groupContext="shape" transform="translate(29.0964,-55.2325)">
			<title>工作表.6</title>
			<path d="M0 146.47 L21.26 264.99 L21.26 317.26" class="st3"/>
		</g>
		<g id="shape8-13" v:mID="8" v:groupContext="shape" transform="translate(142.93,-247.73) rotate(17.3032)">
			<title>工作表.8</title>
			<path d="M0 311.25 C0.36 308.78 0.72 305.91 1.41 303.39 C4.18 293.32 12.34 288.67 21.16 283.87 C37.9 274.76 57.04 265.11
						 76.48 261.29 C98.11 257.05 120.12 260.05 135.74 270.44 C146.77 277.78 154.61 288.8 164.8 297.02 C194.19
						 320.73 243.12 321.22 285.92 311.25" class="st2"/>
		</g>
		<g id="shape10-16" v:mID="10" v:groupContext="shape" transform="translate(-1.23163,5.27221) rotate(-10.4599)">
			<title>工作表.10</title>
			<path d="M0 284.16 C-7.64 303.06 9.81 307.24 26.8 310.72 C60.56 317.65 92.54 321.87 117.96 308.82 C127.99 303.66 137
						 295.82 146.86 289.65 C184.56 266.05 234.7 266.87 281.05 284.16" class="st2"/>
		</g>
		<g id="shape11-19" v:mID="11" v:groupContext="shape" transform="translate(326.734,-196.965)">
			<title>工作表.11</title>
			<path d="M0 317.26 L55.93 317.26 L61.42 317.26" class="st4"/>
		</g>
		<g id="shape13-22" v:mID="13" v:groupContext="shape" transform="translate(326.734,-168.618)">
			<title>工作表.13</title>
			<path d="M0 317.26 L63.19 317.26" class="st5"/>
		</g>
		<g id="shape14-25" v:mID="14" v:groupContext="shape" transform="translate(326.734,-83.579)">
			<title>工作表.14</title>
			<path d="M0 317.26 L64.96 317.26" class="st6"/>
		</g>
		<g id="shape15-28" v:mID="15" v:groupContext="shape" transform="translate(394.829,-188.461)">
			<title>工作表.15</title>
			<desc>PIN2</desc>
			<v:textBlock v:margins="rect(4,4,4,4)" v:tabSpace="42.5197"/>
			<v:textRect cx="79.3386" cy="305.924" width="158.68" height="22.6772"/>
			<rect x="0" y="294.585" width="158.677" height="22.6772" class="st7"/>
			<text x="4" y="311.32" class="st8" v:langID="2052"><v:paragraph/><v:tabList/>PIN2</text>		</g>
		<g id="shape17-31" v:mID="17" v:groupContext="shape" transform="translate(394.829,-157.28)">
			<title>工作表.17</title>
			<desc>PIN3</desc>
			<v:textBlock v:margins="rect(4,4,4,4)" v:tabSpace="42.5197"/>
			<v:textRect cx="85.0079" cy="305.924" width="170.02" height="22.6772"/>
			<rect x="0" y="294.585" width="170.016" height="22.6772" class="st7"/>
			<text x="4" y="311.32" class="st8" v:langID="2052"><v:paragraph/><v:tabList/>PIN3</text>		</g>
		<g id="shape18-34" v:mID="18" v:groupContext="shape" transform="translate(396.215,-72.2404)">
			<title>工作表.18</title>
			<desc>PIN1</desc>
			<v:textBlock v:margins="rect(4,4,4,4)" v:tabSpace="42.5197"/>
			<v:textRect cx="72.9764" cy="305.924" width="145.96" height="22.6772"/>
			<rect x="0" y="294.585" width="145.953" height="22.6772" class="st7"/>
			<text x="4" y="311.32" class="st8" v:langID="2052"><v:paragraph/><v:tabList/>PIN1</text>		</g>
		<g id="shape19-37" v:mID="19" v:groupContext="shape" transform="translate(340.97,-201.408)">
			<title>工作表.19</title>
			<desc>1</desc>
			<v:textBlock v:margins="rect(4,4,4,4)" v:tabSpace="42.5197"/>
			<v:textRect cx="16.2992" cy="310.98" width="32.6" height="12.5643"/>
			<rect x="0" y="304.698" width="32.5984" height="12.5643" class="st9"/>
			<text x="12.96" y="314.58" class="st10" v:langID="2052"><v:paragraph v:horizAlign="1"/><v:tabList/>1</text>		</g>
		<g id="shape20-40" v:mID="20" v:groupContext="shape" transform="translate(340.97,-173.36)">
			<title>工作表.20</title>
			<desc>2</desc>
			<v:textBlock v:margins="rect(4,4,4,4)" v:tabSpace="42.5197"/>
			<v:textRect cx="16.2992" cy="310.98" width="32.6" height="12.5643"/>
			<rect x="0" y="304.698" width="32.5984" height="12.5643" class="st9"/>
			<text x="12.96" y="314.58" class="st10" v:langID="2052"><v:paragraph v:horizAlign="1"/><v:tabList/>2</text>		</g>
		<g id="shape21-43" v:mID="21" v:groupContext="shape" transform="translate(340.97,-88.0225)">
			<title>工作表.21</title>
			<desc>3</desc>
			<v:textBlock v:margins="rect(4,4,4,4)" v:tabSpace="42.5197"/>
			<v:textRect cx="16.2992" cy="310.98" width="32.6" height="12.5643"/>
			<rect x="0" y="304.698" width="32.5984" height="12.5643" class="st9"/>
			<text x="12.96" y="314.58" class="st10" v:langID="2052"><v:paragraph v:horizAlign="1"/><v:tabList/>3</text>		</g>
	</g>
</svg>
