<?xml version="1.0" encoding="UTF-8"?>
<svg xmlns="http://www.w3.org/2000/svg" viewBox="0 0 660.44 595.28">
  <defs>
    <style>
      .cls-1 {
        fill: red;
      }

      .cls-1, .cls-2, .cls-3 {
        stroke-width: 0px;
      }

      .cls-4 {
        stroke: #000;
        stroke-linecap: round;
        stroke-linejoin: round;
      }

      .cls-4, .cls-5 {
        fill: none;
      }

      .cls-2 {
        fill: #fff;
      }

      .cls-5 {
        stroke: red;
        stroke-miterlimit: 10;
        stroke-width: 20px;
      }

      .cls-3 {
        fill: #00a4ff;
      }
    </style>
  </defs>
  <g id="_图层_3" data-name="图层 3">
    <ellipse class="cls-3" cx="238.17" cy="298.61" rx="22.39" ry="22.12"/>
    <ellipse class="cls-2" cx="238.27" cy="299.06" rx="13.97" ry="13.45"/>
  </g>
  <g id="Make2D::可见线::曲线">
    <line class="cls-4" x1="572.15" y1="177.45" x2="87.91" y2="177.45"/>
    <path class="cls-4" d="M131.25,402.27c8.37,0,16.39,3.32,22.3,9.24,5.91,5.91,9.24,13.93,9.24,22.3"/>
    <path class="cls-4" d="M314.63,299.95s.07,0,.1,0c.02,0,.03,0,.05,0h.02s0,0,.02,0c0,0,0,0,0,0"/>
    <path class="cls-4" d="M336.5,283.83c-.45-.57-.88-1.13-1.29-1.66-.2-.27-.4-.53-.6-.77-.1-.13-.19-.25-.29-.37-.05-.06-.1-.12-.14-.18-.02-.03-.05-.06-.07-.09,0-.01-.02-.03-.03-.04,0-.01-.02-.03-.03-.04-.87-1.12-1.69-2.18-2.45-3.16"/>
    <path class="cls-4" d="M318.12,322.12c-1.29-.65-2.51-1.4-3.68-2.25"/>
    <path class="cls-4" d="M349.45,316.46c-2.18,2.35-4.79,4.31-7.66,5.73-2.87,1.43-6,2.33-9.19,2.63-3.19.31-6.44.04-9.53-.8-1.71-.47-3.37-1.11-4.95-1.9"/>
    <line class="cls-4" x1="325.89" y1="271.97" x2="325.79" y2="272.4"/>
    <line class="cls-4" x1="355.92" y1="303.9" x2="356.19" y2="303.86"/>
    <line class="cls-4" x1="348.98" y1="316.96" x2="349.39" y2="317.11"/>
    <path class="cls-4" d="M345.62,277.13c1.5,1.1,2.89,2.35,4.12,3.74,1.24,1.38,2.33,2.9,3.26,4.51.92,1.62,1.67,3.33,2.24,5.1.56,1.77.94,3.6,1.12,5.45.18,1.85.17,3.72-.04,5.57-.21,1.85-.62,3.67-1.21,5.43-.59,1.76-1.37,3.46-2.32,5.06-.95,1.6-2.06,3.1-3.33,4.47"/>
    <path class="cls-4" d="M310.61,280.55c-1.26,1.36-2.38,2.86-3.33,4.47-.95,1.6-1.73,3.3-2.32,5.06-.59,1.76-1,3.58-1.21,5.43-.21,1.85-.22,3.72-.04,5.57s.56,3.68,1.12,5.45c.56,1.77,1.31,3.48,2.24,5.1.92,1.61,2.01,3.13,3.25,4.51,1.24,1.39,2.62,2.64,4.12,3.74"/>
    <path class="cls-4" d="M345.62,277.13c-2.59-1.89-5.53-3.3-8.62-4.15-3.1-.84-6.34-1.12-9.54-.81-3.19.31-6.32,1.21-9.19,2.64-2.87,1.42-5.48,3.38-7.66,5.73"/>
    <path class="cls-4" d="M77.74,164.22V-155.21"/>
    <path class="cls-4" d="M582.32-155.21V164.22"/>
    <line class="cls-4" x1="80.31" y1="164.22" x2="80.31" y2="-155.21"/>
    <line class="cls-4" x1="579.75" y1="-155.21" x2="579.75" y2="164.22"/>
    <path class="cls-4" d="M87.91,174.39c-.31,0-.62-.01-.93-.04-.15-.01-.31-.03-.46-.05-.08,0-.16-.02-.23-.03-.04,0-.07,0-.11-.02-.04,0-.08,0-.12-.02-.33-.06-.64-.14-.96-.22-.16-.05-.32-.1-.47-.15-.08-.02-.15-.05-.23-.08-.08-.02-.15-.05-.23-.09-.32-.13-.63-.27-.94-.42-.15-.08-.3-.16-.45-.25s-.29-.18-.44-.27c-.59-.38-1.13-.83-1.63-1.32-.25-.25-.48-.51-.7-.78-.11-.14-.22-.27-.32-.41s-.2-.29-.3-.43c-.19-.29-.36-.58-.52-.89-.08-.15-.15-.31-.22-.46l-.1-.23s-.03-.08-.05-.12c-.01-.04-.03-.08-.05-.12-.48-1.2-.72-2.45-.72-3.74"/>
    <path class="cls-4" d="M582.32,164.22c0,.31-.01.62-.04.93-.01.16-.03.31-.05.46,0,.08-.02.15-.03.23,0,.04,0,.08-.02.12,0,.04,0,.07-.02.11-.06.33-.14.65-.22.96-.05.16-.1.32-.15.47-.02.08-.05.16-.08.23-.02.08-.05.15-.09.23-.13.32-.27.63-.42.94-.08.15-.16.3-.25.45-.09.15-.18.29-.27.44-.38.59-.82,1.13-1.32,1.63-.25.25-.51.48-.78.71-.14.11-.27.21-.41.32s-.29.2-.43.3c-.29.19-.58.36-.89.52-.15.08-.31.15-.46.22l-.23.1s-.08.03-.12.05c-.04.02-.08.03-.12.05-1.2.48-2.45.72-3.74.72"/>
    <path class="cls-4" d="M87.91,171.83c-4.2,0-7.6-3.4-7.6-7.61"/>
    <path class="cls-4" d="M80.39,164.22c0,4.16,3.37,7.53,7.53,7.53"/>
    <path class="cls-4" d="M579.75,164.22c0,4.2-3.41,7.61-7.61,7.61"/>
    <path class="cls-4" d="M572.15,171.75c4.16,0,7.53-3.37,7.53-7.53"/>
    <line class="cls-4" x1="80.39" y1="-155.21" x2="80.39" y2="164.22"/>
    <line class="cls-4" x1="584.36" y1="-155.21" x2="584.36" y2="164.22"/>
    <path class="cls-4" d="M584.36,164.22c0,3.24-1.29,6.35-3.57,8.63-2.29,2.29-5.4,3.57-8.63,3.57"/>
    <line class="cls-4" x1="77.04" y1="169.76" x2="77.03" y2="169.76"/>
    <path class="cls-4" d="M111.31,452.17c0-5.12,2.04-10.04,5.66-13.67,3.63-3.63,8.54-5.66,13.67-5.66s10.04,2.04,13.67,5.66c3.63,3.62,5.66,8.54,5.66,13.67"/>
    <path class="cls-4" d="M99.71,433.81c0-8.37,3.33-16.39,9.24-22.3,5.91-5.92,13.94-9.24,22.3-9.24"/>
    <line class="cls-4" x1="99.71" y1="433.81" x2="99.71" y2="616.92"/>
    <line class="cls-4" x1="162.79" y1="433.81" x2="162.79" y2="616.92"/>
    <path class="cls-4" d="M141.52,171.83c-.05-.16-.1-.32-.14-.49"/>
    <path class="cls-4" d="M170.79,171.34c-.04.17-.09.33-.14.49"/>
    <path class="cls-4" d="M519.95,171.83c-.05-.16-.1-.32-.14-.49"/>
    <path class="cls-4" d="M549.22,171.34c-.04.17-.09.33-.14.49"/>
    <path class="cls-4" d="M344.26,288.51l-.96.75"/>
    <path class="cls-4" d="M314.26,291.18c.37.16.75.31,1.13.46"/>
    <line class="cls-4" x1="345.72" y1="309.97" x2="341.15" y2="310.6"/>
    <line class="cls-4" x1="315.31" y1="291.83" x2="314.18" y2="291.37"/>
    <path class="cls-4" d="M342.5,289.35c.3.41.58.83.84,1.27.13.22.25.44.37.66.06.11.12.22.17.34.06.11.11.22.17.34.44.94.78,1.91,1.02,2.92.12.51.22,1.01.29,1.52.03.25.06.51.09.77,0,.13.02.25.03.38,0,.13.01.26.02.39.03,1.01-.03,2.02-.19,3.02-.08.5-.19.99-.31,1.49-.07.24-.14.49-.21.73-.04.12-.08.24-.12.36-.04.12-.08.24-.13.36-.36.97-.81,1.89-1.36,2.78-.27.44-.56.86-.88,1.27-.16.2-.32.4-.49.6-.08.1-.17.19-.26.29-.08.1-.18.19-.26.29-.7.74-1.46,1.4-2.28,1.99"/>
    <path class="cls-4" d="M340.89,310.07c.67-.63,1.28-1.31,1.82-2.03.27-.36.53-.74.76-1.12.12-.19.24-.38.35-.58.06-.1.11-.2.17-.3.03-.05.05-.1.08-.15.02-.05.05-.1.08-.15.22-.43.42-.87.6-1.31.09-.22.17-.45.25-.68.08-.22.15-.45.22-.69.28-.94.47-1.89.58-2.87.05-.49.08-.97.09-1.46,0-.24,0-.49,0-.74,0-.24-.02-.49-.04-.73-.04-.48-.1-.96-.18-1.43-.04-.23-.08-.47-.14-.71-.02-.12-.05-.23-.08-.35-.03-.12-.06-.24-.09-.35-.12-.45-.26-.89-.41-1.33-.08-.22-.17-.43-.25-.65-.04-.11-.09-.21-.14-.32-.02-.05-.04-.11-.07-.16s-.05-.11-.07-.16c-.37-.8-.81-1.57-1.32-2.31"/>
    <line class="cls-4" x1="332.25" y1="316.26" x2="331.95" y2="314.05"/>
    <line class="cls-4" x1="339.05" y1="311.3" x2="347.41" y2="310.14"/>
    <line class="cls-4" x1="344.3" y1="287.7" x2="342.53" y2="289.07"/>
    <path class="cls-4" d="M332.45,316.24c-.08-.62-.17-1.24-.25-1.85"/>
    <path class="cls-4" d="M314.31,299.75s.09-.07.15-.09.12,0,.18,0c.05.02.1.06.14.1.03.04.06.1.06.16"/>
    <path class="cls-4" d="M482.63,359.54c16.19,0,31.71-6.43,43.16-17.87,11.45-11.45,17.88-26.97,17.88-43.16"/>
    <path class="cls-4" d="M177.44,359.54c-16.19,0-31.71-6.43-43.16-17.87-11.44-11.45-17.88-26.97-17.88-43.16"/>
    <path class="cls-4" d="M116.4,298.5c0-16.19,6.43-31.71,17.88-43.16,11.45-11.44,26.97-17.88,43.16-17.88"/>
    <line class="cls-4" x1="177.44" y1="359.54" x2="482.63" y2="359.54"/>
    <path class="cls-4" d="M482.63,237.46c16.19,0,31.71,6.43,43.16,17.88,11.45,11.45,17.88,26.97,17.88,43.16"/>
    <line class="cls-4" x1="482.63" y1="237.46" x2="177.44" y2="237.46"/>
    <line class="cls-4" x1="159.13" y1="615.9" x2="159.13" y2="434.82"/>
    <path class="cls-4" d="M159.13,434.82c0-7.56-3-14.8-8.34-20.14-5.34-5.34-12.59-8.34-20.14-8.34s-14.8,3-20.14,8.34c-5.34,5.34-8.34,12.58-8.34,20.14"/>
    <line class="cls-4" x1="110.8" y1="612.85" x2="110.8" y2="450.08"/>
    <line class="cls-4" x1="102.16" y1="434.82" x2="102.16" y2="615.9"/>
    <line class="cls-4" x1="150.48" y1="450.08" x2="150.48" y2="612.85"/>
    <line class="cls-4" x1="100.12" y1="440.62" x2="100.12" y2="607.46"/>
    <line class="cls-4" x1="161.16" y1="607.46" x2="161.16" y2="440.62"/>
    <line class="cls-4" x1="111.43" y1="450.08" x2="111.43" y2="450.08"/>
    <path class="cls-4" d="M149.97,566.25s0,0,0,0h-3.65"/>
    <path class="cls-4" d="M114.97,566.25h-3.65s0,0,0,0"/>
    <path class="cls-4" d="M144.88,566.11h5.08s0,0,0,0"/>
    <path class="cls-4" d="M111.31,566.11s0,0,0,0h5.07"/>
    <path class="cls-4" d="M149.85,450.08c-.04-.42-.1-.81-.16-1.2"/>
    <line class="cls-4" x1="111.43" y1="450.08" x2="111.43" y2="450.08"/>
    <line class="cls-4" x1="87.91" y1="171.34" x2="572.15" y2="171.34"/>
    <path class="cls-4" d="M111.54,449.21c-.04.28-.08.57-.11.87"/>
    <line class="cls-4" x1="116.4" y1="566.11" x2="144.88" y2="566.11"/>
    <line class="cls-4" x1="111.31" y1="566.25" x2="111.31" y2="598.03"/>
    <path class="cls-4" d="M146.31,566.25h-15.67"/>
    <line class="cls-4" x1="149.97" y1="598.03" x2="149.97" y2="566.25"/>
    <path class="cls-4" d="M130.64,566.25h-15.68"/>
    <path class="cls-4" d="M87.91,176.43c-3.24,0-6.34-1.29-8.63-3.57-2.29-2.29-3.57-5.4-3.57-8.63"/>
    <line class="cls-4" x1="572.15" y1="176.43" x2="87.91" y2="176.43"/>
    <line class="cls-4" x1="109.09" y1="142.82" x2="109.09" y2="-133.81"/>
    <line class="cls-4" x1="550.97" y1="-133.81" x2="550.97" y2="142.82"/>
    <line class="cls-4" x1="80.79" y1="-155.21" x2="80.79" y2="164.22"/>
    <path class="cls-4" d="M572.15,171.34c3.93,0,7.12-3.18,7.12-7.12"/>
    <path class="cls-4" d="M80.79,164.22c0,3.93,3.19,7.12,7.12,7.12"/>
    <path class="cls-4" d="M242.19,283.49c-5.36-1.32-11.02.31-14.85,4.28-3.83,3.98-5.25,9.7-3.73,15"/>
    <path class="cls-4" d="M253.34,294.23c-1.53-5.31-5.78-9.41-11.14-10.74"/>
    <path class="cls-4" d="M234.84,313.38c3.94.94,8.09.28,11.54-1.84,3.45-2.11,5.93-5.51,6.89-9.44.95-3.93.31-8.09-1.79-11.55-2.09-3.46-5.48-5.95-9.41-6.93"/>
    <path class="cls-4" d="M242.07,283.62s-.09-.02-.13-.03"/>
    <path class="cls-4" d="M251.18,302.89c1.24-3.59.91-7.53-.91-10.87-1.81-3.34-4.95-5.76-8.63-6.67"/>
    <path class="cls-4" d="M241.64,285.35c-3.28-.81-6.75-.37-9.72,1.25-2.97,1.62-5.23,4.29-6.33,7.48"/>
    <path class="cls-4" d="M243.08,279.94c4.92,1.22,9.16,4.34,11.78,8.69,2.62,4.34,3.41,9.55,2.19,14.47-1.22,4.92-4.34,9.16-8.69,11.78-4.34,2.62-9.55,3.4-14.47,2.19"/>
    <path class="cls-4" d="M243.81,276.97c5.71,1.42,10.62,5.04,13.66,10.08,3.04,5.04,3.95,11.07,2.54,16.78-1.42,5.71-5.04,10.63-10.08,13.66-5.04,3.04-11.07,3.95-16.78,2.54"/>
    <path class="cls-4" d="M234.76,313.51c-5.37-1.33-9.61-5.43-11.14-10.74"/>
    <path class="cls-4" d="M234.84,313.38s-.09-.02-.13-.03"/>
    <path class="cls-4" d="M235.11,311.72c-3.51-.87-6.53-3.1-8.4-6.19-1.87-3.1-2.43-6.81-1.56-10.31.87-3.51,3.1-6.53,6.19-8.4,3.1-1.87,6.81-2.43,10.32-1.56"/>
    <path class="cls-4" d="M250.99,302.82c-1.15,3.34-3.58,6.09-6.75,7.64-3.18,1.55-6.84,1.77-10.18.62-3.34-1.15-6.09-3.58-7.64-6.76-1.55-3.18-1.77-6.84-.62-10.18"/>
    <path class="cls-4" d="M250.99,302.82s.06.02.1.03c.01,0,.03,0,.05.01,0,0,.01,0,.02,0,0,0,0,0,.02,0,0,0,0,0,0,0"/>
    <path class="cls-4" d="M225.6,294.08s0,0,0,0c0,0,0,0,.02,0,0,0,.01,0,.02,0h.04s.07.04.1.05"/>
    <path class="cls-4" d="M241.67,285.25c3.51.87,6.53,3.09,8.4,6.19,1.87,3.1,2.43,6.81,1.56,10.32-.87,3.51-3.1,6.53-6.19,8.4-3.1,1.87-6.81,2.43-10.31,1.56"/>
    <line class="cls-4" x1="75.71" y1="164.22" x2="75.71" y2="-155.21"/>
    <line class="cls-4" x1="87.91" y1="171.75" x2="572.15" y2="171.75"/>
    <path class="cls-4" d="M241.94,283.59c-3.94-.94-8.09-.28-11.54,1.84-3.45,2.11-5.93,5.51-6.89,9.44-.95,3.93-.32,8.09,1.78,11.55s5.48,5.95,9.41,6.93"/>
    <path class="cls-4" d="M253.34,294.23c1.52,5.31.11,11.03-3.73,15-3.83,3.97-9.49,5.61-14.85,4.28"/>
    <path class="cls-4" d="M256.07,293.44c.17.59.31,1.19.42,1.8.11.61.19,1.19.23,1.78s.07,1.18.06,1.77c0,.59-.04,1.14-.11,1.69-.12,1.11-.34,2.21-.66,3.28-.16.53-.35,1.06-.56,1.58-.05.13-.1.25-.16.39s-.12.27-.18.41c-.13.27-.26.53-.39.79-.27.53-.57,1.04-.9,1.53s-.69,1.01-1.07,1.49c-.39.48-.8.94-1.23,1.38-.43.44-.9.87-1.38,1.27-.97.8-2.03,1.5-3.14,2.09-.56.29-1.12.56-1.71.79-.58.23-1.16.43-1.76.6-.59.17-1.19.31-1.8.42-.61.11-1.19.18-1.78.23s-1.18.07-1.77.06c-.59,0-1.14-.04-1.69-.11-1.11-.12-2.21-.34-3.28-.66-.53-.16-1.06-.35-1.58-.56-.13-.05-.25-.1-.39-.16s-.27-.12-.41-.18c-.27-.13-.53-.25-.79-.39-.53-.27-1.04-.57-1.53-.9-.5-.32-1.01-.69-1.49-1.07-.48-.38-.94-.79-1.38-1.23-.44-.43-.87-.91-1.27-1.39-.8-.97-1.5-2.03-2.09-3.14-.29-.56-.56-1.12-.79-1.71-.24-.59-.43-1.17-.6-1.76"/>
    <path class="cls-4" d="M220.88,303.56c-.17-.59-.31-1.19-.42-1.8-.11-.61-.19-1.19-.23-1.78-.05-.59-.07-1.18-.06-1.77s.04-1.14.1-1.69c.12-1.11.35-2.21.67-3.28.16-.53.35-1.06.56-1.58.05-.13.1-.25.16-.39s.12-.27.18-.4c.13-.27.25-.54.39-.8.27-.53.57-1.04.9-1.53.32-.5.69-1.01,1.07-1.49.38-.48.79-.94,1.23-1.38.43-.44.91-.87,1.39-1.27.97-.8,2.03-1.5,3.14-2.09.56-.29,1.12-.56,1.71-.79.59-.23,1.17-.43,1.76-.6.59-.17,1.19-.31,1.8-.42.61-.11,1.19-.19,1.78-.23s1.18-.07,1.77-.06,1.14.04,1.69.11c1.11.12,2.21.34,3.28.66.54.16,1.06.35,1.58.56.13.05.25.1.39.16s.27.12.4.18c.27.13.54.25.8.39.53.27,1.04.57,1.53.9.5.32,1.01.69,1.49,1.07.48.39.94.8,1.38,1.23.44.43.87.9,1.27,1.38.8.97,1.5,2.03,2.09,3.14.29.56.56,1.12.79,1.71.23.58.43,1.16.6,1.76"/>
    <path class="cls-4" d="M243.08,279.94c-4.92-1.22-10.13-.43-14.47,2.18-4.34,2.62-7.47,6.86-8.69,11.78-1.22,4.92-.43,10.13,2.19,14.47,2.62,4.34,6.86,7.47,11.78,8.69"/>
    <path class="cls-4" d="M243.81,276.97c-5.71-1.41-11.75-.5-16.78,2.54-5.04,3.03-8.66,7.95-10.08,13.66-1.41,5.71-.5,11.75,2.54,16.78,3.03,5.04,7.95,8.66,13.66,10.08"/>
    <line class="cls-4" x1="579.68" y1="164.22" x2="579.68" y2="-155.21"/>
    <line class="cls-4" x1="572.15" y1="171.83" x2="87.91" y2="171.83"/>
    <path class="cls-4" d="M161.16,440.62s0,0,0,0h-1.01"/>
    <line class="cls-4" x1="101.14" y1="440.62" x2="102.16" y2="440.62"/>
    <path class="cls-4" d="M101.14,440.62h-1.01s0,0,0,0"/>
    <path class="cls-4" d="M110.8,570.49c.17-.15.34-.29.51-.43"/>
    <line class="cls-4" x1="159.13" y1="440.62" x2="160.15" y2="440.62"/>
    <path class="cls-4" d="M149.97,570.06c.17.14.34.28.51.43"/>
    <path class="cls-4" d="M143.73,566.11c.1.05.19.1.3.14"/>
    <path class="cls-4" d="M117.26,566.25c.1-.04.19-.09.3-.14"/>
    <path class="cls-4" d="M181.24,283.51c-5.36-1.33-11.02.3-14.85,4.28-3.83,3.97-5.25,9.69-3.73,15"/>
    <path class="cls-4" d="M192.38,294.25c-1.53-5.32-5.78-9.41-11.14-10.74"/>
    <path class="cls-4" d="M173.89,313.4c3.94.94,8.09.28,11.54-1.84,3.45-2.11,5.93-5.51,6.89-9.44.95-3.93.31-8.08-1.79-11.55-2.09-3.46-5.48-5.96-9.41-6.93"/>
    <path class="cls-4" d="M181.12,283.64l-.13-.03"/>
    <path class="cls-4" d="M190.23,302.91c1.24-3.59.91-7.53-.91-10.87-1.81-3.34-4.95-5.75-8.63-6.67"/>
    <path class="cls-4" d="M180.69,285.37c-3.28-.81-6.75-.37-9.72,1.25-2.97,1.62-5.23,4.29-6.33,7.49"/>
    <path class="cls-4" d="M182.85,277c5.71,1.41,10.62,5.04,13.66,10.07,3.04,5.04,3.95,11.07,2.54,16.79-1.42,5.71-5.04,10.62-10.08,13.66-5.04,3.03-11.07,3.95-16.78,2.53"/>
    <path class="cls-4" d="M173.81,313.53c-5.37-1.33-9.61-5.43-11.14-10.74"/>
    <path class="cls-4" d="M173.89,313.4l-.13-.03"/>
    <path class="cls-4" d="M174.16,311.74c-3.51-.87-6.53-3.1-8.4-6.19-1.87-3.09-2.43-6.8-1.56-10.31.87-3.51,3.1-6.53,6.19-8.4,3.1-1.87,6.81-2.43,10.32-1.56"/>
    <path class="cls-4" d="M190.23,302.91c-1.1,3.2-3.36,5.87-6.33,7.48-2.97,1.62-6.44,2.06-9.72,1.25"/>
    <path class="cls-4" d="M164.65,294.1c-1.24,3.59-.91,7.53.91,10.87,1.82,3.34,4.95,5.75,8.63,6.67"/>
    <path class="cls-4" d="M180.72,285.27c3.51.87,6.53,3.1,8.4,6.19,1.87,3.1,2.43,6.81,1.56,10.32-.87,3.51-3.1,6.53-6.19,8.4-3.09,1.87-6.81,2.43-10.31,1.56"/>
    <path class="cls-4" d="M180.99,283.61c-3.94-.94-8.09-.28-11.54,1.83-3.45,2.11-5.93,5.51-6.89,9.45-.95,3.93-.32,8.08,1.78,11.55,2.1,3.46,5.48,5.96,9.41,6.93"/>
    <path class="cls-4" d="M192.38,294.25c1.52,5.3.11,11.02-3.73,15-3.83,3.98-9.49,5.61-14.85,4.28"/>
    <path class="cls-4" d="M195.12,293.46c.17.59.31,1.19.42,1.8.11.61.19,1.19.23,1.78.05.59.07,1.18.06,1.78,0,.59-.04,1.14-.11,1.69-.12,1.11-.34,2.21-.66,3.28-.16.54-.35,1.06-.56,1.58-.05.13-.1.25-.16.39s-.12.27-.18.41c-.13.27-.26.54-.39.8-.27.52-.57,1.03-.9,1.53s-.69,1.01-1.07,1.49c-.39.48-.8.94-1.23,1.38-.43.44-.9.87-1.38,1.27-.97.8-2.03,1.51-3.14,2.09-.56.29-1.12.56-1.71.79-.58.23-1.16.43-1.76.6-.59.17-1.19.31-1.8.42-.61.11-1.19.19-1.78.23-.59.04-1.18.06-1.77.05-.59,0-1.14-.04-1.69-.1-1.11-.12-2.21-.35-3.28-.67-.53-.16-1.06-.35-1.58-.56-.13-.05-.25-.1-.39-.16s-.27-.12-.41-.18c-.27-.12-.53-.25-.79-.39-.53-.27-1.04-.57-1.53-.89-.5-.33-1.01-.69-1.49-1.08-.48-.38-.94-.79-1.38-1.23-.44-.43-.87-.9-1.27-1.39-.8-.97-1.5-2.03-2.09-3.14-.29-.56-.56-1.13-.79-1.71-.24-.58-.43-1.17-.6-1.76"/>
    <path class="cls-4" d="M159.93,303.58c-.17-.59-.31-1.19-.42-1.8-.11-.61-.18-1.19-.23-1.78s-.07-1.18-.06-1.77.04-1.14.11-1.69c.12-1.11.34-2.21.66-3.28.16-.54.35-1.06.56-1.58.05-.13.1-.26.16-.39s.12-.27.18-.4c.13-.27.25-.54.39-.8.27-.52.57-1.03.9-1.53.32-.5.69-1,1.07-1.49.38-.48.79-.94,1.23-1.38.43-.44.91-.87,1.39-1.28.97-.8,2.03-1.5,3.14-2.09.56-.29,1.12-.56,1.71-.79.59-.23,1.17-.43,1.76-.6.59-.17,1.19-.31,1.8-.42.61-.11,1.19-.19,1.78-.23s1.18-.07,1.77-.06,1.14.05,1.69.11c1.11.12,2.21.35,3.28.67.54.16,1.06.34,1.58.55.13.05.25.11.39.17s.27.12.4.18c.27.12.54.25.8.39.53.27,1.04.57,1.53.89s1.01.69,1.49,1.08c.48.38.94.79,1.38,1.23.44.43.87.9,1.27,1.39.8.97,1.5,2.03,2.09,3.14.29.56.56,1.13.79,1.71s.43,1.16.6,1.76"/>
    <path class="cls-4" d="M182.12,279.96c-4.92-1.22-10.13-.43-14.47,2.19-4.34,2.62-7.47,6.86-8.69,11.78-1.22,4.92-.43,10.13,2.19,14.47,2.62,4.34,6.86,7.47,11.78,8.69"/>
    <path class="cls-4" d="M182.85,277c-5.71-1.42-11.75-.51-16.78,2.53-5.04,3.04-8.66,7.95-10.08,13.66-1.41,5.71-.5,11.75,2.54,16.78,3.03,5.04,7.95,8.66,13.66,10.08"/>
    <line class="cls-4" x1="579.68" y1="5.81" x2="579.68" y2="36.33"/>
    <path class="cls-4" d="M579.68,36.33c0,.09,0,.18,0,.26"/>
    <line class="cls-4" x1="579.68" y1="107.53" x2="579.68" y2="138.05"/>
    <path class="cls-4" d="M579.68,138.05c0,.09,0,.18,0,.26"/>
    <path class="cls-4" d="M345.43,308.41c4.12-6.4,3.85-14.68-.68-20.8"/>
    <path class="cls-4" d="M347.44,310.35c.06,0,.12-.03.17-.08.02-.02.04-.04.06-.07.01-.02.03-.06.03-.09s0-.06,0-.09c0-.01,0-.03,0-.05,0,0,0-.01,0-.02,0,0,0,0,0-.02-.03-.09-.09-.13-.12-.14"/>
    <path class="cls-4" d="M319.24,313.3c3.71,2.7,8.3,3.92,12.86,3.4"/>
    <path class="cls-4" d="M319.72,312.64c-2.43-1.77-4.36-4.13-5.61-6.86"/>
    <path class="cls-4" d="M314.19,302.16s0-.02.02-.03"/>
    <line class="cls-4" x1="316.51" y1="321.24" x2="316.51" y2="321.24"/>
    <line class="cls-4" x1="317.73" y1="321.92" x2="317.73" y2="321.92"/>
    <path class="cls-4" d="M331.3,314.53s.1.04.11.09"/>
    <path class="cls-4" d="M334.39,271.86c.46-.49,1.28-.25,1.4.41"/>
    <path class="cls-4" d="M332.33,271.56c.43-.47,1.22-.28,1.38.35"/>
    <path class="cls-4" d="M328.16,271.43c.4-.43,1.11-.31,1.34.22"/>
    <path class="cls-4" d="M326.08,271.61c.38-.41,1.05-.33,1.31.17"/>
    <path class="cls-4" d="M324.03,271.96c.36-.39.99-.34,1.28.11"/>
    <path class="cls-4" d="M322,272.46c.35-.37.94-.34,1.25.06"/>
    <path class="cls-4" d="M314.49,276c.27-.3.73-.35,1.06-.12"/>
    <path class="cls-4" d="M312.81,277.24c.26-.28.68-.34,1.01-.15"/>
    <path class="cls-4" d="M309.78,280.1c.23-.25.58-.33.9-.21"/>
    <path class="cls-4" d="M308.44,281.7c.21-.23.54-.32.83-.23"/>
    <path class="cls-4" d="M307.23,283.39c.2-.21.49-.3.77-.24"/>
    <path class="cls-4" d="M306.16,285.18c.18-.19.45-.29.71-.25"/>
    <path class="cls-4" d="M303.95,305.38s.07-.07.11-.1"/>
    <path class="cls-4" d="M303.44,303.36c.05-.05.1-.1.16-.14"/>
    <path class="cls-4" d="M302.91,299.22c.08-.08.17-.15.27-.19"/>
    <path class="cls-4" d="M302.89,297.14c.1-.1.2-.17.33-.22"/>
    <path class="cls-4" d="M303.35,293c.12-.13.28-.21.45-.25"/>
    <path class="cls-4" d="M313.24,291.19c.82-1.88,1.95-3.61,3.35-5.12"/>
    <path class="cls-4" d="M331.04,277.67s0-.04,0-.07c0-.02.01-.04.02-.06,0,0,.01-.02.02-.03,0,0,.02-.02.02-.03"/>
    <path class="cls-4" d="M315.52,291.59c.7-1.46,1.61-2.81,2.71-4"/>
    <path class="cls-4" d="M331.8,279.3s.06-.03.09-.03.05.02.07.04"/>
    <path class="cls-4" d="M341.03,310.23s0,0,0,0"/>
    <path class="cls-4" d="M314.21,302.13s.06-.04.1-.03c.04,0,.07.04.07.07"/>
    <line class="cls-4" x1="307.9" y1="312.99" x2="307.75" y2="313.22"/>
    <path class="cls-4" d="M307.42,312.98h0s0,0,0,0c0,0,.02.01.03.02l.04.03s.05.04.08.06c.06.04.11.08.17.12"/>
    <line class="cls-4" x1="308.18" y1="313.84" x2="308.44" y2="313.78"/>
    <line class="cls-4" x1="309.11" y1="314.69" x2="308.98" y2="314.92"/>
    <path class="cls-4" d="M308.62,314.71h0s0,0,0,0c0,0,.02.01.03.02.01,0,.03.02.04.02.03.02.06.04.09.05.06.03.12.07.18.1"/>
    <line class="cls-4" x1="309.45" y1="315.51" x2="309.71" y2="315.43"/>
    <line class="cls-4" x1="310.44" y1="316.27" x2="310.32" y2="316.52"/>
    <path class="cls-4" d="M309.96,316.34s.03.01.05.02c.01,0,.03.01.04.02.03.01.06.03.09.04.06.03.12.06.18.09"/>
    <line class="cls-4" x1="310.85" y1="317.07" x2="311.09" y2="316.97"/>
    <line class="cls-4" x1="311.9" y1="317.76" x2="311.8" y2="318.01"/>
    <path class="cls-4" d="M311.42,317.86h0s0,0,0,0c.01,0,.02,0,.04,0,.01,0,.03.01.05.02.03.01.06.02.09.04l.19.07"/>
    <line class="cls-4" x1="312.37" y1="318.52" x2="312.6" y2="318.4"/>
    <line class="cls-4" x1="313.47" y1="319.12" x2="313.39" y2="319.38"/>
    <path class="cls-4" d="M313,319.26s0,0,0,0c.01,0,.02,0,.04,0s.03,0,.05.01c.03,0,.06.02.1.03.06.02.13.04.19.06"/>
    <line class="cls-4" x1="314.2" y1="320.19" x2="314.57" y2="319.97"/>
    <path class="cls-4" d="M131.25,384.97c12.95,0,25.37,5.14,34.53,14.3,9.16,9.16,14.3,21.57,14.3,34.53"/>
    <line class="cls-4" x1="315.13" y1="320.36" x2="315.08" y2="320.62"/>
    <path class="cls-4" d="M314.68,320.53s.03,0,.05.01c.02,0,.03,0,.05,0,.03,0,.07.01.1.02.06.01.13.03.2.04"/>
    <line class="cls-4" x1="315.71" y1="321.04" x2="315.93" y2="320.88"/>
    <line class="cls-4" x1="180.08" y1="433.81" x2="180.08" y2="616.92"/>
    <line class="cls-4" x1="316.89" y1="321.46" x2="316.86" y2="321.72"/>
    <path class="cls-4" d="M316.46,321.67h0s.02,0,.04,0c.01,0,.03,0,.05,0h.1c.07.02.14.03.2.04"/>
    <line class="cls-4" x1="317.52" y1="322.09" x2="317.73" y2="321.92"/>
    <line class="cls-4" x1="179.07" y1="616.92" x2="179.07" y2="433.81"/>
    <line class="cls-4" x1="324.63" y1="324.4" x2="324.68" y2="324.66"/>
    <path class="cls-4" d="M324.28,324.73s0,0,.01,0c0,0,.02,0,.03,0,.02,0,.03,0,.05,0,.03,0,.06,0,.1-.02.07,0,.14-.02.2-.03"/>
    <line class="cls-4" x1="325.43" y1="324.8" x2="325.57" y2="324.57"/>
    <path class="cls-4" d="M131.25,385.99c12.68,0,24.84,5.04,33.81,14,8.97,8.97,14.01,21.13,14.01,33.81"/>
    <line class="cls-4" x1="326.24" y1="324.68" x2="326.35" y2="325.1"/>
    <path class="cls-4" d="M110.8,450.08c0-5.26,2.09-10.3,5.81-14.03s8.77-5.81,14.03-5.81,10.3,2.09,14.03,5.81c3.72,3.72,5.81,8.77,5.81,14.03"/>
    <line class="cls-4" x1="327.87" y1="325.27" x2="328.07" y2="324.88"/>
    <line class="cls-4" x1="328.75" y1="324.92" x2="328.84" y2="325.18"/>
    <path class="cls-4" d="M328.45,325.31s0,0,0,0c.01,0,.02,0,.04,0s.03-.01.05-.02c.03,0,.06-.02.1-.03.06-.02.13-.04.19-.06"/>
    <line class="cls-4" x1="329.97" y1="325.36" x2="330.14" y2="324.95"/>
    <line class="cls-4" x1="149.97" y1="566.11" x2="149.97" y2="452.17"/>
    <line class="cls-4" x1="330.38" y1="324.95" x2="330.56" y2="325.35"/>
    <line class="cls-4" x1="331.69" y1="325.15" x2="331.78" y2="324.89"/>
    <line class="cls-4" x1="332.46" y1="324.84" x2="332.66" y2="325.22"/>
    <line class="cls-4" x1="333.78" y1="324.94" x2="333.84" y2="324.68"/>
    <line class="cls-4" x1="334.95" y1="324.49" x2="335.09" y2="324.72"/>
    <path class="cls-4" d="M334.75,324.94s0,0,0,0c0,0,.02,0,.03-.02.01,0,.03-.02.04-.02.02-.02.05-.04.08-.06.06-.03.12-.07.17-.11"/>
    <line class="cls-4" x1="336.24" y1="324.63" x2="336.31" y2="324.2"/>
    <line class="cls-4" x1="336.97" y1="324.03" x2="337.14" y2="324.24"/>
    <path class="cls-4" d="M336.81,324.48s.02-.02.04-.03.03-.02.04-.03c.02-.02.05-.04.08-.06.05-.04.11-.08.17-.12"/>
    <line class="cls-4" x1="337.87" y1="324.03" x2="337.89" y2="323.76"/>
    <path class="cls-4" d="M344.74,320.78c.07.05.15.07.23.07s.16-.02.23-.07c.03-.02.06-.05.09-.08.02-.03.05-.07.06-.11.03-.08.03-.16.01-.24"/>
    <line class="cls-4" x1="344.52" y1="320.63" x2="344.74" y2="320.78"/>
    <line class="cls-4" x1="345.37" y1="320.35" x2="345.31" y2="320.1"/>
    <line class="cls-4" x1="346.21" y1="319.42" x2="346.45" y2="319.56"/>
    <path class="cls-4" d="M346.24,319.91s0,0,0,0c0,0,.01-.02.02-.03,0-.01.01-.03.02-.04.02-.03.03-.06.05-.09l.1-.18"/>
    <line class="cls-4" x1="347.42" y1="318.96" x2="347.29" y2="318.55"/>
    <line class="cls-4" x1="348.98" y1="317.53" x2="348.81" y2="317.13"/>
    <line class="cls-4" x1="347.8" y1="318.09" x2="348.05" y2="318.21"/>
    <path class="cls-4" d="M347.87,318.57c.03-.06.06-.12.09-.18.03-.06.06-.12.09-.19"/>
    <line class="cls-4" x1="158.84" y1="430.75" x2="162.64" y2="430.75"/>
    <line class="cls-4" x1="161.16" y1="469.41" x2="162.79" y2="469.41"/>
    <line class="cls-4" x1="350.05" y1="316.17" x2="349.93" y2="315.93"/>
    <line class="cls-4" x1="350.65" y1="315.07" x2="350.91" y2="315.15"/>
    <path class="cls-4" d="M350.79,315.54s0,0,0-.01c0,0,0-.02,0-.03,0-.02,0-.03.01-.05,0-.03.02-.07.03-.1.02-.07.04-.13.06-.19"/>
    <line class="cls-4" x1="351.72" y1="314.34" x2="351.5" y2="313.96"/>
    <line class="cls-4" x1="351.88" y1="313.4" x2="352.15" y2="313.46"/>
    <path class="cls-4" d="M352.06,313.86s0,0,0-.01c0,0,0-.02,0-.04,0-.01,0-.03.01-.05,0-.03.01-.06.02-.1.01-.07.03-.13.04-.2"/>
    <line class="cls-4" x1="352.57" y1="312.82" x2="352.41" y2="312.61"/>
    <line class="cls-4" x1="352.99" y1="311.64" x2="353.25" y2="311.68"/>
    <path class="cls-4" d="M353.2,312.08s0,0,0,0h0s0-.03,0-.04c0-.02,0-.03,0-.05,0-.03,0-.07.01-.1l.03-.2"/>
    <line class="cls-4" x1="353.62" y1="311.01" x2="353.45" y2="310.81"/>
    <path class="cls-4" d="M356.26,304.26h0s0-.04,0-.05c0-.01,0-.03,0-.05,0-.03-.01-.07-.02-.1,0-.06-.02-.13-.03-.2"/>
    <line class="cls-4" x1="356.33" y1="303.11" x2="356.1" y2="302.97"/>
    <line class="cls-4" x1="356.21" y1="302.29" x2="356.63" y2="302.18"/>
    <line class="cls-4" x1="356.79" y1="300.67" x2="356.41" y2="300.47"/>
    <path class="cls-4" d="M356.71,299.7c.08-.03.14-.08.19-.15.05-.07.07-.15.08-.23,0-.04,0-.08-.01-.12s-.03-.08-.05-.11c-.04-.07-.1-.12-.19-.16"/>
    <path class="cls-4" d="M356.84,300.08h0s0,0,0,0c0,0,0-.02-.01-.03,0-.02,0-.03-.01-.05,0-.03-.02-.06-.03-.1-.02-.06-.04-.13-.06-.19"/>
    <line class="cls-4" x1="356.47" y1="297.71" x2="356.72" y2="297.6"/>
    <path class="cls-4" d="M356.88,297.98s-.02-.06-.04-.1c-.01-.03-.03-.06-.04-.09-.03-.06-.06-.12-.08-.19"/>
    <line class="cls-4" x1="356.68" y1="296.84" x2="356.42" y2="296.76"/>
    <line class="cls-4" x1="356.37" y1="296.08" x2="356.75" y2="295.87"/>
    <line class="cls-4" x1="356.56" y1="294.36" x2="356.14" y2="294.26"/>
    <path class="cls-4" d="M356.25,293.44c.07-.04.12-.11.16-.19.03-.07.04-.16.02-.24,0-.04-.02-.08-.04-.12-.02-.03-.05-.07-.08-.1-.06-.05-.13-.09-.21-.11"/>
    <path class="cls-4" d="M356.47,293.78s-.04-.06-.06-.09c-.01-.03-.03-.06-.05-.09-.03-.05-.07-.11-.11-.17"/>
    <line class="cls-4" x1="356.16" y1="292.29" x2="355.73" y2="292.23"/>
    <line class="cls-4" x1="356.09" y1="292.69" x2="355.82" y2="292.65"/>
    <line class="cls-4" x1="355.66" y1="291.99" x2="356.01" y2="291.72"/>
    <line class="cls-4" x1="355.29" y1="290.65" x2="355.56" y2="290.67"/>
    <line class="cls-4" x1="335.39" y1="272.35" x2="335.43" y2="272.61"/>
    <path class="cls-4" d="M335.78,272.27s0,0,0,0c0,0,0,0,0,0-.01,0-.02,0-.04,0-.01,0-.03,0-.05,0-.03,0-.07,0-.1.02-.07,0-.13.02-.2.03"/>
    <line class="cls-4" x1="334.5" y1="272.43" x2="334.64" y2="272.21"/>
    <line class="cls-4" x1="333.32" y1="272.01" x2="333.38" y2="272.27"/>
    <line class="cls-4" x1="333.82" y1="272.33" x2="333.71" y2="271.9"/>
    <line class="cls-4" x1="332.2" y1="271.74" x2="332" y2="272.13"/>
    <line class="cls-4" x1="332.44" y1="272.16" x2="332.56" y2="271.92"/>
    <path class="cls-4" d="M332.56,271.92c.04-.08.1-.13.17-.17.03-.02.07-.03.12-.04.04,0,.08,0,.12,0,.08,0,.16.04.22.1s.11.12.13.2"/>
    <line class="cls-4" x1="331.23" y1="271.83" x2="331.31" y2="272.08"/>
    <line class="cls-4" x1="331.75" y1="272.11" x2="331.61" y2="271.7"/>
    <path class="cls-4" d="M330.47,271.81c.03-.08.09-.14.16-.19.03-.02.07-.04.11-.05s.08-.01.12-.01c.08,0,.16.03.23.08.06.05.11.12.14.19"/>
    <line class="cls-4" x1="329.13" y1="271.82" x2="329.24" y2="272.06"/>
    <path class="cls-4" d="M329.5,271.66s0,0,0,0c0,0-.02,0-.03.01-.01,0-.03.01-.05.02-.03,0-.06.02-.09.04-.06.03-.13.05-.19.08"/>
    <line class="cls-4" x1="327.98" y1="271.73" x2="327.85" y2="272.14"/>
    <line class="cls-4" x1="327.04" y1="271.97" x2="327.16" y2="272.21"/>
    <line class="cls-4" x1="327.6" y1="272.17" x2="327.4" y2="271.78"/>
    <line class="cls-4" x1="326.23" y1="272.33" x2="326.28" y2="272.07"/>
    <path class="cls-4" d="M327.04,271.97c-.04-.07-.1-.13-.17-.17s-.16-.05-.24-.04c-.04,0-.08.01-.12.03-.03.02-.07.04-.1.07-.06.05-.1.12-.13.21"/>
    <path class="cls-4" d="M325.31,272.07s0,0,0,0c0,0-.02.01-.03.02,0,0-.02.01-.04.02l-.09.06c-.06.03-.11.07-.17.11"/>
    <line class="cls-4" x1="323.82" y1="272.38" x2="323.75" y2="272.81"/>
    <line class="cls-4" x1="324.18" y1="272.71" x2="324.22" y2="272.44"/>
    <path class="cls-4" d="M324.22,272.44c.01-.09.05-.16.11-.22.03-.03.06-.05.1-.07s.07-.03.11-.04c.08-.01.17,0,.24.02.07.03.14.08.19.16"/>
    <line class="cls-4" x1="322.93" y1="272.77" x2="323.09" y2="272.98"/>
    <path class="cls-4" d="M323.25,272.52s-.11.08-.16.12-.11.08-.16.12"/>
    <line class="cls-4" x1="321.79" y1="272.95" x2="321.75" y2="273.38"/>
    <line class="cls-4" x1="315.54" y1="276.37" x2="315.32" y2="276.22"/>
    <path class="cls-4" d="M315.56,275.89l-.03.04s-.02.02-.03.04c-.02.03-.04.06-.06.08-.04.06-.08.11-.12.17"/>
    <line class="cls-4" x1="314.69" y1="276.65" x2="314.76" y2="276.91"/>
    <line class="cls-4" x1="313.85" y1="277.58" x2="313.62" y2="277.45"/>
    <path class="cls-4" d="M313.83,277.1s0,0,0,0c0,0,0,.02-.02.03,0,.01-.01.03-.02.04-.01.03-.03.06-.05.09-.03.06-.07.12-.11.18"/>
    <path class="cls-4" d="M312.02,278.8c-.08-.04-.16-.05-.24-.04-.08.01-.16.05-.21.11-.03.03-.06.06-.08.09-.02.04-.03.08-.04.12-.01.08,0,.16.02.24"/>
    <line class="cls-4" x1="312.26" y1="278.92" x2="312.02" y2="278.8"/>
    <line class="cls-4" x1="311.46" y1="279.32" x2="311.57" y2="279.57"/>
    <line class="cls-4" x1="310.78" y1="280.37" x2="310.52" y2="280.27"/>
    <path class="cls-4" d="M310.68,279.89c-.05.13-.1.25-.15.38"/>
    <line class="cls-4" x1="310.01" y1="280.84" x2="310.13" y2="281.07"/>
    <line class="cls-4" x1="309.41" y1="281.94" x2="309.16" y2="281.86"/>
    <path class="cls-4" d="M309.27,281.47s0,0,0,0h0s0,.03-.01.04c0,.01,0,.03-.01.05,0,.03-.02.06-.03.1-.02.06-.04.13-.06.19"/>
    <line class="cls-4" x1="308.69" y1="282.46" x2="308.83" y2="282.69"/>
    <line class="cls-4" x1="308.18" y1="283.61" x2="307.91" y2="283.55"/>
    <path class="cls-4" d="M308,283.15s0,0,0,.01c0,0,0,.02,0,.04,0,.01,0,.03,0,.05,0,.03-.01.06-.02.1-.01.07-.03.13-.04.2"/>
    <line class="cls-4" x1="307.5" y1="284.19" x2="307.66" y2="284.4"/>
    <line class="cls-4" x1="307.08" y1="285.36" x2="306.81" y2="285.33"/>
    <path class="cls-4" d="M306.87,284.93s0,0,0,0h0s0,.03,0,.04c0,.02,0,.03,0,.05,0,.03,0,.06-.01.1l-.03.2"/>
    <line class="cls-4" x1="306.44" y1="286" x2="306.62" y2="286.2"/>
    <line class="cls-4" x1="304.48" y1="306.74" x2="304.91" y2="306.78"/>
    <line class="cls-4" x1="304.78" y1="306.36" x2="304.51" y2="306.34"/>
    <path class="cls-4" d="M304.3,305.61c-.07.05-.12.12-.14.19s-.03.17,0,.24c0,.04.03.08.05.11.02.03.05.07.09.09.06.05.14.08.22.09"/>
    <path class="cls-4" d="M304.05,305.28s0,0,0,0h0s.01.02.02.04c0,0,.02.02.03.04.02.02.04.05.06.08.04.05.08.11.12.16"/>
    <line class="cls-4" x1="303.91" y1="304.71" x2="304.34" y2="304.78"/>
    <line class="cls-4" x1="304.24" y1="304.35" x2="303.97" y2="304.31"/>
    <path class="cls-4" d="M303.82,303.57c-.07.04-.13.11-.16.19-.03.07-.04.16-.02.24,0,.04.02.08.04.11.02.04.04.07.07.1.06.05.13.09.22.11"/>
    <path class="cls-4" d="M303.6,303.22s0,0,0,0c0,.01.01.02.02.03l.03.04s.04.06.05.09c.04.05.07.11.11.17"/>
    <line class="cls-4" x1="303.86" y1="302.31" x2="303.59" y2="302.25"/>
    <path class="cls-4" d="M303.5,301.49c-.08.04-.13.1-.17.18s-.05.16-.04.23c0,.04.01.08.03.12.01.04.04.07.07.11.05.06.12.1.2.12"/>
    <path class="cls-4" d="M303.31,301.13s0,0,0,0t0,0s0,.02.01.03c0,.01.02.03.02.04.02.03.03.06.05.09.03.06.06.12.1.18"/>
    <line class="cls-4" x1="303.69" y1="300.93" x2="303.31" y2="301.13"/>
    <path class="cls-4" d="M303.09,301.3c-.09.11-.16.23-.19.37-.03.14-.02.29.01.42.04.14.12.26.22.36s.23.17.37.2"/>
    <path class="cls-4" d="M303.31,301.13c-.08.04-.15.1-.21.17"/>
    <line class="cls-4" x1="303.5" y1="302.64" x2="303.93" y2="302.75"/>
    <line class="cls-4" x1="303.59" y1="299.3" x2="303.35" y2="299.4"/>
    <path class="cls-4" d="M303.19,299.03h0s0,0,0,.01c0,0,0,.02.01.03,0,.01.01.03.02.04.01.03.03.06.04.1.02.06.05.12.08.19"/>
    <line class="cls-4" x1="303.39" y1="300.16" x2="303.64" y2="300.25"/>
    <line class="cls-4" x1="303.64" y1="296.78" x2="303.22" y2="296.92"/>
    <line class="cls-4" x1="303.18" y1="298.45" x2="303.58" y2="298.61"/>
    <line class="cls-4" x1="303.79" y1="295.15" x2="303.54" y2="295.22"/>
    <path class="cls-4" d="M303.43,294.83h0s0,.03.01.05c0,.01,0,.03,0,.05,0,.03.02.06.02.1.02.06.03.13.05.19"/>
    <line class="cls-4" x1="303.43" y1="294.83" x2="303.85" y2="294.71"/>
    <line class="cls-4" x1="303.27" y1="296.34" x2="303.66" y2="296.54"/>
    <line class="cls-4" x1="303.45" y1="295.98" x2="303.69" y2="296.1"/>
    <line class="cls-4" x1="304.14" y1="293.1" x2="303.88" y2="293.15"/>
    <path class="cls-4" d="M303.8,292.75s0,.04,0,.05c0,.01,0,.03,0,.05v.1c.03.06.04.13.05.2"/>
    <line class="cls-4" x1="303.73" y1="293.9" x2="303.96" y2="294.04"/>
    <line class="cls-4" x1="352.16" y1="284.02" x2="352.31" y2="283.79"/>
    <path class="cls-4" d="M352.64,284.03s0,0,0,0c0,0-.02-.01-.03-.02l-.04-.03s-.05-.04-.08-.06c-.05-.04-.11-.08-.17-.12"/>
    <line class="cls-4" x1="352.64" y1="284.03" x2="352.4" y2="284.39"/>
    <line class="cls-4" x1="351.79" y1="282.77" x2="351.37" y2="282.87"/>
    <line class="cls-4" x1="351.88" y1="283.16" x2="351.62" y2="283.23"/>
    <line class="cls-4" x1="351.09" y1="282.09" x2="350.95" y2="282.32"/>
    <path class="cls-4" d="M351.44,282.3s0,0,0,0c-.01,0-.02-.01-.03-.02l-.04-.03s-.06-.03-.09-.05l-.18-.1"/>
    <line class="cls-4" x1="350.36" y1="281.58" x2="350.61" y2="281.5"/>
    <line class="cls-4" x1="349.74" y1="280.49" x2="349.62" y2="280.73"/>
    <path class="cls-4" d="M350.1,280.66s0,0,0,0c0,0-.02,0-.03-.01-.01,0-.03-.01-.05-.02l-.09-.04c-.06-.03-.12-.06-.19-.09"/>
    <line class="cls-4" x1="348.97" y1="280.04" x2="349.22" y2="279.93"/>
    <line class="cls-4" x1="348.26" y1="279" x2="348.16" y2="279.25"/>
    <line class="cls-4" x1="348.48" y1="279.55" x2="348.64" y2="279.15"/>
    <line class="cls-4" x1="347.52" y1="278.12" x2="347.13" y2="278.32"/>
    <line class="cls-4" x1="347.46" y1="278.61" x2="347.7" y2="278.49"/>
    <path class="cls-4" d="M347.7,278.49c.08-.04.16-.05.24-.04.04,0,.08.02.12.04.04.01.07.04.1.06.06.06.1.13.12.21.02.08,0,.16-.02.24"/>
    <line class="cls-4" x1="346.68" y1="277.63" x2="346.6" y2="277.88"/>
    <line class="cls-4" x1="346.94" y1="278.16" x2="347.06" y2="277.75"/>
    <line class="cls-4" x1="345.86" y1="276.81" x2="345.49" y2="277.04"/>
    <line class="cls-4" x1="345.85" y1="277.3" x2="346.07" y2="277.16"/>
    <path class="cls-4" d="M346.68,277.63c.02-.08.02-.16,0-.24s-.07-.15-.14-.2c-.03-.02-.07-.04-.11-.06s-.08-.02-.12-.02c-.08,0-.16.01-.23.06"/>
    <line class="cls-4" x1="344.99" y1="276.38" x2="344.93" y2="276.65"/>
    <line class="cls-4" x1="345.29" y1="276.9" x2="345.38" y2="276.47"/>
    <path class="cls-4" d="M344.99,276.38c.01-.08,0-.16-.02-.24-.03-.08-.08-.14-.15-.19-.03-.02-.07-.04-.11-.05s-.08-.01-.12-.01c-.08,0-.16.03-.23.08"/>
    <line class="cls-4" x1="343.21" y1="275.28" x2="343.17" y2="275.55"/>
    <path class="cls-4" d="M343.61,275.34s0,0-.01,0c0,0-.02,0-.04,0-.01,0-.03,0-.05,0h-.1c-.07-.02-.13-.03-.2-.04"/>
    <line class="cls-4" x1="342.33" y1="275.09" x2="342.54" y2="274.91"/>
    <path class="cls-4" d="M308.18,313.84c.02.06.03.13.05.19,0,.03.01.07.02.1,0,.01,0,.03,0,.05,0,0,0,.02,0,.03,0,0,0,0,0,0h0"/>
    <path class="cls-4" d="M307.42,312.98c-.19.28-.19.64,0,.92.19.28.53.41.86.34"/>
    <path class="cls-4" d="M309.45,315.51c.02.06.04.13.06.19,0,.03.02.06.03.1,0,.01,0,.03.01.05,0,0,0,.02,0,.03,0,0,0,0,0,0h0"/>
    <path class="cls-4" d="M309.57,315.89c-.32.11-.67,0-.89-.26-.21-.26-.24-.63-.07-.92"/>
    <path class="cls-4" d="M310.85,317.07c.03.06.05.13.08.19.01.03.03.06.04.1,0,.01.01.03.02.04s0,.02.01.04c0,0,0,0,0,0,0,0,0,0,0,0"/>
    <path class="cls-4" d="M311,317.45c-.31.13-.67.05-.9-.19-.23-.24-.29-.61-.14-.91"/>
    <path class="cls-4" d="M312.37,318.52c.03.06.06.12.09.18.01.03.03.06.04.09,0,.01.01.03.02.04,0,.01,0,.02.01.03,0,0,0,0,0,0,0,0,0,0,0,0"/>
    <path class="cls-4" d="M312.55,318.88c-.3.15-.66.1-.92-.13-.25-.22-.33-.58-.21-.9"/>
    <path class="cls-4" d="M313,319.26c-.1.33.01.67.28.88.27.2.64.23.93.05"/>
    <path class="cls-4" d="M315.71,321.04c.04.05.08.11.12.17.02.03.04.05.06.08,0,.01.02.02.03.04,0,0,.01.02.02.03h0s0,0,0,0"/>
    <path class="cls-4" d="M314.68,320.53c-.07.33.07.67.35.86s.65.18.92-.02"/>
    <path class="cls-4" d="M317.79,322.4h0s0,0,0,0c0,0-.02-.02-.02-.03-.01,0-.02-.02-.03-.04-.02-.02-.04-.05-.07-.08-.04-.05-.09-.1-.13-.15"/>
    <path class="cls-4" d="M316.46,321.67c-.05.34.12.66.41.82.3.17.66.13.92-.09"/>
    <path class="cls-4" d="M325.43,324.8c.06.03.12.07.17.11.03.02.06.03.09.05.01,0,.03.02.04.02,0,0,.02.01.03.02,0,0,0,0,0,0h0"/>
    <path class="cls-4" d="M324.28,324.73c.06.33.32.59.65.66.34.06.67-.09.85-.37"/>
    <path class="cls-4" d="M326.35,325.1c.09.33.37.56.7.6.34.03.66-.14.81-.44"/>
    <path class="cls-4" d="M329.97,325.36c-.13.31-.44.51-.77.5-.34-.01-.63-.23-.75-.55"/>
    <path class="cls-4" d="M331.69,325.15c.06.02.13.04.19.06.03,0,.07.02.1.03.01,0,.03,0,.05.01s.02,0,.04.01h0s0,0,0,0"/>
    <path class="cls-4" d="M330.56,325.35c.14.31.45.5.78.49.34-.02.63-.24.74-.56"/>
    <path class="cls-4" d="M333.78,324.94c.06.01.13.03.19.05.03,0,.07.01.1.02.01,0,.03,0,.05,0,0,0,.02,0,.04,0,0,0,0,0,0,0,0,0,0,0,0,0"/>
    <path class="cls-4" d="M332.66,325.22c.16.3.49.47.82.42.33-.04.61-.29.69-.61"/>
    <path class="cls-4" d="M334.75,324.94c.18.28.52.43.85.36.33-.07.58-.33.64-.67"/>
    <path class="cls-4" d="M337.87,324.03c.06,0,.13,0,.2.01.03,0,.07,0,.1,0,.01,0,.03,0,.05,0h.04s0,0,0,0c0,0,0,0,0,0"/>
    <path class="cls-4" d="M338.27,324.06c-.03.34-.26.62-.58.72-.33.09-.67-.02-.88-.29"/>
    <path class="cls-4" d="M346.24,319.91c.29.17.66.15.92-.07.26-.21.37-.56.26-.88"/>
    <path class="cls-4" d="M347.87,318.57c.31.15.67.09.92-.14.24-.23.32-.59.19-.91"/>
    <path class="cls-4" d="M350.05,316.17c.06-.03.12-.06.18-.09.03-.01.06-.03.09-.04.01,0,.03-.02.04-.02,0,0,.02,0,.03-.02t0,0h0"/>
    <path class="cls-4" d="M350.41,315.99c.16.3.11.67-.12.92-.23.25-.58.34-.9.21"/>
    <path class="cls-4" d="M351.72,314.34c.18.29.16.65-.05.92-.21.27-.56.38-.88.28"/>
    <path class="cls-4" d="M352.57,312.82c.05-.04.11-.08.17-.12.02-.02.05-.04.08-.06,0,0,.02-.02.04-.03,0,0,.02-.01.03-.02t0,0h0"/>
    <path class="cls-4" d="M352.06,313.86c.33.07.67-.07.86-.35s.18-.65-.02-.93"/>
    <path class="cls-4" d="M353.62,311.01c.05-.04.1-.09.16-.13.02-.02.05-.04.08-.06.01-.01.02-.02.04-.03,0,0,.02-.02.03-.02,0,0,0,0,0,0h0"/>
    <path class="cls-4" d="M353.93,310.75c.22.26.25.62.09.92s-.49.46-.82.41"/>
    <path class="cls-4" d="M356.55,302.76s0,0,0,0t0,0s0,.02-.02.03c0,0-.02.02-.02.04-.02.03-.04.06-.05.09-.04.06-.07.12-.11.18"/>
    <path class="cls-4" d="M356.26,304.26c.34-.06.59-.32.66-.65s-.08-.67-.37-.84"/>
    <path class="cls-4" d="M356.63,302.18c.33-.08.57-.36.6-.7.04-.34-.14-.66-.44-.81"/>
    <path class="cls-4" d="M356.73,298.94c.03-.06.05-.12.08-.19.01-.03.03-.06.04-.09,0-.02.01-.03.02-.05s0-.02.01-.03c0,0,0,0,0,0h0"/>
    <path class="cls-4" d="M356.84,300.08c.32-.11.54-.4.55-.74,0-.34-.19-.65-.5-.78"/>
    <path class="cls-4" d="M356.68,296.84c.02-.06.04-.13.06-.19.01-.03.02-.06.03-.1v-.04s.02-.03.03-.04h0s0-.01,0,0"/>
    <path class="cls-4" d="M356.88,297.98c.31-.14.51-.45.49-.79-.01-.34-.24-.63-.56-.73"/>
    <path class="cls-4" d="M356.75,295.87c.3-.16.47-.48.42-.82s-.29-.61-.62-.69"/>
    <path class="cls-4" d="M356.47,293.78c.28-.19.42-.52.36-.85s-.34-.58-.67-.64"/>
    <path class="cls-4" d="M355.56,290.67v-.2s.02-.06.02-.1v-.05s0-.02,0-.04h0"/>
    <path class="cls-4" d="M356.01,291.72c.27-.2.38-.56.29-.88-.09-.33-.38-.56-.72-.58"/>
    <path class="cls-4" d="M334.64,272.21c-.06-.04-.12-.07-.18-.11-.03-.02-.06-.03-.09-.05l-.04-.03s-.02,0-.03-.02c0,0,0,0,0,0h0"/>
    <path class="cls-4" d="M334.39,271.86s-.07.08-.1.13"/>
    <path class="cls-4" d="M332.2,271.74c.03-.07.07-.13.13-.18"/>
    <path class="cls-4" d="M330.47,271.81c-.06-.02-.13-.05-.19-.08-.03,0-.06-.02-.1-.04-.01,0-.03,0-.04-.02-.01,0-.02,0-.04-.01,0,0,0,0,0,0,0,0,0,0,0,0"/>
    <path class="cls-4" d="M328.16,271.43c-.08.09-.14.19-.18.3"/>
    <path class="cls-4" d="M326.08,271.61c-.1.11-.16.22-.19.36"/>
    <path class="cls-4" d="M324.03,271.96c-.11.12-.18.26-.21.42"/>
    <path class="cls-4" d="M322,272.46c-.12.14-.19.31-.21.49"/>
    <path class="cls-4" d="M314.69,276.65c-.07.01-.13.03-.2.04-.03,0-.06.02-.1.02-.01,0-.03,0-.05.01-.01,0-.02,0-.04,0t0,0h0"/>
    <path class="cls-4" d="M314.49,276c-.19.2-.26.48-.19.74"/>
    <path class="cls-4" d="M312.64,278.04c-.09-.28-.02-.58.18-.8"/>
    <path class="cls-4" d="M310.01,280.84c-.06.03-.12.06-.18.09l-.09.04s-.03.01-.05.02c0,0-.02,0-.03.02h0"/>
    <path class="cls-4" d="M309.65,281.02c-.16-.31-.1-.67.13-.92"/>
    <path class="cls-4" d="M308.69,282.46c-.05.03-.11.07-.17.1-.03.02-.06.04-.09.05l-.04.03s-.02,0-.03.02c0,0,0,0,0,0h0"/>
    <path class="cls-4" d="M308.34,282.67c-.19-.31-.15-.71.1-.97"/>
    <path class="cls-4" d="M307.5,284.19c-.06.04-.11.08-.17.12-.03.02-.06.04-.08.06l-.04.03s-.02.02-.03.02c0,0,0,0,0,0h0"/>
    <path class="cls-4" d="M307.23,283.39c-.26.29-.29.72-.06,1.03"/>
    <path class="cls-4" d="M306.44,286c-.05.04-.1.09-.16.13-.02.02-.05.04-.08.06,0,.01-.02.02-.04.03,0,0-.02.01-.03.02,0,0,0,0,0,0t0,0"/>
    <path class="cls-4" d="M306.16,285.18c-.28.3-.29.76-.02,1.08"/>
    <path class="cls-4" d="M303.95,305.38c-.46.5-.15,1.31.53,1.36"/>
    <path class="cls-4" d="M303.44,303.36c-.44.48-.17,1.25.47,1.35"/>
    <path class="cls-4" d="M303.39,300.16c-.02.06-.04.13-.06.19,0,.03-.02.06-.03.09,0,.02,0,.03-.01.05s0,.02,0,.04c0,0,0,0,0,0h0"/>
    <path class="cls-4" d="M302.91,299.22c-.4.43-.22,1.14.35,1.32"/>
    <path class="cls-4" d="M302.89,297.14c-.38.41-.23,1.09.29,1.31"/>
    <path class="cls-4" d="M303.45,295.98c-.03.06-.06.12-.09.18-.01.03-.03.06-.05.09,0,.01-.01.03-.02.04,0,0-.01.02-.02.03,0,0,0,0,0,0h0"/>
    <path class="cls-4" d="M303.73,293.9l-.1.18s-.04.06-.05.08l-.03.04s-.01.02-.02.03c0,0,0,0,0,0h0"/>
    <path class="cls-4" d="M303.35,293c-.35.38-.27.98.17,1.25"/>
    <path class="cls-4" d="M351.88,283.16c-.01-.06-.03-.13-.05-.19,0-.03-.01-.07-.02-.1,0-.01,0-.03,0-.05,0,0,0-.02,0-.04h0s0,0,0,0"/>
    <path class="cls-4" d="M351.79,282.77c.33-.08.67.05.86.34.19.28.19.64,0,.92"/>
    <path class="cls-4" d="M350.61,281.5c-.02-.06-.04-.13-.06-.19,0-.03-.02-.06-.03-.1,0-.01,0-.03-.01-.05,0,0,0-.02-.01-.03h0s0,0,0-.01"/>
    <path class="cls-4" d="M351.44,282.3c.17-.29.14-.66-.07-.92s-.56-.37-.89-.27"/>
    <path class="cls-4" d="M349.22,279.93c-.02-.06-.05-.13-.08-.19-.01-.03-.02-.06-.04-.09,0-.01-.01-.03-.02-.05,0,0,0-.02-.01-.03,0,0,0,0,0,0h0"/>
    <path class="cls-4" d="M349.06,279.56c.31-.13.67-.05.91.19.23.24.28.61.14.91"/>
    <path class="cls-4" d="M347.52,278.12c.3-.15.67-.1.92.13.25.22.33.58.21.9"/>
    <path class="cls-4" d="M345.86,276.81c.29-.18.66-.16.93.05.27.2.38.56.28.88"/>
    <path class="cls-4" d="M344.35,275.97c-.04-.05-.08-.11-.12-.17-.02-.03-.04-.05-.06-.08,0-.01-.02-.03-.03-.04,0-.01-.01-.02-.02-.03,0,0,0,0,0,0h0"/>
    <path class="cls-4" d="M345.38,276.47c.07-.33-.06-.67-.35-.85s-.65-.18-.93.02"/>
    <path class="cls-4" d="M342.54,274.91s-.09-.1-.13-.15c-.02-.03-.04-.05-.07-.08,0-.01-.02-.03-.03-.04l-.03-.03s0,0,0,0c0,0,0,0,0,0"/>
    <path class="cls-4" d="M343.61,275.34c.04-.34-.12-.66-.41-.83-.3-.16-.66-.12-.92.1"/>
    <path class="cls-4" d="M313.75,306.88c1.31,2.54,3.18,4.73,5.49,6.41"/>
    <path class="cls-4" d="M311.07,307.66c-.02.05-.03.12-.01.18,0,.03.01.06.03.09.01.03.04.06.06.08.02.01.04.03.07.05h.04s.01.02.02.02c0,0,0,0,.02,0,.1.01.16-.02.18-.03"/>
    <path class="cls-4" d="M330.91,280.21c-5.41-.26-10.66,1.88-14.33,5.86"/>
    <path class="cls-4" d="M331.58,277.5c-.05-.07-.13-.11-.22-.12-.09,0-.18.02-.25.1"/>
    <path class="cls-4" d="M331.7,313.67c.11,0,.21.02.3.09.08.06.14.15.15.26"/>
    <path class="cls-4" d="M338.82,310.99s.03-.03.04-.04"/>
    <path class="cls-4" d="M342.36,288.95s.03-.03.05-.04"/>
    <path class="cls-4" d="M336.76,284.17c.04.06.06.12.06.19s-.02.14-.06.19-.1.09-.17.11c-.06.01-.13,0-.19-.02"/>
    <path class="cls-4" d="M318.83,288.15c.55-.59,1.14-1.14,1.77-1.64.32-.25.64-.49.98-.71.17-.11.34-.22.51-.32.17-.1.34-.2.51-.3,1.38-.77,2.87-1.32,4.42-1.64.38-.08.78-.14,1.18-.19s.8-.08,1.2-.1c.8-.03,1.61,0,2.41.09s1.6.25,2.36.47,1.5.49,2.22.82"/>
    <path class="cls-4" d="M318.83,288.15c-.29.31-.57.64-.83.97-.13.17-.26.34-.38.52-.13.18-.24.35-.36.52-.46.71-.86,1.44-1.19,2.21"/>
    <path class="cls-4" d="M316.06,292.37c-.05.1-.12.18-.22.21-.1.04-.2.04-.31,0"/>
    <path class="cls-4" d="M314.25,299.84s.03-.06.06-.09"/>
    <line class="cls-4" x1="315.54" y1="292.58" x2="315.19" y2="292.44"/>
    <path class="cls-4" d="M313.24,291.19c-.02.06-.05.15-.02.26s.11.22.24.28"/>
    <path class="cls-4" d="M331.04,277.67c-.04.85-.08,1.69-.12,2.54"/>
    <line class="cls-4" x1="336.5" y1="283.83" x2="336.76" y2="284.17"/>
    <line class="cls-4" x1="342.41" y1="288.91" x2="342.7" y2="288.68"/>
    <path class="cls-4" d="M344.76,287.61c-.04-.05-.11-.12-.21-.15s-.25-.02-.37.07"/>
    <path class="cls-4" d="M347.57,309.79c-.71-.46-1.42-.92-2.13-1.37"/>
    <line class="cls-4" x1="339.51" y1="311.44" x2="339.08" y2="311.5"/>
    <line class="cls-4" x1="332.15" y1="314.02" x2="332.2" y2="314.39"/>
    <path class="cls-4" d="M332.1,316.7c.07,0,.16-.03.23-.11s.14-.2.12-.35"/>
    <path class="cls-4" d="M311.49,308.05c.75-.39,1.5-.77,2.26-1.16"/>
    <line class="cls-4" x1="314.09" y1="300.24" x2="314.25" y2="299.84"/>
    <path class="cls-4" d="M314.09,300.24c-.28.68-.54,1.33-.79,1.95-.13.31-.25.61-.37.91l-.18.44c-.03.07-.06.14-.09.21-.01.03-.03.07-.04.11,0,.01-.01.03-.02.05,0,.01,0,.03-.02.05-.54,1.31-1.04,2.55-1.51,3.71"/>
    <path class="cls-4" d="M313.46,291.73s0,0,0,0c0,0,0-.01,0-.02s0-.01,0-.02c0-.01.01-.03.02-.04.01-.03.02-.06.04-.1"/>
    <path class="cls-4" d="M313.43,291.28s-.06-.02-.09-.04c-.01,0-.03-.01-.04-.02,0,0-.02,0-.02-.01,0,0-.01,0-.02,0,0,0,0,0,0,0"/>
    <line class="cls-4" x1="331.24" y1="277.68" x2="331.1" y2="280.43"/>
    <path class="cls-4" d="M330.91,280.21s0,0,.01.02l.02.02s0,0,0,.01h0s0,.01,0,.02c.02.02.06.07.12.14"/>
    <path class="cls-4" d="M342.53,289.07s-.04-.05-.06-.08c0-.01-.02-.02-.03-.04,0,0,0-.01-.02-.02,0,0,0,0,0-.01,0,0,0,0,0,0"/>
    <path class="cls-4" d="M344.18,287.54h0s0,.01.01.02c0,0,0,.01.01.02l.03.04s.04.05.06.08"/>
    <path class="cls-4" d="M344.59,287.74s.06-.04.08-.06l.04-.03s0,0,.02-.01h.01s0-.02,0-.02"/>
    <line class="cls-4" x1="347.46" y1="309.96" x2="345.15" y2="308.47"/>
    <path class="cls-4" d="M345.43,308.41s0,0-.02,0c0,0-.02,0-.03,0,0,0-.01,0-.02,0h0s0,0-.01,0c-.03,0-.09.02-.18.04"/>
    <path class="cls-4" d="M347.41,310.14v.1s.02.03.02.05v.02s0,.01,0,.02,0,0,0,0"/>
    <path class="cls-4" d="M347.57,309.79s0,0,0,0c0,0,0,0,0,.01,0,0,0,.01-.01.02,0,.01-.02.03-.03.04-.02.03-.03.06-.05.09"/>
    <path class="cls-4" d="M332.07,316.49v.1s.01.03.02.05v.02s0,0,0,.02c0,0,0,0,0,0"/>
    <path class="cls-4" d="M313.75,306.88s0,0,0-.02c0,0,0-.02,0-.03,0,0,0-.01,0-.02h0s0-.02,0-.02c0-.03.03-.09.06-.18"/>
    <path class="cls-4" d="M311.49,308.05s0,0,0,0c0,0,0-.01,0-.02,0,0,0-.01,0-.02,0-.01-.01-.03-.02-.05l-.04-.09"/>
    <line class="cls-4" x1="314.44" y1="299.92" x2="311.26" y2="307.74"/>
    <path class="cls-4" d="M331.7,313.67h0s0,.02,0,.03v.02s0,.03,0,.05v.1"/>
    <path class="cls-4" d="M315.61,292.39s-.02.06-.04.1v.04s-.02.01-.02.02c0,0,0,.01,0,.02h0"/>
    <path class="cls-4" d="M316.06,292.37h0s-.01,0-.02,0c0,0-.01,0-.02,0-.01,0-.03-.01-.04-.02-.03-.01-.06-.03-.1-.04"/>
    <path class="cls-4" d="M336.48,284.45s-.03.06-.04.09c0,.01-.01.03-.02.04,0,0,0,.01,0,.02,0,0,0,0,0,.01,0,0,0,0,0,0"/>
    <path class="cls-4" d="M336.76,284.17s0,0,0,0c0,0,0,0-.01,0,0,0-.01.01-.02.02-.01,0-.03.02-.04.03-.03.02-.05.04-.08.06"/>
    <path class="cls-4" d="M342.33,289.47s0,0,0,0c0,0,0,0,.01,0,0,0,.01,0,.02-.01,0,0,.02-.02.04-.03.03-.02.05-.04.08-.06"/>
    <path class="cls-4" d="M339.08,311.5c0-.07-.02-.13-.03-.2"/>
    <path class="cls-4" d="M338.98,311.11s-.04-.05-.06-.08c0-.01-.02-.03-.03-.04,0,0,0-.01-.01-.02,0,0,0,0,0-.01,0,0,0,0,0,0"/>
    <path class="cls-4" d="M314.18,291.37c-.08-.03-.14-.09-.17-.17-.03-.08-.03-.16,0-.24"/>
    <path class="cls-4" d="M331.57,279.35c0-.13.09-.23.21-.27.06-.02.13-.02.19,0,.06.01.11.05.15.1"/>
    <path class="cls-4" d="M334.95,282.83c.04.05.06.11.06.18,0,.06-.01.13-.05.18-.04.05-.09.09-.15.12-.06.02-.13.02-.19,0"/>
    <path class="cls-4" d="M315.7,291.68c-.03.07-.09.12-.16.15-.08.03-.15.03-.23,0"/>
    <path class="cls-4" d="M331.24,277.68c0-.09.13-.13.19-.06"/>
    <path class="cls-4" d="M313.54,291.54c-.11-.04-.16-.16-.11-.27"/>
    <path class="cls-4" d="M315.87,292.28c-.04.1-.16.15-.26.11"/>
    <path class="cls-4" d="M336.48,284.45c.1.04.19-.07.12-.16"/>
    <path class="cls-4" d="M344.58,288.41c.5.73.94,1.48,1.33,2.26.19.39.37.78.54,1.19l.23.61c.03.1.07.2.11.31.02.05.03.1.05.16.01.05.03.1.05.16.56,1.76.85,3.56.85,5.41,0,.92-.07,1.84-.21,2.74-.07.45-.16.9-.26,1.34-.05.22-.11.44-.17.66-.03.11-.06.22-.1.33-.01.06-.03.11-.05.17-.02.06-.04.11-.05.17-.54,1.68-1.31,3.24-2.31,4.68"/>
    <path class="cls-4" d="M345.85,309.41c.11.07.16.2.13.32-.01.06-.04.12-.09.16-.04.04-.1.07-.17.08"/>
    <path class="cls-4" d="M341.15,310.6c-.07,0-.13,0-.19-.03-.05-.03-.1-.08-.13-.14-.03-.06-.04-.12-.02-.19,0-.06.04-.12.09-.17"/>
    <path class="cls-4" d="M345.15,308.47c.5-.75.94-1.54,1.31-2.35.19-.4.36-.82.52-1.24.08-.21.15-.42.22-.64l.1-.32c.02-.05.03-.11.05-.16.01-.05.03-.11.05-.16.53-1.83.77-3.69.73-5.59-.03-.95-.13-1.88-.3-2.81-.08-.46-.19-.92-.31-1.38-.06-.22-.12-.45-.19-.68-.03-.11-.07-.22-.11-.34-.02-.05-.04-.11-.06-.17-.02-.06-.04-.12-.06-.17-.6-1.7-1.44-3.29-2.52-4.74"/>
    <path class="cls-4" d="M331.78,315.8c.01.09,0,.17-.06.23s-.12.1-.21.11"/>
    <path class="cls-4" d="M312.68,306.75c-.12.06-.25.04-.35-.04-.05-.04-.08-.1-.09-.16-.01-.06,0-.12.01-.18"/>
    <path class="cls-4" d="M311.4,307.87c-.09.04-.18-.04-.14-.13"/>
    <path class="cls-4" d="M332.25,316.26c.01.12-.06.21-.18.23"/>
    <path class="cls-4" d="M331.73,313.87c.11-.01.21.06.22.18"/>
    <path class="cls-4" d="M314.44,299.92c.04-.1.19-.08.19.03"/>
    <path class="cls-4" d="M314.21,291.04h0s0,0-.01,0c0,0-.01,0-.02,0-.01,0-.03-.01-.04-.02-.03-.01-.06-.03-.09-.04"/>
    <path class="cls-4" d="M315.52,291.59s0,0,0,0c0,0,0,0,.01,0,0,0,.02,0,.02,0,.01,0,.03.01.05.02l.09.04"/>
    <path class="cls-4" d="M334.68,283.11s0,0,0,0c0,0,0,0,0,.01,0,0,0,.02,0,.02,0,.02,0,.03-.01.05,0,.03-.02.07-.03.1"/>
    <path class="cls-4" d="M334.79,282.96s0,0,0,0h.01s.01-.02.02-.03c0,0,.02-.02.04-.03.02-.02.05-.04.08-.06"/>
    <path class="cls-4" d="M331.95,279.31s0,0,.02-.02c0,0,.01,0,.02-.01.01,0,.02-.02.04-.03.03-.02.05-.04.08-.06"/>
    <line class="cls-4" x1="331.49" y1="280.86" x2="331.57" y2="279.35"/>
    <path class="cls-4" d="M331.49,280.86s.05.06.07.08c.01.01.02.02.03.03,0,0,0,0,0,.01t0,0s0,0,0,0c.05.05.07.08.07.08"/>
    <path class="cls-4" d="M344.4,288.53s0,0,0,0c0,0,0,0,.02-.01,0,0,0,0,.02-.01.01,0,.03-.02.04-.03l.09-.06"/>
    <path class="cls-4" d="M343.27,289.39s0,0,0,0h-.01s-.01.02-.02.03l-.04.03s-.05.04-.08.05"/>
    <line class="cls-4" x1="344.58" y1="308.59" x2="345.85" y2="309.41"/>
    <path class="cls-4" d="M344.58,308.59s-.08.01-.12.02c-.01,0-.03,0-.04,0,0,0,0,0-.01,0h-.01c-.07.01-.11.02-.11.02"/>
    <path class="cls-4" d="M331.48,315.94s0,.02,0,.03v.02s0,.03,0,.05c0,.03,0,.07,0,.1"/>
    <path class="cls-4" d="M331.58,315.83s.03,0,.05,0c.02,0,.03,0,.05,0,.03,0,.07,0,.1-.01"/>
    <path class="cls-4" d="M312.45,306.44s-.02,0-.02,0c0,0-.02,0-.02,0-.01,0-.03-.01-.05-.02-.03-.01-.06-.02-.09-.04"/>
    <path class="cls-4" d="M312.58,306.57s0,0,0,0c0,0,0,.01,0,.02s0,.01,0,.02c0,.01.01.03.02.04.01.03.03.06.05.09"/>
    <path class="cls-4" d="M314.03,306.06s.02-.08.03-.11c0-.01,0-.03.01-.04,0,0,0-.01,0-.02,0,0,0,0,0,0h0c.02-.07.03-.11.03-.11"/>
    <path class="cls-4" d="M314.21,291.04c.76-1.62,1.76-3.11,2.98-4.42"/>
    <path class="cls-4" d="M318.23,287.59c4.17-4.52,10.56-6.26,16.45-4.48"/>
    <path class="cls-4" d="M331.77,279.36s0,0,0-.02c0,0,0,0,0-.02,0,0,0-.02.01-.02"/>
    <path class="cls-4" d="M331.68,281.08c.03-.57.06-1.14.08-1.72"/>
    <path class="cls-4" d="M345.74,309.58s.02.01.03.03c0,0,.01.02.01.03,0,0,0,.01,0,.02,0,0,0,.02,0,.02,0,.05-.05.07-.08.08"/>
    <path class="cls-4" d="M344.29,308.65c.48.31.96.62,1.45.93"/>
    <path class="cls-4" d="M331.48,315.94c-4.19.35-8.37-.82-11.76-3.3"/>
    <path class="cls-4" d="M331.3,314.53c-3.83.3-7.64-.77-10.74-3.03"/>
    <path class="cls-4" d="M312.45,306.44c.53-1.31,1.11-2.73,1.74-4.29"/>
    <path class="cls-4" d="M312.58,306.57s-.02,0-.04.01c0,0-.02,0-.03,0,0,0-.01,0-.02,0,0,0-.01,0-.02-.01-.04-.03-.04-.08-.02-.11"/>
    <path class="cls-4" d="M314.12,305.78c-.51.26-1.02.53-1.53.79"/>
    <path class="cls-4" d="M315.52,291.59s-.08.07-.13.05"/>
    <path class="cls-4" d="M334.79,282.96s.03.08,0,.12-.07.05-.11.04"/>
    <path class="cls-4" d="M317.18,286.63c3.71-4.01,9.07-6.06,14.5-5.54"/>
    <path class="cls-4" d="M314.26,291.18c-.05-.02-.08-.09-.05-.14"/>
    <path class="cls-4" d="M344.4,288.53c4.21,6.06,4.16,14.11-.12,20.12"/>
    <path class="cls-4" d="M344.26,288.51s.12-.02.15.02"/>
    <path class="cls-4" d="M343.28,289.27h.01"/>
    <path class="cls-4" d="M341.12,310.4s-.08-.01-.1-.05-.01-.09.01-.12"/>
    <path class="cls-4" d="M331.58,315.83c0,.05-.04.11-.09.11"/>
    <line class="cls-4" x1="315.91" y1="276.14" x2="315.91" y2="276.14"/>
    <line class="cls-4" x1="311.25" y1="279.88" x2="311.25" y2="279.88"/>
    <path class="cls-4" d="M335.43,272.61h0"/>
    <path class="cls-4" d="M302.91,295.98c.08.16.2.28.36.36"/>
    <path class="cls-4" d="M343.63,291.57h0"/>
    <path class="cls-4" d="M303.04,295.06c.11-.12.23-.19.39-.23"/>
    <path class="cls-4" d="M330.09,271.65c.04-.09.09-.17.16-.24"/>
    <path class="cls-4" d="M303.04,295.06c-.37.39-.25,1.03.23,1.28"/>
    <path class="cls-4" d="M338.86,310.95c.41-.29.8-.6,1.18-.93.19-.17.37-.33.56-.51.09-.08.18-.17.26-.26.09-.09.18-.18.26-.27.7-.74,1.32-1.55,1.87-2.42.27-.43.52-.88.74-1.33.11-.23.22-.46.32-.7l.15-.35c.04-.12.09-.24.14-.36.35-.94.6-1.9.76-2.89.08-.49.14-.99.17-1.49.01-.25.02-.5.03-.75v-.37c0-.13,0-.25,0-.37-.04-1.02-.18-2.03-.41-3.02-.12-.5-.26-.98-.43-1.47-.08-.24-.18-.48-.27-.71-.04-.12-.1-.24-.15-.36-.05-.12-.11-.23-.16-.35-.42-.91-.94-1.77-1.53-2.58"/>
    <path class="cls-4" d="M331.42,277.63s.05-.04.08-.06l.04-.03s0,0,.02-.01h.01s0-.02,0-.01"/>
    <path class="cls-4" d="M330.25,271.41c.41-.45,1.16-.3,1.36.29"/>
    <line class="cls-4" x1="312.64" y1="278.04" x2="312.77" y2="278.46"/>
    <path class="cls-4" d="M339.08,311.5c-.13.02-.25-.04-.31-.16-.06-.11-.04-.26.05-.35"/>
    <path class="cls-4" d="M342.33,289.47c-.06-.08-.08-.17-.08-.26s.04-.19.11-.25"/>
    <path class="cls-4" d="M314.84,299.93c.05.5.12.99.21,1.49.05.24.1.49.16.73.03.12.06.24.09.36s.07.24.1.36c.29.98.68,1.92,1.16,2.82.24.45.5.89.78,1.31.14.21.29.42.44.62.08.1.16.2.23.3s.16.2.24.3c.64.77,1.34,1.48,2.12,2.11.38.32.79.61,1.2.89.21.14.42.27.63.39.11.06.22.13.33.19.11.06.21.12.33.18.9.48,1.85.86,2.82,1.15.49.15.98.26,1.49.36.25.05.5.09.75.12.12.02.25.03.37.05.13.01.26.02.38.04,1,.08,1.99.07,2.99-.04"/>
    <path class="cls-4" d="M343.27,289.39s-.02-.09,0-.13"/>
    <line class="cls-4" x1="585.37" y1="-155.21" x2="585.37" y2="164.22"/>
    <path class="cls-4" d="M585.37,164.22c0,.88-.09,1.75-.26,2.6s-.42,1.68-.76,2.49"/>
    <path class="cls-4" d="M75.71,169.31c-.34-.82-.59-1.65-.76-2.49-.17-.85-.25-1.71-.25-2.6"/>
    <line class="cls-4" x1="74.69" y1="164.22" x2="74.69" y2="-155.21"/>
    <path class="cls-4" d="M584.36,169.31c-2.06,4.93-6.87,8.14-12.21,8.14"/>
    <path class="cls-4" d="M87.91,177.45c-5.34,0-10.15-3.21-12.2-8.14"/>
    <line class="cls-4" x1="99.75" y1="432.35" x2="102.28" y2="432.22"/>
    <path class="cls-4" d="M82.42,433.81c0-12.95,5.15-25.37,14.3-34.53,9.16-9.16,21.58-14.3,34.53-14.3"/>
    <line class="cls-4" x1="83.44" y1="433.81" x2="83.44" y2="616.92"/>
    <line class="cls-4" x1="82.42" y1="616.92" x2="82.42" y2="433.81"/>
    <path class="cls-4" d="M131.25,385.99c-12.68,0-24.84,5.04-33.81,14-8.97,8.97-14.01,21.13-14.01,33.81"/>
    <path class="cls-4" d="M144.71,177.45c-.29-.33-.57-.67-.83-1.02"/>
    <line class="cls-4" x1="531.46" y1="177.45" x2="531.46" y2="176.43"/>
    <path class="cls-4" d="M523.14,177.45c-.29-.33-.57-.67-.83-1.02"/>
    <line class="cls-4" x1="131.67" y1="177.45" x2="131.67" y2="176.43"/>
    <line class="cls-4" x1="556.84" y1="177.45" x2="556.84" y2="176.43"/>
    <line class="cls-4" x1="162.79" y1="570.85" x2="161.16" y2="570.85"/>
    <line class="cls-4" x1="162.79" y1="579.84" x2="161.16" y2="579.84"/>
    <line class="cls-4" x1="99.71" y1="471.07" x2="100.12" y2="471.05"/>
    <line class="cls-4" x1="345.39" y1="300.28" x2="345.39" y2="302.49"/>
    <line class="cls-4" x1="345.39" y1="294.52" x2="345.39" y2="296.73"/>
    <line class="cls-4" x1="314.67" y1="299.95" x2="314.67" y2="299.69"/>
    <path class="cls-4" d="M343.34,288.44c.12.17.24.33.36.5"/>
    <path class="cls-4" d="M314.83,291.63c.02-.06.05-.12.08-.19"/>
    <path class="cls-4" d="M332.29,315.03l-.2.03"/>
    <path class="cls-4" d="M341.59,310.54c-.18.17-.35.33-.53.48"/>
    <path class="cls-4" d="M579.68,5.54c0,.09,0,.18,0,.26"/>
    <path class="cls-4" d="M579.68,107.27c0,.09,0,.18,0,.26"/>
    <line class="cls-4" x1="161.16" y1="578.12" x2="162.79" y2="578.12"/>
    <line class="cls-4" x1="149.97" y1="578.12" x2="150.48" y2="578.12"/>
    <line class="cls-4" x1="103.42" y1="426.45" x2="99.96" y2="429.9"/>
    <path class="cls-4" d="M168.29,176.43c-.26.35-.54.69-.83,1.02"/>
    <path class="cls-4" d="M150.04,171.75c.16.03.32.06.48.08"/>
    <path class="cls-4" d="M161.65,171.83c.16-.02.32-.04.48-.08"/>
    <path class="cls-4" d="M540.08,171.83c.16-.02.32-.04.48-.08"/>
    <line class="cls-4" x1="122.51" y1="566.11" x2="122.51" y2="566.25"/>
    <line class="cls-4" x1="128.61" y1="566.11" x2="128.61" y2="566.25"/>
    <line class="cls-4" x1="131.67" y1="171.83" x2="131.67" y2="171.75"/>
    <line class="cls-4" x1="131.67" y1="406.35" x2="131.67" y2="402.27"/>
    <line class="cls-4" x1="131.67" y1="566.25" x2="131.67" y2="566.11"/>
    <line class="cls-4" x1="556.84" y1="171.83" x2="556.84" y2="171.75"/>
    <line class="cls-4" x1="558.56" y1="176.43" x2="558.56" y2="177.45"/>
    <line class="cls-4" x1="558.56" y1="171.75" x2="558.56" y2="171.83"/>
    <line class="cls-4" x1="150.48" y1="570.85" x2="149.97" y2="570.85"/>
    <line class="cls-4" x1="150.48" y1="579.84" x2="149.97" y2="579.84"/>
    <path class="cls-4" d="M161.16,591.48c.51-.3,1.04-.5,1.63-.61"/>
    <path class="cls-4" d="M546.72,176.43c-.26.35-.54.69-.83,1.02"/>
    <line class="cls-4" x1="549.57" y1="176.43" x2="549.57" y2="177.45"/>
    <line class="cls-4" x1="549.57" y1="171.75" x2="549.57" y2="171.83"/>
    <line class="cls-4" x1="642.76" y1="-395.09" x2="642.76" y2="1440.92"/>
    <line class="cls-4" x1="652.93" y1="1440.92" x2="652.93" y2="-395.09"/>
    <line class="cls-4" x1="15.29" y1="-395.09" x2="15.29" y2="1440.92"/>
    <path class="cls-4" d="M572.15,174.39H87.91"/>
    <line class="cls-4" x1="111.31" y1="452.17" x2="111.31" y2="566.11"/>
    <line class="cls-4" x1="550.97" y1="142.82" x2="109.09" y2="142.82"/>
    <line class="cls-4" x1="579.27" y1="164.22" x2="579.27" y2="-155.21"/>
    <path class="cls-4" d="M182.12,279.96c4.92,1.22,9.16,4.34,11.78,8.69,2.62,4.34,3.41,9.55,2.19,14.47-1.22,4.92-4.34,9.16-8.69,11.78s-9.55,3.4-14.47,2.19"/>
    <path class="cls-4" d="M313.46,291.73c.57.23,1.15.47,1.73.71"/>
    <path class="cls-4" d="M344.18,287.54c-.49.38-.98.76-1.48,1.14"/>
    <path class="cls-4" d="M339.51,311.44c.72-.1,1.42-.19,2.08-.29.33-.04.66-.09.97-.13.16-.02.32-.04.47-.06.08,0,.16-.02.23-.03.03,0,.07,0,.11-.01.02,0,.04,0,.05,0,.02,0,.04,0,.06,0,1.4-.19,2.73-.37,3.96-.55"/>
    <path class="cls-4" d="M331.95,279.31c.86,1.11,1.81,2.33,2.83,3.65"/>
    <path class="cls-4" d="M343.27,289.39c2.18,3.17,3.16,7.01,2.74,10.83-.41,3.82-2.18,7.37-4.98,10"/>
    <path class="cls-4" d="M345.7,309.76c-1.4.19-2.92.4-4.58.63"/>
    <path class="cls-4" d="M314.38,302.17c.88,3.74,3.07,7.05,6.18,9.32"/>
    <path class="cls-4" d="M331.58,315.83c-.06-.4-.11-.81-.17-1.21"/>
    <line class="cls-4" x1="641.73" y1="-390.61" x2="641.73" y2="1437.26"/>
    <line class="cls-4" x1="18.33" y1="1437.26" x2="18.33" y2="-390.61"/>
    <path class="cls-4" d="M425.39,283.51c-5.36-1.33-11.02.3-14.85,4.28-3.83,3.97-5.25,9.69-3.73,15"/>
    <path class="cls-4" d="M436.53,294.25c-1.53-5.32-5.78-9.41-11.14-10.74"/>
    <path class="cls-4" d="M418.04,313.4c3.94.94,8.09.28,11.54-1.84,3.45-2.11,5.93-5.51,6.89-9.44s.32-8.08-1.78-11.55c-2.1-3.46-5.48-5.96-9.41-6.93"/>
    <path class="cls-4" d="M425.27,283.64l-.13-.03"/>
    <path class="cls-4" d="M434.38,302.91c1.24-3.59.91-7.53-.91-10.87-1.81-3.34-4.94-5.75-8.63-6.67"/>
    <path class="cls-4" d="M424.84,285.37c-3.28-.81-6.75-.37-9.72,1.25-2.97,1.62-5.23,4.29-6.33,7.49"/>
    <path class="cls-4" d="M426.27,279.96c4.92,1.22,9.16,4.34,11.78,8.69,2.62,4.34,3.4,9.55,2.19,14.47-1.22,4.92-4.34,9.16-8.69,11.78-4.34,2.62-9.55,3.4-14.47,2.19"/>
    <path class="cls-4" d="M427,277c5.71,1.41,10.63,5.04,13.66,10.07,3.04,5.04,3.95,11.07,2.54,16.79-1.41,5.71-5.04,10.62-10.08,13.66-5.04,3.03-11.07,3.95-16.78,2.53"/>
    <path class="cls-4" d="M417.96,313.53c-5.37-1.33-9.61-5.43-11.14-10.74"/>
    <path class="cls-4" d="M418.04,313.4l-.13-.03"/>
    <path class="cls-4" d="M418.31,311.74c-3.51-.87-6.53-3.1-8.4-6.19-1.87-3.09-2.43-6.8-1.56-10.31.87-3.51,3.1-6.53,6.19-8.4,3.1-1.87,6.81-2.43,10.32-1.56"/>
    <path class="cls-4" d="M434.38,302.91c-1.1,3.2-3.36,5.87-6.33,7.48-2.97,1.62-6.44,2.06-9.72,1.25"/>
    <path class="cls-4" d="M408.79,294.1c-1.24,3.59-.91,7.53.91,10.87,1.81,3.34,4.94,5.75,8.63,6.67"/>
    <path class="cls-4" d="M424.87,285.27c3.51.87,6.53,3.1,8.4,6.19,1.87,3.1,2.43,6.81,1.56,10.32-.87,3.51-3.1,6.53-6.19,8.4-3.09,1.87-6.8,2.43-10.31,1.56"/>
    <path class="cls-4" d="M425.14,283.61c-3.94-.94-8.09-.28-11.54,1.83-3.45,2.11-5.93,5.51-6.89,9.45-.95,3.93-.32,8.08,1.78,11.55,2.1,3.46,5.48,5.96,9.41,6.93"/>
    <path class="cls-4" d="M436.53,294.25c1.52,5.3.11,11.02-3.73,15-3.83,3.98-9.49,5.61-14.85,4.28"/>
    <path class="cls-4" d="M439.27,293.46c.17.59.31,1.19.42,1.8.11.61.19,1.19.23,1.78.05.59.07,1.18.06,1.78,0,.59-.04,1.14-.1,1.69-.12,1.11-.35,2.21-.67,3.28-.16.54-.35,1.06-.56,1.58-.05.13-.1.25-.16.39s-.12.27-.18.41c-.13.27-.25.54-.39.8-.27.52-.57,1.03-.9,1.53-.32.5-.69,1.01-1.07,1.49-.38.48-.79.94-1.23,1.38-.43.44-.91.87-1.39,1.27-.97.8-2.03,1.51-3.14,2.09-.56.29-1.12.56-1.71.79-.59.23-1.17.43-1.76.6-.59.17-1.19.31-1.8.42-.61.11-1.19.19-1.78.23-.59.04-1.18.06-1.77.05-.59,0-1.14-.04-1.69-.1-1.11-.12-2.21-.35-3.28-.67-.54-.16-1.06-.35-1.58-.56-.13-.05-.25-.1-.39-.16s-.27-.12-.4-.18c-.27-.12-.54-.25-.8-.39-.53-.27-1.04-.57-1.53-.89-.5-.33-1-.69-1.49-1.08s-.94-.79-1.38-1.23c-.44-.43-.87-.9-1.27-1.39-.8-.97-1.5-2.03-2.09-3.14-.29-.56-.56-1.13-.79-1.71s-.43-1.17-.6-1.76"/>
    <path class="cls-4" d="M404.08,303.58c-.17-.59-.31-1.19-.42-1.8-.11-.61-.19-1.19-.23-1.78s-.07-1.18-.06-1.77.04-1.14.11-1.69c.12-1.11.34-2.21.66-3.28.16-.54.35-1.06.56-1.58.05-.13.1-.26.16-.39s.12-.27.19-.4c.12-.27.25-.54.39-.8.27-.52.57-1.03.89-1.53.32-.5.69-1,1.08-1.49.38-.48.79-.94,1.23-1.38.43-.44.9-.87,1.38-1.28.97-.8,2.03-1.5,3.14-2.09.56-.29,1.12-.56,1.71-.79.58-.23,1.16-.43,1.76-.6.59-.17,1.19-.31,1.8-.42.61-.11,1.19-.19,1.78-.23s1.18-.07,1.77-.06c.59,0,1.14.05,1.69.11,1.11.12,2.21.35,3.28.67.53.16,1.06.34,1.58.55.13.05.25.11.39.17s.27.12.41.18c.27.12.53.25.79.39.53.27,1.04.57,1.53.89s1.01.69,1.49,1.08c.48.38.94.79,1.38,1.23s.87.9,1.27,1.39c.8.97,1.5,2.03,2.09,3.14.29.56.56,1.13.79,1.71.24.58.43,1.16.6,1.76"/>
    <path class="cls-4" d="M426.27,279.96c-4.92-1.22-10.13-.43-14.47,2.19-4.34,2.62-7.47,6.86-8.69,11.78-1.22,4.92-.43,10.13,2.19,14.47,2.62,4.34,6.85,7.47,11.78,8.69"/>
    <path class="cls-4" d="M427,277c-5.71-1.42-11.75-.51-16.78,2.53-5.04,3.04-8.66,7.95-10.08,13.66-1.41,5.71-.5,11.75,2.54,16.78,3.04,5.04,7.95,8.66,13.66,10.08"/>
    <path class="cls-4" d="M486.34,283.49c-5.36-1.32-11.02.31-14.85,4.28-3.83,3.98-5.25,9.7-3.73,15"/>
    <path class="cls-4" d="M497.49,294.23c-1.53-5.31-5.78-9.41-11.14-10.74"/>
    <path class="cls-4" d="M478.99,313.38c3.94.94,8.09.28,11.54-1.84,3.45-2.11,5.93-5.51,6.89-9.44.95-3.93.32-8.09-1.78-11.55-2.1-3.46-5.48-5.95-9.41-6.93"/>
    <path class="cls-4" d="M486.22,283.62s-.09-.02-.13-.03"/>
    <path class="cls-4" d="M495.33,302.89c1.24-3.59.91-7.53-.91-10.87-1.81-3.34-4.94-5.76-8.63-6.67"/>
    <path class="cls-4" d="M485.79,285.35c-3.28-.81-6.75-.37-9.72,1.25-2.97,1.62-5.23,4.29-6.33,7.48"/>
    <path class="cls-4" d="M487.23,279.94c4.92,1.22,9.16,4.34,11.78,8.69,2.62,4.34,3.4,9.55,2.19,14.47-1.22,4.92-4.34,9.16-8.69,11.78-4.34,2.62-9.55,3.4-14.47,2.19"/>
    <path class="cls-4" d="M487.96,276.97c5.71,1.42,10.63,5.04,13.66,10.08,3.04,5.04,3.95,11.07,2.54,16.78-1.41,5.71-5.04,10.63-10.08,13.66-5.04,3.04-11.07,3.95-16.78,2.54"/>
    <path class="cls-4" d="M478.91,313.51c-5.37-1.33-9.61-5.43-11.14-10.74"/>
    <path class="cls-4" d="M478.99,313.38s-.09-.02-.13-.03"/>
    <path class="cls-4" d="M479.26,311.72c-3.51-.87-6.53-3.1-8.4-6.19-1.87-3.1-2.43-6.81-1.56-10.31.87-3.51,3.1-6.53,6.19-8.4,3.1-1.87,6.81-2.43,10.32-1.56"/>
    <path class="cls-4" d="M495.14,302.82c-1.15,3.34-3.58,6.09-6.75,7.64-3.18,1.55-6.84,1.77-10.18.62-3.34-1.15-6.09-3.58-7.64-6.76-1.55-3.18-1.77-6.84-.62-10.18"/>
    <path class="cls-4" d="M495.14,302.82s.07.02.1.03c.02,0,.03,0,.05.01,0,0,.01,0,.02,0,0,0,.01,0,.02,0,0,0,0,0,0,0"/>
    <path class="cls-4" d="M469.75,294.08s0,0,0,0c0,0,.01,0,.02,0,0,0,.01,0,.02,0,.01,0,.03,0,.05.01.03.01.06.02.09.03"/>
    <path class="cls-4" d="M485.82,285.25c3.51.87,6.53,3.09,8.4,6.19,1.87,3.1,2.43,6.81,1.56,10.32-.87,3.51-3.1,6.53-6.19,8.4-3.09,1.87-6.8,2.43-10.31,1.56"/>
    <path class="cls-4" d="M486.09,283.59c-3.94-.94-8.09-.28-11.54,1.84-3.45,2.11-5.93,5.51-6.89,9.44-.95,3.93-.32,8.09,1.78,11.55,2.1,3.46,5.48,5.95,9.41,6.93"/>
    <path class="cls-4" d="M497.49,294.23c1.52,5.31.11,11.03-3.73,15-3.83,3.97-9.49,5.61-14.85,4.28"/>
    <path class="cls-4" d="M500.22,293.44c.17.59.31,1.19.42,1.8.11.61.19,1.19.23,1.78.05.59.07,1.18.06,1.77,0,.59-.04,1.14-.1,1.69-.12,1.11-.35,2.21-.67,3.28-.16.53-.35,1.06-.56,1.58-.05.13-.1.25-.16.39s-.12.27-.18.41c-.13.27-.25.53-.39.79-.27.53-.57,1.04-.9,1.53-.32.5-.69,1.01-1.07,1.49-.38.48-.79.94-1.23,1.38-.43.44-.91.87-1.39,1.27-.97.8-2.03,1.5-3.14,2.09-.56.29-1.12.56-1.71.79-.59.23-1.17.43-1.76.6-.59.17-1.19.31-1.8.42-.61.11-1.19.18-1.78.23s-1.18.07-1.77.06-1.14-.04-1.69-.11c-1.11-.12-2.21-.34-3.28-.66-.54-.16-1.06-.35-1.58-.56-.13-.05-.25-.1-.39-.16s-.27-.12-.4-.18c-.27-.13-.54-.25-.8-.39-.53-.27-1.04-.57-1.53-.9-.5-.32-1-.69-1.49-1.07s-.94-.79-1.38-1.23c-.44-.43-.87-.91-1.27-1.39-.8-.97-1.5-2.03-2.09-3.14-.29-.56-.56-1.12-.79-1.71-.23-.59-.43-1.17-.6-1.76"/>
    <path class="cls-4" d="M465.03,303.56c-.17-.59-.31-1.19-.42-1.8-.11-.61-.19-1.19-.23-1.78-.05-.59-.07-1.18-.06-1.77s.04-1.14.11-1.69c.12-1.11.34-2.21.66-3.28.16-.53.35-1.06.56-1.58.05-.13.1-.25.16-.39s.12-.27.19-.4c.12-.27.25-.54.39-.8.27-.53.57-1.04.89-1.53s.69-1.01,1.08-1.49c.38-.48.79-.94,1.23-1.38.43-.44.9-.87,1.38-1.27.97-.8,2.03-1.5,3.14-2.09.56-.29,1.12-.56,1.71-.79.58-.23,1.16-.43,1.76-.6.59-.17,1.19-.31,1.8-.42.61-.11,1.19-.19,1.78-.23s1.18-.07,1.77-.06c.59,0,1.14.04,1.69.11,1.11.12,2.21.34,3.28.66.53.16,1.06.35,1.58.56.13.05.25.1.39.16s.27.12.41.18c.27.13.53.25.79.39.53.27,1.04.57,1.53.9.5.32,1.01.69,1.49,1.07.48.39.94.8,1.38,1.23s.87.9,1.27,1.38c.8.97,1.5,2.03,2.09,3.14.29.56.56,1.12.79,1.71.24.58.43,1.16.6,1.76"/>
    <path class="cls-4" d="M487.23,279.94c-4.92-1.22-10.13-.43-14.47,2.18-4.34,2.62-7.47,6.86-8.69,11.78-1.22,4.92-.43,10.13,2.19,14.47,2.62,4.34,6.85,7.47,11.78,8.69"/>
    <path class="cls-4" d="M487.96,276.97c-5.71-1.41-11.75-.5-16.78,2.54-5.04,3.03-8.66,7.95-10.08,13.66-1.41,5.71-.5,11.75,2.54,16.78,3.03,5.04,7.95,8.66,13.66,10.08"/>
  </g>
  <g id="Make2D::可见线::正切线">
    <path class="cls-4" d="M500.22,293.44c-.91.26-1.82.52-2.74.78"/>
    <path class="cls-4" d="M467.77,302.77c-.91.26-1.83.53-2.74.78"/>
    <path class="cls-4" d="M479.08,312.98c-3.84-.92-7.16-3.32-9.24-6.69-2.07-3.37-2.72-7.42-1.8-11.26.92-3.84,3.32-7.17,6.69-9.24,3.37-2.07,7.42-2.72,11.26-1.8"/>
    <path class="cls-4" d="M485.99,283.99c3.85.92,7.17,3.32,9.24,6.69,2.07,3.37,2.72,7.42,1.81,11.26-.92,3.85-3.33,7.17-6.69,9.24-3.37,2.07-7.42,2.72-11.26,1.8"/>
    <path class="cls-4" d="M469.94,294.14c1.15-3.34,3.58-6.09,6.76-7.64,3.18-1.55,6.84-1.77,10.18-.62,3.34,1.15,6.09,3.58,7.64,6.76,1.55,3.18,1.78,6.84.62,10.18"/>
    <path class="cls-4" d="M486.09,283.59s0,0,0,.01c0,0,0,.02,0,.04,0,.01,0,.03,0,.05,0,.03-.01.06-.02.1-.01.07-.03.13-.05.2"/>
    <path class="cls-4" d="M479.08,312.98c-.01.07-.03.14-.04.2,0,.03-.01.07-.02.1,0,.02,0,.03-.01.05,0,0,0,.02,0,.03,0,0,0,0,0,.01"/>
    <path class="cls-4" d="M439.27,293.46c-.91.26-1.82.53-2.74.79"/>
    <path class="cls-4" d="M406.81,302.79c-.91.26-1.83.53-2.74.79"/>
    <path class="cls-4" d="M418.13,313c-3.84-.92-7.16-3.32-9.24-6.69-2.07-3.37-2.72-7.42-1.8-11.26.92-3.85,3.32-7.17,6.69-9.24,3.37-2.07,7.42-2.72,11.26-1.8"/>
    <path class="cls-4" d="M425.04,284.01c3.85.92,7.17,3.32,9.24,6.69,2.07,3.37,2.72,7.42,1.81,11.26-.92,3.85-3.33,7.17-6.69,9.24-3.37,2.07-7.42,2.72-11.26,1.8"/>
    <path class="cls-4" d="M408.79,294.1s0,0,0,0c0,0,.01,0,.02,0,0,0,.01,0,.02,0,.01,0,.03,0,.05.02.03,0,.06.02.09.03"/>
    <path class="cls-4" d="M434.19,302.84s.06.02.09.03c.02,0,.03.01.05.02,0,0,.01,0,.02,0,0,0,.01,0,.02,0,0,0,0,0,0,0"/>
    <path class="cls-4" d="M434.19,302.84c-1.15,3.34-3.58,6.09-6.76,7.64-3.18,1.55-6.84,1.78-10.18.62-3.34-1.15-6.09-3.58-7.64-6.75-1.55-3.18-1.77-6.84-.62-10.18"/>
    <path class="cls-4" d="M408.98,294.16c1.15-3.34,3.58-6.09,6.76-7.64,3.18-1.55,6.84-1.78,10.18-.63,3.34,1.15,6.09,3.58,7.64,6.76,1.55,3.18,1.78,6.84.63,10.18"/>
    <path class="cls-4" d="M425.14,283.61h0s0,.03,0,.05c0,.01,0,.03,0,.05,0,.03-.01.07-.02.1-.01.07-.03.14-.05.2"/>
    <path class="cls-4" d="M418.13,313c-.03.13-.06.26-.09.39"/>
    <line class="cls-4" x1="75.71" y1="169.31" x2="75.71" y2="1443.37"/>
    <line class="cls-4" x1="584.36" y1="169.31" x2="584.36" y2="1443.37"/>
    <line class="cls-4" x1="331.61" y1="314.58" x2="331.78" y2="315.8"/>
    <line class="cls-4" x1="332.11" y1="279.18" x2="334.95" y2="282.83"/>
    <path class="cls-4" d="M331.73,313.87c-.51.05-1.01.09-1.51.09-.25,0-.51,0-.76,0-.13,0-.25,0-.38-.02s-.25-.01-.38-.03c-1.03-.09-2.05-.28-3.04-.57-.5-.15-.98-.32-1.46-.51-.24-.1-.47-.2-.71-.31-.12-.06-.23-.11-.35-.17s-.23-.12-.35-.18c-.9-.48-1.74-1.04-2.53-1.68-.39-.32-.77-.66-1.12-1.02-.18-.18-.36-.36-.53-.55-.09-.09-.17-.19-.25-.28l-.25-.29c-.66-.8-1.23-1.66-1.72-2.57-.24-.45-.47-.92-.66-1.4-.1-.24-.19-.48-.27-.72-.04-.12-.09-.24-.13-.37-.04-.12-.08-.25-.12-.37-.29-.97-.48-1.96-.58-2.98"/>
    <path class="cls-4" d="M314.58,302.13c.21.89.49,1.75.84,2.59.18.42.37.82.58,1.23.11.2.22.39.34.59l.18.29s.06.1.09.15c.03.05.06.09.09.15.26.4.54.79.83,1.17.15.19.3.37.46.56.16.18.32.36.48.54.67.71,1.41,1.36,2.2,1.94.39.29.8.56,1.22.81.21.13.42.24.64.36s.44.23.65.33c.44.21.88.39,1.33.56.22.09.45.17.68.24.11.03.23.07.34.1.12.03.24.07.35.1.45.12.9.22,1.36.3.23.04.46.08.69.11.12.01.23.03.35.04.06,0,.12,0,.18.02.06,0,.12,0,.18.01.88.08,1.77.08,2.65,0"/>
    <line class="cls-4" x1="336.6" y1="284.29" x2="331.42" y2="277.63"/>
    <line class="cls-4" x1="313.54" y1="291.54" x2="315.61" y2="292.39"/>
    <path class="cls-4" d="M315.19,292.44c-.51,1.23-.85,2.51-1.04,3.83-.19,1.31-.2,2.64-.06,3.96"/>
    <path class="cls-4" d="M320.56,311.49c-.28.38-.56.76-.84,1.15"/>
    <path class="cls-4" d="M339.48,285.55c1.6-2.2,3.19-4.38,4.75-6.52"/>
    <line class="cls-4" x1="182.85" y1="277" x2="182.12" y2="279.96"/>
    <line class="cls-4" x1="172.92" y1="317.09" x2="172.19" y2="320.05"/>
    <line class="cls-4" x1="108.26" y1="615.9" x2="108.26" y2="434.82"/>
    <line class="cls-4" x1="101.14" y1="607.46" x2="101.14" y2="440.62"/>
    <line class="cls-4" x1="243.81" y1="276.97" x2="243.08" y2="279.94"/>
    <line class="cls-4" x1="233.88" y1="317.07" x2="233.15" y2="320.03"/>
    <path class="cls-4" d="M149.97,452.17s0,0,0,0h-5.08"/>
    <line class="cls-4" x1="146.31" y1="566.25" x2="146.31" y2="598.03"/>
    <line class="cls-4" x1="651.14" y1="1440.92" x2="651.14" y2="-395.09"/>
    <line class="cls-4" x1="655.87" y1="-395.09" x2="655.87" y2="1440.92"/>
    <line class="cls-4" x1="12.47" y1="1440.92" x2="12.47" y2="-395.09"/>
    <line class="cls-4" x1="136.21" y1="171.75" x2="136.21" y2="171.83"/>
    <line class="cls-4" x1="136.21" y1="176.43" x2="136.21" y2="177.45"/>
    <line class="cls-4" x1="136.21" y1="566.11" x2="136.21" y2="566.25"/>
    <line class="cls-4" x1="19.67" y1="-390.61" x2="19.67" y2="1437.26"/>
    <path class="cls-4" d="M99.71,433.81s0,0,0,0h-3.04"/>
    <line class="cls-4" x1="136.21" y1="402.66" x2="136.21" y2="406.89"/>
    <line class="cls-4" x1="640.39" y1="1437.26" x2="640.39" y2="-390.61"/>
    <path class="cls-4" d="M96.67,433.81c0-9.17,3.64-17.97,10.13-24.46,6.49-6.49,15.28-10.13,24.46-10.13"/>
    <line class="cls-4" x1="96.67" y1="616.92" x2="96.67" y2="433.81"/>
    <path class="cls-4" d="M131.25,399.21v3.03s0,.03,0,.02"/>
    <path class="cls-4" d="M162.79,433.81s.01,0,.02,0h3.03"/>
    <path class="cls-4" d="M344.23,279.03c.23-.32.46-.63.69-.95.12-.16.23-.31.35-.47.06-.08.12-.16.17-.24.04-.06.09-.12.13-.18.01,0,.02-.02.03-.04,0,0,0,0,0-.01"/>
    <path class="cls-4" d="M314.44,319.87s0,0,0,0c0,0,0,0,0,0,.01-.01.02-.03.03-.04.04-.06.09-.12.13-.18.06-.08.12-.16.17-.23.12-.16.23-.32.35-.48.23-.31.46-.63.69-.94"/>
    <line class="cls-4" x1="314.03" y1="306.06" x2="312.68" y2="306.75"/>
    <line class="cls-4" x1="312.26" y1="306.36" x2="314" y2="302.08"/>
    <path class="cls-4" d="M314.19,302.16s0,0,0,0c0,0,0,0-.01,0,0,0-.01,0-.02,0-.01,0-.03,0-.05-.02-.03,0-.06-.02-.09-.03"/>
    <path class="cls-4" d="M314.38,302.17s0,0,0,0,0,0,.01,0c0,0,.02,0,.02,0,.02,0,.03,0,.05,0,.03,0,.06-.02.1-.02"/>
    <path class="cls-4" d="M331.3,314.53s0,0,0,0c0,0,0-.01,0-.02v-.02s0-.03,0-.05c0-.03,0-.07,0-.1"/>
    <path class="cls-4" d="M331.41,314.61s0,0,0,0c0,0,.01,0,.02,0h.02s.03,0,.05,0c.03,0,.07,0,.1-.01"/>
    <path class="cls-4" d="M345.74,309.58s0,0,0,0c0,0,0,0,0-.01,0,0,0-.01.01-.02,0-.01.02-.03.02-.04l.06-.09"/>
    <path class="cls-4" d="M345.7,309.76h0v.03s0,.01,0,.02c0,.01,0,.03,0,.05,0,.03,0,.07,0,.1"/>
    <path class="cls-4" d="M341.12,310.4s0,0,0,0c0,0,0,.01,0,.02v.02s0,.03,0,.05c0,.03,0,.06.01.1"/>
    <path class="cls-4" d="M341.03,310.22s0,0,0,0h-.01s0-.02-.01-.03c-.01,0-.02-.02-.03-.03l-.07-.07"/>
    <path class="cls-4" d="M313.84,306.61c.4.81.87,1.58,1.38,2.31.26.37.53.73.81,1.07.15.18.29.35.44.51.08.09.15.17.23.25.04.04.07.08.11.12.04.04.08.08.12.13,1.31,1.37,2.81,2.51,4.48,3.42.83.45,1.69.83,2.58,1.15.44.16.89.3,1.34.42.23.06.46.12.69.17l.35.07c.05,0,.11.02.17.03.06.01.12.02.18.03,1.78.33,3.57.39,5.37.19"/>
    <path class="cls-4" d="M331.28,314.32c.08,0,.16.02.22.07.06.05.1.12.11.19"/>
    <path class="cls-4" d="M314,302.08c.02-.06.07-.11.12-.15s.12-.05.19-.04.13.03.18.07c.05.04.08.09.1.16"/>
    <path class="cls-4" d="M331.5,316.14c-.88.07-1.75.08-2.62.02-.43-.03-.87-.07-1.3-.13-.21-.03-.43-.06-.65-.1-.11-.02-.21-.04-.32-.06l-.16-.03c-.05-.01-.11-.02-.17-.03-1.8-.39-3.51-1.05-5.1-1.97-.8-.46-1.55-.98-2.26-1.55-.36-.29-.7-.59-1.03-.9-.17-.16-.33-.32-.49-.48-.08-.08-.16-.17-.24-.25-.04-.04-.08-.08-.12-.13s-.08-.09-.12-.13c-1.18-1.3-2.15-2.75-2.9-4.34"/>
    <path class="cls-4" d="M315.87,292.28c.2-.46.43-.92.68-1.36.12-.22.25-.43.38-.65l.2-.32c.07-.11.14-.21.21-.31.59-.85,1.27-1.63,2.02-2.35.37-.36.76-.69,1.17-1.01.2-.16.41-.31.62-.46.11-.08.21-.15.32-.22s.22-.14.33-.21c.86-.54,1.77-.99,2.72-1.35.47-.18.95-.34,1.44-.47.24-.07.49-.13.74-.18.12-.03.25-.05.37-.08.13-.02.25-.05.37-.07,1.02-.17,2.05-.24,3.09-.2.52.01,1.03.06,1.54.13.25.03.51.07.76.12l.38.07c.13.03.25.06.37.09.99.23,1.94.56,2.87.99"/>
    <path class="cls-4" d="M331.1,280.43c-.9-.05-1.8-.04-2.69.04-.44.04-.89.1-1.33.17-.22.04-.44.08-.66.12-.11.02-.22.05-.33.07-.06,0-.11.02-.17.04-.05,0-.11.02-.17.04-1.85.45-3.58,1.17-5.2,2.16-.81.5-1.57,1.05-2.28,1.66-.36.31-.7.62-1.04.96-.17.17-.33.34-.49.51-.08.09-.16.18-.24.26-.04.04-.08.09-.12.14s-.08.09-.12.13c-1.17,1.38-2.12,2.89-2.85,4.55"/>
    <path class="cls-4" d="M334.62,283.31c-.88-.26-1.77-.45-2.66-.56-.45-.05-.9-.09-1.35-.11-.22,0-.45,0-.68,0-.11,0-.23,0-.34,0-.06,0-.12,0-.17,0-.06,0-.11,0-.18,0-.48.02-.95.07-1.43.14-.24.03-.47.07-.71.12-.23.04-.47.09-.71.15-.95.23-1.88.54-2.78.94-.45.2-.89.41-1.31.65-.21.12-.42.24-.63.37-.2.13-.41.27-.61.4-.39.27-.78.56-1.15.87-.19.16-.37.31-.55.47-.09.08-.18.16-.26.24s-.18.17-.26.25c-.33.33-.64.67-.94,1.03-.15.18-.3.36-.44.54-.07.09-.14.19-.21.28-.03.05-.07.1-.1.14l-.1.15c-.51.73-.95,1.49-1.34,2.29"/>
    <path class="cls-4" d="M314.02,290.96c.37-.79.8-1.55,1.29-2.28.24-.36.5-.72.76-1.06.14-.18.27-.34.41-.51.07-.08.14-.17.21-.25.04-.04.07-.08.11-.12.04-.04.07-.08.11-.13,1.24-1.36,2.66-2.51,4.26-3.43.8-.46,1.63-.86,2.48-1.19.42-.17.86-.31,1.3-.44.22-.06.44-.13.66-.19.11-.02.22-.05.33-.08.06,0,.11-.02.17-.04.05,0,.12-.02.17-.03,1.72-.37,3.45-.49,5.21-.34"/>
    <line class="cls-4" x1="311.4" y1="307.87" x2="313.84" y2="306.61"/>
    <path class="cls-4" d="M339.48,285.55c-.93-.68-1.92-1.25-2.98-1.72"/>
    <path class="cls-4" d="M342.7,288.68c-.46-.6-.96-1.16-1.5-1.68-.54-.52-1.12-1.01-1.72-1.45"/>
    <path class="cls-4" d="M332.2,314.39c1.32-.18,2.6-.52,3.84-1.02,1.23-.5,2.39-1.14,3.47-1.93"/>
    <path class="cls-4" d="M346.07,277.16c-.03-.06-.07-.12-.11-.18-.01-.03-.03-.06-.05-.09,0-.01-.01-.03-.02-.04,0,0-.01-.02-.02-.03t0,0s0,0,0,0"/>
    <path class="cls-4" d="M347.7,278.49c-.03-.06-.06-.12-.09-.19-.01-.03-.03-.06-.05-.09,0-.01-.01-.03-.02-.04,0-.01-.01-.02-.02-.04h0"/>
    <path class="cls-4" d="M303.34,298.07c-.02.06-.05.12-.08.19-.01.03-.02.06-.04.09,0,.02-.01.03-.02.05,0,0,0,.02-.01.03,0,0,0,0,0,0h0"/>
    <path class="cls-4" d="M313.03,277.92c-.07.02-.13.04-.19.06-.03.01-.06.02-.1.03-.01,0-.03,0-.05.01,0,0-.02,0-.04.01h0s0,0,0,0"/>
    <path class="cls-4" d="M322.2,272.98h-.2s-.07-.02-.1-.02c-.01,0-.03,0-.05,0s-.02,0-.04,0h0s0,0,0,0"/>
    <path class="cls-4" d="M324.22,272.44c-.07,0-.14-.02-.2-.03h-.1s-.03-.02-.05-.02c-.01,0-.02,0-.04,0h-.01"/>
    <path class="cls-4" d="M326.28,272.07c-.06-.01-.13-.03-.19-.05-.03,0-.07-.01-.1-.02-.02,0-.03,0-.05,0,0,0-.02,0-.03,0,0,0,0,0,0,0,0,0,0,0,0,0"/>
    <path class="cls-4" d="M328.37,271.86c-.07-.02-.13-.04-.19-.06-.03,0-.06-.02-.1-.03-.01,0-.03,0-.05-.02,0,0-.02,0-.03,0,0,0,0,0,0,0,0,0,0,0,0,0"/>
    <path class="cls-4" d="M332.56,271.92c-.06-.03-.12-.06-.18-.09-.03-.01-.06-.03-.09-.04-.01,0-.03-.01-.04-.02-.01,0-.02-.01-.03-.02t0,0s0,0,0,0"/>
    <path class="cls-4" d="M356.09,292.69c0-.06.02-.13.03-.2,0-.03.01-.07.02-.1,0-.01,0-.03,0-.05,0-.01,0-.02,0-.04h0"/>
    <path class="cls-4" d="M356.47,294.76c.01-.07.03-.13.05-.2,0-.03.01-.06.02-.1,0-.02,0-.03,0-.05s0-.02,0-.04h0s0-.01,0,0"/>
    <path class="cls-4" d="M356.61,301.03c.03-.06.06-.12.09-.18.02-.03.03-.06.05-.09,0-.01.01-.03.02-.04,0,0,0-.02.01-.03t0,0h0"/>
    <path class="cls-4" d="M351.37,314.55c.06-.03.12-.07.17-.1.03-.02.06-.04.09-.05l.04-.03s.02-.01.03-.02c0,0,0,0,0,0,0,0,0,0,0,0"/>
    <path class="cls-4" d="M347.04,319.08c.06-.02.13-.04.19-.06.03,0,.07-.02.1-.03.02,0,.03,0,.05-.01s.02,0,.04-.01h0s0,0,0,0"/>
    <path class="cls-4" d="M335.84,324.56c.07,0,.14.02.2.03.03,0,.06,0,.1.01.02,0,.03,0,.05,0,0,0,.02,0,.03,0h.01"/>
    <path class="cls-4" d="M329.6,325.2c.06.02.13.05.19.08.03,0,.06.02.09.04.01,0,.03,0,.05.02,0,0,.02,0,.03.01h0s0,0,0,0"/>
    <path class="cls-4" d="M327.5,325.08c.06.03.12.06.19.09l.09.04s.03.01.05.02c0,0,.02,0,.03.02h0s0,0,0,0"/>
    <path class="cls-4" d="M313.99,319.84c.04.06.07.12.11.18.02.03.03.06.05.09,0,.01.02.03.02.04,0,0,.01.02.02.03h0"/>
    <path class="cls-4" d="M351.83,288.22c2.28,4.84,2.89,10.3,1.72,15.53-1.16,5.23-4.04,9.92-8.17,13.33-4.13,3.41-9.28,5.35-14.63,5.51-5.35.16-10.6-1.46-14.93-4.62"/>
    <path class="cls-4" d="M344.23,279.03c3.26,2.38,5.87,5.54,7.6,9.19"/>
    <path class="cls-4" d="M343.21,275.28c0-.08,0-.16-.04-.24-.04-.07-.1-.13-.17-.17-.03-.02-.07-.03-.11-.04s-.08,0-.12,0c-.08,0-.16.04-.22.09"/>
    <path class="cls-4" d="M345.38,276.47s0,0,0,0c-.01,0-.02,0-.04,0s-.03,0-.05,0c-.03,0-.07-.01-.1-.02-.06-.01-.13-.03-.19-.04"/>
    <path class="cls-4" d="M347.06,277.75s0,0,0,0c0,0-.02,0-.04,0-.01,0-.03,0-.05-.01-.03,0-.06-.02-.09-.03-.07-.02-.13-.04-.19-.06"/>
    <path class="cls-4" d="M348.64,279.15s0,0,0,0c0,0,0,0,0,0-.01,0-.02,0-.04-.01h-.04s-.06-.04-.1-.05l-.19-.07"/>
    <path class="cls-4" d="M349.74,280.49c.03-.08.05-.16.03-.24,0-.08-.05-.16-.1-.22-.03-.03-.06-.05-.1-.07s-.07-.04-.12-.04c-.08-.02-.16-.01-.24.02"/>
    <path class="cls-4" d="M351.09,282.09c.04-.07.06-.16.05-.24s-.04-.16-.09-.22c-.02-.03-.05-.06-.09-.08-.03-.02-.07-.04-.11-.05-.08-.02-.16-.02-.24,0"/>
    <path class="cls-4" d="M352.31,283.79c.05-.07.07-.15.07-.23s-.02-.16-.07-.23c-.02-.04-.05-.07-.08-.09-.03-.02-.07-.04-.11-.06-.08-.03-.16-.04-.24-.02"/>
    <path class="cls-4" d="M303.88,293.15c-.09.01-.16.05-.21.11-.06.06-.1.14-.12.21,0,.04,0,.08,0,.12s.01.08.03.12c.03.07.08.14.16.18"/>
    <path class="cls-4" d="M303.54,295.22c-.08.02-.15.07-.2.13-.05.06-.09.14-.1.22,0,.04,0,.08,0,.12,0,.04.02.08.04.12.04.07.1.13.18.17"/>
    <line class="cls-4" x1="303.34" y1="298.07" x2="303.58" y2="298.17"/>
    <path class="cls-4" d="M303.22,296.92c.05.13.09.26.14.38"/>
    <line class="cls-4" x1="303.61" y1="297.22" x2="303.36" y2="297.31"/>
    <path class="cls-4" d="M303.36,297.31c-.08.03-.15.08-.19.15-.05.06-.08.15-.08.23,0,.04,0,.08,0,.12.01.04.03.08.05.12.04.07.11.12.19.16"/>
    <path class="cls-4" d="M303.35,299.4c-.08.03-.14.09-.18.16-.04.07-.06.16-.06.23,0,.04,0,.08.02.12s.03.07.06.11c.05.07.12.11.2.14"/>
    <line class="cls-4" x1="303.74" y1="301.37" x2="303.5" y2="301.49"/>
    <path class="cls-4" d="M303.97,304.31c-.01.06-.02.13-.03.2v.1s-.02.03-.02.05c0,0,0,.02,0,.04,0,0,0,0,0,0,0,0,0,0,0,0"/>
    <path class="cls-4" d="M304.51,306.34c0,.07-.01.14-.02.2,0,.03,0,.07,0,.1,0,.02,0,.03,0,.05,0,0,0,.02,0,.04h0"/>
    <path class="cls-4" d="M306.81,285.33c-.08,0-.17,0-.24.04-.07.03-.13.09-.18.17-.02.04-.03.07-.04.12,0,.04,0,.08,0,.12,0,.08.04.16.09.22"/>
    <path class="cls-4" d="M307.91,283.55c-.08-.02-.17,0-.24.02-.08.03-.14.09-.19.16-.02.03-.04.07-.05.11s-.01.08-.01.12c0,.08.02.16.08.23"/>
    <path class="cls-4" d="M309.16,281.86c-.08-.02-.16-.02-.24,0-.08.02-.15.08-.19.14-.03.03-.05.07-.06.1-.01.04-.02.08-.03.12,0,.08.01.16.06.24"/>
    <path class="cls-4" d="M310.52,280.27c-.08-.03-.16-.03-.24-.01-.08.01-.15.06-.21.12-.03.03-.05.06-.07.1-.01.03-.03.08-.03.12,0,.08,0,.16.04.24"/>
    <line class="cls-4" x1="313.03" y1="277.92" x2="313.11" y2="278.18"/>
    <path class="cls-4" d="M313.62,277.45c-.07-.04-.15-.06-.23-.05-.08,0-.16.03-.22.09-.03.02-.06.05-.08.09s-.04.07-.05.11c-.02.08-.02.16,0,.24"/>
    <path class="cls-4" d="M315.32,276.22c-.07-.05-.15-.07-.23-.07-.08,0-.17.02-.23.07-.03.02-.06.05-.09.08s-.05.07-.06.11c-.03.08-.03.16-.01.24"/>
    <path class="cls-4" d="M322.93,272.77c-.05-.07-.12-.11-.2-.14-.08-.02-.16-.02-.24,0-.04.01-.08.03-.11.05-.03.02-.06.05-.09.08-.05.06-.08.14-.09.22"/>
    <line class="cls-4" x1="322.17" y1="273.25" x2="322.2" y2="272.98"/>
    <path class="cls-4" d="M327.4,271.78s0,0,0,0c0,0-.02,0-.03.02-.01,0-.03.01-.04.02-.03.01-.06.03-.09.04-.06.03-.12.07-.18.1"/>
    <path class="cls-4" d="M329.13,271.82c-.03-.08-.09-.14-.16-.19-.07-.04-.15-.06-.23-.06-.04,0-.08,0-.12.02-.04.01-.08.04-.11.06-.06.05-.11.11-.14.19"/>
    <line class="cls-4" x1="328.29" y1="272.11" x2="328.37" y2="271.86"/>
    <path class="cls-4" d="M331.61,271.7s0,0,0,0c-.01,0-.02,0-.04,0s-.03,0-.05.02c-.03,0-.06.02-.09.03-.06.02-.13.05-.19.07"/>
    <path class="cls-4" d="M333.71,271.9s0,0,0,0c-.01,0-.03,0-.04,0-.01,0-.03,0-.05,0-.03,0-.07.02-.1.03-.07.01-.13.03-.2.05"/>
    <path class="cls-4" d="M335.39,272.35c-.01-.08-.05-.16-.11-.21s-.13-.1-.21-.12c-.04,0-.08,0-.12,0-.04,0-.08.02-.12.03-.07.03-.14.09-.18.16"/>
    <path class="cls-4" d="M355.56,290.67c.08,0,.16.04.22.09.03.02.06.06.08.09.02.03.04.07.05.11.02.08.02.17,0,.24-.02.08-.07.14-.14.19"/>
    <path class="cls-4" d="M356.01,291.72s0,0,0,0c0,0-.01-.02-.02-.03s-.02-.02-.03-.04c-.02-.03-.04-.05-.06-.08-.04-.05-.08-.11-.13-.16"/>
    <line class="cls-4" x1="355.77" y1="291.4" x2="355.55" y2="291.56"/>
    <line class="cls-4" x1="356.47" y1="294.76" x2="356.2" y2="294.7"/>
    <path class="cls-4" d="M356.75,295.87s0,0,0,0t0,0s-.01-.02-.02-.03c0-.01-.01-.03-.02-.04-.01-.03-.03-.06-.05-.09-.03-.06-.06-.12-.09-.18"/>
    <line class="cls-4" x1="356.33" y1="295.64" x2="356.56" y2="295.51"/>
    <path class="cls-4" d="M356.56,295.51c.07-.04.13-.1.17-.18s.05-.16.04-.24c0-.04-.01-.08-.03-.11-.01-.04-.04-.07-.07-.11-.05-.06-.12-.1-.2-.12"/>
    <path class="cls-4" d="M356.72,297.6c.08-.03.14-.09.18-.16.05-.07.07-.16.06-.24,0-.04,0-.08-.02-.12s-.03-.08-.06-.11c-.05-.07-.12-.11-.2-.14"/>
    <line class="cls-4" x1="356.61" y1="301.03" x2="356.37" y2="300.91"/>
    <path class="cls-4" d="M356.63,302.18s0,0,0,0c0-.01,0-.02,0-.04,0-.01,0-.03-.01-.05,0-.03-.01-.06-.02-.1-.02-.07-.03-.13-.05-.2"/>
    <line class="cls-4" x1="356.27" y1="301.85" x2="356.53" y2="301.79"/>
    <path class="cls-4" d="M356.53,301.79c.08-.02.15-.06.21-.13.05-.06.08-.14.09-.22,0-.04,0-.08,0-.12,0-.04-.02-.08-.04-.12-.04-.07-.1-.13-.18-.17"/>
    <path class="cls-4" d="M356.19,303.86c.08-.01.16-.05.21-.11.06-.05.1-.13.11-.21,0-.04,0-.08,0-.12s-.01-.08-.03-.12c-.03-.07-.08-.14-.16-.18"/>
    <path class="cls-4" d="M353.25,311.68c.08,0,.17,0,.24-.04.07-.03.14-.1.18-.17.02-.04.03-.08.04-.12,0-.04,0-.08,0-.12,0-.08-.04-.16-.1-.22"/>
    <path class="cls-4" d="M352.15,313.46c.08.02.17,0,.24-.02.07-.03.14-.09.19-.16.02-.03.04-.07.05-.11.01-.04.02-.08.02-.13,0-.08-.03-.16-.08-.23"/>
    <line class="cls-4" x1="351.37" y1="314.55" x2="351.23" y2="314.32"/>
    <path class="cls-4" d="M350.91,315.15c.08.02.17.02.24,0,.08-.03.15-.08.2-.14.02-.03.04-.07.06-.11.01-.03.02-.08.02-.12,0-.08-.01-.16-.06-.24"/>
    <path class="cls-4" d="M349.39,317.11s.01-.03.02-.04c0-.02.01-.03.02-.05,0-.03.02-.06.04-.09l.07-.19"/>
    <line class="cls-4" x1="349.29" y1="316.64" x2="349.54" y2="316.74"/>
    <path class="cls-4" d="M349.54,316.74c.08.03.16.03.24.01.08-.02.16-.06.21-.12.03-.03.05-.06.07-.1.02-.03.03-.08.03-.12,0-.08,0-.16-.04-.24"/>
    <path class="cls-4" d="M348.05,318.21c.08.04.16.05.24.04.08-.01.16-.05.22-.11.03-.03.05-.06.07-.09.02-.04.03-.08.04-.12.02-.08,0-.16-.02-.24"/>
    <path class="cls-4" d="M348.6,317.69c.06-.02.12-.05.19-.08.03,0,.06-.02.09-.04.02,0,.03,0,.05-.02.01,0,.02,0,.03-.01h.01"/>
    <line class="cls-4" x1="348.5" y1="317.44" x2="348.6" y2="317.69"/>
    <line class="cls-4" x1="347.04" y1="319.08" x2="346.96" y2="318.83"/>
    <path class="cls-4" d="M346.45,319.56c.07.04.15.06.23.05s.16-.03.22-.09c.03-.02.06-.05.08-.09.02-.03.04-.07.05-.11.02-.08.02-.16,0-.24"/>
    <path class="cls-4" d="M337.14,324.24c.05.06.12.11.19.14.08.02.16.02.24,0,.04,0,.07-.02.11-.05.03-.02.07-.05.09-.08.05-.06.08-.14.09-.22"/>
    <line class="cls-4" x1="335.84" y1="324.56" x2="335.88" y2="324.3"/>
    <path class="cls-4" d="M335.09,324.72c.05.07.11.12.19.16.08.03.16.04.24.02.04,0,.08-.02.11-.04s.07-.04.1-.07c.06-.06.09-.13.11-.22"/>
    <path class="cls-4" d="M332.66,325.22s.03-.01.04-.02c.01,0,.03-.01.05-.02.03-.01.06-.03.09-.05.06-.03.12-.06.18-.09"/>
    <line class="cls-4" x1="332.9" y1="324.8" x2="333.02" y2="325.03"/>
    <path class="cls-4" d="M333.02,325.03c.04.07.1.13.17.17s.16.05.24.04c.04,0,.08-.01.12-.03.04-.02.07-.04.1-.07.06-.05.1-.13.13-.21"/>
    <path class="cls-4" d="M330.56,325.35s.03-.01.05-.02c.01,0,.03,0,.04-.02.03,0,.06-.02.09-.04.06-.03.13-.05.19-.08"/>
    <line class="cls-4" x1="330.83" y1="324.94" x2="330.93" y2="325.19"/>
    <path class="cls-4" d="M330.93,325.19c.03.08.09.14.16.19s.15.06.23.06c.04,0,.08,0,.12-.02.03,0,.07-.03.11-.06.06-.05.11-.11.14-.19"/>
    <line class="cls-4" x1="144.88" y1="452.17" x2="144.88" y2="566.11"/>
    <line class="cls-4" x1="116.4" y1="566.11" x2="116.4" y2="452.17"/>
    <path class="cls-4" d="M116.4,452.17h-5.07s-.01,0,0,0"/>
    <line class="cls-4" x1="329.6" y1="325.2" x2="329.7" y2="324.95"/>
    <path class="cls-4" d="M328.84,325.18c.03.08.08.15.15.19.06.05.15.07.23.08.04,0,.08,0,.12-.01s.08-.03.11-.05c.07-.04.12-.11.16-.19"/>
    <line class="cls-4" x1="327.5" y1="325.08" x2="327.62" y2="324.85"/>
    <line class="cls-4" x1="160.15" y1="440.62" x2="160.15" y2="607.46"/>
    <path class="cls-4" d="M326.35,325.1h0s0,0,0,0c0,0,.02,0,.03,0,.02,0,.03,0,.05-.01.03,0,.07-.01.1-.02.06-.01.13-.03.19-.05"/>
    <path class="cls-4" d="M108.26,434.82c0-5.94,2.36-11.63,6.55-15.83,4.2-4.2,9.89-6.55,15.83-6.55s11.62,2.36,15.82,6.55c4.2,4.2,6.55,9.89,6.55,15.83"/>
    <line class="cls-4" x1="153.02" y1="434.82" x2="153.02" y2="615.9"/>
    <line class="cls-4" x1="326.68" y1="324.74" x2="326.75" y2="325"/>
    <path class="cls-4" d="M165.84,433.81c0-9.17-3.64-17.97-10.13-24.46-6.49-6.49-15.28-10.13-24.46-10.13"/>
    <path class="cls-4" d="M326.75,325c.02.08.07.15.13.2.06.05.14.09.22.1.04,0,.08,0,.12,0,.04,0,.08-.02.12-.04.07-.04.13-.1.17-.17"/>
    <line class="cls-4" x1="165.84" y1="433.81" x2="165.84" y2="616.92"/>
    <path class="cls-4" d="M324.68,324.66c.02.08.05.16.11.21s.13.1.21.11c.04,0,.08,0,.12,0,.04,0,.08-.01.12-.03.08-.03.14-.09.19-.16"/>
    <path class="cls-4" d="M316.86,321.72c0,.09,0,.17.04.24.03.08.09.14.17.18.03.02.07.03.11.04.04,0,.08,0,.13,0,.08,0,.16-.04.22-.09"/>
    <path class="cls-4" d="M315.08,320.62c-.02.09,0,.17.02.24s.08.14.15.19c.03.02.07.04.11.05.04,0,.08.01.12.01.08,0,.16-.03.23-.08"/>
    <line class="cls-4" x1="313.99" y1="319.84" x2="314.22" y2="319.7"/>
    <path class="cls-4" d="M313.39,319.38c-.02.08-.02.16,0,.24s.07.15.14.2c.03.02.06.04.1.06s.08.02.12.02c.08,0,.16-.01.23-.06"/>
    <path class="cls-4" d="M311.8,318.01c-.03.08-.03.16-.02.24.02.08.06.15.13.2.03.03.06.05.1.07.04.02.08.03.12.03.08.01.16,0,.24-.04"/>
    <path class="cls-4" d="M310.32,316.52c-.03.08-.05.16-.03.24,0,.08.05.16.11.22.02.03.06.05.09.07s.08.03.12.04c.08.02.16,0,.24-.02"/>
    <path class="cls-4" d="M308.98,314.92c-.04.07-.06.16-.06.24,0,.08.04.16.09.22.03.03.06.06.09.08.03.02.07.04.11.05.08.02.16.02.24,0"/>
    <path class="cls-4" d="M307.75,313.22c-.04.07-.07.15-.07.23,0,.08.02.16.07.23.02.03.05.06.08.09.03.02.07.04.11.06.07.03.16.04.24.02"/>
    <path class="cls-4" d="M315.83,317.98c1.12-1.54,2.26-3.11,3.41-4.68"/>
    <path class="cls-4" d="M308.23,308.78c-2.28-4.84-2.89-10.3-1.72-15.53,1.17-5.23,4.04-9.92,8.17-13.33,4.12-3.41,9.27-5.35,14.62-5.51,5.35-.16,10.61,1.46,14.93,4.62"/>
    <path class="cls-4" d="M315.83,317.98c-3.26-2.38-5.87-5.54-7.6-9.19"/>
    <line class="cls-4" x1="417.08" y1="317.09" x2="416.34" y2="320.05"/>
    <line class="cls-4" x1="427" y1="277" x2="426.27" y2="279.96"/>
    <path class="cls-4" d="M195.12,293.46c-.91.26-1.83.53-2.74.79"/>
    <path class="cls-4" d="M162.66,302.79c-.92.26-1.83.53-2.74.79"/>
    <path class="cls-4" d="M173.98,313c-3.84-.92-7.16-3.32-9.24-6.69-2.07-3.37-2.72-7.42-1.8-11.26.92-3.85,3.32-7.17,6.69-9.24,3.37-2.07,7.42-2.72,11.26-1.8"/>
    <path class="cls-4" d="M180.89,284.01c3.85.92,7.17,3.32,9.24,6.69,2.07,3.37,2.72,7.42,1.81,11.26-.92,3.85-3.33,7.17-6.69,9.24-3.37,2.07-7.42,2.72-11.26,1.8"/>
    <path class="cls-4" d="M164.65,294.1s0,0,0,0c0,0,0,0,.02,0,0,0,.01,0,.02,0,.01,0,.03,0,.04.02.03,0,.07.02.1.03"/>
    <path class="cls-4" d="M190.04,302.84s.06.02.1.03c.01,0,.03.01.05.02,0,0,.01,0,.02,0,0,0,0,0,.02,0,0,0,0,0,0,0"/>
    <path class="cls-4" d="M190.04,302.84c-1.15,3.34-3.58,6.09-6.75,7.64-3.18,1.55-6.84,1.78-10.18.62-3.34-1.15-6.09-3.58-7.64-6.75-1.55-3.18-1.77-6.84-.62-10.18"/>
    <path class="cls-4" d="M164.84,294.16c1.15-3.34,3.58-6.09,6.76-7.64,3.18-1.55,6.84-1.78,10.18-.63,3.35,1.15,6.09,3.58,7.64,6.76,1.55,3.18,1.78,6.84.62,10.18"/>
    <path class="cls-4" d="M180.99,283.61s0,.03-.01.05,0,.03,0,.05c0,.03-.01.07-.02.1-.01.07-.03.14-.05.2"/>
    <path class="cls-4" d="M173.98,313c-.01.06-.03.13-.04.19,0,.03-.02.07-.02.1,0,.01,0,.03-.01.05,0,.01,0,.02,0,.04h0"/>
    <line class="cls-4" x1="478.03" y1="317.07" x2="477.3" y2="320.03"/>
    <line class="cls-4" x1="487.96" y1="276.97" x2="487.23" y2="279.94"/>
    <line class="cls-4" x1="114.97" y1="566.25" x2="114.97" y2="598.03"/>
    <path class="cls-4" d="M102.16,434.82h6.1"/>
    <path class="cls-4" d="M159.13,434.82h-6.11"/>
    <path class="cls-4" d="M256.07,293.44c-.91.26-1.83.52-2.74.78"/>
    <path class="cls-4" d="M223.62,302.77c-.92.26-1.83.53-2.74.78"/>
    <path class="cls-4" d="M234.93,312.98c-3.84-.92-7.16-3.32-9.24-6.69-2.07-3.37-2.72-7.42-1.8-11.26.92-3.84,3.32-7.17,6.69-9.24,3.37-2.07,7.42-2.72,11.26-1.8"/>
    <path class="cls-4" d="M241.84,283.99c3.85.92,7.17,3.32,9.24,6.69,2.07,3.37,2.72,7.42,1.81,11.26-.92,3.85-3.33,7.17-6.69,9.24-3.37,2.07-7.42,2.72-11.26,1.8"/>
    <path class="cls-4" d="M225.79,294.14c1.15-3.34,3.58-6.09,6.76-7.64,3.18-1.55,6.84-1.77,10.18-.62,3.35,1.15,6.09,3.58,7.64,6.76,1.55,3.18,1.77,6.84.62,10.18"/>
    <path class="cls-4" d="M241.94,283.59s0,0,0,.01c0,0,0,.02,0,.04s0,.03,0,.05c0,.03-.01.06-.02.1-.01.07-.03.13-.05.2"/>
    <path class="cls-4" d="M234.93,312.98c-.01.07-.03.14-.04.2,0,.03-.02.07-.02.1,0,.02,0,.03-.01.05,0,0,0,.02,0,.03,0,0,0,0,0,.01"/>
    <path class="cls-4" d="M116.4,452.17c0-3.77,1.5-7.4,4.17-10.07,2.67-2.67,6.29-4.17,10.07-4.17s7.4,1.5,10.07,4.17c2.67,2.67,4.17,6.3,4.17,10.07"/>
    <line class="cls-4" x1="130.64" y1="598.03" x2="130.64" y2="566.25"/>
    <path class="cls-4" d="M177.44,239.5c-15.65,0-30.66,6.22-41.72,17.28-11.06,11.06-17.28,26.07-17.28,41.72s6.21,30.66,17.28,41.72c11.07,11.06,26.07,17.28,41.73,17.28"/>
    <path class="cls-4" d="M177.44,359.54v-2.03"/>
    <path class="cls-4" d="M177.44,237.46h0v2.04"/>
    <path class="cls-4" d="M482.63,239.5v-2.02s0,0,0-.01"/>
    <line class="cls-4" x1="482.63" y1="239.5" x2="177.44" y2="239.5"/>
    <line class="cls-4" x1="177.44" y1="357.51" x2="482.63" y2="357.51"/>
    <path class="cls-4" d="M541.63,298.5c0-15.65-6.21-30.66-17.28-41.72-11.06-11.06-26.07-17.28-41.72-17.28"/>
    <path class="cls-4" d="M482.63,357.51v2.02h0s0,.01,0,0"/>
    <path class="cls-4" d="M541.63,298.5c0,15.65-6.21,30.66-17.28,41.72-11.06,11.06-26.07,17.28-41.72,17.28"/>
    <path class="cls-4" d="M543.66,298.5h-2.04"/>
    <path class="cls-4" d="M75.71,164.22h2.03"/>
    <path class="cls-4" d="M87.91,174.39v2.04"/>
    <path class="cls-4" d="M572.15,174.39v2.04"/>
    <path class="cls-4" d="M582.32,164.22h2.04"/>
  </g>
  <g id="_图层_4" data-name="图层 4">
    <g>
      <path class="cls-1" d="M317.53,392.66c-4.56-4.89-60.95-76.11-60.95-76.11"/>
      <g>
        <path class="cls-5" d="M317.53,392.66c-2.62-2.81-22.33-27.49-38.64-48"/>
        <polygon class="cls-1" points="302.95 334.85 256.57 316.55 263.9 365.86 302.95 334.85"/>
      </g>
    </g>
  </g>
</svg>