<?xml version="1.0" encoding="UTF-8"?>
<svg xmlns="http://www.w3.org/2000/svg" viewBox="0 0 490.89 489.28">
  <defs>
    <style>
      .cls-1 {
        fill: #ccc;
      }

      .cls-1, .cls-2 {
        stroke-width: 0px;
      }

      .cls-2 {
        fill: red;
      }

      .cls-3 {
        stroke: red;
        stroke-miterlimit: 10;
        stroke-width: 12px;
      }

      .cls-3, .cls-4 {
        fill: none;
      }

      .cls-4 {
        stroke: #000;
        stroke-linecap: round;
        stroke-linejoin: round;
      }
    </style>
  </defs>
  <g id="_图层_2" data-name="图层 2">
    <polygon class="cls-1" points="161.81 412.95 .5 462.28 85.15 488.78 105.27 486.36 145.22 473.33 149.66 473.11 232.15 463.01 231.8 445.54 250.83 439.44 250.76 435.79 161.81 412.95"/>
  </g>
  <g id="Make2D::可见线::曲线">
    <line class="cls-4" x1="189.2" y1="292.25" x2="188.94" y2="280.61"/>
    <line class="cls-4" x1="192.51" y1="269.34" x2="192.06" y2="249.03"/>
    <line class="cls-4" x1="490.38" y1="436.55" x2="490.32" y2="419.64"/>
    <line class="cls-4" x1="490.38" y1="436.55" x2="476.55" y2="438.27"/>
    <line class="cls-4" x1="476.55" y1="438.27" x2="466.44" y2="436.04"/>
    <line class="cls-4" x1="442.32" y1="426.05" x2="442.32" y2="425.36"/>
    <line class="cls-4" x1="442.32" y1="426.05" x2="428.64" y2="427.69"/>
    <line class="cls-4" x1="428.64" y1="427.69" x2="428.63" y2="426.99"/>
    <line class="cls-4" x1="428.64" y1="427.69" x2="426.58" y2="427.23"/>
    <line class="cls-4" x1="186.71" y1="236.08" x2="186.46" y2="224.76"/>
    <line class="cls-4" x1="186.46" y1="224.76" x2="187.48" y2="224.7"/>
    <line class="cls-4" x1="186.46" y1="224.76" x2="222.62" y2="229.64"/>
    <line class="cls-4" x1="273.75" y1=".8" x2="155.42" y2="1.13"/>
    <line class="cls-4" x1="165.42" y1="413.62" x2="253.31" y2="435.28"/>
    <line class="cls-4" x1="253.31" y1="435.28" x2="253.69" y2="435.24"/>
    <line class="cls-4" x1="366.78" y1="1.34" x2="346.21" y2="1.22"/>
    <line class="cls-4" x1="292.78" y1=".91" x2="292.78" y2="1.38"/>
    <line class="cls-4" x1="292.78" y1=".91" x2="273.75" y2=".8"/>
    <line class="cls-4" x1="186.1" y1="236.34" x2="187.82" y2="236.23"/>
    <line class="cls-4" x1="186.1" y1="236.34" x2="185.84" y2="224.48"/>
    <line class="cls-4" x1="192.18" y1="269.36" x2="192.51" y2="269.34"/>
    <line class="cls-4" x1="217.99" y1="273.49" x2="192.18" y2="269.36"/>
    <line class="cls-4" x1="192.18" y1="269.36" x2="191.73" y2="248.98"/>
    <line class="cls-4" x1="188.62" y1="292.29" x2="189.2" y2="292.25"/>
    <line class="cls-4" x1="222.71" y1="298.21" x2="188.62" y2="292.29"/>
    <line class="cls-4" x1="188.62" y1="292.29" x2="188.36" y2="280.51"/>
    <line class="cls-4" x1="185.88" y1="334.07" x2="186.73" y2="334"/>
    <line class="cls-4" x1="227.45" y1="342.29" x2="185.88" y2="334.07"/>
    <line class="cls-4" x1="185.88" y1="334.07" x2="185.19" y2="303.39"/>
    <line class="cls-4" x1="155.42" y1="1.13" x2="245.26" y2="1.71"/>
    <line class="cls-4" x1="222.7" y1="298.06" x2="189.2" y2="292.25"/>
    <line class="cls-4" x1="217.99" y1="273.42" x2="192.51" y2="269.34"/>
    <line class="cls-4" x1="384" y1="449.73" x2="383.82" y2="432.33"/>
    <line class="cls-4" x1="384" y1="449.73" x2="369.34" y2="451.55"/>
    <line class="cls-4" x1="369.34" y1="451.55" x2="359.49" y2="449.18"/>
    <line class="cls-4" x1="337.13" y1="438.61" x2="337.12" y2="437.9"/>
    <line class="cls-4" x1="322.65" y1="440.34" x2="320.65" y2="439.86"/>
    <line class="cls-4" x1="369.38" y1="455.04" x2="369.34" y2="451.55"/>
    <line class="cls-4" x1="369.38" y1="455.04" x2="311.25" y2="440.98"/>
    <line class="cls-4" x1="384.03" y1="453.21" x2="384" y2="449.73"/>
    <line class="cls-4" x1="384.03" y1="453.21" x2="369.38" y2="455.04"/>
    <line class="cls-4" x1="250.76" y1="435.79" x2="250.83" y2="439.44"/>
    <line class="cls-4" x1="104.62" y1="486.36" x2="85.15" y2="488.78"/>
    <line class="cls-4" x1="161.05" y1="413.62" x2="250.76" y2="435.79"/>
    <line class="cls-4" x1=".5" y1="463.01" x2="85.15" y2="488.78"/>
    <line class="cls-4" x1="359.49" y1="449.18" x2="322.65" y2="440.34"/>
    <line class="cls-4" x1="369.34" y1="451.55" x2="369.14" y2="434.08"/>
    <line class="cls-4" x1="322.65" y1="440.34" x2="322.64" y2="439.62"/>
    <line class="cls-4" x1="366.78" y1="1.34" x2="476.51" y2="1.01"/>
    <line class="cls-4" x1="476.51" y1="1.01" x2="380.92" y2=".5"/>
    <line class="cls-4" x1="380.92" y1=".5" x2="273.75" y2=".8"/>
    <line class="cls-4" x1="465.5" y1="283.53" x2="439.99" y2="279.82"/>
    <line class="cls-4" x1="465.55" y1="295.04" x2="440.06" y2="291.19"/>
    <line class="cls-4" x1="438.86" y1="102.72" x2="476.91" y2="101.55"/>
    <line class="cls-4" x1="477.63" y1="282.54" x2="465.5" y2="283.53"/>
    <line class="cls-4" x1="465.5" y1="283.53" x2="465.55" y2="295.04"/>
    <line class="cls-4" x1="465.55" y1="295.04" x2="440.1" y2="297.18"/>
    <line class="cls-4" x1="477.63" y1="282.54" x2="439.97" y2="277.12"/>
    <line class="cls-4" x1="476.91" y1="101.55" x2="476.51" y2="1.01"/>
    <line class="cls-4" x1="337.13" y1="438.61" x2="359.43" y2="443.9"/>
    <line class="cls-4" x1="337.13" y1="438.61" x2="322.65" y2="440.34"/>
    <line class="cls-4" x1="292.78" y1=".91" x2="346.21" y2="1.22"/>
    <line class="cls-4" x1="245.26" y1="1.71" x2="366.78" y2="1.34"/>
    <line class="cls-4" x1="222.68" y1="1.11" x2="292.78" y2=".91"/>
    <line class="cls-4" x1="275.06" y1="1.43" x2="222.68" y2="1.11"/>
    <line class="cls-4" x1="186.37" y1="333.92" x2="185.67" y2="303.48"/>
    <line class="cls-4" x1="271.15" y1="463.71" x2="255.58" y2="465.64"/>
    <line class="cls-4" x1="255.58" y1="465.64" x2="246.03" y2="463.13"/>
    <line class="cls-4" x1="222.86" y1="241.54" x2="186.1" y2="236.34"/>
    <line class="cls-4" x1="490.29" y1="409.47" x2="485.49" y2="408.48"/>
    <line class="cls-4" x1="490.31" y1="416.25" x2="490.29" y2="409.47"/>
    <line class="cls-4" x1="158" y1="412.87" x2="161.05" y2="413.62"/>
    <line class="cls-4" x1="490.32" y1="419.64" x2="490.31" y2="416.25"/>
    <line class="cls-4" x1="255.25" y1="447.66" x2="245.69" y2="445.24"/>
    <line class="cls-4" x1="245.69" y1="445.24" x2="245.62" y2="441.65"/>
    <line class="cls-4" x1="255.18" y1="444.05" x2="255.05" y2="436.85"/>
    <line class="cls-4" x1="490.39" y1="439.93" x2="490.38" y2="436.55"/>
    <line class="cls-4" x1="490.39" y1="439.93" x2="476.56" y2="441.66"/>
    <line class="cls-4" x1="476.56" y1="441.66" x2="476.55" y2="438.27"/>
    <line class="cls-4" x1="476.56" y1="441.66" x2="416.91" y2="428.39"/>
    <line class="cls-4" x1="255.25" y1="447.66" x2="255.18" y2="444.05"/>
    <line class="cls-4" x1="232.15" y1="463.01" x2="143.56" y2="473.86"/>
    <line class="cls-4" x1="255.64" y1="469.23" x2="255.58" y2="465.64"/>
    <line class="cls-4" x1="255.64" y1="469.23" x2="232.15" y2="463.01"/>
    <line class="cls-4" x1="271.21" y1="467.29" x2="271.15" y2="463.71"/>
    <line class="cls-4" x1="271.21" y1="467.29" x2="255.64" y2="469.23"/>
    <line class="cls-4" x1="231.96" y1="453.54" x2="245.92" y2="457.16"/>
    <line class="cls-4" x1="485.47" y1="404.85" x2="478.11" y2="403.35"/>
    <line class="cls-4" x1="162.66" y1="408.41" x2="164.96" y2="408.97"/>
    <line class="cls-4" x1="162.77" y1="412.97" x2="165.07" y2="413.54"/>
    <line class="cls-4" x1="253.61" y1="430.58" x2="256.17" y2="431.21"/>
    <line class="cls-4" x1="253.7" y1="435.38" x2="256.25" y2="436.01"/>
    <line class="cls-4" x1="246.03" y1="463.13" x2="232.08" y2="459.46"/>
    <line class="cls-4" x1="255.58" y1="465.64" x2="255.25" y2="447.66"/>
    <line class="cls-4" x1="164.96" y1="408.97" x2="165.07" y2="413.54"/>
    <line class="cls-4" x1="164.96" y1="408.97" x2="165.31" y2="408.93"/>
    <line class="cls-4" x1="165.07" y1="413.54" x2="165.42" y2="413.5"/>
    <line class="cls-4" x1="158.05" y1="414.55" x2="158" y2="412.87"/>
    <line class="cls-4" x1="250.76" y1="435.79" x2="255.05" y2="436.85"/>
    <line class="cls-4" x1="466.44" y1="436.04" x2="428.64" y2="427.69"/>
    <line class="cls-4" x1="442.32" y1="426.05" x2="466.42" y2="431.32"/>
    <line class="cls-4" x1="270.83" y1="445.8" x2="255.25" y2="447.66"/>
    <line class="cls-4" x1="478.12" y1="404.53" x2="479.08" y2="404.72"/>
    <line class="cls-4" x1="165.29" y1="408.13" x2="162.66" y2="408.41"/>
    <line class="cls-4" x1="476.55" y1="438.27" x2="476.48" y2="421.29"/>
    <line class="cls-4" x1="222.85" y1="241.19" x2="186.71" y2="236.08"/>
    <line class="cls-4" x1="253.31" y1="435.28" x2="245.26" y2="1.71"/>
    <line class="cls-4" x1="346.21" y1="1.22" x2="275.06" y2="1.43"/>
    <line class="cls-4" x1="185.84" y1="224.48" x2="222.61" y2="229.44"/>
    <line class="cls-4" x1="222.61" y1="229.44" x2="222.86" y2="241.54"/>
    <line class="cls-4" x1="217.56" y1="252.81" x2="217.99" y2="273.49"/>
    <line class="cls-4" x1="191.73" y1="248.98" x2="217.56" y2="252.81"/>
    <line class="cls-4" x1="188.36" y1="280.51" x2="222.46" y2="286.2"/>
    <line class="cls-4" x1="222.46" y1="286.2" x2="222.71" y2="298.21"/>
    <line class="cls-4" x1="185.19" y1="303.39" x2="226.82" y2="310.9"/>
    <line class="cls-4" x1="226.82" y1="310.9" x2="227.45" y2="342.29"/>
    <line class="cls-4" x1="85.15" y1="488.78" x2="250.76" y2="435.79"/>
    <line class="cls-4" x1="227.45" y1="342.04" x2="186.37" y2="333.92"/>
    <polyline class="cls-4" points="162.76 412.56 159.59 412.9 255.45 436.57 488.69 409.44 485.49 408.78"/>
    <polyline class="cls-4" points="162.76 412.85 161.81 412.95 256.01 436.17 486.45 409.39 485.49 409.19"/>
    <line class="cls-4" x1="271.15" y1="463.71" x2="270.83" y2="445.8"/>
    <line class="cls-4" x1="255.05" y1="436.85" x2="490.29" y2="409.47"/>
    <line class="cls-4" x1="255.18" y1="444.05" x2="490.31" y2="416.25"/>
    <line class="cls-4" x1="162.75" y1="412.36" x2="158" y2="412.87"/>
    <line class="cls-4" x1="479.08" y1="404.72" x2="253.61" y2="430.58"/>
    <line class="cls-4" x1="253.61" y1="430.58" x2="253.7" y2="435.38"/>
    <line class="cls-4" x1="256.17" y1="431.21" x2="256.25" y2="436.01"/>
    <line class="cls-4" x1="256.17" y1="431.21" x2="485.47" y2="404.85"/>
    <line class="cls-4" x1="256.25" y1="436.01" x2="485.49" y2="409.37"/>
    <line class="cls-4" x1="466.44" y1="436.04" x2="466.38" y2="422.49"/>
    <line class="cls-4" x1="165.42" y1="413.62" x2="155.42" y2="1.13"/>
    <line class="cls-4" x1="359.49" y1="449.18" x2="359.32" y2="435.25"/>
    <line class="cls-4" x1="250.83" y1="439.44" x2="104.62" y2="486.36"/>
    <line class="cls-4" x1="161.05" y1="413.62" x2=".5" y2="463.01"/>
    <line class="cls-4" x1="478.12" y1="404.83" x2="477.63" y2="282.54"/>
    <line class="cls-4" x1="440.1" y1="297.18" x2="438.86" y2="102.72"/>
    <line class="cls-4" x1="246.03" y1="463.13" x2="245.69" y2="445.24"/>
    <line class="cls-4" x1="244.67" y1="441.42" x2="255.18" y2="444.05"/>
    <line class="cls-4" x1="490.32" y1="419.64" x2="270.83" y2="445.8"/>
    <line class="cls-4" x1="231.8" y1="445.54" x2="232.15" y2="463.01"/>
    <line class="cls-4" x1="485.47" y1="404.85" x2="485.49" y2="409.37"/>
    <line class="cls-4" x1="162.66" y1="408.41" x2="162.77" y2="412.97"/>
  </g>
  <g id="_图层_3" data-name="图层 3">
    <g>
      <line class="cls-3" x1="24.14" y1="431.66" x2="88.92" y2="430.57"/>
      <polygon class="cls-2" points="83.97 448.6 114.75 430.13 83.37 412.71 83.97 448.6"/>
    </g>
  </g>
</svg>