<?xml version="1.0" encoding="UTF-8"?>
<svg xmlns="http://www.w3.org/2000/svg" viewBox="0 0 916.97 838.45">
  <defs>
    <style>
      .cls-1 {
        fill: #000;
        stroke-width: 0px;
      }

      .cls-2 {
        stroke-width: 3px;
      }

      .cls-2, .cls-3 {
        fill: none;
        stroke: #000;
        stroke-linecap: round;
        stroke-linejoin: round;
      }

      .cls-3 {
        stroke-width: 2px;
      }
    </style>
  </defs>
  <g id="Make2D::可见线::正切线">
    <path class="cls-3" d="M80.26,122.11c.03-.24.05-.48.08-.71"/>
    <path class="cls-3" d="M80.6,119.22c.18-1.37.38-2.74.61-4.1.12-.68.24-1.36.38-2.04.13-.68.28-1.36.43-2.03.3-1.35.63-2.69,1.01-4.02.19-.67.38-1.33.59-1.99.21-.66.42-1.32.65-1.97.45-1.3.94-2.59,1.47-3.87.27-.64.55-1.27.83-1.9.29-.63.59-1.25.9-1.87.62-1.23,1.29-2.44,2-3.62.36-.59.72-1.18,1.1-1.76.19-.29.38-.58.58-.86.2-.29.4-.57.6-.85.8-1.12,1.65-2.21,2.54-3.26.45-.53.9-1.05,1.37-1.56.23-.26.47-.51.71-.76.24-.25.48-.5.73-.75.97-.98,1.98-1.92,3.03-2.81.53-.45,1.06-.89,1.6-1.32.27-.22.54-.43.82-.64s.55-.42.83-.63c2.22-1.64,4.57-3.12,6.99-4.44.3-.17.6-.33.91-.49.3-.16.61-.32.92-.48.62-.31,1.23-.62,1.86-.91,1.25-.59,2.52-1.16,3.8-1.68"/>
    <path class="cls-3" d="M406.09,121.64c.24,1.84.44,3.7.6,5.55.04.46.08.93.11,1.39.02.23.03.46.05.7.02.23.03.47.05.7.06.93.11,1.86.14,2.79"/>
    <path class="cls-3" d="M740.53,92.84c-.21-.01-.41.02-.61.08-.11.04-.21.08-.31.14-.11.06-.22.13-.32.2-.11.08-.22.17-.32.27-.11.11-.22.22-.33.33-.12.13-.23.26-.33.4-.12.15-.23.3-.34.46-.12.17-.23.35-.34.53-.12.19-.24.39-.35.59-.12.22-.24.44-.35.66-.12.24-.24.48-.36.72-.06.13-.12.26-.18.38-.03.07-.06.13-.09.2-.03.07-.06.13-.09.2-.13.28-.25.57-.37.85-.13.3-.25.61-.37.91-.13.32-.25.65-.38.98-.13.35-.26.69-.38,1.04-.13.37-.26.73-.38,1.1-.13.39-.26.78-.39,1.17-.13.41-.26.82-.39,1.23-.27.88-.54,1.76-.8,2.65-.28.96-.55,1.93-.81,2.89-.28,1.04-.56,2.09-.82,3.14-.29,1.12-.56,2.25-.83,3.37-.29,1.2-.57,2.4-.84,3.61-.29,1.28-.57,2.56-.85,3.84-.27,1.23-.53,2.46-.78,3.69-.03.16-.07.32-.1.47-.03.16-.07.32-.1.48-.07.32-.13.64-.2.96-.13.65-.26,1.31-.39,1.96-.27,1.35-.53,2.7-.79,4.05-.27,1.41-.53,2.81-.8,4.22-.27,1.46-.54,2.93-.8,4.39-.27,1.52-.54,3.04-.8,4.55-.27,1.57-.54,3.14-.8,4.71-.02.1-.03.2-.05.3-.02.1-.03.2-.05.3-.03.2-.07.4-.1.6-.07.4-.13.81-.2,1.21-.13.82-.27,1.64-.4,2.45-.44,2.71-.86,5.42-1.28,8.13-.44,2.83-.86,5.66-1.28,8.49-.43,2.94-.85,5.87-1.26,8.81-.05.37-.1.75-.16,1.12-.05.38-.1.75-.16,1.13l-.31,2.27c-.21,1.53-.42,3.06-.62,4.59-.37,2.8-.74,5.6-1.1,8.39-.37,2.86-.73,5.73-1.08,8.59-.36,2.92-.71,5.84-1.06,8.77-.04.37-.09.74-.13,1.11-.04.37-.09.74-.13,1.11-.09.74-.17,1.48-.26,2.23-.17,1.49-.35,2.99-.51,4.48-.65,5.74-1.28,11.48-1.89,17.22-.31,2.91-.61,5.82-.9,8.74-.07.73-.15,1.46-.22,2.19-.04.37-.07.73-.11,1.1-.04.37-.07.73-.11,1.1-.15,1.47-.29,2.94-.43,4.4-.56,5.8-1.1,11.6-1.62,17.41-.26,2.9-.51,5.81-.76,8.71-.12,1.45-.24,2.9-.37,4.35-.03.36-.06.72-.09,1.09-.03.36-.06.72-.09,1.09-.06.72-.12,1.45-.18,2.17-.47,5.86-.93,11.72-1.35,17.59-.21,2.89-.42,5.79-.61,8.68-.1,1.43-.19,2.87-.29,4.3-.05.71-.09,1.43-.14,2.14-.02.36-.05.71-.07,1.07s-.05.71-.07,1.07c-.19,3-.38,5.99-.55,8.99-.09,1.48-.17,2.96-.26,4.43-.04.73-.08,1.47-.12,2.2-.02.37-.04.73-.06,1.1-.01.18-.02.36-.03.55-.01.18-.02.36-.03.55-.16,2.88-.31,5.76-.45,8.64-.14,2.81-.27,5.62-.39,8.44"/>
    <path class="cls-3" d="M701.7,367.66c-.19,4.25-.36,8.5-.51,12.76-.07,2.04-.14,4.08-.2,6.12-.07,2.21-.13,4.42-.18,6.64-.05,2.1-.1,4.2-.14,6.3-.04,2.16-.07,4.31-.1,6.47,0,.53-.01,1.07-.02,1.6,0,.53-.01,1.07-.01,1.6,0,1.07-.02,2.14-.02,3.2,0,2.12,0,4.24,0,6.37,0,2.16.03,4.33.06,6.49.03,2.09.07,4.18.13,6.27,0,.14,0,.28.01.43,0,.14,0,.28.01.42,0,.28.02.56.03.84.02.56.03,1.11.05,1.67.04,1.09.08,2.17.13,3.26.05,1.05.1,2.09.15,3.14.05,1,.11,2.01.17,3.01.08,1.18.16,2.36.25,3.54.09,1.1.18,2.21.29,3.31.03.26.05.53.08.79,0,.06.01.13.02.19l.02.19c.01.13.03.26.04.38.05.5.11,1,.17,1.5.06.48.12.95.18,1.43.06.45.12.91.19,1.36.06.44.13.88.2,1.32.07.42.14.83.21,1.25.07.39.14.78.22,1.17.07.37.15.73.23,1.09.08.34.16.68.24,1.01.08.31.16.62.25.93.08.29.17.57.26.85l.03.1s.02.07.03.1c.02.06.04.13.07.19.04.12.09.25.14.37.09.23.18.46.28.68.09.2.19.4.29.6.09.17.19.35.3.51.1.15.2.29.31.43.1.12.2.24.32.34.1.09.21.18.33.25.11.07.22.12.34.16.11.04.23.06.34.07"/>
    <path class="cls-3" d="M226.18,507.7c2.95,0,5.91.07,8.86.21,3.01.14,6.02.36,9.02.64,6.17.59,12.3,1.48,18.38,2.66,5.92,1.16,11.78,2.6,17.56,4.32,5.88,1.75,11.67,3.8,17.35,6.14,5.63,2.32,11.15,4.93,16.51,7.82,5.36,2.89,10.56,6.05,15.57,9.5,5.07,3.48,9.94,7.24,14.58,11.27,4.55,3.96,8.88,8.18,12.93,12.64,4.16,4.58,8.04,9.42,11.59,14.5,1.73,2.48,3.38,5.01,4.95,7.59,1.54,2.53,2.99,5.12,4.36,7.75,1.45,2.79,2.8,5.63,4.05,8.51,1.22,2.82,2.34,5.68,3.36,8.58,1,2.83,1.89,5.7,2.68,8.6.77,2.83,1.45,5.68,2.02,8.56.61,3.08,1.11,6.17,1.49,9.28.37,3.03.62,6.07.77,9.12.07,1.49.11,2.99.13,4.48,0,.37,0,.74,0,1.11s0,.74,0,1.11c0,.74-.02,1.48-.04,2.22-.08,3.01-.27,6.01-.58,9-.3,2.93-.7,5.84-1.21,8.74-.52,2.96-1.15,5.91-1.88,8.83-.75,2.98-1.61,5.93-2.59,8.85-.99,2.98-2.09,5.92-3.31,8.82"/>
    <path class="cls-3" d="M70.63,685.23c-.92-2.83-1.74-5.69-2.46-8.58-.7-2.82-1.31-5.66-1.81-8.53-.49-2.8-.89-5.61-1.18-8.43-.29-2.76-.49-5.52-.59-8.29-.1-2.77-.11-5.55-.02-8.32.09-2.84.28-5.67.56-8.5.29-2.89.69-5.77,1.19-8.64.51-2.93,1.13-5.84,1.85-8.72.68-2.7,1.45-5.39,2.3-8.04.88-2.71,1.84-5.38,2.9-8.03,1.08-2.69,2.25-5.35,3.51-7.96,1.28-2.66,2.66-5.28,4.12-7.85,2.8-4.93,5.91-9.66,9.31-14.2,3.49-4.67,7.28-9.11,11.32-13.31,3.95-4.11,8.15-7.98,12.54-11.61,4.47-3.69,9.14-7.12,13.99-10.29,4.81-3.14,9.78-6.03,14.89-8.65,5.12-2.62,10.37-4.99,15.72-7.08,5.39-2.11,10.89-3.96,16.46-5.53,5.49-1.55,11.05-2.85,16.66-3.88,5.74-1.06,11.53-1.85,17.35-2.36,5.63-.5,11.28-.75,16.94-.74"/>
    <path class="cls-3" d="M226.14,514.73c-4.5,0-9,.16-13.49.48-4.61.34-9.22.84-13.79,1.53-4.48.67-8.93,1.51-13.35,2.52-4.49,1.02-8.93,2.22-13.33,3.59-8.72,2.72-17.22,6.13-25.39,10.23-8.16,4.1-15.98,8.87-23.32,14.32-3.69,2.74-7.26,5.66-10.69,8.73-3.37,3.03-6.6,6.21-9.67,9.55-3.13,3.4-6.09,6.96-8.85,10.66-2.7,3.62-5.22,7.36-7.54,11.24-2.38,3.97-4.54,8.07-6.46,12.28-1.87,4.08-3.51,8.26-4.92,12.53-1.46,4.41-2.66,8.91-3.6,13.46-.91,4.39-1.56,8.83-1.96,13.3"/>
    <path class="cls-3" d="M226.14,514.73c4.81,0,9.63.2,14.43.58,4.96.39,9.89.99,14.8,1.78,4.79.77,9.55,1.74,14.26,2.89,4.8,1.17,9.55,2.54,14.23,4.11,9.29,3.1,18.33,6.97,26.96,11.59,8.63,4.62,16.86,10,24.53,16.11,3.87,3.08,7.59,6.34,11.14,9.79,3.49,3.38,6.8,6.92,9.94,10.63,3.21,3.8,6.21,7.76,9,11.88,2.7,4,5.19,8.14,7.45,12.41,2.33,4.4,4.4,8.94,6.2,13.58,1.73,4.47,3.21,9.04,4.41,13.68.64,2.45,1.19,4.92,1.67,7.4.47,2.43.86,4.87,1.18,7.33.31,2.4.55,4.81.71,7.22.16,2.36.25,4.73.27,7.09"/>
    <path class="cls-3" d="M856.76,375.4c-.53,8.32-1.01,16.48-1.49,24.8-.01.26-.03.52-.05.78-.01.26-.03.52-.04.78l-.09,1.55c-.06,1.03-.12,2.06-.18,3.09-.12,2.07-.24,4.13-.35,6.2-.01.26-.03.52-.04.78l-.04.78c-.03.52-.06,1.04-.08,1.56-.06,1.03-.11,2.06-.16,3.09-.03.52-.05,1.04-.07,1.57-.02.52-.05,1.04-.07,1.56,0,.26-.02.52-.03.77,0,.26-.02.51-.03.77,0,.13,0,.26-.01.38,0,.13,0,.26-.01.38,0,.26-.01.51-.02.77"/>
    <path class="cls-3" d="M860.66,320.04c-.06.58-.11,1.16-.16,1.73-.01.14-.03.29-.04.43l-.04.43-.07.87c-.01.14-.02.29-.04.43-.01.14-.02.29-.03.43-.02.29-.05.57-.07.86-.05.57-.09,1.15-.13,1.72-.02.29-.04.58-.07.87-.02.29-.04.58-.07.87-.04.58-.08,1.15-.13,1.73-.08,1.15-.17,2.3-.25,3.45-.04.58-.08,1.16-.12,1.74-.04.58-.08,1.16-.12,1.73-.08,1.15-.16,2.3-.24,3.45-.16,2.31-.32,4.62-.48,6.92-.02.29-.04.58-.06.87-.02.29-.04.58-.06.87-.04.58-.08,1.16-.12,1.73-.08,1.15-.16,2.3-.24,3.45-.16,2.31-.31,4.61-.47,6.92-.31,4.61-.61,9.23-.91,13.85"/>
    <path class="cls-3" d="M952.38,220.99c-2.83,1.17-5.65,2.36-8.47,3.55-.71.3-1.41.6-2.12.89-.71.3-1.41.6-2.12.89-1.41.6-2.82,1.19-4.23,1.79-.71.3-1.41.6-2.12.89-.35.15-.71.3-1.06.45s-.71.3-1.06.45c-1.41.6-2.82,1.19-4.23,1.79-1.41.6-2.82,1.19-4.23,1.79-.71.3-1.41.6-2.12.9-.71.3-1.41.6-2.12.9l-2.09.89c-.7.3-1.4.59-2.09.88-.7.3-1.4.59-2.1.88-.35.15-.7.29-1.04.44-.35.15-.7.29-1.05.44-.17.07-.35.15-.53.22-.09.04-.18.08-.26.11s-.18.08-.26.11c-.36.15-.71.3-1.07.46-.36.15-.71.31-1.07.46-.18.08-.36.16-.53.23l-.53.23c-.71.31-1.42.63-2.12.95-.71.32-1.41.65-2.11.99-.69.33-1.37.67-2.05,1.02-.34.17-.68.35-1.01.53s-.67.36-1,.55c-1.34.74-2.65,1.53-3.92,2.37-.32.21-.64.42-.95.64-.32.22-.63.44-.94.66-.62.45-1.24.91-1.84,1.38-.3.24-.6.48-.9.72-.3.24-.59.49-.89.74-.59.5-1.16,1.02-1.72,1.54-.55.52-1.1,1.04-1.63,1.58-.27.27-.53.54-.79.82s-.52.55-.77.84c-1.03,1.13-2.01,2.3-2.94,3.51-.23.3-.46.61-.69.92s-.45.62-.68.93c-.45.63-.88,1.26-1.31,1.9-.85,1.29-1.66,2.61-2.42,3.95-.37.66-.74,1.33-1.09,2-.18.34-.35.67-.52,1.01-.17.34-.34.68-.51,1.02-.67,1.37-1.3,2.76-1.9,4.17-.6,1.42-1.17,2.85-1.7,4.29-.27.72-.53,1.45-.78,2.18-.13.37-.25.73-.37,1.1-.12.37-.24.74-.36,1.1-.94,2.91-1.78,5.86-2.54,8.83-.19.74-.37,1.49-.55,2.23-.18.75-.35,1.49-.52,2.24-.17.75-.33,1.5-.49,2.24-.16.75-.32,1.5-.47,2.25-.31,1.52-.59,3.05-.86,4.58-.27,1.52-.51,3.04-.74,4.56-.11.76-.22,1.51-.33,2.27-.1.76-.2,1.5-.29,2.26-.09.75-.18,1.5-.26,2.25-.04.38-.08.75-.12,1.13-.04.37-.08.74-.11,1.12"/>
    <path class="cls-3" d="M910.99,243.47c.46-.2.92-.39,1.38-.59.23-.1.46-.2.69-.29l.35-.15c.12-.05.23-.1.35-.15.92-.39,1.85-.78,2.77-1.17.92-.39,1.85-.78,2.77-1.17s1.84-.78,2.77-1.18,1.84-.78,2.77-1.18,1.84-.78,2.77-1.18c1.84-.78,3.69-1.57,5.53-2.35.23-.1.46-.19.69-.29.23-.1.46-.19.69-.29.46-.2.92-.39,1.38-.59.92-.39,1.84-.78,2.77-1.17,1.84-.78,3.69-1.57,5.53-2.35.46-.2.92-.39,1.38-.59.46-.19.92-.39,1.38-.59.92-.39,1.85-.78,2.77-1.17,1.85-.78,3.69-1.55,5.55-2.31.93-.38,1.85-.76,2.78-1.13.93-.38,1.86-.75,2.79-1.12,1.86-.74,3.73-1.46,5.61-2.17.94-.35,1.87-.7,2.81-1.04.94-.34,1.88-.68,2.82-1.01,1.89-.67,3.79-1.31,5.7-1.93.95-.31,1.9-.61,2.85-.91.95-.3,1.91-.59,2.87-.87,1.93-.57,3.86-1.11,5.81-1.62.24-.06.48-.12.72-.19.24-.06.48-.12.72-.18.48-.12.97-.24,1.45-.36.97-.24,1.94-.46,2.92-.68,1.96-.44,3.94-.85,5.91-1.22"/>
    <path class="cls-3" d="M864.99,319.71c.1-.98.2-1.93.32-2.9.06-.49.12-.97.18-1.46.03-.24.06-.49.09-.73.03-.24.07-.49.1-.73.13-.98.28-1.96.43-2.94.08-.49.15-.98.24-1.47.04-.25.08-.49.12-.74s.08-.49.13-.74c.33-1.93.7-3.86,1.1-5.78.4-1.94.84-3.87,1.31-5.79.23-.96.48-1.92.73-2.87.25-.95.51-1.91.78-2.85.54-1.89,1.12-3.78,1.74-5.64.08-.24.16-.47.24-.71.08-.23.16-.47.24-.7.16-.47.33-.93.5-1.4.34-.93.69-1.85,1.06-2.77.73-1.82,1.51-3.62,2.37-5.39.43-.9.88-1.78,1.34-2.66.46-.87.94-1.73,1.45-2.59.99-1.69,2.06-3.34,3.21-4.93.15-.2.29-.4.44-.6.15-.2.3-.4.45-.59.3-.39.61-.78.92-1.17.62-.77,1.26-1.52,1.92-2.25.33-.37.67-.72,1.01-1.08.34-.35.68-.7,1.03-1.05.7-.69,1.41-1.35,2.15-2,.75-.66,1.5-1.28,2.29-1.89.78-.6,1.58-1.18,2.39-1.74.2-.14.41-.28.61-.41.2-.14.41-.27.62-.4.41-.27.83-.53,1.25-.78.84-.51,1.69-1,2.55-1.47.87-.47,1.74-.93,2.63-1.36.88-.44,1.77-.86,2.67-1.27.45-.21.9-.41,1.35-.61.45-.2.9-.4,1.35-.6.11-.05.23-.1.34-.15s.22-.1.34-.15c.22-.1.45-.2.67-.29.45-.2.91-.39,1.36-.58"/>
    <path class="cls-3" d="M861.03,374.86c.29-4.6.6-9.19.91-13.79.16-2.3.31-4.6.47-6.89.08-1.15.16-2.29.24-3.44.04-.57.08-1.15.12-1.73.02-.29.04-.58.06-.86.02-.29.04-.58.06-.87.16-2.3.32-4.6.48-6.89.08-1.15.16-2.29.24-3.44.04-.57.08-1.15.12-1.73.02-.29.04-.58.06-.86.02-.29.04-.58.06-.86.08-1.15.17-2.29.25-3.44.04-.57.09-1.15.13-1.72.02-.29.04-.58.07-.86.02-.29.04-.58.07-.86.04-.57.09-1.14.14-1.72.05-.57.09-1.15.14-1.72.02-.29.05-.57.08-.86.01-.14.03-.29.04-.43.01-.14.03-.29.04-.43.03-.29.05-.58.08-.87.01-.14.03-.29.04-.43,0-.07.01-.14.02-.21,0-.07.01-.14.02-.21"/>
    <path class="cls-3" d="M858.28,424.46c0-.25.01-.51.02-.76,0-.26.01-.51.02-.77s.02-.51.03-.77c0-.26.02-.52.03-.77.02-.52.04-1.04.07-1.56.02-.53.05-1.04.07-1.57.05-1.03.1-2.06.16-3.08.03-.52.06-1.04.08-1.55.01-.26.03-.52.04-.78.01-.26.03-.52.04-.78.11-2.07.23-4.13.35-6.2.06-1.03.12-2.06.18-3.09.03-.52.06-1.04.09-1.55l.04-.78c.01-.26.03-.52.04-.78.48-8.31.96-16.49,1.49-24.8"/>
    <path class="cls-3" d="M892.37,476.4c1.32,0,2.64.01,3.95.01,1.32,0,2.64,0,3.96.01,2.58,0,5.33.02,7.91.04"/>
    <path class="cls-3" d="M877.95,476.34h0"/>
    <line class="cls-3" x1="775.14" y1="373.73" x2="773.1" y2="372.47"/>
    <line class="cls-3" x1="805.18" y1="108.54" x2="807.6" y2="106.49"/>
    <path class="cls-3" d="M909.16,476.5h.02"/>
    <path class="cls-3" d="M892.25,476.4s.08,0,.12,0"/>
    <path class="cls-3" d="M878.57,476.32c4.72.04,8.95.06,13.68.08"/>
    <path class="cls-3" d="M908.18,476.47c.32.02.65.03.97.03"/>
    <path class="cls-3" d="M237.14,209.67c-12.05,0-24.1,1.02-35.98,3.09-11.87,2.07-23.56,5.19-34.88,9.34"/>
    <path class="cls-3" d="M166.28,222.1c-7.59,2.78-15.01,6.03-22.19,9.74-7.18,3.71-14.12,7.86-20.76,12.47-6.64,4.61-12.98,9.65-18.93,15.11-5.96,5.46-11.53,11.33-16.65,17.59"/>
    <path class="cls-3" d="M388.43,277.25c-5.29-6.25-11.02-12.13-17.12-17.59s-12.56-10.51-19.33-15.13c-6.77-4.62-13.83-8.79-21.12-12.52-7.29-3.72-14.82-6.99-22.51-9.8"/>
    <path class="cls-3" d="M166.77,58.8c-.09,1.17-.02,2.34.2,3.49.06.29.12.58.19.87.02.07.04.15.06.22.02.07.04.15.06.22.04.15.09.29.13.43.19.59.42,1.16.68,1.72.23.51.49,1,.77,1.48.07.12.15.25.22.37.04.06.08.12.11.18.04.06.08.12.12.18.16.25.32.49.49.73.35.5.72.98,1.11,1.45.41.49.84.96,1.28,1.42.19.2.39.4.59.59.2.2.41.39.62.58.43.4.87.78,1.32,1.15.47.39.95.76,1.43,1.13.51.38,1.02.75,1.54,1.1.12.08.23.16.35.24.06.04.12.08.18.12.06.04.12.08.18.12.24.16.48.31.72.46.5.31,1,.62,1.51.91,1.06.62,2.15,1.2,3.24,1.76,1.04.52,2.09,1.02,3.16,1.49,1.12.49,2.25.96,3.38,1.4.54.21,1.08.41,1.63.61.14.05.28.1.41.15s.28.1.42.15c.28.1.56.2.84.29,1.15.4,2.3.77,3.47,1.12,1.13.34,2.25.67,3.39.97l.43.12c.15.04.29.08.44.12.29.08.58.15.88.23.59.15,1.18.3,1.77.44,2.32.55,4.66,1.04,7,1.47"/>
    <path class="cls-3" d="M87.74,277.01c-.14.2-.29.41-.43.61-.14.2-.29.41-.43.61-.29.41-.57.81-.86,1.22-.14.2-.28.41-.43.61-.14.2-.28.41-.42.61-.14.2-.28.41-.42.61-.14.2-.28.41-.42.61-.28.41-.57.82-.85,1.24-.14.21-.28.41-.42.62-.14.21-.28.41-.42.62-.28.41-.55.82-.83,1.23-.28.41-.55.82-.82,1.23-2.2,3.32-4.32,6.67-6.35,10.09-2.03,3.42-3.97,6.88-5.8,10.42-1.83,3.53-3.53,7.12-5.11,10.77"/>
    <path class="cls-3" d="M271.05,88.34c4.82-.86,9.66-1.97,14.36-3.36,1.2-.35,2.39-.73,3.58-1.13,1.15-.38,2.29-.79,3.42-1.21.59-.22,1.19-.45,1.78-.69.29-.12.58-.23.87-.35.07-.03.14-.06.22-.09l.05-.02.05-.02.11-.04c.14-.06.28-.12.43-.18,1.1-.47,2.2-.96,3.28-1.49,1.14-.55,2.27-1.13,3.37-1.75,1.04-.58,2.07-1.19,3.07-1.84.55-.35,1.09-.71,1.62-1.09.51-.36,1.02-.73,1.51-1.11.48-.37.95-.75,1.41-1.14.44-.38.87-.76,1.3-1.16l.18-.17c.06-.06.12-.12.18-.17.12-.12.24-.23.35-.35.23-.23.46-.47.68-.71.43-.46.84-.93,1.23-1.42.37-.47.73-.95,1.07-1.45.32-.47.62-.96.9-1.46.31-.56.6-1.14.85-1.74.24-.57.45-1.16.62-1.75.17-.58.29-1.17.38-1.76.04-.29.08-.59.1-.88,0-.04,0-.07,0-.11,0-.04,0-.07,0-.11,0-.07,0-.15.01-.22,0-.15.01-.3.01-.44"/>
    <path class="cls-3" d="M367.22,68.79c1.34.55,2.66,1.13,3.97,1.75.65.31,1.3.62,1.94.95.64.33,1.28.66,1.91,1.01,1.27.69,2.52,1.43,3.74,2.2.61.39,1.21.78,1.8,1.19.3.2.59.41.88.62.29.21.58.42.87.63,2.32,1.71,4.52,3.6,6.55,5.65.26.26.51.52.76.78.25.26.5.53.74.8.49.53.96,1.08,1.43,1.63.93,1.1,1.81,2.24,2.64,3.41.21.3.42.59.62.89.2.3.4.6.6.9.39.6.78,1.22,1.15,1.84.74,1.23,1.43,2.5,2.08,3.78.16.32.32.65.48.98.16.33.31.65.46.98.3.66.59,1.32.87,1.98.55,1.33,1.07,2.67,1.54,4.03.24.68.46,1.37.68,2.06.21.69.42,1.38.62,2.08.39,1.39.74,2.78,1.06,4.19.08.35.16.71.23,1.06.08.35.15.71.22,1.06.14.71.27,1.42.4,2.13.25,1.42.47,2.84.66,4.27"/>
    <path class="cls-3" d="M413.42,318.4c-1.69-3.65-3.5-7.23-5.42-10.76-1.92-3.53-3.95-7-6.07-10.42-2.12-3.42-4.31-6.78-6.57-10.11-.56-.83-1.13-1.65-1.7-2.48-.14-.21-.29-.41-.43-.62-.14-.21-.29-.41-.43-.62-.29-.41-.58-.83-.87-1.24-.14-.2-.29-.41-.43-.61-.14-.2-.29-.41-.43-.61-.14-.2-.29-.41-.44-.61-.15-.2-.29-.41-.44-.61-.29-.41-.58-.82-.88-1.23-.15-.2-.29-.41-.44-.61-.15-.21-.3-.41-.44-.62"/>
    <path class="cls-3" d="M877.28,476.31c.22.02.44.03.67.04"/>
    <path class="cls-3" d="M78.6,274.04c-1.7-1.87-3.29-3.85-4.74-5.92-1.44-2.08-2.73-4.26-3.83-6.54-1.09-2.29-1.98-4.66-2.61-7.11s-1.01-4.96-1.09-7.49"/>
    <path class="cls-3" d="M402.98,279.79c.07-3.37.16-6.74.26-10.11.05-1.68.1-3.37.15-5.05.06-1.68.11-3.37.18-5.05,0-.21.02-.42.02-.63,0-.21.02-.42.02-.63.02-.42.03-.84.05-1.26.03-.84.07-1.69.1-2.53.07-1.68.15-3.37.22-5.05,0-.21.02-.42.03-.63,0-.21.02-.42.03-.63.02-.42.04-.84.06-1.26.04-.84.08-1.69.13-2.53.09-1.68.18-3.37.28-5.05"/>
    <path class="cls-3" d="M63.72,318.12c.66-6.5,1.32-12.99,1.98-19.49"/>
    <path class="cls-3" d="M413.07,298.91c.12,6.5.23,13,.35,19.49"/>
    <path class="cls-3" d="M80.11,123.87c.07-.82.15-1.65.24-2.47"/>
    <path class="cls-3" d="M407.04,132.79s0,0,0,0"/>
    <path class="cls-3" d="M80.26,122.11s0,0,0,0"/>
    <path class="cls-3" d="M308.35,222.21c-11.38-4.15-23.13-7.28-35.06-9.38-11.93-2.1-24.04-3.15-36.15-3.16"/>
    <path class="cls-3" d="M211.1,88.29c2.46.45,4.93.84,7.41,1.16,1.24.16,2.48.31,3.72.45.62.07,1.24.13,1.86.19.31.03.62.06.93.09.31.03.63.06.94.08,1.25.11,2.49.2,3.74.28.62.04,1.25.08,1.87.11.31.02.62.03.94.05.31.02.62.03.94.04,2.52.11,4.97.16,7.5.16"/>
    <path class="cls-3" d="M117.84,68.61c3.85-1.59,7.84-2.9,11.86-4,4.02-1.1,8.12-1.99,12.22-2.74,4.1-.75,8.25-1.35,12.39-1.85,4.13-.5,8.31-.89,12.47-1.22"/>
    <path class="cls-3" d="M80.34,121.4c.08-.7.16-1.4.25-2.1"/>
    <path class="cls-3" d="M240.96,90.91c2.54,0,5.01-.05,7.56-.15.16,0,.31-.01.47-.02.16,0,.31-.01.47-.02.31-.01.63-.03.94-.05.63-.03,1.26-.07,1.89-.11,1.26-.08,2.51-.17,3.77-.28.31-.03.63-.05.94-.08.31-.03.63-.06.94-.09.63-.06,1.25-.12,1.88-.19,1.25-.13,2.5-.28,3.75-.44,2.5-.32,4.99-.7,7.47-1.15"/>
    <path class="cls-3" d="M318.03,58.91c4.17.33,8.37.73,12.53,1.24,4.16.5,8.33,1.12,12.45,1.87,4.12.75,8.24,1.66,12.28,2.76,4.04,1.1,8.05,2.42,11.93,4.01"/>
    <path class="cls-3" d="M853.99,425.02c0,.29-.01.59-.02.88,0,.15,0,.3,0,.44s0,.29,0,.44c0,.58,0,1.16,0,1.74,0,.57.02,1.14.04,1.71.02.56.04,1.12.07,1.67.06,1.07.14,2.15.24,3.22.1,1.01.22,2.03.37,3.04.01.08.02.16.04.24l.04.23c.02.15.05.31.08.46.05.3.1.61.16.91.11.59.23,1.18.36,1.76.03.14.06.28.1.43.02.07.03.14.05.21.02.07.03.14.05.21.07.28.14.55.21.83.14.53.3,1.06.47,1.59.32,1,.7,1.97,1.13,2.93.1.23.21.46.33.68.11.22.23.44.34.66.23.43.48.85.75,1.27.56.87,1.18,1.69,1.88,2.45.17.19.35.38.54.56.09.09.18.18.28.27.09.09.19.18.28.27.39.36.79.7,1.21,1.02.88.68,1.81,1.28,2.78,1.81.26.14.51.27.77.4.07.03.13.07.2.1.07.03.13.06.2.1.14.06.27.13.41.19.56.26,1.13.49,1.7.71.93.35,1.87.65,2.82.91.5.14,1.01.27,1.52.39.26.06.52.12.78.17.27.06.53.11.8.16.55.11,1.1.2,1.65.29.57.09,1.14.17,1.71.24.15.02.29.04.44.05.07,0,.15.02.22.03l.22.02c.3.03.59.06.89.09.61.06,1.21.11,1.82.15.53.04,1.06.07,1.58.1.13,0,.27.01.4.02.13,0,.27.01.4.02.27.01.54.02.81.03,1.09.04,2.19.07,3.29.08.14,0,.28,0,.42,0,.14,0,.28,0,.42,0,.28,0,.56,0,.83,0,.56,0,1.12,0,1.68,0,.56,0,1.12,0,1.69,0,.14,0,.28,0,.42,0,.14,0,.28,0,.42,0,.28,0,.55,0,.83,0,.27,0,.55,0,.82,0,.27,0,.55,0,.82,0,.55,0,1.1,0,1.65,0s1.1,0,1.65,0c.55,0,1.1,0,1.65,0h1.65c.55,0,1.1-.01,1.65-.01,1.1,0,2.19,0,3.29-.01,2.2,0,4.39-.01,6.59-.02.55,0,1.1,0,1.65,0,.55,0,1.1,0,1.65,0,1.1,0,2.19,0,3.29,0,1.1,0,2.19,0,3.29,0,.55,0,1.1,0,1.65,0,.55,0,1.1,0,1.65,0,2.2,0,4.39-.01,6.59-.03"/>
    <line class="cls-3" x1="773.1" y1="372.48" x2="770.55" y2="373.35"/>
    <path class="cls-3" d="M69.78,639.16c-.01.15-.03.31-.04.46"/>
    <line class="cls-3" x1="142.3" y1="732.01" x2="140.63" y2="757.47"/>
    <path class="cls-3" d="M68.71,651.14c-.25,2.88-.4,5.78-.44,8.67-.02,1.45-.01,2.9.02,4.34,0,.36.02.72.03,1.09.01.36.03.72.04,1.08.03.72.07,1.45.11,2.17.35,5.79,1.12,11.53,2.3,17.2"/>
    <path class="cls-3" d="M387.42,664.51c-.02-2.37-.11-4.74-.27-7.11-.17-2.42-.41-4.84-.72-7.24-.32-2.46-.72-4.91-1.19-7.35-.48-2.49-1.04-4.97-1.68-7.42-1.21-4.66-2.7-9.25-4.44-13.74-1.81-4.66-3.9-9.21-6.24-13.64-2.27-4.28-4.77-8.42-7.48-12.43-2.8-4.12-5.82-8.09-9.04-11.9-3.14-3.71-6.47-7.26-9.97-10.64-3.56-3.44-7.29-6.71-11.17-9.79-7.69-6.11-15.95-11.49-24.61-16.12-8.66-4.63-17.72-8.5-27.04-11.6-4.7-1.57-9.47-2.94-14.28-4.11-4.73-1.15-9.5-2.12-14.31-2.89-4.92-.79-9.88-1.39-14.85-1.78-4.82-.38-9.65-.57-14.48-.58"/>
    <path class="cls-3" d="M896.09,459.05c-.65,0-1.29.02-1.94.02-.32,0-.64,0-.96,0-.32,0-.64,0-.97,0-.32,0-.64,0-.96,0-.16,0-.32,0-.48,0-.16,0-.32,0-.48,0-.63,0-1.27-.01-1.9-.03-1.32-.03-2.62-.08-3.94-.17-.63-.04-1.27-.09-1.9-.16-.16-.01-.31-.03-.47-.05-.08,0-.15-.02-.23-.03-.08,0-.15-.02-.23-.03-.3-.03-.61-.07-.91-.11-.68-.09-1.35-.19-2.02-.31-.33-.06-.65-.12-.98-.19-.16-.03-.32-.07-.48-.1-.16-.03-.31-.07-.47-.11-.61-.14-1.22-.3-1.82-.47-.29-.08-.58-.17-.87-.26-.07-.02-.14-.05-.21-.07-.07-.02-.14-.05-.21-.07-.14-.05-.28-.1-.42-.15-.65-.23-1.29-.48-1.92-.77-.15-.07-.3-.14-.45-.21-.15-.07-.3-.14-.44-.22-.29-.14-.57-.29-.86-.45-.54-.3-1.07-.63-1.59-.98-.5-.34-.97-.7-1.43-1.09-.25-.21-.49-.42-.73-.64-.12-.11-.23-.22-.35-.33-.11-.11-.23-.23-.34-.34-.44-.46-.85-.94-1.24-1.44-.39-.5-.75-1.03-1.08-1.57-.17-.27-.33-.55-.49-.84-.08-.14-.16-.29-.23-.43-.08-.15-.15-.29-.22-.44-.27-.54-.51-1.09-.73-1.65-.23-.58-.45-1.17-.64-1.76-.2-.62-.39-1.25-.55-1.88-.04-.16-.08-.33-.13-.49-.02-.08-.04-.16-.06-.25s-.04-.17-.06-.25c-.08-.34-.16-.67-.23-1.01-.12-.59-.24-1.18-.34-1.78-.03-.15-.05-.31-.08-.46-.01-.08-.03-.15-.04-.23s-.02-.15-.04-.23c-.05-.31-.09-.63-.14-.94-.09-.65-.16-1.3-.23-1.95-.02-.17-.03-.33-.05-.5,0-.08-.02-.17-.02-.25s-.01-.17-.02-.25c-.03-.34-.06-.68-.08-1.02-.04-.62-.08-1.24-.11-1.85-.01-.32-.03-.63-.04-.95,0-.16-.01-.32-.02-.48,0-.16,0-.32-.01-.48-.01-.65-.02-1.3-.02-1.95,0-.16,0-.33,0-.49,0-.16,0-.33,0-.49,0-.33,0-.66.01-1"/>
    <path class="cls-3" d="M981.28,457.55c-1.79,0-3.58,0-5.37.01-.88,0-1.77.02-2.65.03-.44,0-.88.01-1.32.02-.22,0-.44,0-.66.01-.22,0-.44,0-.65.01-1.79.03-3.58.08-5.37.12-1.76.05-3.52.1-5.28.15l-.67.02c-.22,0-.45.01-.67.02-.45.01-.89.03-1.34.04-.89.03-1.78.05-2.67.08-1.76.05-3.53.11-5.29.15-.45.01-.89.02-1.34.04-.45.01-.89.02-1.34.03-.89.02-1.78.05-2.67.07-1.77.04-3.53.08-5.3.11-.44,0-.89.02-1.33.02-.44,0-.89.01-1.33.02-.89.01-1.78.03-2.66.04-1.77.02-3.55.04-5.32.06-1.77.02-3.55.04-5.32.06-1.78.02-3.55.04-5.33.07-.44,0-.89.01-1.33.02-.44,0-.89.01-1.33.02-.89.01-1.77.02-2.66.03-1.78.02-3.55.05-5.33.07-1.77.02-3.55.05-5.32.08-.44,0-.89.01-1.33.02-.44,0-.89.01-1.33.02-.22,0-.45,0-.67,0-.22,0-.45,0-.67.01-.44,0-.88.01-1.33.02"/>
    <path class="cls-3" d="M225.65,526.15c-4.51,0-9.03.16-13.53.48-4.63.34-9.24.85-13.83,1.53-4.49.67-8.96,1.51-13.39,2.52-4.5,1.02-8.96,2.22-13.37,3.6-8.75,2.73-17.28,6.14-25.47,10.24-8.19,4.1-16.04,8.89-23.4,14.34-3.71,2.75-7.29,5.67-10.73,8.75-3.39,3.03-6.63,6.23-9.71,9.57-3.14,3.41-6.11,6.97-8.89,10.68-2.71,3.62-5.24,7.38-7.57,11.27-2.39,3.98-4.56,8.09-6.49,12.32-1.88,4.09-3.53,8.29-4.95,12.56-1.47,4.43-2.68,8.93-3.62,13.5-.91,4.41-1.57,8.86-1.97,13.34"/>
    <path class="cls-3" d="M229.85,799.15c-4.52,0-9.03-.18-13.53-.52-4.65-.35-9.28-.89-13.89-1.61-4.73-.73-9.43-1.66-14.09-2.77-4.75-1.14-9.45-2.47-14.09-4-8.95-2.95-17.66-6.63-25.99-11.03-8.34-4.4-16.3-9.53-23.73-15.34-3.83-3-7.51-6.18-11.03-9.54-3.46-3.3-6.75-6.77-9.86-10.4-3.04-3.55-5.89-7.25-8.55-11.1-2.59-3.74-4.98-7.62-7.16-11.61-2.39-4.37-4.52-8.88-6.36-13.51-1.78-4.46-3.3-9.01-4.53-13.65-1.19-4.46-2.11-8.98-2.77-13.55-.32-2.21-.57-4.44-.76-6.67-.09-1.1-.17-2.2-.23-3.3-.03-.55-.06-1.09-.08-1.64-.02-.54-.04-1.09-.06-1.63-.12-4.45.02-8.89.42-13.33.42-4.61,1.11-9.18,2.08-13.7,1.01-4.7,2.3-9.33,3.88-13.87,1.64-4.71,3.57-9.3,5.78-13.77,2.01-4.07,4.25-8.02,6.7-11.84,2.51-3.93,5.24-7.71,8.17-11.35,3-3.72,6.19-7.28,9.57-10.66,3.44-3.45,7.06-6.71,10.84-9.79,7.3-5.94,15.16-11.15,23.43-15.63,8.31-4.5,17.02-8.24,25.99-11.23,4.61-1.54,9.29-2.87,14.01-4.01,4.65-1.12,9.34-2.05,14.07-2.78,4.62-.72,9.26-1.25,13.92-1.6,4.53-.34,9.07-.51,13.61-.5"/>
    <path class="cls-3" d="M229.85,799.15c0,.37.01.78.03,1.16,0,.19.01.39.02.58,0,.05,0,.1,0,.16,0,.04,0,.09,0,.13,0,.04,0,.08.01.12,0,.02,0,.03,0,.05,0,.01,0,.03,0,.04,0,.01,0,.02,0,.03,0,0,0,.01,0,.02,0,0,0,0,0,0,0,0,0,0,0,0s0,0,0,0c0,0,0,0,0,0"/>
    <path class="cls-3" d="M229.85,799.15c4.53,0,9.06-.16,13.58-.5,4.66-.35,9.3-.88,13.91-1.6,4.73-.73,9.42-1.66,14.07-2.78,4.73-1.14,9.42-2.48,14.03-4.01,8.96-2.98,17.66-6.72,25.97-11.21,8.28-4.48,16.16-9.7,23.47-15.65,3.77-3.07,7.39-6.33,10.83-9.78,3.38-3.38,6.57-6.94,9.57-10.66,2.93-3.64,5.66-7.43,8.18-11.36,2.45-3.83,4.7-7.79,6.71-11.87,2.2-4.45,4.12-9.03,5.75-13.72,1.58-4.53,2.87-9.14,3.88-13.83.97-4.52,1.67-9.09,2.09-13.69.2-2.24.34-4.48.41-6.72.02-.55.03-1.11.04-1.66,0-.55.01-1.1.02-1.66,0-1.11,0-2.22-.04-3.33-.12-4.43-.49-8.84-1.12-13.22-.65-4.57-1.58-9.1-2.77-13.56-1.24-4.65-2.76-9.22-4.54-13.68-1.86-4.64-3.99-9.17-6.39-13.56-2.18-3.98-4.56-7.85-7.14-11.58-2.65-3.84-5.51-7.54-8.54-11.08-3.11-3.63-6.4-7.1-9.85-10.4-3.52-3.36-7.21-6.55-11.04-9.55-7.42-5.81-15.37-10.93-23.7-15.32-8.34-4.4-17.06-8.09-26.01-11.04-4.63-1.53-9.33-2.86-14.07-3.99-4.66-1.11-9.35-2.04-14.08-2.77-4.61-.72-9.25-1.25-13.9-1.61-4.51-.35-9.03-.52-13.56-.52"/>
    <path class="cls-3" d="M382.56,699c1.65-5.59,2.89-11.3,3.7-17.07.41-2.89.71-5.79.9-8.69.1-1.45.17-2.91.21-4.37.02-.73.04-1.46.04-2.19,0-.36,0-.73,0-1.09,0-.36,0-.73,0-1.09"/>
    <line class="cls-3" x1="226.59" y1="594.78" x2="226.77" y2="596.64"/>
    <line class="cls-3" x1="230.47" y1="765.35" x2="229.65" y2="786.49"/>
    <line class="cls-3" x1="103.11" y1="657.66" x2="101.41" y2="679.25"/>
    <line class="cls-3" x1="354.53" y1="657.69" x2="354.49" y2="679.48"/>
    <line class="cls-3" x1="227.13" y1="546.79" x2="226.18" y2="569.16"/>
    <line class="cls-3" x1="231.38" y1="818.28" x2="231.05" y2="815.29"/>
  </g>
  <g id="Make2D::可见线::曲线">
    <path class="cls-3" d="M238.85,558.49c-.06,1.54-.48,3.02-1.21,4.37-.36.67-.8,1.3-1.29,1.88-.5.58-1.05,1.11-1.65,1.58-.6.47-1.24.89-1.92,1.24s-1.38.65-2.1.89c-1.45.48-2.97.71-4.5.71"/>
    <path class="cls-3" d="M307.64,667.24c-.04,2.33-.22,4.66-.53,6.98-.33,2.4-.8,4.78-1.42,7.13-.6,2.26-1.32,4.49-2.18,6.67-.88,2.25-1.9,4.45-3.03,6.58-1.1,2.07-2.32,4.08-3.65,6.02-1.36,1.99-2.82,3.91-4.39,5.74-1.53,1.8-3.15,3.51-4.86,5.14-1.73,1.66-3.55,3.23-5.43,4.71-3.74,2.94-7.76,5.52-11.97,7.74-4.21,2.21-8.62,4.06-13.14,5.53-2.28.74-4.59,1.39-6.93,1.94-2.3.54-4.61,1-6.94,1.36-2.39.37-4.79.65-7.19.83-2.34.18-4.68.26-7.02.26"/>
    <path class="cls-3" d="M432.56,641.63c.03,1.52.04,3.03.03,4.55,0,.38,0,.75-.01,1.13,0,.38-.01.75-.02,1.13-.02.76-.04,1.52-.07,2.27-.12,3.07-.33,6.13-.63,9.19-.31,3.12-.71,6.22-1.21,9.31-.51,3.15-1.12,6.28-1.83,9.39-1.35,5.96-3.06,11.83-5.11,17.58-2.12,5.95-4.59,11.77-7.4,17.42-2.73,5.49-5.77,10.82-9.09,15.98-3.41,5.29-7.12,10.38-11.09,15.26-3.89,4.78-8.03,9.34-12.39,13.69-4.44,4.42-9.1,8.62-13.96,12.57-4.8,3.91-9.79,7.58-14.94,11.02-5.19,3.46-10.53,6.67-16.01,9.64-10.93,5.91-22.38,10.84-34.16,14.77-5.94,1.99-11.97,3.72-18.06,5.2-5.98,1.45-12.03,2.67-18.11,3.63-6.23.99-12.49,1.73-18.78,2.21-6.1.47-12.21.7-18.33.7"/>
    <line class="cls-3" x1="387.33" y1="652.79" x2="387.42" y2="664.51"/>
    <path class="cls-3" d="M216.99,775.36c.03-.73.15-1.45.36-2.16s.49-1.38.86-2.01.79-1.23,1.28-1.77c.49-.55,1.03-1.04,1.61-1.48.58-.44,1.21-.83,1.86-1.16s1.33-.6,2.03-.82c1.4-.44,2.86-.65,4.32-.65"/>
    <path class="cls-3" d="M88.41,667.27c.12-1.45.57-2.83,1.31-4.07.37-.62.8-1.2,1.28-1.73.49-.53,1.02-1.01,1.6-1.44,1.16-.86,2.46-1.5,3.84-1.93,1.38-.43,2.82-.64,4.25-.64"/>
    <path class="cls-3" d="M341.82,668.52c0-.38.03-.75.08-1.13.05-.39.12-.78.22-1.16.19-.75.47-1.47.83-2.15.36-.68.79-1.32,1.29-1.91.5-.59,1.06-1.12,1.66-1.6.6-.48,1.25-.9,1.93-1.26.68-.36,1.39-.66,2.12-.9,1.46-.48,3.01-.72,4.54-.72"/>
    <path class="cls-3" d="M213.16,557.32c.07-1.53.5-3,1.23-4.34.37-.67.8-1.29,1.3-1.86.5-.57,1.05-1.1,1.65-1.57s1.24-.88,1.91-1.23c.67-.35,1.37-.65,2.1-.88,1.44-.47,2.96-.7,4.48-.7"/>
    <path class="cls-3" d="M229.1,392.13c-4.41,0-8.83.12-13.23.37-4.51.26-9.01.65-13.49,1.18-4.4.52-8.79,1.16-13.15,1.94-4.43.79-8.84,1.71-13.21,2.77-8.69,2.1-17.24,4.72-25.6,7.88-8.36,3.15-16.51,6.83-24.4,11.04-7.88,4.2-15.49,8.93-22.73,14.16-7.24,5.23-14.11,10.97-20.53,17.19-3.23,3.13-6.34,6.39-9.33,9.76-2.94,3.32-5.75,6.75-8.43,10.28-2.72,3.59-5.3,7.3-7.72,11.1-2.37,3.73-4.6,7.55-6.66,11.46"/>
    <path class="cls-3" d="M231.38,818.28c-6.52,0-13.03-.28-19.52-.82-6.72-.56-13.42-1.41-20.07-2.55-6.47-1.11-12.9-2.48-19.26-4.13-6.48-1.68-12.9-3.64-19.21-5.89-12.51-4.44-24.63-9.98-36.14-16.6-5.78-3.32-11.4-6.91-16.83-10.77-5.39-3.83-10.59-7.91-15.58-12.25-5.06-4.4-9.89-9.07-14.46-13.98-4.48-4.81-8.7-9.85-12.63-15.11-4.04-5.4-7.77-11.03-11.16-16.86-3.28-5.65-6.23-11.48-8.83-17.47-1.36-3.13-2.62-6.31-3.78-9.52-1.13-3.15-2.17-6.33-3.11-9.55-.92-3.15-1.73-6.33-2.45-9.53-.7-3.13-1.31-6.29-1.81-9.46-.53-3.3-.94-6.61-1.25-9.93-.15-1.63-.28-3.27-.38-4.91-.05-.81-.09-1.62-.13-2.44-.04-.81-.07-1.62-.09-2.43-.09-3.29-.08-6.59.04-9.88.12-3.37.36-6.73.71-10.08"/>
    <path class="cls-3" d="M229.1,392.13c18.59.01,37.17,2.3,55.21,6.82,9.02,2.26,17.9,5.08,26.57,8.46,8.66,3.37,17.11,7.3,25.26,11.77,8.15,4.47,16.01,9.48,23.48,15.02,7.47,5.54,14.55,11.6,21.14,18.16,3.32,3.31,6.52,6.74,9.59,10.29,3.01,3.49,5.89,7.1,8.62,10.81,2.78,3.78,5.42,7.68,7.89,11.67,2.41,3.91,4.67,7.91,6.75,12"/>
    <path class="cls-3" d="M113.7,669.37c-.11,1.45-.56,2.84-1.29,4.1-.36.62-.8,1.21-1.28,1.74-.49.54-1.02,1.02-1.6,1.45-.58.43-1.2.81-1.84,1.14s-1.32.59-2.01.81c-1.38.43-2.83.64-4.27.64"/>
    <line class="cls-3" x1="68.73" y1="650.85" x2="69.78" y2="639.16"/>
    <line class="cls-3" x1="25.45" y1="624.13" x2="33.41" y2="547.53"/>
    <path class="cls-3" d="M333.16,768.46c-.31.14-.62.27-.93.4-.16.06-.31.13-.47.19-.16.06-.31.13-.47.19"/>
    <path class="cls-3" d="M364.7,735.75l-.08.22c-.03.07-.05.15-.08.22-.06.15-.11.29-.17.44"/>
    <path class="cls-3" d="M140.63,757.47c-1.93,0-3.86-.32-5.69-.95-.91-.31-1.8-.71-2.65-1.17-.85-.47-1.65-1.01-2.39-1.63-.74-.62-1.43-1.31-2.03-2.07-.31-.38-.59-.79-.85-1.2-.25-.4-.48-.82-.68-1.25-.21-.45-.4-.9-.55-1.37-.15-.45-.27-.91-.36-1.37-.09-.48-.16-.96-.19-1.45-.03-.48-.03-.95,0-1.43"/>
    <path class="cls-3" d="M229.65,786.49c-1.56,0-3.13-.25-4.61-.75-.74-.25-1.46-.56-2.15-.93s-1.35-.81-1.95-1.3c-.61-.49-1.17-1.04-1.67-1.65s-.93-1.26-1.28-1.97c-.18-.36-.33-.72-.47-1.1-.13-.36-.23-.73-.32-1.1-.09-.39-.15-.78-.18-1.18-.02-.19-.03-.38-.03-.58,0-.1,0-.19,0-.29,0-.1,0-.19,0-.29"/>
    <path class="cls-3" d="M101.41,679.25c-1.65,0-3.3-.28-4.86-.83-.78-.27-1.54-.62-2.25-1.02-.72-.41-1.4-.88-2.03-1.42-.63-.54-1.2-1.13-1.71-1.79-.5-.65-.94-1.36-1.28-2.11-.18-.38-.33-.78-.45-1.18-.12-.38-.22-.78-.29-1.17-.07-.41-.12-.82-.14-1.24,0-.1,0-.2,0-.3,0-.1,0-.2,0-.31,0-.21.01-.41.03-.62"/>
    <path class="cls-3" d="M354.49,679.48c-1.55,0-3.1-.25-4.57-.74-.74-.24-1.45-.55-2.13-.92-.68-.37-1.33-.79-1.94-1.28-.6-.48-1.16-1.03-1.66-1.62-.5-.6-.93-1.24-1.28-1.93-.35-.69-.63-1.41-.81-2.17-.09-.38-.16-.77-.21-1.17-.02-.19-.04-.38-.05-.57,0-.09,0-.19-.01-.28,0-.09,0-.19,0-.28"/>
    <path class="cls-3" d="M226.18,569.16c-1.64,0-3.27-.28-4.82-.82-.77-.27-1.52-.61-2.23-1.01-.71-.4-1.39-.87-2.01-1.4-.63-.53-1.2-1.12-1.7-1.77-.5-.65-.94-1.34-1.29-2.08-.18-.38-.33-.76-.46-1.16-.13-.38-.23-.77-.31-1.16-.08-.41-.14-.82-.17-1.24,0-.1-.01-.2-.02-.3s0-.2,0-.3c0-.2,0-.4,0-.6"/>
    <path class="cls-3" d="M228.96,733.87c-2.5,0-5-.11-7.49-.31-2.58-.21-5.15-.53-7.7-.96-2.48-.42-4.95-.93-7.4-1.55-2.49-.63-4.95-1.37-7.38-2.21-4.81-1.67-9.48-3.75-13.92-6.23-4.44-2.48-8.66-5.37-12.56-8.65-1.97-1.66-3.85-3.41-5.64-5.26-1.75-1.81-3.41-3.71-4.97-5.69-1.59-2.04-3.08-4.16-4.43-6.36-1.31-2.13-2.51-4.34-3.57-6.61-1.1-2.35-2.05-4.76-2.85-7.23-.77-2.37-1.4-4.78-1.87-7.23-.49-2.53-.82-5.08-.98-7.65-.04-.62-.07-1.25-.09-1.87,0-.31-.02-.62-.02-.93,0-.31,0-.62,0-.94,0-1.27.04-2.53.12-3.8"/>
    <path class="cls-3" d="M149.11,653.29c.13,2.33.4,4.66.81,6.96.42,2.4.99,4.77,1.7,7.1.68,2.24,1.49,4.45,2.42,6.6.96,2.23,2.05,4.4,3.25,6.51,1.17,2.04,2.44,4.02,3.82,5.93,1.41,1.96,2.92,3.85,4.53,5.65,1.57,1.77,3.23,3.46,4.96,5.07,1.76,1.64,3.6,3.19,5.51,4.65,3.79,2.91,7.83,5.46,12.07,7.66,4.23,2.2,8.65,4.04,13.19,5.52,2.29.75,4.61,1.4,6.96,1.96,2.3.55,4.62,1.01,6.96,1.37,2.39.38,4.8.66,7.22.85,2.34.18,4.69.27,7.03.28"/>
    <path class="cls-3" d="M307.32,660.07c-.3,2.16-.72,4.31-1.26,6.42-.55,2.19-1.23,4.34-2.03,6.45-.77,2.05-1.65,4.06-2.64,6.01-1.01,2.01-2.13,3.97-3.35,5.86-1.19,1.85-2.47,3.64-3.84,5.36-1.4,1.76-2.88,3.45-4.44,5.06-3.09,3.2-6.48,6.09-10.1,8.67-3.62,2.58-7.45,4.85-11.45,6.79-4,1.94-8.15,3.56-12.4,4.85-4.25,1.29-8.6,2.25-13,2.9-2.23.33-4.47.57-6.72.73-2.19.15-4.38.23-6.57.23"/>
    <path class="cls-3" d="M228.92,740.8c-2.48,0-4.96-.1-7.43-.29-2.55-.2-5.1-.49-7.63-.88-2.6-.4-5.18-.91-7.73-1.52-2.61-.62-5.19-1.36-7.74-2.19-4.91-1.62-9.7-3.64-14.28-6.06-4.58-2.42-8.95-5.23-13.03-8.42-2.1-1.65-4.12-3.39-6.05-5.24-1.9-1.81-3.7-3.72-5.41-5.71-1.67-1.95-3.24-3.98-4.69-6.09-1.42-2.05-2.73-4.18-3.93-6.37-1.31-2.41-2.49-4.88-3.5-7.43-.98-2.45-1.81-4.96-2.49-7.51-.65-2.45-1.16-4.94-1.52-7.45-.35-2.41-.55-4.84-.62-7.27-.06-2.44.01-4.88.23-7.32.23-2.53.61-5.04,1.14-7.52.55-2.58,1.27-5.12,2.13-7.61.9-2.58,1.96-5.1,3.17-7.56,1.11-2.23,2.33-4.4,3.68-6.5,1.38-2.16,2.88-4.24,4.49-6.23,1.65-2.04,3.4-3.99,5.25-5.85,1.89-1.89,3.88-3.68,5.95-5.37,4.01-3.26,8.33-6.12,12.87-8.58,4.56-2.47,9.35-4.52,14.27-6.16,2.53-.84,5.1-1.58,7.7-2.2,2.55-.61,5.13-1.12,7.72-1.53,2.54-.39,5.09-.69,7.64-.88,2.49-.19,4.98-.28,7.47-.28"/>
    <path class="cls-3" d="M226.59,594.78c2.48,0,4.97.1,7.44.29,2.55.19,5.1.49,7.63.88,2.6.4,5.18.91,7.73,1.52,2.61.62,5.18,1.35,7.73,2.19,4.92,1.62,9.7,3.64,14.29,6.06,4.58,2.42,8.94,5.23,13.02,8.42,2.1,1.65,4.13,3.4,6.06,5.24,1.9,1.81,3.7,3.72,5.41,5.71,1.67,1.95,3.23,3.98,4.69,6.09,1.42,2.05,2.73,4.17,3.92,6.36,1.32,2.41,2.49,4.89,3.51,7.44.98,2.45,1.81,4.96,2.49,7.51.65,2.45,1.16,4.93,1.52,7.45.34,2.41.55,4.83.61,7.26.03,1.21.03,2.43,0,3.64-.04,1.23-.11,2.46-.23,3.69-.23,2.53-.61,5.04-1.15,7.52-.55,2.58-1.27,5.11-2.13,7.6-.9,2.58-1.96,5.1-3.17,7.54-1.11,2.24-2.34,4.41-3.68,6.51-1.38,2.16-2.88,4.24-4.49,6.23-1.65,2.04-3.4,3.99-5.25,5.85-1.89,1.89-3.87,3.68-5.95,5.37-4.01,3.26-8.33,6.13-12.88,8.58-4.56,2.47-9.34,4.52-14.26,6.16-2.53.84-5.11,1.58-7.7,2.2-2.55.61-5.13,1.12-7.73,1.52-2.53.39-5.08.69-7.64.88-2.48.19-4.97.28-7.46.28"/>
    <path class="cls-3" d="M125.24,743.58c.06-.86.22-1.71.48-2.53.26-.82.61-1.61,1.05-2.35.44-.74.95-1.44,1.54-2.07.58-.64,1.23-1.21,1.92-1.72.69-.51,1.43-.96,2.2-1.35s1.57-.7,2.4-.96c1.65-.51,3.37-.76,5.09-.76"/>
    <path class="cls-3" d="M241.97,776.37c-.01.36-.05.72-.1,1.07-.06.37-.14.73-.24,1.09-.2.71-.49,1.38-.85,2.03-.36.64-.79,1.24-1.28,1.79-.49.55-1.03,1.05-1.61,1.49-.59.44-1.21.83-1.86,1.16-.65.33-1.34.61-2.04.83-1.4.44-2.87.66-4.34.66"/>
    <path class="cls-3" d="M155.31,745.64c-.05.87-.21,1.72-.46,2.55-.26.83-.6,1.62-1.04,2.37s-.95,1.45-1.53,2.09c-.58.64-1.23,1.22-1.92,1.74-.69.52-1.43.97-2.21,1.36s-1.58.71-2.41.97c-1.65.51-3.38.77-5.11.76"/>
    <path class="cls-3" d="M422.48,179.79c-.14.86-.28,1.72-.41,2.58-.02.11-.03.22-.05.32l-.05.33c-.03.22-.07.44-.1.65-.07.44-.14.88-.2,1.32-.03.21-.07.43-.1.64-.03.22-.07.43-.1.65l-.2,1.3c-.13.87-.27,1.75-.4,2.62-.13.86-.26,1.73-.39,2.59-.13.87-.27,1.75-.4,2.62l-.2,1.29c-.03.22-.07.43-.1.65-.03.22-.07.43-.1.65-.14.87-.28,1.74-.43,2.61-.15.86-.29,1.72-.45,2.59-.08.43-.16.87-.24,1.3-.08.43-.16.87-.25,1.3-.17.86-.34,1.72-.52,2.58-.09.43-.18.86-.28,1.29-.05.22-.09.43-.14.65-.05.21-.1.43-.15.65-.39,1.71-.83,3.42-1.31,5.1-.12.42-.25.84-.38,1.26-.13.42-.26.84-.4,1.26-.27.84-.57,1.67-.88,2.49"/>
    <path class="cls-3" d="M66.33,246.97c-.07-1.89-.13-3.79-.2-5.68-.03-.95-.07-1.9-.1-2.85-.02-.48-.03-.95-.05-1.43l-.05-1.43c-.06-1.89-.13-3.79-.19-5.68-.02-.47-.03-.95-.05-1.42-.02-.48-.03-.95-.05-1.43-.03-.95-.06-1.9-.09-2.86-.12-3.79-.23-7.6-.33-11.39-.05-1.89-.1-3.78-.14-5.68,0-.24-.01-.47-.02-.71s-.01-.47-.02-.71c-.01-.48-.02-.95-.03-1.43-.02-.95-.04-1.91-.06-2.86-.02-.94-.03-1.89-.05-2.83v-.71c-.01-.24-.02-.47-.02-.71,0-.47-.01-.95-.02-1.42-.02-1.91-.04-3.81-.05-5.72,0-.24,0-.47,0-.71,0-.24,0-.47,0-.71,0-.47,0-.94,0-1.42,0-.95,0-1.9,0-2.84,0-.95,0-1.9.01-2.86,0-.24,0-.48,0-.72,0-.24,0-.48,0-.72,0-.48,0-.96.02-1.43.05-3.79.13-7.6.28-11.39.02-.47.04-.94.06-1.41.02-.47.04-.94.06-1.41.04-.95.09-1.89.14-2.84.05-.95.11-1.9.17-2.85.03-.48.06-.95.09-1.43.03-.48.07-.95.1-1.43"/>
    <path class="cls-3" d="M414.25,221.07c-.12.31-.24.62-.36.93-.12.31-.25.62-.38.92-.26.61-.53,1.22-.81,1.82-.57,1.2-1.19,2.38-1.88,3.52-.17.29-.35.57-.53.85s-.37.56-.55.83c-.38.55-.77,1.08-1.18,1.6-.41.52-.84,1.03-1.29,1.52-.22.25-.45.49-.68.72-.23.24-.47.47-.71.7-.48.46-.98.9-1.5,1.32-.26.21-.52.41-.79.61s-.53.39-.81.58c-.27.19-.55.37-.83.55-.28.18-.56.35-.85.52-.57.34-1.16.65-1.76.94-1.19.59-2.43,1.09-3.69,1.51-1.26.42-2.55.77-3.85,1.06"/>
    <path class="cls-3" d="M807.92,97.9c.2.01.38.09.54.2.16.11.3.25.42.39"/>
    <polyline class="cls-3" points="460 64.64 460.18 64.49 460.37 64.33 460.55 64.17 460.73 64.01 460.92 63.85 460.93 63.84 461.1 63.69 461.29 63.53 461.47 63.37 461.65 63.21 461.84 63.05 461.92 62.98 462.02 62.89 462.21 62.73"/>
    <path class="cls-3" d="M462.21,62.73c.51-.44,1.08-.86,1.69-1.16.31-.15.63-.27.97-.34.08-.02.17-.03.26-.04.04,0,.08,0,.13-.01.04,0,.08,0,.13,0,.17,0,.34,0,.51.02"/>
    <path class="cls-3" d="M770.55,373.35c.15-2.81.3-5.62.46-8.43.16-2.88.34-5.76.51-8.63.01-.18.02-.36.03-.55l.03-.55c.02-.37.05-.73.07-1.1.05-.73.09-1.47.14-2.2.09-1.48.19-2.95.29-4.43.2-2.99.4-5.99.61-8.98.02-.35.05-.71.07-1.07.03-.36.05-.71.08-1.07.05-.71.1-1.43.15-2.14.1-1.43.21-2.87.31-4.3.21-2.89.43-5.79.65-8.68.45-5.86.93-11.72,1.42-17.58.06-.72.12-1.45.18-2.17.06-.72.12-1.45.19-2.17.12-1.45.25-2.9.38-4.35.25-2.9.51-5.81.78-8.71.53-5.8,1.08-11.61,1.64-17.41.14-1.47.29-2.93.43-4.4.04-.37.07-.73.11-1.1.04-.37.07-.73.11-1.1.07-.73.15-1.46.22-2.19.29-2.91.59-5.82.9-8.73.6-5.74,1.22-11.48,1.87-17.21.66-5.9,1.35-11.8,2.05-17.69.35-2.87.7-5.73,1.05-8.59.35-2.8.7-5.6,1.07-8.4.2-1.53.4-3.07.6-4.6.1-.76.2-1.51.3-2.27.05-.38.1-.75.15-1.13.03-.19.05-.38.08-.56l.08-.56c.4-2.94.8-5.89,1.21-8.83.4-2.83.8-5.67,1.22-8.5.4-2.72.8-5.43,1.22-8.15.25-1.62.5-3.25.75-4.87.03-.2.06-.4.09-.6l.09-.6c.06-.39.13-.79.19-1.18.12-.78.25-1.56.38-2.34.25-1.52.5-3.04.75-4.56.24-1.47.49-2.93.75-4.4.24-1.41.49-2.82.74-4.23.24-1.35.49-2.71.74-4.06.12-.66.24-1.31.37-1.96.06-.32.12-.64.18-.97.03-.16.06-.32.09-.48.01-.08.03-.16.05-.24.01-.08.03-.16.05-.24.24-1.23.48-2.47.72-3.7.26-1.3.52-2.6.79-3.9.26-1.22.52-2.45.78-3.67.25-1.14.51-2.29.77-3.43.25-1.06.5-2.13.76-3.19.24-.98.49-1.96.74-2.94.23-.9.48-1.8.73-2.69.12-.42.24-.83.36-1.25.12-.4.23-.79.35-1.19.11-.38.23-.75.35-1.12.11-.35.23-.71.34-1.06.11-.33.22-.66.34-1,.11-.31.22-.62.33-.93.11-.29.22-.58.33-.87.03-.07.05-.14.08-.21.01-.03.03-.07.04-.1l.04-.1c.05-.13.11-.26.16-.39.1-.25.21-.49.32-.73.1-.22.21-.45.32-.67.1-.2.2-.41.31-.6.1-.18.2-.36.3-.54.1-.16.19-.32.3-.47.09-.14.19-.28.29-.41.09-.12.19-.23.29-.34.09-.1.18-.19.28-.28.09-.08.18-.15.28-.21.09-.06.18-.1.27-.15.08-.03.17-.06.26-.08.09-.01.17-.02.26-.01"/>
    <path class="cls-3" d="M404.52,239.38c.39-.29.77-.59,1.14-.9s.74-.63,1.09-.96c.36-.33.71-.67,1.04-1.01.17-.17.34-.35.5-.53.17-.18.33-.36.49-.54,1.3-1.46,2.46-3.05,3.49-4.72.13-.21.26-.42.38-.63.13-.21.25-.43.37-.64.24-.43.48-.86.7-1.3.45-.88.88-1.77,1.27-2.68.2-.45.39-.91.57-1.37.18-.46.36-.92.53-1.39.34-.93.66-1.87.96-2.81.15-.48.3-.96.44-1.44.14-.48.28-.96.41-1.44.26-.96.51-1.93.74-2.9.23-.97.45-1.93.66-2.91.05-.24.1-.48.15-.73.05-.24.1-.48.15-.73.1-.48.2-.97.29-1.45.19-.96.37-1.93.54-2.89.09-.48.17-.96.25-1.44.08-.48.16-.96.24-1.44.16-.95.31-1.9.46-2.86.07-.47.15-.95.22-1.42.04-.24.07-.47.11-.71.04-.24.07-.47.11-.71.16-1.02.31-2.05.46-3.08.08-.51.15-1.02.22-1.52l.11-.76c.02-.13.04-.25.06-.38.02-.13.04-.25.06-.38.15-1,.29-2,.44-3,.07-.49.15-.99.22-1.48.04-.25.07-.49.11-.74.02-.12.04-.24.06-.37.02-.12.04-.24.06-.37.15-.97.3-1.94.45-2.91.15-.95.3-1.91.45-2.86.04-.23.08-.47.11-.7.04-.23.08-.46.11-.69.08-.46.15-.91.23-1.37.08-.45.15-.9.23-1.35.08-.45.15-.9.23-1.34.35-2.05.72-4.1,1.09-6.14.18-.99.37-1.99.56-2.98.02-.12.05-.24.07-.37.02-.12.05-.24.07-.37.05-.24.09-.49.14-.73.09-.48.19-.97.28-1.45.73-3.7,1.49-7.39,2.3-11.08.03-.13.06-.26.09-.39.03-.13.06-.26.09-.39.06-.26.11-.52.17-.78.11-.51.23-1.03.34-1.54.23-1.01.46-2.02.69-3.02.45-1.95.91-3.9,1.39-5.84.03-.12.06-.24.09-.36l.09-.35.17-.71c.12-.47.23-.94.35-1.4.23-.92.46-1.84.7-2.76.46-1.78.92-3.56,1.4-5.34,1.07-3.97,2.18-7.92,3.36-11.86.55-1.83,1.11-3.67,1.68-5.49.28-.88.56-1.76.84-2.65l.1-.33c.03-.11.07-.22.1-.33.07-.22.14-.43.21-.65.14-.43.28-.85.42-1.28.67-2.03,1.35-4.06,2.06-6.08.04-.12.09-.24.13-.37.04-.12.09-.24.13-.37l.26-.73c.17-.48.34-.96.51-1.44.17-.47.34-.94.51-1.41.09-.23.17-.46.26-.7.08-.23.17-.46.26-.69.17-.46.34-.91.51-1.36.08-.22.17-.45.26-.67.04-.11.09-.22.13-.33s.08-.22.13-.33c.34-.88.68-1.75,1.02-2.63.17-.43.34-.85.51-1.28.17-.42.34-.84.51-1.25.33-.81.67-1.62,1.02-2.43.25-.59.5-1.18.76-1.76.06-.14.13-.29.19-.43.03-.07.06-.14.1-.21.03-.07.06-.14.1-.21.13-.28.25-.56.38-.85.49-1.08.99-2.16,1.51-3.24.25-.51.5-1.02.75-1.53.25-.49.5-.98.75-1.46.12-.24.25-.47.37-.71.06-.12.12-.23.19-.35.06-.11.12-.23.19-.34.24-.45.49-.89.74-1.33.24-.42.49-.84.74-1.26.24-.4.48-.79.73-1.19.24-.37.48-.74.73-1.11.24-.35.48-.69.73-1.03.03-.04.06-.08.09-.12.03-.04.06-.08.09-.12.06-.08.12-.16.18-.24.12-.15.24-.31.36-.46.23-.29.47-.58.71-.85.12-.13.23-.26.35-.39.06-.06.12-.12.18-.19.06-.06.12-.12.18-.18.23-.23.46-.45.7-.66"/>
    <path class="cls-3" d="M65.75,155.86c-.12,1.63-.11,3.26.02,4.9.07.81.16,1.62.29,2.42.03.2.07.4.1.6.04.2.07.4.11.6.08.4.17.81.26,1.21.75,3.19,1.96,6.24,3.5,9.12.05.09.09.18.14.26.05.09.1.18.14.26.1.18.2.35.3.53.2.35.41.7.62,1.05.43.71.88,1.4,1.35,2.08.92,1.35,1.91,2.65,2.96,3.91,2.09,2.51,4.39,4.85,6.83,7.03"/>
    <line class="cls-3" x1="773.49" y1="474.08" x2="706.92" y2="468.39"/>
    <path class="cls-3" d="M397.3,213.02c-.19,1.09-.39,2.17-.58,3.26-.19,1.09-.39,2.17-.59,3.25-.1.54-.2,1.08-.3,1.63-.1.54-.2,1.09-.3,1.63-.2,1.08-.41,2.17-.62,3.25-.05.27-.1.54-.16.81-.05.27-.11.54-.16.81-.11.54-.21,1.08-.32,1.63-.21,1.08-.43,2.16-.65,3.24-.05.27-.11.54-.16.81-.05.27-.11.54-.16.81-.11.54-.22,1.08-.33,1.62-.22,1.08-.44,2.16-.65,3.24"/>
    <path class="cls-3" d="M87.32,238.77c-.12-1.08-.25-2.16-.38-3.25-.06-.54-.13-1.08-.19-1.62-.03-.27-.06-.54-.1-.81-.03-.27-.06-.54-.1-.81-.13-1.08-.25-2.16-.38-3.25-.06-.54-.12-1.08-.18-1.63-.03-.27-.06-.54-.09-.81s-.06-.54-.09-.81c-.12-1.08-.23-2.17-.35-3.25-.06-.54-.11-1.09-.17-1.63-.06-.54-.11-1.08-.16-1.62-.11-1.08-.21-2.17-.31-3.25-.1-1.08-.2-2.17-.3-3.25"/>
    <path class="cls-3" d="M84.52,212.77c-.28-3.05-.57-6.11-.84-9.16"/>
    <path class="cls-3" d="M65.7,298.63c-2.83,6.77-5.16,13.73-6.98,20.83-1.82,7.11-3.12,14.33-3.87,21.63"/>
    <path class="cls-3" d="M84.53,212.78s0,0,0-.01"/>
    <path class="cls-3" d="M397.3,213.01h0"/>
    <path class="cls-3" d="M430.9,569.64c.02-1.62,0-3.24-.03-4.87"/>
    <path class="cls-3" d="M407.04,132.8s0-.01,0-.02c0,0,0,0,0,0h0"/>
    <path class="cls-3" d="M403,179.55c-.45,2.79-.9,5.58-1.36,8.37-.06.35-.12.7-.17,1.04-.06.35-.12.7-.17,1.05-.12.7-.23,1.4-.35,2.09-.23,1.39-.47,2.79-.71,4.18-.24,1.39-.48,2.79-.72,4.18-.06.35-.12.7-.18,1.04-.06.35-.12.7-.18,1.04-.12.7-.24,1.39-.37,2.09-.49,2.78-.99,5.57-1.48,8.35"/>
    <path class="cls-3" d="M406.73,154.32c-.02.23-.04.45-.06.68-.02.23-.05.45-.08.68-.03.23-.06.45-.09.68,0,.06-.02.11-.02.17l-.02.17c-.02.11-.03.23-.05.34l-.19,1.35c-.06.45-.13.9-.19,1.36-.13.9-.26,1.81-.39,2.71-.07.45-.13.9-.2,1.35-.07.45-.13.9-.2,1.35"/>
    <path class="cls-3" d="M83.68,203.61c0-.1-.02-.21-.03-.31"/>
    <path class="cls-3" d="M33.41,547.53c-.75,7.23-.98,14.5-.68,21.76"/>
    <path class="cls-3" d="M54.84,341.09c0,.05-.01.1-.02.15"/>
    <path class="cls-3" d="M426.34,357.67s0-.05,0-.07"/>
    <path class="cls-3" d="M398.71,91.15c.98.07,1.96.14,2.94.21.98.07,1.96.14,2.94.21,1.96.14,3.92.28,5.88.42l2.94.21c.98.07,1.96.14,2.94.21.49.03.98.07,1.47.11.24.02.49.03.73.05.25.02.49.03.74.05.98.07,1.96.14,2.94.21"/>
    <path class="cls-3" d="M81.87,184.75c-.48-.47-.95-.95-1.41-1.43-.11-.12-.23-.24-.34-.36-.11-.12-.22-.24-.34-.36-.22-.24-.44-.48-.66-.73-.85-.95-1.66-1.92-2.44-2.93-.81-1.05-1.59-2.12-2.32-3.23-.35-.54-.69-1.08-1.02-1.63-.16-.27-.32-.54-.48-.82-.08-.14-.15-.27-.23-.41-.08-.14-.15-.27-.22-.41-.63-1.16-1.2-2.35-1.71-3.57-.49-1.18-.92-2.38-1.29-3.6-.19-.63-.36-1.27-.51-1.91-.08-.32-.14-.64-.21-.96-.03-.16-.06-.32-.09-.48-.03-.16-.06-.32-.09-.48-.22-1.27-.36-2.55-.42-3.84-.06-1.29-.05-2.59.05-3.88.05-.65.12-1.29.21-1.94.02-.16.05-.32.07-.48.02-.16.05-.32.08-.48.05-.32.11-.64.18-.97.25-1.26.57-2.5.96-3.72.4-1.25.87-2.49,1.4-3.69.26-.58.52-1.15.81-1.71.07-.14.14-.28.22-.43.07-.14.15-.28.22-.43.15-.29.3-.57.46-.85.64-1.16,1.34-2.28,2.08-3.38.71-1.06,1.47-2.08,2.25-3.08.41-.52.82-1.02,1.24-1.52.43-.51.87-1.02,1.32-1.51"/>
    <path class="cls-3" d="M391.16,245.02c1.2-.24,2.38-.52,3.55-.86.59-.17,1.17-.36,1.74-.56.57-.2,1.15-.42,1.71-.65.56-.23,1.12-.48,1.67-.75.27-.13.55-.27.82-.41.27-.14.54-.29.8-.44s.53-.3.79-.46c.26-.16.52-.32.77-.49.51-.33,1.01-.68,1.5-1.05"/>
    <path class="cls-3" d="M777.95,474.45s-.01,0-.02,0"/>
    <path class="cls-3" d="M68.14,293.09c-.09-1.92-.18-3.84-.27-5.76-.04-.96-.09-1.93-.13-2.89l-.06-1.44c-.02-.48-.04-.96-.06-1.44-.08-1.92-.16-3.84-.24-5.77-.04-.96-.08-1.92-.11-2.88-.04-.96-.07-1.92-.11-2.88s-.07-1.92-.11-2.88c-.04-.96-.07-1.92-.11-2.88-.07-1.92-.14-3.84-.21-5.77-.03-.96-.07-1.92-.1-2.88s-.07-1.92-.1-2.88c-.07-1.92-.14-3.84-.2-5.77"/>
    <line class="cls-3" x1="33.41" y1="547.53" x2="33.41" y2="547.53"/>
    <path class="cls-3" d="M811.53,98.66c.14-.12.3-.22.47-.3.17-.08.35-.12.55-.1"/>
    <path class="cls-3" d="M812.55,98.26s0,0,.01,0"/>
    <path class="cls-3" d="M807.6,106.49c.46-1.36,1-2.81,1.58-4.12.08-.17.16-.35.24-.52.08-.16.15-.32.23-.48.09-.17.17-.34.26-.51.08-.16.17-.31.26-.46.1-.17.2-.33.3-.49.1-.15.19-.29.3-.43.06-.08.12-.16.19-.24.06-.07.12-.15.19-.22.06-.07.12-.13.19-.19.06-.06.12-.11.18-.16"/>
    <path class="cls-3" d="M777.93,474.45c-.19-.02-.37-.09-.52-.19-.16-.1-.29-.24-.41-.38"/>
    <path class="cls-3" d="M773.1,372.47c.14-2.68.29-5.36.44-8.04.08-1.36.16-2.73.24-4.09.04-.69.08-1.38.12-2.06l.06-1.04c.02-.35.04-.69.06-1.04.17-2.8.35-5.6.53-8.4.09-1.42.19-2.84.28-4.26.02-.36.05-.71.07-1.07s.05-.71.07-1.07c.05-.72.1-1.43.15-2.15.19-2.72.38-5.44.58-8.17.1-1.37.2-2.75.3-4.12.05-.69.1-1.38.16-2.07.05-.69.1-1.38.16-2.07.11-1.39.21-2.78.32-4.16.03-.35.06-.7.08-1.04.03-.35.05-.7.08-1.04.06-.7.11-1.4.17-2.09.11-1.4.22-2.8.34-4.2.03-.35.06-.7.09-1.05.03-.35.06-.7.09-1.05.06-.7.12-1.4.17-2.11.46-5.52.94-11.04,1.43-16.56.25-2.77.5-5.53.76-8.3.13-1.38.26-2.77.39-4.15.07-.69.13-1.38.2-2.07.07-.69.13-1.38.2-2.07.54-5.56,1.09-11.12,1.66-16.68.28-2.75.57-5.5.86-8.26.15-1.37.29-2.73.44-4.1.04-.34.07-.68.11-1.02.04-.34.07-.68.11-1.02.07-.68.15-1.36.22-2.04.62-5.61,1.25-11.21,1.91-16.82.32-2.73.65-5.47.98-8.2.08-.68.16-1.35.25-2.03.02-.17.04-.34.06-.5.02-.17.04-.34.06-.5.04-.34.08-.67.12-1.01.16-1.33.33-2.67.5-4,.36-2.88.73-5.75,1.1-8.63.36-2.8.74-5.59,1.11-8.38.19-1.36.37-2.73.56-4.09.09-.67.19-1.35.28-2.02.05-.33.09-.67.14-1,.05-.33.09-.67.14-1,.37-2.61.74-5.22,1.12-7.83.44-2.99.89-5.97,1.34-8.96.22-1.43.44-2.87.67-4.3.11-.7.22-1.4.33-2.11.06-.35.11-.69.17-1.04.03-.17.06-.35.08-.52.03-.17.06-.34.08-.52.43-2.66.87-5.32,1.33-7.97.11-.64.22-1.27.33-1.91.03-.16.06-.31.08-.47.03-.16.06-.31.08-.47.05-.31.11-.62.16-.93.21-1.22.43-2.43.66-3.65.16-.9.33-1.8.5-2.7.08-.44.16-.88.25-1.32.04-.22.08-.43.12-.65.02-.11.04-.22.06-.32.02-.11.04-.21.06-.32.32-1.66.64-3.31.98-4.97.31-1.54.63-3.08.96-4.61.3-1.42.62-2.84.94-4.26.15-.66.31-1.33.46-1.99.04-.16.08-.32.12-.48.02-.08.04-.16.06-.24.02-.08.04-.16.06-.24.08-.31.15-.62.23-.94.15-.6.3-1.2.45-1.8.15-.57.3-1.14.45-1.71.14-.54.29-1.08.44-1.61.14-.51.29-1.01.44-1.52.14-.47.28-.95.43-1.42.14-.44.28-.88.42-1.32"/>
    <path class="cls-3" d="M978.72,479.6c-2.89-.31-5.77-.59-8.67-.84-.73-.06-1.45-.12-2.18-.18-.36-.03-.72-.06-1.09-.09s-.72-.06-1.09-.08c-1.44-.11-2.89-.21-4.33-.31-.36-.02-.73-.05-1.09-.07-.36-.02-.73-.05-1.09-.07-.72-.04-1.45-.09-2.17-.13-.72-.04-1.45-.08-2.17-.12-.36-.02-.72-.04-1.09-.06-.18,0-.36-.02-.54-.03-.18,0-.36-.02-.54-.03-1.45-.07-2.9-.14-4.35-.2-.72-.03-1.45-.06-2.17-.09s-1.45-.06-2.17-.08c-.73-.03-1.45-.05-2.18-.08-.36-.01-.73-.02-1.09-.04-.09,0-.18,0-.27,0h-.14s-.09,0-.14,0c-.18,0-.36-.01-.54-.02-1.45-.05-2.9-.09-4.35-.13-.72-.02-1.45-.04-2.17-.06-.73-.02-1.45-.04-2.17-.05-.73-.02-1.45-.03-2.18-.05-.18,0-.36,0-.54-.01-.09,0-.18,0-.27,0-.05,0-.09,0-.14,0s-.09,0-.14,0c-.36,0-.73-.01-1.09-.02-1.45-.03-2.9-.06-4.35-.08-.36,0-.73-.01-1.09-.02s-.73-.01-1.09-.02c-.73-.01-1.45-.02-2.18-.03-.73-.01-1.45-.02-2.18-.03-.09,0-.18,0-.27,0-.09,0-.18,0-.27,0-.18,0-.36,0-.54,0-.36,0-.73,0-1.09-.01-1.45-.02-2.9-.03-4.35-.05"/>
    <path class="cls-3" d="M805.18,108.54c.44-1.35.96-2.8,1.53-4.1.07-.17.15-.34.23-.52.07-.16.15-.32.23-.48.08-.17.17-.34.26-.51.02-.04.04-.08.06-.12.02-.04.04-.08.06-.12.04-.08.08-.15.13-.23.1-.17.19-.33.3-.49.09-.15.19-.29.29-.43.06-.08.12-.16.19-.24.06-.07.12-.15.19-.22.06-.06.12-.13.18-.19.06-.06.12-.11.18-.16"/>
    <path class="cls-3" d="M807.6,106.49s0,.02,0,.02"/>
    <path class="cls-3" d="M807.6,106.51c-.56,1.73-1.1,3.56-1.57,5.31-.24.89-.48,1.78-.7,2.68-.11.45-.23.89-.34,1.34-.06.22-.11.44-.16.67-.03.11-.05.23-.08.34-.01.06-.03.11-.04.17-.01.06-.03.11-.04.17"/>
    <path class="cls-3" d="M804.66,117.19s0,.03,0,.04"/>
    <path class="cls-3" d="M892.37,476.39c-.6,0-1.2,0-1.8,0-.08,0-.15,0-.23,0h-.11s-.08,0-.11,0c-.15,0-.3,0-.45,0-.3,0-.6,0-.9,0-1.2,0-2.4,0-3.6-.01-.3,0-.6,0-.9,0-.08,0-.15,0-.23,0-.07,0-.15,0-.22,0-.15,0-.3,0-.45,0-.6,0-1.2,0-1.8,0-1.2,0-2.4,0-3.6-.01"/>
    <path class="cls-3" d="M877.95,476.34c-1.02,0-2.05,0-3.07-.01-.26,0-.51,0-.76,0-.25,0-.51,0-.76,0-.51,0-1.02,0-1.52,0-.25,0-.51,0-.76,0-.25,0-.51,0-.76,0-.5,0-1.01,0-1.51,0-1.12,0-2.24,0-3.36,0-.63,0-1.25,0-1.88,0-.3,0-.6,0-.9,0-.15,0-.3,0-.44,0-.15,0-.3,0-.44,0-.59,0-1.18,0-1.77,0-.59,0-1.18,0-1.77,0-1.77,0-3.54.02-5.31.03-1.85.01-3.7.02-5.55.04-1.06,0-2.11.02-3.17.02-.32,0-.63,0-.95,0-.16,0-.33,0-.49,0-.16,0-.33,0-.49,0-.62,0-1.24,0-1.86.01-1.95.01-3.91.02-5.86.03-.59,0-1.18,0-1.77,0-.3,0-.59,0-.89,0-.3,0-.59,0-.89,0-1.03,0-2.06,0-3.1,0-2.23,0-4.45,0-6.67-.02-1.94-.01-3.89-.03-5.83-.06-2.05-.03-4.11-.07-6.16-.12-2.12-.05-4.23-.12-6.35-.2-2.09-.08-4.18-.17-6.27-.28-1.04-.05-2.08-.11-3.11-.17-1.04-.06-2.07-.13-3.11-.2-.52-.03-1.04-.07-1.56-.11-.52-.04-1.04-.07-1.56-.11-1.04-.08-2.08-.16-3.12-.24-.52-.04-1.04-.08-1.56-.13s-1.04-.09-1.56-.13c-1.04-.09-2.08-.18-3.11-.26"/>
    <path class="cls-3" d="M909.16,476.5c-1.41-.01-2.82-.03-4.23-.03-1.41,0-2.82-.02-4.23-.03h-2.11c-.17-.01-.35-.01-.53-.01s-.35,0-.53,0c-.35,0-.71,0-1.06,0-1.41,0-2.82-.01-4.23-.02"/>
    <path class="cls-3" d="M812.55,98.26c3.26.24,6.53.48,9.79.72,3.26.24,6.53.47,9.79.7,3.27.23,6.53.45,9.8.66,1.63.11,3.27.21,4.9.31.82.05,1.63.1,2.45.15.41.02.82.05,1.23.07.1,0,.2.01.31.02.05,0,.1,0,.15,0,.05,0,.1,0,.15,0,.21.01.41.02.61.04,3.27.19,6.53.38,9.8.55,1.63.09,3.27.17,4.9.25,1.63.08,3.27.16,4.9.23,3.27.15,6.54.28,9.82.39,1.64.06,3.27.11,4.91.16.82.03,1.64.05,2.46.07.41.01.82.02,1.23.03s.82.02,1.23.03c3.27.08,6.54.15,9.81.2,3.27.05,6.54.08,9.82.1,3.28.01,6.55,0,9.83-.02,1.64-.01,3.28-.03,4.92-.05,1.64-.02,3.28-.05,4.92-.08,3.27-.07,6.54-.15,9.81-.26,1.63-.05,3.27-.11,4.9-.18.82-.03,1.64-.07,2.45-.1s1.64-.07,2.45-.11c3.27-.15,6.54-.33,9.81-.52,1.64-.1,3.27-.2,4.91-.31.82-.05,1.64-.11,2.45-.17s1.64-.12,2.45-.18c3.26-.24,6.52-.5,9.78-.78,1.63-.14,3.26-.29,4.89-.44.81-.08,1.63-.15,2.44-.23.81-.08,1.63-.16,2.44-.24,3.26-.33,6.52-.68,9.77-1.04,1.63-.19,3.26-.37,4.88-.57.81-.1,1.63-.2,2.44-.3.41-.05.81-.1,1.22-.15.41-.05.81-.1,1.22-.15,3.25-.41,6.49-.84,9.73-1.29,1.62-.23,3.24-.46,4.86-.69.81-.12,1.62-.24,2.43-.36.4-.06.81-.12,1.21-.18.2-.03.4-.06.61-.09.1-.02.2-.03.3-.05.1-.01.2-.03.3-.05,6.47-.98,12.95-2.04,19.4-3.16,3.22-.56,6.44-1.14,9.66-1.73,1.61-.3,3.22-.6,4.83-.9,1.61-.3,3.22-.61,4.82-.93.1-.02.2-.04.3-.06l.3-.06c.2-.04.4-.08.6-.12l1.2-.24c.8-.16,1.61-.32,2.41-.48,1.61-.32,3.21-.64,4.81-.97.8-.16,1.6-.33,2.41-.49.8-.17,1.6-.33,2.41-.5,1.6-.33,3.21-.67,4.81-1.01.2-.04.4-.09.6-.13.03,0,.05-.01.08-.02.03,0,.05-.01.08-.02.05-.01.1-.02.15-.03.1-.02.2-.04.3-.06l1.2-.26c.8-.17,1.6-.34,2.4-.52,1.6-.35,3.2-.69,4.79-1.04.8-.18,1.6-.35,2.4-.53.8-.18,1.6-.36,2.4-.53,1.6-.36,3.2-.72,4.8-1.08.2-.05.4-.09.6-.14.02,0,.05-.01.08-.02.02,0,.05-.01.07-.02.05-.01.1-.02.15-.03.1-.02.2-.05.3-.07.4-.09.8-.18,1.19-.27.8-.18,1.59-.36,2.39-.55,1.59-.37,3.19-.73,4.78-1.11.8-.19,1.59-.37,2.39-.56.8-.19,1.6-.37,2.39-.56,1.6-.38,3.2-.75,4.8-1.13"/>
    <path class="cls-3" d="M808.99,100.74c.84-.69,1.69-1.39,2.53-2.08"/>
    <path class="cls-3" d="M777,473.87c-.67-.81-1.34-1.62-2.01-2.43"/>
    <path class="cls-3" d="M777,473.87c-.07-.09-.14-.18-.2-.27-.07-.1-.13-.21-.19-.32-.07-.12-.13-.24-.19-.37-.06-.14-.13-.28-.18-.42-.05-.11-.09-.22-.13-.34-.01-.03-.02-.06-.03-.09-.01-.03-.02-.06-.03-.09-.02-.06-.04-.12-.06-.18-.09-.26-.17-.53-.25-.8-.28-.99-.5-2.08-.68-3.09-.35-2.01-.62-4.24-.81-6.27"/>
    <path class="cls-3" d="M775,471.44c-.08-.09-.15-.19-.22-.3-.08-.12-.15-.24-.21-.36-.07-.14-.14-.28-.21-.42-.07-.16-.14-.32-.2-.48-.07-.18-.13-.36-.19-.54-.07-.2-.13-.4-.19-.6-.06-.22-.12-.44-.18-.66-.06-.24-.12-.48-.17-.72-.06-.26-.12-.52-.17-.78-.06-.28-.11-.56-.16-.84-.06-.3-.11-.6-.16-.9-.05-.32-.1-.64-.15-.96-.05-.34-.1-.68-.14-1.02-.05-.36-.09-.72-.14-1.08-.05-.38-.09-.76-.13-1.14-.04-.4-.08-.8-.12-1.2-.09-.91-.16-1.81-.23-2.72-.08-.99-.14-1.98-.2-2.98-.07-1.08-.12-2.15-.17-3.23-.05-1.16-.1-2.32-.14-3.48-.03-.96-.06-1.93-.09-2.89-.01-.5-.03-1-.04-1.5-.01-.51-.02-1.02-.03-1.54-.02-1.06-.04-2.12-.05-3.18-.01-1.11-.02-2.22-.03-3.33-.01-2.01-.01-4.01,0-6.02,0-1.05.01-2.1.02-3.16,0-.27,0-.54,0-.8,0-.13,0-.27,0-.4s0-.27,0-.41c0-.55.01-1.09.02-1.64.01-1,.03-2,.04-3,0-.13,0-.25,0-.38,0-.13,0-.25,0-.38v-.77c.02-.51.03-1.03.04-1.54.02-1.05.04-2.1.07-3.14,0-.13,0-.27,0-.4,0-.13,0-.27,0-.4,0-.27.01-.53.02-.8.01-.54.03-1.08.04-1.62.05-2.03.11-4.07.18-6.1.03-1.04.07-2.09.1-3.13,0-.26.02-.53.03-.79,0-.27.02-.53.03-.8l.06-1.6c.3-8.24.69-16.61,1.13-24.84"/>
    <path class="cls-3" d="M231.05,815.29c5.7,0,11.39-.21,17.07-.63,5.85-.44,11.69-1.11,17.49-2.01,5.94-.92,11.84-2.09,17.69-3.5,5.95-1.44,11.84-3.12,17.65-5.06,11.25-3.76,22.19-8.47,32.62-14.13,10.41-5.65,20.31-12.23,29.48-19.72,4.74-3.87,9.28-7.97,13.59-12.31,4.24-4.26,8.25-8.73,12.01-13.42,3.68-4.58,7.11-9.35,10.27-14.3,3.08-4.83,5.89-9.81,8.42-14.95,2.76-5.59,5.17-11.35,7.21-17.24,1.97-5.69,3.6-11.49,4.86-17.38,1.22-5.68,2.09-11.43,2.62-17.21.26-2.81.43-5.63.52-8.45.09-2.79.1-5.58.02-8.38-.07-2.75-.22-5.5-.45-8.24-.23-2.8-.55-5.6-.95-8.38-.4-2.84-.89-5.67-1.46-8.49-.58-2.87-1.25-5.73-2-8.56-.77-2.89-1.62-5.76-2.56-8.6-.96-2.9-2-5.77-3.13-8.61-1.15-2.89-2.39-5.75-3.71-8.57-1.35-2.87-2.78-5.7-4.3-8.49-2.73-5.01-5.72-9.87-8.96-14.57-3.33-4.83-6.91-9.49-10.71-13.95-3.9-4.57-8.03-8.94-12.36-13.1-4.42-4.23-9.05-8.25-13.86-12.03-9.32-7.32-19.3-13.77-29.76-19.31-10.48-5.55-21.43-10.2-32.69-13.92-5.82-1.93-11.72-3.6-17.68-5.04-5.85-1.4-11.76-2.57-17.7-3.5-5.8-.9-11.63-1.58-17.48-2.03-5.67-.43-11.36-.65-17.05-.66"/>
    <path class="cls-3" d="M225.83,466.45c6.14,0,12.27.25,18.39.73,6.31.5,12.61,1.25,18.86,2.25,6.1.98,12.17,2.2,18.17,3.66,6.12,1.49,12.17,3.22,18.15,5.2,11.85,3.93,23.37,8.83,34.4,14.69,11.02,5.86,21.53,12.67,31.33,20.41,4.95,3.9,9.7,8.04,14.25,12.4,4.47,4.28,8.72,8.78,12.74,13.48,4.12,4.81,7.98,9.83,11.57,15.05,3.49,5.07,6.7,10.32,9.62,15.74,3.01,5.58,5.71,11.33,8.06,17.23,1.14,2.87,2.21,5.76,3.18,8.69.96,2.87,1.83,5.77,2.63,8.69.84,3.11,1.59,6.25,2.24,9.4.64,3.09,1.18,6.2,1.62,9.32.44,3.05.78,6.12,1.03,9.19.24,3.01.4,6.02.47,9.04"/>
    <path class="cls-3" d="M779.15,314.45c-.1,1.24-.2,2.47-.3,3.71-.02.31-.05.62-.07.93-.02.31-.05.62-.07.92-.05.62-.1,1.23-.14,1.85-.02.31-.05.62-.07.93-.02.31-.05.62-.07.93-.05.62-.09,1.24-.14,1.85-.09,1.23-.19,2.46-.28,3.7-.02.31-.05.62-.07.93-.02.31-.05.62-.07.93-.05.62-.09,1.24-.14,1.85-.09,1.23-.18,2.46-.27,3.69-.18,2.47-.35,4.94-.52,7.42-.02.31-.04.62-.06.93l-.06.93c-.04.62-.08,1.24-.12,1.85-.08,1.23-.16,2.46-.24,3.69-.16,2.47-.31,4.94-.46,7.41-.3,4.94-.59,9.89-.85,14.83"/>
    <path class="cls-3" d="M413.6,497.13c5.33,10.47,9.53,21.47,12.46,32.85,2.93,11.38,4.55,23.04,4.81,34.79"/>
    <path class="cls-3" d="M226.77,596.64c2.44,0,4.89.1,7.32.3,2.52.2,5.02.5,7.51.91,2.43.4,4.84.89,7.23,1.48,2.43.6,4.84,1.3,7.22,2.1,4.71,1.59,9.29,3.57,13.66,5.94,4.37,2.37,8.53,5.13,12.39,8.26,1.95,1.58,3.83,3.25,5.61,5.02,1.75,1.73,3.42,3.55,4.98,5.45,1.61,1.95,3.11,3.98,4.49,6.09,1.34,2.05,2.58,4.16,3.69,6.35,1.15,2.25,2.16,4.57,3.03,6.95.84,2.28,1.54,4.61,2.11,6.98.59,2.47,1.02,4.97,1.29,7.5.13,1.22.22,2.44.28,3.67.03.6.04,1.21.05,1.81,0,.3,0,.6,0,.9,0,.3,0,.6,0,.9"/>
    <path class="cls-3" d="M225.82,546.74c1.63,0,3.26.27,4.8.81.77.27,1.52.6,2.23,1,.71.4,1.39.86,2.01,1.39s1.2,1.11,1.7,1.75c.5.64.94,1.33,1.29,2.07.18.37.34.76.47,1.15.13.38.24.76.32,1.15.09.41.15.82.18,1.23.02.2.03.4.03.6,0,.2,0,.4,0,.6"/>
    <path class="cls-3" d="M786.1,240.94c-.66,6.06-1.32,12.29-1.94,18.36-.62,6.12-1.22,12.25-1.8,18.37-.58,6.13-1.14,12.25-1.67,18.38-.53,6.07-1.06,12.32-1.54,18.4"/>
    <path class="cls-3" d="M354.5,657.69c1.54,0,3.09.25,4.55.73.73.24,1.45.55,2.13.91.68.36,1.33.79,1.93,1.27.6.48,1.16,1.02,1.66,1.61s.93,1.23,1.29,1.92c.36.68.64,1.41.82,2.15.1.38.17.77.22,1.16.05.37.07.75.07,1.13"/>
    <path class="cls-3" d="M804.65,117.22c-.13.56-.27,1.11-.4,1.67-.14.58-.27,1.15-.4,1.73-.07.3-.13.6-.2.89-.02.08-.03.15-.05.23s-.03.15-.05.23c-.03.15-.07.31-.1.46-.14.63-.27,1.26-.41,1.88-.14.65-.28,1.3-.41,1.95-.03.17-.07.33-.1.5-.02.08-.03.17-.05.25-.02.08-.03.17-.05.25-.07.34-.14.68-.21,1.02-.29,1.41-.57,2.82-.84,4.23-.03.15-.06.3-.09.44-.03.15-.06.3-.09.44l-.17.9c-.12.61-.23,1.22-.34,1.82-.12.62-.23,1.24-.35,1.87l-.09.47c-.01.08-.03.16-.04.24-.01.08-.03.16-.04.24l-.17.96c-.24,1.31-.47,2.62-.7,3.93-.24,1.36-.47,2.72-.71,4.09-.21,1.23-.42,2.46-.62,3.7-.03.16-.05.31-.08.47s-.05.31-.08.47c-.05.32-.1.63-.16.95-.1.64-.21,1.28-.31,1.92-.43,2.65-.84,5.29-1.25,7.94-.19,1.25-.38,2.5-.57,3.75-.02.16-.05.32-.07.47l-.07.48-.14.95-.29,1.93c-.39,2.63-.77,5.26-1.14,7.9-.18,1.26-.36,2.52-.53,3.78-.04.32-.09.64-.13.96-.02.16-.04.32-.07.48-.02.16-.04.32-.07.48-.09.64-.18,1.29-.26,1.93-.36,2.62-.71,5.25-1.06,7.87-.34,2.56-.67,5.11-.99,7.67-.04.32-.08.65-.12.97-.04.33-.08.65-.12.97-.08.65-.17,1.31-.25,1.96-.17,1.32-.33,2.63-.49,3.95-.32,2.56-.63,5.13-.93,7.7-.08.65-.16,1.3-.23,1.95-.04.33-.08.65-.12.98-.04.33-.08.65-.12.98-.15,1.31-.31,2.62-.46,3.93-.6,5.18-1.18,10.37-1.75,15.55"/>
    <path class="cls-3" d="M100.7,657.46c1.64,0,3.29.28,4.84.82.78.27,1.53.61,2.25,1.02.72.4,1.4.87,2.03,1.4s1.2,1.13,1.71,1.78.94,1.35,1.29,2.1c.18.38.33.77.46,1.17.12.38.22.77.3,1.17.08.41.13.82.15,1.24.01.2.02.4.01.6,0,.21-.01.41-.03.62"/>
    <path class="cls-3" d="M229.31,765.31c1.56,0,3.12.25,4.6.74.74.25,1.46.56,2.15.93.69.37,1.34.8,1.95,1.29.61.49,1.17,1.04,1.67,1.64.5.6.93,1.25,1.28,1.95.18.36.34.72.47,1.09.13.36.24.73.32,1.1.09.39.15.78.19,1.18.02.19.03.38.03.57,0,.09,0,.19,0,.28,0,.1,0,.19,0,.29"/>
    <path class="cls-3" d="M139.92,731.84c1.92,0,3.85.32,5.67.94.91.31,1.8.7,2.64,1.16s1.65,1,2.39,1.62,1.43,1.3,2.03,2.05c.31.38.59.78.85,1.19.25.4.48.81.69,1.24.21.44.4.9.56,1.36.15.45.27.9.37,1.36.1.48.16.96.2,1.45,0,.12.01.24.02.35,0,.12,0,.23,0,.35,0,.24,0,.48-.02.71"/>
    <path class="cls-3" d="M231.05,815.29c-5.67,0-11.35-.23-17-.66-5.84-.45-11.67-1.12-17.46-2.02-5.95-.93-11.86-2.09-17.71-3.5-5.97-1.43-11.89-3.11-17.72-5.04-11.24-3.72-22.18-8.36-32.65-13.9-10.48-5.55-20.49-12.01-29.81-19.34-4.8-3.78-9.43-7.78-13.84-12.01-4.34-4.16-8.47-8.53-12.37-13.1-3.81-4.47-7.4-9.13-10.73-13.97-3.24-4.71-6.25-9.59-8.98-14.62-2.99-5.5-5.66-11.16-7.97-16.98-1.13-2.83-2.17-5.69-3.12-8.58-.94-2.84-1.79-5.7-2.56-8.59-.75-2.83-1.42-5.68-2-8.55-.57-2.81-1.06-5.64-1.47-8.49-.4-2.79-.71-5.58-.95-8.39-.23-2.75-.38-5.51-.46-8.27-.15-5.59.03-11.18.53-16.75.52-5.79,1.39-11.54,2.61-17.23.62-2.93,1.34-5.83,2.14-8.71.82-2.94,1.73-5.85,2.73-8.73,2.05-5.92,4.48-11.7,7.25-17.32,2.52-5.12,5.33-10.09,8.4-14.9,3.15-4.94,6.58-9.71,10.25-14.28,3.76-4.68,7.77-9.16,12-13.42,4.32-4.34,8.86-8.45,13.61-12.33,4.56-3.72,9.3-7.22,14.19-10.49,4.93-3.3,10.02-6.36,15.23-9.2,10.44-5.67,21.39-10.39,32.65-14.16,5.79-1.94,11.67-3.62,17.61-5.06,5.84-1.41,11.74-2.58,17.68-3.51,5.81-.91,11.65-1.58,17.51-2.02,5.69-.43,11.4-.64,17.12-.64"/>
    <path class="cls-3" d="M36.54,528.82c-1.43,6.17-2.48,12.41-3.14,18.71"/>
    <path class="cls-3" d="M148.21,660.41c.15-2.27.43-4.53.84-6.77.42-2.32.99-4.62,1.68-6.88.67-2.18,1.47-4.32,2.38-6.42.94-2.16,2.01-4.26,3.18-6.3,1.14-1.99,2.39-3.91,3.74-5.76,1.38-1.9,2.86-3.73,4.43-5.47,1.54-1.71,3.16-3.35,4.86-4.9,1.72-1.58,3.52-3.07,5.39-4.48,3.7-2.8,7.66-5.25,11.79-7.35,4.13-2.1,8.45-3.85,12.87-5.25,4.42-1.4,8.96-2.44,13.54-3.14,2.33-.35,4.66-.61,7.01-.79,2.28-.17,4.57-.25,6.85-.25"/>
    <path class="cls-3" d="M387.42,664.51c0,.6,0,1.21,0,1.81,0,.6-.01,1.21-.03,1.81-.03,1.21-.07,2.42-.14,3.62-.13,2.41-.33,4.82-.6,7.22-.27,2.4-.62,4.79-1.04,7.17-.21,1.19-.44,2.38-.68,3.56-.25,1.18-.51,2.36-.79,3.54-1.12,4.69-2.52,9.3-4.18,13.82-.21.57-.42,1.13-.64,1.7-.22.56-.44,1.13-.66,1.69-.45,1.12-.92,2.24-1.4,3.35-.24.56-.49,1.11-.74,1.66-.25.55-.51,1.1-.76,1.65-.52,1.1-1.05,2.19-1.6,3.28-2.17,4.29-4.59,8.45-7.22,12.47-.33.51-.67,1.01-1,1.51-.34.5-.68,1-1.03,1.5-.69,1-1.4,1.98-2.12,2.96-.36.49-.72.98-1.09,1.46-.37.48-.74.97-1.11,1.45-.75.96-1.51,1.91-2.29,2.86-3.05,3.71-6.3,7.25-9.71,10.63-3.46,3.42-7.09,6.66-10.87,9.71-3.74,3.02-7.61,5.85-11.61,8.51-2.02,1.34-4.07,2.63-6.15,3.88-1.05.63-2.1,1.24-3.16,1.84-.27.15-.53.3-.8.45-.27.15-.53.3-.8.45-.54.3-1.07.59-1.61.88-4.23,2.28-8.57,4.37-12.98,6.27-.56.24-1.11.47-1.67.71-.56.23-1.12.46-1.68.69-1.12.46-2.25.9-3.39,1.33-1.14.43-2.28.85-3.42,1.26-.57.2-1.15.41-1.72.6-.58.2-1.15.39-1.73.59-2.28.76-4.58,1.47-6.89,2.13-.58.17-1.16.33-1.74.49-.58.16-1.16.32-1.75.47-1.17.31-2.34.61-3.51.89-4.71,1.14-9.47,2.1-14.26,2.86-.59.09-1.19.19-1.79.27s-1.19.17-1.79.26c-1.19.17-2.39.32-3.59.46-1.2.14-2.4.27-3.6.39-1.2.12-2.41.22-3.61.32-4.82.38-9.66.56-14.5.56"/>
    <line class="cls-3" x1="430.87" y1="564.78" x2="432.56" y2="641.63"/>
    <path class="cls-3" d="M229.96,801.46c-5.16,0-10.32-.23-15.47-.66-.64-.06-1.29-.11-1.93-.17-.64-.06-1.28-.13-1.93-.19-1.28-.14-2.56-.29-3.84-.45-1.28-.16-2.56-.34-3.83-.53-.64-.09-1.27-.19-1.91-.29-.64-.1-1.27-.21-1.91-.31-5.1-.87-10.16-1.95-15.17-3.25-2.5-.65-4.98-1.35-7.44-2.1-1.23-.38-2.46-.77-3.68-1.17-.61-.2-1.22-.41-1.83-.61s-1.21-.42-1.82-.63c-4.89-1.73-9.7-3.67-14.41-5.83-.59-.27-1.17-.54-1.76-.82-.58-.27-1.16-.55-1.74-.83-1.16-.56-2.31-1.14-3.45-1.72-1.14-.59-2.28-1.18-3.4-1.8-.56-.3-1.12-.61-1.68-.93-.56-.31-1.11-.63-1.67-.94-4.51-2.58-8.89-5.37-13.14-8.36-2.1-1.48-4.17-3.02-6.19-4.6-1.01-.79-2.01-1.59-3-2.4-.49-.41-.98-.81-1.47-1.23-.49-.41-.97-.82-1.46-1.24-3.93-3.4-7.68-6.99-11.24-10.77-3.51-3.74-6.83-7.66-9.93-11.75-.79-1.04-1.56-2.09-2.32-3.15-.38-.53-.75-1.06-1.12-1.6-.37-.53-.74-1.07-1.1-1.61-1.44-2.15-2.82-4.34-4.14-6.56-1.31-2.21-2.55-4.46-3.73-6.75-.15-.28-.29-.57-.44-.86-.15-.29-.29-.57-.43-.86-.28-.57-.57-1.15-.84-1.73-.55-1.15-1.09-2.31-1.6-3.48-.26-.59-.52-1.19-.78-1.79-.25-.6-.5-1.2-.75-1.8-.49-1.2-.96-2.41-1.41-3.62-.9-2.42-1.73-4.87-2.48-7.35-.75-2.46-1.42-4.95-2.01-7.46-.59-2.5-1.1-5.01-1.53-7.54-.87-5.09-1.41-10.23-1.62-15.39-.01-.32-.02-.64-.03-.97-.01-.32-.02-.64-.03-.97-.02-.64-.03-1.29-.03-1.93-.01-1.29,0-2.58.03-3.87.06-2.58.21-5.16.44-7.73"/>
    <path class="cls-3" d="M25.45,624.13c.59-5.68,1.5-11.32,2.73-16.91,1.27-5.78,2.87-11.48,4.79-17.08,1.86-5.42,4.02-10.73,6.45-15.91,2.51-5.34,5.32-10.54,8.39-15.58,2.99-4.9,6.24-9.65,9.71-14.22,3.56-4.68,7.35-9.18,11.36-13.48,3.94-4.22,8.07-8.25,12.39-12.09,4.38-3.89,8.94-7.57,13.66-11.04,9.37-6.89,19.35-12.94,29.76-18.12,10.41-5.18,21.25-9.5,32.36-12.95,5.6-1.74,11.27-3.26,16.99-4.55,5.63-1.28,11.31-2.34,17.02-3.19,5.83-.87,11.69-1.51,17.57-1.94,5.72-.41,11.45-.62,17.19-.61"/>
    <path class="cls-3" d="M422.22,92.83c.94.07,1.88.14,2.82.2.23.02.47.03.7.05s.47.03.7.05c.47.03.94.06,1.41.09.94.06,1.88.12,2.82.17.47.03.94.05,1.41.07.47.02.94.04,1.41.06.94.03,1.88.06,2.82.08.47,0,.94.01,1.41.01.47,0,.94,0,1.41,0,.47,0,.94-.01,1.41-.02.23,0,.47-.01.7-.02.23,0,.47-.02.7-.03.94-.04,1.88-.1,2.82-.18"/>
    <path class="cls-3" d="M774.58,473.63c-.06.05-.13.1-.19.15-.06.04-.12.09-.19.12-.03.02-.06.03-.09.05-.01,0-.03.01-.05.02s-.03.01-.05.02c-.06.02-.12.04-.18.06-.24.06-.48.03-.7-.08-.12-.06-.23-.14-.33-.22-.06-.05-.11-.1-.16-.16-.06-.06-.11-.12-.16-.19-.06-.07-.11-.15-.16-.22-.05-.08-.1-.17-.15-.25-.05-.09-.1-.19-.15-.28-.05-.1-.1-.21-.15-.31-.05-.11-.1-.23-.14-.34-.05-.12-.1-.25-.14-.37-.05-.13-.09-.27-.14-.4-.05-.14-.09-.29-.13-.43-.09-.31-.18-.63-.26-.95-.09-.35-.17-.71-.24-1.07-.08-.39-.16-.79-.23-1.18-.08-.43-.15-.86-.22-1.29-.07-.47-.14-.93-.2-1.4-.07-.5-.13-1-.19-1.51-.05-.45-.1-.91-.15-1.36-.05-.48-.1-.96-.14-1.43-.05-.5-.09-1-.13-1.51-.02-.26-.04-.52-.06-.78-.01-.13-.02-.26-.03-.4,0-.07,0-.13-.01-.2,0-.07,0-.13-.01-.2-.08-1.12-.15-2.24-.21-3.35-.07-1.2-.12-2.4-.17-3.61-.04-1.01-.08-2.02-.11-3.03-.03-1.05-.06-2.11-.09-3.16-.03-1.1-.05-2.19-.06-3.29,0-.56-.02-1.12-.02-1.69,0-.28,0-.57,0-.85v-.43c0-.14,0-.29,0-.43-.02-2.11-.03-4.21-.02-6.32,0-2.18.02-4.37.04-6.55.02-2.14.06-4.28.1-6.42.02-1.08.04-2.15.06-3.23.01-.54.02-1.08.04-1.61.01-.54.03-1.08.04-1.61.05-2.17.12-4.34.18-6.52.07-2.12.14-4.23.21-6.35.08-2.23.17-4.46.26-6.69.08-2.06.17-4.12.26-6.17.19-4.29.4-8.57.63-12.86"/>
    <path class="cls-3" d="M808.89,98.49l1.41,1.7"/>
    <path class="cls-3" d="M808.89,98.49c.19.23.36.51.5.78.14.27.26.56.37.85"/>
    <path class="cls-3" d="M809.02,100.72c-.09.07-.17.14-.25.22-.09.09-.17.18-.25.28-.09.11-.17.22-.26.33-.09.12-.18.25-.26.38-.09.14-.18.29-.27.43-.09.16-.18.32-.27.48-.09.18-.19.36-.27.54-.1.2-.19.39-.28.59-.1.21-.19.43-.28.64-.1.23-.19.46-.29.69-.1.25-.2.5-.29.75-.1.27-.2.53-.29.8-.1.28-.2.57-.3.85-.1.3-.2.6-.3.9-.21.65-.42,1.3-.62,1.96-.22.72-.43,1.44-.63,2.16-.22.79-.43,1.57-.64,2.37-.11.42-.22.84-.33,1.26-.06.22-.11.43-.16.65-.03.11-.06.22-.08.33-.03.11-.06.22-.08.33-.23.92-.45,1.84-.67,2.76-.23.98-.46,1.97-.68,2.96-.23,1.05-.46,2.1-.69,3.15-.24,1.11-.47,2.22-.7,3.34-.24,1.17-.48,2.35-.71,3.52-.12.6-.24,1.2-.35,1.81-.06.31-.12.61-.18.92-.03.16-.06.31-.09.46-.03.16-.06.31-.09.47-.24,1.28-.48,2.55-.71,3.83-.24,1.33-.48,2.67-.72,4-.25,1.39-.49,2.78-.72,4.17-.25,1.44-.49,2.88-.73,4.33-.25,1.49-.49,2.99-.73,4.48-.12.77-.25,1.53-.37,2.3-.06.39-.12.78-.18,1.16-.03.19-.06.39-.09.59-.03.2-.06.39-.09.59-.25,1.59-.49,3.19-.74,4.78-.41,2.67-.8,5.35-1.19,8.02-.41,2.79-.8,5.57-1.19,8.36-.2,1.43-.4,2.87-.59,4.3-.1.73-.2,1.45-.3,2.18-.05.37-.1.73-.15,1.1-.03.18-.05.37-.07.55l-.07.55c-.4,2.99-.79,5.98-1.18,8.97-.35,2.76-.7,5.51-1.04,8.27-.35,2.82-.69,5.64-1.03,8.46-.17,1.43-.34,2.86-.51,4.29-.08.72-.17,1.44-.25,2.16-.08.72-.17,1.45-.25,2.17-.34,2.92-.67,5.85-1,8.78-.63,5.65-1.24,11.3-1.83,16.95-.3,2.86-.59,5.73-.88,8.6-.04.36-.07.72-.11,1.08-.04.36-.07.72-.11,1.08-.07.72-.14,1.44-.22,2.16-.14,1.44-.29,2.89-.43,4.33-.56,5.71-1.1,11.42-1.62,17.13-.26,2.86-.51,5.71-.76,8.57-.12,1.43-.25,2.85-.37,4.28-.06.71-.12,1.42-.18,2.14-.06.71-.12,1.42-.18,2.13-.49,5.77-.95,11.53-1.4,17.3-.22,2.85-.43,5.69-.64,8.54-.1,1.41-.21,2.82-.31,4.23-.05.7-.1,1.4-.15,2.11-.05.7-.1,1.4-.15,2.1-.21,2.95-.41,5.89-.6,8.84-.1,1.45-.19,2.91-.28,4.36-.05.72-.09,1.44-.14,2.16-.02.36-.04.72-.07,1.08l-.07,1.08c-.17,2.83-.34,5.66-.51,8.5-.16,2.77-.31,5.53-.46,8.3"/>
    <path class="cls-3" d="M465.89,61.19c1.43.19,2.86.39,4.29.58.71.1,1.43.19,2.14.29.09.01.18.02.27.04l.27.04c.18.02.36.05.54.07l1.07.15c2.85.39,5.71.77,8.56,1.16,1.43.19,2.85.39,4.28.58,1.43.19,2.85.39,4.28.58,2.85.39,5.7.77,8.55,1.15,2.85.38,5.71.77,8.56,1.15,2.85.38,5.71.76,8.56,1.14,1.43.19,2.86.38,4.28.57,1.43.19,2.86.38,4.28.57,2.86.38,5.71.75,8.57,1.13.71.09,1.42.19,2.14.28s1.42.19,2.14.28c1.43.19,2.85.37,4.28.56,1.43.19,2.85.37,4.28.55.71.09,1.43.18,2.14.28.71.09,1.43.18,2.14.28.71.09,1.43.18,2.14.27.71.09,1.43.18,2.14.27,1.43.18,2.86.36,4.29.55,1.43.18,2.86.36,4.29.54.72.09,1.43.18,2.15.27s1.43.18,2.15.27c2.85.36,5.7.71,8.55,1.06,1.43.18,2.85.35,4.28.53l2.14.26c.71.09,1.43.17,2.14.26,1.43.17,2.86.35,4.29.52.72.09,1.43.17,2.15.26.72.09,1.43.17,2.15.26l2.15.26c.72.09,1.43.17,2.15.26,1.44.17,2.87.34,4.31.51,2.85.34,5.7.67,8.55,1.01,1.43.17,2.86.33,4.28.5.71.08,1.43.17,2.14.25s1.43.17,2.14.25c2.86.33,5.73.66,8.6.98l2.15.24c.72.08,1.44.16,2.15.24.72.08,1.44.16,2.16.24l2.16.24c5.71.64,11.42,1.26,17.13,1.87,1.43.15,2.87.31,4.3.46l2.15.23c.72.08,1.44.15,2.15.23,1.44.15,2.87.3,4.31.45.72.08,1.44.15,2.16.22.72.07,1.44.15,2.16.22,5.72.59,11.43,1.16,17.15,1.72.72.07,1.43.14,2.15.21.72.07,1.43.14,2.15.21,1.44.14,2.87.27,4.31.41,2.88.27,5.76.54,8.64.8.71.07,1.43.13,2.14.19.71.06,1.43.13,2.14.19,1.43.13,2.86.26,4.29.38,2.87.25,5.73.5,8.6.74.72.06,1.44.12,2.15.18.72.06,1.44.12,2.15.18,1.44.12,2.88.24,4.31.35,2.88.23,5.76.46,8.64.68"/>
    <path class="cls-3" d="M706.92,468.39c-2.89-.24-5.78-.48-8.67-.71-2.89-.23-5.78-.45-8.68-.66-2.9-.21-5.79-.42-8.69-.62-1.45-.1-2.9-.2-4.35-.29-1.45-.1-2.9-.19-4.35-.28-2.9-.18-5.79-.36-8.69-.53-1.45-.08-2.9-.17-4.34-.25-1.45-.08-2.9-.16-4.35-.24-2.9-.16-5.8-.3-8.69-.45-1.45-.07-2.9-.14-4.35-.21-1.45-.07-2.9-.13-4.35-.2-5.8-.26-11.6-.5-17.41-.71-1.45-.05-2.9-.1-4.35-.16-1.45-.05-2.9-.1-4.35-.15-2.9-.1-5.8-.19-8.69-.27-2.9-.08-5.8-.16-8.71-.24-2.9-.07-5.8-.14-8.7-.21-5.8-.13-11.6-.24-17.4-.33-2.9-.05-5.8-.09-8.7-.12-2.9-.04-5.8-.07-8.7-.1-5.8-.05-11.6-.09-17.41-.11s-11.61-.03-17.41-.02c-5.8,0-11.61.03-17.41.07-5.8.04-11.6.09-17.41.15-2.9.03-5.8.06-8.7.1-.18,0-.36,0-.54,0-.09,0-.18,0-.27,0-.09,0-.18,0-.27,0-.36,0-.73,0-1.09.01-.73,0-1.45.02-2.18.03-1.45.02-2.9.04-4.35.06-2.9.04-5.8.08-8.71.13-2.9.05-5.8.09-8.7.14-5.8.1-11.6.2-17.4.3"/>
    <path class="cls-3" d="M79.94,128.59c-.93.92-1.83,1.87-2.7,2.85-.11.12-.22.25-.33.37-.11.12-.22.25-.33.37-.21.25-.43.5-.64.75-.42.5-.82,1-1.22,1.51-1.61,2.06-3.08,4.24-4.35,6.53-.16.29-.32.58-.47.88-.08.15-.15.29-.23.44-.07.15-.15.29-.22.44-.29.58-.56,1.17-.82,1.76-.52,1.2-.99,2.43-1.38,3.67-.4,1.25-.72,2.52-.98,3.8-.06.32-.12.65-.18.97-.05.32-.1.65-.15.97-.09.65-.15,1.29-.2,1.95"/>
    <line class="cls-3" x1="740.53" y1="92.84" x2="807.92" y2="97.9"/>
    <path class="cls-3" d="M776.16,472.29c-.54.46-1.08.91-1.62,1.37"/>
    <path class="cls-3" d="M775.11,471.58c-.08-.08-.16-.18-.23-.27-.08-.11-.15-.22-.22-.34-.08-.13-.15-.26-.21-.4-.07-.15-.14-.31-.21-.46-.07-.17-.14-.35-.2-.53-.07-.2-.13-.39-.19-.59-.07-.22-.13-.44-.19-.66-.06-.24-.12-.48-.18-.72-.06-.26-.12-.52-.17-.78-.06-.28-.11-.56-.17-.85-.06-.3-.11-.61-.16-.91-.05-.32-.11-.65-.15-.97-.05-.34-.1-.69-.15-1.04-.05-.37-.1-.73-.14-1.1-.05-.39-.09-.77-.13-1.16-.04-.41-.09-.81-.13-1.22-.09-.91-.17-1.81-.24-2.72-.08-.99-.15-1.99-.21-2.98-.07-1.08-.12-2.16-.17-3.24,0-.07,0-.14,0-.21,0-.07,0-.14,0-.21,0-.14-.01-.28-.02-.43-.01-.29-.03-.58-.04-.86-.02-.59-.05-1.18-.07-1.78-.03-.96-.06-1.93-.09-2.89-.03-1.01-.05-2.03-.07-3.04-.02-1.06-.04-2.12-.05-3.18-.01-1.11-.02-2.22-.03-3.33,0-.99,0-1.98,0-2.97,0-.51,0-1.01,0-1.52,0-.13,0-.26,0-.38,0-.13,0-.26,0-.39,0-.26,0-.52,0-.78,0-2.14.03-4.29.06-6.43.11-8.22.34-16.68.64-24.9.3-8.26.69-16.63,1.13-24.88"/>
    <path class="cls-3" d="M460,64.64c-.17.15-.34.3-.5.46-.17.17-.34.34-.51.51-.02.02-.04.05-.06.07-.02.02-.04.05-.06.07-.04.05-.08.09-.13.14-.09.1-.17.19-.26.29-.17.2-.35.4-.51.61-.36.44-.7.9-1.03,1.36-.36.5-.71,1.01-1.04,1.53-.36.56-.71,1.12-1.05,1.69-.36.61-.72,1.22-1.06,1.84-.18.32-.36.65-.53.97-.18.34-.36.67-.53,1.01-.37.7-.72,1.41-1.07,2.12-.52,1.04-1.02,2.1-1.5,3.15-.26.55-.51,1.11-.76,1.67-.06.14-.13.28-.19.43-.03.07-.06.14-.09.21-.03.07-.06.14-.1.21-.13.29-.25.58-.38.87-.52,1.2-1.03,2.4-1.52,3.61-.13.31-.26.62-.38.94-.06.16-.13.32-.19.47-.06.16-.13.32-.19.48-.26.65-.51,1.29-.77,1.94-.11.27-.21.55-.32.82-.05.14-.11.28-.16.42-.03.07-.05.14-.08.21-.03.07-.05.14-.08.21-.22.57-.43,1.13-.64,1.7-.44,1.17-.87,2.35-1.29,3.52-.22.6-.43,1.21-.65,1.82-.05.15-.11.31-.16.46-.05.15-.11.31-.16.46-.11.31-.22.62-.32.93-.44,1.27-.87,2.55-1.3,3.82-.19.57-.38,1.14-.57,1.71-.1.29-.19.58-.28.87-.05.15-.09.29-.14.44-.05.15-.1.29-.14.44-.38,1.19-.76,2.38-1.14,3.58-.39,1.23-.76,2.47-1.14,3.7-.1.31-.19.63-.28.95l-.14.48c-.05.16-.09.32-.14.48-.19.64-.38,1.29-.57,1.93-.69,2.37-1.37,4.75-2.02,7.13-.34,1.24-.68,2.49-1.01,3.74-.34,1.28-.68,2.57-1.01,3.86-.3,1.18-.6,2.36-.9,3.55-.04.15-.08.3-.11.45-.04.15-.07.3-.11.45-.08.3-.15.61-.22.91-.15.61-.3,1.23-.45,1.84-.61,2.54-1.2,5.09-1.77,7.64-.07.3-.13.59-.2.89-.03.15-.07.3-.1.44-.03.15-.07.3-.1.45-.13.6-.26,1.2-.39,1.8-.26,1.23-.53,2.45-.78,3.68-.53,2.56-1.05,5.12-1.54,7.68-.03.15-.06.3-.09.45-.03.15-.06.3-.09.45-.06.3-.11.6-.17.9-.11.61-.23,1.21-.34,1.82-.23,1.24-.45,2.47-.67,3.71-.23,1.27-.45,2.54-.66,3.81-.06.32-.11.65-.16.97-.03.16-.06.33-.08.49-.03.16-.05.33-.08.49-.11.65-.21,1.3-.32,1.96"/>
    <path class="cls-3" d="M773.35,423.1c0-.5.02-1.01.02-1.51,0-.26,0-.51.01-.77v-.77c.02-.52.03-1.03.04-1.55l.02-.78c0-.13,0-.26,0-.39,0-.13,0-.26,0-.39.02-1.02.05-2.03.07-3.05.01-.52.03-1.03.04-1.55,0-.13,0-.26.01-.39,0-.13,0-.26,0-.39,0-.26.01-.52.02-.79.11-4.11.25-8.24.4-12.35.31-8.19.69-16.5,1.13-24.68"/>
    <path class="cls-3" d="M406.83,150.22c.01.34.02.68.03,1.03,0,.17,0,.34,0,.51,0,.09,0,.17,0,.26v.26c-.02.34-.03.68-.05,1.03-.02.34-.04.68-.07,1.02"/>
    <path class="cls-3" d="M774.25,461.64c-.04-.38-.07-.76-.1-1.13-.03-.39-.07-.79-.1-1.18-.06-.83-.12-1.66-.18-2.49-.05-.78-.1-1.57-.14-2.35-.04-.82-.08-1.64-.12-2.46-.14-3.19-.23-6.44-.28-9.64-.05-3.19-.07-6.45-.07-9.64,0-3.19.03-6.45.08-9.65"/>
    <path class="cls-3" d="M65.7,298.63c1.05-2.51,2.17-5.01,3.35-7.47.59-1.23,1.2-2.45,1.82-3.66.31-.61.63-1.21.95-1.81.32-.6.64-1.2.97-1.8.33-.59.65-1.19.99-1.78.17-.3.34-.59.5-.89s.34-.59.51-.89c.35-.6.69-1.17,1.04-1.76.18-.29.35-.59.53-.88l.27-.44c.09-.15.18-.3.27-.44.09-.14.17-.28.26-.42.09-.14.17-.28.26-.42.04-.07.09-.14.13-.21l.13-.21.26-.43c.04-.07.09-.14.13-.21l.13-.21c.04-.07.09-.14.13-.21.04-.07.09-.14.13-.21.04-.07.09-.14.13-.22s.09-.14.13-.22.09-.15.13-.22c.04-.07.09-.15.13-.22.18-.29.36-.59.54-.88.18-.3.36-.59.54-.89.09-.15.18-.3.27-.45.05-.08.09-.15.14-.22.05-.08.09-.15.14-.23.09-.15.18-.3.27-.45s.18-.3.27-.46c.35-.59.7-1.18,1.05-1.78.35-.6.69-1.19,1.03-1.79.17-.3.34-.6.5-.9.04-.08.08-.15.12-.22.04-.07.08-.15.12-.22.08-.15.16-.3.24-.45.32-.59.63-1.18.93-1.77.19-.36.37-.73.55-1.09.17-.35.34-.71.51-1.06.04-.09.08-.17.12-.26.04-.09.08-.17.12-.26.08-.17.15-.34.22-.51.14-.33.28-.66.41-.99.03-.08.06-.16.09-.24.02-.04.03-.08.05-.12.01-.04.03-.08.04-.12.06-.15.11-.31.17-.46.03-.08.05-.15.08-.23.01-.04.03-.07.04-.11.01-.04.02-.07.04-.11.02-.07.05-.15.07-.22.01-.04.02-.07.03-.11l.03-.11c.08-.28.16-.55.23-.83.07-.26.12-.51.18-.77.04-.2.08-.41.11-.61.03-.19.06-.38.08-.58.02-.18.03-.37.05-.55.01-.17.02-.35.02-.53,0-.33,0-.67,0-1.01,0-.16,0-.33-.01-.49,0-.16-.01-.33-.02-.49-.01-.32-.02-.66-.04-.98,0-.16-.01-.33-.02-.49,0-.16-.02-.33-.03-.49-.02-.32-.04-.65-.06-.97-.01-.16-.02-.32-.03-.48-.01-.16-.02-.32-.04-.48-.01-.17-.03-.33-.04-.5-.01-.17-.03-.33-.04-.5-.01-.17-.03-.33-.04-.5s-.03-.33-.05-.5c-.01-.17-.03-.34-.05-.5-.02-.17-.03-.34-.05-.51s-.03-.34-.05-.51c-.02-.17-.03-.34-.05-.51-.02-.17-.03-.34-.05-.51-.02-.17-.04-.34-.06-.51-.02-.17-.04-.34-.06-.51-.02-.17-.04-.34-.06-.52-.08-.69-.15-1.37-.23-2.06"/>
    <path class="cls-3" d="M392.31,239.01c-.03.17-.07.34-.1.5-.03.17-.07.34-.1.5-.07.34-.13.67-.2,1.01-.13.67-.26,1.35-.39,2.02-.13.67-.25,1.35-.37,2.03-.06.34-.12.68-.17,1.01-.06.34-.11.68-.17,1.02-.21,1.31-.4,2.63-.55,3.95-.04.34-.07.65-.11.99-.02.17-.03.33-.05.5,0,.08-.01.17-.02.25,0,.04,0,.08,0,.13,0,.04,0,.08,0,.13,0,.17-.02.35-.02.52,0,.04,0,.09,0,.13v.14c0,.09,0,.18,0,.28.01.4.05.79.1,1.18.04.26.08.52.13.78.06.28.12.56.2.84.08.3.17.6.26.9.1.32.21.64.32.95.01.04.03.08.05.12.01.04.03.08.05.12.03.08.06.17.1.25.06.17.13.34.2.51.14.35.29.7.44,1.05.16.36.33.72.5,1.08.02.05.04.09.07.14.02.05.04.09.07.14l.13.28c.09.19.18.37.28.56.3.59.61,1.19.92,1.78.32.6.65,1.2.99,1.8.34.61.69,1.21,1.04,1.81.09.15.18.3.27.45.09.15.18.3.27.45.18.3.36.6.54.9.37.6.73,1.2,1.11,1.8.09.15.18.3.28.44.05.07.09.15.14.22l.14.22c.18.29.37.58.55.88.36.58.73,1.15,1.09,1.72.09.14.18.28.27.43.04.07.09.14.13.21s.09.14.13.21c.18.28.36.56.53.84.19.3.38.6.57.89.19.3.37.59.56.89l.27.44c.09.15.18.29.27.44.18.29.36.58.53.87.35.58.7,1.16,1.05,1.75.35.58.69,1.17,1.02,1.76,2.73,4.76,5.23,9.67,7.46,14.68"/>
    <line class="cls-3" x1="426.37" y1="362.27" x2="430.9" y2="569.64"/>
    <path class="cls-3" d="M229.1,392.13c-5.62,0-11.24.2-16.84.61-5.76.42-11.51,1.06-17.22,1.93-5.59.84-11.15,1.9-16.66,3.16-5.6,1.29-11.15,2.79-16.63,4.52-10.88,3.42-21.48,7.7-31.67,12.84-10.18,5.14-19.93,11.12-29.07,17.94-4.6,3.43-9.05,7.07-13.32,10.91-4.21,3.79-8.24,7.77-12.07,11.94-3.9,4.25-7.6,8.68-11.06,13.29-3.38,4.51-6.54,9.19-9.45,14.02-2.98,4.95-5.7,10.05-8.13,15.29-2.36,5.09-4.45,10.3-6.26,15.61-1.87,5.49-3.42,11.08-4.66,16.75-1.19,5.47-2.08,11.01-2.66,16.58"/>
    <path class="cls-3" d="M405.22,165.16c-.09.6-.18,1.2-.27,1.8-.04.3-.09.59-.13.89-.02.15-.05.3-.07.45-.01.08-.02.15-.03.23-.01.08-.02.15-.03.23-.09.6-.18,1.2-.27,1.8-.05.3-.09.6-.14.89l-.07.45c-.02.15-.05.3-.07.46-.09.6-.19,1.2-.28,1.8-.03.22-.07.44-.1.66-.02.14-.04.28-.07.42-.04.24-.08.48-.11.72,0,.04-.01.07-.02.11l-.02.11c-.01.08-.02.15-.03.22-.02.15-.05.3-.07.45-.02.15-.05.3-.07.45-.02.15-.05.3-.07.45-.02.15-.05.3-.07.45,0,.04-.01.08-.02.11v.06s-.01.04-.02.06c-.01.08-.02.15-.04.22-.05.3-.1.6-.14.9"/>
    <path class="cls-3" d="M407.04,132.77h0s0,.02,0,.03c0,.02,0,.05,0,.07,0,.09,0,.18.01.27.01.24.02.48.03.73,0,.13.01.27.02.4,0,.07,0,.13,0,.2,0,.07,0,.13,0,.2,0,.27.02.54.03.81,0,.23.01.45.02.68,0,.11,0,.23,0,.34s0,.23,0,.34c0,.22.01.45.02.67,0,.22,0,.44.01.67,0,.23,0,.46.01.68,0,.11,0,.23,0,.34,0,.06,0,.11,0,.17s0,.11,0,.17c0,.11,0,.22,0,.33v.33c0,.22,0,.45,0,.67,0,.2,0,.41,0,.61,0,.22,0,.45,0,.67,0,.47,0,.94-.01,1.41-.01.9-.03,1.8-.06,2.7-.03.9-.06,1.8-.1,2.69-.04.9-.09,1.8-.15,2.69-.06.9-.12,1.79-.2,2.69"/>
    <path class="cls-3" d="M405.22,165.16c-.18,1.2-.36,2.4-.54,3.6-.05.3-.09.6-.14.9-.05.3-.09.6-.14.9-.09.6-.18,1.2-.28,1.8-.09.6-.19,1.2-.28,1.8-.05.3-.09.6-.14.9s-.09.6-.14.9c-.19,1.2-.38,2.4-.57,3.6"/>
    <path class="cls-3" d="M80.26,122.11c.01-.12.03-.24.04-.36s.03-.24.04-.36c.03-.24.05-.48.08-.72.06-.48.12-.97.18-1.45"/>
    <path class="cls-3" d="M83.68,203.61c-.08-.92-.17-1.83-.25-2.75-.08-.82-.15-1.63-.23-2.45-.16-1.66-.32-3.31-.48-4.97-.04-.4-.08-.79-.12-1.19l-.06-.59c-.02-.19-.04-.39-.06-.59-.08-.8-.16-1.6-.24-2.4-.08-.84-.16-1.68-.25-2.52-.09-.96-.19-1.92-.28-2.87-.07-.71-.14-1.43-.2-2.15-.07-.78-.15-1.56-.22-2.34-.17-1.9-.34-3.79-.5-5.69-.04-.44-.07-.87-.11-1.31-.04-.44-.07-.88-.11-1.32-.07-.89-.14-1.78-.21-2.68-.06-.85-.13-1.7-.19-2.55-.03-.39-.06-.78-.08-1.17-.01-.19-.03-.39-.04-.58s-.03-.39-.04-.58c-.06-.83-.11-1.66-.16-2.49-.03-.42-.05-.83-.07-1.25,0-.1-.01-.21-.02-.31,0-.1-.01-.21-.02-.31-.01-.21-.02-.42-.03-.63-.05-.86-.09-1.71-.13-2.57,0-.11-.01-.22-.02-.33s-.01-.22-.01-.33c-.01-.22-.02-.44-.03-.66-.02-.44-.04-.89-.06-1.33-.03-.77-.06-1.55-.08-2.32-.03-.82-.05-1.64-.07-2.45,0-.05,0-.11,0-.16,0-.05,0-.11,0-.16,0-.11,0-.21,0-.32,0-.22,0-.43-.01-.65,0-.44-.01-.88-.02-1.32,0-.03,0-.06,0-.08,0-.03,0-.06,0-.08,0-.06,0-.11,0-.17,0-.11,0-.23,0-.34,0-.23,0-.47,0-.7,0-.48,0-.96,0-1.44v-.28c0-.1,0-.19,0-.29,0-.19,0-.39,0-.58,0-.39,0-.79,0-1.18,0-.41,0-.81.02-1.22,0-.43.01-.86.02-1.29,0-.11,0-.22,0-.33,0-.05,0-.11,0-.16,0-.01,0-.03,0-.04,0-.01,0-.03,0-.04v-.08c0-.22.01-.44.02-.66.01-.45.03-.89.04-1.34.03-.9.07-1.81.11-2.71,0-.1.01-.21.02-.31,0-.1,0-.21.01-.31.01-.21.02-.41.03-.62,0-.1.01-.21.02-.31v-.16s.01-.05.01-.08v-.08c.02-.21.03-.42.04-.62.03-.42.05-.84.08-1.26.01-.21.03-.42.04-.63s.03-.42.05-.64c.07-.9.14-1.81.22-2.71.02-.23.04-.46.06-.69,0-.1.02-.2.03-.3l.03-.29c.04-.39.08-.78.12-1.18"/>
    <path class="cls-3" d="M244.79,17.81c2.34,0,4.67.03,7.01.09.58.01,1.17.03,1.75.05.58.02,1.17.04,1.75.06,1.16.04,2.33.09,3.49.15,1.16.06,2.32.12,3.48.19,1.16.07,2.32.15,3.47.23,2.31.17,4.61.36,6.91.59.59.06,1.17.12,1.76.18.59.06,1.17.12,1.76.19,1.17.13,2.33.26,3.5.41.58.07,1.16.14,1.74.22.58.08,1.16.15,1.74.23,1.16.16,2.31.32,3.46.49,1.15.17,2.29.35,3.44.54.29.05.57.09.86.14.29.05.57.1.86.14.57.1,1.14.2,1.71.3,2.26.4,4.51.83,6.76,1.29,1.16.24,2.32.49,3.48.74.58.13,1.15.26,1.73.39.29.07.57.13.86.2.29.07.57.13.86.2,2.28.54,4.54,1.12,6.8,1.73.28.08.56.15.84.23.28.08.56.15.84.23.56.16,1.11.31,1.67.47,1.11.32,2.21.65,3.31.99.55.17,1.1.34,1.64.51.27.09.55.17.82.26.27.09.54.18.82.26,1.08.35,2.16.71,3.24,1.08.56.19,1.13.39,1.69.59.28.1.56.2.84.3.28.1.56.2.84.3,1.11.41,2.21.82,3.32,1.25,1.09.43,2.18.86,3.27,1.31.27.11.54.22.81.34.13.06.27.11.4.17.13.06.27.11.4.17.54.23,1.07.46,1.6.69,1.06.46,2.12.94,3.17,1.42.52.24,1.04.49,1.56.73.26.12.52.25.78.37s.52.25.77.38c2.05,1,4.07,2.05,6.07,3.15.51.28,1.03.57,1.54.86.51.29,1.02.58,1.53.88,1.01.59,2.01,1.19,3,1.81.5.31.99.62,1.48.93.24.16.49.31.73.47.24.16.49.32.73.48.97.64,1.93,1.29,2.88,1.96.47.33.95.67,1.41,1.01.47.34.93.68,1.4,1.03.93.69,1.84,1.4,2.74,2.12.9.72,1.8,1.46,2.68,2.21.44.38.88.76,1.31,1.14.43.38.86.77,1.29,1.16,1.68,1.54,3.31,3.13,4.88,4.78.2.21.39.42.59.62.2.21.39.42.58.63.39.42.77.85,1.15,1.28.76.86,1.51,1.74,2.24,2.63.18.22.37.45.55.67s.36.45.54.68c.36.46.72.92,1.07,1.38.35.47.7.94,1.05,1.41.17.24.34.48.52.71.17.24.34.48.51.72.68.97,1.34,1.96,1.98,2.96.32.5.64,1.01.95,1.52.16.26.31.51.47.77.15.26.31.52.46.78.56.96,1.11,1.93,1.63,2.91.13.25.26.49.39.74.06.12.13.25.19.37.03.06.06.12.1.19.02.03.03.06.05.09.02.03.03.06.05.09.26.5.51,1.01.76,1.52.5,1.03.99,2.06,1.45,3.11.06.13.12.26.17.39s.12.26.17.4c.12.26.23.53.34.8.23.53.45,1.07.66,1.61.22.54.43,1.08.64,1.63.1.27.21.55.31.82.1.28.2.55.3.83.4,1.11.78,2.23,1.15,3.36.18.57.36,1.14.53,1.71.09.29.17.57.26.86.08.29.17.58.25.86.33,1.16.64,2.33.93,3.5.14.55.27,1.11.4,1.66.06.28.13.56.19.84.06.28.13.56.19.84.25,1.12.47,2.25.69,3.38.21,1.14.41,2.28.6,3.42.05.29.09.57.13.86.04.29.09.57.13.86.08.58.17,1.15.24,1.73.31,2.32.56,4.65.76,6.98.1,1.17.19,2.34.26,3.51.07,1.17.13,2.34.18,3.52"/>
    <line class="cls-3" x1="426.34" y1="357.6" x2="430.87" y2="564.73"/>
    <path class="cls-3" d="M426.34,357.6c-.22-10.11-1.47-20.15-3.71-30.01s-5.45-19.46-9.56-28.69"/>
    <path class="cls-3" d="M413.6,497.13c-2.09-4.09-4.34-8.1-6.76-12.01-2.47-4-5.1-7.89-7.89-11.68-2.73-3.71-5.61-7.32-8.62-10.81-3.06-3.55-6.26-6.98-9.59-10.28-6.6-6.56-13.67-12.62-21.14-18.16-7.47-5.54-15.32-10.55-23.47-15.02-8.15-4.47-16.6-8.4-25.26-11.77-8.67-3.37-17.54-6.19-26.56-8.46-18.03-4.52-36.62-6.8-55.21-6.82"/>
    <line class="cls-3" x1="33.41" y1="547.48" x2="54.84" y2="341.09"/>
    <path class="cls-3" d="M367.17,668.57c0,.09,0,.19,0,.28,0,.09,0,.19-.01.28-.01.19-.03.38-.05.57-.05.39-.12.78-.21,1.16-.19.75-.46,1.48-.82,2.16s-.79,1.33-1.29,1.92c-.5.59-1.05,1.13-1.66,1.61-.6.48-1.25.91-1.94,1.27-.68.36-1.4.67-2.13.91-1.47.49-3.02.73-4.56.73"/>
    <path class="cls-3" d="M80.6,119.22c.14-1.13.3-2.25.48-3.38.09-.56.18-1.12.27-1.68.05-.28.1-.56.14-.83.05-.28.1-.55.15-.83.2-1.1.42-2.2.66-3.3.06-.27.12-.55.18-.82s.12-.54.18-.82c.12-.54.25-1.08.39-1.62.52-2.13,1.11-4.24,1.77-6.34.32-1.03.66-2.05,1.02-3.07.18-.5.36-1.01.54-1.51.09-.25.19-.5.28-.75.05-.12.09-.25.14-.37.05-.12.1-.25.14-.37.83-2.14,1.73-4.24,2.71-6.31.06-.13.12-.25.18-.38.06-.13.12-.25.18-.38.12-.25.25-.5.37-.76.25-.5.5-1,.76-1.49.51-.98,1.04-1.96,1.59-2.92.54-.95,1.1-1.89,1.68-2.82.29-.46.58-.92.87-1.38.15-.23.29-.45.44-.68.15-.23.3-.45.45-.67.6-.89,1.21-1.77,1.85-2.64.31-.43.63-.86.95-1.29.16-.21.32-.42.48-.64.16-.21.32-.42.49-.63.69-.88,1.39-1.75,2.12-2.61.18-.21.36-.43.54-.64.18-.21.36-.42.55-.63.37-.42.73-.83,1.11-1.25.37-.41.75-.82,1.13-1.22.38-.4.76-.8,1.14-1.2.38-.4.77-.79,1.16-1.18.39-.39.78-.77,1.18-1.16.79-.76,1.6-1.51,2.41-2.25.82-.74,1.64-1.46,2.48-2.17.84-.71,1.69-1.41,2.55-2.09.86-.69,1.73-1.36,2.61-2.02.87-.65,1.75-1.29,2.64-1.92.22-.16.45-.31.67-.47.22-.16.45-.31.67-.47.45-.31.9-.62,1.36-.92.91-.61,1.83-1.21,2.76-1.79.46-.29.93-.58,1.4-.87.47-.29.94-.57,1.41-.86.47-.28.95-.56,1.43-.84.24-.14.48-.28.72-.41.24-.14.48-.27.72-.41.97-.55,1.94-1.08,2.92-1.6.99-.53,1.98-1.04,2.98-1.55,1-.51,2.01-1,3.03-1.49.49-.23.97-.46,1.46-.69.24-.11.49-.23.74-.34.25-.11.49-.23.74-.34.99-.45,1.98-.89,2.98-1.32,1-.43,2.01-.86,3.03-1.27.25-.1.51-.21.76-.31.26-.1.51-.2.77-.31.51-.2,1.03-.41,1.54-.6,1.03-.4,2.07-.79,3.11-1.17.52-.19,1.05-.38,1.57-.57.26-.09.53-.19.79-.28.26-.09.53-.19.79-.28,2.13-.74,4.27-1.44,6.42-2.11.26-.08.52-.16.77-.24.26-.08.52-.16.78-.24.52-.16,1.04-.31,1.56-.46,1.05-.31,2.09-.61,3.14-.9,1.06-.29,2.12-.58,3.18-.86,1.07-.28,2.13-.55,3.2-.82,1.08-.26,2.15-.52,3.23-.77.27-.06.54-.12.81-.19.27-.06.54-.12.81-.18.54-.12,1.09-.24,1.63-.36,1.09-.24,2.19-.47,3.29-.69.55-.11,1.1-.22,1.65-.33.28-.05.55-.11.83-.16.28-.05.55-.11.83-.16,2.15-.41,4.3-.79,6.46-1.14.54-.09,1.09-.18,1.63-.26.54-.09,1.09-.17,1.63-.25,1.09-.16,2.18-.32,3.28-.47.55-.08,1.1-.15,1.65-.22.27-.04.55-.07.82-.11.28-.03.55-.07.82-.1,1.1-.14,2.2-.27,3.31-.4.55-.06,1.11-.12,1.66-.18.55-.06,1.11-.12,1.66-.17,1.11-.11,2.22-.22,3.33-.32,1.1-.1,2.19-.19,3.29-.28.55-.04,1.1-.08,1.65-.12.27-.02.55-.04.82-.06.27-.02.55-.04.82-.06,2.2-.15,4.41-.27,6.61-.37,1.11-.05,2.21-.09,3.32-.13,1.11-.04,2.21-.07,3.32-.09,2.21-.05,4.43-.07,6.64-.07"/>
  </g>
  <g id="_图层_3" data-name="图层 3">
    <line class="cls-2" x1="312.67" y1="588.5" x2="554.06" y2="588.5"/>
    <path class="cls-1" d="M588.07,607.77h-6.86v-25.85c-2.51,2.34-5.46,4.08-8.86,5.2v-6.23c1.79-.59,3.74-1.7,5.83-3.33s3.54-3.54,4.32-5.72h5.57v35.94Z"/>
    <line class="cls-2" x1="360.83" y1="669.37" x2="554.06" y2="669.37"/>
    <line class="cls-2" x1="148.17" y1="745.64" x2="554.06" y2="745.64"/>
    <path class="cls-1" d="M593.68,678.86v6.37h-24.05c.26-2.41,1.04-4.69,2.34-6.85,1.3-2.16,3.87-5.02,7.71-8.58,3.09-2.88,4.99-4.83,5.69-5.86.94-1.42,1.42-2.82,1.42-4.2,0-1.53-.41-2.71-1.23-3.53-.82-.82-1.96-1.23-3.41-1.23s-2.57.43-3.42,1.29-1.33,2.29-1.46,4.3l-6.84-.68c.41-3.78,1.68-6.49,3.83-8.13s4.83-2.47,8.06-2.47c3.53,0,6.31.95,8.33,2.86s3.03,4.27,3.03,7.1c0,1.61-.29,3.15-.87,4.6-.58,1.46-1.49,2.98-2.75,4.58-.83,1.06-2.33,2.58-4.49,4.57s-3.54,3.3-4.11,3.96c-.58.65-1.05,1.29-1.4,1.9h13.62Z"/>
    <path class="cls-1" d="M570.27,747.98l6.64-.81c.21,1.69.78,2.99,1.71,3.88.93.9,2.05,1.34,3.37,1.34,1.42,0,2.61-.54,3.58-1.61.97-1.07,1.45-2.52,1.45-4.35,0-1.73-.46-3.09-1.39-4.1s-2.06-1.51-3.39-1.51c-.88,0-1.93.17-3.15.51l.76-5.59c1.86.05,3.27-.35,4.25-1.21.98-.86,1.46-1.99,1.46-3.41,0-1.2-.36-2.16-1.07-2.88-.72-.72-1.67-1.07-2.86-1.07s-2.17.41-3,1.22c-.83.81-1.33,2-1.51,3.56l-6.32-1.07c.44-2.16,1.1-3.89,1.99-5.19.89-1.29,2.12-2.31,3.71-3.05,1.59-.74,3.36-1.11,5.33-1.11,3.37,0,6.07,1.07,8.11,3.22,1.68,1.76,2.51,3.74,2.51,5.96,0,3.14-1.72,5.65-5.15,7.52,2.05.44,3.69,1.42,4.92,2.95,1.23,1.53,1.84,3.38,1.84,5.54,0,3.14-1.15,5.82-3.44,8.03-2.29,2.21-5.15,3.32-8.57,3.32-3.24,0-5.92-.93-8.06-2.79s-3.37-4.3-3.71-7.31Z"/>
  </g>
</svg>