<?xml version="1.0" encoding="UTF-8"?>
<svg id="_图层_1" data-name="图层 1" xmlns="http://www.w3.org/2000/svg" viewBox="0 0 563.19 286.12">
  <path d="M200.75,104.98l2.4,2.55,2.25,2.62,2.18,2.77,1.95,2.93,1.88,3,1.65,3.07,1.5,3.15,1.35,3.22,1.2,3.3,.98,3.38,.82,3.45,.6,3.38,.45,3.53,.3,3.45,.08,3.52-.08,3.53-.3,3.52-.45,3.45-.6,3.45-.82,3.38-.98,3.38-1.2,3.3-1.35,3.23-1.5,3.23-1.65,3.07-1.88,2.93-1.95,2.92-2.18,2.78-2.25,2.7-2.4,2.55-2.55,2.4-2.7,2.25-2.77,2.18-2.85,1.95-3,1.8-3.07,1.73-3.22,1.5-3.23,1.35-3.3,1.12-3.38,1.05-3.38,.82-3.45,.6-3.45,.45-3.53,.3-3.52,.07-3.45-.07-3.53-.3-3.45-.45-3.45-.6-3.45-.82-3.38-1.05-3.3-1.12-3.23-1.35-3.15-1.5-3.07-1.73-3-1.8-2.93-1.95-2.77-2.18-2.62-2.25-2.55-2.4-2.4-2.55-2.32-2.7-2.1-2.78-2.03-2.92-1.8-2.93-1.65-3.07-1.5-3.23-1.35-3.23-1.2-3.3-.97-3.38-.83-3.38-.67-3.45-.45-3.45-.22-3.52-.15-3.53,.15-3.52,.22-3.45,.45-3.53,.67-3.38,.83-3.45,.97-3.38,1.2-3.3,1.35-3.22,1.5-3.15,1.65-3.07,1.8-3,2.03-2.93,2.1-2.77,2.32-2.62,2.4-2.55,2.55-2.4,2.62-2.32,2.77-2.1,2.93-2.02,3-1.8,3.07-1.65,3.15-1.57,3.23-1.27,3.3-1.2,3.38-.98,3.45-.82,3.45-.68,3.45-.45,3.53-.3,3.45-.07,3.52,.07,3.53,.3,3.45,.45,3.45,.68,3.38,.82,3.38,.98,3.3,1.2,3.23,1.27,3.22,1.57,3.07,1.65,3,1.8,2.85,2.02,2.77,2.1,2.7,2.32,2.55,2.4m-1.5,1.5l-2.55-2.4-2.62-2.25-2.7-2.1-2.85-1.95-3-1.73-3-1.65-3.15-1.5-3.22-1.27-3.23-1.12-3.3-.98-3.38-.75-3.45-.6-3.38-.45-3.45-.22h-3.45l-3.45,.15-3.45,.3-3.45,.52-3.38,.68-3.3,.82-3.3,1.05-3.23,1.2-3.15,1.43-3.15,1.5-2.93,1.73-2.92,1.88-2.78,2.02-2.7,2.18-2.62,2.32-2.4,2.4-2.33,2.62-2.17,2.62-2.03,2.85-1.88,2.85-1.65,3-1.57,3.07-1.43,3.22-1.2,3.23-1.05,3.3-.82,3.3-.68,3.38-.53,3.45-.3,3.45-.15,3.45v3.45l.3,3.45,.38,3.38,.6,3.45,.75,3.38,.97,3.3,1.12,3.22,1.28,3.23,1.5,3.15,1.65,3,1.8,2.93,1.95,2.85,2.02,2.77,2.25,2.62,2.4,2.55,2.47,2.32,2.62,2.25,2.78,2.1,2.85,1.95,2.93,1.8,3.07,1.65,3.15,1.43,3.15,1.27,3.3,1.2,3.3,.9,3.38,.82,3.38,.52,3.45,.45,3.45,.22,3.45,.07,3.45-.15,3.45-.3,3.38-.52,3.38-.68,3.38-.9,3.3-1.05,3.22-1.2,3.15-1.35,3.07-1.57,3-1.73,2.93-1.88,2.77-2.02,2.7-2.18,2.55-2.25,2.48-2.48,2.25-2.55,2.17-2.7,2.03-2.77,1.88-2.93,1.72-3,1.58-3.07,1.35-3.15,1.2-3.23,1.05-3.3,.9-3.38,.67-3.38,.53-3.38,.3-3.45,.15-3.45-.07-3.45-.23-3.45-.38-3.45-.6-3.38-.83-3.38-.9-3.3-1.12-3.3-1.35-3.23-1.42-3.07-1.65-3.07-1.8-2.93-1.95-2.85-2.1-2.77-2.25-2.62-2.33-2.48m-50.4-2.77l.82,.68,.98,.52,.97,.38,1.05,.23h1.12l1.05-.15,1.05-.3,.9-.52,.9-.68,.75-.75,.52-.97,.45-.98,.23-1.05,.07-1.05-.07-1.12-.3-1.05-.45-.98-.68-.82-.75-.82-.9-.6-.98-.45-1.05-.3-1.05-.15-1.05,.07-1.05,.3-1.05,.38-.9,.6-.75,.75-.68,.82-.53,.98-.3,1.05-.23,1.05,.07,1.12,.15,1.05,.45,.98,.52,.98,.68,.82m29.7,23.4l1.73,1.88,1.57,2.03,1.5,2.02,1.27,2.25,1.12,2.25,.98,2.32,.82,2.4,.6,2.47,.45,2.55,.3,2.48,.07,2.55-.07,2.55-.3,2.55-.45,2.48-.6,2.47-.82,2.4-.98,2.32-1.12,2.32-1.27,2.18-1.5,2.1-1.57,1.95-1.73,1.88-1.88,1.72-1.95,1.57-2.1,1.5-2.17,1.28-2.25,1.12-2.4,.97-2.4,.83-2.48,.6-2.47,.45-2.55,.3-2.55,.07-2.55-.07-2.47-.3-2.55-.45-2.4-.6-2.47-.83-2.32-.97-2.25-1.12-2.18-1.28-2.1-1.5-2.02-1.57-1.8-1.72-1.8-1.88-1.57-1.95-1.43-2.1-1.27-2.18-1.2-2.32-.98-2.32-.75-2.4-.68-2.47-.45-2.48-.23-2.55-.07-2.55,.07-2.55,.23-2.48,.45-2.55,.68-2.47,.75-2.4,.98-2.32,1.2-2.25,1.27-2.25,1.43-2.02,1.57-2.03,1.8-1.88,1.8-1.72,2.02-1.58,2.1-1.42,2.18-1.35,2.25-1.12,2.32-.98,2.47-.75,2.4-.67,2.55-.45,2.47-.22,2.55-.15,2.55,.15,2.55,.22,2.47,.45,2.48,.67,2.4,.75,2.4,.98,2.25,1.12,2.17,1.35,2.1,1.42,1.95,1.58,1.88,1.72m-66.52,66.53l.75,.67,.9,.45,.98,.38,1.05,.07,.97-.07,.98-.23,.9-.45,.82-.6,.68-.75,.53-.9,.38-.9,.15-1.05v-.98l-.23-.98-.45-.97-.52-.82-.75-.68-.82-.6-.9-.38-.97-.22h-1.05l-.98,.15-.97,.38-.83,.52-.75,.68-.6,.75-.45,.98-.3,.97-.07,.98,.15,.98,.3,.97,.52,.9,.6,.75m75.15,0l.82,.67,.9,.45,.9,.38,1.05,.07,.98-.07,.97-.23,.9-.45,.82-.6,.68-.75,.52-.9,.38-.9,.15-1.05v-.98l-.22-.98-.38-.97-.6-.82-.68-.68-.9-.6-.9-.38-.98-.22h-1.05l-.97,.15-.98,.38-.82,.52-.75,.68-.6,.75-.45,.98-.23,.97-.07,.98,.07,.98,.3,.97,.53,.9,.6,.75M112.02,118.48l.75,.68,.9,.45,.98,.3,1.05,.15,.97-.07,.98-.3,.9-.38,.82-.6,.68-.75,.53-.9,.38-.97,.15-.98v-.97l-.23-1.05-.45-.9-.52-.82-.75-.75-.82-.52-.9-.38-.97-.23-1.05-.07-.98,.23-.97,.3-.83,.53-.75,.68-.6,.82-.45,.9-.3,.98-.07,1.05,.15,.97,.3,.98,.52,.9,.6,.75m75.15,0l.82,.68,.9,.45,.9,.3,1.05,.15,.98-.07,.97-.3,.9-.38,.82-.6,.68-.75,.52-.9,.38-.97,.15-.98v-.97l-.22-1.05-.38-.9-.6-.82-.68-.75-.9-.52-.9-.38-.98-.23-1.05-.07-.97,.23-.98,.3-.82,.53-.75,.68-.6,.82-.45,.9-.23,.98-.07,1.05,.07,.97,.3,.98,.53,.9,.6,.75m-10.12,10.12l-1.8-1.65-1.95-1.57-2.02-1.35-2.18-1.27-2.18-1.05-2.32-.9-2.32-.75-2.48-.6-2.4-.38-2.48-.23h-2.47l-2.48,.15-2.48,.38-2.4,.52-2.4,.68-2.25,.82-2.25,1.05-2.18,1.2-2.1,1.43-1.95,1.5-1.8,1.65-1.72,1.73-1.58,1.95-1.5,2.02-1.27,2.1-1.12,2.18-.9,2.32-.83,2.32-.6,2.4-.45,2.4-.23,2.48-.07,2.47,.07,2.48,.3,2.47,.52,2.4,.6,2.4,.9,2.32,.98,2.25,1.12,2.25,1.35,2.03,1.5,2.02,1.58,1.88,1.8,1.73,1.8,1.65,2.03,1.43,2.1,1.35,2.18,1.2,2.25,.97,2.32,.83,2.4,.67,2.4,.45,2.48,.3,2.47,.15,2.48-.07,2.47-.3,2.4-.38,2.4-.68,2.4-.75,2.25-.98,2.25-1.12,2.1-1.27,2.03-1.43,1.88-1.57,1.8-1.73,1.65-1.88,1.5-1.95,1.35-2.02,1.2-2.18,1.05-2.25,.9-2.32,.68-2.4,.52-2.4,.3-2.48,.22-2.4-.07-2.48-.15-2.47-.45-2.48-.53-2.4-.75-2.4-.9-2.25-1.12-2.25-1.2-2.1-1.43-2.1-1.57-1.88-1.65-1.88m25.2-25.12l2.4,2.55,2.32,2.7,2.18,2.85,2.02,2.93,1.88,3,1.73,3.15,1.57,3.15,1.35,3.3,1.2,3.38,1.05,3.38,.9,3.45,.68,3.53,.45,3.52,.38,3.53,.15,3.52-.07,3.6-.22,3.52-.45,3.52-.6,3.53-.75,3.45-.98,3.45-1.12,3.38-1.27,3.3-1.43,3.23-1.65,3.22-1.8,3.07-1.95,2.93-2.1,2.93-2.25,2.7-2.4,2.7-2.48,2.48-2.62,2.4-2.77,2.25-2.93,2.1-2.93,1.95-3.07,1.8-3.15,1.57-3.3,1.5-3.3,1.28-3.38,1.12-3.45,.97-3.45,.75-3.52,.6-3.52,.45-3.53,.23h-3.6l-3.53-.08-3.52-.38-3.53-.45-3.52-.75-3.45-.82-3.38-1.05-3.38-1.2-3.23-1.35-3.22-1.57-3.15-1.72-3-1.88-2.93-2.03-2.85-2.18-2.7-2.32-2.55-2.4-2.48-2.62-2.32-2.7-2.18-2.78-2.02-2.93-1.88-3.07-1.65-3.07-1.57-3.23-1.35-3.3-1.28-3.3-.97-3.45-.9-3.45-.68-3.45-.52-3.52-.3-3.6-.15-3.52,.07-3.53,.23-3.6,.38-3.53,.6-3.52,.75-3.45,.98-3.45,1.12-3.38,1.27-3.3,1.5-3.23,1.65-3.15,1.8-3.07,1.95-3,2.1-2.85,2.25-2.77,2.32-2.62,2.55-2.55,2.62-2.4,2.78-2.25,2.85-2.02,3-1.95,3.07-1.8,3.15-1.65,3.22-1.5,3.3-1.28,3.38-1.12,3.45-.97,3.45-.75,3.52-.6,3.52-.38,3.6-.23,3.52-.07,3.6,.15,3.52,.3,3.53,.53,3.45,.68,3.45,.82,3.45,1.05,3.3,1.2,3.3,1.43,3.23,1.5,3.07,1.72,3.07,1.88,2.93,2.03,2.77,2.17,2.7,2.33,2.62,2.47m12-12.07l2.7,2.85,2.62,3,2.47,3.07,2.32,3.22,2.1,3.3,2.02,3.45,1.88,3.45,1.65,3.6,1.57,3.6,1.35,3.75,1.12,3.75,1.05,3.82,.83,3.82,.67,3.9,.45,3.9,.3,3.98,.08,3.97-.08,3.9-.22,3.97-.45,3.9-.6,3.9-.75,3.9-.98,3.83-1.12,3.75-1.35,3.75-1.43,3.67-1.65,3.6-1.88,3.45-1.95,3.45-2.1,3.3-2.25,3.23-2.48,3.15-2.55,3-2.7,2.93-2.77,2.7-3,2.62-3,2.55-3.23,2.32-3.3,2.18-3.38,2.02-3.45,1.95-3.52,1.72-3.6,1.57-3.75,1.35-3.75,1.2-3.82,1.05-3.82,.9-3.9,.68-3.9,.53-3.9,.38-3.98,.15h-3.98l-3.9-.23-3.98-.38-3.9-.6-3.82-.75-3.9-.9-3.75-1.05-3.75-1.28-3.67-1.43-3.6-1.65-3.52-1.73-3.45-1.95-3.38-2.1-3.22-2.25-3.15-2.4-3.07-2.47-2.93-2.7-2.77-2.77-2.62-2.93-2.55-3-2.4-3.15-2.25-3.3-2.03-3.3-1.95-3.45-1.8-3.52-1.57-3.6-1.43-3.68-1.27-3.75-1.12-3.82-.9-3.82-.75-3.9-.53-3.9-.45-3.9-.15-3.98-.08-3.98,.23-3.9,.3-3.98,.52-3.9,.68-3.9,.9-3.83,1.05-3.82,1.2-3.75,1.43-3.68,1.57-3.6,1.73-3.6,1.88-3.45,2.02-3.38,2.25-3.3,2.33-3.15,2.47-3.07,2.62-2.93,2.78-2.85,2.85-2.7,3-2.55,3.15-2.4,3.22-2.25,3.38-2.18,3.38-1.95,3.53-1.8,3.6-1.65,3.68-1.5,3.68-1.28,3.82-1.12,3.82-.97,3.82-.83,3.9-.6,3.97-.45,3.9-.23,3.97-.07,3.98,.15,3.9,.3,3.9,.45,3.9,.68,3.9,.82,3.82,.98,3.75,1.2,3.68,1.35,3.67,1.5,3.53,1.72,3.52,1.8,3.38,2.02,3.3,2.18,3.23,2.32,3.07,2.4,3,2.62,2.85,2.7m-3,3l-2.77-2.62-2.93-2.55-3.07-2.4-3.15-2.25-3.23-2.1-3.38-1.95-3.38-1.73-3.52-1.65-3.6-1.43-3.68-1.27-3.68-1.12-3.75-.9-3.82-.75-3.82-.6-3.82-.38-3.82-.23h-3.9l-3.9,.15-3.82,.38-3.83,.52-3.82,.68-3.75,.9-3.68,1.05-3.67,1.2-3.6,1.43-3.52,1.57-3.45,1.73-3.38,1.95-3.3,2.02-3.15,2.25-3.07,2.33-2.93,2.47-2.85,2.62-2.7,2.78-2.55,2.92-2.48,3-2.25,3.15-2.18,3.22-1.95,3.3-1.8,3.38-1.65,3.53-1.5,3.52-1.35,3.68-1.12,3.68-.97,3.75-.83,3.75-.6,3.82-.45,3.9-.23,3.82-.07,3.9,.15,3.82,.23,3.9,.52,3.83,.68,3.75,.82,3.82,.98,3.75,1.2,3.68,1.35,3.6,1.57,3.53,1.65,3.52,1.88,3.38,2.03,3.3,2.17,3.15,2.33,3.15,2.47,2.92,2.62,2.85,2.7,2.77,2.85,2.62,3,2.4,3.07,2.32,3.23,2.18,3.3,2.02,3.38,1.88,3.45,1.73,3.6,1.5,3.6,1.35,3.68,1.2,3.75,1.05,3.75,.83,3.82,.67,3.82,.45,3.82,.3,3.9,.08h3.82l3.9-.3,3.83-.45,3.82-.6,3.75-.75,3.75-.98,3.75-1.2,3.6-1.27,3.6-1.5,3.45-1.65,3.45-1.8,3.3-2.03,3.23-2.1,3.15-2.33,3-2.4,2.85-2.55,2.77-2.7,2.62-2.85,2.55-2.92,2.32-3.08,2.18-3.22,2.1-3.23,1.88-3.38,1.72-3.45,1.57-3.52,1.43-3.6,1.28-3.68,1.05-3.75,.83-3.75,.75-3.82,.52-3.82,.3-3.82,.15-3.83v-3.9l-.22-3.9-.38-3.83-.53-3.82-.75-3.75-.97-3.75-1.05-3.75-1.28-3.68-1.5-3.52-1.57-3.52-1.8-3.45-1.95-3.38-2.1-3.22-2.25-3.15-2.4-3-2.47-2.92-2.7-2.85" style="fill: none; stroke: #000; stroke-linecap: round; stroke-linejoin: round; stroke-width: .74px;"/>
  <path d="M438.72,215.3h-2.18m0-125.62h2.18m9.52,125.62h2.18m0-125.62h-2.18m0,125.62h-9.52m0-125.62h9.52" style="fill: none; stroke: #000; stroke-linecap: round; stroke-linejoin: round; stroke-width: .38px;"/>
  <path d="M436.55,194.53l8.78-8.7m-8.78,18.22l13.88-13.8m-13.88,23.4l13.88-13.88m-6,15.52l6-5.92m-7.57-116.62l3.07-3.08m-9.38,18.98l3.15-3.07m-3.15,12.6l12.68-12.6m-3.75,13.27l4.95-4.95" style="fill: none; stroke: #000; stroke-linecap: round; stroke-linejoin: round; stroke-width: .38px;"/>
  <path d="M345.2,238.4h87.15m0-172.2h-87.15m87.15,172.2l4.2-4.2m0-163.73l-4.2-4.27m4.2,155.18l.07-.38,.15-.38,.15-.38,.3-.38,.3-.23,.38-.23,.38-.07,.45-.07m0-133.95h-.45l-.38-.15-.38-.22-.3-.23-.3-.3-.15-.38-.15-.45-.07-.38m11.7,136.05h.45l.38-.15,.38-.23,.3-.23,.3-.38,.23-.3,.07-.45,.07-.38m0-129.67l-.07-.45-.07-.38-.23-.38-.3-.3-.3-.3-.38-.23-.38-.07-.45-.07m-9.52,133.95h9.52m0-133.95h-9.52m-6.38,153.07V66.2m-87.15,172.2V66.2m91.35,149.1v18.9m0-163.73v19.2m0,0v125.62m13.88,0v1.88m0-129.67v2.17m0,98.25l-2.18-2.1m0,0V118.85m0,0l2.18-2.18m0,0v71.25m-2.18-69.07h-11.7m0,66.98h11.7m2.18,2.1v27.38m-13.88-109.72h13.88m0-12.82h-13.88m13.88,12.82v-12.82m0,12.82v11.1m0-27v3.08m-11.7,122.55v3.98m0-133.95v4.35m9.52,0v-4.35m0,133.95v-3.98" style="fill: none; stroke: #000; stroke-linecap: round; stroke-linejoin: round; stroke-width: .74px;"/>
  <polygon points="198.9 78.56 198.9 70.64 200.88 70.64 200.88 71.27 199.8 71.27 199.8 77.93 200.88 77.93 200.88 78.56 198.9 78.56"/>
  <path d="M202.4,73.79c0,1.02,.14,1.7,.42,2.03,.29,.34,.63,.5,1.04,.5s.76-.17,1.04-.51c.29-.34,.42-1.01,.42-2.03s-.15-1.7-.42-2.03c-.28-.34-.63-.5-1.05-.5s-.74,.15-.99,.44c-.31,.38-.46,1.07-.46,2.09h0Zm-.92,0c0-.74,.09-1.32,.27-1.77,.18-.45,.44-.8,.79-1.03,.35-.24,.8-.36,1.33-.36,.39,0,.73,.07,1.04,.2,.29,.13,.54,.33,.73,.57,.2,.25,.34,.56,.46,.93,.11,.36,.17,.85,.17,1.46,0,.73-.09,1.31-.26,1.76-.18,.45-.44,.8-.78,1.04-.36,.25-.8,.37-1.33,.37-.71,0-1.26-.21-1.66-.65-.48-.52-.72-1.35-.72-2.52h-.02Z"/>
  <rect x="207.66" y="75.97" width="1.02" height=".87"/>
  <path d="M214.72,76.11v.73h-4.84c0-.18,.03-.36,.11-.52,.12-.28,.32-.56,.59-.82,.27-.27,.66-.59,1.18-.94,.79-.55,1.34-.99,1.61-1.31,.28-.32,.42-.63,.42-.91,0-.3-.12-.56-.38-.76-.25-.21-.58-.31-1-.31s-.78,.11-1.03,.33c-.26,.22-.39,.53-.4,.92l-.92-.08c.06-.59,.3-1.03,.71-1.34,.41-.31,.97-.46,1.67-.46s1.26,.16,1.66,.49c.41,.33,.61,.74,.61,1.22,0,.25-.06,.5-.18,.74-.12,.24-.31,.49-.59,.75-.28,.27-.74,.63-1.39,1.09-.54,.38-.88,.65-1.03,.78-.15,.13-.28,.28-.38,.41h3.58Z"/>
  <path d="M215.69,75.2l.9-.11c.1,.43,.28,.74,.53,.93,.25,.19,.55,.28,.91,.28,.42,0,.78-.13,1.07-.38,.29-.25,.43-.55,.43-.92s-.14-.64-.41-.86c-.27-.23-.61-.34-1.03-.34-.17,0-.38,.03-.64,.08l.1-.67c.06,0,.11,0,.15,0,.38,0,.73-.08,1.03-.25,.31-.18,.46-.43,.46-.78,0-.28-.11-.51-.34-.69-.22-.18-.51-.28-.86-.28s-.64,.09-.87,.28c-.24,.19-.38,.46-.45,.84l-.9-.13c.11-.51,.36-.91,.75-1.19,.39-.28,.88-.42,1.46-.42,.39,0,.76,.07,1.1,.22,.34,.14,.59,.34,.77,.59,.18,.25,.27,.52,.27,.8s-.08,.51-.26,.73c-.17,.21-.42,.4-.75,.52,.44,.08,.77,.26,1.01,.53,.24,.26,.36,.6,.36,1,0,.54-.23,1-.7,1.37s-1.05,.56-1.77,.56c-.64,0-1.17-.16-1.6-.49-.43-.32-.67-.75-.73-1.26h0Z"/>
  <path d="M222.37,74.83c0,.26,.07,.51,.2,.75,.12,.24,.31,.42,.55,.55,.23,.13,.48,.19,.74,.19,.38,0,.7-.13,.97-.39,.27-.26,.41-.61,.41-1.06s-.14-.76-.41-1.01c-.27-.25-.6-.37-1.02-.37s-.75,.12-1.04,.37c-.28,.25-.43,.57-.43,.97h0Zm3.67-2.66l-.89,.06c-.08-.3-.2-.52-.34-.65-.24-.22-.54-.32-.9-.32-.29,0-.54,.07-.75,.2-.29,.17-.5,.43-.67,.76-.16,.34-.25,.81-.25,1.43,.22-.28,.48-.49,.8-.62,.31-.13,.64-.2,.98-.2,.6,0,1.11,.19,1.53,.56,.42,.38,.63,.86,.63,1.45,0,.39-.1,.75-.3,1.09-.2,.34-.47,.59-.82,.77-.34,.18-.74,.27-1.17,.27-.75,0-1.36-.23-1.83-.7-.47-.46-.7-1.24-.7-2.31,0-1.2,.26-2.07,.78-2.61,.46-.47,1.07-.71,1.85-.71,.58,0,1.05,.13,1.42,.41,.37,.27,.58,.65,.66,1.13h0Z"/>
  <polygon points="229.95 66.25 229.95 64.55 227.95 64.55 227.95 63.83 229.95 63.83 229.95 62.15 230.79 62.15 230.79 63.83 232.79 63.83 232.79 64.55 230.79 64.55 230.79 66.25 229.95 66.25"/>
  <path d="M234.7,64.19c0,1.02,.14,1.69,.42,2.03,.29,.34,.63,.5,1.04,.5s.75-.17,1.04-.51c.29-.34,.42-1.01,.42-2.04s-.15-1.69-.42-2.03c-.28-.34-.63-.5-1.05-.5s-.74,.15-.99,.44c-.31,.38-.46,1.07-.46,2.09h0Zm-.92,0c0-.74,.09-1.32,.27-1.77,.18-.45,.44-.79,.8-1.04,.35-.24,.79-.36,1.33-.36,.39,0,.74,.07,1.03,.2,.29,.13,.54,.33,.74,.58,.19,.25,.34,.56,.46,.92,.11,.36,.16,.85,.16,1.46,0,.73-.09,1.31-.26,1.76-.18,.45-.44,.79-.79,1.03-.35,.25-.79,.37-1.33,.37-.7,0-1.26-.22-1.66-.65-.48-.51-.72-1.35-.72-2.52h-.02Z"/>
  <rect x="239.96" y="66.38" width="1.02" height=".87"/>
  <path d="M243.23,64.19c0,1.02,.14,1.69,.42,2.03,.29,.34,.63,.5,1.04,.5s.76-.17,1.04-.51c.29-.34,.42-1.01,.42-2.04s-.14-1.69-.42-2.03c-.28-.34-.63-.5-1.05-.5s-.74,.15-.99,.44c-.31,.38-.46,1.07-.46,2.09h0Zm-.92,0c0-.74,.09-1.32,.27-1.77,.18-.45,.44-.79,.8-1.04,.35-.24,.79-.36,1.33-.36,.39,0,.73,.07,1.03,.2,.29,.13,.54,.33,.74,.58,.2,.25,.34,.56,.46,.92,.11,.36,.17,.85,.17,1.46,0,.73-.09,1.31-.26,1.76-.18,.45-.44,.79-.79,1.03-.35,.25-.79,.37-1.33,.37-.7,0-1.26-.22-1.66-.65-.48-.51-.72-1.35-.72-2.52h-.02Z"/>
  <path d="M248.91,64.19c0,1.02,.14,1.69,.42,2.03,.29,.34,.63,.5,1.04,.5s.76-.17,1.04-.51c.28-.34,.42-1.01,.42-2.04s-.14-1.69-.42-2.03c-.28-.34-.63-.5-1.05-.5s-.74,.15-.99,.44c-.31,.38-.47,1.07-.47,2.09h0Zm-.93,0c0-.74,.09-1.32,.27-1.77,.18-.45,.44-.79,.79-1.04,.35-.24,.8-.36,1.33-.36,.39,0,.74,.07,1.04,.2,.29,.13,.54,.33,.73,.58,.2,.25,.34,.56,.46,.92,.11,.36,.16,.85,.16,1.46,0,.73-.09,1.31-.26,1.76-.18,.45-.44,.79-.78,1.03-.36,.25-.8,.37-1.33,.37-.71,0-1.26-.22-1.67-.65-.48-.51-.72-1.35-.72-2.52h-.02Z"/>
  <path d="M257.06,67.25h-.9v-4.85c-.21,.18-.5,.35-.85,.53-.35,.17-.67,.31-.95,.39v-.74c.5-.2,.95-.45,1.32-.73,.38-.29,.64-.56,.8-.82h.58v6.23Z"/>
  <path d="M234.7,73.81c0,1.02,.14,1.7,.42,2.03,.29,.34,.63,.5,1.04,.5s.75-.17,1.04-.51c.29-.34,.42-1.01,.42-2.03s-.15-1.69-.42-2.03c-.28-.34-.63-.5-1.05-.5s-.74,.15-.99,.44c-.31,.38-.46,1.07-.46,2.09h0Zm-.92,0c0-.73,.09-1.32,.27-1.77,.18-.45,.44-.8,.8-1.04,.35-.24,.79-.36,1.33-.36,.39,0,.74,.07,1.03,.2,.29,.14,.54,.33,.74,.58,.19,.25,.34,.56,.46,.92,.11,.36,.16,.85,.16,1.46,0,.73-.09,1.31-.26,1.76-.17,.45-.44,.79-.79,1.04-.35,.25-.79,.37-1.33,.37-.7,0-1.26-.22-1.66-.64-.48-.52-.72-1.36-.72-2.52h-.02Z"/>
  <path d="M217.85,52.93v-.3l-.15-.75-.15-.38-.22-.3-.45-.6-.3-.22-.3-.15-.3-.22-.38-.08-.38-.15h-1.12l-.3,.15-.38,.08-.38,.22-.3,.15-.3,.22-.45,.6-.15,.3-.15,.38-.15,.38-.07,.38v.67l.07,.38,.15,.38,.15,.38,.15,.3,.23,.3,.52,.52,.3,.15,.38,.22,.38,.08,.3,.07,.38,.07h.38l.75-.15,.38-.08,.3-.22,.3-.15,.52-.52,.23-.3,.22-.3,.15-.38,.15-.75v-.38m-5.02,4.58l3.67-9.08" style="fill: none; stroke: #000; stroke-miterlimit: 10; stroke-width: .74px;"/>
  <path d="M221.41,53.91c0,.26,.07,.51,.2,.75,.12,.24,.31,.42,.55,.55,.23,.13,.49,.19,.74,.19,.38,0,.7-.12,.98-.39,.27-.26,.41-.61,.41-1.05s-.13-.77-.4-1.02c-.27-.25-.61-.37-1.02-.37s-.75,.12-1.04,.37c-.28,.25-.43,.57-.43,.97h0Zm3.67-2.66l-.89,.06c-.08-.3-.2-.52-.34-.65-.24-.22-.54-.32-.9-.32-.29,0-.54,.07-.75,.2-.29,.17-.5,.43-.67,.76-.17,.34-.25,.81-.26,1.43,.22-.28,.48-.49,.8-.62,.32-.13,.64-.2,.98-.2,.6,0,1.11,.19,1.53,.56,.42,.38,.63,.86,.63,1.45,0,.39-.1,.75-.3,1.09-.2,.34-.47,.59-.82,.77-.34,.18-.74,.27-1.17,.27-.75,0-1.36-.23-1.83-.7-.47-.46-.7-1.24-.7-2.31,0-1.2,.26-2.07,.78-2.61,.46-.47,1.07-.71,1.84-.71,.58,0,1.05,.13,1.42,.41,.37,.27,.59,.66,.66,1.13h0Z"/>
  <polygon points="229.58 45.31 229.58 43.61 227.58 43.61 227.58 42.9 229.58 42.9 229.58 41.21 230.43 41.21 230.43 42.9 232.42 42.9 232.42 43.61 230.43 43.61 230.43 45.31 229.58 45.31"/>
  <path d="M234.33,43.25c0,1.02,.14,1.7,.42,2.03,.28,.34,.63,.5,1.04,.5s.76-.18,1.04-.51c.28-.34,.42-1.01,.42-2.03s-.14-1.7-.42-2.04c-.28-.34-.63-.5-1.05-.5s-.75,.15-.99,.44c-.31,.38-.47,1.07-.47,2.09h0Zm-.92,0c0-.73,.09-1.32,.27-1.77,.18-.45,.44-.8,.8-1.04,.35-.24,.79-.36,1.32-.36,.39,0,.74,.07,1.04,.2,.29,.14,.54,.33,.74,.58,.19,.25,.34,.56,.46,.92,.11,.36,.16,.85,.16,1.46,0,.73-.09,1.31-.26,1.76-.18,.45-.45,.79-.79,1.04-.35,.25-.79,.37-1.33,.37-.7,0-1.26-.22-1.66-.64-.48-.52-.72-1.36-.72-2.52h-.02Z"/>
  <rect x="239.61" y="45.43" width="1.02" height=".87"/>
  <path d="M242.86,43.25c0,1.02,.15,1.7,.42,2.03,.29,.34,.63,.5,1.04,.5s.75-.18,1.04-.51,.42-1.01,.42-2.03-.14-1.7-.42-2.04c-.28-.34-.63-.5-1.05-.5s-.74,.15-.99,.44c-.31,.38-.46,1.07-.46,2.09h0Zm-.92,0c0-.73,.09-1.32,.27-1.77,.18-.45,.44-.8,.8-1.04,.35-.24,.79-.36,1.32-.36,.39,0,.74,.07,1.04,.2,.29,.14,.54,.33,.74,.58,.19,.25,.34,.56,.46,.92,.11,.36,.16,.85,.16,1.46,0,.73-.09,1.31-.26,1.76-.18,.45-.45,.79-.79,1.04-.35,.25-.79,.37-1.33,.37-.7,0-1.26-.22-1.66-.64-.48-.52-.72-1.36-.72-2.52h-.02Z"/>
  <path d="M252.35,45.58v.74h-4.84c0-.18,.03-.36,.1-.52,.12-.28,.32-.55,.59-.83,.27-.27,.66-.58,1.18-.94,.79-.56,1.33-.99,1.61-1.31,.28-.32,.42-.63,.42-.91,0-.3-.13-.55-.38-.76-.25-.21-.59-.3-1-.3-.44,0-.78,.11-1.03,.33-.27,.22-.39,.53-.4,.91l-.92-.08c.06-.59,.3-1.03,.71-1.34,.41-.3,.97-.46,1.66-.46s1.26,.17,1.67,.5c.41,.33,.61,.74,.61,1.22,0,.25-.06,.5-.18,.73-.12,.24-.32,.5-.59,.76-.28,.26-.74,.63-1.39,1.09-.54,.38-.89,.64-1.03,.78-.15,.14-.28,.28-.38,.41h3.59Z"/>
  <path d="M234.33,52.86c0,1.02,.14,1.69,.42,2.04,.28,.34,.63,.5,1.04,.5s.76-.17,1.04-.51c.28-.34,.42-1.02,.42-2.03s-.14-1.7-.42-2.03c-.28-.34-.63-.5-1.05-.5s-.75,.15-.99,.44c-.31,.38-.47,1.07-.47,2.09h0Zm-.92,0c0-.74,.09-1.32,.27-1.77,.18-.45,.44-.79,.8-1.04,.35-.24,.79-.36,1.32-.36,.39,0,.74,.07,1.04,.2,.29,.13,.54,.33,.74,.58,.19,.25,.34,.56,.46,.92,.11,.36,.16,.85,.16,1.46,0,.73-.09,1.31-.26,1.76-.17,.45-.45,.8-.79,1.04-.35,.25-.79,.37-1.33,.37-.7,0-1.26-.22-1.66-.65-.48-.51-.72-1.35-.72-2.52h-.02Z"/>
  <path d="M253.55,49.55h7.35m-3.68,0v7.28m-2.7-4.35l2.7,4.35m2.77-4.35l-2.77,4.35" style="fill: none; stroke: #000; stroke-miterlimit: 10; stroke-width: .74px;"/>
  <path d="M266.7,55.9h-.9v-4.85c-.21,.17-.5,.35-.85,.52-.35,.17-.66,.31-.94,.39v-.73c.5-.2,.94-.45,1.32-.73,.38-.29,.65-.56,.8-.82h.58v6.23h0Z"/>
  <path d="M269.92,52.84c0,1.02,.14,1.7,.42,2.04,.29,.34,.63,.5,1.04,.5s.76-.17,1.04-.51c.29-.34,.42-1.01,.42-2.04s-.14-1.69-.42-2.03c-.28-.34-.63-.5-1.05-.5s-.74,.15-.99,.45c-.31,.38-.47,1.07-.47,2.09h0Zm-.92,0c0-.73,.09-1.32,.27-1.77,.18-.45,.45-.79,.8-1.04,.35-.24,.79-.36,1.33-.36,.39,0,.73,.07,1.04,.2,.29,.14,.54,.33,.73,.58,.2,.25,.34,.56,.46,.92,.11,.36,.16,.85,.16,1.46,0,.73-.09,1.31-.26,1.77-.18,.45-.44,.79-.79,1.04-.36,.25-.8,.37-1.33,.37-.71,0-1.26-.22-1.67-.65-.48-.52-.73-1.36-.73-2.52h0Z"/>
  <path d="M277.77,55.9v-4.49h.8v.63c.16-.22,.39-.4,.67-.53,.28-.14,.59-.2,.95-.2,.39,0,.71,.07,.97,.21,.25,.14,.43,.33,.53,.57,.42-.52,.97-.79,1.64-.79,.52,0,.93,.12,1.21,.37s.43,.62,.43,1.14v3.08h-.89v-2.83c0-.31-.03-.52-.09-.66-.06-.13-.16-.24-.31-.32-.15-.09-.33-.12-.54-.12-.38,0-.68,.11-.93,.31-.25,.21-.37,.55-.37,1.01v2.61h-.9v-2.92c0-.34-.07-.59-.22-.76-.14-.16-.38-.25-.72-.25-.25,0-.49,.06-.7,.17-.21,.11-.37,.28-.46,.5-.1,.21-.14,.53-.14,.94v2.33h-.91Z"/>
  <path d="M286.29,55.9v-4.49h.8v.63c.17-.22,.39-.4,.67-.53,.28-.14,.59-.2,.95-.2,.39,0,.71,.07,.97,.21,.25,.14,.43,.33,.53,.57,.42-.52,.97-.79,1.64-.79,.52,0,.93,.12,1.21,.37s.43,.62,.43,1.14v3.08h-.89v-2.83c0-.31-.03-.52-.09-.66-.06-.13-.17-.24-.32-.32-.15-.09-.33-.12-.54-.12-.38,0-.68,.11-.93,.31-.25,.21-.37,.55-.37,1.01v2.61h-.9v-2.92c0-.34-.07-.59-.22-.76-.14-.16-.38-.25-.72-.25-.25,0-.49,.06-.7,.17-.21,.11-.37,.28-.46,.5-.1,.21-.14,.53-.14,.94v2.33h-.91Z"/>
  <path d="M234.06,88.76v-2.8l-2.3,2.8h2.3Zm0,2.18v-1.49h-3.17v-.7l3.34-4.02h.74v4.02h.99v.7h-.99v1.49h-.9Z"/>
  <path d="M236.49,90.95l2.83-3.24-2.5-2.97h1.15l1.33,1.59c.28,.33,.47,.59,.59,.76,.16-.23,.36-.46,.58-.7l1.47-1.64h1.05l-2.57,2.93,2.77,3.28h-1.2l-1.84-2.21c-.11-.13-.21-.27-.32-.41-.17,.23-.28,.38-.36,.46l-1.84,2.16h-1.14Z"/>
  <polygon points="261.89 104.11 261.89 96.2 263.87 96.2 263.87 96.82 262.79 96.82 262.79 103.49 263.87 103.49 263.87 104.11 261.89 104.11"/>
  <path d="M265.38,99.34c0,1.02,.14,1.7,.42,2.04,.29,.34,.63,.5,1.04,.5s.76-.17,1.04-.51c.29-.34,.42-1.01,.42-2.03s-.14-1.7-.42-2.04c-.28-.34-.63-.5-1.05-.5s-.74,.15-.99,.44c-.31,.38-.46,1.07-.46,2.09h0Zm-.92,0c0-.73,.09-1.32,.27-1.77,.18-.45,.44-.79,.79-1.04,.36-.24,.8-.36,1.33-.36,.39,0,.73,.07,1.04,.2,.29,.14,.54,.33,.73,.58,.2,.25,.35,.56,.46,.92,.11,.36,.17,.85,.17,1.46,0,.73-.09,1.31-.27,1.77-.18,.45-.44,.79-.79,1.04-.34,.24-.8,.37-1.33,.37-.7,0-1.26-.22-1.66-.64-.48-.52-.72-1.36-.72-2.52h-.02Z"/>
  <rect x="270.65" y="101.52" width="1.02" height=".87"/>
  <path d="M277.7,101.66v.74h-4.84c0-.18,.03-.36,.11-.53,.12-.28,.32-.55,.59-.82,.27-.27,.66-.59,1.18-.94,.8-.56,1.34-.99,1.61-1.31,.28-.32,.42-.63,.42-.91,0-.3-.12-.55-.38-.76-.25-.21-.58-.31-1-.31s-.78,.11-1.04,.33c-.26,.22-.39,.52-.4,.91l-.92-.08c.06-.59,.3-1.03,.71-1.34,.41-.3,.96-.46,1.66-.46s1.26,.16,1.66,.5c.41,.33,.62,.73,.62,1.22,0,.25-.06,.5-.18,.73-.12,.24-.31,.5-.6,.76-.28,.26-.74,.63-1.39,1.09-.54,.38-.89,.64-1.04,.78-.15,.14-.28,.28-.38,.41h3.59Z"/>
  <path d="M278.67,100.75l.9-.1c.1,.44,.28,.75,.52,.93,.25,.19,.55,.28,.91,.28,.42,0,.78-.12,1.07-.38,.29-.25,.43-.56,.43-.92s-.13-.64-.41-.86c-.27-.23-.61-.34-1.03-.34-.17,0-.38,.03-.63,.08l.1-.67c.06,0,.11,0,.14,0,.38,0,.73-.08,1.04-.25,.3-.17,.46-.43,.46-.78,0-.28-.11-.51-.34-.69-.22-.18-.51-.28-.86-.28s-.64,.09-.88,.28c-.24,.19-.38,.46-.45,.84l-.9-.14c.11-.51,.36-.91,.75-1.18,.39-.28,.88-.42,1.46-.42,.39,0,.77,.07,1.1,.22,.34,.14,.59,.34,.77,.59,.18,.25,.27,.52,.27,.8s-.08,.51-.25,.73c-.18,.22-.42,.4-.75,.53,.43,.08,.76,.26,1,.52,.24,.26,.36,.6,.36,1,0,.54-.23,1-.7,1.38s-1.05,.56-1.77,.56c-.64,0-1.18-.16-1.6-.49-.43-.32-.67-.74-.73-1.26h0Z"/>
  <path d="M285.35,100.38c0,.27,.07,.51,.2,.75,.12,.24,.31,.42,.55,.55,.23,.13,.49,.19,.74,.19,.38,0,.7-.12,.98-.39,.27-.27,.41-.62,.41-1.06s-.13-.76-.4-1.01c-.27-.25-.61-.37-1.02-.37s-.75,.12-1.04,.37c-.29,.25-.43,.57-.43,.96h0Zm3.67-2.66l-.89,.06c-.08-.3-.2-.52-.34-.65-.24-.22-.54-.32-.9-.32-.29,0-.54,.07-.75,.2-.29,.18-.5,.43-.67,.77-.17,.34-.25,.81-.26,1.43,.22-.28,.48-.49,.8-.62,.32-.14,.64-.2,.98-.2,.6,0,1.11,.19,1.53,.56,.42,.38,.63,.86,.63,1.45,0,.39-.1,.75-.3,1.09-.2,.34-.47,.59-.82,.77-.34,.18-.73,.27-1.18,.27-.75,0-1.36-.23-1.83-.7s-.71-1.24-.71-2.31c0-1.2,.26-2.07,.78-2.61,.46-.47,1.07-.71,1.84-.71,.58,0,1.05,.14,1.42,.41,.37,.27,.59,.65,.66,1.13h0Z"/>
  <path d="M293.13,102.4v-4.49h.9v4.49h-.9Zm0-5.32v-.88h.9v.88h-.9Z"/>
  <path d="M295.41,102.39v-4.49h.81v.64c.39-.5,.95-.74,1.69-.74,.32,0,.61,.04,.88,.14,.27,.1,.46,.23,.6,.38,.14,.16,.23,.35,.28,.56,.03,.15,.05,.39,.05,.74v2.76h-.9v-2.73c0-.31-.04-.54-.11-.7-.07-.15-.19-.28-.38-.37-.18-.09-.39-.13-.62-.13-.38,0-.71,.11-.99,.31-.28,.2-.42,.59-.42,1.17v2.45h-.89Z"/>
  <polygon points="302.59 104.11 300.61 104.11 300.61 103.49 301.69 103.49 301.69 96.82 300.61 96.82 300.61 96.2 302.59 96.2 302.59 104.11"/>
  <path d="M245.07,90.97v-6.19h1.45l1.73,4.39c.16,.41,.28,.71,.35,.92,.08-.22,.21-.56,.39-.99l1.75-4.31h1.31v6.19h-.93v-5.19l-2.12,5.19h-.88l-2.12-5.28v5.28h-.94Z"/>
  <path d="M254.25,88.96c0,.26,.07,.51,.19,.75,.12,.24,.31,.42,.56,.55,.23,.13,.48,.19,.74,.19,.38,0,.7-.12,.97-.39,.27-.26,.41-.61,.41-1.05s-.14-.76-.41-1.01c-.27-.25-.61-.37-1.02-.37s-.75,.12-1.03,.37c-.29,.25-.43,.57-.43,.96h0Zm3.66-2.66l-.89,.06c-.08-.3-.2-.52-.34-.65-.24-.22-.54-.32-.9-.32-.29,0-.54,.07-.75,.2-.28,.17-.5,.43-.67,.76-.16,.34-.25,.81-.25,1.43,.22-.28,.48-.49,.8-.62,.31-.13,.64-.2,.98-.2,.6,0,1.11,.19,1.53,.56,.42,.38,.63,.85,.63,1.45,0,.39-.1,.75-.3,1.09-.2,.34-.47,.59-.82,.76-.34,.18-.73,.27-1.18,.27-.75,0-1.36-.23-1.83-.7-.47-.46-.71-1.24-.71-2.31,0-1.2,.26-2.07,.78-2.61,.46-.47,1.07-.71,1.85-.71,.57,0,1.05,.14,1.42,.41,.37,.27,.58,.65,.66,1.13h0Z"/>
  <path d="M259.02,83.83h7.35m-3.67,0v7.35m-2.78-4.42l2.78,4.42m2.77-4.42l-2.77,4.42" style="fill: none; stroke: #000; stroke-miterlimit: 10; stroke-width: .74px;"/>
  <path d="M268.83,85.56v-.73h4.74v.59c-.47,.42-.93,.98-1.39,1.67-.46,.7-.81,1.41-1.06,2.15-.18,.52-.29,1.09-.35,1.7h-.92c0-.49,.12-1.08,.34-1.77,.21-.69,.52-1.36,.93-2,.4-.64,.83-1.18,1.29-1.62h-3.58Z"/>
  <path d="M277.55,90.95v-4.49h.8v.63c.16-.22,.39-.4,.66-.53,.28-.14,.59-.2,.95-.2,.39,0,.71,.07,.97,.21,.25,.14,.43,.33,.53,.58,.42-.53,.97-.79,1.64-.79,.52,0,.93,.12,1.21,.37s.43,.62,.43,1.14v3.08h-.89v-2.83c0-.31-.03-.52-.09-.66-.06-.13-.16-.24-.32-.32-.15-.08-.33-.12-.54-.12-.38,0-.68,.11-.93,.32-.25,.21-.37,.55-.37,1v2.61h-.9v-2.92c0-.34-.07-.59-.21-.76-.14-.16-.38-.25-.72-.25-.25,0-.48,.06-.7,.17-.21,.11-.37,.28-.46,.5s-.14,.53-.14,.94v2.33h-.91Z"/>
  <path d="M286.07,90.95v-4.49h.8v.63c.16-.22,.39-.4,.67-.53,.28-.14,.59-.2,.94-.2,.39,0,.71,.07,.97,.21,.25,.14,.43,.33,.53,.58,.42-.53,.97-.79,1.64-.79,.52,0,.93,.12,1.21,.37s.43,.62,.43,1.14v3.08h-.89v-2.83c0-.31-.03-.52-.09-.66-.06-.13-.16-.24-.32-.32-.15-.08-.33-.12-.54-.12-.38,0-.68,.11-.93,.32-.25,.21-.37,.55-.37,1v2.61h-.9v-2.92c0-.34-.08-.59-.22-.76-.14-.16-.38-.25-.72-.25-.26,0-.49,.06-.7,.17-.21,.11-.37,.28-.46,.5-.1,.22-.14,.53-.14,.94v2.33h-.91Z"/>
  <path d="M1.16,105.54h1.89c.62,0,1.07-.1,1.34-.29,.26-.2,.4-.47,.4-.83,0-.26-.08-.48-.23-.67-.16-.19-.36-.3-.61-.37-.17-.04-.47-.05-.9-.05H1.16v2.21Zm-.96,3.25v-6.2H2.95c.49,0,.86,.02,1.11,.06,.36,.05,.66,.15,.9,.29,.24,.14,.43,.34,.58,.6,.15,.25,.23,.54,.23,.85,0,.52-.2,.97-.59,1.33-.39,.37-1.11,.55-2.14,.55H1.16v2.52H.19Z"/>
  <rect x="7.15" y="107.92" width="1.02" height=".87"/>
  <path d="M15.07,106.61l.97,.21c-.2,.67-.57,1.18-1.1,1.54-.52,.35-1.17,.53-1.93,.53s-1.43-.14-1.93-.41c-.49-.27-.87-.67-1.12-1.19-.25-.51-.39-1.07-.39-1.66,0-.64,.14-1.21,.43-1.69,.29-.48,.7-.85,1.25-1.09,.54-.25,1.12-.38,1.78-.38,.73,0,1.35,.16,1.84,.47,.5,.32,.85,.76,1.04,1.34l-.95,.19c-.17-.45-.41-.78-.74-.98-.32-.2-.73-.31-1.22-.31-.56,0-1.03,.11-1.41,.35-.38,.22-.64,.53-.8,.92-.15,.38-.23,.78-.23,1.19,0,.53,.09,.99,.27,1.38,.18,.39,.46,.69,.85,.89,.38,.2,.79,.29,1.25,.29,.54,0,1-.14,1.38-.4,.38-.26,.63-.66,.77-1.18h0Z"/>
  <rect x="17.37" y="107.92" width="1.02" height=".87"/>
  <path d="M21.04,108.05h1.56c.48,0,.86-.04,1.13-.11,.28-.08,.5-.18,.66-.32,.23-.2,.41-.46,.54-.79,.12-.33,.2-.73,.2-1.2,0-.64-.13-1.15-.38-1.49-.25-.34-.55-.59-.92-.69-.26-.09-.67-.13-1.25-.13h-1.54v4.73h0Zm-.96,.74v-6.2h2.52c.57,0,1,.03,1.31,.09,.42,.08,.78,.23,1.07,.44,.38,.28,.68,.63,.86,1.06,.19,.43,.28,.92,.28,1.47,0,.47-.07,.89-.19,1.25-.13,.36-.3,.67-.5,.9-.2,.24-.43,.43-.66,.56-.24,.14-.54,.24-.88,.31-.34,.07-.73,.11-1.18,.11h-2.62Z"/>
  <rect x="27.59" y="107.92" width="1.02" height=".87"/>
  <polygon points="31.1 121.03 31.1 113.11 33.08 113.11 33.08 113.74 32 113.74 32 120.4 33.08 120.4 33.08 121.03 31.1 121.03"/>
  <path d="M37.05,119.3h-.9v-4.85c-.22,.17-.5,.35-.85,.53-.35,.17-.67,.31-.94,.39v-.74c.5-.2,.94-.44,1.32-.73,.38-.29,.65-.56,.8-.82h.57v6.22Z"/>
  <rect x="39.86" y="118.43" width="1.02" height=".87"/>
  <path d="M46.02,115.13c0-.43-.14-.78-.41-1.04-.28-.26-.6-.38-.99-.38s-.75,.14-1.04,.41c-.29,.28-.44,.64-.44,1.07,0,.4,.14,.71,.42,.96,.28,.25,.63,.37,1.04,.37s.76-.12,1.03-.37c.27-.25,.41-.59,.41-1.03h0Zm-3.68,2.75l.86-.07c.07,.35,.21,.59,.42,.75,.2,.16,.47,.24,.8,.24,.28,0,.51-.05,.73-.16,.21-.1,.38-.25,.51-.43,.13-.18,.25-.42,.34-.73,.09-.31,.14-.61,.14-.93v-.15c-.18,.24-.43,.44-.74,.59-.32,.15-.65,.23-1.01,.23-.61,0-1.12-.19-1.54-.55-.42-.37-.63-.86-.63-1.47s.22-1.13,.66-1.51c.44-.38,.98-.58,1.64-.58,.47,0,.91,.11,1.31,.32,.4,.22,.7,.53,.9,.93,.2,.41,.31,.98,.31,1.75s-.1,1.43-.31,1.89c-.2,.47-.5,.82-.91,1.07-.4,.25-.87,.37-1.41,.37-.57,0-1.04-.13-1.4-.4-.36-.27-.58-.65-.65-1.13v-.02Z"/>
  <path d="M48.88,117.29c0,.26,.07,.51,.19,.75,.13,.24,.32,.42,.56,.55,.23,.13,.49,.19,.74,.19,.38,0,.71-.13,.98-.39,.27-.26,.41-.61,.41-1.05s-.14-.76-.41-1.01c-.27-.25-.61-.37-1.02-.37s-.75,.12-1.04,.37c-.28,.25-.43,.57-.43,.97h0Zm3.67-2.66l-.89,.06c-.08-.3-.2-.52-.34-.65-.24-.22-.54-.32-.9-.32-.29,0-.54,.07-.75,.2-.29,.17-.5,.43-.67,.77-.16,.34-.25,.81-.25,1.43,.21-.28,.48-.49,.79-.62,.32-.13,.64-.2,.98-.2,.6,0,1.11,.19,1.53,.56,.42,.38,.63,.86,.63,1.45,0,.39-.1,.75-.3,1.09-.2,.34-.47,.59-.82,.77-.35,.18-.74,.27-1.18,.27-.75,0-1.35-.23-1.83-.7-.47-.46-.71-1.24-.71-2.31,0-1.2,.26-2.07,.78-2.61,.46-.47,1.07-.71,1.84-.71,.58,0,1.05,.13,1.42,.41,.37,.27,.59,.65,.66,1.13h0Z"/>
  <path d="M57.39,115.13c0-.43-.14-.78-.41-1.04-.28-.26-.61-.38-.99-.38s-.75,.14-1.04,.41c-.29,.28-.44,.64-.44,1.07,0,.4,.14,.71,.42,.96,.28,.25,.63,.37,1.04,.37s.76-.12,1.03-.37c.27-.25,.4-.59,.4-1.03h0Zm-3.68,2.75l.86-.07c.07,.35,.21,.59,.42,.75,.2,.16,.47,.24,.8,.24,.28,0,.52-.05,.73-.16,.21-.1,.38-.25,.51-.43,.14-.18,.25-.42,.34-.73,.09-.31,.13-.61,.13-.93v-.15c-.18,.24-.43,.44-.73,.59-.31,.15-.65,.23-1.01,.23-.61,0-1.12-.19-1.54-.55-.42-.37-.63-.86-.63-1.47s.22-1.13,.66-1.51c.43-.38,.98-.58,1.65-.58,.47,0,.91,.11,1.3,.32,.4,.22,.7,.53,.9,.93,.2,.41,.31,.98,.31,1.75s-.1,1.43-.31,1.89c-.2,.47-.5,.82-.91,1.07-.4,.25-.87,.37-1.41,.37-.57,0-1.04-.13-1.4-.4-.36-.27-.58-.65-.65-1.13v-.02Z"/>
  <path d="M62.35,119.31v-4.49h.9v4.49h-.9Zm0-5.32v-.88h.9v.88h-.9Z"/>
  <path d="M64.61,119.3v-4.49h.81v.64c.39-.5,.95-.74,1.69-.74,.32,0,.61,.04,.88,.14,.27,.1,.47,.23,.6,.38,.14,.16,.23,.34,.28,.56,.03,.14,.05,.39,.05,.74v2.76h-.9v-2.73c0-.31-.04-.54-.1-.7-.07-.15-.2-.28-.38-.37-.18-.09-.39-.14-.62-.14-.38,0-.71,.1-.99,.31-.28,.2-.42,.59-.42,1.17v2.45h-.89Z"/>
  <polygon points="71.8 121.03 69.82 121.03 69.82 120.4 70.9 120.4 70.9 113.74 69.82 113.74 69.82 113.11 71.8 113.11 71.8 121.03"/>
  <path d="M37.92,105.13v-.38l-.15-.75-.15-.38-.22-.3-.23-.3-.22-.23-.3-.3-.3-.15-.3-.22-.38-.08-.75-.15h-.38l-.38,.07-.3,.07-.38,.08-.38,.22-.3,.15-.3,.3-.23,.23-.22,.3-.15,.3-.15,.38-.15,.38-.07,.38v.75l.07,.3,.15,.38,.15,.38,.15,.3,.22,.3,.23,.3,.3,.22,.3,.23,.38,.15,.38,.08,.3,.15h1.12l.38-.15,.38-.08,.3-.15,.3-.23,.3-.22,.22-.3,.23-.3,.22-.3,.15-.38,.07-.38,.08-.3v-.38m-5.02,4.57l3.68-9.15" style="fill: none; stroke: #000; stroke-miterlimit: 10; stroke-width: .74px;"/>
  <path d="M40.49,107.16l.94-.07c.07,.39,.23,.68,.49,.88,.26,.2,.56,.29,.93,.29,.43,0,.79-.13,1.09-.41,.3-.28,.45-.64,.45-1.11s-.14-.78-.43-1.03c-.29-.25-.67-.38-1.13-.38-.29,0-.55,.06-.78,.17-.23,.11-.41,.25-.55,.43l-.84-.09,.7-3.18h3.64v.73h-2.92l-.4,1.66c.44-.26,.9-.39,1.38-.39,.64,0,1.18,.19,1.62,.56,.44,.38,.66,.85,.66,1.45s-.2,1.04-.58,1.46c-.47,.5-1.11,.75-1.92,.75-.67,0-1.21-.16-1.63-.47-.42-.32-.66-.74-.72-1.25h0Z"/>
  <path d="M47.09,105.73c0,1.02,.14,1.7,.42,2.04,.28,.34,.63,.5,1.04,.5s.76-.17,1.04-.51c.28-.34,.42-1.01,.42-2.04s-.14-1.69-.42-2.03c-.28-.34-.63-.5-1.05-.5s-.74,.15-.99,.45c-.3,.38-.46,1.07-.46,2.09h0Zm-.92,0c0-.73,.09-1.32,.27-1.77,.18-.45,.44-.79,.8-1.04,.35-.24,.79-.36,1.33-.36,.39,0,.73,.07,1.03,.2,.29,.13,.54,.33,.73,.58,.2,.25,.34,.56,.46,.92,.11,.36,.16,.85,.16,1.46,0,.73-.09,1.31-.26,1.76-.18,.45-.44,.8-.79,1.04-.35,.25-.79,.37-1.33,.37-.7,0-1.26-.22-1.66-.65-.48-.51-.72-1.36-.72-2.52h-.02Z"/>
  <path d="M54.95,108.79v-4.49h.8v.63c.16-.22,.39-.4,.67-.53,.28-.14,.59-.2,.94-.2,.39,0,.71,.07,.97,.21,.26,.14,.43,.33,.53,.58,.42-.52,.97-.78,1.63-.78,.53,0,.93,.12,1.21,.37,.29,.25,.43,.62,.43,1.14v3.08h-.89v-2.83c0-.31-.03-.53-.09-.66-.06-.14-.16-.24-.31-.32-.15-.08-.33-.12-.54-.12-.38,0-.68,.11-.93,.31-.25,.21-.37,.55-.37,1.01v2.61h-.9v-2.92c0-.34-.07-.59-.22-.76-.14-.16-.38-.25-.72-.25-.25,0-.49,.06-.71,.17-.21,.11-.37,.28-.46,.5-.1,.22-.14,.53-.14,.94v2.33h-.91Z"/>
  <path d="M63.47,108.79v-4.49h.8v.63c.16-.22,.39-.4,.67-.53,.28-.14,.59-.2,.94-.2,.39,0,.71,.07,.97,.21,.25,.14,.43,.33,.53,.58,.42-.52,.97-.78,1.63-.78,.53,0,.93,.12,1.22,.37,.28,.25,.43,.62,.43,1.14v3.08h-.9v-2.83c0-.31-.03-.53-.09-.66-.06-.14-.16-.24-.31-.32-.15-.08-.33-.12-.54-.12-.38,0-.68,.11-.93,.31-.25,.21-.37,.55-.37,1.01v2.61h-.9v-2.92c0-.34-.07-.59-.22-.76-.14-.16-.38-.25-.72-.25-.25,0-.49,.06-.71,.17-.22,.11-.37,.28-.47,.5-.1,.22-.14,.53-.14,.94v2.33h-.91Z"/>
  <path d="M94.03,63.3l-1.09-2.57-1.03,3.46,2.11-.89h0Zm.85,2.01l-.58-1.36-2.93,1.24-.27-.64,1.52-5,.67-.29,1.56,3.7,.91-.38,.27,.64-.91,.38,.58,1.36-.82,.35Z"/>
  <path d="M96.84,62.72l.84-.43c.21,.33,.48,.54,.79,.62,.31,.08,.63,.05,.96-.09,.4-.16,.68-.43,.85-.81,.16-.38,.16-.77-.01-1.19-.16-.4-.43-.66-.79-.78-.36-.12-.76-.09-1.19,.09-.27,.11-.48,.26-.66,.46-.17,.19-.28,.39-.34,.61l-.82,.24-.59-3.21,3.35-1.42,.29,.67-2.69,1.13,.29,1.69c.31-.41,.68-.71,1.12-.9,.59-.25,1.16-.29,1.71-.11,.56,.18,.94,.54,1.17,1.07,.22,.52,.23,1.04,.03,1.57-.24,.64-.73,1.12-1.48,1.44-.62,.26-1.18,.32-1.69,.2-.51-.13-.89-.42-1.16-.88l.02,.02Z"/>
  <path d="M101.41,56.99c.07,.18,.22,.31,.43,.37,.21,.07,.42,.05,.63-.04,.21-.09,.37-.24,.46-.42,.1-.19,.11-.38,.03-.56-.07-.18-.21-.31-.43-.37-.2-.07-.41-.05-.62,.04-.22,.09-.37,.23-.47,.43-.1,.2-.11,.38-.03,.56h0Zm-.5,.2c-.12-.3-.11-.61,.06-.92,.16-.32,.42-.55,.76-.7,.35-.15,.7-.17,1.04-.07,.34,.11,.57,.31,.7,.61,.13,.3,.11,.61-.05,.93-.16,.31-.42,.55-.77,.7-.35,.15-.69,.17-1.03,.07-.34-.1-.57-.3-.7-.6Z"/>
  <path d="M107.52,59.08l3.38-1.35m-2.4-.97l-1.42-3.38m-.98,2.4l3.38-1.43" style="fill: none; stroke: #000; stroke-miterlimit: 10; stroke-width: .38px;"/>
  <path d="M112.44,54.57c.4,.94,.79,1.51,1.18,1.71,.39,.2,.77,.21,1.15,.06,.38-.16,.63-.45,.77-.87,.13-.42,0-1.09-.4-2.03-.4-.94-.79-1.51-1.18-1.71-.39-.2-.78-.22-1.16-.05-.38,.16-.62,.43-.74,.79-.13,.46,0,1.17,.38,2.11h0Zm-.85,.35c-.29-.68-.43-1.25-.44-1.73,0-.48,.1-.9,.33-1.26,.23-.36,.59-.65,1.08-.85,.36-.15,.7-.23,1.03-.22,.32,0,.62,.09,.9,.25,.28,.16,.54,.38,.78,.68,.24,.29,.48,.72,.72,1.28,.29,.67,.43,1.25,.44,1.72,0,.48-.1,.9-.32,1.26-.22,.36-.59,.64-1.08,.85-.65,.28-1.25,.29-1.78,.05-.65-.29-1.2-.96-1.65-2.04Z"/>
  <polygon points="118.49 55.34 118.15 54.55 119.09 54.15 119.43 54.95 118.49 55.34"/>
  <path d="M120.29,51.25c.4,.94,.79,1.51,1.18,1.71,.39,.2,.77,.22,1.16,.06,.38-.16,.64-.45,.76-.87,.13-.42,0-1.1-.39-2.04-.4-.94-.79-1.51-1.18-1.71-.39-.2-.78-.22-1.16-.05-.38,.16-.62,.43-.74,.8-.13,.46,0,1.17,.38,2.1h0Zm-.84,.35c-.28-.67-.44-1.25-.44-1.73,0-.48,.1-.9,.33-1.26,.23-.36,.59-.64,1.08-.85,.36-.15,.71-.22,1.03-.22,.32,0,.62,.09,.9,.25,.28,.16,.53,.38,.78,.68,.24,.29,.48,.72,.72,1.28,.29,.67,.43,1.25,.44,1.73,0,.48-.1,.9-.32,1.26-.23,.36-.59,.65-1.08,.86-.65,.28-1.25,.29-1.79,.05-.64-.29-1.19-.97-1.65-2.04Z"/>
  <path d="M129.94,49.71l.29,.68-4.46,1.88c-.07-.17-.11-.35-.11-.53,0-.31,.08-.64,.23-.99,.14-.35,.38-.8,.72-1.32,.52-.82,.84-1.43,.98-1.84,.13-.4,.14-.74,.03-1-.12-.28-.33-.46-.64-.55-.31-.09-.66-.06-1.04,.1-.39,.16-.67,.41-.82,.7-.16,.3-.16,.64,0,1l-.88,.29c-.17-.56-.12-1.07,.13-1.51,.26-.44,.71-.8,1.35-1.07,.65-.27,1.22-.34,1.72-.2,.5,.15,.85,.45,1.04,.9,.1,.22,.14,.47,.12,.74-.02,.27-.11,.58-.25,.93-.15,.35-.44,.87-.86,1.55-.34,.56-.56,.94-.65,1.12-.09,.19-.15,.36-.19,.52l3.31-1.4Z"/>
  <polyline points="131.3 42.13 131.22 41.9 131.07 41.75 130.92 41.68 130.77 41.6 130.55 41.53 130.4 41.53 130.17 41.6 130.02 41.68 129.72 41.98 129.65 42.13 129.57 42.35 129.57 42.5 129.65 42.73 129.72 42.88 129.8 43.1 129.95 43.18 130.1 43.33 130.32 43.33 130.47 43.4 130.7 43.33 130.92 43.25 131.07 43.18 131.22 43.03 131.3 42.88 131.37 42.73 131.37 42.28 131.3 42.13" style="fill: none; stroke: #000; stroke-miterlimit: 10; stroke-width: .38px;"/>
  <polygon points="334.88 171.82 326.96 171.82 326.96 169.84 327.59 169.84 327.59 170.92 334.25 170.92 334.25 169.84 334.88 169.84 334.88 171.82"/>
  <path d="M331.52,169.25l-.1-.9c.43-.1,.74-.28,.93-.52,.19-.25,.29-.55,.29-.91,0-.42-.13-.78-.38-1.07-.25-.29-.55-.43-.93-.43s-.64,.13-.86,.4c-.23,.27-.34,.62-.34,1.03,0,.18,.03,.38,.08,.63l-.67-.1c0-.06,0-.1,0-.14,0-.38-.08-.73-.25-1.04-.17-.3-.43-.46-.78-.46-.28,0-.51,.11-.69,.34-.18,.22-.28,.51-.28,.86s.09,.64,.28,.88c.19,.24,.46,.38,.84,.45l-.14,.9c-.51-.11-.91-.36-1.18-.75-.28-.39-.42-.88-.42-1.46,0-.4,.08-.76,.22-1.1,.14-.34,.34-.59,.59-.77,.25-.18,.52-.27,.8-.27s.51,.08,.73,.25c.22,.17,.4,.42,.53,.75,.08-.43,.26-.77,.52-1,.26-.24,.6-.36,1-.36,.54,0,1,.23,1.37,.7,.38,.47,.56,1.06,.56,1.77,0,.64-.16,1.18-.49,1.6-.32,.43-.74,.66-1.26,.73h0Z"/>
  <rect x="332.28" y="162.04" width=".87" height="1.02"/>
  <path d="M333.15,157.34v.9h-4.85c.17,.22,.35,.5,.52,.85,.17,.35,.31,.67,.39,.95h-.73c-.2-.5-.44-.95-.73-1.32-.29-.38-.56-.64-.83-.8v-.58h6.23Z"/>
  <path d="M331.37,154.12c.22,0,.43-.06,.63-.18,.2-.12,.36-.3,.47-.54,.11-.24,.17-.5,.17-.77,0-.43-.12-.78-.36-1.07-.23-.28-.53-.42-.89-.42s-.67,.14-.91,.43c-.24,.29-.36,.65-.36,1.08s.12,.77,.36,1.05c.24,.28,.53,.42,.88,.42h0Zm-2.86-.3c.29,0,.53-.11,.72-.34,.19-.23,.28-.51,.28-.87s-.09-.63-.28-.85c-.19-.22-.41-.33-.68-.33s-.51,.11-.7,.34c-.19,.23-.29,.51-.29,.85s.09,.63,.28,.85c.19,.22,.4,.34,.67,.34Zm1.29-.18c-.11,.38-.28,.65-.5,.82-.22,.18-.47,.27-.77,.27-.45,0-.83-.19-1.14-.57-.31-.38-.46-.89-.46-1.53s.16-1.16,.47-1.55c.32-.39,.7-.58,1.15-.58,.29,0,.54,.09,.75,.27,.21,.18,.38,.45,.5,.81,.12-.45,.32-.79,.6-1.03,.28-.23,.61-.35,.99-.35,.53,0,.97,.21,1.34,.66,.36,.44,.54,1.03,.54,1.75s-.18,1.3-.54,1.75c-.36,.44-.81,.66-1.36,.66-.41,0-.74-.12-1.01-.36-.27-.24-.46-.58-.55-1.03v.02Z"/>
  <path d="M328.98,145.54c-.43,0-.78,.13-1.04,.41-.27,.28-.38,.61-.38,.99s.13,.75,.41,1.04c.28,.3,.63,.44,1.07,.44,.4,0,.71-.14,.96-.42,.25-.28,.37-.63,.37-1.04s-.12-.75-.37-1.03c-.25-.27-.59-.4-1.03-.4h0Zm2.74,3.69l-.07-.86c.34-.08,.59-.21,.75-.42s.23-.47,.23-.79c0-.28-.05-.52-.16-.73-.11-.21-.25-.38-.43-.51-.18-.14-.42-.25-.73-.34-.31-.09-.62-.13-.93-.13h-.15c.24,.18,.43,.43,.59,.73,.16,.31,.22,.64,.22,1.01,0,.61-.19,1.12-.55,1.54-.38,.42-.86,.63-1.47,.63s-1.13-.22-1.52-.66c-.38-.43-.58-.98-.58-1.64,0-.47,.11-.91,.32-1.31,.21-.4,.52-.7,.93-.9s.98-.31,1.75-.31,1.43,.1,1.89,.31c.46,.2,.82,.5,1.07,.91,.25,.41,.37,.87,.37,1.41,0,.57-.14,1.04-.41,1.4-.27,.36-.64,.58-1.13,.65h-.02Z"/>
  <path d="M333.16,140.57h-4.49v-.9h4.49v.9Zm-5.32,0h-.88v-.9h.88v.9Z"/>
  <path d="M333.15,138.31h-4.49v-.81h.64c-.5-.39-.74-.95-.74-1.69,0-.32,.05-.61,.14-.88,.09-.27,.22-.46,.38-.6,.16-.13,.35-.22,.56-.28,.14-.03,.39-.05,.75-.05h2.76v.9h-2.73c-.31,0-.54,.04-.7,.11-.15,.07-.28,.19-.37,.38-.09,.18-.14,.39-.14,.62,0,.38,.11,.71,.31,.99,.2,.28,.59,.42,1.17,.42h2.45v.9h0Z"/>
  <polygon points="334.88 131.11 334.88 133.09 334.25 133.09 334.25 132.02 327.59 132.02 327.59 133.09 326.96 133.09 326.96 131.11 334.88 131.11"/>
  <path d="M318.2,164.75l-.38,.07h-.38l-.38,.15-.3,.15-.3,.15-.3,.23-.3,.3-.22,.23-.23,.38-.15,.3-.15,.38-.07,.38-.07,.3v.38l.15,.75,.15,.38,.15,.3,.23,.3,.22,.3,.3,.3,.3,.22,.3,.15,.3,.15,.38,.07,.38,.08,.38,.07,.38-.07,.38-.08,.38-.07,.3-.15,.3-.15,.3-.22,.3-.3,.22-.3,.23-.3,.15-.3,.15-.38,.15-.75v-.38l-.07-.3-.07-.38-.15-.38-.15-.3-.23-.38-.22-.23-.3-.3-.3-.23-.3-.15-.3-.15-.38-.15h-.38l-.38-.07m4.57,5.02l-9.15-3.6" style="fill: none; stroke: #000; stroke-miterlimit: 10; stroke-width: .74px;"/>
  <path d="M319.43,161.33c.22,0,.43-.06,.63-.18,.2-.12,.36-.3,.47-.54,.11-.24,.16-.5,.16-.77,0-.43-.12-.78-.35-1.07-.23-.28-.54-.42-.89-.42s-.67,.14-.91,.43c-.24,.29-.36,.65-.36,1.08s.12,.77,.35,1.05c.24,.28,.53,.42,.88,.42h0Zm-2.86-.3c.29,0,.53-.11,.72-.34,.19-.23,.28-.51,.28-.87s-.09-.63-.28-.85c-.19-.21-.41-.33-.68-.33s-.51,.11-.7,.34c-.19,.23-.29,.51-.29,.85s.09,.63,.28,.85c.19,.22,.41,.34,.67,.34h0Zm1.29-.18c-.11,.38-.28,.65-.5,.82-.21,.18-.47,.27-.77,.27-.45,0-.83-.19-1.14-.58-.31-.38-.46-.89-.46-1.53s.16-1.16,.47-1.55c.31-.39,.7-.58,1.14-.58,.29,0,.54,.09,.75,.27,.21,.18,.38,.45,.5,.81,.13-.45,.32-.79,.6-1.03,.28-.23,.61-.35,.99-.35,.54,0,.98,.22,1.34,.66,.36,.44,.54,1.03,.54,1.75s-.18,1.3-.54,1.75c-.36,.44-.81,.66-1.36,.66-.4,0-.74-.12-1.01-.36-.27-.24-.46-.58-.55-1.03v.02Z"/>
  <path d="M321.22,153.17v.9h-4.85c.17,.21,.35,.5,.52,.85,.18,.35,.31,.66,.39,.94h-.73c-.2-.5-.44-.94-.73-1.32s-.56-.65-.83-.8v-.58h6.23Z"/>
  <path d="M321.22,147.78h-4.49v-.81h.63c-.21-.16-.39-.39-.53-.67-.13-.28-.2-.59-.2-.94,0-.39,.07-.71,.21-.97,.14-.25,.33-.43,.58-.53-.52-.42-.79-.97-.79-1.63,0-.52,.13-.93,.37-1.21,.25-.29,.62-.43,1.14-.43h3.08v.89h-2.82c-.31,0-.53,.03-.66,.09-.14,.06-.24,.16-.32,.32-.08,.15-.12,.33-.12,.54,0,.38,.11,.68,.32,.93s.55,.37,1,.37h2.61v.9h-2.92c-.34,0-.59,.08-.75,.22-.17,.14-.26,.38-.26,.72,0,.26,.06,.49,.17,.7,.11,.21,.28,.37,.5,.46s.53,.14,.94,.14h2.33v.92Z"/>
  <path d="M321.22,139.26h-4.49v-.81h.63c-.21-.16-.39-.39-.53-.67-.13-.28-.2-.59-.2-.94,0-.39,.07-.71,.21-.96,.14-.25,.33-.43,.58-.54-.52-.42-.79-.96-.79-1.63,0-.53,.13-.93,.37-1.22,.25-.28,.62-.43,1.14-.43h3.08v.89h-2.82c-.31,0-.53,.03-.66,.09-.14,.06-.24,.16-.32,.31-.08,.15-.12,.33-.12,.54,0,.38,.11,.68,.32,.93,.21,.25,.55,.37,1,.37h2.61v.9h-2.92c-.34,0-.59,.07-.75,.22-.17,.14-.26,.38-.26,.72,0,.26,.06,.49,.17,.7,.11,.21,.28,.37,.5,.46,.22,.1,.53,.14,.94,.14h2.33v.92Z"/>
  <polygon points="377.82 286.12 377.82 278.21 379.8 278.21 379.8 278.84 378.72 278.84 378.72 285.5 379.8 285.5 379.8 286.12 377.82 286.12"/>
  <path d="M383.78,284.41h-.9v-4.85c-.22,.17-.5,.35-.85,.53-.36,.17-.67,.3-.95,.39v-.73c.5-.2,.95-.44,1.32-.73s.64-.56,.8-.82h.58v6.22h0Z"/>
  <rect x="386.58" y="283.54" width="1.02" height=".87"/>
  <path d="M392.73,280.24c0-.44-.13-.78-.41-1.04-.28-.25-.61-.38-.99-.38s-.75,.14-1.04,.41c-.3,.28-.45,.64-.45,1.07,0,.4,.14,.71,.42,.96,.29,.25,.63,.37,1.04,.37s.76-.12,1.03-.37c.27-.25,.4-.59,.4-1.03h0Zm-3.68,2.75l.86-.07c.07,.35,.21,.59,.42,.75,.21,.16,.47,.23,.8,.23,.28,0,.52-.05,.73-.16,.21-.11,.38-.25,.51-.43,.14-.18,.25-.42,.34-.73,.09-.31,.13-.62,.13-.93v-.15c-.18,.24-.43,.44-.73,.59-.31,.16-.64,.23-1.01,.23-.61,0-1.12-.19-1.54-.55-.42-.38-.63-.86-.63-1.47s.22-1.13,.66-1.52c.43-.38,.98-.57,1.64-.57,.47,0,.91,.1,1.3,.32,.39,.22,.7,.53,.9,.93,.2,.41,.31,.98,.31,1.75s-.1,1.42-.31,1.89c-.2,.47-.5,.83-.91,1.07-.41,.25-.87,.37-1.41,.37-.57,0-1.04-.13-1.4-.41-.36-.27-.58-.64-.65-1.13h0Z"/>
  <path d="M397.49,282.23v-2.8l-2.29,2.8h2.29Zm0,2.18v-1.48h-3.17v-.7l3.34-4.02h.73v4.02h.99v.7h-.99v1.48h-.9Z"/>
  <path d="M404.11,280.24c0-.44-.13-.78-.41-1.04-.28-.25-.61-.38-.99-.38s-.75,.14-1.04,.41c-.3,.28-.44,.64-.44,1.07,0,.4,.14,.71,.42,.96,.29,.25,.63,.37,1.04,.37s.76-.12,1.03-.37c.27-.25,.41-.59,.41-1.03h0Zm-3.68,2.75l.86-.07c.07,.35,.21,.59,.42,.75,.21,.16,.47,.23,.79,.23,.28,0,.52-.05,.73-.16,.21-.11,.38-.25,.51-.43s.25-.42,.34-.73c.09-.31,.14-.62,.14-.93v-.15c-.18,.24-.43,.44-.73,.59-.31,.16-.64,.23-1.01,.23-.61,0-1.12-.19-1.54-.55-.42-.38-.63-.86-.63-1.47s.21-1.13,.66-1.52c.43-.38,.98-.57,1.64-.57,.47,0,.91,.1,1.3,.32,.4,.22,.7,.53,.9,.93,.2,.41,.3,.98,.3,1.75s-.1,1.42-.3,1.89c-.2,.47-.5,.83-.91,1.07-.4,.25-.87,.37-1.41,.37-.57,0-1.04-.13-1.4-.41-.36-.27-.57-.64-.65-1.13h0Z"/>
  <path d="M409.07,284.41v-4.49h.9v4.49h-.9Zm0-5.32v-.88h.9v.88h-.9Z"/>
  <path d="M411.34,284.41v-4.49h.81v.64c.39-.49,.95-.74,1.69-.74,.32,0,.62,.05,.88,.14,.27,.1,.46,.22,.6,.38,.13,.16,.22,.34,.28,.56,.03,.14,.05,.39,.05,.74v2.76h-.9v-2.73c0-.31-.04-.54-.11-.7-.07-.15-.2-.28-.38-.37-.18-.09-.39-.14-.62-.14-.38,0-.71,.11-.99,.31s-.42,.59-.42,1.17v2.45h-.89Z"/>
  <polygon points="418.52 286.12 416.54 286.12 416.54 285.5 417.63 285.5 417.63 278.84 416.54 278.84 416.54 278.21 418.52 278.21 418.52 286.12"/>
  <path d="M379.02,270.29v-2.8l-2.29,2.8h2.29Zm0,2.18v-1.48h-3.17v-.7l3.34-4.01h.73v4.01h.99v.7h-.99v1.48h-.9Z"/>
  <path d="M385.64,268.3c0-.43-.13-.78-.41-1.04-.28-.25-.61-.38-.99-.38s-.75,.14-1.04,.41c-.3,.28-.44,.64-.44,1.07,0,.39,.14,.71,.42,.96,.29,.25,.63,.37,1.04,.37s.76-.12,1.03-.37c.27-.25,.41-.58,.41-1.03h0Zm-3.68,2.75l.86-.07c.07,.34,.21,.59,.42,.75,.21,.16,.47,.23,.79,.23,.28,0,.52-.05,.73-.16,.21-.11,.38-.25,.51-.43,.14-.18,.25-.42,.34-.73,.09-.3,.14-.61,.14-.93v-.15c-.18,.24-.43,.43-.73,.59-.31,.16-.64,.23-1.01,.23-.61,0-1.12-.19-1.54-.55-.42-.38-.63-.86-.63-1.47s.21-1.13,.66-1.52c.43-.38,.98-.58,1.64-.58,.47,0,.91,.11,1.3,.32,.4,.21,.7,.52,.9,.93,.2,.4,.3,.98,.3,1.75s-.1,1.43-.3,1.89c-.2,.47-.5,.82-.91,1.07-.4,.25-.87,.37-1.41,.37s-1.04-.13-1.4-.4c-.36-.27-.57-.64-.65-1.13v-.02Z"/>
  <rect x="388.01" y="271.6" width="1.02" height=".87"/>
  <path d="M390.35,270.85l.95-.07c.07,.39,.23,.68,.49,.88,.25,.2,.56,.29,.92,.29,.43,0,.8-.13,1.09-.41,.29-.28,.45-.64,.45-1.11s-.14-.78-.43-1.03c-.29-.25-.67-.38-1.13-.38-.29,0-.55,.05-.78,.17-.23,.11-.41,.25-.55,.43l-.84-.09,.71-3.19h3.64v.73h-2.92l-.4,1.66c.44-.26,.9-.39,1.38-.39,.64,0,1.18,.19,1.62,.56,.44,.38,.66,.85,.66,1.45s-.2,1.04-.58,1.46c-.46,.5-1.11,.75-1.92,.75-.67,0-1.21-.16-1.63-.47-.42-.32-.66-.74-.72-1.25h-.02Z"/>
  <path d="M396.95,269.41c0,1.02,.14,1.7,.42,2.04,.28,.34,.63,.5,1.04,.5s.76-.17,1.04-.51c.29-.34,.42-1.02,.42-2.04s-.14-1.7-.42-2.03c-.28-.34-.63-.5-1.05-.5s-.74,.15-.99,.45c-.3,.38-.46,1.07-.46,2.09h0Zm-.92,0c0-.73,.09-1.32,.27-1.77,.18-.45,.45-.79,.8-1.04,.35-.24,.79-.36,1.33-.36,.39,0,.73,.07,1.04,.2,.29,.13,.54,.33,.73,.58,.2,.25,.34,.56,.46,.92,.11,.36,.16,.85,.16,1.46,0,.73-.09,1.31-.26,1.76-.18,.45-.44,.8-.79,1.04-.36,.25-.8,.37-1.33,.37-.71,0-1.26-.22-1.67-.65-.48-.52-.73-1.36-.73-2.52h0Z"/>
  <path d="M404.81,272.47v-4.49h.8v.63c.16-.22,.39-.4,.67-.53,.28-.14,.59-.2,.95-.2,.39,0,.71,.07,.97,.21,.25,.13,.43,.33,.53,.57,.42-.52,.97-.79,1.63-.79,.53,0,.93,.12,1.22,.37,.28,.25,.43,.63,.43,1.14v3.08h-.89v-2.83c0-.31-.03-.52-.09-.66-.06-.14-.16-.24-.31-.32-.15-.08-.33-.12-.54-.12-.38,0-.68,.11-.93,.31-.25,.21-.37,.55-.37,1.01v2.61h-.9v-2.92c0-.34-.07-.59-.22-.76-.14-.16-.38-.25-.72-.25-.25,0-.49,.06-.7,.17-.21,.11-.37,.28-.46,.5-.1,.21-.14,.53-.14,.94v2.33h-.91Z"/>
  <path d="M413.33,272.47v-4.49h.8v.63c.16-.22,.39-.4,.67-.53,.28-.14,.59-.2,.95-.2,.39,0,.71,.07,.97,.21,.25,.13,.43,.33,.53,.57,.42-.52,.97-.79,1.64-.79,.52,0,.93,.12,1.21,.37,.29,.25,.43,.63,.43,1.14v3.08h-.89v-2.83c0-.31-.03-.52-.09-.66-.06-.14-.17-.24-.32-.32-.15-.08-.33-.12-.54-.12-.38,0-.68,.11-.93,.31-.25,.21-.37,.55-.37,1.01v2.61h-.9v-2.92c0-.34-.07-.59-.22-.76-.14-.16-.38-.25-.72-.25-.25,0-.49,.06-.7,.17-.21,.11-.37,.28-.46,.5-.1,.21-.14,.53-.14,.94v2.33h-.91Z"/>
  <polygon points="461.09 261.73 461.09 253.81 463.07 253.81 463.07 254.44 462 254.44 462 261.1 463.07 261.1 463.07 261.73 461.09 261.73"/>
  <path d="M464.58,256.95c0,1.02,.14,1.7,.42,2.04,.28,.34,.63,.5,1.04,.5s.76-.17,1.04-.51c.29-.34,.42-1.02,.42-2.04s-.14-1.7-.42-2.03c-.28-.33-.63-.5-1.05-.5s-.75,.15-.99,.44c-.31,.38-.46,1.07-.46,2.09h0Zm-.92,0c0-.73,.09-1.32,.27-1.77,.18-.45,.44-.79,.8-1.04,.35-.24,.79-.36,1.32-.36,.39,0,.74,.07,1.04,.2,.29,.13,.54,.33,.74,.58,.19,.25,.34,.56,.46,.92,.11,.36,.16,.85,.16,1.46,0,.73-.09,1.31-.26,1.76-.18,.45-.45,.8-.8,1.04-.35,.25-.79,.37-1.33,.37-.7,0-1.26-.21-1.66-.64-.48-.52-.73-1.36-.73-2.52h0Z"/>
  <rect x="469.86" y="259.13" width="1.02" height=".87"/>
  <path d="M476.91,259.27v.74h-4.84c0-.18,.03-.36,.11-.54,.12-.28,.32-.55,.59-.82s.66-.59,1.18-.94c.8-.55,1.34-.99,1.61-1.31,.28-.32,.42-.63,.42-.91s-.12-.55-.38-.77c-.26-.21-.59-.31-1-.31s-.78,.11-1.04,.33c-.26,.22-.39,.52-.4,.91l-.92-.08c.06-.59,.3-1.03,.71-1.34,.41-.31,.96-.46,1.66-.46s1.26,.16,1.66,.5c.41,.33,.62,.74,.62,1.22,0,.25-.06,.49-.18,.73-.12,.24-.32,.5-.6,.76-.28,.26-.74,.63-1.39,1.09-.54,.38-.89,.64-1.04,.78-.15,.13-.28,.28-.38,.41h3.59Z"/>
  <path d="M477.87,258.38l.95-.07c.07,.39,.23,.68,.49,.88,.25,.2,.56,.29,.92,.29,.44,0,.8-.13,1.1-.41,.29-.28,.45-.65,.45-1.11s-.14-.78-.44-1.03c-.29-.25-.67-.38-1.13-.38-.29,0-.55,.05-.78,.17-.23,.11-.41,.25-.55,.43l-.84-.09,.71-3.19h3.64v.73h-2.92l-.39,1.66c.44-.26,.9-.39,1.38-.39,.64,0,1.18,.19,1.62,.56,.44,.38,.66,.85,.66,1.45s-.19,1.04-.57,1.46c-.46,.5-1.11,.75-1.92,.75-.67,0-1.21-.16-1.63-.47-.42-.32-.66-.74-.72-1.25h-.02Z"/>
  <path d="M484.55,257.99c0,.26,.07,.51,.2,.75,.13,.24,.32,.42,.55,.55,.23,.13,.49,.19,.74,.19,.38,0,.71-.12,.98-.39,.27-.26,.41-.61,.41-1.05s-.13-.77-.4-1.01c-.27-.25-.61-.37-1.02-.37s-.75,.13-1.04,.37c-.29,.25-.43,.57-.43,.96h0Zm3.67-2.66l-.89,.06c-.08-.3-.19-.52-.34-.65-.24-.22-.54-.32-.9-.32-.29,0-.54,.07-.75,.2-.29,.17-.5,.43-.67,.77-.16,.34-.25,.81-.26,1.43,.22-.28,.48-.49,.8-.62,.32-.13,.64-.2,.98-.2,.6,0,1.11,.19,1.53,.56,.42,.38,.63,.85,.63,1.45,0,.39-.09,.75-.3,1.09-.2,.34-.47,.59-.82,.76-.34,.18-.73,.27-1.18,.27-.75,0-1.36-.23-1.83-.7-.47-.46-.71-1.24-.71-2.31,0-1.2,.26-2.07,.78-2.61,.46-.47,1.07-.71,1.84-.71,.58,0,1.05,.14,1.42,.41,.37,.28,.59,.65,.66,1.13Z"/>
  <path d="M492.34,260.01v-4.49h.9v4.49h-.9Zm0-5.33v-.88h.9v.88h-.9Z"/>
  <path d="M494.61,260v-4.49h.81v.64c.39-.5,.95-.74,1.69-.74,.32,0,.62,.05,.88,.14,.27,.1,.46,.23,.6,.38,.14,.16,.23,.34,.28,.56,.03,.14,.05,.39,.05,.74v2.76h-.9v-2.73c0-.31-.04-.54-.11-.7-.07-.15-.2-.28-.38-.37-.18-.09-.39-.13-.62-.13-.38,0-.71,.11-.99,.3-.28,.2-.42,.59-.42,1.17v2.45h-.89Z"/>
  <polygon points="501.8 261.73 499.82 261.73 499.82 261.1 500.9 261.1 500.9 254.44 499.82 254.44 499.82 253.81 501.8 253.81 501.8 261.73"/>
  <path d="M463.12,245.86c0,.26,.07,.51,.2,.75,.12,.24,.31,.42,.55,.55,.23,.12,.48,.19,.74,.19,.38,0,.7-.13,.97-.39,.27-.26,.41-.62,.41-1.06s-.14-.77-.41-1.01c-.27-.25-.61-.37-1.02-.37s-.75,.12-1.04,.37c-.29,.25-.43,.57-.43,.97h0Zm3.67-2.66l-.89,.06c-.08-.3-.2-.51-.34-.65-.24-.21-.54-.32-.9-.32-.29,0-.54,.07-.75,.2-.29,.17-.5,.43-.67,.76-.16,.34-.25,.81-.25,1.43,.22-.28,.48-.49,.8-.62,.31-.14,.64-.2,.98-.2,.6,0,1.11,.19,1.53,.56,.42,.38,.63,.86,.63,1.45,0,.39-.1,.75-.3,1.09-.2,.34-.47,.59-.82,.77-.34,.18-.73,.26-1.18,.26-.75,0-1.36-.24-1.83-.7-.47-.47-.71-1.24-.71-2.31,0-1.2,.26-2.07,.78-2.61,.46-.47,1.07-.72,1.85-.72,.58,0,1.05,.14,1.42,.41,.37,.28,.58,.65,.66,1.13Z"/>
  <rect x="468.31" y="247" width="1.02" height=".87"/>
  <path d="M470.65,246.25l.95-.07c.07,.39,.23,.68,.49,.88,.25,.2,.56,.29,.92,.29,.44,0,.8-.14,1.1-.41,.29-.28,.45-.64,.45-1.1s-.14-.78-.44-1.03c-.29-.25-.66-.38-1.13-.38-.29,0-.55,.05-.78,.16-.23,.11-.41,.25-.55,.43l-.84-.09,.71-3.19h3.64v.73h-2.92l-.39,1.66c.44-.26,.9-.39,1.38-.39,.64,0,1.18,.19,1.62,.56,.44,.38,.66,.85,.66,1.45s-.2,1.04-.58,1.45c-.46,.5-1.11,.75-1.92,.75-.67,0-1.21-.16-1.62-.47-.42-.32-.66-.73-.72-1.25h-.02Z"/>
  <path d="M477.26,244.82c0,1.02,.14,1.7,.42,2.03,.28,.34,.63,.5,1.04,.5s.76-.18,1.04-.51c.29-.34,.42-1.01,.42-2.03s-.14-1.69-.42-2.04c-.28-.34-.63-.5-1.05-.5s-.74,.15-.99,.44c-.31,.38-.46,1.07-.46,2.09h0Zm-.92,0c0-.74,.09-1.32,.27-1.77,.18-.45,.44-.79,.79-1.04,.36-.24,.8-.36,1.33-.36,.39,0,.73,.07,1.04,.2,.29,.14,.54,.33,.73,.58,.2,.25,.35,.56,.46,.92,.11,.36,.17,.85,.17,1.46,0,.73-.09,1.31-.27,1.76-.18,.45-.44,.79-.79,1.04-.35,.25-.8,.37-1.33,.37-.7,0-1.26-.22-1.66-.64-.48-.52-.73-1.36-.73-2.52h0Z"/>
  <path d="M485.11,247.87v-4.49h.8v.63c.16-.21,.39-.4,.66-.53,.28-.14,.59-.2,.95-.2,.39,0,.71,.07,.97,.21,.25,.13,.43,.33,.53,.58,.42-.53,.97-.79,1.64-.79,.52,0,.93,.13,1.21,.37,.29,.25,.43,.63,.43,1.14v3.08h-.89v-2.83c0-.3-.03-.52-.09-.66-.06-.13-.16-.24-.32-.32-.15-.08-.33-.12-.54-.12-.37,0-.68,.11-.93,.32-.25,.21-.37,.55-.37,1v2.61h-.9v-2.92c0-.34-.07-.59-.21-.76-.14-.16-.38-.25-.72-.25-.25,0-.48,.06-.7,.17-.21,.11-.37,.28-.46,.5-.1,.22-.14,.53-.14,.94v2.33h-.91Z"/>
  <path d="M493.62,247.87v-4.49h.8v.63c.16-.21,.39-.4,.67-.53,.28-.14,.59-.2,.95-.2,.39,0,.71,.07,.96,.21,.25,.13,.43,.33,.54,.58,.42-.53,.96-.79,1.63-.79,.53,0,.93,.13,1.21,.37,.29,.25,.43,.63,.43,1.14v3.08h-.89v-2.83c0-.3-.03-.52-.09-.66-.06-.13-.16-.24-.32-.32-.15-.08-.33-.12-.54-.12-.38,0-.68,.11-.93,.32-.25,.21-.37,.55-.37,1v2.61h-.9v-2.92c0-.34-.08-.59-.22-.76-.14-.16-.38-.25-.72-.25-.26,0-.49,.06-.7,.17-.21,.11-.37,.28-.46,.5-.1,.22-.14,.53-.14,.94v2.33h-.92Z"/>
  <polygon points="517.97 75.16 510.05 75.16 510.05 73.18 510.68 73.18 510.68 74.27 517.34 74.27 517.34 73.18 517.97 73.18 517.97 75.16"/>
  <path d="M516.24,69.21v.9h-4.85c.17,.22,.35,.5,.52,.85,.17,.35,.31,.67,.39,.95h-.73c-.2-.5-.44-.95-.73-1.32-.29-.38-.56-.64-.83-.8v-.58h6.23Z"/>
  <rect x="515.37" y="65.39" width=".87" height="1.02"/>
  <path d="M515.52,59.35h.74v4.84c-.18,0-.36-.03-.53-.1-.28-.12-.55-.32-.83-.59-.27-.27-.58-.66-.94-1.18-.56-.79-.99-1.33-1.31-1.61-.32-.28-.63-.42-.91-.42s-.55,.13-.76,.38c-.21,.25-.3,.59-.3,1,0,.44,.11,.78,.33,1.04,.22,.26,.53,.39,.91,.4l-.08,.92c-.59-.06-1.03-.3-1.34-.71-.3-.41-.46-.97-.46-1.66s.17-1.26,.5-1.67c.33-.4,.73-.61,1.22-.61,.25,0,.5,.06,.73,.18,.24,.12,.5,.32,.76,.6,.26,.28,.63,.74,1.09,1.39,.38,.54,.64,.88,.78,1.03,.14,.15,.28,.28,.41,.38v-3.59Z"/>
  <path d="M514.06,55.51h-2.8l2.8,2.29v-2.29Zm2.18,0h-1.49v3.17h-.7l-4.02-3.34v-.73h4.02v-.99h.7v.99h1.49v.9Z"/>
  <path d="M513.19,51.78c1.02,0,1.7-.15,2.03-.42,.34-.28,.5-.63,.5-1.04s-.18-.76-.51-1.04c-.34-.29-1.01-.42-2.03-.42s-1.7,.14-2.04,.42c-.34,.28-.5,.63-.5,1.05s.15,.74,.44,.99c.37,.3,1.07,.46,2.09,.46h0Zm0,.92c-.74,0-1.32-.09-1.77-.27-.45-.18-.79-.44-1.03-.8-.24-.35-.36-.79-.36-1.33,0-.39,.07-.73,.2-1.03,.14-.29,.33-.54,.58-.74,.25-.2,.56-.34,.92-.46,.36-.11,.85-.16,1.47-.16,.73,0,1.31,.09,1.76,.26,.44,.18,.79,.44,1.03,.8,.25,.35,.37,.79,.37,1.32,0,.71-.22,1.26-.64,1.67-.52,.48-1.36,.73-2.52,.73h0Z"/>
  <polygon points="505.65 43.38 503.95 43.38 503.95 45.38 503.24 45.38 503.24 43.38 501.55 43.38 501.55 42.53 503.24 42.53 503.24 40.54 503.95 40.54 503.95 42.53 505.65 42.53 505.65 43.38"/>
  <polygon points="515.27 43.38 513.57 43.38 513.57 45.38 512.85 45.38 512.85 43.38 511.16 43.38 511.16 42.53 512.85 42.53 512.85 40.54 513.57 40.54 513.57 42.53 515.27 42.53 515.27 43.38"/>
  <path d="M503.6,38.62c1.02,0,1.7-.14,2.03-.42,.34-.29,.5-.63,.5-1.04s-.17-.76-.51-1.04c-.34-.29-1.01-.42-2.03-.42s-1.7,.14-2.03,.42c-.34,.28-.5,.63-.5,1.05s.15,.74,.44,.99c.38,.31,1.07,.46,2.09,.46h0Zm0,.92c-.73,0-1.32-.09-1.77-.27-.45-.18-.79-.44-1.04-.79-.24-.36-.37-.8-.37-1.33,0-.39,.07-.74,.2-1.04,.13-.29,.33-.54,.57-.74,.26-.2,.56-.35,.93-.46,.36-.11,.85-.17,1.46-.17,.73,0,1.31,.09,1.76,.27,.45,.18,.8,.44,1.04,.79,.25,.35,.37,.8,.37,1.33,0,.7-.21,1.26-.64,1.66-.52,.48-1.36,.73-2.52,.73h0Z"/>
  <rect x="505.79" y="32.33" width=".87" height="1.02"/>
  <path d="M503.6,30.1c1.02,0,1.7-.14,2.03-.42,.34-.28,.5-.63,.5-1.04s-.17-.76-.51-1.04c-.34-.28-1.01-.42-2.03-.42s-1.7,.15-2.03,.42c-.34,.28-.5,.63-.5,1.05s.15,.74,.44,.99c.38,.31,1.07,.46,2.09,.46h0Zm0,.92c-.73,0-1.32-.09-1.77-.27-.45-.18-.79-.44-1.04-.79-.24-.35-.37-.8-.37-1.33,0-.39,.07-.73,.2-1.04,.13-.29,.33-.54,.57-.73,.26-.2,.56-.35,.93-.46,.36-.11,.85-.16,1.46-.16,.73,0,1.31,.09,1.76,.26,.45,.18,.8,.45,1.04,.8,.25,.35,.37,.79,.37,1.33,0,.7-.21,1.26-.64,1.67-.52,.48-1.36,.73-2.52,.73h0Z"/>
  <path d="M503.6,24.41c1.02,0,1.7-.14,2.03-.42,.34-.29,.5-.63,.5-1.04s-.17-.76-.51-1.04c-.34-.29-1.01-.42-2.03-.42s-1.7,.14-2.03,.42c-.34,.28-.5,.63-.5,1.05s.15,.74,.44,.99c.38,.3,1.07,.46,2.09,.46h0Zm0,.92c-.73,0-1.32-.09-1.77-.27-.45-.18-.79-.45-1.04-.8-.24-.35-.37-.79-.37-1.33,0-.39,.07-.74,.2-1.04,.13-.29,.33-.54,.57-.74,.26-.19,.56-.34,.93-.46,.36-.11,.85-.16,1.46-.16,.73,0,1.31,.09,1.76,.26,.45,.18,.8,.44,1.04,.8,.25,.35,.37,.79,.37,1.32,0,.71-.21,1.26-.64,1.67-.52,.48-1.36,.73-2.52,.73h0Z"/>
  <path d="M506.66,16.26v.9h-4.85c.17,.22,.35,.5,.52,.85,.18,.35,.31,.67,.39,.95h-.73c-.2-.5-.44-.95-.73-1.32-.29-.38-.56-.64-.83-.8v-.58h6.23Z"/>
  <path d="M513.21,38.62c1.02,0,1.7-.14,2.03-.42,.34-.28,.5-.63,.5-1.04s-.17-.76-.51-1.04c-.34-.29-1.01-.42-2.03-.42s-1.69,.14-2.03,.42c-.34,.28-.5,.63-.5,1.05s.15,.74,.45,.99c.38,.31,1.07,.46,2.09,.46h0Zm0,.92c-.74,0-1.32-.09-1.77-.27-.45-.18-.79-.44-1.04-.79-.24-.36-.36-.8-.36-1.33,0-.39,.07-.74,.2-1.04,.14-.29,.33-.54,.58-.74,.25-.2,.56-.35,.92-.46,.36-.11,.85-.17,1.46-.17,.73,0,1.31,.09,1.76,.27,.44,.18,.79,.44,1.04,.79,.25,.35,.37,.8,.37,1.33,0,.7-.22,1.26-.65,1.66-.52,.48-1.35,.73-2.52,.73h0Z"/>
  <rect x="515.39" y="32.33" width=".87" height="1.02"/>
  <path d="M513.21,30.1c1.02,0,1.7-.14,2.03-.42,.34-.28,.5-.63,.5-1.04s-.17-.76-.51-1.04c-.34-.28-1.01-.42-2.03-.42s-1.69,.15-2.03,.42c-.34,.28-.5,.63-.5,1.05s.15,.74,.45,.99c.38,.31,1.07,.46,2.09,.46h0Zm0,.92c-.74,0-1.32-.09-1.77-.27-.45-.18-.79-.44-1.04-.79-.24-.35-.36-.8-.36-1.33,0-.39,.07-.73,.2-1.04,.14-.29,.33-.54,.58-.73,.25-.2,.56-.35,.92-.46,.36-.11,.85-.16,1.46-.16,.73,0,1.31,.09,1.76,.26,.44,.18,.79,.45,1.04,.8,.25,.35,.37,.79,.37,1.33,0,.7-.22,1.26-.65,1.67-.52,.48-1.35,.73-2.52,.73h0Z"/>
  <path d="M513.21,24.41c1.02,0,1.7-.14,2.03-.42,.34-.28,.5-.63,.5-1.04s-.17-.76-.51-1.04c-.34-.29-1.01-.42-2.03-.42s-1.69,.14-2.03,.42c-.34,.28-.5,.63-.5,1.05s.15,.74,.45,.99c.38,.3,1.07,.46,2.09,.46h0Zm0,.92c-.74,0-1.32-.09-1.77-.27-.45-.18-.79-.45-1.04-.8-.24-.35-.36-.79-.36-1.33,0-.39,.07-.74,.2-1.04,.14-.29,.33-.54,.58-.74,.25-.19,.56-.34,.92-.46,.36-.11,.85-.16,1.46-.16,.73,0,1.31,.09,1.76,.26,.44,.18,.79,.44,1.04,.8,.25,.35,.37,.79,.37,1.32,0,.71-.22,1.26-.65,1.67-.52,.48-1.35,.73-2.52,.73h0Z"/>
  <path d="M513.21,18.73c1.02,0,1.7-.14,2.03-.42,.34-.28,.5-.63,.5-1.04s-.17-.76-.51-1.04c-.34-.28-1.01-.42-2.03-.42s-1.69,.15-2.03,.42c-.34,.28-.5,.63-.5,1.05s.15,.74,.45,.99c.38,.31,1.07,.47,2.09,.47h0Zm0,.92c-.74,0-1.32-.09-1.77-.27-.45-.18-.79-.44-1.04-.79-.24-.35-.36-.8-.36-1.33,0-.39,.07-.73,.2-1.04,.14-.29,.33-.54,.58-.73,.25-.2,.56-.34,.92-.46,.36-.11,.85-.17,1.46-.17,.73,0,1.31,.09,1.76,.26,.44,.18,.79,.44,1.04,.79,.25,.35,.37,.8,.37,1.33,0,.71-.22,1.26-.65,1.66-.52,.48-1.35,.73-2.52,.73h0Z"/>
  <path d="M516.27,10.87h-4.49v-.9h4.49v.9Zm-5.32,0h-.88v-.9h.88v.9Z"/>
  <path d="M516.27,8.6h-4.49v-.81h.64c-.5-.39-.74-.95-.74-1.69,0-.32,.04-.62,.14-.88,.1-.27,.23-.47,.38-.6,.16-.14,.35-.23,.56-.28,.14-.03,.39-.06,.74-.06h2.76v.9h-2.73c-.31,0-.54,.04-.7,.1-.15,.07-.28,.2-.37,.38-.09,.18-.13,.39-.13,.62,0,.38,.1,.71,.31,.99,.2,.28,.59,.42,1.17,.42h2.45v.9h0Z"/>
  <polygon points="517.99 1.41 517.99 3.39 517.36 3.39 517.36 2.31 510.7 2.31 510.7 3.39 510.07 3.39 510.07 1.41 517.99 1.41"/>
  <polygon points="563.17 192.73 555.25 192.73 555.25 190.75 555.88 190.75 555.88 191.83 562.54 191.83 562.54 190.75 563.17 190.75 563.17 192.73"/>
  <path d="M560.72,185.43h.73v4.84c-.18,0-.36-.03-.53-.11-.28-.12-.55-.32-.83-.59-.27-.27-.58-.66-.94-1.18-.56-.8-.99-1.34-1.31-1.61-.32-.28-.63-.42-.91-.42-.3,0-.55,.13-.76,.38-.21,.25-.31,.58-.31,1,0,.44,.11,.78,.33,1.03,.22,.26,.52,.39,.91,.4l-.08,.92c-.59-.06-1.03-.3-1.34-.71-.3-.41-.46-.97-.46-1.66s.17-1.26,.5-1.67c.33-.41,.73-.61,1.22-.61,.25,0,.5,.06,.73,.18,.24,.12,.5,.32,.76,.6,.26,.28,.63,.74,1.09,1.39,.38,.54,.65,.88,.78,1.04,.14,.15,.28,.28,.41,.38v-3.59h.01Z"/>
  <rect x="560.58" y="182.95" width=".87" height="1.02"/>
  <path d="M559.27,178.75h-2.8l2.8,2.29v-2.29Zm2.18,0h-1.49v3.18h-.7l-4.02-3.34v-.73h4.02v-.99h.7v.99h1.49v.9Z"/>
  <path d="M559.67,175.04c.22,0,.42-.06,.63-.18,.2-.12,.36-.3,.47-.54,.11-.24,.16-.5,.16-.77,0-.43-.12-.78-.35-1.07-.23-.28-.53-.42-.89-.42s-.67,.14-.91,.43c-.24,.29-.36,.64-.36,1.08s.12,.77,.35,1.05c.24,.28,.54,.42,.89,.42h0Zm-2.87-.3c.29,0,.54-.11,.72-.34,.19-.23,.28-.51,.28-.87s-.09-.63-.28-.85c-.19-.22-.41-.33-.68-.33s-.51,.11-.7,.34c-.19,.22-.29,.51-.29,.85s.09,.63,.28,.86c.19,.22,.4,.34,.66,.34h0Zm1.29-.18c-.11,.38-.28,.65-.5,.82-.22,.18-.47,.27-.77,.27-.45,0-.83-.19-1.14-.58-.3-.38-.47-.89-.47-1.53s.16-1.16,.47-1.55c.32-.39,.7-.58,1.15-.58,.29,0,.54,.09,.75,.27,.21,.18,.37,.45,.5,.81,.12-.45,.32-.79,.6-1.03,.28-.23,.61-.35,.99-.35,.53,0,.97,.22,1.34,.66,.36,.44,.54,1.03,.54,1.75s-.18,1.3-.54,1.75c-.36,.45-.81,.66-1.36,.66-.41,0-.74-.12-1.01-.36-.27-.24-.46-.59-.55-1.03v.02Z"/>
  <path d="M558.39,169.34c1.02,0,1.7-.14,2.04-.42,.34-.28,.5-.63,.5-1.04s-.17-.76-.51-1.04c-.34-.28-1.01-.42-2.03-.42s-1.7,.14-2.04,.42c-.34,.28-.5,.63-.5,1.05s.15,.74,.44,.99c.38,.31,1.07,.47,2.09,.47h0Zm0,.92c-.73,0-1.32-.09-1.77-.27-.45-.18-.78-.44-1.03-.8-.24-.35-.37-.79-.37-1.33,0-.39,.07-.74,.2-1.03,.14-.29,.33-.54,.58-.74,.25-.2,.56-.34,.92-.46,.36-.11,.85-.16,1.46-.16,.73,0,1.31,.09,1.76,.26,.45,.18,.79,.44,1.04,.8,.25,.35,.37,.79,.37,1.33,0,.7-.22,1.26-.64,1.66-.52,.48-1.36,.73-2.52,.73h0Z"/>
  <path d="M489.84,75.6l-.38,.07h-.38l-.3,.15-.38,.15-.3,.15-.3,.23-.52,.52-.23,.38-.15,.3-.15,.38-.08,.38v1.05l.08,.38,.15,.38,.15,.3,.45,.6,.3,.3,.3,.22,.3,.15,.38,.15,.3,.07,.38,.08,.38,.07,.38-.07,.38-.08,.38-.07,.3-.15,.38-.15,.3-.22,.45-.6,.22-.3,.15-.3,.15-.38,.15-.75v-.38l-.07-.3-.07-.38-.15-.38-.15-.3-.22-.38-.23-.23-.23-.3-.3-.23-.38-.15-.3-.15-.38-.15h-.38l-.38-.07m4.57,5.02l-9.15-3.6" style="fill: none; stroke: #000; stroke-miterlimit: 10; stroke-width: .74px;"/>
  <path d="M491.24,73.08l-.1-.9c.43-.1,.74-.28,.93-.52,.19-.25,.29-.55,.29-.91,0-.42-.13-.78-.38-1.07-.25-.29-.55-.44-.92-.44s-.64,.14-.86,.41c-.23,.27-.34,.62-.34,1.03,0,.17,.03,.38,.09,.63l-.67-.09c0-.06,0-.11,0-.14,0-.38-.08-.73-.26-1.03-.17-.31-.43-.46-.78-.46-.28,0-.51,.11-.69,.34-.18,.23-.28,.51-.28,.86s.09,.64,.28,.88c.19,.24,.46,.38,.84,.45l-.13,.9c-.51-.11-.91-.36-1.19-.75-.28-.39-.42-.88-.42-1.45,0-.4,.07-.76,.21-1.1,.14-.34,.35-.59,.59-.77,.25-.18,.52-.27,.8-.27s.51,.08,.73,.25c.21,.17,.39,.42,.52,.75,.08-.43,.26-.77,.52-1,.27-.24,.6-.36,1-.36,.54,0,1,.23,1.37,.7,.38,.46,.56,1.06,.56,1.77,0,.65-.16,1.18-.49,1.6-.32,.43-.74,.67-1.26,.73h0Z"/>
  <path d="M492.87,64.01v.9h-4.85c.17,.21,.35,.5,.52,.85,.18,.35,.31,.66,.39,.95h-.73c-.2-.5-.44-.95-.73-1.32s-.56-.65-.83-.8v-.58h6.23Z"/>
  <rect x="492" y="60.19" width=".87" height="1.02"/>
  <path d="M491.25,58.88l-.07-.95c.39-.07,.68-.23,.88-.49,.2-.25,.29-.56,.29-.92,0-.43-.14-.8-.41-1.09-.28-.3-.64-.45-1.1-.45s-.78,.14-1.03,.43c-.25,.29-.38,.67-.38,1.13,0,.29,.05,.55,.16,.78,.11,.23,.25,.41,.44,.55l-.09,.84-3.19-.71v-3.64h.73v2.92l1.66,.4c-.26-.44-.39-.9-.39-1.38,0-.64,.19-1.18,.56-1.62,.38-.44,.86-.66,1.45-.66s1.04,.2,1.45,.58c.5,.46,.75,1.11,.75,1.92,0,.67-.16,1.21-.47,1.63-.31,.42-.73,.66-1.25,.72h0Z"/>
  <path d="M489.82,52.27c1.02,0,1.7-.15,2.03-.42,.34-.28,.5-.63,.5-1.04s-.17-.76-.51-1.04c-.34-.28-1.01-.42-2.03-.42s-1.7,.14-2.03,.42c-.34,.28-.5,.63-.5,1.05s.15,.74,.44,.99c.38,.31,1.07,.47,2.09,.47h0Zm0,.92c-.73,0-1.32-.09-1.77-.27-.45-.18-.79-.44-1.04-.8-.24-.35-.37-.79-.37-1.33,0-.39,.07-.73,.2-1.04,.13-.29,.33-.54,.57-.73,.26-.2,.56-.34,.93-.46,.36-.11,.85-.16,1.46-.16,.73,0,1.31,.09,1.76,.26,.45,.18,.8,.44,1.04,.79,.25,.36,.37,.8,.37,1.33,0,.71-.21,1.26-.64,1.67-.52,.48-1.36,.73-2.52,.73h0Z"/>
  <polygon points="482.26 42.52 480.56 42.52 480.56 44.52 479.84 44.52 479.84 42.52 478.16 42.52 478.16 41.68 479.84 41.68 479.84 39.68 480.56 39.68 480.56 41.68 482.26 41.68 482.26 42.52"/>
  <polygon points="491.88 42.52 490.17 42.52 490.17 44.52 489.46 44.52 489.46 42.52 487.77 42.52 487.77 41.68 489.46 41.68 489.46 39.68 490.17 39.68 490.17 41.68 491.88 41.68 491.88 42.52"/>
  <path d="M480.2,37.77c1.02,0,1.7-.14,2.04-.42,.34-.28,.5-.63,.5-1.04s-.17-.76-.51-1.04c-.34-.28-1.01-.42-2.03-.42s-1.7,.15-2.04,.42c-.34,.28-.5,.63-.5,1.05s.15,.74,.44,.99c.38,.31,1.07,.47,2.09,.47h0Zm0,.92c-.73,0-1.32-.09-1.77-.27-.45-.18-.79-.44-1.04-.79-.24-.35-.36-.8-.36-1.33,0-.39,.07-.73,.2-1.04,.14-.29,.33-.54,.58-.73,.25-.2,.56-.35,.92-.46,.36-.11,.85-.17,1.46-.17,.73,0,1.31,.09,1.77,.26,.44,.18,.79,.44,1.04,.79,.25,.35,.37,.8,.37,1.33,0,.7-.22,1.26-.64,1.66-.52,.48-1.36,.73-2.52,.73h0Z"/>
  <rect x="482.39" y="31.49" width=".87" height="1.02"/>
  <path d="M480.2,29.24c1.02,0,1.7-.14,2.04-.42,.34-.28,.5-.63,.5-1.04s-.17-.76-.51-1.04c-.34-.29-1.01-.42-2.03-.42s-1.7,.14-2.04,.42c-.34,.28-.5,.63-.5,1.05s.15,.74,.44,.99c.38,.31,1.07,.46,2.09,.46h0Zm0,.92c-.73,0-1.32-.09-1.77-.27-.45-.18-.79-.44-1.04-.79-.24-.36-.36-.8-.36-1.33,0-.39,.07-.74,.2-1.04,.14-.29,.33-.54,.58-.74,.25-.19,.56-.35,.92-.46,.36-.11,.85-.17,1.46-.17,.73,0,1.31,.09,1.77,.27,.44,.18,.79,.44,1.04,.79,.25,.35,.37,.8,.37,1.33,0,.7-.22,1.26-.64,1.66-.52,.48-1.36,.73-2.52,.73h0Z"/>
  <path d="M481.63,24.48l-.11-.9c.44-.1,.74-.28,.93-.53,.19-.25,.29-.55,.29-.91,0-.42-.12-.78-.38-1.07-.25-.29-.55-.43-.92-.43s-.64,.13-.86,.41c-.22,.27-.34,.61-.34,1.03,0,.17,.03,.38,.08,.63l-.67-.1c0-.06,0-.11,0-.15,0-.38-.08-.73-.25-1.04-.17-.3-.43-.46-.78-.46-.28,0-.51,.11-.69,.34-.18,.22-.28,.51-.28,.86s.09,.64,.28,.88c.19,.24,.46,.38,.84,.45l-.14,.9c-.51-.11-.91-.36-1.18-.75-.28-.39-.42-.88-.42-1.46,0-.4,.07-.77,.22-1.1,.14-.34,.34-.59,.59-.77,.25-.18,.52-.27,.8-.27s.51,.08,.73,.25c.22,.18,.4,.42,.53,.76,.08-.43,.26-.77,.52-1,.26-.23,.6-.36,1-.36,.54,0,1,.23,1.38,.7,.38,.46,.56,1.05,.56,1.77,0,.65-.17,1.18-.49,1.6-.32,.43-.74,.66-1.26,.73h0Z"/>
  <path d="M489.82,37.77c1.02,0,1.7-.14,2.03-.42,.34-.29,.5-.63,.5-1.04s-.17-.76-.51-1.04c-.34-.28-1.01-.42-2.03-.42s-1.7,.15-2.03,.42c-.34,.28-.5,.63-.5,1.05s.15,.74,.44,.99c.38,.31,1.07,.47,2.09,.47h0Zm0,.92c-.73,0-1.32-.09-1.77-.27-.45-.18-.79-.44-1.04-.79-.24-.35-.37-.8-.37-1.33,0-.39,.07-.73,.2-1.04,.13-.29,.33-.54,.57-.73,.26-.2,.56-.35,.93-.46,.36-.11,.85-.17,1.46-.17,.73,0,1.31,.09,1.76,.26,.45,.18,.8,.44,1.04,.79,.25,.35,.37,.8,.37,1.33,0,.7-.21,1.26-.64,1.66-.52,.48-1.36,.73-2.52,.73h0Z"/>
  <rect x="492" y="31.49" width=".87" height="1.02"/>
  <path d="M489.82,29.24c1.02,0,1.7-.14,2.03-.42,.34-.29,.5-.63,.5-1.04s-.17-.76-.51-1.04c-.34-.29-1.01-.42-2.03-.42s-1.7,.14-2.03,.42c-.34,.28-.5,.63-.5,1.05s.15,.74,.44,.99c.38,.31,1.07,.46,2.09,.46h0Zm0,.92c-.73,0-1.32-.09-1.77-.27-.45-.18-.79-.44-1.04-.79-.24-.36-.37-.8-.37-1.33,0-.39,.07-.74,.2-1.04,.13-.29,.33-.54,.57-.74,.26-.19,.56-.35,.93-.46,.36-.11,.85-.17,1.46-.17,.73,0,1.31,.09,1.76,.27,.45,.18,.8,.44,1.04,.79,.25,.35,.37,.8,.37,1.33,0,.7-.21,1.26-.64,1.66-.52,.48-1.36,.73-2.52,.73h0Z"/>
  <path d="M492.87,21.1v.9h-4.85c.17,.22,.35,.5,.52,.85,.18,.36,.31,.67,.39,.95h-.73c-.2-.5-.44-.95-.73-1.32s-.56-.64-.83-.8v-.58h6.23Z"/>
  <path d="M492.87,15.71h-4.49v-.8h.63c-.22-.16-.4-.39-.54-.67-.13-.28-.2-.59-.2-.95,0-.39,.07-.71,.21-.96,.14-.25,.33-.43,.58-.54-.52-.42-.79-.96-.79-1.63,0-.53,.13-.93,.37-1.21,.25-.29,.62-.43,1.14-.43h3.08v.9h-2.82c-.31,0-.53,.03-.66,.09-.14,.06-.24,.16-.32,.31-.08,.15-.12,.33-.12,.54,0,.38,.11,.68,.32,.93,.21,.25,.55,.37,1,.37h2.61v.9h-2.91c-.34,0-.59,.07-.76,.22-.17,.14-.26,.38-.26,.72,0,.25,.06,.49,.17,.7,.11,.21,.28,.37,.5,.46,.22,.1,.54,.14,.94,.14h2.33v.92Z"/>
  <path d="M492.87,7.19h-4.49v-.8h.63c-.22-.16-.4-.39-.54-.67-.13-.28-.2-.59-.2-.94,0-.39,.07-.71,.21-.97,.14-.25,.33-.43,.58-.53-.52-.42-.79-.97-.79-1.63,0-.53,.13-.93,.37-1.22,.25-.28,.62-.43,1.14-.43h3.08V.9h-2.82c-.31,0-.53,.03-.66,.09-.14,.06-.24,.16-.32,.31-.08,.15-.12,.33-.12,.54,0,.38,.11,.68,.32,.93,.21,.25,.55,.37,1,.37h2.61v.9h-2.91c-.34,0-.59,.07-.76,.22-.17,.14-.26,.38-.26,.72,0,.25,.06,.49,.17,.7,.11,.21,.28,.37,.5,.46,.22,.1,.54,.14,.94,.14h2.33v.91Z"/>
  <rect x="558.85" y="159.67" width=".76" height="2.76"/>
  <path d="M548.81,158c1.02,0,1.7-.14,2.03-.42,.34-.28,.5-.63,.5-1.04s-.17-.76-.51-1.04c-.34-.28-1.01-.42-2.03-.42s-1.7,.14-2.04,.42c-.34,.28-.5,.63-.5,1.05s.15,.74,.44,.99c.38,.31,1.07,.47,2.09,.47h0Zm0,.92c-.73,0-1.32-.09-1.77-.27-.45-.18-.8-.45-1.04-.8-.24-.35-.36-.79-.36-1.33,0-.39,.07-.74,.2-1.04,.14-.29,.33-.54,.58-.73,.25-.2,.56-.34,.92-.46,.36-.11,.85-.16,1.47-.16,.73,0,1.31,.09,1.76,.26,.44,.18,.79,.44,1.03,.8,.25,.35,.37,.79,.37,1.32,0,.71-.22,1.26-.64,1.67-.52,.48-1.36,.73-2.52,.73h0Z"/>
  <path d="M558.41,158c1.02,0,1.69-.14,2.03-.42,.34-.28,.5-.63,.5-1.04s-.17-.76-.51-1.04c-.34-.28-1.02-.42-2.03-.42s-1.7,.14-2.03,.42c-.34,.28-.5,.63-.5,1.05s.15,.74,.45,.99c.38,.31,1.07,.47,2.09,.47h0Zm0,.92c-.74,0-1.32-.09-1.77-.27-.45-.18-.79-.45-1.04-.8-.24-.35-.37-.79-.37-1.33,0-.39,.07-.74,.2-1.04,.13-.29,.33-.54,.58-.73,.25-.2,.56-.34,.92-.46,.36-.11,.85-.16,1.46-.16,.73,0,1.31,.09,1.76,.26,.45,.18,.8,.44,1.04,.8,.25,.35,.37,.79,.37,1.32,0,.71-.22,1.26-.65,1.67-.52,.48-1.35,.73-2.52,.73h0Z"/>
  <rect x="560.61" y="151.72" width=".87" height="1.02"/>
  <path d="M558.41,149.48c1.02,0,1.69-.15,2.03-.42,.34-.29,.5-.63,.5-1.04s-.17-.76-.51-1.04c-.34-.29-1.02-.42-2.03-.42s-1.7,.14-2.03,.42c-.34,.28-.5,.63-.5,1.05s.15,.74,.45,.99c.38,.3,1.07,.46,2.09,.46h0Zm0,.92c-.74,0-1.32-.09-1.77-.27-.45-.18-.79-.45-1.04-.8-.24-.35-.37-.79-.37-1.33,0-.39,.07-.73,.2-1.04,.13-.29,.33-.54,.58-.73,.25-.2,.56-.34,.92-.46,.36-.11,.85-.16,1.46-.16,.73,0,1.31,.09,1.76,.26,.45,.18,.8,.44,1.04,.8,.25,.35,.37,.79,.37,1.32,0,.71-.22,1.26-.65,1.67-.52,.48-1.35,.73-2.52,.73h0Z"/>
  <path d="M558.41,143.79c1.02,0,1.69-.14,2.03-.42,.34-.28,.5-.63,.5-1.04s-.17-.76-.51-1.04c-.34-.29-1.02-.42-2.03-.42s-1.7,.14-2.03,.42c-.34,.28-.5,.63-.5,1.05s.15,.74,.45,.99c.38,.31,1.07,.46,2.09,.46h0Zm0,.92c-.74,0-1.32-.09-1.77-.27-.45-.18-.79-.44-1.04-.79-.24-.35-.37-.8-.37-1.33,0-.39,.07-.74,.2-1.04,.13-.29,.33-.54,.58-.74,.25-.2,.56-.34,.92-.46,.36-.11,.85-.17,1.46-.17,.73,0,1.31,.09,1.76,.27,.45,.18,.8,.44,1.04,.79,.25,.35,.37,.8,.37,1.33,0,.71-.22,1.26-.65,1.66-.52,.48-1.35,.73-2.52,.73h0Z"/>
  <path d="M560.74,134.31h.73v4.84c-.18,0-.36-.03-.53-.11-.28-.12-.55-.32-.82-.59-.27-.27-.59-.66-.94-1.18-.55-.8-.99-1.34-1.31-1.61-.32-.28-.63-.42-.91-.42-.3,0-.56,.13-.77,.38-.21,.26-.32,.59-.32,1s.11,.78,.33,1.04c.21,.26,.52,.39,.91,.39l-.08,.93c-.59-.06-1.03-.3-1.34-.71-.31-.41-.46-.96-.46-1.66s.16-1.26,.5-1.66c.33-.41,.73-.62,1.22-.62,.25,0,.49,.06,.73,.18,.24,.12,.5,.32,.76,.6,.26,.28,.63,.74,1.09,1.39,.38,.54,.64,.89,.78,1.04,.14,.15,.28,.28,.41,.38v-3.59h.01Z"/>
  <path d="M561.48,130.25h-4.5v-.9h4.5v.9Zm-5.33,0h-.88v-.9h.88v.9Z"/>
  <path d="M561.48,127.98h-4.5v-.81h.64c-.5-.39-.74-.95-.74-1.69,0-.33,.05-.62,.15-.88,.1-.27,.23-.47,.38-.6,.16-.13,.34-.22,.56-.28,.14-.03,.39-.05,.74-.05h2.76v.9h-2.73c-.31,0-.54,.04-.7,.1-.16,.07-.28,.2-.37,.38-.09,.18-.14,.39-.14,.62,0,.38,.1,.71,.31,.99,.2,.28,.59,.42,1.17,.42h2.45v.9h0Z"/>
  <polygon points="563.19 120.8 563.19 122.77 562.56 122.77 562.56 121.7 555.9 121.7 555.9 122.77 555.27 122.77 555.27 120.8 563.19 120.8"/>
  <path d="M537.27,178.73l-1.12,.22-.3,.15-.38,.15-.52,.52-.45,.6-.15,.3-.15,.38-.08,.38-.07,.38v.38l.07,.3,.08,.38,.15,.38,.15,.3,.23,.38,.23,.23,.3,.3,.23,.22,.38,.15,.3,.15,.38,.15h.38l.38,.07,.38-.07h.38l.3-.15,.38-.15,.3-.15,.3-.22,.53-.53,.22-.38,.15-.3,.15-.38,.08-.38v-1.05l-.08-.38-.15-.38-.15-.3-.22-.3-.23-.3-.3-.3-.3-.23-.3-.15-.38-.15-.3-.07-.75-.15m4.57,5.02l-9.15-3.6" style="fill: none; stroke: #000; stroke-miterlimit: 10; stroke-width: .74px;"/>
  <path d="M538.29,175.24c.26,0,.51-.07,.75-.2,.24-.13,.42-.32,.55-.55,.13-.24,.19-.49,.19-.74,0-.38-.13-.71-.39-.98-.26-.27-.61-.41-1.05-.41s-.77,.13-1.02,.4c-.25,.27-.37,.61-.37,1.02s.12,.75,.37,1.03c.25,.29,.57,.43,.97,.43h0Zm-2.67-3.67l.06,.89c-.3,.09-.52,.2-.65,.34-.22,.24-.32,.54-.32,.9,0,.28,.07,.54,.2,.75,.17,.28,.43,.5,.77,.67,.34,.16,.81,.25,1.43,.25-.28-.21-.49-.48-.62-.79-.13-.32-.2-.64-.2-.98,0-.6,.19-1.11,.56-1.53,.38-.42,.85-.63,1.45-.63,.39,0,.75,.1,1.09,.3,.34,.2,.59,.47,.77,.82,.18,.35,.27,.74,.27,1.18,0,.75-.23,1.36-.7,1.83-.47,.47-1.24,.71-2.31,.71-1.2,0-2.07-.26-2.61-.78-.47-.46-.71-1.07-.71-1.84,0-.58,.13-1.05,.41-1.42,.28-.37,.65-.59,1.13-.66h0Z"/>
  <path d="M538.66,170.54l-.11-.9c.43-.1,.74-.28,.93-.53,.19-.25,.29-.55,.29-.91,0-.42-.13-.78-.38-1.07-.25-.29-.55-.43-.92-.43s-.64,.14-.86,.41c-.22,.27-.34,.61-.34,1.03,0,.17,.03,.38,.08,.63l-.67-.1c0-.06,0-.1,0-.14,0-.38-.08-.73-.25-1.04-.18-.31-.43-.46-.78-.46-.28,0-.51,.11-.69,.34-.18,.22-.28,.51-.28,.86s.09,.64,.28,.88c.19,.24,.47,.38,.84,.45l-.13,.9c-.51-.11-.91-.36-1.19-.75-.28-.39-.42-.88-.42-1.46,0-.39,.07-.76,.22-1.1,.14-.34,.34-.59,.59-.77,.25-.18,.52-.27,.8-.27s.51,.08,.73,.26c.22,.17,.4,.42,.52,.75,.08-.44,.26-.77,.53-1.01,.26-.24,.6-.36,1-.36,.54,0,1,.23,1.37,.7,.38,.47,.56,1.05,.56,1.77,0,.64-.16,1.18-.48,1.6-.32,.43-.75,.67-1.26,.73h0Z"/>
  <rect x="537.67" y="159.36" width=".77" height="2.76"/>
  <path d="M527.63,157.7c1.02,0,1.7-.15,2.03-.42,.34-.28,.5-.63,.5-1.04s-.18-.76-.51-1.04c-.34-.28-1.01-.42-2.03-.42s-1.7,.14-2.03,.42c-.34,.28-.5,.63-.5,1.05s.15,.75,.44,.99c.38,.31,1.07,.47,2.09,.47h0Zm0,.92c-.74,0-1.32-.09-1.77-.27-.45-.18-.78-.44-1.03-.8-.24-.35-.37-.79-.37-1.32,0-.39,.07-.74,.2-1.04,.14-.29,.33-.54,.58-.74,.25-.19,.56-.35,.92-.46,.36-.11,.85-.16,1.46-.16,.73,0,1.31,.09,1.76,.26,.45,.18,.79,.44,1.04,.8,.25,.35,.37,.79,.37,1.33,0,.7-.22,1.26-.65,1.66-.52,.48-1.36,.73-2.52,.73h0Z"/>
  <path d="M537.24,157.7c1.02,0,1.69-.15,2.03-.42,.34-.28,.5-.63,.5-1.04s-.17-.76-.51-1.04c-.34-.28-1.01-.42-2.03-.42s-1.69,.14-2.03,.42c-.34,.28-.5,.63-.5,1.05s.15,.75,.44,.99c.38,.31,1.07,.47,2.09,.47h0Zm0,.92c-.74,0-1.32-.09-1.77-.27-.45-.18-.8-.44-1.04-.8-.24-.35-.36-.79-.36-1.32,0-.39,.07-.74,.2-1.04,.13-.29,.33-.54,.57-.74,.26-.19,.56-.35,.93-.46,.36-.11,.85-.16,1.46-.16,.73,0,1.31,.09,1.76,.26,.45,.18,.8,.44,1.04,.8,.25,.35,.37,.79,.37,1.33,0,.7-.22,1.26-.65,1.66-.52,.48-1.35,.73-2.52,.73h0Z"/>
  <rect x="539.43" y="151.41" width=".87" height="1.02"/>
  <path d="M537.24,149.17c1.02,0,1.69-.14,2.03-.42,.34-.28,.5-.63,.5-1.04s-.17-.76-.51-1.04c-.34-.28-1.01-.42-2.03-.42s-1.69,.14-2.03,.42c-.34,.28-.5,.63-.5,1.05s.15,.75,.44,.99c.38,.31,1.07,.47,2.09,.47h0Zm0,.92c-.74,0-1.32-.09-1.77-.27-.45-.18-.8-.44-1.04-.8-.24-.35-.36-.79-.36-1.32,0-.39,.07-.74,.2-1.04,.13-.29,.33-.54,.57-.74,.26-.19,.56-.34,.93-.46,.36-.11,.85-.16,1.46-.16,.73,0,1.31,.09,1.76,.26,.45,.18,.8,.45,1.04,.8,.25,.35,.37,.79,.37,1.33,0,.7-.22,1.26-.65,1.66-.52,.48-1.35,.73-2.52,.73h0Z"/>
  <path d="M538.11,141.52h-2.8l2.8,2.29v-2.29Zm2.18,0h-1.48v3.18h-.7l-4.02-3.34v-.74h4.02v-.99h.7v.99h1.48v.9Z"/>
  <path d="M540.29,135.63h-4.49v-.8h.63c-.22-.16-.4-.39-.54-.67-.13-.28-.2-.59-.2-.94,0-.39,.07-.71,.21-.97,.14-.25,.33-.42,.58-.53-.52-.42-.78-.97-.78-1.63,0-.53,.12-.93,.37-1.22,.25-.28,.62-.43,1.14-.43h3.09v.89h-2.83c-.31,0-.53,.03-.66,.09-.14,.06-.24,.16-.32,.31-.08,.15-.12,.33-.12,.54,0,.38,.11,.68,.32,.93,.21,.25,.55,.37,1,.37h2.61v.9h-2.92c-.34,0-.59,.07-.76,.22-.16,.14-.26,.38-.26,.72,0,.25,.06,.49,.18,.7,.11,.21,.28,.37,.49,.47,.22,.1,.54,.14,.94,.14h2.33v.91Z"/>
  <path d="M540.29,127.12h-4.49v-.8h.63c-.22-.17-.4-.39-.54-.67-.13-.28-.2-.59-.2-.95,0-.39,.07-.71,.21-.97,.14-.25,.33-.43,.58-.53-.52-.42-.78-.97-.78-1.64,0-.52,.12-.93,.37-1.22,.25-.28,.62-.43,1.14-.43h3.09v.89h-2.83c-.31,0-.53,.03-.66,.09-.14,.06-.24,.17-.32,.32-.08,.15-.12,.33-.12,.54,0,.38,.11,.68,.32,.93,.21,.25,.55,.37,1,.37h2.61v.9h-2.92c-.34,0-.59,.07-.76,.21-.16,.15-.26,.38-.26,.72,0,.25,.06,.49,.18,.69,.11,.21,.28,.37,.49,.46,.22,.1,.54,.14,.94,.14h2.33v.91Z"/>
  <path d="M145.47,110.53l.3-.23,.3-.22h.75l.38,.22,.22,.3,.07,.38v.38l-.07,.38,2.78-7.05-4.73,5.85m15.82-22.73l-.3,.23-.38,.23h-.75l-.3-.23-.23-.3-.15-.38v-.38l.07-.38-2.7,7.05,4.72-5.85m17.1,32.85l.38-.07h.38l.38,.15,.3,.23,.15,.3,.07,.38-.07,.38-.15,.38-.3,.22,5.93-4.65-7.05,2.7m25.12-11.85l-.38,.08h-.45l-.3-.15-.3-.22-.23-.3-.07-.38,.07-.38,.45-.6-5.85,4.73,7.05-2.78" style="fill: none; stroke: #000; stroke-miterlimit: 10; stroke-width: .38px;"/>
  <polyline points="204.23 136.74 203.77 135.31 203.27 133.89 202.73 132.49 202.15 131.1 201.54 129.73 200.88 128.38 200.18 127.04 199.45 125.73 198.68 124.43 197.87 123.16 197.03 121.92 196.15 120.7 195.24 119.5 194.3 118.33 193.32 117.19 192.31 116.07 191.27 114.99 190.2 113.93 189.1 112.9 187.97 111.91 186.81 110.95 185.63 110.02 184.42 109.12 183.19 108.26 181.93 107.44 180.65 106.64 179.35 105.89 178.02 105.18 176.68 104.5 175.32 103.86 173.94 103.26 172.55 102.7 171.14 102.17 169.71 101.69 168.27 101.25 166.82 100.85 165.36 100.49 163.89 100.18 162.41 99.9 160.93 99.67 159.44 99.47 157.94 99.32 156.44 99.22 154.94 99.15 153.43 99.14 151.92 99.15 150.42 99.22 148.92 99.32 147.42 99.46 145.94 99.66 144.45 99.89 142.97 100.16 141.5 100.49 140.04 100.84 138.59 101.24 137.15 101.68 135.72 102.16 134.31 102.68 132.92 103.24 131.54 103.84 130.17 104.48 128.83 105.16 127.51 105.87 126.2 106.62 124.92 107.41 123.66 108.24 122.43 109.09 121.22 109.99 120.03 110.91 118.88 111.88 117.75 112.87 116.65 113.89 115.58 114.95 114.54 116.03 113.52 117.15 112.55 118.29 111.6 119.46 110.69 120.66 109.81 121.88 108.97 123.12 108.16 124.39 107.39 125.68 106.65 127 105.95 128.33 105.3 129.68 104.68 131.05 104.09 132.44 103.55 133.84 103.05 135.26 102.59 136.7 102.18 138.14 101.79 139.59 101.45 141.06 101.16 142.53 100.9 144.02 100.69 145.51 100.52 147 100.39 148.5 100.31 150 100.26 151.51 100.26 153.01 100.3 154.52 100.39 156.02 100.51 157.52 100.68 159.01 100.89 160.5 101.15 161.98 101.44 163.46 101.78 164.92 102.16 166.37 102.58 167.82 103.04 169.25 103.54 170.67 104.08 172.07 104.66 173.46 105.28 174.83 105.93 176.19 106.63 177.52 107.36 178.84 108.13 180.13 108.94 181.39 109.78 182.64 110.66 183.86 111.57 185.06 112.51 186.23 113.49 187.38 114.5 188.49 115.54 189.58 116.61 190.64 117.71 191.66 118.84 192.65 120 193.62 121.18 194.55 122.39 195.44 123.63 196.3 124.88 197.13 126.16 197.92 127.46 198.67 128.79 199.39 130.13 200.06 131.49 200.7 132.87 201.3 134.27 201.86 135.68 202.39 137.1 202.87 138.54 203.31 139.99 203.71 141.45 204.07 142.92 204.38 144.4 204.66 145.89 204.89 147.38 205.09 148.87 205.24 150.37 205.34 151.88 205.41 153.38 205.43 154.89 205.41 156.39 205.35 157.89 205.24 159.39 205.09 160.88 204.9 162.36 204.67 163.84 204.4 165.31 204.08 166.77 203.72 168.23 203.32 169.66 202.88 171.09 202.4 172.5 201.89 173.9 201.32 175.28 200.72 176.64 200.09 177.98 199.41 179.3 198.69 180.61 197.94 181.89 197.15 183.14 196.33 184.38 195.47 185.59 194.58 186.77 193.65 187.93 192.69 189.06 191.69 190.16 190.67 191.24 189.61 192.28 188.53 193.29 187.42 194.27 186.27 195.21 185.1 196.12 183.91 197 182.68 197.84 181.44 198.65 180.17 199.42 178.87 200.16 177.56 200.85 176.23 201.51 174.88 202.14 173.51 202.71 172.12 203.25 170.71 203.75 169.3 204.22 167.86 204.64 166.43 205.02 164.97 205.36 163.5 205.65 162.03 205.91 160.55 206.12 159.06 206.29 157.56 206.42 156.06 206.51 154.56 206.55 153.06 206.55 151.55 206.51 150.05 206.43 148.55 206.3 147.05 206.13 145.55 205.91 144.07 205.66 142.58 205.37 141.11 205.03 139.64 204.66 138.19 204.23 136.74" style="fill: none; stroke: #000; stroke-dasharray: 0 0 0 0 64.8 2.7 2.7 2.7; stroke-dashoffset: 11.23px; stroke-miterlimit: 10; stroke-width: .38px;"/>
  <path d="M205.25,183.58l-.22-.3-.23-.3-.07-.38,.07-.38,.23-.3,.3-.22,.3-.15h.38l.45,.08-7.05-2.78,5.85,4.73m-103.8-62.55l.3,.3,.15,.3,.07,.38-.07,.38-.15,.38-.3,.22-.38,.15h-.38l-.38-.15,7.05,2.78-5.92-4.73" style="fill: none; stroke: #000; stroke-miterlimit: 10; stroke-width: .38px;"/>
  <path d="M146,52.1l.38-.15,.3-.23,.23-.3,.15-.38-.07-.38-.15-.3-.23-.3-.3-.15-.38-.15,7.43,.9-7.35,1.43m-59.85,22.43l-.15,.38-.15,.3v.38l.15,.38,.3,.3,.3,.15,.38,.07,.38-.07,.38-.23-6.23,4.28,4.65-5.93m67.2-23.85h-2.1l-2.1,.08-2.1,.07-2.1,.15-2.03,.23-2.1,.22-4.2,.6-2.02,.38-2.1,.45-2.02,.45-2.02,.45-2.03,.52-2.02,.6-2.03,.6-2.02,.68-3.9,1.5-1.95,.75-1.95,.82-1.95,.9-3.75,1.8-1.88,.98-3.6,2.1-1.8,1.05-1.8,1.2-1.73,1.12-1.72,1.2-1.73,1.27-1.65,1.28-1.65,1.27-1.65,1.35-1.57,1.35-1.58,1.43-1.5,1.43-1.5,1.5" style="fill: none; stroke: #000; stroke-miterlimit: 10; stroke-width: .38px;"/>
  <path d="M114.12,196.03l.53,.15,.52,.08h1.05l.52-.08,.53-.07,.45-.15,.52-.15,.45-.22,.45-.3,.45-.23,1.12-1.12,.3-.38,.3-.45,.22-.45,.23-.52,.15-.45,.15-.52,.07-.52v-1.58l-.15-.52-.07-.45-.22-.53-.45-.9-.3-.45-.3-.45-.75-.75-.38-.3-.45-.3-.45-.23-.52-.22-.45-.15-.53-.15-1.05-.15h-.53l-.52,.07-.45,.07-.53,.07-.52,.23-.45,.15-.45,.3-.45,.23-.45,.38-.38,.3-.38,.38-.3,.45-.3,.38-.22,.45-.23,.52-.22,.45-.15,.53-.07,.52-.07,.53v.52l.07,.52,.07,.45,.07,.52m79.65,4.5l.52,.15,.53,.08h1.05l.53-.08,.52-.07,.45-.15,.53-.15,.45-.22,.45-.3,.45-.23,.38-.38,.45-.38,.3-.38,.3-.38,.3-.45,.23-.45,.22-.52,.15-.45,.15-.52,.07-.52v-1.58l-.07-.52-.15-.45-.15-.53-.22-.45-.3-.45-.23-.45-.38-.45-.3-.38-.45-.38-.38-.3-.45-.3-.45-.23-.45-.22-.53-.15-.52-.15-.45-.07-.53-.07h-.52l-.53,.07-1.05,.15-.53,.23-.45,.15-.45,.3-.45,.23-.45,.38-.38,.3-.38,.38-.3,.45-.3,.38-.23,.45-.22,.52-.23,.45-.07,.53-.15,.52v.53l-.07,.52,.07,.52,.08,.45,.07,.52M114.12,120.88l.53,.15,.52,.07h1.05l.52-.07,.53-.07,.45-.15,.52-.15,.45-.23,.45-.3,.45-.3,.38-.3,.75-.75,.3-.45,.3-.38,.22-.53,.23-.45,.15-.52,.15-.45,.07-.53v-1.57l-.15-.52-.07-.53-.22-.45-.23-.52-.23-.45-.3-.38-.3-.45-.75-.75-.38-.3-.45-.3-.45-.23-.52-.23-.45-.15-.53-.15-.52-.08-.52-.07h-.53l-.52,.07-.45,.08-.53,.07-.52,.15-.45,.23-.45,.22-.9,.6-.75,.75-.3,.38-.3,.45-.22,.45-.23,.53-.22,.45-.15,.52-.07,.53-.07,.52v.45l.07,.53,.07,.52,.07,.53m79.65,4.5l.52,.15,.53,.07h1.05l.53-.07,.52-.07,.45-.15,.53-.15,.45-.23,.45-.3,.45-.3,.38-.3,.45-.38,.3-.38,.3-.45,.3-.38,.23-.53,.22-.45,.15-.52,.15-.45,.07-.53v-1.57l-.07-.52-.15-.53-.15-.45-.22-.52-.3-.45-.23-.38-.38-.45-.3-.38-.45-.38-.38-.3-.45-.3-.9-.45-.53-.15-.52-.15-.45-.08-.53-.07h-.52l-.53,.07-.52,.08-.52,.07-.53,.15-.45,.23-.45,.22-.45,.3-.45,.3-.75,.75-.3,.38-.3,.45-.23,.45-.22,.53-.23,.45-.07,.52-.15,.53v.52l-.07,.45,.07,.53,.08,.52,.07,.53" style="fill: none; stroke: #000; stroke-miterlimit: 10; stroke-width: .38px;"/>
  <path d="M442.92,276.35l.38-.07,.38-.23,.23-.3,.15-.38v-.38l-.15-.3-.23-.3-.38-.23-.38-.07,7.5,1.12-7.5,1.12m-90.3-2.25l-.38,.07-.38,.23-.22,.3-.15,.3v.38l.15,.38,.22,.3,.38,.23,.38,.07-7.42-1.12,7.42-1.12" style="fill: none; stroke: #000; stroke-miterlimit: 10; stroke-width: .38px;"/>
  <path d="M153.35,92.75l-.52,.07-.53,.07-.52,.07-.45,.15-.53,.22-.45,.23-.45,.22-.45,.3-1.12,1.12-.3,.45-.23,.45-.3,.45-.15,.52-.15,.53-.15,.52v.45l-.07,.6m6.38,6.38l.52-.07,.53-.08,.52-.07,.53-.15,.45-.23,.52-.22,.45-.23,.45-.3,.75-.75,.3-.38,.38-.45,.45-.9,.22-.53,.15-.52,.07-.45,.07-.53v-.52" style="fill: none; stroke: #000; stroke-miterlimit: 10; stroke-width: .38px;"/>
  <path d="M542.3,211.85l.07,.38,.23,.3,.3,.23,.38,.15h.38l.3-.15,.3-.23,.23-.3,.08-.38-1.12,7.43-1.12-7.43m2.25-119.1l-.08-.3-.23-.38-.3-.23-.3-.15h-.38l-.38,.15-.3,.23-.23,.38-.07,.3,1.12-7.43,1.12,7.43" style="fill: none; stroke: #000; stroke-miterlimit: 10; stroke-width: .38px;"/>
  <path d="M325.02,73.63l-.07-.38-.23-.3-.3-.23-.3-.15h-.38l-.38,.15-.3,.23-.23,.3-.07,.38,1.12-7.43,1.12,7.43m-2.25,157.35l.07,.38,.23,.3,.3,.3,.38,.07h.38l.3-.07,.3-.3,.23-.3,.07-.38-1.12,7.43-1.12-7.43m173.25-119.62l.15,.38,.15,.38,.3,.23,.38,.15h.38l.38-.15,.23-.23,.23-.38,.15-.38-1.2,7.5-1.12-7.5m2.32,81.9l-.15-.38-.45-.6-.38-.07h-.38l-.38,.07-.3,.3-.15,.3-.15,.38,1.12-7.43,1.2,7.43" style="fill: none; stroke: #000; stroke-miterlimit: 10; stroke-width: .38px;"/>
  <path d="M429.12,251.75l.38-.08,.38-.22,.23-.3,.15-.38v-.38l-.15-.3-.23-.3-.38-.22-.38-.07,7.43,1.12-7.43,1.12m28.73-2.25l-.38,.07-.3,.22-.3,.3-.07,.3v.38l.07,.38,.3,.3,.3,.22,.38,.08-7.43-1.12,7.43-1.12" style="fill: none; stroke: #000; stroke-miterlimit: 10; stroke-width: .38px;"/>
  <line x1="340.95" y1="152.28" x2="454.68" y2="152.28" style="fill: none; stroke: #000; stroke-dasharray: 0 0 0 0 64.8 2.7 2.7 2.7; stroke-dashoffset: 11.98px; stroke-miterlimit: 10; stroke-width: .38px;"/>
  <line x1="153.41" y1="152.28" x2="115.82" y2="114.7" style="fill: none; stroke: #000; stroke-dasharray: 0 0 0 0 64.8 2.7 2.7 2.7; stroke-dashoffset: 42.28px; stroke-miterlimit: 10; stroke-width: .38px;"/>
  <line x1="153.41" y1="141.65" x2="153.41" y2="60.86" style="fill: none; stroke: #000; stroke-dasharray: 0 0 0 0 64.8 2.7 2.7 2.7; stroke-dashoffset: 28.45px; stroke-miterlimit: 10; stroke-width: .38px;"/>
  <line x1="142.77" y1="152.28" x2="61.99" y2="152.28" style="fill: none; stroke: #000; stroke-dasharray: 0 0 0 0 64.8 2.7 2.7 2.7; stroke-dashoffset: 28.45px; stroke-miterlimit: 10; stroke-width: .38px;"/>
  <line x1="153.41" y1="162.91" x2="153.41" y2="243.7" style="fill: none; stroke: #000; stroke-dasharray: 0 0 0 0 64.8 2.7 2.7 2.7; stroke-dashoffset: 28.45px; stroke-miterlimit: 10; stroke-width: .38px;"/>
  <line x1="164.04" y1="152.28" x2="244.82" y2="152.28" style="fill: none; stroke: #000; stroke-dasharray: 0 0 0 0 64.8 2.7 2.7 2.7; stroke-dashoffset: 28.45px; stroke-miterlimit: 10; stroke-width: .38px;"/>
  <line x1="115.82" y1="184.55" x2="115.82" y2="179.23" style="fill: none; stroke: #000; stroke-dasharray: 0 0 0 0 64.8 2.7 2.7 2.7; stroke-miterlimit: 10; stroke-width: .38px;"/>
  <line x1="110.51" y1="189.86" x2="105.19" y2="189.86" style="fill: none; stroke: #000; stroke-dasharray: 0 0 0 0 64.8 2.7 2.7 2.7; stroke-miterlimit: 10; stroke-width: .38px;"/>
  <line x1="115.82" y1="195.18" x2="115.82" y2="200.49" style="fill: none; stroke: #000; stroke-dasharray: 0 0 0 0 64.8 2.7 2.7 2.7; stroke-miterlimit: 10; stroke-width: .38px;"/>
  <line x1="121.14" y1="189.86" x2="126.45" y2="189.86" style="fill: none; stroke: #000; stroke-dasharray: 0 0 0 0 64.8 2.7 2.7 2.7; stroke-miterlimit: 10; stroke-width: .38px;"/>
  <line x1="190.99" y1="184.55" x2="190.99" y2="179.23" style="fill: none; stroke: #000; stroke-dasharray: 0 0 0 0 64.8 2.7 2.7 2.7; stroke-miterlimit: 10; stroke-width: .38px;"/>
  <line x1="185.67" y1="189.86" x2="180.36" y2="189.86" style="fill: none; stroke: #000; stroke-dasharray: 0 0 0 0 64.8 2.7 2.7 2.7; stroke-miterlimit: 10; stroke-width: .38px;"/>
  <line x1="190.99" y1="195.18" x2="190.99" y2="200.49" style="fill: none; stroke: #000; stroke-dasharray: 0 0 0 0 64.8 2.7 2.7 2.7; stroke-miterlimit: 10; stroke-width: .38px;"/>
  <line x1="196.3" y1="189.86" x2="201.62" y2="189.86" style="fill: none; stroke: #000; stroke-dasharray: 0 0 0 0 64.8 2.7 2.7 2.7; stroke-miterlimit: 10; stroke-width: .38px;"/>
  <line x1="115.82" y1="109.38" x2="115.82" y2="104.07" style="fill: none; stroke: #000; stroke-dasharray: 0 0 0 0 64.8 2.7 2.7 2.7; stroke-miterlimit: 10; stroke-width: .38px;"/>
  <line x1="110.51" y1="114.7" x2="105.19" y2="114.7" style="fill: none; stroke: #000; stroke-dasharray: 0 0 0 0 64.8 2.7 2.7 2.7; stroke-miterlimit: 10; stroke-width: .38px;"/>
  <line x1="115.82" y1="120.02" x2="115.82" y2="125.32" style="fill: none; stroke: #000; stroke-dasharray: 0 0 0 0 64.8 2.7 2.7 2.7; stroke-miterlimit: 10; stroke-width: .38px;"/>
  <line x1="121.14" y1="114.7" x2="126.45" y2="114.7" style="fill: none; stroke: #000; stroke-dasharray: 0 0 0 0 64.8 2.7 2.7 2.7; stroke-miterlimit: 10; stroke-width: .38px;"/>
  <line x1="190.99" y1="109.38" x2="190.99" y2="104.07" style="fill: none; stroke: #000; stroke-dasharray: 0 0 0 0 64.8 2.7 2.7 2.7; stroke-miterlimit: 10; stroke-width: .38px;"/>
  <line x1="185.67" y1="114.7" x2="180.36" y2="114.7" style="fill: none; stroke: #000; stroke-dasharray: 0 0 0 0 64.8 2.7 2.7 2.7; stroke-miterlimit: 10; stroke-width: .38px;"/>
  <line x1="190.99" y1="120.02" x2="190.99" y2="125.32" style="fill: none; stroke: #000; stroke-dasharray: 0 0 0 0 64.8 2.7 2.7 2.7; stroke-miterlimit: 10; stroke-width: .38px;"/>
  <line x1="196.3" y1="114.7" x2="201.62" y2="114.7" style="fill: none; stroke: #000; stroke-dasharray: 0 0 0 0 64.8 2.7 2.7 2.7; stroke-miterlimit: 10; stroke-width: .38px;"/>
  <path d="M150.2,104.68l-7.2,12.38m13.58-23.4l20.17-34.95m-26.55,45.97l6.38-11.02m20.17-34.95h131.47m-122.77,59.25l-12.38,7.12m23.4-13.5l30.9-17.85m-41.92,24.23l11.02-6.38m30.9-17.85h75.23" style="fill: none; stroke: #000; stroke-linecap: round; stroke-linejoin: round; stroke-width: .38px;"/>
  <path d="M70.47,110.83h-27.38m156.3,68.02l12.38,7.2m-104.4-60.3l-25.88-14.93m117.9,68.02l-92.03-53.1m-25.88-14.93H.19" style="fill: none; stroke: #000; stroke-linecap: round; stroke-linejoin: round; stroke-width: .38px;"/>
  <path d="M153.35,60.88v-14.48m-37.57,68.32l-37.28-37.27" style="fill: none; stroke: #000; stroke-linecap: round; stroke-linejoin: round; stroke-width: .38px;"/>
  <path d="M450.42,215.3v64.2m-105.22-41.1v41.1m105.22-4.28h-105.22" style="fill: none; stroke: #000; stroke-linecap: round; stroke-linejoin: round; stroke-width: .38px;"/>
  <path d="M153.35,152.3v-5.32m0,5.32h-5.32m5.32,0v5.33m0-5.33h5.32m-42.9,37.58v-5.33m0,5.33h-5.32m5.32,0v5.32m0-5.32h5.32m69.83,0v-5.33m0,5.33h-5.25m5.25,0v5.32m0-5.32h5.32M115.77,114.73v-5.32m0,5.32h-5.32m5.32,0v5.32m0-5.32h5.32m69.83,0v-5.32m0,5.32h-5.25m5.25,0v5.32m0-5.32h5.32" style="fill: none; stroke: #000; stroke-linecap: round; stroke-linejoin: round; stroke-width: .38px;"/>
  <path d="M448.25,219.28h99.45m-99.45-133.95h99.45m-4.28,133.95V85.33" style="fill: none; stroke: #000; stroke-linecap: round; stroke-linejoin: round; stroke-width: .38px;"/>
  <path d="M345.2,66.2h-25.58m25.58,172.2h-25.58m4.28-172.2V238.4m124.35-119.55h53.18m-53.18,66.98h53.18m-4.27-66.98V.74m0,118.11v66.98m0,0v14.25" style="fill: none; stroke: #000; stroke-linecap: round; stroke-linejoin: round; stroke-width: .38px;"/>
  <path d="M436.55,215.3v39.6m13.88-39.6v39.6m-13.88-4.27h-14.25m14.25,0h13.88m0,0h52.03" style="fill: none; stroke: #000; stroke-linecap: round; stroke-linejoin: round; stroke-width: .38px;"/>
  <path d="M145.47,110.53l.3-.23,.3-.22h.75l.38,.22,.22,.3,.07,.38v.38l-.07,.38,2.78-7.05-4.73,5.85m15.82-22.73l-.3,.23-.38,.23h-.75l-.3-.23-.23-.3-.15-.38v-.38l.07-.38-2.7,7.05,4.72-5.85m17.1,32.85l.38-.07h.38l.38,.15,.3,.23,.15,.3,.07,.38-.07,.38-.15,.38-.3,.22,5.93-4.65-7.05,2.7m25.12-11.85l-.38,.08h-.45l-.3-.15-.3-.22-.23-.3-.07-.38,.07-.38,.45-.6-5.85,4.73,7.05-2.78"/>
  <path d="M205.25,183.58l-.22-.3-.23-.3-.07-.38,.07-.38,.23-.3,.3-.22,.3-.15h.38l.45,.08-7.05-2.78,5.85,4.73m-103.8-62.55l.3,.3,.15,.3,.07,.38-.07,.38-.15,.38-.3,.22-.38,.15h-.38l-.38-.15,7.05,2.78-5.92-4.73"/>
  <path d="M146,52.1l.38-.15,.3-.23,.23-.3,.15-.38-.07-.38-.15-.3-.23-.3-.3-.15-.38-.15,7.43,.9-7.35,1.43m-59.85,22.43l-.15,.38-.15,.3v.38l.15,.38,.3,.3,.3,.15,.38,.07,.38-.07,.38-.23-6.23,4.28,4.65-5.93"/>
  <path d="M442.92,276.35l.38-.07,.38-.23,.23-.3,.15-.38v-.38l-.15-.3-.23-.3-.38-.23-.38-.07,7.5,1.12-7.5,1.12m-90.3-2.25l-.38,.07-.38,.23-.22,.3-.15,.3v.38l.15,.38,.22,.3,.38,.23,.38,.07-7.42-1.12,7.42-1.12"/>
  <path d="M146.97,99.2l.07,.52v.53l.15,.45,.15,.52,.15,.53,.3,.45,.23,.45,.3,.45,1.12,1.12,.45,.3,.45,.23,.45,.22,.53,.23,.45,.15,.52,.07,.53,.08,.52,.07v-6.38m6.38,0v-.6l-.07-.45-.07-.52-.15-.53-.22-.52-.23-.45-.23-.45-.38-.45-.3-.38-.75-.75-.45-.3-.45-.22-.52-.23-.45-.22-.53-.15-.52-.07-.53-.07-.52-.07v6.45"/>
  <path d="M542.3,211.85l.07,.38,.23,.3,.3,.23,.38,.15h.38l.3-.15,.3-.23,.23-.3,.08-.38-1.12,7.43-1.12-7.43m2.25-119.1l-.08-.3-.23-.38-.3-.23-.3-.15h-.38l-.38,.15-.3,.23-.23,.38-.07,.3,1.12-7.43,1.12,7.43"/>
  <path d="M325.02,73.63l-.07-.38-.23-.3-.3-.23-.3-.15h-.38l-.38,.15-.3,.23-.23,.3-.07,.38,1.12-7.43,1.12,7.43m-2.25,157.35l.07,.38,.23,.3,.3,.3,.38,.07h.38l.3-.07,.3-.3,.23-.3,.07-.38-1.12,7.43-1.12-7.43m173.25-119.62l.15,.38,.15,.38,.3,.23,.38,.15h.38l.38-.15,.23-.23,.23-.38,.15-.38-1.2,7.5-1.12-7.5m2.32,81.9l-.15-.38-.45-.6-.38-.07h-.38l-.38,.07-.3,.3-.15,.3-.15,.38,1.12-7.43,1.2,7.43"/>
  <path d="M429.12,251.75l.38-.08,.38-.22,.23-.3,.15-.38v-.38l-.15-.3-.23-.3-.38-.22-.38-.07,7.43,1.12-7.43,1.12m28.73-2.25l-.38,.07-.3,.22-.3,.3-.07,.3v.38l.07,.38,.3,.3,.3,.22,.38,.08-7.43-1.12,7.43-1.12"/>
  <path d="M260.3,69.99h7.35m-3.68,0v7.28m-2.7-4.35l2.7,4.35m2.77-4.35l-2.77,4.35" style="fill: none; stroke: #000; stroke-miterlimit: 10; stroke-width: .74px;"/>
  <path d="M271,73.28c0,1.02,.14,1.69,.42,2.04,.29,.34,.63,.5,1.04,.5s.76-.17,1.04-.51c.29-.34,.42-1.01,.42-2.03s-.14-1.69-.42-2.03c-.28-.34-.63-.5-1.05-.5s-.74,.15-.99,.44c-.31,.38-.46,1.07-.46,2.09h0Zm-.92,0c0-.74,.09-1.32,.27-1.77,.18-.45,.44-.79,.79-1.04,.36-.24,.8-.36,1.33-.36,.39,0,.73,.07,1.04,.2,.29,.14,.54,.33,.73,.58,.2,.25,.35,.56,.46,.92,.11,.36,.16,.85,.16,1.46,0,.73-.09,1.31-.26,1.76-.18,.45-.45,.79-.8,1.04-.35,.25-.79,.37-1.33,.37-.7,0-1.26-.22-1.66-.65-.48-.51-.72-1.35-.72-2.52h-.02Z"/>
  <rect x="276.27" y="75.46" width="1.02" height=".87"/>
  <path d="M278.61,74.7l.9-.11c.11,.44,.28,.74,.53,.93,.25,.19,.55,.28,.91,.28,.42,0,.78-.12,1.07-.38,.29-.25,.44-.55,.44-.92s-.14-.64-.41-.86c-.27-.22-.61-.34-1.03-.34-.17,0-.38,.03-.63,.08l.1-.67c.06,0,.11,0,.14,0,.38,0,.73-.08,1.04-.25,.31-.17,.46-.43,.46-.78,0-.28-.11-.51-.34-.69-.23-.18-.51-.28-.86-.28s-.64,.09-.88,.28c-.24,.19-.38,.46-.45,.84l-.9-.14c.11-.51,.36-.91,.75-1.18,.39-.28,.88-.42,1.45-.42,.4,0,.77,.07,1.11,.22,.34,.14,.59,.34,.77,.59,.18,.25,.27,.52,.27,.8s-.08,.51-.25,.73c-.17,.22-.42,.4-.76,.53,.44,.08,.77,.26,1.01,.52,.24,.26,.36,.6,.36,1,0,.54-.23,1-.7,1.38s-1.06,.56-1.77,.56c-.64,0-1.18-.17-1.6-.49-.43-.32-.67-.74-.73-1.26h0Z"/>
  <path d="M288.11,72.16c0-.43-.13-.78-.41-1.04-.28-.26-.61-.38-.99-.38s-.75,.14-1.04,.41c-.3,.28-.45,.64-.45,1.07,0,.39,.14,.71,.42,.96,.29,.25,.63,.37,1.04,.37s.76-.12,1.03-.37c.27-.25,.4-.58,.4-1.03h0Zm-3.68,2.75l.86-.07c.07,.34,.21,.59,.42,.75,.21,.16,.47,.23,.8,.23,.28,0,.52-.05,.73-.16,.21-.1,.38-.25,.51-.42,.14-.18,.25-.42,.34-.73,.09-.3,.13-.61,.13-.93v-.15c-.18,.24-.43,.44-.73,.59-.31,.15-.64,.22-1.01,.22-.61,0-1.12-.19-1.54-.56-.42-.38-.63-.86-.63-1.47s.22-1.13,.66-1.52c.43-.38,.98-.58,1.64-.58,.47,0,.91,.11,1.3,.32,.39,.21,.7,.52,.9,.93,.2,.4,.31,.98,.31,1.75s-.1,1.43-.31,1.89c-.2,.47-.5,.82-.91,1.07-.41,.25-.87,.37-1.41,.37-.57,0-1.04-.14-1.4-.41-.36-.27-.58-.64-.65-1.13h0Z"/>
  <path d="M292.86,74.15v-2.8l-2.29,2.8h2.29Zm0,2.18v-1.48h-3.17v-.7l3.34-4.02h.73v4.02h.99v.7h-.99v1.48h-.9Z"/>
  <path d="M298.76,76.34v-4.49h.9v4.49h-.9Zm0-5.32v-.88h.9v.88h-.9Z"/>
  <path d="M301.02,76.34v-4.49h.81v.64c.39-.5,.95-.74,1.69-.74,.32,0,.62,.04,.88,.14,.27,.1,.46,.23,.6,.38,.14,.16,.23,.35,.28,.56,.03,.14,.05,.39,.05,.74v2.76h-.9v-2.73c0-.31-.04-.54-.1-.7-.07-.15-.2-.28-.38-.37-.18-.09-.39-.13-.62-.13-.38,0-.71,.1-.99,.31-.28,.2-.42,.59-.42,1.17v2.45h-.89Z"/>
  <polygon points="308.21 78.06 306.23 78.06 306.23 77.43 307.31 77.43 307.31 70.77 306.23 70.77 306.23 70.14 308.21 70.14 308.21 78.06"/>
</svg>