<?xml version="1.0" encoding="UTF-8"?>
<svg id="_图层_1" data-name="图层 1" xmlns="http://www.w3.org/2000/svg" viewBox="0 0 557.11 180.62">
  <path d="M446.7,65.8v.5m35.9,0h1.6m-2.7,0h.8m-35.6-57.8v.5m37.5-.5h0m-172.6,40.2l-5.7-2.8-6-2.6-4.2-1.4-3.7-.8M363.7,8h0v3.9m-87.4,32.6l-2.4,2.6-2.2,2.9-1.7,2.3m4-5.6l-2.3,3.1-.1,.1m2.4-3.2l-.4-.2-.2-.1m-11.5-32.6l.2-.5,.4-.8m13.2,30.6l-.6-.2-.4-.2m4.7-13.3l-.3,.1-.8,.1-.7,.2-.8,.2-1.1,.2-.9,.3m-3.9-8.8l.7-.5,.9-.6,.7-.5,.5-.4,.7-.5,.3-.2m-23.7-8.1h.1l3.1-.1h12.2m-13.5,.2h4.8l5.6,.1m-54.1,40h-.1l-.2-.3m19.9-39.1l2.1,1.1m-16,33.9l1.8-1,1.8-.6,1.5-.3m1.1,.3h.1l1.3,.8m-8-.7l1.6-.5,1.4-.2m15.2,10.4h0m-2.5-42.1l.2,.1,.6-.1m-2.2-1.1v.2l.1,.2,.1,.3,.4,.2m-91.8,24.3v21.3m0-43.7v20.6m-51.2-18.5l.3,.9m0,37.8l-.3,.8M117.1,15.8v-.1m0,41.4h0v-.2M1.7,53.7h0v-5.1m0,0V19.1m.5-.6h0v30.5m0,0v5.2m2.6,0h0v-5.2m0,0V18.5m.5-.5h0v31.4m0,0v1.3l.1,1.1v3M555.4,12.8V.5m-8,12.3V.5m0,73.7v-12.3m8,12.3v-12.3m-62.4-53.1h0v57.2m62.4-49.4v-3.8m-8,3.8v-3.8m0,0h8m-8,45.4v-20.8m8,20.8V16.6m0,0h-8m0,20.8V16.6m0,45.3v-3.7m8,3.7v-3.7m0,0h-8m0,3.7h8m-50.8-53.4h1.8m0,57.8h-.9m0,0h-.9m-11.3-57.8h0v57.8m-54.5-.2h1.9l.4-.1h.9l.4-.1,1-.1m3.2-56.5l-.8-.1-.8-.1-.9-.1-.8-.1-1.6-.1-.8-.1-1.7-.1h-.6m-4.6,57.7h.9l3.3,.1,3.3-.1,1.8-.2m3.4-57.1l-.9-.1-3.3-.3-3.3-.2-1.7-.1-3.2,.2m31.3,53.8V12.5m27.1-4v57.8m-11.5,0h-1.3m-.2-57.8h1.7m.1,0h-1.9m-3.3,0v14.9m3.5,42.9h1.5m2.9-28.9v-.7m0,1.4v-.7m-12-18.5V55.9m-28.8,9.9l1-.1,3.8-.5,3.9-.5,2-.3,1.9-.3,1-.1,.5-.1,1.9-.4,1-.2,.5-.1,.9-.1,1.9-.4,.9-.2,1-.2m-22.2,3.5l-.1,.3m0,0l1-.1,2.4-.2m0-56.8l-.1,.3m19,3.2h0l-1-.2-.6-.1-1-.2-3.8-.8-1-.2-.5-.1-1-.1-1.9-.4-1.9-.3-2-.2-4.3-.6m19,3.2l1,.2,1.4,.4,1.3,.5,1.4,.9,.6,.6,.2,.3,.5,1.2,.1,.5,.1,.9v.9m0,37v1.4l-.1,.7-.1,.3-.3,.7-.2,.3-1.1,1.2-.3,.2-.8,.5-.4,.1-1.8,.6-1.5,.4m15.9,4h-.2m-1.7,0h1.9m-1.7,0h-.2m.2,0h-3.5m0,0v-14.9m0,0l.1-3.3,.2-3.5,.3-4.3,.2-2.1v-.5h2.7l3.1,.1,.9,.1,.3,.1,.1,.1m0,0v-.7m-37.5,28.4h0l.9-.2,2-.2,1.9-.3,3.9-.5,1.9-.3,2-.4,2.4-.4,2.4-.5,.9-.2,2-.4,1.8-.6,1.7-.8,1.2-1.1,.4-.8,.3-.8,.1-1.9v-19m7.2,28.9h.2m1.3,0h.3m2.7,0h0m0,0h-2.9m-34.6-57.3h0m25.8,28.4V17.6l-.1-1.1-.4-1-.9-1.3-1.5-.9-1.8-.7-1.9-.5-1.8-.3-1-.2-3.9-.8-1.9-.3-1.9-.3-3-.5-3-.3-1-.2-1.7-.2m25.8,28.4h11.7m0,0v-.7m0,0l-.2,.1-.4,.1-1.2,.1-2.2,.1h-2.9l-.1-.1h-.1v-.4l-.2-2.1-.3-4.3-.2-3.5-.1-3.3m0,0V10.8m0-2.3h3.3m0,0h0m1.9,0h-1.9m1.9,0h0m0,0h2.7m0,0h-2.8m-112.8,8.2l-.1,2.6v9.5m-.3,34.3v-1.3l.1-1v-11.9l.1-2.2v-13.9l.1-2.3v-10.4l.1-1.8v-1.6m0,0v1.7l-.1,1.8v8.6m0,0v-8.6l.1-1.8v-1.7m-.4,49.1h0v-4.1l.1-.4v-13l.1-1.6v-9.8m.1-8.1v2.3l-.1,2.2v13.8l-.1,2.1v11.6l-.1,1.1v0l.1-1.1v-11.6l.1-2.1v-13.8l.1-2.2v-2.3m0,0v1.6m0,0l-.1,3.2v3.3m0,0v6.5m0,0v3.5l-.1,3v11l-.1,.9v1.3l.1-1.6v-12.1l.1-3.1v-9.4m.1-8.1v-9.5l.1-2.5v-.1m-.2,20.2v-3.6l.1-4.5m-.1,8.1v-4.1l.1-.8v-13.4l.1-.6v-1.3m.1,49.1l.1,.2,.1,.1m.5-58.4l-.2,.2-.1,.1m12.4,58.2h-1.9m14.5,.3l-12.6-.3m-12.5-4.8v3.5l-.1,.9v.3m10.7,.1l-10.7-.1m11.1-58.3h1.9m-12.5-.1l10.6,.1m-10.6-.1l-.1,.3v4.4m12.6-4.6l12.6-.1m3.8,55.6v.2m-.7-.1l-.8,.1-.8,.3-1,.6-.6,.6-.2,.5-.1,.7v.1m4.2-2.7l-1.9,1.3-2.3,1.6m4.5-55.8v.2m-4.1-3.2l2.3,1.7,1.8,1.2m-4.1-2.9v.9l.4,.7,.3,.4,.6,.4,.5,.3,.8,.3,.9,.2m-29,1.8l.2-.2,.1-.1m-.3,49l-.2-.1-.1-.1m.1-17.5l.3,.2m.1-14l-.3,.2m0,.1h.5m-.1,13.5h-.5m.1-13.1h.8m-.1,12.6h-.8m1-.3h-1m.1-12h1m-1.1,11.4h1.3m0-10.7h-1.2m.2-23.6v1.2l-.1,1.5v2m0,0v10.6l-.1,3.3v3.5m0,0v.1m0,0v.4m0,0v.3m0,0v.7m0,0v.4m0,0v4.8l-.1,2.6v2.5m0,0v.4m0,0v.6m0,0v.3m0,0v.5m0,0h0m0,0v6.8l-.1,3.1v7.6m0,0v4.6m0,0v-4.6m0,0v-7.6l.1-3.1v-6.8m0,0h0m0,0v-.5m0,0v-.3m0,0v-.6m0,0v-.4m.1-9.9v-.4m0,0v-.7m0,0v-.3m0,0v-.4m0,0v-.1m0,0v-3.5l.1-3.3V12.7m0,0v-2l.1-1.5v-1.2m-.2,29.1v-11.3l.1-2.1V10.4l.1-.3v.1l-.1,.5v12l-.1,2v13.6l-.1,2.3v12.9l-.1,1.8v-.9l.1-1.8v-13.1l.1-2.4m-.1,4.8v-2.4l.1-2.5v-5m-.1,9.9h1.3m.1-9.9h-1.3m.4,11.7l-.2,.3m0,0v5.1l-.1,2.5v9.8m28.6,2l-5.6-.6-5.4-.6-5.1-.4-4.4-.2-4.2-.1-3.9-.1m67.1,4.9l-9.5-.2-9.6-.8-9.5-1.2-2.3-.3-2.6-.4-2.6-.2h-1.2l-1.2,.2m.4-52.5l-5.6,.5-5.5,.4-5,.4-4.5,.2h-8.1m0,0v9.9l-.1,2.4v5.2m0,0l.2,.3m28.6-19.3l1.9,.1h1.8l1.9-.2,5.6-.6,5.6-.7,5.6-.5,8-.5h8.1m-.1,20.2v-8.4l.1-1.8V8.5m0,0l3.8,.2,3.7,.8,3.6,1.2,3.4,1.7,3.1,2.2,2.8,2.5,2.5,2.8,2.1,3.2,1.6,3.4,1.2,3.6,.7,3.7,.2,3.8m0,0l-.2,3.8-.8,3.7-1.2,3.5-1.7,3.4-2.2,3.1-2.5,2.9-2.8,2.4-3.2,2.1-3.4,1.7-3.6,1.2-3.7,.7-3.8,.2m.2-28.9h8.7l2.5,.1h12.3l1.5,.1h3.9m-29.1,28.7v-3.4l.1-1v-11.4l.1-4.4m.1-17.4l-.1,8.7m-66.9-7.2h4.7l5-.1,5.4-.1,5.9-.1,6.3-.3,6.4-.2,6.4-.2,6.2-.3,5.8-.1,5.3-.1h9.6m-66.7,1.9l-.3-.4m.5,.7l-.2-.3m.4,1l-.2-.7m.3,1.1l-.1-.4m.1,.4l-.1,3.3v6.6m0,.4v-.4m-.3,1l.3-.6m-.5,.9l.2-.3m-.5,.8l.3-.5m66.7,2.9l-4.7-.1h-4.9l-5.3-.2-5.9-.3-6.1-.3-6.4-.3-6.4-.3-6.3-.3-5.9-.3-5.4-.2-5-.1h-4.7m67,2.4v-8.7M352.7,7.8h0m10.6,58.5h-3l-3.1-.2-3.5-.2-3-.5-3.3-.6-3.8-.8-4.3-1.2m28.6,2.8v.7m-4.6-.7v.7m4.6,0h-4.6m-24.5-3.7l-27.2-13.9m-40.4,2l-.5,.6m21.3-10.2l-.4-.1m20.1,6.3v1.1l-.1,.3M352.7,7.8h.2l.2,.1h1.4m-99.2,2.2l-3.2,.3-2.7,.3-2,.2m105.3-3.1h-30.2l-9.5,.1-9,.1-8.3,.2-7.8,.2-7.2,.2-6.5,.3-5.7,.3-5,.3-1.5,.1m101.7-1.7h-9.2m13.8,0v4.1m-4.6-4.1v.1m4.6-.1h-4.6m-24.3,54.6l-.1,.2v.1m-60.3-20.3l1.9-1,2-.8,2.1-.5,2.1-.3h2.9l2.9,.3,2.8,.6,4.2,1.2,4,1.6,3.9,1.8,3.9,1.9m0,0l19.1,9.8,1.6,.8,1.6,.8,1.5,.8,.9,.6,.9,.6,.6,.5,.5,.4,.4,.4,.1,.2v.2l-.1,.2m-62.7-18.3l-1.1,1.2-1,1.2m-10.7-35.6l-.3,.4-.2,.5m14.1,31.5l-.4,.4-.4,.4m.2,.2h0l-.1-.1-.1-.1m2.9-1.8l-2.7,2m2.7-2h-.1v-.2m-2,1.2l-.3-.1-.3-.1m.6,.2l.8-.8,.7-.8m1-12.5l.3,1.9,.1,1.8-.2,1.7-.4,1.7-.6,1.5-.8,1.7-1,1.7-1.1,1.7m0,0l.3,.1,.3,.1m1.4-2.4l-.7,1.2-.7,1.2m-13.5-31.3l1.4,.3,1.4,.3m-2.9-.4v-.1l.1-.1m-.3,.5l.1-.1,.1-.2m-.2,.3l2,.4,1.9,.5,1.7,.6,1.5,.6,1.4,.8,1.3,1,1.2,1.2,1.2,1.4m0,0l1.6,2.3,1.3,2.6,1.1,2.7,.7,2.8m60,33.1l-.1-.2-.2-.3-.5-.5-.8-.7-1.1-.8-1.3-.8-1.5-.8-1.5-.8m25.1,7.8l-3.6-.2-4.2-.5-3.1-.6-3.4-.7-3.8-.9M266.5,11.2l-.9,1.4m0,0l2.2,.7,1.8,.8,1.6,1,1.6,1.2,1.4,1.6,1.4,1.9,1.2,2,1.1,2.2,.9,2.3,.7,2.3,.4,2.3,.2,2.2-.2,2-.5,1.9-.7,1.9-1,2m1.3,.3l-.7-.2-.6-.1m1.3,.3l-.3,.3-.3,.4m.3,.3v-.1h-.1l-.1-.1-.1-.1m-15.1-30.8h1.6l1.6,.1m0,0l1.3,.1,1.2,.2,2.2,.6,1.9,.9,1.8,1.1,.8,.8,.8,.9,.8,1,.7,1.1,1.3,2.4,1.1,2.6,1,2.6,.8,2.7,.3,1.4,.3,1.3,.1,1.3-.1,1.2-.3,1.4-.4,1.3-.7,1.2-1.1,1.9-1.3,2m3.5-13.9l.6,2.3,.3,2.3-.1,2-.5,1.7-.7,1.7-.9,1.6-1.1,1.6-1.4,1.7m.2,.1h-.1l-.1-.1m53.7,15.4l-8.6-4.3-8.6-4.4-8.7-4.3-4.4-2-4.6-1.5-4.7-1.1-3.6-.3-3.6,.2-3.5,.9-1.7,.7-1.5,.8m57.1,5.6l-1,2.7-.9,2.5-.9,2.3-.8,2.2m5.3-14.3l-.9,2.4-.8,2.2m14.5,6.8l-2.2-1.4-2.3-1.3-2.4-1.2-3.8-1.5-3.8-1.4m32.1-.4l-.1,3.3v12.4l-.1,1.4v1m0,0h-4.6m.1-18.1v6.3l-.1,2.8v9m-12.9-19v4.3l.1,3.8m0,0l1.9,1.6,1.7,1.6,1.4,1.7,.9,1.5,.6,1.4,.4,1.2,.1,1v.7m5.8,.2l-2.9-.1-2.9-.1M266.4,10.8l32.7,.5,44.3,.5m-63.8,8l-1.2-2.2-.6-1-.7-.9-.9-1.1-1-.8-1-.8-1.7-.8-1.8-.7-2-.4-1.1-.2-1.2-.1m101.9,1.2v6.8l-.1,2.9v13.2m.1-22.9l-4.6-.1m0,0l-.1,2v10.8l-.1,3.3v6.9m.2-23h-10.2l-10.1-.1m0,0l-.1,1.8v4.4l-.1,2.6v2.9l.1,3,.1,3.2,.1,3.3m20,1.9l-4.3-.1-4.6-.2-3.4-.4-3.7-.5-4-.7m0,0l-5.3-1.2-5.7-1.5-6.2-1.7-6.6-1.9-6.8-2-5.8-1.6-5.9-1.4-5.8-1.2-4.2-.6-4.1-.4-3.9-.1-3.6,.4m0,0l1.6,3.7,1.3,3.8m0,0l3.2-.3,3.3,.1,3.5,.4,3.5,.8,4.9,1.3,4.9,1.6,4.9,1.7,7.2,2.9,7,2.8,6.6,2.6,6.2,2.1m0,0l6.6,2,6.1,1.3m13,.9l-6.3-.2-6.7-.7m13.1-11.7v3.2l-.1,3.2v6.2m4.7,0h-4.7m4.8-12.6l-.1,3.2v9.4m.1-12.6h-4.7m-154.3,16.3v-.1m-6.6-38.5h-1.2l-.3,.1h-.4m-1.1,45.7l9.6-7.2m0,0v-.1m-10.1,7.5l-2.6,.6-2.1,.3-1.7,.3-1.9,.1h-1.6M228.8,10.7l3.3,1.8m-3.8-1.9h.3l.2,.1m0,0v1m-28.1,1h1.1l.3-.1h.5m-13.4,.2l5.6-.1h5.9m27.6-2.1v1m-25.7,1l4.3-.2,4.7-.2,5-.4,5.6-.5,6.1-.7m-28.7,47.1l2.9-2.1,2.9-2.2m-13.9,5.3h-2.3M232,12.8v-.1l.1-.2m-27.9,39.1l.5,.7,.3,.5,.3,.4,.1,.2m0,0l1.8-1.3,1.7-1.3m0,0l3-2.2,3-1.9m-.4-1.5v.4l.1,.4,.3,.7m-15.8,11.2v.7m.5-.2v-.7m0,0l.1-.3,.1-.6,.3-.7,.4-.9,.6-.9,.9-1,1-.8,1.2-.9m0,0l5-3.4,2.5-1.6,2.8-1.4m13.8-33.6h.3l.2,.1m-36.2,42.6l-.5,1.3-.3,1.3-.2,1-.1,.8m7.6-.8l-4.6,.6-3,.2m17.3-10.6l-1.5,1-1.4,1-1.5,1-1.5,1-1.3,1.1-1.3,1.5-.7,1.5-.4,1.1-.1,.6m-6.5-3.6h-3.4m12.5-9.6l-2.9,2.1-2.7,2.4-1.1,1.3-1,1.3-.8,1.2-.6,1.3M228.3,11.6l.1,.5,.2,.3,.4,.2,.7,.2h1.8l.9-.1,1.9-.3,3.9-.6,4-.5,3.9-.3,4-.2m-32,2.2l10.2-1.4m-39.1,3.8v0m0-2.6v1.6m0,0v-1.6m0,20.4V14.4m0,22.4v-3.6m0,21.1v-17.5m0,21.9v-4.4m0,5.6v-1.2m0,0v1.2m0-5.6v4.4m0-21.9v17.5m19.6-6.2l-.7-1.2-.9-1.3-.9-1.5-1-1.6m9.2,2.5l-2.9,1.4-2.8,1.7m-9.6-12.3l.5,2,.6,2.1,.7,2.3,.7,2.5m3.6-2.2l-1.8,1.1-1.8,1.1m12.8,.3l-.1-1.9-.1-1.8m11.6,7.2l-2.4-2-1.3-.9-1.5-.7-1.5-.4-1.6-.1-1.6,.2-1.5,.4m12.7,4.8l-.6-.6-.7-.7m6.8,6.4l-2.7-2.6-2.8-2.5m-1.3-1.3l.2-.4,.2-.6,.3-.8,.3-1m-37.7-31.3h8.5l4.5-.2,4.9-.2,5.3-.4,5.7-.6m-28.9,1.4v18.8m28.9-20.2l.3,.7,.4,.7,.8,.8,1.1,.8,1.5,.6,1.8,.4,1.3,.2,1.4-.1,1.4-.1m2.7,32.5l-1.1-1.1-1-1m5.8,5.6l-1.9-1.7-1.8-1.8m-2.1-2.1l.8-1.2,.9-1.6m-16.1-3.3l-.1-1.2-.1-1.1-.2-2.2-.2-2-.2-1.9m13.4,12.8l-2.7-2.3-1.4-1-1.6-.7-1.6-.5-1.8-.2h-1.7l-1.8,.3m14.4,6.1l-.9-.9-.9-.8m9.4-30.5l6.8-1.6,3.5-.6,3.5-.3m-7.6,11.9l-1.8-2.6-1.6-2.6-1.5-2.2-1.3-2m-8.2,1.8l1.4-.2,1.3-.3,1.4-.3,4.1-1m-9.8,14.5l.5-3.8,.5-3.5,.4-3,.2-2.4m-1.6,12.7l-3.8-.3-4,.1-4.3,.5-4.5,.7-6.4,1-6.9,.9-7.4,.6m0,0v3.6m10-1l-5,.6-5,.4m24.3-3.9l-7.1,1.6-7.2,1.3m14.3-2.9l4.2-.8,4-.5h3.9l3.6,.6m7.3,1l-3.2-1.5-3.3-1.3-3.5-.7m9,22.2l-1.5-1.6-1.4-1.8-1.2-1.9-1-2m-1.2-12.4l3.6,1.1,3.4,1.4m-5.8,9.9l-1-3-.5-3.1-.1-3.2,.4-3.1m7,2.5l-.1,1.6m14-25.5l3.3,.3,3.3,.6,3.1,1.1,3,1.5,2.8,1.8,2.5,2.2,2.2,2.5,1.9,2.8,1.4,3,1.1,3.1,.7,3.3,.2,3.3m-25.5-25.5v1.9m0,0v9.7m0,0l-1.9,.1-1.9,.4-2,.7-1.8,1m0,0l-2.2,1.7-1.7,2.1-1.3,2.4-.8,2.4m-.3,1.5l.3-1.5m39.1,3.1l-.3,3.7-.8,3.6-1.3,3.5-1.8,3.2-2.3,2.9-2.6,2.6-3,2.2-3.3,1.7-3.5,1.2-3.6,.7-3.7,.2-3.7-.4-3.6-.9-3.4-1.4-3.2-1.9-2.8-2.3m42.9-18.6h-25.5m0,0h-14m0,0l.3,2.7,.8,2.7,1.4,2.5,1.9,2.3m0,0l-1.5,1.6-1.3,1.4-1.2,1.3-1,1.1m-.1,.1h0v-.1h.1m-1,1.1l.4-.5,.5-.5m-2.7,2.9l.2-.2,.3-.4,.5-.6,.8-.7M179.5,12.8h0m.9,0h-.2m-.7,47.1h0m1.8,0h0m-43.7-1.7h-6.4l-1-.1h-3l-.9-.1h-2.7l-1-.1h-1.3l-.9-.1h-1l-.4-.1h-.5l-.9-.1-.9-.1-.9-.1-.9-.1-.5-.1h-.4l-.5-.1-.5-.1-.3-.1m-3.2-40.8l3.3-1,3.9-.6,4.4-.3,4.7-.3,4.7-.2,4.5-.1,4-.2,3.7-.1m0,45l-.8,.1-1.5,.2h-5.2l-3.4-.1-3.4-.1-3.4-.1-3.4-.1-3.4-.2-3.4-.4-1.7-.3-1.8-.4-.3-.1m31.7,2.6l-3.7-.1-4-.1-4.5-.2-4.7-.2-4.7-.2-4.4-.4-3.9-.6-3.1-.9m32.7,1.2l-.8,.2-1.5,.1h-2.5m6.4-4.8V19.3m-32.9-3.4l3-.7,3.8-.4,1.9-.2,2-.1,3.8-.1,3.8-.1,3.9-.1h1.9l1.9-.1h2.8l1.7,.1,1.1,.2m-29.7,1.4l1.2-.3,3.8-.4,2-.2,1.9-.1,3.8-.1,1.9-.1h1l3.8-.1h5.2m0,0h3.1l.6,.1,1.2,.2,.2,.1,.4,.2,.5,.5,.3,.7,.1,.7v2.3m0,0V53.4m0,0v2.4l-.3,1.1-.4,.6-.9,.4m0,0l.3,.4m37.7,1.6h-.9m0-47.1h.9m-37.7,.5l20.2-.5h16.6m-36.8,.5h0v1.1m0,0l.6,.3,.6,.6,.2,.6,.2,.7V55.5l-.2,1.5-.5,.8-.7,.4-.2,.1m0,0v1.1m36.8,.5h-16.6l-20.2-.5M180.4,12.8V59.9m0,0h.9m7.6,0h-7.6m7.6-47.1h0V59.9m0-47.1h-7.6m0,0h-.9m-94,3.8v-2.9m.6,4.1h0l-.3-.3-.2-.4-.1-.5m0,42.4v-2.9m0,0l.1-.5,.2-.4,.4-.3m-1-39.8v1.6l.2,.5,.3,.3,.6,.3,.6,.1h1.2l1.2-.1,1.9-.2m0,37.5l-.9-.1-3-.2h-.7l-.6,.2-.4,.3-.3,.4-.1,.2v1.7m13.1-40.6h0m-7.1,.6h1l3.7-.4,2.4-.2m-7.1,.6v1.6m7.4-2.2h-.3m-7.1,38.1v-1.6m7.1,2.2h-.4l-1.9-.2h-1l-.9-.1-1-.1-.9-.1-.5-.1h-.5m7.1,.6h0m0,0l.3,.1m-7.4-36.6v.2m-10.8-1.2l.6,.9,1,.9,1.3,.6,1.6,.2,1.6-.3,1.6-.4,1.5-.5,1.6-.4m0,34.3l-1.5-.4-1.6-.5-1.6-.4-1.6-.2-1.6,.1-1.3,.6-1,.9-.6,1m10.8-1.1h0v-.1m-6,5.9h0v-1.7m0,0h-5.2m0,0v-1.3l.1-.9,.3-.8m0,0v-9.7m0-17.1v-9.6m0,0l-.2-.6-.1-.6-.1-.5-.1-.7,.1-.7m0,0h5.2m0,0v-1.7m-56.1,0V59.3M92.1,19.4l6.2-1.6,6.2-1,4.2-.5,4.2-.4,4.2-.1m-25,12.3v-8.7m0,34v-8.8m25,12.3l-4.2-.1-4.2-.4-4.2-.5-6.2-1-6.2-1.5m10.6-23l1-2.1,1.3-1.9,1.6-1.6,1.8-1.5,2-1.1,2.2-.8,2.2-.5,2.3-.2m-14.4,21.7l1,2,1.3,1.9,1.6,1.7,1.8,1.4,2,1.1,2.2,.8,2.2,.5,2.3,.2m-14.4-9.6l2.8-1.1,2.9-1.2m-27.1,4.8v-8.5m0,8.5h3.7l3.6-.1,3.5-.2m0,0l3.6-.4,3.5-.8,3.5-1m-21.4-6v-8.6m0,8.6h26.3m.8-3.8l-2.9-1.2-2.8-1m0,0l-3.5-1.1-3.5-.8-3.6-.4m-10.8-.3l5.5,.1h2.7l2.6,.2m25-12.3v4.9m0,0v6.2m0,0l-1.4,.1-1.3,.3-1.3,.5-1.2,.7-1.1,.8-1,1-.8,1.1-.6,1.2m-.8,3.8l.2-1.9,.6-1.9m-.8,3.8h8.4m-7.6,3.7l-.6-1.8-.2-1.9m.8,3.7l.6,1.2,.8,1.1,1,1,1.1,.9,1.2,.6,1.3,.5,1.3,.3,1.4,.1m0,0v6.2m0,0v4.9m.7-20.5h19.8m-21.6,0v.3l.2,.2,.2,.2,.3,.1,.3,.1,.3-.1,.2-.2,.2-.3,.1-.2v-.1m0,0l-.1-.4-.2-.3-.3-.2h-.6l-.3,.2-.2,.3-.1,.4m.8-.9h.4l.3,.2,.2,.3,.1,.4-.1,.3-.2,.3-.3,.2-.2,.1M1.7,35.2v0m0,10.2v0m0-20v0m0,20v0m0-20v0m0,17.7v0m0-24h0V53.7M5.3,18.2h0v-.2m.1,36.8h0v-.2M30,13.5V52.6m0,0v6.7m-24.6-4.7v-2.8m0,0l-.1-1.5V18.2m1.2-4.8h0V52.6m0,0v6.8M555.4,.5h-8m0,73.7h8m-62.4-8.2l.3,.3m0-57.8l-.3,.3m54.4-.3h-41m-1.8,0h-11.3m0,57.8h11.3m1.8,0h41m-106,0h-.7m.7,0h5.3m-5.3,0h0m-.4,0h.4m0-57.9h0m0,0l-.2,.1-.2-.1m-.4,0h.8m5.3,.1h-2.6l-2.7-.1m51.3,.1h-8.5m0,57.8h8.5m-46,0h37.5m0-57.8h-37.5m-48.4,55.1v-.1m-4.2,2.8l2.1-1.4,2.1-1.4m.3-52.8l-2.1-1.4-2.1-1.4m-102.9,33.1l.7,.1,3.6,.9,3.8,1.2,4,1.6,2.4,1.1m-36,6.4l.1-.1,.1-.2,.2-.2,.2-.3,.3-.3,.3-.4,.3-.5,.9-1.2,1.1-1.4,1.4-1.6,1.6-1.6,1.8-1.3,1.8-1,2-.8,2.1-.5,2.2-.2h2l1.9,.2,1.7,.2M363.7,8l-10.7-.1h-10.2l-9.7-.1-9,.1h-8.4l-7.7,.1-6.7,.1-6.1,.1-5.5,.2-5,.1-4.4,.2-4.5,.2-4,.1-3.4,.2-2.9,.2-2.6,.1-2.6,.2-2.2,.2-1.7,.1-1.3,.1m83.7,52.5l.3,.1,.2,.1m-130.1-11.7l2.5-1.8,2.3-1.6,2.2-1.4,1.6-.7,1.4-.5,1.2-.2m-21.3,13.7l.2-.1,.3-.1m17.5-13.8l.2-.1m7.2,2.9l1.2,1,2,1.9,2.3,2.1,2.6,2.5m-15.3-10.4h1.2l1.1,.2,1.1,.3,1.6,.8,1.6,1m-3.4-1.9l.2,.1,1.6,.8,1.6,1,1.8,1.6,2,1.9,2.3,2.1,2.6,2.5m17.2-44l-3.1,.1-3.6,.2-3.8,.4-3.9,.6-2,.3-1.9,.2-.8,.1h-.6l-.5-.1m45.9,22.1l-.1-1.8-.8-3.5-1.2-3.5-1.7-3.2-2.1-2.9-2.6-2.6-2.9-2.3-3.1-1.7-3.4-1.3-3.6-.9-3.6-.3h-.4m-16.5,44.8l1.5,1.3,2.8,1.8,2.6,1.2,2.2,.8,1.9,.5,1.7,.3,1.7,.2,1.8,.1,3.6-.2,3.6-.7,3.4-1.2,3.2-1.7,3-2.2,2.6-2.5,2.2-2.9,1.8-3.2,1.3-3.3,.9-3.6,.3-3.6v-.3m-46-23.7h0l-.3-.1m-141.8,5.3l-.4-1.6-.7-2.7m0,45.5l.7-2.7,.4-1.6m-1.1-41.1l-.1-.2-.2-.1m0,45.9l.2-.1,.2-.1M117.1,15.6l-1.4,.1h-1.8l-.6,.1h-.8l-.7,.1-1.8,.1-1.7,.1-.9,.1-.8,.1-1.1,.1-1.2,.1-.8,.1h-.4l-.4,.1h-.6l-.5,.1h-.4l-.6,.1-1.2,.1m0,38.8h1l.5,.1h.6l.6,.1h.4l.7,.1,.7,.1,1.1,.1,1.1,.1,1.3,.1,1.2,.1,1,.1,1.3,.1,1.5,.1h1l.7,.1h1.2l1.8,.1M86.1,13.4H30m0,45.9h56.1m51.5-23l-.1-2.1-.3-2.1-.6-2.1-.7-2-1-1.9-1.2-1.9-1.3-1.6-1.6-1.6-1.6-1.3-1.8-1.2-1.9-1-2-.8-2.1-.6-2.1-.3-2.2-.2m0,41.5l2.5-.2,2.6-.5,2.6-.9,1.9-.9,1.8-1.1,1.7-1.2,1.6-1.5,1.4-1.6,1.2-1.8,1.1-1.8,.8-1.9,.8-2.6,.4-2.6,.1-2.1M2.2,54.2h2.6m0-35.7H2.2m0,0h0l-.2,.1-.1,.1h-.1l-.1,.1v.1m0,34.9v.1l.1,.1,.2,.2h.2m2.6,.1h.3l.1,.1,.1,.1v.1m0-36.4l-.1,.1-.1,.1-.2,.1h-.1m1.7,40.9l23.5-.1m0-45.9H6.5m-1.1,44.8l1.1,1.2m0-46l-1.2,1.2" style="fill: none; stroke: #000; stroke-linecap: round; stroke-linejoin: round; stroke-width: .99px;"/>
  <path d="M484.2,37.4h0m-115.6-20.7h0m0,0h0m-.1,12.1h0m0,0h0" style="fill: none; stroke: #000; stroke-linecap: round; stroke-linejoin: round; stroke-width: .99px;"/>
  <g>
    <path d="M467.38,129.16v-12.96h3.24v1.03h-1.77v10.9h1.77v1.03h-3.24Z"/>
    <path d="M473.85,120.84c-.61-.19-1.06-.46-1.36-.81s-.44-.77-.44-1.26c0-.74,.31-1.36,.94-1.86,.63-.5,1.46-.75,2.5-.75s1.89,.26,2.52,.77c.64,.51,.96,1.14,.96,1.88,0,.47-.15,.88-.44,1.23-.29,.35-.73,.62-1.33,.81,.74,.2,1.29,.53,1.68,.98,.38,.45,.58,.99,.58,1.62,0,.87-.36,1.6-1.09,2.19s-1.68,.89-2.86,.89-2.14-.3-2.86-.89-1.09-1.33-1.09-2.22c0-.66,.2-1.21,.59-1.66s.96-.75,1.69-.91Zm-.77,2.57c0,.36,.1,.7,.3,1.03,.2,.33,.49,.59,.89,.77,.39,.18,.81,.27,1.27,.27,.7,0,1.28-.19,1.74-.57,.46-.38,.69-.87,.69-1.46s-.24-1.1-.71-1.49c-.47-.39-1.06-.59-1.77-.59s-1.26,.19-1.72,.58-.68,.87-.68,1.45Zm.47-4.68c0,.48,.18,.87,.55,1.18,.37,.3,.84,.46,1.42,.46s1.03-.15,1.39-.45,.54-.67,.54-1.11-.19-.84-.56-1.15c-.37-.31-.84-.47-1.39-.47s-1.03,.15-1.4,.46c-.37,.3-.56,.67-.56,1.09Z"/>
    <path d="M481.72,126.35v-1.42h1.68v1.42h-1.68Z"/>
    <path d="M493.27,125.15v1.2h-7.92c-.01-.3,.05-.59,.17-.87,.2-.46,.52-.91,.97-1.35,.44-.44,1.08-.96,1.92-1.54,1.3-.9,2.18-1.62,2.64-2.15s.69-1.03,.69-1.5-.21-.91-.62-1.25c-.42-.34-.96-.51-1.63-.51-.71,0-1.28,.18-1.7,.54-.42,.36-.64,.86-.65,1.5l-1.51-.13c.1-.95,.49-1.68,1.17-2.18,.67-.5,1.58-.75,2.72-.75s2.06,.27,2.73,.81,1,1.21,1,2.01c0,.41-.1,.8-.29,1.2-.2,.39-.52,.8-.98,1.24-.46,.43-1.21,1.03-2.27,1.79-.88,.63-1.45,1.05-1.7,1.28-.25,.22-.46,.45-.62,.67h5.88Z"/>
    <path d="M502.48,118.69l-1.46,.1c-.13-.49-.32-.84-.56-1.07-.4-.36-.89-.53-1.47-.53-.47,0-.88,.11-1.23,.33-.46,.29-.83,.7-1.09,1.25-.27,.55-.41,1.33-.42,2.35,.35-.46,.79-.8,1.3-1.02,.51-.22,1.05-.33,1.61-.33,.98,0,1.82,.31,2.5,.92,.69,.61,1.03,1.4,1.03,2.37,0,.64-.16,1.23-.49,1.77-.32,.55-.77,.97-1.34,1.26-.57,.29-1.21,.44-1.93,.44-1.23,0-2.23-.38-3-1.15s-1.16-2.02-1.16-3.77c0-1.96,.43-3.39,1.28-4.28,.75-.77,1.75-1.16,3.01-1.16,.94,0,1.71,.22,2.32,.67,.6,.45,.96,1.07,1.08,1.85Zm-6.01,4.37c0,.43,.11,.84,.32,1.23,.21,.39,.52,.69,.9,.9s.79,.31,1.22,.31c.62,0,1.16-.21,1.6-.64,.45-.42,.67-1,.67-1.73s-.22-1.25-.66-1.66c-.44-.4-1-.61-1.67-.61s-1.23,.2-1.69,.61c-.46,.4-.69,.93-.69,1.59Z"/>
    <path d="M506.42,120.84c-.61-.19-1.06-.46-1.36-.81s-.44-.77-.44-1.26c0-.74,.31-1.36,.94-1.86,.63-.5,1.46-.75,2.5-.75s1.89,.26,2.52,.77c.64,.51,.96,1.14,.96,1.88,0,.47-.15,.88-.44,1.23-.29,.35-.73,.62-1.33,.81,.74,.2,1.29,.53,1.68,.98,.38,.45,.58,.99,.58,1.62,0,.87-.36,1.6-1.09,2.19s-1.68,.89-2.86,.89-2.14-.3-2.86-.89-1.09-1.33-1.09-2.22c0-.66,.2-1.21,.59-1.66s.96-.75,1.69-.91Zm-.77,2.57c0,.36,.1,.7,.3,1.03,.2,.33,.49,.59,.89,.77,.39,.18,.81,.27,1.27,.27,.7,0,1.28-.19,1.74-.57,.46-.38,.69-.87,.69-1.46s-.24-1.1-.71-1.49c-.47-.39-1.06-.59-1.77-.59s-1.26,.19-1.72,.58-.68,.87-.68,1.45Zm.47-4.68c0,.48,.18,.87,.55,1.18,.37,.3,.84,.46,1.42,.46s1.03-.15,1.39-.45,.54-.67,.54-1.11-.19-.84-.56-1.15c-.37-.31-.84-.47-1.39-.47s-1.03,.15-1.4,.46c-.37,.3-.56,.67-.56,1.09Z"/>
    <path d="M518.53,117.63v-1.43h1.47v1.43h-1.47Zm0,8.71v-7.35h1.47v7.35h-1.47Z"/>
    <path d="M522.24,126.35v-7.35h1.32v1.04c.64-.81,1.56-1.21,2.76-1.21,.52,0,1,.08,1.44,.24s.77,.37,.98,.63c.22,.26,.37,.57,.46,.92,.05,.23,.08,.63,.08,1.21v4.52h-1.47v-4.47c0-.51-.06-.89-.17-1.14-.12-.25-.32-.45-.61-.6-.29-.15-.63-.23-1.03-.23-.63,0-1.17,.17-1.62,.51s-.68,.98-.68,1.92v4.01h-1.47Z"/>
    <path d="M534.01,129.16h-3.24v-1.03h1.77v-10.9h-1.77v-1.03h3.24v12.96Z"/>
  </g>
  <g>
    <path d="M478.34,107.26v1.2h-7.92c-.01-.3,.05-.59,.17-.87,.2-.46,.52-.91,.97-1.35,.44-.44,1.08-.96,1.92-1.54,1.3-.9,2.18-1.62,2.64-2.15s.69-1.03,.69-1.5-.21-.91-.62-1.25c-.42-.34-.96-.51-1.63-.51-.71,0-1.28,.18-1.7,.54-.42,.36-.64,.86-.65,1.5l-1.51-.13c.1-.96,.49-1.68,1.17-2.18,.67-.5,1.58-.75,2.72-.75s2.06,.27,2.73,.81c.67,.54,1,1.21,1,2.01,0,.41-.1,.8-.29,1.2-.2,.39-.52,.8-.98,1.24-.46,.43-1.21,1.03-2.27,1.79-.88,.63-1.45,1.05-1.7,1.28-.25,.22-.46,.45-.62,.67h5.88Z"/>
    <path d="M485.46,108.46h-1.47v-7.94c-.35,.29-.82,.57-1.39,.86-.57,.29-1.09,.5-1.55,.64v-1.2c.82-.33,1.54-.72,2.16-1.19,.62-.47,1.05-.92,1.31-1.36h.95v10.19Z"/>
    <path d="M489.23,103.46c0-1.2,.15-2.17,.44-2.9,.29-.73,.72-1.3,1.3-1.69,.58-.4,1.3-.59,2.17-.59,.64,0,1.21,.11,1.69,.33,.48,.22,.88,.54,1.2,.95,.32,.41,.56,.92,.74,1.51s.27,1.39,.27,2.4c0,1.19-.14,2.15-.43,2.88-.29,.73-.72,1.3-1.29,1.7-.58,.4-1.3,.6-2.18,.6-1.16,0-2.06-.35-2.72-1.05-.79-.84-1.18-2.22-1.18-4.12Zm1.51,0c0,1.67,.23,2.77,.69,3.33,.46,.55,1.03,.83,1.7,.83s1.24-.28,1.7-.83c.46-.55,.69-1.66,.69-3.32s-.23-2.78-.69-3.33c-.46-.55-1.03-.82-1.72-.82s-1.21,.24-1.62,.73c-.51,.62-.76,1.76-.76,3.42Z"/>
    <path d="M503.59,108.46v-7.35h1.32v1.03c.27-.36,.63-.65,1.09-.87,.45-.22,.97-.33,1.54-.33,.64,0,1.17,.11,1.58,.34,.41,.23,.7,.54,.87,.95,.69-.86,1.58-1.29,2.68-1.29,.86,0,1.52,.2,1.99,.61,.46,.4,.69,1.03,.69,1.87v5.04h-1.46v-4.63c0-.5-.05-.86-.14-1.08-.1-.22-.27-.4-.52-.53-.25-.13-.54-.2-.88-.2-.61,0-1.12,.17-1.52,.52-.4,.34-.6,.89-.6,1.65v4.27h-1.47v-4.78c0-.55-.12-.97-.36-1.25-.24-.28-.63-.42-1.18-.42-.41,0-.8,.09-1.15,.28-.35,.18-.61,.45-.76,.81s-.24,.87-.24,1.54v3.81h-1.47Z"/>
    <path d="M517.53,108.46v-7.35h1.32v1.03c.27-.36,.63-.65,1.09-.87,.45-.22,.97-.33,1.54-.33,.64,0,1.17,.11,1.58,.34,.41,.23,.7,.54,.87,.95,.69-.86,1.58-1.29,2.68-1.29,.86,0,1.52,.2,1.99,.61,.46,.4,.69,1.03,.69,1.87v5.04h-1.46v-4.63c0-.5-.05-.86-.14-1.08-.1-.22-.27-.4-.52-.53-.25-.13-.54-.2-.88-.2-.61,0-1.12,.17-1.52,.52-.4,.34-.6,.89-.6,1.65v4.27h-1.47v-4.78c0-.55-.12-.97-.36-1.25-.24-.28-.63-.42-1.18-.42-.41,0-.8,.09-1.15,.28-.35,.18-.61,.45-.76,.81s-.24,.87-.24,1.54v3.81h-1.47Z"/>
  </g>
  <g>
    <path d="M315.64,129.46v-12.96h3.24v1.03h-1.77v10.9h1.77v1.03h-3.24Z"/>
    <path d="M325.38,126.64h-1.47v-7.94c-.35,.29-.82,.57-1.39,.86-.57,.29-1.09,.5-1.55,.64v-1.2c.82-.33,1.54-.72,2.16-1.19,.62-.47,1.05-.92,1.31-1.36h.95v10.19Z"/>
    <path d="M336.88,125.45v1.2h-7.92c-.01-.3,.05-.59,.17-.87,.2-.46,.52-.91,.97-1.35,.44-.44,1.08-.96,1.92-1.54,1.3-.9,2.18-1.62,2.64-2.15s.69-1.03,.69-1.5-.21-.91-.62-1.25c-.42-.34-.96-.51-1.63-.51-.71,0-1.28,.18-1.7,.54-.42,.36-.64,.86-.65,1.5l-1.51-.13c.1-.95,.49-1.68,1.17-2.18,.67-.5,1.58-.75,2.72-.75s2.06,.27,2.73,.81,1,1.21,1,2.01c0,.41-.1,.8-.29,1.2-.2,.39-.52,.8-.98,1.24-.46,.43-1.21,1.03-2.27,1.79-.88,.63-1.45,1.05-1.7,1.28-.25,.22-.46,.45-.62,.67h5.88Z"/>
    <path d="M339.28,126.64v-1.42h1.68v1.42h-1.68Z"/>
    <path d="M343.33,124.3l1.41-.11c.12,.56,.35,.97,.69,1.23,.34,.25,.77,.38,1.3,.38,.45,0,.85-.09,1.19-.26,.34-.17,.62-.41,.84-.7s.4-.69,.55-1.19c.15-.5,.22-1,.22-1.52,0-.05,0-.14,0-.25-.29,.4-.7,.72-1.21,.97-.51,.25-1.06,.37-1.65,.37-.99,0-1.83-.3-2.52-.91-.69-.61-1.03-1.41-1.03-2.41s.36-1.86,1.07-2.48c.72-.63,1.61-.94,2.69-.94,.78,0,1.49,.18,2.14,.53,.65,.36,1.14,.86,1.47,1.52,.33,.66,.5,1.61,.5,2.85s-.17,2.33-.5,3.1c-.33,.77-.83,1.35-1.48,1.75s-1.43,.6-2.31,.6c-.94,0-1.7-.22-2.3-.66-.59-.44-.95-1.06-1.07-1.86Zm6.02-4.48c0-.72-.22-1.28-.67-1.7-.45-.42-.99-.63-1.62-.63s-1.22,.23-1.71,.68c-.49,.45-.73,1.04-.73,1.76,0,.65,.23,1.17,.69,1.57,.46,.4,1.03,.61,1.7,.61s1.24-.2,1.68-.61c.44-.4,.66-.96,.66-1.68Z"/>
    <path d="M352.42,123.96l1.47-.17c.17,.71,.46,1.21,.86,1.53,.41,.31,.9,.47,1.48,.47,.69,0,1.28-.2,1.75-.61s.71-.91,.71-1.51-.22-1.04-.66-1.42c-.44-.37-1-.56-1.68-.56-.28,0-.62,.05-1.04,.14l.16-1.09c.1,0,.18,.01,.24,.01,.63,0,1.19-.14,1.69-.42,.5-.28,.75-.7,.75-1.28,0-.46-.18-.83-.55-1.13s-.84-.45-1.41-.45-1.05,.15-1.43,.46c-.38,.3-.63,.76-.74,1.37l-1.47-.22c.18-.83,.59-1.48,1.23-1.94,.64-.46,1.43-.69,2.38-.69,.65,0,1.26,.12,1.81,.36,.55,.24,.97,.56,1.26,.97,.29,.41,.44,.85,.44,1.31,0,.44-.14,.84-.42,1.2-.28,.36-.69,.65-1.23,.86,.71,.14,1.26,.43,1.65,.86,.39,.44,.59,.98,.59,1.64,0,.89-.38,1.64-1.14,2.25s-1.73,.92-2.89,.92c-1.05,0-1.92-.26-2.62-.8-.69-.53-1.09-1.22-1.19-2.06Z"/>
    <path d="M361.73,123.96l1.47-.17c.17,.71,.46,1.21,.86,1.53,.41,.31,.9,.47,1.48,.47,.69,0,1.28-.2,1.75-.61s.71-.91,.71-1.51-.22-1.04-.66-1.42c-.44-.37-1-.56-1.68-.56-.28,0-.62,.05-1.04,.14l.16-1.09c.1,0,.18,.01,.24,.01,.63,0,1.19-.14,1.69-.42,.5-.28,.75-.7,.75-1.28,0-.46-.18-.83-.55-1.13s-.84-.45-1.41-.45-1.05,.15-1.43,.46c-.38,.3-.63,.76-.74,1.37l-1.47-.22c.18-.83,.59-1.48,1.23-1.94,.64-.46,1.43-.69,2.38-.69,.65,0,1.26,.12,1.81,.36,.55,.24,.97,.56,1.26,.97,.29,.41,.44,.85,.44,1.31,0,.44-.14,.84-.42,1.2-.28,.36-.69,.65-1.23,.86,.71,.14,1.26,.43,1.65,.86,.39,.44,.59,.98,.59,1.64,0,.89-.38,1.64-1.14,2.25s-1.73,.92-2.89,.92c-1.05,0-1.92-.26-2.62-.8-.69-.53-1.09-1.22-1.19-2.06Z"/>
    <path d="M376.09,117.93v-1.43h1.47v1.43h-1.47Zm0,8.71v-7.35h1.47v7.35h-1.47Z"/>
    <path d="M379.8,126.64v-7.35h1.32v1.04c.64-.81,1.56-1.21,2.76-1.21,.52,0,1,.08,1.44,.24s.77,.37,.98,.63c.22,.26,.37,.57,.46,.92,.05,.23,.08,.63,.08,1.21v4.52h-1.47v-4.47c0-.51-.06-.89-.17-1.14-.12-.25-.32-.45-.61-.6-.29-.15-.63-.23-1.03-.23-.63,0-1.17,.17-1.62,.51s-.68,.98-.68,1.92v4.01h-1.47Z"/>
    <path d="M391.57,129.46h-3.24v-1.03h1.77v-10.9h-1.77v-1.03h3.24v12.96Z"/>
  </g>
  <g>
    <path d="M313.11,104.78l1.47-.17c.17,.71,.46,1.21,.86,1.53,.41,.31,.9,.47,1.48,.47,.69,0,1.28-.2,1.75-.61s.71-.91,.71-1.51-.22-1.04-.66-1.42c-.44-.37-1-.56-1.68-.56-.28,0-.62,.05-1.04,.14l.16-1.09c.1,0,.18,.01,.24,.01,.63,0,1.19-.14,1.69-.42,.5-.28,.75-.7,.75-1.28,0-.46-.18-.83-.55-1.13s-.84-.45-1.41-.45-1.05,.15-1.43,.46c-.38,.3-.63,.76-.74,1.37l-1.47-.22c.18-.83,.59-1.48,1.23-1.94,.64-.46,1.43-.69,2.38-.69,.65,0,1.26,.12,1.81,.36,.55,.24,.97,.56,1.26,.97,.29,.41,.44,.85,.44,1.31,0,.44-.14,.84-.42,1.2-.28,.36-.69,.65-1.23,.86,.71,.14,1.26,.43,1.65,.86,.39,.44,.59,.98,.59,1.64,0,.89-.38,1.64-1.14,2.25s-1.73,.92-2.89,.92c-1.05,0-1.92-.26-2.62-.8-.69-.53-1.09-1.22-1.19-2.06Z"/>
    <path d="M330.14,106.26v1.2h-7.92c-.01-.3,.05-.59,.17-.87,.2-.46,.52-.91,.97-1.35,.44-.44,1.08-.96,1.92-1.54,1.3-.9,2.18-1.62,2.64-2.15s.69-1.03,.69-1.5-.21-.91-.62-1.25c-.42-.34-.96-.51-1.63-.51-.71,0-1.28,.18-1.7,.54-.42,.36-.64,.86-.65,1.5l-1.51-.13c.1-.96,.49-1.68,1.17-2.18,.67-.5,1.58-.75,2.72-.75s2.06,.27,2.73,.81c.67,.54,1,1.21,1,2.01,0,.41-.1,.8-.29,1.2-.2,.39-.52,.8-.98,1.24-.46,.43-1.21,1.03-2.27,1.79-.88,.63-1.45,1.05-1.7,1.28-.25,.22-.46,.45-.62,.67h5.88Z"/>
    <path d="M333.98,101.96c-.61-.19-1.06-.46-1.36-.81s-.44-.77-.44-1.26c0-.74,.31-1.36,.94-1.86,.63-.5,1.46-.75,2.5-.75s1.89,.26,2.52,.77c.64,.51,.96,1.14,.96,1.88,0,.47-.15,.88-.44,1.23-.29,.35-.73,.62-1.33,.81,.74,.2,1.29,.53,1.68,.98,.38,.45,.58,.99,.58,1.62,0,.87-.36,1.6-1.09,2.19s-1.68,.89-2.86,.89-2.14-.3-2.86-.89-1.09-1.33-1.09-2.22c0-.66,.2-1.21,.59-1.66s.96-.75,1.69-.91Zm-.77,2.57c0,.36,.1,.7,.3,1.03,.2,.33,.49,.59,.89,.77,.39,.18,.81,.27,1.27,.27,.7,0,1.28-.19,1.74-.57,.46-.38,.69-.87,.69-1.46s-.24-1.1-.71-1.49c-.47-.39-1.06-.59-1.77-.59s-1.26,.19-1.72,.58-.68,.87-.68,1.45Zm.47-4.68c0,.48,.18,.87,.55,1.18,.37,.3,.84,.46,1.42,.46s1.03-.15,1.39-.45,.54-.67,.54-1.11-.19-.84-.56-1.15-.84-.47-1.39-.47-1.03,.15-1.4,.46c-.37,.3-.56,.67-.56,1.09Z"/>
    <path d="M341.85,107.46v-1.42h1.68v1.42h-1.68Z"/>
    <path d="M345.67,104.8l1.54-.11c.11,.64,.38,1.12,.8,1.44,.42,.32,.92,.48,1.51,.48,.71,0,1.31-.23,1.8-.68s.74-1.05,.74-1.8-.24-1.27-.71-1.68c-.47-.41-1.09-.62-1.85-.62-.47,0-.9,.09-1.28,.27-.38,.18-.68,.42-.9,.71l-1.38-.15,1.16-5.21h5.96v1.19h-4.78l-.65,2.73c.72-.42,1.47-.64,2.26-.64,1.05,0,1.93,.31,2.65,.92,.72,.61,1.08,1.4,1.08,2.37s-.32,1.71-.95,2.38c-.77,.82-1.82,1.23-3.15,1.23-1.09,0-1.98-.26-2.67-.78-.69-.52-1.08-1.2-1.18-2.05Z"/>
    <path d="M354.98,102.46c0-1.2,.15-2.17,.44-2.9,.29-.73,.72-1.3,1.3-1.69,.58-.4,1.3-.59,2.17-.59,.64,0,1.21,.11,1.69,.33,.48,.22,.88,.54,1.2,.95,.32,.41,.56,.92,.74,1.51s.27,1.39,.27,2.4c0,1.19-.14,2.15-.43,2.88-.29,.73-.72,1.3-1.29,1.7-.58,.4-1.3,.6-2.18,.6-1.16,0-2.06-.35-2.72-1.05-.79-.84-1.18-2.22-1.18-4.12Zm1.51,0c0,1.67,.23,2.77,.69,3.33,.46,.55,1.03,.83,1.7,.83s1.24-.28,1.7-.83c.46-.55,.69-1.66,.69-3.32s-.23-2.78-.69-3.33c-.46-.55-1.03-.82-1.72-.82s-1.21,.24-1.62,.73c-.51,.62-.76,1.76-.76,3.42Z"/>
    <path d="M369.35,107.46v-7.35h1.32v1.03c.27-.36,.63-.65,1.09-.87,.45-.22,.97-.33,1.54-.33,.64,0,1.17,.11,1.58,.34,.41,.23,.7,.54,.87,.95,.69-.86,1.58-1.29,2.68-1.29,.86,0,1.52,.2,1.99,.61,.46,.4,.69,1.03,.69,1.87v5.04h-1.46v-4.63c0-.5-.05-.86-.14-1.08-.1-.22-.27-.4-.52-.53-.25-.13-.54-.2-.88-.2-.61,0-1.12,.17-1.52,.52-.4,.34-.6,.89-.6,1.65v4.27h-1.47v-4.78c0-.55-.12-.97-.36-1.25-.24-.28-.63-.42-1.18-.42-.41,0-.8,.09-1.15,.28-.35,.18-.61,.45-.76,.81s-.24,.87-.24,1.54v3.81h-1.47Z"/>
    <path d="M383.29,107.46v-7.35h1.32v1.03c.27-.36,.63-.65,1.09-.87,.45-.22,.97-.33,1.54-.33,.64,0,1.17,.11,1.58,.34,.41,.23,.7,.54,.87,.95,.69-.86,1.58-1.29,2.68-1.29,.86,0,1.52,.2,1.99,.61,.46,.4,.69,1.03,.69,1.87v5.04h-1.46v-4.63c0-.5-.05-.86-.14-1.08-.1-.22-.27-.4-.52-.53-.25-.13-.54-.2-.88-.2-.61,0-1.12,.17-1.52,.52-.4,.34-.6,.89-.6,1.65v4.27h-1.47v-4.78c0-.55-.12-.97-.36-1.25-.24-.28-.63-.42-1.18-.42-.41,0-.8,.09-1.15,.28-.35,.18-.61,.45-.76,.81s-.24,.87-.24,1.54v3.81h-1.47Z"/>
  </g>
  <g>
    <path d="M155.4,128.63v-12.96h3.24v1.03h-1.77v10.9h1.77v1.03h-3.24Z"/>
    <path d="M159.83,123.46l1.41-.11c.12,.56,.35,.97,.69,1.23,.34,.25,.77,.38,1.3,.38,.45,0,.85-.09,1.19-.26,.34-.17,.62-.41,.84-.7,.22-.29,.4-.69,.55-1.19,.15-.5,.22-1,.22-1.52,0-.05,0-.14,0-.25-.29,.4-.7,.72-1.21,.97s-1.06,.37-1.65,.37c-.99,0-1.83-.3-2.52-.91-.69-.61-1.03-1.41-1.03-2.41s.36-1.86,1.07-2.48c.72-.63,1.61-.94,2.69-.94,.78,0,1.49,.18,2.14,.53s1.14,.86,1.47,1.52c.33,.66,.5,1.61,.5,2.85s-.17,2.33-.5,3.1c-.33,.77-.83,1.35-1.48,1.75s-1.43,.6-2.31,.6c-.94,0-1.7-.22-2.3-.66-.59-.44-.95-1.06-1.07-1.86Zm6.02-4.48c0-.72-.22-1.28-.67-1.7-.45-.42-.99-.63-1.62-.63s-1.22,.23-1.71,.68c-.48,.45-.73,1.04-.73,1.76,0,.65,.23,1.17,.69,1.57,.46,.4,1.03,.61,1.7,.61s1.24-.2,1.68-.61c.44-.4,.66-.96,.66-1.68Z"/>
    <path d="M169.74,125.81v-1.42h1.67v1.42h-1.67Z"/>
    <path d="M181.29,124.61v1.2h-7.92c-.01-.3,.05-.59,.17-.87,.2-.46,.52-.91,.97-1.35,.44-.44,1.09-.96,1.92-1.54,1.3-.9,2.18-1.62,2.64-2.15s.69-1.03,.69-1.5-.21-.91-.62-1.25c-.42-.34-.96-.51-1.63-.51-.71,0-1.27,.18-1.7,.54-.42,.36-.64,.86-.65,1.5l-1.51-.13c.1-.95,.49-1.68,1.17-2.18,.68-.5,1.58-.75,2.72-.75s2.06,.27,2.73,.81c.67,.54,1.01,1.21,1.01,2.01,0,.41-.1,.8-.29,1.2s-.52,.8-.98,1.24c-.45,.43-1.21,1.03-2.27,1.79-.88,.63-1.45,1.05-1.7,1.28s-.46,.45-.62,.67h5.88Z"/>
    <path d="M187.59,125.81v-2.43h-5.2v-1.14l5.47-6.57h1.2v6.57h1.62v1.14h-1.62v2.43h-1.47Zm0-3.57v-4.57l-3.75,4.57h3.75Z"/>
    <path d="M192.4,123.46l1.41-.11c.12,.56,.35,.97,.69,1.23,.34,.25,.77,.38,1.3,.38,.45,0,.85-.09,1.19-.26,.34-.17,.62-.41,.84-.7,.22-.29,.4-.69,.55-1.19,.15-.5,.22-1,.22-1.52,0-.05,0-.14,0-.25-.29,.4-.7,.72-1.21,.97s-1.06,.37-1.65,.37c-.99,0-1.83-.3-2.52-.91-.69-.61-1.03-1.41-1.03-2.41s.36-1.86,1.07-2.48c.72-.63,1.61-.94,2.69-.94,.78,0,1.49,.18,2.14,.53s1.14,.86,1.47,1.52c.33,.66,.5,1.61,.5,2.85s-.17,2.33-.5,3.1c-.33,.77-.83,1.35-1.48,1.75s-1.43,.6-2.31,.6c-.94,0-1.7-.22-2.3-.66-.59-.44-.95-1.06-1.07-1.86Zm6.02-4.48c0-.72-.22-1.28-.67-1.7-.45-.42-.99-.63-1.62-.63s-1.22,.23-1.71,.68c-.48,.45-.73,1.04-.73,1.76,0,.65,.23,1.17,.69,1.57,.46,.4,1.03,.61,1.7,.61s1.24-.2,1.68-.61c.44-.4,.66-.96,.66-1.68Z"/>
    <path d="M206.55,117.1v-1.43h1.47v1.43h-1.47Zm0,8.71v-7.35h1.47v7.35h-1.47Z"/>
    <path d="M210.26,125.81v-7.35h1.32v1.04c.64-.81,1.56-1.21,2.76-1.21,.52,0,1,.08,1.44,.24s.77,.37,.98,.63c.22,.26,.37,.57,.46,.92,.05,.23,.08,.63,.08,1.21v4.52h-1.47v-4.47c0-.51-.06-.89-.17-1.14-.11-.25-.32-.45-.61-.6-.29-.15-.63-.23-1.03-.23-.63,0-1.17,.17-1.62,.51-.46,.34-.68,.98-.68,1.92v4.01h-1.47Z"/>
    <path d="M222.03,128.63h-3.24v-1.03h1.77v-10.9h-1.77v-1.03h3.24v12.96Z"/>
  </g>
  <g>
    <path d="M166.37,106.57v1.2h-7.92c-.01-.3,.05-.59,.17-.87,.2-.46,.52-.91,.97-1.35,.44-.44,1.09-.96,1.92-1.54,1.3-.9,2.18-1.62,2.64-2.15s.69-1.03,.69-1.5-.21-.91-.62-1.25c-.42-.34-.96-.51-1.63-.51-.71,0-1.27,.18-1.7,.54-.42,.36-.64,.86-.65,1.5l-1.51-.13c.1-.96,.49-1.68,1.17-2.18,.68-.5,1.58-.75,2.72-.75s2.06,.27,2.73,.81c.67,.54,1.01,1.21,1.01,2.01,0,.41-.1,.8-.29,1.2s-.52,.8-.98,1.24c-.45,.43-1.21,1.03-2.27,1.79-.88,.63-1.45,1.05-1.7,1.28s-.46,.45-.62,.67h5.88Z"/>
    <path d="M167.95,105.09l1.47-.17c.17,.71,.46,1.21,.86,1.53s.9,.47,1.48,.47c.69,0,1.28-.2,1.75-.61,.48-.41,.71-.91,.71-1.51s-.22-1.04-.66-1.42c-.44-.37-1-.56-1.68-.56-.28,0-.62,.05-1.04,.14l.16-1.09c.1,0,.18,.01,.24,.01,.63,0,1.19-.14,1.69-.42,.5-.28,.75-.7,.75-1.28,0-.46-.18-.83-.55-1.13s-.84-.45-1.41-.45-1.05,.15-1.43,.46c-.38,.3-.63,.76-.74,1.37l-1.47-.22c.18-.83,.59-1.48,1.23-1.94,.64-.46,1.43-.69,2.38-.69,.65,0,1.26,.12,1.81,.36,.55,.24,.97,.56,1.26,.97,.29,.41,.44,.85,.44,1.31,0,.44-.14,.84-.42,1.2-.28,.36-.69,.65-1.23,.86,.71,.14,1.26,.43,1.65,.86,.39,.44,.59,.98,.59,1.64,0,.89-.38,1.64-1.14,2.25s-1.73,.92-2.89,.92c-1.05,0-1.92-.26-2.62-.8-.69-.53-1.09-1.22-1.19-2.06Z"/>
    <path d="M177.25,105.11l1.54-.11c.11,.64,.38,1.12,.8,1.44,.42,.32,.92,.48,1.51,.48,.71,0,1.31-.23,1.8-.68s.74-1.05,.74-1.8-.24-1.27-.71-1.68c-.47-.41-1.09-.62-1.85-.62-.47,0-.9,.09-1.28,.27-.38,.18-.68,.42-.9,.71l-1.38-.15,1.16-5.21h5.96v1.19h-4.78l-.65,2.73c.72-.42,1.47-.64,2.26-.64,1.05,0,1.93,.31,2.65,.92,.72,.61,1.08,1.4,1.08,2.37s-.32,1.71-.95,2.38c-.77,.82-1.82,1.23-3.15,1.23-1.09,0-1.98-.26-2.67-.78-.69-.52-1.08-1.2-1.18-2.05Z"/>
    <path d="M191.61,107.77v-7.35h1.32v1.03c.27-.36,.63-.65,1.09-.87,.45-.22,.97-.33,1.54-.33,.64,0,1.17,.11,1.58,.34,.41,.23,.7,.54,.87,.95,.69-.86,1.58-1.29,2.68-1.29,.86,0,1.52,.2,1.99,.61s.69,1.03,.69,1.87v5.04h-1.46v-4.63c0-.5-.05-.86-.14-1.08-.1-.22-.27-.4-.52-.53s-.54-.2-.88-.2c-.61,0-1.12,.17-1.52,.52-.4,.34-.6,.89-.6,1.65v4.27h-1.47v-4.78c0-.55-.12-.97-.36-1.25-.24-.28-.63-.42-1.18-.42-.41,0-.8,.09-1.15,.28-.35,.18-.61,.45-.76,.81-.16,.36-.24,.87-.24,1.54v3.81h-1.47Z"/>
    <path d="M205.55,107.77v-7.35h1.32v1.03c.27-.36,.63-.65,1.09-.87,.45-.22,.97-.33,1.54-.33,.64,0,1.17,.11,1.58,.34,.41,.23,.7,.54,.87,.95,.69-.86,1.58-1.29,2.68-1.29,.86,0,1.52,.2,1.99,.61s.69,1.03,.69,1.87v5.04h-1.46v-4.63c0-.5-.05-.86-.14-1.08-.1-.22-.27-.4-.52-.53s-.54-.2-.88-.2c-.61,0-1.12,.17-1.52,.52-.4,.34-.6,.89-.6,1.65v4.27h-1.47v-4.78c0-.55-.12-.97-.36-1.25-.24-.28-.63-.42-1.18-.42-.41,0-.8,.09-1.15,.28-.35,.18-.61,.45-.76,.81-.16,.36-.24,.87-.24,1.54v3.81h-1.47Z"/>
  </g>
  <g>
    <path d="M258.06,178.83v-12.96h3.24v1.03h-1.77v10.9h1.77v1.03h-3.24Z"/>
    <path d="M262.28,173.34l1.47-.17c.17,.71,.46,1.21,.86,1.53,.41,.31,.9,.47,1.48,.47,.69,0,1.28-.2,1.75-.61s.71-.91,.71-1.51-.22-1.04-.66-1.42c-.44-.37-1-.56-1.68-.56-.28,0-.62,.05-1.04,.14l.16-1.09c.1,0,.18,.01,.24,.01,.63,0,1.19-.14,1.69-.42,.5-.28,.75-.7,.75-1.28,0-.46-.18-.83-.55-1.13s-.84-.45-1.41-.45-1.05,.15-1.43,.46c-.38,.3-.63,.76-.74,1.37l-1.47-.22c.18-.83,.59-1.48,1.23-1.94,.64-.46,1.43-.69,2.38-.69,.65,0,1.26,.12,1.81,.36,.55,.24,.97,.56,1.26,.97,.29,.41,.44,.85,.44,1.31,0,.44-.14,.84-.42,1.2-.28,.36-.69,.65-1.23,.86,.71,.14,1.26,.43,1.65,.86,.39,.44,.59,.98,.59,1.64,0,.89-.38,1.64-1.14,2.25s-1.73,.92-2.89,.92c-1.05,0-1.92-.26-2.62-.8-.69-.53-1.09-1.22-1.19-2.06Z"/>
    <path d="M273.84,170.51c-.61-.19-1.06-.46-1.36-.81s-.44-.77-.44-1.26c0-.74,.31-1.36,.94-1.86,.63-.5,1.46-.75,2.5-.75s1.89,.26,2.52,.77c.64,.51,.96,1.14,.96,1.88,0,.47-.15,.88-.44,1.23-.29,.35-.73,.62-1.33,.81,.74,.2,1.29,.53,1.68,.98,.38,.45,.58,.99,.58,1.62,0,.87-.36,1.6-1.09,2.19s-1.68,.89-2.86,.89-2.14-.3-2.86-.89-1.09-1.33-1.09-2.22c0-.66,.2-1.21,.59-1.66s.96-.75,1.69-.91Zm-.77,2.57c0,.36,.1,.7,.3,1.03,.2,.33,.49,.59,.89,.77,.39,.18,.81,.27,1.27,.27,.7,0,1.28-.19,1.74-.57,.46-.38,.69-.87,.69-1.46s-.24-1.1-.71-1.49c-.47-.39-1.06-.59-1.77-.59s-1.26,.19-1.72,.58-.68,.87-.68,1.45Zm.47-4.68c0,.48,.18,.87,.55,1.18,.37,.3,.84,.46,1.42,.46s1.03-.15,1.39-.45,.54-.67,.54-1.11-.19-.84-.56-1.15-.84-.47-1.39-.47-1.03,.15-1.4,.46c-.37,.3-.56,.67-.56,1.09Z"/>
    <path d="M281.71,176.01v-1.42h1.68v1.42h-1.68Z"/>
    <path d="M290.24,176.01v-2.43h-5.2v-1.14l5.47-6.57h1.2v6.57h1.62v1.14h-1.62v2.43h-1.47Zm0-3.57v-4.57l-3.75,4.57h3.75Z"/>
    <path d="M294.84,173.36l1.54-.11c.11,.64,.38,1.12,.8,1.44,.42,.32,.92,.48,1.51,.48,.71,0,1.31-.23,1.8-.68s.74-1.05,.74-1.8-.24-1.27-.71-1.68c-.47-.41-1.09-.62-1.85-.62-.47,0-.9,.09-1.28,.27-.38,.18-.68,.42-.9,.71l-1.38-.15,1.16-5.21h5.96v1.19h-4.78l-.65,2.73c.72-.42,1.47-.64,2.26-.64,1.05,0,1.93,.31,2.65,.92,.72,.61,1.08,1.4,1.08,2.37s-.32,1.71-.95,2.38c-.77,.82-1.82,1.23-3.15,1.23-1.09,0-1.98-.26-2.67-.78-.69-.52-1.08-1.2-1.18-2.05Z"/>
    <path d="M304.15,173.34l1.47-.17c.17,.71,.46,1.21,.86,1.53,.41,.31,.9,.47,1.48,.47,.69,0,1.28-.2,1.75-.61s.71-.91,.71-1.51-.22-1.04-.66-1.42c-.44-.37-1-.56-1.68-.56-.28,0-.62,.05-1.04,.14l.16-1.09c.1,0,.18,.01,.24,.01,.63,0,1.19-.14,1.69-.42,.5-.28,.75-.7,.75-1.28,0-.46-.18-.83-.55-1.13s-.84-.45-1.41-.45-1.05,.15-1.43,.46c-.38,.3-.63,.76-.74,1.37l-1.47-.22c.18-.83,.59-1.48,1.23-1.94,.64-.46,1.43-.69,2.38-.69,.65,0,1.26,.12,1.81,.36,.55,.24,.97,.56,1.26,.97,.29,.41,.44,.85,.44,1.31,0,.44-.14,.84-.42,1.2-.28,.36-.69,.65-1.23,.86,.71,.14,1.26,.43,1.65,.86,.39,.44,.59,.98,.59,1.64,0,.89-.38,1.64-1.14,2.25s-1.73,.92-2.89,.92c-1.05,0-1.92-.26-2.62-.8-.69-.53-1.09-1.22-1.19-2.06Z"/>
    <path d="M318.52,167.3v-1.43h1.47v1.43h-1.47Zm0,8.71v-7.35h1.47v7.35h-1.47Z"/>
    <path d="M322.23,176.01v-7.35h1.32v1.04c.64-.81,1.56-1.21,2.76-1.21,.52,0,1,.08,1.44,.24s.77,.37,.98,.63c.22,.26,.37,.57,.46,.92,.05,.23,.08,.63,.08,1.21v4.52h-1.47v-4.47c0-.51-.06-.89-.17-1.14-.12-.25-.32-.45-.61-.6-.29-.15-.63-.23-1.03-.23-.63,0-1.17,.17-1.62,.51s-.68,.98-.68,1.92v4.01h-1.47Z"/>
    <path d="M333.99,178.83h-3.24v-1.03h1.77v-10.9h-1.77v-1.03h3.24v12.96Z"/>
  </g>
  <g>
    <path d="M259.53,155.76l1.41-.11c.12,.56,.35,.97,.69,1.23,.34,.25,.77,.38,1.3,.38,.45,0,.85-.09,1.19-.26,.34-.17,.62-.41,.84-.7s.4-.69,.55-1.19c.15-.5,.22-1,.22-1.52,0-.05,0-.14,0-.25-.29,.4-.7,.72-1.21,.97-.51,.25-1.06,.37-1.65,.37-.99,0-1.83-.3-2.52-.91-.69-.61-1.03-1.41-1.03-2.41s.36-1.86,1.07-2.48c.72-.63,1.61-.94,2.69-.94,.78,0,1.49,.18,2.14,.53s1.14,.86,1.47,1.52c.33,.66,.5,1.61,.5,2.85s-.17,2.33-.5,3.1c-.33,.77-.83,1.35-1.48,1.75s-1.43,.6-2.31,.6c-.94,0-1.7-.22-2.3-.66-.59-.44-.95-1.06-1.07-1.86Zm6.02-4.48c0-.72-.22-1.28-.67-1.7-.45-.42-.99-.63-1.62-.63s-1.22,.23-1.71,.68c-.49,.45-.73,1.04-.73,1.76,0,.65,.23,1.17,.69,1.57,.46,.4,1.03,.61,1.7,.61s1.24-.2,1.68-.61c.44-.4,.66-.96,.66-1.68Z"/>
    <path d="M268.72,149.29v-1.2h7.75v.97c-.76,.69-1.52,1.6-2.27,2.74s-1.33,2.31-1.74,3.52c-.29,.85-.48,1.78-.56,2.79h-1.51c.02-.8,.2-1.76,.56-2.89,.35-1.13,.86-2.22,1.52-3.27,.66-1.05,1.37-1.93,2.11-2.65h-5.87Z"/>
    <path d="M285.56,150.44l-1.46,.1c-.13-.49-.32-.84-.56-1.07-.4-.36-.89-.53-1.47-.53-.47,0-.88,.11-1.23,.33-.46,.29-.83,.7-1.09,1.25-.27,.55-.41,1.33-.42,2.35,.35-.46,.79-.8,1.3-1.02,.51-.22,1.05-.33,1.61-.33,.98,0,1.82,.31,2.5,.92,.69,.61,1.03,1.4,1.03,2.37,0,.64-.16,1.23-.49,1.77-.32,.55-.77,.97-1.34,1.26-.57,.29-1.21,.44-1.93,.44-1.23,0-2.23-.38-3-1.15s-1.16-2.02-1.16-3.77c0-1.96,.43-3.39,1.28-4.28,.75-.78,1.75-1.16,3.01-1.16,.94,0,1.71,.22,2.32,.67,.6,.45,.96,1.07,1.08,1.85Zm-6.01,4.37c0,.43,.11,.84,.32,1.23,.21,.39,.52,.69,.9,.9s.79,.31,1.22,.31c.62,0,1.16-.21,1.6-.64,.45-.42,.67-1,.67-1.73s-.22-1.25-.66-1.66c-.44-.4-1-.61-1.67-.61s-1.23,.2-1.69,.61c-.46,.4-.69,.93-.69,1.59Z"/>
    <path d="M288.06,158.1v-1.42h1.68v1.42h-1.68Z"/>
    <path d="M291.98,149.29v-1.2h7.75v.97c-.76,.69-1.52,1.6-2.27,2.74s-1.33,2.31-1.74,3.52c-.29,.85-.48,1.78-.56,2.79h-1.51c.02-.8,.2-1.76,.56-2.89,.35-1.13,.86-2.22,1.52-3.27,.66-1.05,1.37-1.93,2.11-2.65h-5.87Z"/>
    <path d="M306.24,158.1v-7.35h1.32v1.03c.27-.36,.63-.65,1.09-.87,.45-.22,.97-.33,1.54-.33,.64,0,1.17,.11,1.58,.34,.41,.23,.7,.54,.87,.95,.69-.86,1.58-1.29,2.68-1.29,.86,0,1.52,.2,1.99,.61,.46,.4,.69,1.03,.69,1.87v5.04h-1.46v-4.63c0-.5-.05-.86-.14-1.08-.1-.22-.27-.4-.52-.53-.25-.13-.54-.2-.88-.2-.61,0-1.12,.17-1.52,.52-.4,.34-.6,.89-.6,1.65v4.27h-1.47v-4.78c0-.55-.12-.97-.36-1.25-.24-.28-.63-.42-1.18-.42-.41,0-.8,.09-1.15,.28-.35,.18-.61,.45-.76,.81s-.24,.87-.24,1.54v3.81h-1.47Z"/>
    <path d="M320.19,158.1v-7.35h1.32v1.03c.27-.36,.63-.65,1.09-.87,.45-.22,.97-.33,1.54-.33,.64,0,1.17,.11,1.58,.34,.41,.23,.7,.54,.87,.95,.69-.86,1.58-1.29,2.68-1.29,.86,0,1.52,.2,1.99,.61,.46,.4,.69,1.03,.69,1.87v5.04h-1.46v-4.63c0-.5-.05-.86-.14-1.08-.1-.22-.27-.4-.52-.53-.25-.13-.54-.2-.88-.2-.61,0-1.12,.17-1.52,.52-.4,.34-.6,.89-.6,1.65v4.27h-1.47v-4.78c0-.55-.12-.97-.36-1.25-.24-.28-.63-.42-1.18-.42-.41,0-.8,.09-1.15,.28-.35,.18-.61,.45-.76,.81s-.24,.87-.24,1.54v3.81h-1.47Z"/>
  </g>
  <path d="M446.2,110.6l-.4,.2-.5,.2-.3,.4-.2,.5v.5l.2,.5,.3,.4,.5,.2,.4,.2-9.9-1.6,9.9-1.5m99.3,3.1l.5-.2,.4-.2,.3-.4,.2-.5v-.5l-.2-.5-.3-.4-.4-.2-.5-.2,9.9,1.5-9.9,1.6" style="fill: none; stroke: #000; stroke-miterlimit: 10; stroke-width: .51px;"/>
  <path d="M260,110.6l-.5,.2-.4,.2-.3,.4-.2,.5v.5l.2,.5,.3,.4,.4,.2,.5,.2-9.9-1.6,9.9-1.5m166.4,3.1l.5-.2,.4-.2,.4-.4,.1-.5v-.5l-.1-.5-.4-.4-.4-.2-.5-.2,9.9,1.5-9.9,1.6" style="fill: none; stroke: #000; stroke-miterlimit: 10; stroke-width: .51px;"/>
  <path d="M240.2,113.7l.5-.2,.4-.2,.3-.4,.2-.5v-.5l-.2-.5-.3-.4-.4-.2-.5-.2,9.9,1.5-9.9,1.6m-113.4-3.1l-.5,.2-.4,.2-.3,.4-.2,.5v.5l.2,.5,.3,.4,.4,.2,.5,.2-9.9-1.6,9.9-1.5" style="fill: none; stroke: #000; stroke-miterlimit: 10; stroke-width: .51px;"/>
  <path d="M545.5,163.3l.5-.2,.4-.2,.3-.4,.2-.5v-.5l-.2-.4-.3-.4-.4-.3-.5-.1,9.9,1.5-9.9,1.5M11.6,160.3l-.5,.1-.4,.3-.4,.4-.1,.4v.5l.1,.5,.4,.4,.4,.2,.5,.2-9.9-1.5,9.9-1.5" style="fill: none; stroke: #000; stroke-miterlimit: 10; stroke-width: .51px;"/>
  <line x1="116.95" y1="34.89" x2="116.95" y2="33.98" style="fill: none; stroke: #000; stroke-dasharray: 0 0 0 0 86.4 3.6 3.6 3.6; stroke-miterlimit: 10; stroke-width: .51px;"/>
  <line x1="115.54" y1="36.31" x2="114.63" y2="36.31" style="fill: none; stroke: #000; stroke-dasharray: 0 0 0 0 86.4 3.6 3.6 3.6; stroke-miterlimit: 10; stroke-width: .51px;"/>
  <line x1="116.95" y1="37.72" x2="116.95" y2="38.63" style="fill: none; stroke: #000; stroke-dasharray: 0 0 0 0 86.4 3.6 3.6 3.6; stroke-miterlimit: 10; stroke-width: .51px;"/>
  <line x1="118.37" y1="36.31" x2="119.28" y2="36.31" style="fill: none; stroke: #000; stroke-dasharray: 0 0 0 0 86.4 3.6 3.6 3.6; stroke-miterlimit: 10; stroke-width: .51px;"/>
  <line x1="250.15" y1="33.43" x2="250.15" y2="20.91" style="fill: none; stroke: #000; stroke-dasharray: 0 0 0 0 86.4 3.6 3.6 3.6; stroke-dashoffset: 85.54px; stroke-miterlimit: 10; stroke-width: .51px;"/>
  <line x1="247.31" y1="36.27" x2="234.78" y2="36.27" style="fill: none; stroke: #000; stroke-dasharray: 0 0 0 0 86.4 3.6 3.6 3.6; stroke-dashoffset: 85.54px; stroke-miterlimit: 10; stroke-width: .51px;"/>
  <line x1="250.15" y1="39.1" x2="250.15" y2="51.63" style="fill: none; stroke: #000; stroke-dasharray: 0 0 0 0 86.4 3.6 3.6 3.6; stroke-dashoffset: 85.54px; stroke-miterlimit: 10; stroke-width: .51px;"/>
  <line x1="252.98" y1="36.27" x2="265.51" y2="36.27" style="fill: none; stroke: #000; stroke-dasharray: 0 0 0 0 86.4 3.6 3.6 3.6; stroke-dashoffset: 85.54px; stroke-miterlimit: 10; stroke-width: .51px;"/>
  <line x1="1.71" y1="38.04" x2="1.71" y2="72.46" style="fill: none; stroke: #000; stroke-dasharray: 0 0 0 0 86.4 3.6 3.6 3.6; stroke-dashoffset: 74.59px; stroke-miterlimit: 10; stroke-width: .51px;"/>
  <path d="M555.4,112.1h-119.1m0-74.7V117.8m119.1-43.6v43.6" style="fill: none; stroke: #000; stroke-linecap: round; stroke-linejoin: round; stroke-width: .51px;"/>
  <path d="M436.3,112.1H250.1m0-75.8V117.8M436.3,37.4V117.8" style="fill: none; stroke: #000; stroke-linecap: round; stroke-linejoin: round; stroke-width: .51px;"/>
  <path d="M250.1,36.3h1.4m-1.4,0v1.4m0-1.4h-1.4m1.4,0v-1.4m-133.2,1.5h1.4m-1.4,0v1.4m0-1.4h-1.4m1.4,0v-1.5m0,77.2H250.1m0-75.8V117.8M116.9,38.7V117.8" style="fill: none; stroke: #000; stroke-linecap: round; stroke-linejoin: round; stroke-width: .51px;"/>
  <path d="M1.7,161.8H555.4m0-87.6v93.2M1.7,72.5v94.9" style="fill: none; stroke: #000; stroke-linecap: round; stroke-linejoin: round; stroke-width: .51px;"/>
  <path d="M446.2,110.6l-.4,.2-.5,.2-.3,.4-.2,.5v.5l.2,.5,.3,.4,.5,.2,.4,.2-9.9-1.6,9.9-1.5m99.3,3.1l.5-.2,.4-.2,.3-.4,.2-.5v-.5l-.2-.5-.3-.4-.4-.2-.5-.2,9.9,1.5-9.9,1.6"/>
  <path d="M260,110.6l-.5,.2-.4,.2-.3,.4-.2,.5v.5l.2,.5,.3,.4,.4,.2,.5,.2-9.9-1.6,9.9-1.5m166.4,3.1l.5-.2,.4-.2,.4-.4,.1-.5v-.5l-.1-.5-.4-.4-.4-.2-.5-.2,9.9,1.5-9.9,1.6"/>
  <path d="M240.2,113.7l.5-.2,.4-.2,.3-.4,.2-.5v-.5l-.2-.5-.3-.4-.4-.2-.5-.2,9.9,1.5-9.9,1.6m-113.4-3.1l-.5,.2-.4,.2-.3,.4-.2,.5v.5l.2,.5,.3,.4,.4,.2,.5,.2-9.9-1.6,9.9-1.5"/>
  <path d="M545.5,163.3l.5-.2,.4-.2,.3-.4,.2-.5v-.5l-.2-.4-.3-.4-.4-.3-.5-.1,9.9,1.5-9.9,1.5M11.6,160.3l-.5,.1-.4,.3-.4,.4-.1,.4v.5l.1,.5,.4,.4,.4,.2,.5,.2-9.9-1.5,9.9-1.5"/>
</svg>