<?xml version="1.0" encoding="UTF-8"?>
<svg xmlns="http://www.w3.org/2000/svg" viewBox="0 0 475.26 607.65">
  <defs>
    <style>
      .cls-1 {
        fill: red;
      }

      .cls-1, .cls-2 {
        stroke-width: 0px;
      }

      .cls-2 {
        fill: #bcbcbc;
      }

      .cls-3 {
        fill: none;
        stroke: #000;
        stroke-linecap: round;
        stroke-linejoin: round;
      }
    </style>
  </defs>
  <g id="_拖拽部分" data-name="拖拽部分">
    <path class="cls-2" d="M128.28,95.65c1.08-.58,2.74-1.39,4.85-2.09,2.92-.97,6.24-1.58,15.15-1.59,4.87-.01,8.5.16,8.78.18,8.06.39,15.05,1.04,22.7,1.88,6.04.66,12.39,1.36,20.9,2.58,13.9,1.99,24.12,4.04,35.26,6.28,7.91,1.59,19.12,3.86,33.91,7.5,3.85.95,18.4,4.56,37.29,10.23,1.51.45,12.96,3.9,27.56,8.98,12.45,4.33,3.87,1.73,17.47,6.88,0,0,6.81,2.58,13.84,7.31.27.18.73.5,1.29.99,1.75,1.53,2.77,3.27,3.38,4.59l2.84-11.73-5.39-9.06-2.26-2.45-3.2-2.36-5.8-3.34-6.95-3.32,1.7-8.11-1.39-3.46-2.66-2.68-8.19-5.03-7.82-3.59-16.42-6.14-18.55-5.76-21.45-5.73-25.39-5.6-34.42-5.85-20.24-2.14-17.76-.34-6.86.84-4.45,1.54-2.43,2.02-.77,1.65-1.5,6.44-16,1.21-4.19,1.17-9.78,6.1-3.05,12.01Z"/>
    <g>
      <rect class="cls-1" x="367.62" y="28.76" width="105.85" height="35.73" transform="translate(50.75 252.25) rotate(-35.4)"/>
      <polygon class="cls-1" points="358.79 40.22 406.29 107.05 348.6 97.29 358.79 40.22"/>
    </g>
  </g>
  <g id="Make2D::可见线::正切线">
    <path class="cls-3" d="M346.46,205.32c-.13.56-.27,1.12-.41,1.67-.07.28-.14.56-.21.83s-.14.56-.21.83c-.07.29-.15.57-.22.86-.04.14-.07.29-.11.43-.04.14-.07.28-.11.43-.14.54-.29,1.07-.44,1.61-.08.28-.15.55-.23.83-.08.28-.16.55-.24.83-.08.28-.16.55-.24.83-.08.27-.17.55-.25.82-.17.54-.34,1.09-.52,1.63-.04.14-.09.27-.13.41-.04.14-.09.27-.14.41-.09.28-.19.55-.29.83-.06.16-.12.33-.18.49s-.12.33-.18.49c-.05.13-.1.27-.16.4-.04.1-.08.2-.12.3-.2.51-.41,1.01-.63,1.51-.12.27-.25.55-.38.82-.03.07-.07.14-.11.21-.02.04-.04.07-.05.11s-.04.07-.06.11-.04.07-.06.11c-.02.04-.04.07-.06.11-.04.07-.07.14-.11.21-.13.25-.27.49-.41.74-.12.21-.25.41-.38.62-.17.26-.35.52-.54.77-.08.1-.16.2-.24.3-.09.11-.18.22-.27.32-.2.22-.41.44-.64.64-.05.05-.1.09-.16.14-.03.02-.05.04-.08.07-.03.02-.05.04-.08.06-.1.08-.2.16-.31.23-.03.02-.06.04-.09.06s-.06.04-.09.06-.06.04-.09.06c-.03.02-.06.04-.09.05-.03.02-.06.03-.09.05-.03.02-.07.04-.1.05-.07.04-.14.07-.2.1-.13.06-.27.12-.41.17-.07.02-.14.05-.21.07-.07.02-.14.04-.21.06-.14.03-.27.06-.41.08-.07,0-.14.02-.21.02-.07,0-.14,0-.2.01-.14,0-.28,0-.43,0-.15,0-.29-.03-.44-.05"/>
    <path class="cls-3" d="M363.75,143.98c1.43.91,2.99,2.02,4.23,3.18.62.59,1.26,1.28,1.71,2.01.12.2.23.4.33.62.09.19.16.39.21.59.06.22.09.45.1.67,0,.21-.02.43-.07.63"/>
    <path class="cls-3" d="M363.75,143.98c-.35-.22-.71-.44-1.06-.66-.38-.23-.76-.46-1.15-.68-.41-.24-.82-.47-1.24-.7-.44-.24-.88-.48-1.33-.72-.97-.51-1.95-1.01-2.93-1.49-1.09-.53-2.19-1.05-3.3-1.56-1.21-.55-2.44-1.09-3.66-1.62-1.34-.57-2.68-1.13-4.03-1.68-1.46-.59-2.92-1.17-4.38-1.73-1.57-.6-3.15-1.19-4.73-1.77-2.18-.8-4.37-1.57-6.57-2.33-2.35-.81-4.71-1.6-7.07-2.37-2.5-.82-5.01-1.62-7.52-2.4-2.63-.82-5.27-1.62-7.91-2.4-2.37-.7-4.75-1.39-7.13-2.07-2.44-.69-4.88-1.37-7.33-2.04-5-1.36-10.03-2.68-15.05-3.95-4.98-1.26-10-2.47-15-3.64-4.93-1.15-9.87-2.26-14.82-3.32-5.07-1.09-10.15-2.14-15.23-3.14-.62-.12-1.23-.24-1.85-.36-.61-.12-1.23-.24-1.84-.36-1.23-.24-2.46-.47-3.69-.7-2.47-.46-4.94-.92-7.41-1.36-5.1-.91-10.22-1.77-15.34-2.57-2.51-.39-5.02-.77-7.54-1.13-2.45-.35-4.91-.69-7.37-1.02-2.77-.36-5.53-.71-8.31-1.02-2.63-.3-5.27-.58-7.9-.83-1.26-.12-2.51-.23-3.77-.34-1.21-.1-2.42-.2-3.64-.29-1.16-.09-2.33-.17-3.49-.24-1.11-.07-2.23-.13-3.34-.18-1.14-.05-2.28-.1-3.41-.14-1.07-.03-2.15-.06-3.22-.08-1.01-.01-2.01-.02-3.02-.01-.94,0-1.87.02-2.81.05-.86.02-1.73.06-2.59.11-.79.04-1.58.1-2.37.17-.72.06-1.44.14-2.15.22-.64.08-1.29.17-1.93.28-.57.1-1.14.21-1.71.33-.26.06-.52.12-.77.19-.24.06-.48.13-.72.2-.22.07-.44.14-.66.21-.2.07-.41.14-.61.22-.19.07-.37.15-.55.23-.17.08-.34.16-.5.25-.15.08-.3.16-.45.26-.14.08-.27.17-.4.27-.23.17-.45.35-.64.56-.17.18-.32.38-.44.6-.11.2-.2.41-.25.63"/>
    <line class="cls-3" x1="308.68" y1="286.39" x2="310.84" y2="277.38"/>
    <line class="cls-3" x1="129.3" y1="235.05" x2="129.21" y2="235.43"/>
    <line class="cls-3" x1="99.68" y1="215.26" x2="102.51" y2="203.53"/>
    <line class="cls-3" x1="62.12" y1="501.18" x2="62.13" y2="501.13"/>
    <path class="cls-3" d="M128.67,587.23c.13,0,.25.02.38.03"/>
    <line class="cls-3" x1="135.95" y1="525.89" x2="134.71" y2="521.37"/>
    <line class="cls-3" x1="133.28" y1="516.19" x2="133.27" y2="516.15"/>
    <line class="cls-3" x1="137.19" y1="526.72" x2="145.22" y2="529.09"/>
    <path class="cls-3" d="M135.95,525.89c.78.18,1.59.37,2.36.55.8.19,1.56.38,2.35.58.79.2,1.56.42,2.34.65.78.23,1.55.47,2.31.73"/>
    <line class="cls-3" x1="59.85" y1="512.59" x2="59.85" y2="512.59"/>
    <line class="cls-3" x1="139.94" y1="519.05" x2="139.18" y2="522.2"/>
    <path class="cls-3" d="M145.27,528.78l-.27-.08"/>
    <path class="cls-3" d="M143.54,536.26c-.65-.16-1.31-.32-1.96-.47-.33-.08-.65-.16-.98-.24-.33-.08-.65-.16-.98-.24-1.3-.32-2.6-.63-3.89-.95-1.3-.32-2.61-.64-3.91-.96-.65-.16-1.3-.32-1.94-.48-.32-.08-.65-.16-.97-.24-.32-.08-.64-.16-.97-.24-5.17-1.29-10.4-2.62-15.56-3.96-5.15-1.33-10.4-2.72-15.53-4.12-1.32-.36-2.64-.72-3.96-1.09-.64-.18-1.27-.35-1.91-.53-.31-.09-.63-.17-.94-.26-.15-.04-.31-.09-.46-.13-.15-.04-.31-.09-.46-.13-1.33-.37-2.66-.75-3.99-1.13-.63-.18-1.27-.36-1.9-.55-.31-.09-.62-.18-.92-.27-.15-.04-.3-.09-.45-.13-.08-.02-.15-.04-.23-.07-.04-.01-.07-.02-.11-.03-.02,0-.04-.01-.06-.02,0,0-.02,0-.03,0,0,0,0,0-.01,0h0s0,0,0,0"/>
    <path class="cls-3" d="M81.4,520s0,0-.01,0c0,0,0,0-.01,0,0,0-.02,0-.03,0-.02,0-.04-.01-.05-.02-.04-.01-.07-.02-.11-.03-.07-.02-.15-.04-.22-.06-.14-.04-.29-.09-.43-.13-.28-.08-.57-.17-.85-.25-.55-.16-1.1-.33-1.65-.49-1.03-.31-2.06-.63-3.09-.95-.93-.29-1.87-.58-2.8-.89-.83-.27-1.66-.54-2.49-.82-.51-.17-1.02-.35-1.53-.53-.46-.16-.92-.32-1.38-.49-.41-.15-.82-.3-1.22-.46-.36-.14-.71-.28-1.06-.42-.16-.07-.31-.13-.47-.2-.14-.06-.29-.12-.43-.19-.13-.06-.26-.12-.39-.18-.12-.06-.23-.11-.35-.17-.1-.05-.2-.1-.31-.16-.09-.05-.18-.1-.26-.15-.08-.04-.15-.09-.22-.14-.06-.04-.12-.09-.18-.13-.05-.04-.09-.08-.14-.12-.03-.03-.07-.07-.1-.11-.02-.03-.04-.07-.05-.1,0-.03-.01-.06-.01-.09,0-.03.02-.06.03-.08.02-.03.05-.05.07-.07.04-.02.08-.04.12-.06.05-.02.11-.04.16-.05.07-.02.13-.03.2-.04.08-.01.16-.02.25-.03.1,0,.19-.01.29-.02.11,0,.22,0,.33,0,.12,0,.25,0,.37,0,.14,0,.28,0,.41.01.15,0,.3.01.46.02.17,0,.33.02.5.03.35.03.69.06,1.04.09.39.04.79.08,1.18.12.05,0,.11.01.16.02.05,0,.11.01.16.02.11.01.22.03.33.04.23.03.45.06.68.08.49.06.97.13,1.46.2.53.07,1.07.15,1.6.23.58.09,1.16.18,1.73.27.62.1,1.24.2,1.87.3.67.11,1.33.22,2,.34.91.16,1.82.31,2.74.48.98.17,1.96.35,2.94.53,1.04.19,2.09.39,3.13.58,1.1.21,2.21.42,3.31.64,1.94.38,3.88.76,5.82,1.15,2.08.42,4.17.85,6.25,1.28,1.96.41,3.93.82,5.89,1.24,2.05.44,4.11.88,6.16,1.32l.73.16c.24.05.49.11.73.16.49.11.98.21,1.48.32.99.22,1.99.44,2.99.66.25.06.5.11.75.17.25.06.5.11.76.17.51.11,1.01.22,1.52.34,1.02.23,2.04.46,3.07.69.25.05.49.11.74.17l.74.17c.5.11.99.22,1.49.34,1,.22,1.99.45,2.99.68.25.06.5.11.75.17.25.06.5.11.75.17.5.11,1.01.23,1.51.35.25.06.5.12.76.17.25.06.51.12.76.17.51.12,1.01.23,1.52.35"/>
    <path class="cls-3" d="M59.85,512.59c-.08-.04-.17-.09-.25-.13-.07-.04-.15-.08-.22-.13-.06-.04-.13-.08-.19-.12-.05-.04-.11-.07-.16-.11-.04-.03-.09-.07-.13-.11-.03-.03-.07-.06-.1-.1-.02-.03-.05-.06-.07-.09-.02-.03-.03-.06-.04-.09-.01-.05,0-.1.02-.15.01-.02.03-.05.06-.06.03-.02.06-.04.09-.06.04-.02.08-.04.12-.05.05-.02.1-.03.15-.04.06-.01.12-.02.18-.03.07-.01.14-.02.21-.03.08,0,.16-.01.24-.02.09,0,.18,0,.27-.01.1,0,.2,0,.3,0,.11,0,.22,0,.33,0,.25,0,.51.02.76.03.29.02.59.04.88.06.33.03.67.06,1,.09.37.04.75.08,1.12.12.41.05.83.1,1.24.15.45.06.9.12,1.36.18.71.1,1.43.2,2.14.31.79.12,1.58.24,2.37.37.87.14,1.73.28,2.59.43.46.08.92.16,1.38.24.12.02.24.04.35.06.12.02.24.04.36.06.24.04.48.08.72.13,1.57.28,3.14.56,4.71.85,1.72.32,3.45.65,5.17.98,1.59.31,3.19.62,4.78.94.21.04.41.08.62.12.21.04.42.08.62.13.42.08.84.17,1.26.25.86.17,1.71.35,2.57.52,1.61.33,3.21.66,4.81,1,1.67.35,3.34.7,5.01,1.06,1.61.34,3.23.69,4.84,1.04,1.66.36,3.32.72,4.98,1.09,6.51,1.43,13.11,2.92,19.6,4.41"/>
    <path class="cls-3" d="M130.11,153.84s-.03,0-.05,0c0,0-.02,0-.02,0,0,0-.02,0-.02.01"/>
    <path class="cls-3" d="M144.83,154.18c-.13-.04-.28-.08-.41-.1-.07-.01-.14-.03-.21-.04-.06,0-.15-.02-.21-.02"/>
    <path class="cls-3" d="M141.82,140.91c-.26-.08-.53-.13-.8-.15"/>
    <path class="cls-3" d="M333.82,197.37c-.06-.03-.14-.06-.2-.07-.07-.02-.14-.04-.2-.06-.13-.03-.28-.06-.41-.08"/>
    <path class="cls-3" d="M344.98,202.97s0-.01,0-.02c0,0,0,0-.02-.01-.01,0-.02-.01-.03-.02"/>
    <path class="cls-3" d="M336.45,213.76c.11.02.22.03.33.03"/>
    <path class="cls-3" d="M341.82,186.54c-.21-.09-.43-.15-.65-.18"/>
    <path class="cls-3" d="M263.83,74.01s0,0,0,0c0,0,0,0,0,0,0,0,0,.01,0,.02"/>
    <line class="cls-3" x1="71.4" y1="505.35" x2="70.8" y2="507.85"/>
    <line class="cls-3" x1="44.2" y1="503.65" x2="44.09" y2="504.13"/>
    <path class="cls-3" d="M329.18,95.87c-5.24-2.08-10.81-4.04-16.16-5.79-5.41-1.77-10.95-3.45-16.42-5.02-5.49-1.57-11.05-3.06-16.58-4.46-5.54-1.4-11.13-2.74-16.71-3.99"/>
    <path class="cls-3" d="M329.18,95.87c4.13,1.64,8.68,3.6,12.62,5.67,1.96,1.03,4.12,2.28,5.91,3.6.26.19.52.39.78.6.23.19.47.38.69.58.21.18.41.37.6.57.18.18.35.36.51.55.12.14.24.29.35.43.1.14.2.28.29.42.08.13.16.27.23.41.07.13.13.26.18.4.09.24.16.49.18.75.02.23,0,.47-.05.7"/>
    <path class="cls-3" d="M162.76,68.93c.07-.27.18-.52.34-.75.09-.12.18-.24.29-.35.11-.12.24-.23.37-.34.14-.11.29-.22.45-.32.17-.11.35-.21.53-.3.2-.1.4-.2.61-.28.23-.1.46-.18.69-.26.25-.09.51-.17.77-.24.28-.08.56-.16.85-.22.31-.07.62-.14.93-.2.34-.07.67-.13,1.01-.18.36-.06.72-.11,1.09-.16.39-.05.78-.1,1.16-.14.41-.04.83-.08,1.24-.12.44-.04.88-.07,1.31-.1.94-.06,1.88-.1,2.82-.13,1.03-.03,2.06-.04,3.09-.04,1.12,0,2.23.02,3.34.04,1.19.03,2.38.07,3.57.13,1,.05,2,.1,3,.16,1.04.06,2.08.13,3.12.21.13,0,.27.02.4.03.13.01.27.02.4.03.27.02.54.04.81.06.55.04,1.1.09,1.65.14,1.14.1,2.28.21,3.42.32,2.06.2,4.12.43,6.18.67,2.19.26,4.38.53,6.57.82,8.41,1.12,17.01,2.52,25.36,4.05,8.38,1.54,16.85,3.28,25.16,5.15"/>
    <path class="cls-3" d="M171.9,96.28c.37.17.75.33,1.12.49"/>
    <path class="cls-3" d="M317.91,127.17c-.3-.02-.6-.05-.9-.07-.15-.01-.3-.02-.45-.04-.15-.01-.3-.02-.45-.04"/>
    <path class="cls-3" d="M363.75,143.98c.07-.28.06-.58-.04-.86-.1-.28-.29-.51-.53-.67"/>
    <path class="cls-3" d="M81.4,520c-.1-.02-.19-.04-.29-.06-.05-.01-.1-.02-.14-.04s-.1-.03-.14-.04"/>
    <path class="cls-3" d="M126.62,155.08c.37-1.52.75-3.03,1.17-4.53.21-.75.42-1.49.64-2.24.11-.38.22-.75.34-1.12.06-.19.11-.38.17-.56.06-.19.12-.38.18-.56.23-.73.47-1.46.72-2.18.03-.09.06-.18.09-.28.03-.09.06-.19.1-.28.07-.19.13-.37.2-.56.07-.19.13-.38.2-.56.07-.19.14-.38.21-.57.26-.7.53-1.39.81-2.08.08-.19.15-.37.23-.56.02-.05.04-.09.06-.14.02-.05.04-.1.06-.14.04-.1.08-.19.12-.29.04-.1.09-.19.13-.29.04-.1.09-.2.13-.29.02-.05.04-.1.07-.15.02-.04.04-.09.06-.13.04-.09.08-.17.12-.25.17-.37.35-.74.53-1.11.04-.09.09-.18.14-.27.04-.09.09-.18.14-.27.09-.18.18-.35.27-.52.09-.17.19-.34.28-.51.05-.08.09-.17.14-.25l.14-.25c.18-.32.37-.64.57-.95.21-.34.44-.67.67-1,.06-.08.11-.16.17-.24s.11-.16.17-.24c.06-.08.11-.16.17-.23.06-.08.12-.16.18-.23.25-.32.5-.62.77-.92.25-.28.5-.54.77-.8.31-.3.63-.59.97-.85.31-.24.62-.47.96-.68.3-.19.62-.36.94-.52.34-.16.7-.3,1.06-.42.38-.12.76-.21,1.15-.27.19-.03.38-.05.58-.07.19-.01.39-.02.58-.02.19,0,.39.01.58.03.1,0,.19.02.29.03s.19.03.29.04h.07s.05.02.07.02c.05,0,.1.02.14.03.09.02.19.04.28.06.19.04.38.1.56.15"/>
    <path class="cls-3" d="M343.88,172.07c.38.06.76.15,1.13.27.18.06.35.13.52.2.17.08.33.16.49.25.16.09.32.19.47.3.08.05.15.11.22.16s.15.12.22.18c.14.12.28.25.41.39.03.03.07.07.1.1s.07.07.1.11c.07.07.13.15.19.22.22.27.41.55.59.84.05.08.09.16.13.23.02.04.04.08.07.12.02.04.04.08.06.12.09.17.17.34.24.51.32.74.55,1.51.72,2.29.08.36.14.73.2,1.09.06.37.1.75.13,1.13.03.34.05.68.07,1.02.02.43.03.85.04,1.28,0,.35,0,.71,0,1.06,0,.2,0,.39-.02.59,0,.21-.02.43-.03.64-.02.4-.05.8-.08,1.19-.03.35-.06.71-.09,1.06-.03.34-.07.69-.11,1.03-.03.29-.07.58-.11.87-.05.44-.11.88-.18,1.32-.03.22-.06.43-.09.65-.02.11-.03.21-.05.32-.02.11-.03.21-.05.32-.06.36-.12.73-.18,1.09-.03.18-.06.35-.09.53-.02.09-.03.18-.04.26-.02.09-.03.17-.05.26-.14.78-.28,1.56-.43,2.34-.04.19-.07.38-.11.56l-.11.56c-.04.18-.07.37-.11.55-.04.18-.07.37-.11.55-.04.18-.08.36-.11.55-.04.18-.08.36-.11.54-.08.38-.16.76-.25,1.14-.32,1.48-.66,2.96-1.02,4.43"/>
    <line class="cls-3" x1="334.26" y1="228.1" x2="334.26" y2="228.1"/>
    <path class="cls-3" d="M128.65,180.95c-.15-.04-.3-.1-.44-.15-.07-.03-.14-.06-.21-.09s-.14-.06-.21-.1c-.25-.12-.49-.26-.72-.43-.23-.16-.44-.34-.64-.54-.21-.21-.41-.44-.59-.68-.17-.22-.32-.46-.45-.7-.07-.13-.14-.26-.2-.39-.03-.07-.07-.14-.1-.21-.02-.04-.03-.07-.05-.11l-.05-.11s-.03-.07-.04-.11c-.02-.04-.03-.08-.04-.11-.02-.06-.05-.12-.07-.19-.04-.12-.09-.25-.13-.38-.09-.29-.17-.59-.24-.89-.06-.28-.12-.56-.16-.84,0-.04-.01-.08-.02-.11,0-.04-.01-.08-.02-.12-.01-.07-.02-.14-.03-.22-.02-.14-.03-.28-.05-.41-.03-.29-.06-.57-.07-.86,0-.07,0-.15-.01-.22,0-.07,0-.15-.01-.22,0-.08,0-.15,0-.23,0-.08,0-.15,0-.23,0-.07,0-.13,0-.2,0-.07,0-.14,0-.2,0-.07,0-.14,0-.21s0-.14,0-.2c0-.26,0-.53.02-.79,0-.3.02-.6.04-.9,0-.16.02-.33.03-.49.01-.16.02-.32.04-.48.02-.28.05-.56.07-.83,0-.07.01-.14.02-.21,0-.07.01-.14.02-.2l.02-.21c0-.07.02-.15.02-.22.03-.3.07-.6.11-.9.02-.15.04-.3.06-.45.02-.15.04-.3.06-.45.04-.27.08-.54.12-.82.02-.13.04-.27.06-.4.02-.14.05-.28.07-.43.1-.6.2-1.2.31-1.8.42-2.28.92-4.58,1.46-6.83"/>
    <path class="cls-3" d="M146.06,127.07s0,0,0,0"/>
    <path class="cls-3" d="M133.38,571.06c-3.3-.32-6.6-.3-9.89.05-1.71.18-3.41.44-5.1.79-1.74.35-3.45.79-5.15,1.31-1.56.47-3.1,1.01-4.61,1.6-1.56.61-3.1,1.28-4.61,2.01-3.15,1.51-6.18,3.26-9.08,5.19-2.78,1.85-5.45,3.86-8,6.01-2.65,2.23-5.18,4.6-7.59,7.08-1.14,1.18-2.26,2.38-3.35,3.61-.14.15-.27.31-.41.46-.14.16-.27.31-.41.47-.27.31-.54.63-.81.94-.55.64-1.09,1.28-1.62,1.94-2.21,2.69-4.3,5.48-6.29,8.34-1.9,2.74-3.71,5.55-5.42,8.42-1.77,2.97-3.44,6-5.01,9.08-3.08,6.05-5.78,12.31-8.11,18.69-4.65,12.72-7.88,26.11-9.56,39.55"/>
    <path class="cls-3" d="M146.07,127.07s.01,0,.02,0"/>
    <path class="cls-3" d="M355.05,207.79c.33-1.37.64-2.74.94-4.11.31-1.42.59-2.84.86-4.27.27-1.43.53-2.89.75-4.34.03-.17.05-.34.08-.5.03-.17.05-.34.08-.51.05-.34.1-.68.15-1.03.05-.35.1-.7.14-1.04.02-.18.05-.35.07-.53s.04-.35.07-.53c.04-.38.09-.76.13-1.13.02-.19.04-.38.06-.57.01-.12.02-.24.03-.35.05-.47.09-.95.13-1.43.03-.35.05-.7.07-1.05.03-.42.05-.83.07-1.25.02-.48.04-.96.05-1.44,0-.44.01-.89,0-1.33,0-.12,0-.25,0-.37,0-.06,0-.12,0-.18,0-.06,0-.12,0-.18,0-.23-.01-.47-.02-.7-.02-.44-.04-.87-.07-1.31-.03-.4-.06-.8-.11-1.2-.04-.37-.09-.73-.14-1.1-.05-.33-.1-.66-.17-1-.06-.3-.12-.6-.19-.9-.12-.52-.26-1.03-.42-1.54-.05-.16-.1-.31-.16-.47-.04-.1-.07-.2-.11-.31-.02-.05-.04-.1-.06-.15-.02-.05-.04-.1-.06-.15-.15-.38-.32-.75-.5-1.12-.17-.34-.36-.68-.57-1.01-.05-.08-.1-.16-.15-.23-.05-.08-.1-.15-.16-.23-.1-.15-.21-.29-.32-.43-.22-.27-.45-.53-.69-.77-.12-.12-.24-.23-.37-.35-.06-.05-.12-.11-.19-.16-.06-.05-.13-.1-.19-.16-.25-.2-.52-.38-.79-.55-.14-.08-.27-.16-.42-.24-.14-.08-.29-.15-.43-.21-.14-.06-.28-.12-.43-.18-.15-.06-.29-.11-.44-.16-.31-.1-.61-.18-.93-.24-.67-.14-1.35-.19-2.03-.19-.37,0-.73.03-1.1.06-.09,0-.19.02-.28.03s-.19.03-.29.04c-.19.03-.39.06-.58.1-.1.02-.2.04-.29.06-.09.02-.19.04-.28.07-.09.02-.18.04-.27.07-.09.02-.19.05-.28.08-.39.11-.77.23-1.15.37-.6.22-1.19.47-1.77.74-.08.04-.15.07-.23.11-.08.04-.15.08-.23.11-.04.02-.08.04-.11.06-.04.02-.07.04-.1.05-.06.03-.12.07-.19.1-.26.14-.53.29-.78.44-.6.35-1.18.72-1.74,1.12-.32.23-.64.46-.96.7-.41.31-.8.63-1.19.97-.4.35-.8.7-1.19,1.07-.32.3-.63.61-.94.92-.24.24-.47.49-.7.74-.09.1-.18.19-.26.29-.07.08-.14.16-.21.23-.08.09-.17.19-.25.29-.13.15-.25.29-.37.44-.07.08-.13.16-.2.24-.06.08-.13.16-.19.24-.5.62-.97,1.25-1.43,1.89"/>
    <path class="cls-3" d="M117.66,153.54c.26-1.06.52-2.12.81-3.17.14-.53.28-1.05.43-1.57.15-.53.3-1.05.45-1.58.15-.52.31-1.04.47-1.57.16-.52.33-1.04.49-1.56.09-.29.19-.58.29-.87.08-.22.15-.45.23-.67.18-.52.36-1.04.54-1.55.02-.06.04-.11.06-.17.02-.06.04-.12.06-.18.04-.12.09-.24.13-.36.05-.12.09-.25.14-.37.02-.06.05-.13.07-.19l.07-.19c.2-.54.41-1.07.62-1.61.21-.52.42-1.03.63-1.55.11-.25.21-.5.32-.74.03-.06.05-.12.08-.18.03-.06.05-.12.08-.18.05-.12.11-.24.16-.36.09-.2.18-.4.27-.59.04-.1.09-.19.13-.29.04-.1.09-.19.13-.29.04-.09.09-.19.13-.28.08-.16.15-.32.23-.48.17-.34.34-.68.51-1.02.22-.42.44-.84.67-1.25.09-.16.18-.32.27-.48.07-.13.15-.26.22-.39.1-.18.21-.35.31-.53.03-.05.06-.09.08-.14l.02-.04s0,0,0-.01c0,0,0,0,0,0,0,0,0,0,0,0h0"/>
    <path class="cls-3" d="M126.81,129.11c.29-.47.58-.94.88-1.4.26-.39.53-.78.8-1.16.23-.32.47-.63.71-.94l.08-.1s.05-.07.08-.1c.07-.09.15-.18.22-.27.15-.18.3-.36.46-.54.34-.39.69-.77,1.06-1.14.34-.34.69-.67,1.05-.98.09-.07.17-.15.26-.22.09-.07.17-.14.26-.21.17-.14.34-.27.52-.4.33-.24.67-.47,1.02-.69.1-.06.2-.12.3-.18.05-.03.1-.06.15-.09.05-.03.1-.05.15-.08.05-.03.1-.05.15-.08.05-.03.1-.05.15-.08.05-.03.1-.05.15-.08.05-.03.11-.05.16-.08.43-.21.88-.39,1.33-.54.87-.29,1.77-.48,2.68-.54.45-.03.9-.03,1.35,0,.22.02.45.04.67.07.11.02.22.03.34.05s.22.04.34.06c.46.09.91.21,1.35.36.23.08.45.16.67.25.11.05.22.09.34.14.11.05.22.1.34.15.8.38,1.57.85,2.28,1.37.19.14.38.28.56.43.09.07.18.15.28.23.09.08.18.15.27.23.37.32.72.66,1.06,1.01.08.08.16.16.23.24.08.08.15.17.23.25.08.08.15.17.23.26.08.09.15.17.23.26s.15.18.22.27.15.18.22.27c.11.14.22.28.33.43.26.34.51.69.75,1.05.31.46.6.93.88,1.41.03.06.07.11.1.17.03.06.07.11.1.17.03.06.07.12.1.18.03.06.07.12.1.18.13.24.25.48.38.72.22.43.43.87.63,1.32.09.2.18.41.26.61l.06.15s.04.1.06.15c.04.09.08.19.11.28.15.37.28.75.42,1.12.04.13.09.25.13.38.02.06.04.12.06.19.02.06.04.12.06.19.08.24.15.49.23.73.14.46.26.93.38,1.4.21.83.38,1.66.53,2.5"/>
    <path class="cls-3" d="M329.3,131.37c.41.01.83.02,1.25.03"/>
    <path class="cls-3" d="M186.72,98.38c-.56-.21-1.11-.41-1.67-.62"/>
    <line class="cls-3" x1="309.99" y1="125.13" x2="310.48" y2="124.85"/>
    <line class="cls-3" x1="203.07" y1="100.76" x2="203.64" y2="100.43"/>
    <line class="cls-3" x1="341.16" y1="135.98" x2="341" y2="135.66"/>
    <path class="cls-3" d="M130.11,153.84c.16-.65.34-1.3.55-1.94.1-.32.21-.63.33-.95.12-.31.24-.62.36-.93.13-.3.26-.6.39-.9.14-.31.29-.62.45-.93.08-.15.16-.3.24-.45.04-.07.08-.15.12-.22.04-.07.08-.15.12-.22.04-.07.08-.14.12-.22.04-.07.09-.14.13-.22.09-.14.17-.29.26-.43.37-.59.78-1.16,1.21-1.71.21-.26.42-.51.64-.75.11-.12.22-.23.33-.34.11-.11.22-.22.33-.33.04-.04.07-.07.11-.1.04-.03.07-.07.11-.1.07-.07.15-.13.22-.19.07-.06.15-.12.22-.18.04-.03.07-.06.11-.09.04-.03.07-.06.11-.09.07-.06.15-.11.22-.16.04-.03.07-.05.11-.08.04-.03.07-.05.11-.08.14-.1.29-.19.44-.28.27-.16.54-.3.83-.41.26-.11.53-.2.81-.26.17-.04.34-.07.52-.09.09,0,.17-.02.25-.02.04,0,.08,0,.13,0s.08,0,.13,0c.33,0,.65.05.96.15.15.05.3.1.45.17.07.03.14.07.22.11.07.04.14.08.21.13.07.04.14.09.2.14.03.02.07.05.1.08.03.03.07.05.1.08.07.06.13.12.2.18.07.07.13.13.2.2.05.05.09.11.14.16.02.03.05.06.07.08s.04.06.07.09c.04.06.09.12.13.18.04.06.08.12.12.19.02.03.04.06.06.1.02.03.04.07.06.1.04.07.08.14.12.21.08.15.15.29.22.44.14.32.27.65.37.98.01.04.03.09.04.13.01.04.03.09.04.13.03.09.05.18.07.27.02.09.04.19.07.28.01.05.02.09.03.14,0,.05.02.1.03.14.02.08.03.15.04.23,0,.04.01.08.02.12l.02.12c.02.16.05.32.07.48.02.16.04.32.05.49.01.17.02.33.03.5,0,.08,0,.17.01.25,0,.09,0,.17,0,.26,0,.09,0,.17,0,.26v.13s0,.09,0,.13c0,.09,0,.18,0,.27,0,.08,0,.17,0,.25,0,.17-.01.34-.02.51-.04.65-.11,1.31-.21,1.96-.1.68-.24,1.35-.4,2.02"/>
    <path class="cls-3" d="M143.99,154.02c-.16.65-.34,1.3-.55,1.94-.1.32-.21.63-.33.95-.12.31-.24.63-.37.93-.12.3-.26.6-.39.9-.14.31-.29.62-.45.93-.08.15-.16.3-.24.45-.08.15-.16.29-.24.44-.08.14-.17.29-.25.43-.09.14-.17.29-.26.43-.19.3-.39.6-.59.89-.1.14-.2.28-.31.42-.1.14-.21.27-.31.4-.21.26-.42.51-.64.75-.05.06-.11.12-.16.17-.05.06-.11.11-.16.17-.11.11-.22.22-.33.33-.28.27-.58.52-.89.76-.07.06-.15.11-.22.16-.07.05-.15.1-.22.16-.14.1-.29.19-.44.28-.27.16-.54.3-.83.41-.26.11-.53.2-.81.26-.34.08-.68.12-1.02.11-.33,0-.65-.05-.96-.15-.15-.05-.3-.1-.45-.17-.07-.03-.14-.07-.22-.11s-.14-.08-.21-.13c-.07-.04-.14-.09-.2-.14-.03-.03-.07-.05-.1-.08-.03-.03-.07-.05-.1-.08-.03-.03-.07-.06-.1-.09-.03-.03-.07-.06-.1-.09-.07-.07-.13-.13-.2-.2-.05-.05-.09-.11-.14-.16-.05-.06-.09-.11-.13-.17-.04-.06-.09-.12-.13-.18-.04-.06-.08-.12-.12-.19-.04-.06-.08-.13-.12-.2-.02-.03-.04-.07-.06-.1l-.06-.11c-.08-.14-.15-.29-.22-.44-.14-.32-.27-.65-.37-.98-.03-.09-.05-.18-.08-.27-.02-.09-.05-.18-.07-.27-.02-.09-.04-.19-.07-.28-.02-.09-.04-.19-.06-.29-.01-.08-.03-.15-.04-.23-.01-.08-.03-.16-.04-.24-.02-.16-.05-.32-.07-.48-.02-.16-.04-.33-.05-.49-.01-.17-.02-.33-.03-.5,0-.08,0-.17-.01-.25,0-.09,0-.17,0-.26,0-.09,0-.17,0-.26,0-.09,0-.18,0-.26,0-.17,0-.35.01-.52,0-.17.01-.34.02-.51.04-.66.11-1.31.21-1.96.1-.68.24-1.35.4-2.02"/>
    <path class="cls-3" d="M155.69,154.02c-.16.67-.34,1.33-.53,1.99-.1.33-.2.66-.3.98-.05.16-.11.33-.16.49-.05.16-.11.33-.17.49-.11.32-.23.65-.35.97-.06.16-.12.32-.18.48-.06.16-.13.32-.19.48-.06.16-.13.32-.19.48s-.13.32-.2.48c-.07.16-.14.32-.21.48-.07.16-.14.31-.21.47-.57,1.25-1.2,2.48-1.88,3.67-.68,1.19-1.41,2.36-2.19,3.49"/>
    <path class="cls-3" d="M156.29,138.43c.22,1.29.37,2.59.45,3.9,0,.17.02.33.03.5,0,.16.02.33.02.49.01.32.02.65.02.97,0,.08,0,.17,0,.25,0,.08,0,.17,0,.25,0,.08,0,.16,0,.25,0,.08,0,.16,0,.24s0,.16,0,.24c0,.08,0,.16,0,.24s0,.16,0,.24c0,.08,0,.17,0,.25-.11,2.61-.48,5.22-1.09,7.76"/>
    <path class="cls-3" d="M148.93,168.96c-.46.66-.93,1.31-1.41,1.94-.42.55-.85,1.09-1.3,1.62-.2.23-.4.47-.6.7-.05.05-.1.11-.14.16-.05.06-.11.12-.16.18-.12.13-.24.27-.36.4-.48.52-.96,1.03-1.46,1.54-.26.26-.52.52-.79.78-.13.13-.26.25-.4.38-.13.12-.27.25-.4.37-.13.12-.27.24-.4.36-.17.16-.35.31-.53.46-.33.29-.67.57-1,.85-.3.24-.59.48-.9.71-.26.2-.52.4-.78.59-.22.16-.44.32-.67.48-.22.16-.44.31-.67.46-.32.21-.64.43-.97.63-.16.1-.32.2-.48.3-.08.05-.16.1-.24.15s-.16.1-.24.14c-.16.09-.32.19-.49.28-.16.09-.32.18-.49.27-.16.09-.32.17-.49.26-.08.04-.16.08-.24.13-.04.02-.08.04-.12.06-.04.02-.09.04-.13.06-.64.32-1.3.62-1.96.89-.57.23-1.15.45-1.74.64-.39.12-.77.24-1.17.34-.19.05-.39.1-.58.14-.1.02-.19.04-.29.06-.1.02-.19.04-.29.06-.19.04-.38.07-.57.1-.09.01-.19.03-.28.04-.09.01-.19.02-.28.04-.05,0-.09.01-.14.02-.05,0-.09.01-.14.01-.09,0-.18.02-.27.02-.18.01-.35.02-.53.03-.67.03-1.34,0-2.01-.1-.08-.01-.16-.02-.24-.04-.08-.01-.16-.03-.23-.04-.15-.03-.31-.06-.46-.1-.15-.04-.3-.08-.44-.12-.07-.02-.15-.05-.22-.07-.07-.02-.14-.05-.21-.08-.18-.07-.35-.14-.53-.22-.09-.04-.17-.08-.26-.12-.08-.04-.17-.09-.25-.13-.32-.17-.62-.37-.9-.58-.6-.45-1.12-.99-1.57-1.59-.24-.33-.46-.67-.66-1.03-.11-.19-.2-.38-.3-.57-.02-.05-.05-.1-.07-.15-.02-.05-.05-.1-.07-.15-.02-.05-.05-.1-.07-.15-.02-.05-.04-.11-.07-.16-.02-.05-.04-.11-.06-.16,0-.02-.01-.03-.02-.05-.01-.03-.03-.07-.04-.1-.03-.09-.07-.18-.1-.27-.04-.12-.09-.25-.13-.37-.05-.16-.1-.32-.15-.48-.06-.22-.12-.43-.17-.65-.06-.27-.12-.53-.17-.8-.06-.32-.12-.64-.16-.97-.06-.38-.1-.76-.14-1.15-.02-.22-.04-.43-.06-.65,0-.06,0-.11-.01-.17,0-.06,0-.12-.01-.17,0-.12-.01-.24-.02-.36-.02-.46-.04-.92-.04-1.38,0-.72,0-1.44.03-2.16.03-.74.07-1.47.13-2.2.01-.18.03-.36.05-.53.02-.18.03-.35.05-.53.03-.34.07-.68.11-1.03l.03-.25.03-.25c.02-.16.04-.33.06-.49.02-.16.04-.32.06-.48.01-.08.02-.16.03-.24.01-.08.02-.16.03-.23.01-.08.02-.15.03-.23l.03-.24c.03-.2.06-.39.09-.59.06-.39.12-.79.19-1.18.46-2.78,1.05-5.6,1.71-8.34"/>
    <path class="cls-3" d="M323.68,208.94c-.08-.68-.14-1.37-.19-2.05-.05-.68-.09-1.37-.11-2.06-.04-1.37-.02-2.75.05-4.12,0-.17.02-.34.03-.52.01-.17.02-.34.04-.51.03-.34.06-.68.09-1.02.07-.68.15-1.36.25-2.04.2-1.36.45-2.71.77-4.04"/>
    <path class="cls-3" d="M323.68,208.94c.08.74.19,1.48.3,2.22.03.19.06.38.09.56.02.09.03.19.05.28l.02.12c.03.19.07.38.11.57.05.26.1.52.16.78,0,.04.02.07.02.11,0,.04.02.08.02.12.02.08.03.16.05.24.04.17.08.34.12.52.09.39.19.79.29,1.18.06.22.11.44.18.66.02.06.03.11.05.17s.03.12.05.17c.03.12.07.24.1.36.23.79.48,1.58.75,2.36.23.67.48,1.32.74,1.98.45,1.13.95,2.23,1.5,3.32.61,1.21,1.29,2.38,2.04,3.51.4.59.81,1.17,1.25,1.73.42.53.86,1.05,1.33,1.55.29.31.59.61.91.9.29.27.59.52.9.77.29.23.58.44.89.64.28.19.57.36.87.52.07.04.14.08.22.11.07.04.14.07.22.11.14.07.29.13.44.19.07.03.15.06.22.09.07.03.15.05.22.08.14.05.29.09.44.13.57.16,1.16.24,1.75.23.15,0,.31,0,.46-.02.15-.01.31-.03.46-.06.15-.03.3-.06.45-.09.08-.02.15-.04.23-.06.08-.02.15-.04.23-.07.61-.2,1.17-.49,1.7-.85.29-.19.56-.41.83-.63.28-.24.55-.5.81-.77l.08-.09s.06-.06.08-.09c.03-.03.06-.06.09-.09.03-.03.06-.06.09-.1.12-.14.24-.28.36-.42.27-.32.52-.66.76-1,.18-.26.36-.52.53-.79l.07-.11s.04-.07.07-.11c.02-.04.05-.07.07-.11s.04-.07.07-.11c.13-.21.26-.43.38-.65.13-.22.25-.44.37-.66.03-.05.06-.11.09-.16.03-.05.05-.1.08-.16.05-.1.11-.2.16-.3.18-.35.36-.71.53-1.07.07-.15.14-.29.2-.44.06-.12.11-.24.17-.36.07-.16.15-.33.22-.49.1-.23.2-.47.3-.7.15-.37.3-.74.45-1.11.06-.16.12-.31.18-.47.06-.16.12-.31.18-.47.12-.31.23-.62.34-.93.11-.3.22-.61.32-.91.05-.15.1-.3.16-.45.03-.07.05-.15.08-.22.02-.07.05-.15.08-.22.06-.17.11-.34.17-.51.06-.17.11-.34.17-.51.06-.17.11-.34.16-.51s.11-.34.16-.52c.22-.69.43-1.39.63-2.08.77-2.62,1.47-5.31,2.11-7.96"/>
    <path class="cls-3" d="M324.62,192.58c.61-2.55,1.46-5.07,2.52-7.48.53-1.2,1.13-2.38,1.77-3.53.17-.3.35-.6.52-.9.02-.04.04-.07.07-.11.02-.03.04-.07.06-.1.04-.07.08-.13.12-.19.08-.13.16-.26.25-.39.04-.07.09-.14.13-.2s.09-.14.13-.2c.09-.14.18-.27.27-.41.19-.28.38-.55.57-.83"/>
    <path class="cls-3" d="M144.83,154.18c.29-1.19.49-2.41.6-3.63.11-1.21.11-2.46-.02-3.67-.07-.61-.18-1.22-.33-1.81-.08-.31-.18-.61-.29-.91-.1-.28-.22-.55-.35-.81-.14-.29-.31-.56-.49-.83-.17-.24-.36-.46-.56-.67-.23-.22-.48-.42-.75-.59-.25-.15-.52-.27-.8-.36"/>
    <path class="cls-3" d="M133.31,167.27c.36.11.74.16,1.11.16.41,0,.82-.07,1.22-.18.36-.1.71-.25,1.05-.41.37-.18.72-.4,1.06-.64.31-.22.61-.46.9-.72.3-.27.6-.55.87-.85.06-.07.13-.14.19-.21.06-.07.13-.14.19-.21.13-.15.25-.29.37-.44.26-.32.5-.64.74-.97.91-1.28,1.68-2.7,2.3-4.13.63-1.44,1.14-2.96,1.51-4.48"/>
    <path class="cls-3" d="M333.01,197.15c-.35,1.48-.6,3.01-.73,4.52-.13,1.51-.14,3.07,0,4.58.04.39.09.79.15,1.18.03.19.06.37.1.56.02.09.03.18.05.27.02.09.04.18.06.26.09.38.19.77.3,1.14.11.35.24.7.38,1.04.16.37.34.73.55,1.08.19.31.4.6.65.86.14.15.29.3.45.43.15.12.31.23.48.33.31.18.65.3,1.01.36"/>
    <path class="cls-3" d="M333.82,197.37c.3-1.27.69-2.52,1.18-3.74.03-.08.06-.15.09-.23s.06-.15.1-.23c.03-.07.07-.15.1-.22.03-.08.07-.16.1-.23.14-.31.29-.61.45-.91.04-.07.08-.15.11-.22.04-.07.08-.14.12-.21.08-.14.16-.28.24-.42.04-.07.08-.14.12-.2.04-.07.08-.13.13-.2.08-.13.17-.26.26-.39.21-.31.43-.61.67-.9.03-.03.06-.07.09-.1.03-.03.06-.07.09-.1.06-.07.12-.13.17-.19.11-.12.23-.24.35-.36.06-.06.12-.11.18-.17.06-.05.12-.11.18-.16.06-.05.12-.1.18-.15.06-.05.12-.09.18-.14.06-.04.12-.09.18-.13.06-.04.12-.08.18-.12.06-.04.12-.07.18-.11.06-.03.12-.07.18-.1.09-.04.17-.09.26-.13.04-.02.09-.04.13-.05s.09-.03.13-.05c.16-.06.32-.1.49-.14.31-.06.62-.08.93-.04.31.04.6.13.88.26.04.02.07.04.11.05.04.02.07.04.11.06.07.04.14.09.21.13.14.1.27.2.39.31.2.18.38.38.54.6.02.03.04.06.06.09.02.03.04.06.06.09.04.06.08.12.12.18.02.03.04.06.06.1s.04.06.06.1c.02.03.04.07.06.1.02.03.04.07.06.1.17.31.32.63.45.95.04.09.07.17.1.26.03.09.07.18.1.27.06.19.12.38.18.58.08.29.16.59.22.88.03.15.06.31.09.46.01.08.03.16.04.24.01.08.03.16.04.24.11.68.17,1.36.21,2.04,0,.08,0,.16.01.24,0,.08,0,.16,0,.24,0,.16,0,.32.01.49,0,.16,0,.33,0,.49,0,.17,0,.33,0,.5,0,.17-.01.34-.02.5,0,.09,0,.17-.01.26,0,.08,0,.16-.01.25-.02.32-.05.64-.08.96-.13,1.3-.35,2.59-.66,3.87"/>
    <path class="cls-3" d="M344.93,202.92c-.3,1.27-.69,2.52-1.18,3.74-.06.15-.13.31-.19.46-.07.15-.13.31-.2.46-.14.31-.29.61-.44.91-.04.07-.08.15-.11.22s-.08.14-.12.21c-.02.04-.04.07-.06.11-.02.03-.04.07-.06.1-.04.07-.08.14-.12.21-.08.14-.16.27-.25.41-.08.13-.17.26-.26.39-.21.31-.43.61-.67.9-.22.27-.45.52-.7.76-.03.03-.06.06-.09.08-.03.03-.06.05-.09.08-.06.05-.12.11-.18.16-.06.05-.12.1-.18.15-.03.02-.06.05-.09.07-.03.02-.06.04-.09.07-.22.17-.46.32-.7.45-.04.02-.09.04-.13.07s-.09.04-.13.06c-.04.02-.09.04-.13.05s-.09.03-.13.05c-.16.06-.32.1-.48.14-.31.06-.62.08-.93.04-.31-.04-.6-.13-.88-.26-.04-.02-.07-.04-.11-.05-.04-.02-.07-.04-.11-.06-.07-.04-.14-.08-.21-.13-.14-.1-.27-.2-.4-.32-.2-.18-.38-.38-.54-.6-.18-.24-.34-.49-.49-.75-.08-.15-.16-.3-.24-.46-.04-.08-.08-.16-.11-.24-.02-.04-.04-.08-.05-.12-.02-.04-.03-.09-.05-.13-.03-.09-.07-.17-.1-.26-.03-.09-.07-.18-.1-.27-.07-.19-.13-.38-.18-.58-.08-.29-.16-.58-.22-.88-.03-.15-.06-.31-.09-.46-.01-.08-.03-.16-.04-.24-.01-.08-.03-.16-.04-.24-.05-.33-.09-.66-.13-1,0-.09-.02-.17-.02-.26,0-.09-.01-.17-.02-.26,0-.09-.01-.18-.02-.26,0-.09-.01-.18-.02-.27-.02-.32-.03-.65-.03-.97,0-.16,0-.33,0-.49,0-.08,0-.16,0-.25s0-.17,0-.25c0-.34.03-.67.05-1,.02-.32.05-.64.08-.96.13-1.3.35-2.59.66-3.87"/>
    <path class="cls-3" d="M341.17,186.36c-.28-.04-.57-.04-.85,0-.32.04-.62.13-.92.26-.26.11-.51.25-.75.4-.27.17-.52.37-.76.58-.22.19-.43.39-.62.61-.21.23-.42.47-.61.72-.18.23-.35.47-.52.71-.17.26-.34.52-.5.79-.61,1.03-1.13,2.15-1.56,3.27-.43,1.12-.78,2.29-1.06,3.47"/>
    <line class="cls-3" x1="315.44" y1="279.11" x2="313.28" y2="288.11"/>
    <line class="cls-3" x1="314.33" y1="278.83" x2="312.21" y2="287.7"/>
  </g>
  <g id="Make2D::可见线::曲线">
    <path class="cls-3" d="M127.95,96.41c.05-.21.13-.41.24-.61.11-.21.25-.4.41-.57.18-.2.38-.38.59-.54.24-.19.51-.35.77-.5.15-.08.3-.16.46-.24.17-.08.33-.16.5-.23.18-.08.37-.15.55-.22.2-.07.4-.14.6-.21.44-.14.89-.27,1.34-.38.51-.13,1.02-.24,1.54-.33.58-.11,1.15-.2,1.73-.29.64-.09,1.28-.17,1.93-.24.71-.07,1.41-.14,2.12-.19.77-.06,1.54-.1,2.31-.14.83-.04,1.66-.07,2.5-.08.89-.02,1.78-.03,2.68-.03.95,0,1.9,0,2.85.02,1.01.02,2.02.04,3.02.08,1,.03,2.01.07,3.01.12,1.05.05,2.1.11,3.15.17,1.09.07,2.18.14,3.28.22,1.13.08,2.27.17,3.4.26,2.38.2,4.76.42,7.13.66,2.51.26,5.01.53,7.51.83,2.2.26,4.41.54,6.61.83,2.26.3,4.52.61,6.78.94,2.3.33,4.6.68,6.9,1.03,1.16.18,2.32.36,3.48.55.58.09,1.16.19,1.75.28.29.05.58.09.87.14.29.05.58.1.87.14,4.4.73,8.79,1.5,13.18,2.3,4.65.85,9.29,1.75,13.92,2.68,4.46.9,8.92,1.83,13.37,2.79,4.53.98,9.05,2,13.56,3.05,4.52,1.05,9.03,2.14,13.53,3.27,4.41,1.1,8.82,2.24,13.2,3.42,2.32.62,4.65,1.26,6.96,1.9,2.25.63,4.51,1.27,6.76,1.92,2.17.63,4.35,1.27,6.51,1.92,2.08.63,4.16,1.26,6.24,1.91,2.43.76,4.86,1.54,7.29,2.34,2.27.75,4.53,1.51,6.79,2.29,2.09.72,4.18,1.47,6.25,2.23,1.91.7,3.81,1.42,5.7,2.15"/>
    <path class="cls-3" d="M310.84,277.38c-1.52-.56-3.05-1.1-4.57-1.64-1.66-.58-3.33-1.15-5.01-1.72-1.81-.61-3.62-1.2-5.43-1.79-1.95-.63-3.9-1.25-5.85-1.86-1.64-.51-3.28-1.01-4.93-1.51-1.72-.52-3.45-1.04-5.17-1.54-3.67-1.08-7.34-2.13-11.03-3.16-3.46-.97-6.93-1.91-10.4-2.84-3.63-.97-7.26-1.92-10.9-2.84-3.53-.9-7.06-1.78-10.59-2.65-3.6-.88-7.19-1.74-10.8-2.59-14.18-3.33-28.79-6.47-43.09-9.24-3.72-.72-7.44-1.42-11.17-2.1-3.5-.64-7-1.25-10.51-1.85-1.95-.33-3.91-.65-5.86-.97-1.86-.3-3.72-.59-5.59-.88-1.76-.27-3.53-.53-5.3-.79-1.66-.24-3.33-.47-5-.7"/>
    <path class="cls-3" d="M341.66,271.2c.04-.18.05-.35.03-.53-.02-.2-.07-.39-.15-.58-.04-.11-.09-.21-.14-.31-.06-.11-.12-.22-.19-.32-.07-.11-.15-.22-.24-.33-.09-.12-.19-.23-.29-.34-.11-.12-.22-.24-.34-.35-.13-.12-.25-.25-.38-.36-.14-.13-.29-.25-.44-.38-.16-.13-.32-.26-.49-.39-.18-.14-.36-.27-.54-.4-.19-.14-.39-.28-.59-.41-.44-.3-.88-.58-1.33-.85-.51-.31-1.02-.61-1.54-.9-.58-.32-1.16-.63-1.74-.94-.64-.34-1.29-.66-1.95-.98-.71-.35-1.43-.68-2.15-1.02-.78-.36-1.56-.71-2.35-1.05-.84-.37-1.69-.73-2.54-1.08-.91-.38-1.82-.75-2.73-1.11-.97-.39-1.94-.77-2.91-1.14-.94-.36-1.88-.72-2.83-1.07-.99-.37-1.98-.73-2.97-1.09-2.1-.76-4.22-1.5-6.33-2.22-2.26-.77-4.53-1.52-6.8-2.26-2.39-.78-4.79-1.53-7.2-2.28-2.13-.66-4.26-1.31-6.4-1.95-2.19-.65-4.39-1.3-6.59-1.93-4.5-1.3-9.02-2.56-13.54-3.78-4.32-1.17-8.64-2.31-12.97-3.41-4.58-1.17-9.17-2.32-13.77-3.43-4.44-1.07-8.88-2.12-13.33-3.14-4.52-1.03-9.05-2.04-13.59-3.02-4.55-.98-9.1-1.93-13.66-2.86-4.46-.9-8.93-1.78-13.4-2.62-2.38-.45-4.75-.89-7.13-1.32-2.31-.42-4.62-.82-6.94-1.22-2.23-.38-4.47-.76-6.7-1.12-2.15-.35-4.29-.69-6.44-1.02-2.54-.39-5.08-.77-7.63-1.13-2.37-.34-4.75-.66-7.13-.96-2.2-.28-4.39-.55-6.59-.8-2.01-.23-4.02-.44-6.03-.63"/>
    <path class="cls-3" d="M130.16,235.36l.73.26"/>
    <path class="cls-3" d="M337.12,213.8c-.21.24-.43.46-.67.68-.22.21-.45.4-.69.59-.23.17-.46.33-.71.48-.23.14-.47.26-.72.36-.28.12-.58.21-.88.27-.29.06-.58.08-.87.07-.58-.02-1.13-.19-1.63-.47-.23-.13-.45-.29-.66-.46-.22-.18-.42-.38-.6-.6-.2-.23-.38-.47-.55-.72-.09-.13-.17-.26-.25-.4-.04-.07-.08-.14-.12-.21-.04-.07-.08-.14-.11-.22-.12-.23-.23-.47-.34-.71-.11-.26-.21-.52-.31-.79-.1-.29-.19-.58-.27-.87-.09-.31-.17-.62-.24-.94-.12-.55-.22-1.11-.31-1.67-.09-.6-.15-1.21-.19-1.81-.08-1.17-.09-2.35-.04-3.51.1-2.32.44-4.69.98-6.95"/>
    <line class="cls-3" x1="336.45" y1="213.76" x2="332.71" y2="213.17"/>
    <path class="cls-3" d="M137.9,235.57c1.97.26,3.93.53,5.9.81,2.09.3,4.19.61,6.28.93,2.21.34,4.43.69,6.64,1.05,2.32.38,4.65.77,6.97,1.17,4.17.72,8.33,1.46,12.49,2.24,4.39.82,8.77,1.66,13.15,2.54,16.87,3.37,34.22,7.26,50.91,11.39,4.33,1.07,8.66,2.17,12.98,3.3,4.09,1.07,8.17,2.16,12.24,3.28,1.09.3,2.18.6,3.27.9.27.07.54.15.81.22s.54.15.8.23c.54.15,1.07.3,1.6.45,2.12.6,4.23,1.21,6.35,1.82,2.07.6,4.14,1.22,6.2,1.84,2.01.61,4.02,1.22,6.02,1.84,2.27.71,4.54,1.43,6.8,2.17,2.14.7,4.29,1.41,6.42,2.14,2,.68,3.99,1.38,5.97,2.1.94.34,1.87.68,2.8,1.03.89.33,1.78.67,2.67,1.01.92.35,1.84.71,2.75,1.08.86.34,1.72.69,2.58,1.05.8.33,1.6.67,2.4,1.02.74.32,1.48.65,2.22.99.68.31,1.36.63,2.03.96.62.3,1.23.61,1.84.92.55.29,1.1.58,1.65.88.49.27.98.55,1.46.84.43.26.85.53,1.26.8.19.13.37.25.56.39.17.12.34.25.51.38.16.12.31.24.46.36.14.12.28.23.41.35.13.11.25.22.37.34.11.11.22.22.32.33.09.1.19.21.27.32.08.1.16.2.23.31.07.1.13.2.18.3.05.09.1.19.14.29.07.17.12.36.14.54.02.17,0,.33-.03.5"/>
    <line class="cls-3" x1="337.42" y1="185.78" x2="341.17" y2="186.36"/>
    <path class="cls-3" d="M316.59,279.56c-.75-.31-1.49-.62-2.25-.92-.78-.31-1.57-.62-2.35-.93-.81-.31-1.63-.63-2.45-.93-.42-.16-.84-.31-1.26-.47-.11-.04-.21-.08-.32-.12-.11-.04-.21-.08-.32-.12-.22-.08-.43-.16-.65-.24-1.84-.67-3.69-1.32-5.54-1.96-2.05-.71-4.1-1.4-6.16-2.08-1.64-.54-3.29-1.07-4.94-1.59-1.75-.56-3.51-1.1-5.27-1.64-1.86-.57-3.72-1.13-5.58-1.69-1.96-.58-3.92-1.16-5.88-1.72-3.53-1.02-7.06-2.01-10.6-2.98-3.75-1.03-7.5-2.03-11.26-3.01-3.61-.94-7.22-1.86-10.84-2.76-3.71-.92-7.42-1.83-11.13-2.71-14.56-3.47-29.61-6.74-44.31-9.61-3.83-.75-7.67-1.47-11.5-2.17-3.59-.65-7.19-1.29-10.79-1.89-2.03-.34-4.05-.68-6.08-1-1.92-.31-3.84-.61-5.77-.9-1.81-.27-3.62-.54-5.44-.8-1.7-.24-3.4-.47-5.1-.7"/>
    <path class="cls-3" d="M340.95,274.15c.04-.17.05-.34.03-.52-.02-.19-.07-.38-.14-.56-.04-.1-.08-.2-.13-.3-.05-.11-.11-.21-.18-.31-.07-.11-.15-.22-.22-.32-.09-.11-.18-.22-.27-.33-.1-.12-.21-.23-.32-.34-.12-.12-.24-.24-.36-.35-.13-.12-.27-.24-.41-.36-.15-.13-.3-.25-.46-.37-.17-.13-.34-.26-.51-.38-.18-.13-.37-.26-.55-.39-.41-.28-.83-.56-1.25-.82-.47-.3-.96-.58-1.44-.86-.54-.31-1.09-.61-1.64-.9-.61-.32-1.21-.63-1.83-.93-.67-.33-1.34-.65-2.02-.97-.73-.34-1.47-.68-2.2-1-.79-.35-1.59-.7-2.39-1.03-.85-.36-1.71-.71-2.56-1.06-.91-.37-1.82-.73-2.73-1.09-.89-.35-1.78-.69-2.66-1.02-.93-.35-1.86-.7-2.8-1.04-1.98-.73-3.97-1.43-5.97-2.12-2.13-.74-4.27-1.46-6.42-2.17-2.26-.75-4.53-1.47-6.81-2.19-2-.63-4.01-1.25-6.01-1.86-2.06-.63-4.13-1.24-6.2-1.85-4.26-1.25-8.54-2.47-12.82-3.65-4.08-1.12-8.16-2.22-12.25-3.29-4.32-1.13-8.66-2.23-12.99-3.31-16.7-4.14-34.06-8.01-50.94-11.36-4.38-.87-8.77-1.71-13.16-2.52-4.16-.77-8.33-1.5-12.5-2.21-2.32-.39-4.65-.78-6.97-1.15-2.21-.35-4.43-.7-6.64-1.03-2.09-.31-4.19-.62-6.28-.91-1.97-.27-3.93-.54-5.9-.79"/>
    <path class="cls-3" d="M327.95,195.92c.45-1.88,1.06-3.77,1.84-5.54.2-.46.41-.91.64-1.35.22-.43.44-.84.69-1.25.26-.44.53-.87.82-1.28.27-.38.55-.75.86-1.11.18-.2.36-.4.55-.6.18-.18.36-.35.55-.52.18-.16.36-.3.55-.44.17-.13.35-.25.54-.37.22-.14.45-.26.69-.37.23-.1.46-.19.7-.25.45-.12.92-.17,1.39-.13s.91.19,1.33.41c.22.12.42.25.62.4.21.16.4.34.58.53.32.34.6.71.84,1.11.27.43.5.9.7,1.36"/>
    <path class="cls-3" d="M94.32,235.83c.03-.14.09-.27.16-.39.08-.13.17-.25.28-.36.12-.13.26-.24.4-.34.17-.12.35-.22.53-.31.21-.11.43-.2.66-.28.26-.1.52-.18.79-.25.3-.08.61-.16.91-.22.35-.07.69-.14,1.04-.19.4-.06.79-.12,1.19-.16.44-.05.88-.09,1.32-.13.48-.04.97-.07,1.45-.1.53-.03,1.05-.05,1.58-.06,3.57-.1,7.56.06,11.13.28,3.66.23,7.44.57,11.09.95,3.67.38,7.4.83,11.06,1.32"/>
    <line class="cls-3" x1="136.75" y1="168.32" x2="133.31" y2="167.27"/>
    <line class="cls-3" x1="141.82" y1="140.91" x2="145.26" y2="141.97"/>
    <path class="cls-3" d="M140.25,140.74c.42-.33.85-.63,1.31-.9.42-.24.86-.46,1.32-.63.5-.18,1.02-.31,1.55-.35.49-.04.97-.02,1.45.09.49.11.96.31,1.39.58.22.14.42.29.61.46.1.09.19.17.28.27.05.05.09.09.14.14.04.05.09.1.13.15.15.17.29.36.42.54.14.2.27.41.39.62.13.23.25.46.35.7.11.26.22.52.31.78.16.46.29.93.4,1.4.12.52.21,1.04.27,1.57.06.49.1.99.12,1.48.02.52.03,1.04.02,1.56-.02,1.01-.11,2.04-.25,3.04-.14,1.01-.33,2.01-.57,3"/>
    <path class="cls-3" d="M362.66,142.26c-.56-.36-1.13-.71-1.7-1.04-.64-.38-1.28-.74-1.93-1.09-.71-.39-1.43-.77-2.16-1.14-.79-.41-1.59-.8-2.39-1.19-.87-.42-1.75-.83-2.63-1.23-.95-.44-1.91-.86-2.87-1.28-1.03-.45-2.07-.89-3.1-1.32-1.11-.46-2.22-.91-3.34-1.36-1.56-.62-3.13-1.22-4.7-1.82-1.69-.64-3.39-1.26-5.09-1.87-1.82-.65-3.63-1.28-5.46-1.91-1.93-.66-3.87-1.31-5.81-1.94-1.68-.55-3.37-1.09-5.06-1.62-1.75-.55-3.51-1.1-5.26-1.63-3.68-1.12-7.37-2.2-11.06-3.26-3.54-1.01-7.08-1.99-10.63-2.94-3.65-.98-7.3-1.93-10.96-2.86-14.34-3.63-29.13-6.97-43.63-9.87-3.76-.75-7.52-1.47-11.28-2.17-3.57-.66-7.14-1.3-10.72-1.91-1.88-.32-3.77-.64-5.65-.94-.23-.04-.46-.07-.69-.11-.23-.04-.46-.07-.69-.11-.46-.07-.92-.15-1.37-.22-.92-.15-1.83-.29-2.75-.43-3.63-.56-7.27-1.09-10.91-1.58"/>
    <path class="cls-3" d="M149.9,155.26c-.57,2.37-1.42,4.74-2.51,6.92-.55,1.1-1.17,2.17-1.85,3.19-.36.53-.74,1.04-1.14,1.54-.37.46-.76.91-1.18,1.33-.24.24-.48.48-.73.7-.24.21-.48.42-.73.62-.23.18-.47.36-.72.52-.23.15-.47.3-.71.43-.14.08-.29.16-.44.23-.14.07-.29.14-.44.2-.29.12-.58.22-.88.3-.57.15-1.16.22-1.75.18-.6-.04-1.18-.2-1.72-.48-.27-.14-.53-.31-.78-.5-.25-.2-.49-.43-.7-.67-.19-.21-.36-.44-.52-.68-.17-.25-.32-.51-.46-.78-.3-.57-.53-1.18-.71-1.8"/>
    <path class="cls-3" d="M153.56,154.14c.13-.54.25-1.08.35-1.62.05-.27.1-.55.15-.82.05-.27.09-.55.13-.82.04-.28.08-.55.11-.83.03-.27.06-.55.09-.82.03-.28.05-.55.07-.83.02-.27.04-.55.05-.83.01-.28.03-.56.03-.83,0-.28.01-.55.01-.83,0-.14,0-.28,0-.42,0-.14,0-.28,0-.42,0-.28-.01-.55-.03-.83,0-.14-.01-.28-.02-.42,0-.14-.02-.28-.03-.42-.02-.27-.04-.55-.07-.82-.01-.14-.03-.28-.04-.42-.02-.14-.03-.28-.05-.41-.03-.27-.07-.55-.11-.82"/>
    <path class="cls-3" d="M309.57,282.68l.2.08"/>
    <path class="cls-3" d="M328.44,220.28c.65.04,1.28-.05,1.9-.25.61-.2,1.19-.49,1.72-.85.54-.35,1.04-.76,1.5-1.2.46-.44.9-.92,1.31-1.41"/>
    <line class="cls-3" x1="190" y1="98.82" x2="190.09" y2="98.42"/>
    <line class="cls-3" x1="294.75" y1="120.73" x2="294.85" y2="120.31"/>
    <path class="cls-3" d="M153.26,136.77c-.54-.41-1.14-.73-1.79-.93"/>
    <path class="cls-3" d="M195.35,99.58c-.18-.17-.36-.33-.54-.5"/>
    <path class="cls-3" d="M300.82,122.44c-.23-.21-.47-.43-.7-.64"/>
    <path class="cls-3" d="M127.52,99.23c-.01-.11-.02-.23-.02-.34,0-.11,0-.23,0-.34s.02-.23.04-.34.04-.22.07-.34"/>
    <path class="cls-3" d="M341.71,135.93c.34.01.68.03,1.02.04"/>
    <path class="cls-3" d="M149.25,129.32c-.45.11-.89.24-1.33.4-.46.17-.91.37-1.35.59-.42.21-.82.44-1.22.68-.42.26-.82.53-1.21.82-1.53,1.12-2.93,2.48-4.16,3.9-1.25,1.43-2.38,2.99-3.4,4.6-1.02,1.61-1.94,3.29-2.76,5.01"/>
    <path class="cls-3" d="M339.78,173.24c.93,1.05,1.66,2.31,2.23,3.57.57,1.28,1.02,2.64,1.35,4,.34,1.36.59,2.77.76,4.16.17,1.4.28,2.81.32,4.22"/>
    <path class="cls-3" d="M331.34,225.39c1.13-.75,2.16-1.71,3.06-2.71.9-1.01,1.73-2.13,2.46-3.28.74-1.15,1.4-2.35,2.01-3.57.6-1.22,1.15-2.49,1.65-3.76"/>
    <path class="cls-3" d="M368.81,151.07c.08.12.15.24.23.36"/>
    <line class="cls-3" x1="369.7" y1="154.05" x2="344.48" y2="259.38"/>
    <line class="cls-3" x1="46.89" y1="445.42" x2="47.23" y2="444.01"/>
    <polyline class="cls-3" points="334.27 228.1 334.27 228.1 334.27 228.1 334.27 228.1 334.27 228.1 334.27 228.1 334.26 228.1"/>
    <line class="cls-3" x1="101.87" y1="204.53" x2="127.04" y2="100.2"/>
    <path class="cls-3" d="M129.16,97.91c-.06.04-.12.07-.18.11"/>
    <path class="cls-3" d="M128.8,98.13c.12-.07.24-.15.36-.22"/>
    <path class="cls-3" d="M206.38,100.87c-.31.09-.61.19-.92.28"/>
    <path class="cls-3" d="M94.28,236.28c-.01-.15,0-.31.04-.46"/>
    <path class="cls-3" d="M358.58,143.25c-.13,0-.27.01-.4.02"/>
    <path class="cls-3" d="M159.02,95.28c.31.13.61.26.92.39"/>
    <path class="cls-3" d="M141.71,95.19c.11.06.23.12.34.19"/>
    <path class="cls-3" d="M336.79,213.8s0,0,0,0"/>
    <path class="cls-3" d="M370.26,151.69c-.05.23-.13.45-.22.66-.09.21-.2.42-.33.61"/>
    <line class="cls-3" x1="94.32" y1="235.83" x2="98.34" y2="219.15"/>
    <path class="cls-3" d="M336.92,290.99c-.04.15-.1.29-.18.43"/>
    <line class="cls-3" x1="340.95" y1="274.15" x2="336.92" y2="290.99"/>
    <path class="cls-3" d="M342.1,132.08c5.24,2.04,11,4.47,16.01,7.03,2.49,1.27,5.25,2.81,7.54,4.43.34.24.67.48,1,.74.3.23.6.47.89.72.27.22.53.46.78.69.23.22.45.44.67.67.16.18.32.36.47.54.14.17.27.35.39.53.11.17.22.33.32.51.09.16.17.32.24.49.06.16.12.31.16.48.04.15.07.3.09.46.03.29.02.58-.05.86"/>
    <path class="cls-3" d="M344.97,120.08c4.84,1.9,10.06,4.11,14.72,6.44,2.34,1.17,4.81,2.51,7.02,3.92.31.2.61.4.92.6.29.19.57.39.85.59.26.19.53.38.78.58.24.18.48.37.72.57.3.25.6.5.88.76.26.24.51.48.75.74.22.23.43.46.63.71.18.22.34.45.5.68"/>
    <path class="cls-3" d="M308.87,286.5s0,0,0-.01c0,0,0,0-.01-.01,0,0-.02-.01-.02-.02-.02,0-.03-.02-.05-.03-.03-.02-.07-.03-.11-.04"/>
    <path class="cls-3" d="M344.97,120.08c-1.87-.74-3.75-1.45-5.64-2.15-2.05-.76-4.11-1.5-6.17-2.22-2.22-.78-4.45-1.53-6.69-2.27-2.38-.79-4.77-1.56-7.17-2.31-2.05-.65-4.11-1.28-6.17-1.9-2.14-.65-4.28-1.28-6.43-1.91-2.22-.65-4.44-1.28-6.66-1.9-2.28-.64-4.57-1.27-6.86-1.88-4.33-1.17-8.68-2.3-13.04-3.39-4.44-1.12-8.89-2.2-13.34-3.24-4.46-1.04-8.92-2.05-13.39-3.03-4.39-.96-8.79-1.88-13.2-2.77-4.55-.92-9.11-1.8-13.68-2.64-4.35-.8-8.71-1.57-13.07-2.29-4.56-.76-9.14-1.48-13.72-2.14-2.23-.32-4.46-.64-6.69-.93-2.17-.29-4.34-.57-6.52-.83-2.46-.3-4.92-.58-7.38-.84-2.34-.25-4.67-.47-7.01-.67-2.19-.19-4.39-.36-6.59-.5-1.04-.07-2.08-.13-3.12-.19-1-.05-1.99-.1-2.99-.14-.87-.04-1.74-.07-2.6-.09-.83-.02-1.66-.04-2.49-.05-.79-.01-1.58-.02-2.37-.02-.75,0-1.5,0-2.25.02-.71.01-1.42.03-2.13.05-.67.02-1.34.05-2,.09-.63.03-1.25.07-1.88.12-.58.04-1.17.1-1.75.16-.54.06-1.08.12-1.62.19-.5.07-.99.14-1.49.22-.45.08-.91.16-1.36.25-.41.09-.82.18-1.23.28-.37.09-.74.2-1.1.31-.33.1-.65.22-.98.34-.29.11-.57.23-.85.37-.25.12-.49.25-.73.39"/>
    <path class="cls-3" d="M129.35,159.18c-.32,1.81-.55,3.65-.66,5.48-.11,1.83-.11,3.69.05,5.52.16,1.82.48,3.67,1.02,5.42.14.45.3.9.47,1.34.17.42.35.82.55,1.23.21.43.45.84.7,1.24.24.37.5.74.78,1.08"/>
    <line class="cls-3" x1="161.19" y1="75.46" x2="162.76" y2="68.93"/>
    <line class="cls-3" x1="373.43" y1="138.43" x2="370.61" y2="150.22"/>
    <path class="cls-3" d="M372.74,135.66c.26.4.5.85.63,1.32.14.47.18.96.06,1.45"/>
    <path class="cls-3" d="M368.11,128.57l4.63,7.1"/>
    <line class="cls-3" x1="351.48" y1="110.53" x2="349.9" y2="117.1"/>
    <path class="cls-3" d="M263.83,74.01c2,.45,4,.91,5.99,1.38.99.23,1.99.47,2.98.71.49.12.99.24,1.48.36.49.12.99.24,1.48.36,2,.49,4,.99,5.99,1.5.99.25,1.97.51,2.96.77.49.13.98.26,1.47.39.24.06.49.13.73.19.24.07.49.13.73.2,2,.54,4,1.08,5.99,1.64.98.27,1.96.55,2.93.83.48.14.97.28,1.45.42.24.07.48.14.72.21.24.07.48.14.72.21,2,.59,4,1.19,5.99,1.8.49.15.97.3,1.46.45.48.15.96.3,1.44.45.94.3,1.89.6,2.83.91.26.08.51.17.77.25.25.08.51.17.76.25.5.17,1.01.33,1.51.5.98.33,1.97.66,2.95,1,1.87.65,3.74,1.31,5.6,1.99.52.19,1.04.39,1.56.58.13.05.26.1.38.15.13.05.25.1.38.14.25.1.5.19.76.29.98.38,1.95.76,2.93,1.15.47.19.94.38,1.4.57l.34.14c.11.05.23.09.34.14.23.09.45.19.68.28.87.37,1.74.74,2.6,1.12,1.07.47,2.13.96,3.19,1.46.97.46,1.93.94,2.87,1.43.11.06.22.12.34.18.06.03.11.06.17.09.05.03.11.06.17.09.22.12.43.23.65.35.42.23.83.46,1.24.7.39.22.78.45,1.16.69.05.03.09.06.14.09.05.03.09.06.14.09.09.06.18.11.27.17.09.06.18.11.27.17.09.06.18.11.26.17.26.17.51.34.76.51.12.08.25.17.37.25.06.04.12.08.18.13.06.04.12.08.18.13.45.32.89.66,1.31,1.01.1.08.2.17.3.25.1.08.19.17.29.26.09.08.19.17.28.26.05.04.09.09.14.13s.09.09.13.13c.17.17.34.35.51.52.16.18.32.35.47.54.15.18.29.37.43.56.13.19.26.38.38.58.06.1.12.2.17.3.05.1.11.21.16.31.05.11.1.21.14.32.04.11.09.22.12.33.02.06.04.11.06.17.02.06.03.12.05.17.03.12.06.24.09.36.03.12.05.24.06.37.02.12.03.25.04.37,0,.06,0,.13,0,.19,0,.06,0,.13,0,.19,0,.13,0,.26-.02.39-.01.13-.03.26-.05.39-.02.13-.05.26-.08.38"/>
    <path class="cls-3" d="M132.63,82.55c-.41.25-.82.55-1.15.91-.33.36-.59.78-.71,1.27"/>
    <path class="cls-3" d="M132.63,82.55c2.43-1.47,4.86-2.94,7.28-4.41"/>
    <line class="cls-3" x1="127.95" y1="96.41" x2="130.77" y2="84.73"/>
    <path class="cls-3" d="M162.76,68.93c.03-.13.07-.26.11-.39.04-.13.09-.25.14-.38.05-.12.11-.24.17-.36.06-.12.13-.23.19-.35.14-.22.29-.44.45-.64.08-.1.16-.2.25-.29.09-.09.17-.18.27-.27.09-.09.18-.17.28-.25.09-.08.19-.16.29-.23.19-.15.39-.29.6-.42.42-.26.86-.49,1.3-.7.11-.05.23-.1.35-.15.12-.05.24-.09.35-.14.12-.05.24-.09.36-.13.12-.04.25-.09.37-.13.52-.17,1.05-.32,1.58-.44.58-.14,1.16-.26,1.75-.36.08-.01.15-.03.23-.04s.16-.03.23-.04c.16-.03.32-.05.48-.07.33-.05.66-.09.99-.13.11-.01.22-.03.33-.04.11-.01.22-.03.34-.04.23-.02.46-.05.69-.07.24-.02.47-.04.71-.06.12-.01.24-.02.36-.03.12,0,.24-.02.36-.03.5-.04,1.01-.07,1.51-.09.13,0,.26-.01.39-.02.13,0,.26-.01.39-.02.27-.01.54-.02.81-.03.56-.02,1.11-.03,1.67-.04.14,0,.29,0,.43,0,.14,0,.29,0,.43,0,.29,0,.59,0,.88,0,.3,0,.6,0,.9,0,.31,0,.61,0,.92,0,.63,0,1.27.02,1.9.04.25,0,.49.01.74.02.12,0,.25,0,.37.01.13,0,.25,0,.38.01.51.02,1.02.04,1.53.06,1.06.05,2.12.1,3.18.17.27.02.55.03.82.05.28.02.55.04.83.06.56.04,1.12.08,1.69.12,1.16.09,2.33.18,3.49.29.26.02.51.05.76.07.26.02.51.05.77.07.52.05,1.04.1,1.56.15,1.07.11,2.13.22,3.2.33.13.01.27.03.41.04.14.01.27.03.41.04.27.03.55.06.82.09.55.06,1.1.13,1.66.19,1.13.13,2.25.27,3.38.42.26.03.52.07.78.1l.39.05c.13.02.26.03.39.05.53.07,1.05.14,1.58.21,1.07.14,2.13.29,3.2.45,2.19.31,4.38.64,6.57.99.52.08,1.05.17,1.57.25.53.08,1.06.17,1.58.26,1.07.17,2.13.35,3.2.53,2.17.37,4.33.75,6.5,1.14.53.1,1.06.19,1.58.29.53.1,1.06.2,1.59.29,1.06.2,2.13.4,3.19.61,2.15.41,4.29.84,6.43,1.27.53.11,1.06.22,1.59.33s1.06.22,1.59.33c1.06.22,2.13.45,3.19.67,2.13.46,4.26.92,6.38,1.4"/>
    <path class="cls-3" d="M283.75,499.76s.01-.09,0-.13c0-.05-.02-.1-.03-.15-.02-.05-.05-.11-.08-.16-.04-.06-.08-.11-.12-.17-.05-.06-.11-.12-.17-.18-.07-.07-.14-.13-.21-.19-.08-.07-.17-.14-.26-.2-.1-.07-.2-.14-.3-.21-.12-.08-.23-.15-.35-.22-.13-.08-.26-.16-.4-.23-.15-.08-.3-.17-.45-.25-.16-.09-.33-.17-.49-.26-.18-.09-.36-.18-.54-.27-.2-.09-.39-.19-.59-.28-.44-.2-.88-.4-1.33-.59-.5-.22-1.01-.43-1.52-.63-.57-.23-1.14-.46-1.72-.68-.63-.24-1.27-.48-1.91-.72-.7-.26-1.4-.51-2.1-.76-.76-.27-1.52-.54-2.28-.8-.82-.28-1.64-.56-2.47-.84-.88-.29-1.76-.58-2.64-.87-.94-.3-1.87-.61-2.81-.9-1.79-.57-3.58-1.13-5.37-1.68-1.94-.59-3.88-1.18-5.83-1.76-2.08-.62-4.16-1.22-6.24-1.82-2.19-.63-4.39-1.26-6.58-1.87-1.94-.54-3.88-1.08-5.82-1.62-2-.55-3.99-1.09-5.99-1.63-2.04-.55-4.08-1.1-6.12-1.64-.51-.14-1.03-.27-1.54-.41-.26-.07-.52-.14-.78-.2-.26-.07-.52-.14-.78-.21-1.05-.28-2.11-.55-3.16-.83-3.93-1.03-7.86-2.04-11.8-3.04-4.16-1.06-8.32-2.1-12.48-3.13-16.04-3.96-32.66-7.86-48.8-11.43-4.18-.93-8.37-1.84-12.56-2.74-3.98-.85-7.96-1.69-11.94-2.51-2.21-.46-4.42-.91-6.63-1.35-2.11-.42-4.21-.84-6.32-1.26-2-.39-3.99-.78-5.99-1.16-1.88-.36-3.76-.71-5.64-1.06"/>
    <path class="cls-3" d="M88.7,448.14c1.93.36,3.86.72,5.79,1.09,2.05.39,4.1.79,6.15,1.19,2.16.43,4.32.86,6.48,1.29,2.27.46,4.53.92,6.8,1.39,4.09.84,8.17,1.7,12.25,2.58,4.3.92,8.59,1.86,12.88,2.81,16.55,3.66,33.6,7.66,50.06,11.72,4.27,1.05,8.53,2.12,12.8,3.2,4.04,1.03,8.07,2.06,12.1,3.12,1.08.28,2.16.57,3.24.85.27.07.53.14.8.21.27.07.53.14.8.21.53.14,1.06.28,1.58.42,2.09.56,4.19,1.12,6.28,1.68,2.05.55,4.1,1.11,6.15,1.68,1.99.55,3.98,1.1,5.97,1.66,2.25.63,4.5,1.27,6.75,1.92,2.13.61,4.27,1.24,6.39,1.87,2,.59,3.99,1.19,5.98,1.8,1.84.56,3.67,1.14,5.51,1.72.96.31,1.92.61,2.88.93.9.29,1.81.59,2.71.89.84.28,1.69.57,2.53.86.78.27,1.56.54,2.34.82.72.26,1.44.52,2.15.78.65.24,1.31.49,1.96.74.59.23,1.17.46,1.76.7.52.21,1.04.43,1.56.65.46.2.91.4,1.36.61.2.09.4.19.61.29.19.09.37.18.56.27.17.09.34.17.51.26.15.08.31.17.46.25.14.08.27.16.41.24.12.07.24.15.36.23.11.07.21.14.31.22.09.07.18.13.26.21.07.06.15.13.22.19.06.06.12.12.17.18.04.05.09.11.12.17.03.05.06.1.08.16.02.05.03.1.03.15,0,.05,0,.09-.01.14"/>
    <path class="cls-3" d="M310.91,277.98c.27.09.57.18.84.26.28.08.57.15.85.22.56.14,1.16.26,1.72.36"/>
    <path class="cls-3" d="M47.23,444.01c.02-.09.07-.16.13-.22.04-.04.08-.07.12-.1.05-.03.1-.06.16-.09.06-.03.13-.06.19-.08.08-.03.15-.05.23-.07.09-.02.18-.05.27-.06.1-.02.2-.04.31-.05.11-.02.23-.03.35-.04.13-.01.26-.03.38-.04.14-.01.28-.02.42-.03.15,0,.31-.01.46-.02.35,0,.7-.01,1.04,0,.4,0,.8.01,1.2.03.4.02.79.04,1.19.06.44.03.88.06,1.31.09.48.04.96.08,1.43.12.52.05,1.03.1,1.55.15,3.52.36,7.42.89,10.92,1.41,7.03,1.05,14.72,2.39,21.71,3.69"/>
    <path class="cls-3" d="M44.26,443.3c.02-.09.07-.16.13-.23.04-.04.08-.07.12-.1.05-.03.11-.07.16-.09.06-.03.13-.06.2-.08.08-.03.16-.05.24-.07.09-.02.18-.05.28-.07.11-.02.21-.04.32-.06.12-.02.24-.03.36-.05.13-.01.26-.03.39-.04.14-.01.29-.02.43-.03.16,0,.32-.01.47-.02.36,0,.71-.01,1.07,0,.41,0,.82.01,1.23.03.41.02.81.04,1.22.06.45.03.9.06,1.34.09.49.04.98.08,1.47.12.53.05,1.06.1,1.59.15,3.61.37,7.6.91,11.18,1.45,7.2,1.07,15.08,2.45,22.24,3.77"/>
    <line class="cls-3" x1="44.26" y1="443.3" x2="94.11" y2="236.7"/>
    <line class="cls-3" x1="336.71" y1="291.87" x2="286.78" y2="500.46"/>
    <path class="cls-3" d="M310.84,277.38s.07.03.11.04c.02,0,.04.02.05.03,0,0,.02.01.02.02,0,0,0,0,.01.01,0,0,0,0,0,.01"/>
    <path class="cls-3" d="M314.33,278.83c.18.03.38.07.56.12.09.02.18.05.28.07.09.03.19.06.27.09"/>
    <path class="cls-3" d="M28.88,567.16c.21-.09.43-.16.65-.22.11-.03.22-.05.33-.06.1-.01.24-.02.34,0"/>
    <path class="cls-3" d="M334.95,177.62c-.14-.03-.27-.06-.41-.08"/>
    <path class="cls-3" d="M103.81,564.83c-.06-.01-.13-.02-.19-.03"/>
    <path class="cls-3" d="M103.62,564.8c-3.31-.6-6.66-.84-10.02-.74-1.74.05-3.48.19-5.21.42-1.78.24-3.55.56-5.29.97-1.61.38-3.2.82-4.77,1.33-1.62.53-3.21,1.12-4.78,1.77-1.61.67-3.2,1.41-4.76,2.21-1.6.82-3.17,1.7-4.71,2.63-2.89,1.75-5.67,3.69-8.33,5.77-2.77,2.17-5.42,4.5-7.94,6.95-1.2,1.17-2.38,2.37-3.53,3.59-.58.62-1.15,1.24-1.72,1.87-.28.32-.56.63-.85.95-.28.32-.56.64-.84.97-2.3,2.67-4.47,5.45-6.54,8.31-1.98,2.74-3.86,5.56-5.64,8.44-1.85,2.99-3.58,6.05-5.22,9.16-3.2,6.1-6.01,12.43-8.43,18.89-4.82,12.88-8.15,26.47-9.85,40.11"/>
    <path class="cls-3" d="M25.77,569.25c.46-.42.96-.82,1.47-1.17.51-.35,1.07-.68,1.64-.92"/>
    <path class="cls-3" d="M28.88,567.16c.72-.3,1.45-.58,2.18-.86.37-.14.74-.28,1.1-.41.37-.13.74-.27,1.12-.39.75-.26,1.5-.51,2.26-.75.19-.06.38-.12.57-.18s.38-.12.57-.17c.38-.11.77-.23,1.15-.34.75-.21,1.5-.42,2.26-.61.38-.1.76-.19,1.14-.28.19-.05.38-.09.57-.14.19-.04.38-.09.58-.13,1.55-.35,3.11-.66,4.69-.93.38-.07.77-.13,1.16-.19.39-.06.78-.12,1.16-.18.78-.11,1.56-.22,2.34-.31.79-.09,1.58-.18,2.37-.25.4-.04.79-.07,1.19-.11.4-.03.8-.06,1.2-.09,1.58-.11,3.15-.19,4.74-.24.79-.02,1.58-.04,2.37-.05.4,0,.79,0,1.19,0s.79,0,1.18,0c.8,0,1.6.02,2.39.04.4.01.79.02,1.19.04.4.01.79.03,1.19.05.39.02.79.04,1.18.06.39.02.79.04,1.18.07.2.01.39.02.59.04.2.01.39.02.59.04.39.03.78.05,1.17.08.4.03.8.06,1.2.09.2.02.4.03.6.05.2.02.4.03.6.05.79.07,1.58.14,2.37.22.39.04.78.08,1.18.12.39.04.78.08,1.17.13.39.04.77.09,1.16.13.38.04.77.09,1.15.14.8.1,1.6.2,2.39.3.2.03.4.05.59.08.2.03.39.05.59.08.39.05.78.11,1.18.16.2.03.39.05.59.08l.58.08c.39.06.78.11,1.16.17.77.11,1.54.23,2.31.35.4.06.79.13,1.19.19.2.03.4.06.59.1l.59.1c.78.13,1.57.26,2.35.39.19.03.39.07.58.1.19.03.39.07.58.1.39.07.77.13,1.16.2.77.13,1.53.27,2.3.41"/>
    <line class="cls-3" x1="30.2" y1="566.88" x2="30.21" y2="566.88"/>
    <path class="cls-3" d="M-35.92,658.75c.36-2.11.76-4.2,1.21-6.29.45-2.09.94-4.17,1.48-6.24.27-1.04.55-2.07.85-3.1.29-1.03.6-2.05.91-3.08.31-1.02.64-2.04.98-3.05.17-.51.34-1.01.51-1.52.17-.5.35-1.01.53-1.51.72-2.02,1.49-4.02,2.3-6,.2-.49.41-.99.61-1.48s.42-.98.63-1.47c.42-.98.86-1.95,1.31-2.91.23-.49.45-.98.69-1.46.23-.48.47-.97.7-1.45.47-.96.96-1.92,1.45-2.87.49-.95,1-1.89,1.51-2.82.26-.47.52-.93.78-1.39.26-.46.53-.92.79-1.38.27-.47.55-.93.83-1.39.28-.46.56-.92.84-1.38.56-.91,1.14-1.81,1.73-2.71.29-.45.59-.89.89-1.33s.6-.88.9-1.32c.3-.44.61-.87.92-1.3.15-.22.31-.43.46-.65.15-.21.31-.43.47-.64.64-.87,1.29-1.73,1.95-2.58.33-.42.66-.85,1-1.26.33-.42.67-.83,1.01-1.25.34-.41.68-.82,1.03-1.23.34-.41.69-.81,1.04-1.21.7-.8,1.4-1.59,2.12-2.37.18-.2.37-.4.55-.59.18-.2.37-.39.56-.59.37-.39.74-.78,1.12-1.16.38-.38.75-.76,1.14-1.14.38-.38.76-.75,1.15-1.12.77-.74,1.55-1.46,2.35-2.17.4-.36.79-.71,1.2-1.06.4-.35.8-.69,1.21-1.03.41-.34.82-.69,1.24-1.02s.83-.67,1.26-1c.84-.66,1.69-1.3,2.56-1.93.86-.63,1.74-1.24,2.62-1.84.88-.6,1.78-1.18,2.68-1.75"/>
    <path class="cls-3" d="M150.71,135.6c1.08.34,2,.98,2.74,1.82"/>
    <line class="cls-3" x1="98.34" y1="219.15" x2="99.05" y2="216.23"/>
    <line class="cls-3" x1="341.66" y1="271.2" x2="340.95" y2="274.15"/>
    <path class="cls-3" d="M337.42,185.78c-.28-.04-.57-.04-.85,0-.32.04-.62.13-.92.26-.26.11-.51.25-.75.4-.27.17-.52.37-.76.58-.22.19-.43.39-.62.61-.21.23-.42.47-.61.72-.18.23-.35.47-.52.71-.17.26-.34.52-.5.78-.61,1.03-1.13,2.15-1.56,3.27-.43,1.12-.78,2.29-1.06,3.46"/>
    <path class="cls-3" d="M335.37,177.66c.67.1,1.29.35,1.85.72.56.36,1.05.83,1.47,1.34.42.51.79,1.08,1.1,1.66.31.59.58,1.2.81,1.83"/>
    <path class="cls-3" d="M334.54,177.53s-.05,0-.08-.01"/>
    <line class="cls-3" x1="334.54" y1="177.53" x2="335.37" y2="177.66"/>
    <path class="cls-3" d="M329.26,196.57c-.35,1.48-.6,3-.73,4.52-.13,1.51-.14,3.07,0,4.58.04.39.09.79.15,1.18.03.18.06.37.09.55.02.09.03.18.05.27.02.09.04.18.06.26.09.38.19.77.3,1.14.11.35.24.7.38,1.04.16.37.34.73.55,1.08.19.31.4.6.65.86.14.15.29.3.45.43.15.12.31.23.48.33.31.18.65.3,1.01.36"/>
    <line class="cls-3" x1="344.48" y1="259.38" x2="341.66" y2="271.2"/>
    <path class="cls-3" d="M101.87,204.53c-.1.4-.03.79.12,1.16"/>
    <line class="cls-3" x1="99.05" y1="216.23" x2="101.87" y2="204.53"/>
    <path class="cls-3" d="M102.51,203.53c-.3.27-.54.59-.64.99"/>
    <path class="cls-3" d="M140,140.77c.31-.34.63-.67.94-1"/>
    <path class="cls-3" d="M141.03,140.75s0,0,0,0"/>
    <path class="cls-3" d="M131.92,167.72l-.18-1.35"/>
    <path class="cls-3" d="M136.75,168.32c.36.11.74.16,1.11.16.41,0,.82-.07,1.22-.18.36-.1.71-.24,1.05-.41.37-.18.72-.4,1.06-.64.31-.22.61-.46.9-.71.3-.27.6-.55.87-.85.06-.07.13-.14.19-.21s.13-.14.19-.21c.13-.15.25-.29.38-.44.26-.32.5-.64.74-.97.91-1.28,1.68-2.69,2.3-4.13.63-1.44,1.14-2.96,1.51-4.48"/>
    <path class="cls-3" d="M140.94,139.76c.63-.68,1.32-1.32,2.04-1.9.72-.58,1.5-1.11,2.33-1.53.82-.42,1.71-.75,2.63-.89.93-.15,1.86-.11,2.76.17"/>
    <line class="cls-3" x1="150.71" y1="135.6" x2="151.47" y2="135.84"/>
    <path class="cls-3" d="M148.27,155.24c.29-1.19.49-2.41.6-3.63.11-1.21.11-2.46-.02-3.67-.07-.61-.18-1.22-.33-1.81-.08-.31-.18-.61-.29-.91-.1-.28-.22-.55-.35-.81-.14-.29-.31-.56-.5-.83-.17-.24-.36-.46-.56-.67-.23-.22-.48-.42-.75-.59-.25-.15-.52-.27-.8-.36"/>
    <path class="cls-3" d="M103.62,564.8c-3.31-.6-6.66-.84-10.02-.74-1.74.05-3.48.19-5.21.42-1.78.24-3.55.56-5.29.97-1.61.38-3.2.82-4.77,1.33-1.62.53-3.21,1.12-4.78,1.77-1.61.67-3.2,1.41-4.76,2.21-1.6.82-3.17,1.7-4.71,2.63-2.89,1.75-5.67,3.69-8.33,5.77-2.77,2.17-5.42,4.5-7.94,6.95-1.2,1.17-2.38,2.37-3.53,3.59-.58.62-1.15,1.24-1.72,1.87-.28.32-.57.63-.85.95-.28.32-.56.64-.84.97-2.3,2.68-4.47,5.45-6.54,8.31-1.98,2.74-3.86,5.56-5.64,8.44-1.85,2.99-3.58,6.05-5.22,9.16-3.2,6.1-6.01,12.43-8.43,18.89-4.82,12.88-8.15,26.47-9.85,40.11"/>
    <path class="cls-3" d="M59.85,512.59c-8.54-4.47-17.08-8.95-25.62-13.42"/>
    <path class="cls-3" d="M280.08,528.42c-.14.6-.29,1.2-.43,1.8-.04.15-.07.3-.11.45s-.07.3-.11.45c-.07.3-.14.6-.21.9-.14.6-.28,1.2-.41,1.8-.07.3-.13.6-.2.9-.07.3-.13.6-.2.9-.13.6-.26,1.21-.38,1.81-.06.3-.12.61-.18.91-.06.3-.12.61-.18.91-.12.6-.23,1.21-.34,1.81-.11.6-.21,1.21-.31,1.81-.05.31-.1.61-.15.92-.05.31-.09.61-.14.92-.09.61-.18,1.22-.26,1.83-.08.61-.16,1.22-.23,1.83-.07.61-.14,1.22-.21,1.83-.07.61-.13,1.22-.18,1.84-.06.61-.11,1.23-.16,1.84-.02.31-.05.61-.07.92s-.04.61-.06.92c-.04.62-.08,1.23-.11,1.85-.03.61-.07,1.22-.09,1.83-.01.31-.03.61-.04.92s-.02.61-.04.92c0,.15-.01.31-.02.46,0,.08,0,.15,0,.23,0,.08,0,.16,0,.23,0,.31-.02.62-.03.93-.02.62-.03,1.24-.05,1.86-.01.61-.03,1.23-.04,1.84-.01.62-.02,1.23-.03,1.85-.02,1.23-.03,2.47-.04,3.7s-.02,2.47-.02,3.7v1.85c0,.61-.01,1.23-.01,1.85,0,.62,0,1.23,0,1.85,0,.62,0,1.23,0,1.85s0,1.23,0,1.85c0,.61,0,1.23,0,1.85"/>
    <path class="cls-3" d="M44.09,504.13c-.23-.12-.47-.23-.7-.35-.12-.06-.25-.13-.37-.19-.06-.03-.13-.07-.19-.1-.06-.03-.13-.07-.19-.1-.48-.25-.97-.5-1.45-.75-.24-.13-.48-.25-.72-.38-.24-.13-.48-.25-.72-.38-.24-.13-.48-.25-.72-.38-.24-.13-.48-.25-.72-.38-.48-.26-.96-.51-1.44-.77-.48-.26-.95-.52-1.43-.78-.25-.14-.51-.28-.76-.43-.22-.12-.44-.25-.66-.38-.1-.06-.21-.12-.31-.18-.09-.05-.18-.11-.27-.16-.08-.05-.16-.1-.24-.15-.06-.04-.13-.08-.19-.13-.05-.03-.1-.07-.15-.1-.02-.01-.04-.03-.06-.04-.02-.01-.03-.02-.05-.04-.01-.01-.02-.02-.04-.03,0,0-.02-.02-.03-.03,0,0-.01-.01-.01-.02,0,0,0-.01,0-.02"/>
    <path class="cls-3" d="M133.27,516.15c1.03.24,2.05.48,3.06.78.51.15,1,.32,1.5.5.25.09.49.19.74.3.24.1.48.21.72.33.47.23.94.48,1.38.76.22.14.44.28.65.44.11.08.21.15.32.23.11.08.21.16.31.25.2.17.4.34.6.52.19.18.38.37.55.56.36.39.68.8.97,1.25"/>
    <path class="cls-3" d="M143.54,536.27c-.66-.16-1.32-.32-1.98-.48-.33-.08-.66-.16-.99-.24-.33-.08-.66-.16-.99-.24-1.31-.32-2.62-.64-3.93-.96-1.32-.32-2.63-.65-3.95-.97-.65-.16-1.31-.32-1.96-.49-.33-.08-.65-.16-.98-.24l-.97-.24c-5.22-1.3-10.49-2.64-15.71-3.99-5.19-1.35-10.49-2.75-15.67-4.16-.67-.18-1.35-.37-2.02-.55-.33-.09-.66-.18-.99-.27-.16-.04-.33-.09-.49-.14-.16-.04-.33-.09-.49-.13-.64-.18-1.29-.36-1.93-.54-.32-.09-.63-.18-.95-.26-.16-.04-.31-.09-.47-.13-.16-.04-.31-.09-.47-.13-.68-.19-1.36-.38-2.04-.58-.33-.09-.67-.19-1-.28-.16-.05-.33-.09-.49-.14l-.49-.14c-1.26-.36-2.51-.72-3.77-1.09"/>
    <path class="cls-3" d="M46.6,505.23s0,0,0,0c0,0-.01,0-.02,0,0,0-.02,0-.03,0-.01,0-.02,0-.04,0-.02,0-.03,0-.04-.01-.02,0-.04-.01-.05-.02-.05-.02-.09-.03-.14-.05-.05-.02-.1-.04-.15-.06-.06-.02-.11-.05-.17-.07-.2-.09-.43-.19-.63-.29-.4-.19-.84-.41-1.24-.6"/>
    <path class="cls-3" d="M142.26,521.9c-.02.06-.04.12-.09.16-.02.02-.05.05-.08.07-.02.01-.03.02-.05.03-.02,0-.04.02-.05.03-.06.02-.12.04-.17.06-.07.02-.14.03-.22.04-.06,0-.13.02-.19.02-.07,0-.14,0-.21.01-.07,0-.13,0-.19,0h-.1s-.07,0-.11,0c-.52,0-1.1-.06-1.61-.12"/>
    <path class="cls-3" d="M73.67,507.79c-.01.06-.04.11-.08.16-.05.05-.1.09-.16.12-.05.02-.11.04-.16.06-.07.02-.14.03-.2.04-.25.03-.52.02-.76,0-.49-.05-1.03-.17-1.5-.29"/>
    <path class="cls-3" d="M80.82,519.86c-1.77-.52-3.56-1.06-5.32-1.6-.45-.14-.9-.28-1.35-.42-.11-.03-.22-.07-.33-.1-.11-.03-.22-.07-.33-.1l-.64-.2c-.88-.28-1.76-.56-2.64-.85-.88-.29-1.76-.58-2.63-.88-.12-.04-.23-.08-.35-.12l-.34-.12c-.22-.08-.44-.16-.66-.23-.11-.04-.22-.08-.32-.12-.11-.04-.21-.08-.32-.12-.21-.08-.42-.15-.62-.23-.45-.16-.89-.33-1.33-.51-.42-.16-.84-.33-1.25-.51-.43-.18-.86-.36-1.28-.56-.09-.04-.19-.09-.28-.13-.09-.04-.19-.09-.28-.13-.05-.02-.09-.05-.14-.07-.02-.01-.05-.02-.07-.04-.02-.01-.05-.02-.07-.04-.05-.03-.11-.05-.16-.08l-.23-.12"/>
    <path class="cls-3" d="M144.99,528.69c.09.03.18.05.27.08"/>
    <path class="cls-3" d="M34.23,499.17c-.28-.15-.59-.32-.85-.49-.13-.09-.27-.19-.4-.29-.11-.1-.25-.23-.32-.37"/>
    <path class="cls-3" d="M31.67,495.83c-.03-.07-.05-.14-.03-.21"/>
    <line class="cls-3" x1="286.07" y1="503.42" x2="280.08" y2="528.42"/>
    <path class="cls-3" d="M59.27,501.2s.02-.05.03-.08c.02-.03.03-.05.05-.07.02-.02.05-.04.08-.06.03-.02.06-.04.1-.05.05-.02.11-.04.16-.05.07-.01.13-.02.2-.03.24-.02.51,0,.75.02.48.05,1.01.17,1.48.29"/>
    <line class="cls-3" x1="127.27" y1="516.77" x2="127.28" y2="516.76"/>
    <path class="cls-3" d="M32.67,497.87s0,0,0,0c0,0,.01,0,.02,0,0,0,.02,0,.03,0,.01,0,.02,0,.04,0,.02,0,.03,0,.04.01.02,0,.04,0,.06.02.05.01.09.03.14.04.05.02.1.03.15.05.06.02.11.04.17.07.2.08.43.18.63.27.4.18.84.38,1.24.57"/>
    <path class="cls-3" d="M130.48,515.84c.46.02.94.06,1.41.12.47.06.93.14,1.39.22"/>
    <path class="cls-3" d="M87.98,451.14c-7.15-1.33-15.03-2.71-22.23-3.79-3.58-.54-7.57-1.09-11.18-1.46-.53-.06-1.06-.11-1.59-.16-.49-.04-.98-.09-1.47-.13-.45-.03-.9-.07-1.34-.09-.41-.02-.81-.05-1.22-.06-.41-.02-.82-.03-1.23-.03-.36,0-.71,0-1.07,0-.16,0-.32,0-.47.02-.14,0-.29.02-.43.03-.13,0-.26.02-.39.04-.12.01-.24.03-.36.04-.11.02-.21.03-.32.05-.09.02-.18.04-.28.06-.08.02-.16.04-.24.07-.07.02-.13.05-.2.08-.06.03-.11.06-.16.09-.04.03-.09.06-.12.1-.06.06-.11.13-.13.22"/>
    <path class="cls-3" d="M140.28,549.74c1.44-4.78,2.86-9.56,4.22-14.36.34-1.2.68-2.4,1-3.6.08-.3.17-.6.25-.9.08-.3.16-.6.24-.91.15-.6.29-1.21.39-1.83.1-.61.16-1.23.18-1.86s-.02-1.25-.12-1.87c-.09-.61-.24-1.21-.45-1.8-.03-.07-.05-.15-.08-.22-.03-.07-.06-.15-.09-.22-.06-.15-.12-.29-.19-.43-.13-.28-.28-.56-.44-.83-.08-.13-.16-.27-.25-.4-.09-.13-.17-.26-.26-.38-.18-.25-.37-.5-.58-.73-.1-.12-.21-.23-.31-.35-.11-.11-.22-.23-.33-.34-.22-.22-.45-.43-.69-.63-.24-.2-.48-.39-.73-.58-.25-.18-.51-.36-.77-.53-.53-.33-1.08-.63-1.64-.9-.28-.13-.57-.26-.86-.38-.29-.12-.58-.23-.87-.34-.59-.21-1.18-.4-1.78-.57-.15-.04-.3-.08-.45-.12-.15-.04-.3-.08-.45-.12-.3-.08-.61-.15-.91-.22-.61-.14-1.21-.28-1.82-.42-.15-.03-.31-.07-.46-.1-.15-.04-.31-.07-.46-.11-.31-.07-.61-.14-.92-.21l-1.83-.42c-1.21-.28-2.42-.55-3.64-.82-2.43-.55-4.87-1.1-7.3-1.64"/>
    <path class="cls-3" d="M128.67,587.23c.46-1.57.91-3.13,1.37-4.7.46-1.57.91-3.13,1.37-4.7.46-1.57.91-3.13,1.37-4.7.46-1.57.92-3.13,1.38-4.7.46-1.57.92-3.13,1.39-4.7.46-1.56.93-3.13,1.39-4.69.47-1.56.93-3.13,1.4-4.69s.93-3.13,1.4-4.69"/>
    <path class="cls-3" d="M35.18,498.88c.24.11.47.23.71.34.25.12.51.25.76.37.49.24.98.49,1.46.74s.97.5,1.45.75c.12.06.24.13.36.19.12.06.24.13.36.19.24.13.48.26.72.39.94.51,1.93,1.06,2.85,1.6.25.15.5.29.75.44.22.13.44.26.65.4.1.06.2.13.31.19.09.06.18.11.27.17.08.05.15.1.23.15.03.02.07.04.1.07.03.02.06.04.09.06.05.04.1.07.15.11.02.01.04.03.06.05.02.01.03.03.05.04.01.01.02.02.04.03,0,0,.02.02.02.03,0,0,.01.01.01.02,0,0,0,.01,0,.02"/>
    <path class="cls-3" d="M62.12,501.18c.26.07.53.14.79.22.28.09.56.18.84.27.54.18,1.07.38,1.6.59.26.1.53.21.79.32.26.11.52.22.79.34.26.12.52.24.78.36.26.12.51.25.76.38.13.07.26.13.39.2.06.03.13.07.19.1s.13.07.19.1c.25.13.49.27.73.41.26.15.51.3.76.45.12.07.24.15.36.22.06.04.11.07.17.11.03.02.06.04.08.06.03.02.05.04.08.05.25.17.5.35.74.53.03.02.06.04.08.07.03.02.06.04.08.06.05.04.11.08.16.13.1.08.19.16.29.25.08.07.15.14.23.21.07.07.13.13.2.2.06.06.11.13.16.19.05.06.09.12.13.18.04.05.07.11.1.17.02.05.04.1.06.16.01.05.02.09.03.14,0,.04,0,.09-.01.13"/>
    <path class="cls-3" d="M129.04,587.26c-2.22,7.47-4.45,14.95-6.66,22.42-2.22,7.47-4.42,14.95-6.62,22.43-2.2,7.48-4.38,14.97-6.55,22.45-1.09,3.74-2.17,7.49-3.25,11.24-.54,1.87-1.08,3.74-1.62,5.62-.27.94-.54,1.87-.8,2.81s-.52,1.88-.76,2.82"/>
    <path class="cls-3" d="M129.04,587.26c.47-1.56.93-3.13,1.39-4.69l1.4-4.69c.49-1.64.91-3.05,1.4-4.69.47-1.56.93-3.13,1.4-4.69.47-1.56.94-3.13,1.41-4.69s.94-3.12,1.41-4.69c.47-1.56.94-3.12,1.41-4.69.24-.78.47-1.56.71-2.34s.47-1.56.71-2.34"/>
    <path class="cls-3" d="M102.26,678.32c.25-.96.5-1.91.76-2.87.13-.48.26-.95.4-1.43.07-.24.13-.47.2-.71.07-.24.14-.47.21-.71s.14-.47.21-.71l.21-.71c.14-.47.28-.95.41-1.42.28-.95.55-1.9.83-2.84,1.1-3.79,2.21-7.59,3.31-11.38,1.1-3.79,2.21-7.59,3.31-11.38,1.1-3.8,2.21-7.59,3.31-11.39,1.1-3.79,2.21-7.59,3.31-11.38.55-1.9,1.1-3.8,1.66-5.69l1.66-5.69c1.1-3.79,2.21-7.59,3.31-11.38.55-1.9,1.1-3.8,1.66-5.69.14-.47.28-.95.41-1.42.07-.24.14-.47.21-.71l.21-.71c.07-.24.14-.47.21-.71.03-.12.07-.24.1-.36.03-.12.07-.24.1-.36.03-.12.07-.24.1-.36.03-.12.07-.24.1-.36.02-.06.03-.12.05-.18.02-.06.03-.12.05-.18.03-.12.07-.24.1-.36"/>
    <path class="cls-3" d="M139.18,522.2c-.75-.08-1.51-.2-2.25-.34-.75-.14-1.49-.3-2.22-.49"/>
    <path class="cls-3" d="M70.8,507.85c-.26-.07-.53-.15-.79-.23-.14-.04-.28-.09-.41-.13-.07-.02-.14-.05-.21-.07-.07-.02-.14-.05-.21-.07-.53-.19-1.07-.4-1.59-.61-.52-.22-1.04-.45-1.55-.69-.13-.06-.26-.12-.39-.18-.13-.06-.26-.12-.39-.19-.25-.12-.5-.25-.75-.38-.13-.07-.26-.13-.38-.2-.06-.03-.13-.07-.19-.1-.06-.03-.13-.07-.19-.1-.25-.13-.49-.27-.73-.41-.25-.15-.51-.3-.76-.45-.12-.07-.24-.15-.35-.22-.06-.04-.11-.07-.17-.11-.06-.04-.11-.07-.17-.11-.13-.09-.26-.18-.39-.27-.12-.09-.24-.17-.36-.26-.03-.02-.06-.04-.08-.06-.03-.02-.06-.04-.08-.06-.05-.04-.11-.08-.16-.12-.1-.08-.2-.16-.29-.24-.08-.07-.16-.14-.24-.21-.07-.07-.14-.13-.21-.2-.06-.06-.12-.12-.17-.19-.05-.06-.09-.12-.14-.18-.04-.05-.07-.11-.1-.16-.03-.05-.05-.1-.07-.15-.01-.04-.03-.09-.03-.13,0-.04,0-.08,0-.12"/>
    <path class="cls-3" d="M134.71,521.37c-.73-.19-1.47-.43-2.18-.69s-1.42-.56-2.1-.9c-.34-.17-.68-.35-1-.55-.17-.1-.34-.21-.5-.32-.08-.05-.15-.11-.23-.16-.04-.03-.07-.05-.11-.08-.04-.03-.07-.05-.11-.08-.16-.12-.32-.26-.47-.4-.13-.12-.25-.25-.36-.38-.07-.09-.14-.19-.2-.29-.05-.09-.1-.18-.13-.27-.03-.08-.05-.17-.06-.25,0-.04,0-.08,0-.12,0-.04,0-.08.02-.11"/>
    <path class="cls-3" d="M75.8,501.68c3.52.7,7.03,1.41,10.54,2.13,1.76.36,3.51.73,5.27,1.09.87.18,1.74.37,2.61.55.44.09.88.19,1.32.28.22.05.44.09.66.14.22.05.44.09.67.14,1.75.37,3.51.75,5.26,1.13.87.19,1.74.38,2.61.56.44.1.88.19,1.32.29.22.05.44.1.66.14.22.05.44.1.66.14,3.5.76,7.01,1.54,10.5,2.32"/>
    <path class="cls-3" d="M133.28,516.19c.45.09.9.19,1.35.31.45.12.89.25,1.33.4.87.31,1.71.69,2.51,1.16.2.12.41.25.6.38.1.06.19.13.28.19l.14.1s.09.06.13.1c.19.14.38.29.57.44.04.04.09.07.13.11.04.04.09.07.13.11.08.07.17.14.25.22.09.09.19.17.28.26.09.08.17.17.25.25.08.08.15.16.23.24.04.04.07.08.1.12.02.02.03.04.05.06.02.02.03.04.05.06.05.06.1.13.15.2.05.06.09.12.13.18.04.06.07.11.11.17.03.05.06.1.09.16.02.05.04.1.06.15.02.04.03.09.04.13,0,.04.01.08.01.12,0,.04,0,.07-.01.11"/>
    <path class="cls-3" d="M127.27,516.77c.04-.15.12-.27.23-.37.05-.05.11-.09.16-.13.07-.04.13-.08.21-.11.26-.12.57-.2.85-.24.29-.05.59-.07.88-.08.29-.01.59,0,.89,0"/>
    <path class="cls-3" d="M286.07,503.42s.01-.09,0-.14c0-.05-.02-.1-.03-.15-.02-.05-.05-.11-.08-.16-.04-.06-.08-.12-.12-.17-.05-.06-.11-.12-.17-.18-.07-.07-.14-.13-.22-.19-.09-.07-.17-.14-.26-.2-.1-.07-.21-.15-.31-.21-.12-.08-.24-.15-.36-.23-.13-.08-.27-.16-.41-.24-.15-.09-.3-.17-.46-.25-.17-.09-.34-.18-.51-.26-.18-.09-.37-.18-.56-.27-.2-.1-.4-.19-.61-.29-.45-.21-.91-.41-1.36-.6-.52-.22-1.04-.44-1.56-.65-.58-.24-1.17-.47-1.76-.69-.65-.25-1.3-.49-1.96-.74-.72-.26-1.43-.52-2.15-.78-.78-.28-1.56-.55-2.34-.82-.84-.29-1.69-.57-2.53-.86-.9-.3-1.81-.6-2.71-.89-.96-.31-1.92-.62-2.88-.92-1.83-.58-3.67-1.15-5.51-1.71-1.99-.61-3.98-1.21-5.98-1.8-2.13-.63-4.26-1.25-6.4-1.87-2.25-.65-4.5-1.29-6.75-1.92-1.99-.56-3.98-1.11-5.97-1.66-2.05-.56-4.09-1.12-6.14-1.67-2.09-.56-4.18-1.12-6.27-1.68-.53-.14-1.06-.28-1.58-.42l-.8-.21c-.27-.07-.53-.14-.8-.21-1.08-.28-2.16-.57-3.24-.85-4.03-1.05-8.07-2.09-12.1-3.12-4.26-1.08-8.53-2.15-12.8-3.2-16.45-4.06-33.5-8.06-50.04-11.72-4.29-.95-8.58-1.89-12.88-2.81-4.08-.87-8.16-1.74-12.25-2.58-2.26-.47-4.53-.93-6.8-1.39-2.16-.44-4.32-.87-6.48-1.29-2.05-.4-4.1-.8-6.15-1.19-1.93-.37-3.86-.73-5.79-1.09"/>
    <line class="cls-3" x1="31.64" y1="495.62" x2="43.55" y2="446.23"/>
    <path class="cls-3" d="M31.64,495.62s.02-.07.04-.09c.02-.03.05-.06.08-.08.04-.03.08-.05.12-.08.05-.03.11-.05.16-.07.07-.02.13-.04.2-.06.08-.02.16-.03.24-.05.09-.02.19-.03.28-.04.11-.01.21-.02.32-.03.12,0,.24-.01.36-.02.13,0,.27,0,.4,0,.15,0,.29,0,.44,0,.16,0,.32,0,.48.01.36.01.72.03,1.08.05.2.01.4.03.6.04h.16c.05.02.11.02.16.02.11,0,.22.02.33.03.4.03.81.07,1.21.11.45.04.89.09,1.33.14.24.03.47.05.71.08l.18.02c.06,0,.12.01.18.02l.37.05c.52.06,1.05.13,1.57.2.88.12,1.76.24,2.64.37.97.14,1.94.29,2.91.44.89.14,1.78.28,2.67.43.95.16,1.91.31,2.86.48,3.65.62,7.4,1.29,11.04,1.97,3.67.69,7.35,1.4,11.01,2.12"/>
    <path class="cls-3" d="M32.66,498.01c-.33-.73-.66-1.45-.99-2.18"/>
    <path class="cls-3" d="M32.66,498.01c-.05-.12-.05-.23.04-.33.02-.03.05-.05.08-.07.03-.02.07-.04.1-.06.04-.02.09-.04.13-.05.05-.02.11-.03.16-.05.06-.02.12-.03.19-.04.07-.01.14-.02.21-.03.08-.01.16-.02.24-.03.04,0,.09,0,.13-.01.02,0,.04,0,.07,0,.02,0,.05,0,.07,0,.1,0,.2-.01.3-.01.11,0,.22,0,.33,0,.24,0,.49,0,.73,0,.03,0,.07,0,.1,0,.03,0,.07,0,.1,0,.07,0,.14,0,.21,0,.14,0,.29.01.43.02.31.02.63.04.94.06.35.02.7.05,1.05.08.38.03.77.07,1.15.11.42.04.84.09,1.26.14.45.05.91.11,1.36.16.49.06.98.12,1.46.19.52.07,1.05.14,1.57.22.93.13,1.86.27,2.79.41.5.08,1,.15,1.5.23l.39.06c.13.02.26.04.39.06.26.04.53.08.79.13,1.1.18,2.2.36,3.3.55.14.02.29.05.43.07.14.02.29.05.43.07.29.05.58.1.88.15.6.1,1.2.21,1.8.31,2.01.36,4.02.72,6.03,1.09,2.2.41,4.41.83,6.61,1.25,1.01.19,2.01.39,3.02.59.52.1,1.03.2,1.55.3l.39.08c.13.03.26.05.39.08l.79.16c2.16.43,4.32.86,6.47,1.3,1.02.21,2.04.42,3.06.63.52.11,1.03.21,1.55.32.26.05.52.11.78.16.26.05.52.11.79.16,2.14.45,4.28.89,6.41,1.35,2.06.44,4.12.88,6.18,1.32,1.06.23,2.11.46,3.17.68,1.07.23,2.15.47,3.22.7.51.11,1.03.22,1.54.34.26.06.52.11.78.17s.52.11.78.17c1.04.23,2.08.46,3.13.69,2.11.47,4.22.94,6.33,1.41,4.18.94,8.36,1.89,12.54,2.85"/>
    <path class="cls-3" d="M275.05,587.13c0,.18,0,.36,0,.54,0,.18,0,.36,0,.54,0,.36,0,.72.01,1.08,0,.72.02,1.44.03,2.16.02,1.44.05,2.87.09,4.31.04,1.43.08,2.87.12,4.3.01.36.02.72.04,1.07,0,.18.01.36.02.54l.02.54c.02.72.05,1.44.08,2.16.05,1.42.11,2.83.17,4.25.03.7.06,1.41.09,2.11.03.7.06,1.41.1,2.11.13,2.92.28,5.83.42,8.75.14,2.94.29,5.87.42,8.81.03.63.06,1.27.08,1.9.03.69.06,1.38.09,2.07.06,1.48.12,2.96.18,4.44.01.36.03.73.04,1.09.01.36.02.72.04,1.09.01.36.02.72.04,1.08.01.36.02.72.03,1.08.01.36.02.72.03,1.08.01.36.02.72.03,1.08.02.72.04,1.44.05,2.15.03,1.43.06,2.85.08,4.28.02,1.43.04,2.85.04,4.28,0,1.43,0,2.87,0,4.3,0,.72,0,1.43-.02,2.15,0,.72-.02,1.44-.03,2.15-.02,1.44-.05,2.87-.09,4.31-.04,1.44-.09,2.88-.14,4.31-.11,2.87-.26,5.74-.44,8.6-.09,1.43-.19,2.87-.31,4.3-.11,1.43-.23,2.86-.37,4.29-.07.71-.13,1.43-.21,2.14-.04.36-.07.71-.11,1.07-.02.18-.04.36-.06.54-.02.18-.04.36-.06.54-.15,1.43-.32,2.85-.5,4.28-.18,1.43-.36,2.85-.56,4.27-.2,1.42-.41,2.84-.64,4.26s-.46,2.83-.71,4.25-.51,2.83-.79,4.23c-.28,1.41-.57,2.81-.88,4.22-.16.7-.31,1.4-.48,2.1s-.33,1.4-.5,2.09"/>
    <path class="cls-3" d="M144.07,522.07c.05.08.1.15.15.22.02.04.05.08.07.11.02.04.05.07.07.11.1.15.2.3.3.45.2.3.4.59.61.89.41.59.84,1.16,1.28,1.73"/>
    <path class="cls-3" d="M144.07,522.07c.08.13.16.26.24.39.07.13.15.26.21.4.13.27.25.54.36.81.11.28.19.56.27.85.04.14.07.29.1.44s.06.29.08.44c.02.15.04.3.06.45.01.15.03.3.03.45.02.3.02.59,0,.89,0,.15-.01.3-.02.44-.01.15-.02.3-.04.45-.03.3-.07.59-.12.89-.05.29-.1.59-.16.88-.06.29-.12.58-.19.87-.06.29-.13.58-.2.87-.03.15-.07.29-.1.43-.03.15-.07.29-.1.43-.27,1.16-.56,2.32-.86,3.47s-.6,2.31-.92,3.46c-.16.58-.32,1.15-.48,1.72-.16.57-.32,1.15-.49,1.72-.66,2.29-1.34,4.58-2.02,6.86"/>
    <path class="cls-3" d="M145.27,528.78s-.09-.03-.14-.04c-.02,0-.05-.01-.07-.02-.01,0-.02,0-.04-.01,0,0-.02,0-.02,0,0,0,0,0,0,0,0,0,0,0,0,0h0"/>
    <path class="cls-3" d="M103.62,564.8c2.54.46,5.07.94,7.59,1.43l.95.19c.32.06.63.12.95.19.63.12,1.26.25,1.89.38,1.26.25,2.53.51,3.79.76.32.06.63.13.95.19.31.06.63.13.95.19.63.13,1.26.26,1.89.39,1.26.26,2.52.52,3.78.78.63.13,1.26.26,1.9.4.31.07.63.13.94.2s.63.13.94.2c1.26.26,2.52.53,3.78.79"/>
    <path class="cls-3" d="M131.78,166.41c.09,1.13.25,2.28.53,3.38.27,1.1.65,2.2,1.19,3.2.27.5.58.99.94,1.43s.76.85,1.22,1.2c.93.71,1.99,1.11,3.16,1.18"/>
    <path class="cls-3" d="M133.31,167.27c-.15-.05-.29-.1-.43-.16-.14-.06-.28-.13-.41-.21-.14-.08-.27-.16-.39-.26-.13-.09-.25-.2-.37-.3-.11-.1-.22-.21-.32-.32-.05-.06-.1-.11-.15-.17-.05-.06-.1-.12-.15-.18-.2-.25-.37-.52-.52-.81-.04-.07-.07-.13-.1-.2-.03-.07-.07-.13-.1-.2-.07-.14-.13-.28-.19-.42-.12-.3-.22-.6-.31-.91-.09-.29-.16-.59-.22-.89-.03-.15-.06-.31-.09-.47-.01-.08-.03-.16-.04-.24-.01-.08-.02-.16-.03-.24-.16-1.23-.16-2.51-.07-3.74.01-.15.03-.31.04-.46.02-.15.03-.31.05-.46.04-.31.08-.62.13-.94.02-.15.05-.3.08-.46.03-.15.06-.31.09-.46.06-.31.13-.61.2-.92"/>
    <path class="cls-3" d="M130.02,153.86c.19-.77.41-1.54.66-2.3.06-.19.13-.38.2-.57s.14-.38.21-.56c.14-.37.3-.74.46-1.1.04-.09.08-.18.12-.28.04-.09.08-.18.13-.27.09-.18.17-.36.26-.54.04-.09.09-.18.14-.27.04-.09.09-.18.14-.26.09-.17.19-.35.28-.52.2-.35.41-.7.63-1.04.05-.08.11-.17.16-.25.05-.08.11-.16.16-.25.11-.16.22-.32.34-.48.06-.08.12-.17.19-.25.06-.08.12-.16.19-.24s.13-.16.19-.24c.06-.08.13-.16.19-.23.25-.3.51-.58.79-.86.29-.29.59-.57.91-.84.15-.13.3-.25.46-.36.04-.03.08-.06.12-.08.04-.03.08-.06.12-.08.08-.05.16-.11.23-.16.18-.12.36-.22.54-.33.09-.05.18-.1.27-.14.09-.04.18-.09.27-.13.35-.16.71-.29,1.09-.38.05-.01.1-.02.15-.03s.1-.02.15-.03c.1-.02.2-.03.3-.04.1-.01.2-.02.3-.02.05,0,.1,0,.15,0s.1,0,.15,0c.2,0,.39.02.59.05.19.03.38.07.57.13"/>
    <path class="cls-3" d="M344.48,259.38c.04-.19.05-.38.03-.57-.01-.1-.03-.2-.06-.31-.03-.11-.07-.21-.11-.32-.05-.11-.1-.22-.16-.33-.07-.12-.14-.23-.21-.35-.08-.12-.17-.24-.27-.36-.1-.13-.21-.25-.32-.37-.12-.13-.25-.26-.38-.39-.14-.14-.29-.27-.43-.4-.16-.14-.32-.28-.49-.41-.18-.15-.36-.29-.55-.43-.2-.15-.4-.3-.61-.44-.22-.15-.44-.31-.67-.45-.24-.16-.48-.31-.73-.47-.26-.16-.52-.32-.79-.48-.58-.34-1.17-.68-1.76-1-.66-.36-1.33-.71-2-1.05-.74-.38-1.49-.74-2.25-1.1-.83-.39-1.66-.77-2.49-1.14-.91-.4-1.82-.8-2.73-1.19-.99-.42-1.98-.83-2.97-1.23-1.06-.43-2.13-.85-3.2-1.26-1.14-.44-2.28-.87-3.42-1.3-1.08-.4-2.16-.8-3.24-1.19-1.13-.41-2.27-.81-3.41-1.21-1.19-.41-2.37-.82-3.56-1.22-1.23-.42-2.47-.83-3.71-1.24-2.6-.85-5.2-1.69-7.8-2.5-2.75-.86-5.5-1.7-8.26-2.52-2.45-.73-4.91-1.45-7.37-2.15-2.52-.72-5.04-1.43-7.57-2.13-5.14-1.42-10.32-2.8-15.48-4.14-5.15-1.33-10.32-2.62-15.48-3.87-2.54-.61-5.09-1.22-7.64-1.82-.63-.15-1.26-.29-1.89-.44-.63-.15-1.25-.29-1.88-.43-1.26-.29-2.52-.58-3.78-.86-5.07-1.15-10.16-2.26-15.25-3.34-5.2-1.1-10.42-2.16-15.63-3.18-5.24-1.03-10.52-2.01-15.78-2.95-2.58-.46-5.16-.9-7.74-1.34-2.52-.42-5.03-.83-7.55-1.23-2.84-.45-5.69-.88-8.54-1.29-2.7-.39-5.41-.76-8.12-1.11-2.53-.33-5.07-.64-7.61-.92-1.2-.13-2.39-.26-3.59-.39-1.15-.12-2.29-.23-3.44-.34-1.12-.1-2.25-.2-3.37-.29-1.06-.09-2.13-.17-3.19-.24-1-.07-2.01-.13-3.01-.18-.94-.05-1.88-.1-2.82-.13-.88-.03-1.75-.06-2.63-.08-.81-.02-1.62-.03-2.43-.03-.74,0-1.49,0-2.23.02-.68.02-1.36.04-2.04.07-.61.03-1.23.07-1.84.12-.55.05-1.1.1-1.64.17-.48.06-.97.13-1.45.21-.42.07-.84.16-1.26.25-.19.04-.37.09-.56.14-.17.05-.34.1-.51.15-.16.05-.31.1-.47.16-.14.05-.28.11-.42.17-.13.06-.25.12-.38.18-.11.06-.23.12-.34.19-.1.06-.2.13-.29.2-.09.06-.17.13-.25.2"/>
    <path class="cls-3" d="M334.37,177.62c.33-.02.67-.01,1,.04"/>
    <path class="cls-3" d="M344.98,202.97c-.07.3-.15.6-.23.9-.04.15-.08.3-.13.44-.04.15-.09.29-.13.44-.09.3-.19.59-.29.89-.05.14-.1.29-.16.43-.05.14-.11.29-.16.43-.44,1.14-.99,2.28-1.63,3.32-.17.27-.34.53-.52.79-.04.06-.09.12-.13.19s-.09.12-.14.18c-.09.12-.18.23-.28.35-.2.25-.42.48-.64.71-.21.21-.43.41-.67.6-.25.2-.51.38-.79.54-.13.08-.27.15-.4.21-.07.03-.13.06-.2.09-.07.03-.13.05-.2.08-.15.05-.3.1-.45.13-.08.02-.15.03-.23.05-.08.01-.15.02-.23.03-.3.03-.61.03-.91-.02"/>
    <path class="cls-3" d="M340.61,183.2c.41,1.11.82,2.23,1.23,3.34"/>
    <path class="cls-3" d="M341.17,186.36c.19.03.37.07.55.13.09.03.18.06.27.1.09.04.17.08.26.12.09.04.17.09.25.14.04.03.08.05.12.08s.08.06.12.08c.08.06.16.12.23.18.04.03.08.07.11.1.04.03.07.07.11.1.27.26.5.54.71.85.23.33.43.69.6,1.05.04.08.08.16.11.25.04.08.07.17.11.25.04.09.07.17.1.26.02.04.03.09.05.13.02.05.03.09.05.14.13.38.24.76.34,1.15.09.37.17.73.23,1.1.07.39.12.78.17,1.18.02.19.04.37.05.56,0,.09.02.19.02.29,0,.1.01.19.02.29.02.39.03.78.04,1.18,0,.19,0,.38,0,.57,0,.1,0,.19,0,.29,0,.1,0,.19,0,.29,0,.1,0,.19-.01.29,0,.1,0,.19-.02.29-.01.2-.02.39-.04.59-.03.38-.07.77-.11,1.15-.02.19-.05.38-.07.58-.03.19-.06.38-.09.58-.12.76-.27,1.52-.45,2.27"/>
    <path class="cls-3" d="M337.15,213.78c-.76.93-1.52,1.86-2.29,2.79"/>
    <path class="cls-3" d="M99.05,216.23c.06-.24.17-.45.32-.65.09-.11.18-.21.28-.3.11-.1.24-.2.36-.28.14-.1.29-.18.45-.26.17-.09.35-.17.53-.24.2-.08.4-.16.61-.22.23-.08.46-.14.69-.21.28-.07.57-.14.86-.2.32-.07.63-.13.95-.18.35-.06.7-.11,1.05-.15.38-.05.77-.09,1.15-.13,2.6-.25,5.53-.29,8.14-.25,5.24.08,11.05.51,16.27,1.01"/>
    <path class="cls-3" d="M29.36,567.76c-.12.06-.24.12-.36.18-.03.02-.07.03-.1.04s-.07.03-.1.05c-.07.03-.14.06-.21.09-.14.06-.29.12-.44.19-.15.06-.31.13-.46.19-.14.06-.28.11-.42.17l-.42.17c-.28.11-.57.22-.85.33s-.57.22-.85.33c-.14.05-.28.11-.42.16-.14.05-.28.11-.42.16-.28.11-.57.22-.85.34-.14.06-.28.11-.42.17-.14.06-.28.11-.41.17-.56.23-1.12.47-1.67.71-.14.06-.28.12-.42.19-.14.06-.28.13-.41.19-.27.13-.54.26-.81.39-.54.27-1.08.54-1.62.83-.13.07-.27.15-.4.22-.13.07-.26.15-.4.23-.26.15-.52.31-.77.47"/>
    <path class="cls-3" d="M30.2,566.88s.04,0,.05.02c.02,0,.03.01.04.02.02.01.04.03.05.06,0,.02,0,.05,0,.07,0,.02-.01.03-.02.04-.01.02-.02.04-.03.05-.07.09-.19.18-.28.24-.19.13-.44.27-.65.37"/>
    <path class="cls-3" d="M313.28,288.11c-1.53-.59-3.06-1.16-4.6-1.72"/>
    <path class="cls-3" d="M46.86,445.53c-.5-.26-1.07-.58-1.54-.9-.23-.16-.49-.36-.69-.56-.06-.06-.11-.12-.16-.18-.04-.05-.08-.11-.12-.17-.02-.04-.04-.08-.06-.11-.01-.04-.03-.07-.03-.11-.01-.07-.02-.13,0-.2"/>
    <path class="cls-3" d="M139.64,236.73c-3.82-.52-7.71-1-11.54-1.42-3.81-.42-7.76-.79-11.58-1.05-3.72-.25-7.89-.44-11.62-.36-.55.01-1.1.03-1.65.05-.51.02-1.01.05-1.52.09-.46.03-.92.07-1.38.12-.42.04-.83.1-1.24.16-.37.05-.73.12-1.1.19-.32.06-.64.14-.96.22-.28.07-.55.16-.83.25-.23.08-.47.18-.69.29-.19.09-.38.2-.56.32-.15.1-.29.22-.42.34-.11.11-.21.24-.29.37-.07.13-.13.26-.16.4"/>
    <path class="cls-3" d="M336.71,291.87c.05-.2.05-.4.02-.59-.02-.11-.05-.22-.08-.32-.04-.11-.09-.23-.14-.33-.06-.12-.13-.24-.2-.35-.08-.13-.17-.25-.27-.36-.1-.13-.21-.25-.33-.38-.13-.13-.26-.26-.39-.39-.17-.16-.34-.31-.52-.46-.19-.16-.39-.32-.6-.47-.22-.17-.45-.33-.67-.49-.25-.17-.5-.34-.75-.51-1.72-1.11-3.75-2.19-5.59-3.08-3.69-1.8-7.92-3.55-11.75-5.03"/>
    <path class="cls-3" d="M286.78,500.46c-.02.07-.05.13-.09.18-.02.03-.05.06-.08.08-.03.03-.07.05-.11.08-.06.04-.12.07-.18.1-.07.03-.15.06-.23.09-.28.09-.6.15-.89.19-.58.08-1.23.11-1.81.12"/>
    <line class="cls-3" x1="311.03" y1="277.49" x2="308.87" y2="286.5"/>
    <path class="cls-3" d="M312.35,125.42c-.23.07-.47.14-.7.22"/>
    <path class="cls-3" d="M127.89,97.16c-.02-.26,0-.51.06-.76"/>
    <path class="cls-3" d="M341.69,113.68c-1.78-.7-3.57-1.38-5.36-2.04-1.95-.72-3.91-1.42-5.87-2.11-2.11-.74-4.23-1.46-6.35-2.16-2.26-.75-4.53-1.48-6.81-2.2-1.95-.61-3.9-1.22-5.86-1.81-2.03-.62-4.07-1.22-6.11-1.81-2.11-.61-4.22-1.22-6.33-1.81-2.17-.61-4.34-1.21-6.52-1.79-4.12-1.11-8.25-2.19-12.39-3.23-4.22-1.06-8.44-2.09-12.68-3.08-4.23-.99-8.47-1.95-12.72-2.87-4.17-.91-8.35-1.78-12.54-2.63-4.33-.87-8.66-1.71-13-2.5-4.13-.76-8.28-1.49-12.42-2.17-4.33-.72-8.69-1.4-13.04-2.02-2.12-.31-4.24-.6-6.36-.88-2.06-.27-4.13-.54-6.19-.78-2.34-.28-4.67-.54-7.01-.79-2.22-.23-4.44-.44-6.67-.63-2.08-.18-4.17-.34-6.26-.47-.99-.06-1.97-.12-2.96-.17-.95-.05-1.89-.09-2.84-.13-.82-.03-1.65-.06-2.47-.08-.79-.02-1.57-.04-2.36-.05-.75,0-1.5-.01-2.25-.01-.71,0-1.42,0-2.14.02-.67.01-1.35.03-2.02.06-.63.02-1.27.05-1.9.09-.59.03-1.19.07-1.78.12-.55.04-1.11.09-1.66.15-.51.05-1.03.12-1.54.18-.47.06-.94.13-1.42.21-.43.07-.86.15-1.29.24-.39.08-.78.17-1.17.27-.35.09-.7.19-1.05.3-.31.1-.62.21-.93.33-.27.11-.55.22-.81.35-.24.11-.47.24-.7.37"/>
    <path class="cls-3" d="M287.43,118.29c-1.25-.07-2.52-.16-3.77-.27"/>
    <path class="cls-3" d="M219.76,103.88c-.73-.27-1.46-.54-2.18-.81"/>
    <path class="cls-3" d="M368.11,128.57c-.15-.22-.31-.44-.48-.65-.19-.23-.39-.46-.6-.68-.23-.24-.47-.48-.72-.7-.27-.25-.55-.49-.84-.73-.22-.18-.45-.36-.68-.54-.25-.19-.49-.37-.75-.55-.27-.19-.54-.38-.81-.56-.29-.2-.58-.39-.87-.58-2.09-1.35-4.45-2.63-6.67-3.74-4.44-2.23-9.4-4.34-14.02-6.15"/>
    <path class="cls-3" d="M370.61,150.22c-.06.25-.16.49-.29.71"/>
    <path class="cls-3" d="M117.37,234.32c3.86.2,7.9.54,11.74.93,3.88.4,7.83.87,11.7,1.38"/>
    <path class="cls-3" d="M98.34,219.15c.03-.14.09-.27.16-.4.08-.14.17-.26.28-.38.12-.13.26-.25.4-.35.17-.12.34-.23.52-.32.21-.11.43-.21.65-.3.25-.1.52-.19.78-.27.3-.09.6-.17.9-.24.34-.08.69-.15,1.03-.21.4-.07.79-.13,1.19-.18.44-.06.88-.11,1.32-.15.48-.05.97-.08,1.46-.11.53-.03,1.06-.06,1.58-.08,3.58-.14,7.59-.01,11.16.19,3.67.21,7.47.53,11.13.89,3.69.37,7.42.8,11.1,1.27"/>
    <path class="cls-3" d="M132.22,96.81c.33-.12.66-.23.99-.32.37-.11.74-.2,1.11-.29.41-.1.82-.18,1.24-.26.45-.09.9-.16,1.36-.23.49-.07.98-.14,1.47-.2.53-.06,1.06-.12,1.59-.17.57-.05,1.14-.1,1.71-.13.61-.04,1.21-.07,1.82-.1.64-.03,1.28-.05,1.93-.07.68-.02,1.36-.03,2.03-.04.71,0,1.42,0,2.14,0,.74,0,1.49.01,2.23.03,1.58.03,3.16.08,4.74.15,1.7.07,3.39.17,5.08.28,1.13.07,2.25.15,3.38.24,1.16.09,2.32.18,3.49.29,2.42.21,4.84.45,7.26.71,2.52.27,5.04.56,7.56.87,2.6.32,5.19.66,7.78,1.02,2.37.33,4.73.67,7.09,1.02,1.19.18,2.38.36,3.57.55.6.09,1.19.19,1.79.28.3.05.6.09.89.14s.6.1.89.14c2.45.39,4.9.8,7.34,1.22,2.56.44,5.12.89,7.68,1.36,4.73.86,9.46,1.77,14.18,2.71,4.97.99,9.93,2.03,14.87,3.11,9.62,2.1,19.31,4.38,28.86,6.81,4.89,1.24,9.77,2.53,14.63,3.87,2.36.65,4.72,1.31,7.08,1.98,2.29.65,4.58,1.32,6.86,2,2.58.77,5.15,1.55,7.71,2.35,2.44.76,4.87,1.54,7.3,2.34,2.28.75,4.56,1.52,6.83,2.31,2.11.73,4.22,1.48,6.32,2.26,1.54.57,3.08,1.15,4.61,1.74,1.43.55,2.85,1.11,4.26,1.69,1.31.53,2.61,1.07,3.9,1.63,1.19.51,2.37,1.03,3.54,1.57,1.07.49,2.13.99,3.18,1.51.95.46,1.89.94,2.82,1.44.43.23.85.46,1.28.69.4.22.8.44,1.19.67.37.21.74.43,1.11.65.34.21.68.42,1.02.64"/>
    <path class="cls-3" d="M361.94,145.24c.81.51,1.62,1.07,2.38,1.64.76.57,1.53,1.21,2.19,1.88"/>
    <path class="cls-3" d="M127.6,97.87c.04-.18.1-.36.17-.53.03-.09.07-.17.11-.26.04-.08.08-.17.13-.25.09-.16.2-.32.31-.47.06-.08.11-.15.18-.22s.12-.14.19-.21c.13-.14.27-.27.41-.39.07-.06.15-.12.22-.18.08-.06.15-.12.23-.18.16-.12.33-.22.5-.33.09-.05.17-.1.26-.15.09-.05.18-.1.27-.15.39-.2.79-.38,1.19-.54.44-.17.9-.32,1.36-.46.5-.15,1.01-.28,1.53-.4.14-.03.27-.06.41-.09.07-.01.14-.03.21-.04s.14-.03.21-.04c.29-.06.58-.11.87-.16.62-.11,1.25-.2,1.87-.28.68-.09,1.37-.16,2.05-.22.36-.03.73-.06,1.09-.09.19-.01.38-.03.56-.04.1,0,.19-.01.29-.02.1,0,.19-.01.29-.02.8-.05,1.6-.09,2.41-.12.42-.02.85-.03,1.27-.04.11,0,.22,0,.32,0,.11,0,.22,0,.33,0,.22,0,.44,0,.66-.01.92-.01,1.83-.02,2.75,0,.24,0,.48,0,.71,0,.12,0,.24,0,.36,0,.12,0,.24,0,.36,0,.49,0,.99.02,1.48.03,1.03.02,2.06.06,3.08.1.27.01.54.02.81.03.14,0,.27.01.41.02l.41.02c.56.03,1.11.05,1.67.08,1.15.06,2.3.13,3.45.21,1.2.08,2.4.17,3.6.26,1.25.1,2.5.21,3.75.32,2.64.24,5.29.51,7.93.8.34.04.69.08,1.03.11.35.04.69.08,1.04.12.7.08,1.4.16,2.09.25,1.43.17,2.85.35,4.27.53,2.4.31,4.8.63,7.2.97,2.49.35,4.98.72,7.47,1.1,1.28.2,2.55.4,3.83.6l.48.08.48.08c.32.05.64.1.97.16.65.11,1.29.21,1.94.32,2.63.43,5.25.88,7.87,1.35,4.95.87,9.91,1.8,14.85,2.76,5.06.99,10.13,2.03,15.17,3.11,5,1.07,10,2.19,14.98,3.34.62.14,1.25.29,1.87.44.62.15,1.24.29,1.87.44,1.24.29,2.48.59,3.72.89,2.46.59,4.91,1.2,7.37,1.82,5.05,1.27,10.1,2.59,15.12,3.95.62.17,1.23.34,1.85.5.61.17,1.22.34,1.83.51,1.21.34,2.42.67,3.63,1.02,2.37.67,4.73,1.35,7.09,2.05,2.64.78,5.27,1.57,7.9,2.39,2.5.78,5,1.57,7.5,2.39,1.2.39,2.4.79,3.59,1.19.59.2,1.17.39,1.75.59.29.1.58.2.87.3.14.05.29.1.43.15.14.05.29.1.43.15,2.21.76,4.41,1.54,6.61,2.35,1.51.55,3.02,1.12,4.52,1.69,1.42.54,2.84,1.1,4.25,1.67,1.32.53,2.64,1.08,3.95,1.64.62.27,1.24.54,1.87.81.08.03.15.07.23.1.08.03.15.07.23.1.15.07.3.13.45.2.29.13.59.26.88.4,1.12.51,2.24,1.03,3.34,1.57,1.01.49,2.02,1,3.02,1.53.24.12.47.25.71.37.12.06.23.12.35.19.06.03.11.06.17.09.06.03.11.06.17.09.44.24.88.49,1.31.73.11.06.21.12.31.18.1.06.21.12.31.18.2.12.4.24.6.36.38.23.77.47,1.14.71"/>
    <path class="cls-3" d="M363.17,142.46c.86.55,1.72,1.14,2.53,1.76.11.08.21.16.32.24.05.04.1.08.15.12.05.04.1.08.15.12.2.16.39.32.58.48.39.33.77.69,1.13,1.05.09.09.19.19.28.29.04.05.09.1.13.14s.09.1.13.15c.04.05.08.1.12.14s.08.1.12.15c.08.1.16.19.23.29.31.41.59.85.81,1.31.06.12.11.24.16.36.05.12.09.24.13.36.04.12.07.24.1.37.03.12.05.25.07.37.02.13.03.25.04.38,0,.13,0,.26,0,.38s-.02.26-.03.38c-.02.13-.04.25-.07.38"/>
    <path class="cls-3" d="M341,135.66c-1.87-.73-3.75-1.43-5.63-2.12-2.05-.75-4.1-1.48-6.16-2.19-2.22-.77-4.44-1.52-6.68-2.25-2.38-.78-4.76-1.55-7.15-2.29-2.05-.64-4.1-1.27-6.15-1.89-2.14-.64-4.27-1.27-6.42-1.89-2.21-.64-4.43-1.27-6.65-1.89-2.28-.64-4.56-1.26-6.85-1.88-4.33-1.16-8.66-2.29-13-3.38-4.43-1.11-8.86-2.19-13.31-3.23s-8.9-2.05-13.36-3.03c-4.38-.96-8.77-1.88-13.16-2.77-4.54-.92-9.09-1.81-13.65-2.65-2.19-.41-4.38-.8-6.57-1.19-.27-.05-.54-.09-.81-.14-.27-.05-.54-.09-.81-.14-.54-.09-1.08-.19-1.62-.28-1.08-.19-2.15-.37-3.23-.55-4.55-.77-9.12-1.49-13.68-2.17-2.22-.33-4.44-.65-6.67-.95-2.16-.3-4.33-.58-6.5-.85-2.45-.3-4.9-.59-7.36-.86-2.33-.25-4.66-.49-7-.7-2.19-.2-4.38-.38-6.57-.53-1.03-.07-2.07-.14-3.11-.2-.99-.06-1.99-.11-2.98-.16-.87-.04-1.74-.07-2.61-.1-.83-.03-1.66-.05-2.5-.07-.79-.02-1.59-.03-2.38-.03-.75,0-1.5,0-2.26,0-.71,0-1.42.02-2.13.04-.67.02-1.34.04-2,.08-.63.03-1.25.07-1.87.11-.58.04-1.16.09-1.75.15-.54.05-1.08.11-1.61.18-.5.06-.99.13-1.48.21-.45.07-.9.15-1.35.24-.41.08-.82.17-1.22.27-.37.09-.73.19-1.09.3-.32.1-.65.21-.96.33-.28.11-.56.23-.84.36-.24.12-.48.24-.71.38"/>
    <path class="cls-3" d="M246.62,223l-.16.15"/>
    <path class="cls-3" d="M368.92,151.25c-.15-.24-.31-.47-.48-.7-.2-.25-.4-.49-.62-.72-.24-.26-.49-.51-.76-.75-.29-.26-.58-.52-.89-.77-.24-.19-.48-.38-.72-.57-.26-.2-.52-.39-.79-.58-.28-.2-.57-.4-.85-.59-.3-.2-.61-.4-.92-.6-2.21-1.41-4.71-2.74-7.06-3.9-4.69-2.32-9.95-4.52-14.82-6.41"/>
    <path class="cls-3" d="M128.8,98.13c.23-.14.47-.27.72-.38.27-.13.56-.25.84-.36.32-.12.64-.23.97-.33.36-.11.73-.21,1.09-.3.41-.1.81-.19,1.22-.27.45-.09.9-.17,1.36-.24.49-.08.99-.15,1.49-.21.54-.07,1.08-.13,1.62-.18.58-.06,1.17-.1,1.75-.15.63-.04,1.25-.08,1.88-.11.67-.03,1.34-.06,2.01-.08.71-.02,1.42-.03,2.14-.04.75,0,1.51,0,2.26,0,.79,0,1.59.02,2.38.03.83.02,1.67.04,2.5.07.87.03,1.75.06,2.62.11,1,.05,1.99.1,2.99.16,1.04.06,2.08.13,3.12.2,2.2.15,4.39.33,6.59.53,2.34.21,4.68.45,7.01.7,2.46.27,4.92.55,7.38.86,2.17.27,4.34.55,6.51.85,2.23.3,4.46.62,6.69.95,4.57.68,9.15,1.4,13.71,2.17,1.08.18,2.16.37,3.24.55l1.62.28.81.14c.27.05.54.1.81.14,2.2.39,4.39.79,6.59,1.2,4.57.85,9.13,1.74,13.68,2.66,4.41.89,8.8,1.82,13.19,2.78,4.47.98,8.93,1.99,13.39,3.03,4.46,1.05,8.9,2.13,13.34,3.24,4.36,1.09,8.7,2.22,13.04,3.39,2.29.62,4.58,1.24,6.86,1.88,2.22.62,4.45,1.25,6.66,1.9,2.15.62,4.29,1.25,6.43,1.9,2.06.62,4.12,1.25,6.17,1.89,2.4.75,4.79,1.52,7.17,2.3,2.24.74,4.47,1.49,6.69,2.26,2.07.72,4.13,1.45,6.18,2.2,1.89.69,3.77,1.4,5.65,2.13"/>
    <path class="cls-3" d="M127.04,100.2c.11-.46.36-.86.67-1.2.31-.34.7-.63,1.09-.86"/>
    <path class="cls-3" d="M343.88,172.07c-.07-.01-.15-.02-.22-.02-.09,0-.19,0-.28,0-.12,0-.23.01-.35.03-.14.02-.28.04-.42.07-.16.03-.32.07-.48.11-.18.05-.36.11-.54.17-.2.07-.4.15-.59.23-.05.02-.1.04-.16.07-.05.02-.11.05-.16.07-.11.05-.22.1-.32.15-.25.12-.49.25-.73.38-.26.15-.51.3-.76.46-.13.08-.26.17-.39.26-.07.04-.13.09-.2.14-.07.05-.13.09-.2.14-.27.2-.54.4-.81.61-.46.36-.91.75-1.34,1.15-.23.21-.45.43-.68.65-.06.06-.11.11-.17.17-.06.06-.11.11-.17.17-.11.12-.23.23-.34.35-.2.22-.4.43-.6.65-.1.11-.2.23-.3.34-.1.12-.2.23-.29.35-.1.12-.2.24-.29.36-.1.12-.19.24-.29.37-.2.25-.39.5-.57.76-.72.99-1.39,2.01-2,3.07-.07.13-.15.26-.22.39-.07.13-.15.26-.22.4-.15.27-.29.54-.43.81-.14.27-.28.55-.41.83-.13.28-.27.56-.39.85-.06.14-.12.27-.18.41-.06.14-.12.28-.18.42-.12.28-.23.56-.34.85-.06.14-.11.29-.17.43s-.11.29-.16.43c-.11.29-.21.58-.31.88-.1.29-.19.58-.28.87-.09.29-.18.58-.26.88-.17.59-.33,1.19-.47,1.78"/>
    <path class="cls-3" d="M326.21,193.5c-.18.75-.34,1.51-.48,2.27-.14.77-.26,1.53-.35,2.31-.1.77-.17,1.55-.22,2.32-.03.39-.05.77-.06,1.16-.02.39-.03.77-.03,1.16,0,.39,0,.78,0,1.18,0,.2,0,.39.01.58,0,.19.01.39.02.58.01.39.03.77.06,1.16.02.38.05.77.09,1.15.02.2.04.39.06.59.02.2.04.39.07.59.04.39.09.78.15,1.16.03.19.06.38.09.57.03.19.06.38.09.57.06.38.13.75.21,1.12.02.1.04.2.06.3.02.1.04.2.06.29.04.19.08.39.13.58.04.19.09.38.13.58.04.19.09.38.14.57.09.37.2.74.3,1.11.03.09.05.18.08.27s.05.18.08.27c.05.18.11.36.16.54.06.2.12.39.19.58.03.1.06.19.1.29s.07.19.1.29c.13.37.27.74.41,1.11.07.18.14.36.21.54.07.18.14.35.22.53.07.17.15.34.22.51.04.08.07.17.11.25.04.08.07.17.11.25.09.19.18.39.27.58.05.09.09.19.14.28.05.09.09.19.14.28.18.36.37.71.57,1.06.05.08.1.17.14.25l.14.25c.09.16.19.32.29.47.02.04.05.08.07.12l.07.11c.05.07.1.15.15.22.09.14.19.29.29.43.2.29.41.57.63.85.19.25.4.49.61.72.18.2.37.4.57.59.16.16.33.31.51.45.07.06.15.12.22.17.07.05.13.1.2.14.06.04.11.07.17.11.05.03.1.06.14.08.04.02.07.04.11.05.03.01.05.02.08.03.02,0,.03.01.05.02,0,0,0,0,.01,0,0,0,0,0,0,0h0s0,0,0,0h0"/>
    <path class="cls-3" d="M128.65,180.95c.05.02.1.03.16.04.07.02.14.03.21.03.09.01.18.02.28.02.11,0,.23,0,.35,0,.14,0,.28-.02.41-.03.16-.02.32-.04.48-.07.18-.03.36-.07.54-.11.2-.05.4-.1.6-.16.22-.06.43-.13.65-.21.06-.02.11-.04.17-.06.06-.02.11-.04.17-.06.12-.04.24-.09.35-.14.25-.1.49-.2.73-.31.13-.06.25-.12.38-.18.06-.03.13-.06.19-.09.07-.03.13-.06.19-.1.44-.22.87-.46,1.3-.71.22-.13.45-.27.67-.4.11-.07.23-.14.34-.21.06-.04.11-.07.17-.11s.11-.07.17-.11c.2-.14.41-.27.61-.42.1-.07.21-.14.31-.22.05-.04.1-.07.15-.11.05-.04.1-.07.15-.11.21-.15.42-.31.62-.47.1-.08.21-.16.31-.24.1-.08.21-.17.31-.25.19-.16.39-.32.58-.48.1-.08.19-.16.29-.25.1-.08.19-.17.29-.25.39-.34.77-.7,1.15-1.05.37-.35.72-.7,1.08-1.07.09-.09.18-.18.27-.28.09-.09.18-.19.27-.28.18-.19.35-.38.53-.58.08-.09.17-.19.25-.28.08-.09.17-.19.25-.29.08-.1.17-.19.25-.29s.16-.19.25-.29c.16-.2.33-.4.49-.6.08-.1.16-.2.24-.3s.16-.2.24-.31c.16-.2.31-.4.46-.6.15-.2.3-.41.45-.62.3-.42.59-.84.88-1.27"/>
    <path class="cls-3" d="M154.21,140.94c-.05-.35-.11-.7-.18-1.04-.03-.17-.07-.34-.1-.51-.02-.08-.04-.17-.05-.25-.02-.08-.04-.17-.06-.25-.08-.34-.16-.69-.25-1.03-.02-.08-.04-.17-.07-.25s-.05-.17-.07-.25c-.05-.16-.1-.33-.15-.49-.41-1.33-.92-2.64-1.56-3.88-.08-.16-.17-.32-.25-.48-.04-.08-.09-.16-.13-.23-.04-.08-.09-.15-.13-.23-.09-.15-.18-.3-.27-.44-.04-.07-.09-.14-.13-.21-.04-.07-.09-.14-.14-.21-.2-.3-.41-.6-.63-.89-.1-.14-.21-.27-.32-.4-.05-.06-.11-.13-.16-.19-.03-.03-.05-.06-.08-.09l-.08-.09c-.25-.28-.5-.55-.77-.8-.24-.22-.49-.44-.75-.64-.17-.13-.34-.25-.51-.36-.16-.1-.31-.19-.48-.28-.04-.02-.08-.04-.11-.06-.04-.02-.07-.04-.11-.05-.07-.03-.14-.07-.22-.1-.13-.05-.26-.1-.4-.15"/>
    <path class="cls-3" d="M147.83,167.1c.33-.49.65-.99.96-1.5.08-.13.15-.25.23-.38s.15-.26.22-.38c.15-.26.3-.52.44-.78.14-.26.28-.52.42-.78.14-.26.27-.53.4-.79.13-.27.26-.53.39-.8.13-.27.25-.54.37-.81.12-.27.24-.54.35-.82.11-.27.23-.55.34-.83.22-.55.42-1.11.61-1.67.19-.56.37-1.13.54-1.7.17-.57.32-1.14.46-1.72"/>
    <path class="cls-3" d="M369.7,154.05c.11-.46.07-.93-.06-1.38-.13-.44-.35-.87-.6-1.25"/>
    <line class="cls-3" x1="283.75" y1="499.76" x2="283.41" y2="501.18"/>
    <path class="cls-3" d="M369.04,151.43c-.15-.23-.32-.46-.5-.68-.2-.24-.41-.48-.63-.71-.25-.25-.5-.5-.76-.73-.29-.26-.59-.52-.9-.76-.24-.19-.48-.38-.72-.56-.26-.2-.52-.39-.79-.57-.28-.2-.57-.39-.85-.58-.31-.2-.61-.4-.92-.6-2.21-1.39-4.7-2.72-7.04-3.88-4.68-2.31-9.91-4.5-14.76-6.38"/>
  </g>
</svg>