<?xml version="1.0" encoding="UTF-8"?>
<svg id="_图层_1" data-name="图层 1" xmlns="http://www.w3.org/2000/svg" viewBox="0 0 396.73 373.99">
  <path d="M221.12,230.37h-.3m0,17.9v.9m0-1.4v.4m28.9-17.8h-.2m.2,18.8h0m-21.1-106.5l-.3-.3m1.3,20.5l1.4-2.9,1.3-3,.7-2.1,.4-2.1m16.6,36.1h-2m-16.3-43.7l-1.3-1.2-1.5-1.1-1.1-.9m2.8,2.1l-1.5-1.2h-.1m1.6,1.2l.1-.2,.1-.1m16.3-5.8l.2,.1,.4,.2m-15.3,6.6l.1-.3,.1-.2m6.7,2.4l-.1-.2-.1-.4v-.3l-.1-.5-.2-.5-.1-.4m4.4-2l.3,.4,.3,.4,.2,.3,.2,.3,.3,.3,.1,.2m4-11.8h0l.1,1.5v5.1l-.1,1.1m0-6.8v2.4l-.1,2.8m-20-27.1h0l.2-.1m19.5,10l-.5,1m-17-8l.5,.9,.3,.9,.2,.7m-.2,.6h0l-.4,.7m.4-4l.2,.8,.1,.7m-5.2,7.6h0m21.1-1.2l-.1,.1v.2m.6-1h-.2l-.1,.1-.1,.1m-12.2-45.9h-10.7m21.9,0h-10.3m9.2-25.5l-.4,.1m-18.9,0l-.4-.1m20.2,15.3h0m-20.7,0h.1m1.6-57.7h2.6m0,0h14.7m.3,.3h-15.2m0,0h-2.7m0,1.2h2.7m0,0h15.2m.3,.3h-15.7m0,0h-2.7m21,275h6.1m-6.1-3.9h6.1m-36.9,0h6.2m-6.2,3.9h6.2m26.6-31.1h-28.6m24.7,31.1h1.9m-1.9-3.9h1.9m0,0v3.9m-22.7-3.9h10.4m-10.4,3.9h20.8m0,0v-3.9m-10.4,0h10.4m-22.7,0h1.9m-1.9,3.9h1.9m0,0v-3.9m-1.9,0v3.9m26.7-25.4h0v1m-28.9,0h0v-.5m0,0v-.5m28.9-5.6h-28.9m.1-27.3v1.2l.1,.4v.7m28.3,1.7l.1-.5v-.4l.1-.4v-.4l.1-.8v-1.3l.1-.2m-28.9-2.4v.5l-.1,1.6,.1,1.7,.1,.9m28.6,1.7v-.4l.2-1.7,.1-1.7v-.8l-.1-1.6m-26.9,15.7h24.9m-26.9,7.7v-.6m28.9-.1v.9m0,0h0v-.9m0-1.7h-7.4m-14,0h-7.5m0,1.7v.8m28.9,5.7h-28.9m14.5-4.2h.3m-.7,0h.4m0,0h0m9.2-6h-18.5m-5-14.5l.1,.5,.2,2,.3,1.9,.1,1,.2,1,.1,.4v.3l.2,.9,.1,.5v.3l.1,.5,.2,.9,.1,.5,.1,.4v.1m-1.8-11.2h-.1m0,0l.1,.5,.1,1.2m28.4,0h-.2m-1.6,9.5v-.1l.1-.5,.1-.3,.1-.4,.4-2,.1-.5v-.2l.1-.5,.1-.9,.2-1,.1-1,.3-2.1m-1.6,9.5l-.1,.4-.2,.7-.2,.7-.5,.7-.3,.3-.1,.1-.6,.3h-.7l-.2,.1h-.3m-18.5,0h-.3l-.4-.1h-.3l-.2-.1-.3-.1-.2-.1-.6-.5-.1-.2-.2-.4-.1-.2-.3-.9-.2-.7m-2,7.9h0v-.1m0-.8v.9m0-.9h0m0,0v-1.7m7.5,0l1.6,.1h1.8l2.1,.2,1.1,.1h.2v2.9l-.1,.5v.1l-.1,.1m0,0h.4m-14.2-18.8h0v.5l.2,.9,.1,1,.3,2,.1,.9,.2,1,.2,1.2,.3,1.2,.1,.5,.2,.9,.2,1,.5,.8,.5,.6,.4,.2,.4,.1,.9,.1h9.6m-14.5,3.6h0v.1m0,.6v.2m0,1.4h0m0,0v-1.5m28.7-17.3h0m-14.2,12.9h9.9l.5-.1,.5-.1,.6-.5,.5-.8,.4-.9,.2-.9,.2-.9,.1-.5,.3-1.9,.2-1,.2-1,.2-1.5,.2-1.5v-.5l.2-.8m-14.2,12.9v5.9m0,0h.3m0,0l-.1-.2v-.2l-.1-.5v-2.7h.3l1-.1,2.2-.2h1.7l1.7-.1m7.4,0h0v1.7m0,0h0m0,.9v-.9m0,.9h0m0,0v1.4m0,0v-1.4m-4.1-56.5h-6m-17.2-.1h11.6l1.2,.1h10.4m0,0h-6m0,0h6m-24.5-.1h12.7l.8,.1h.9m4.1,0h-4.6l-1.2-.1h0l1.2,.1h4.6m0,0h-.8m0,0h-3.3m0,0l-1.6-.1h-1.6m0,0h1.7l.9,.1h.6m4.1,0h6m-10.1,0h4.1m-4.1,0h10.1m-24.6,.1h0l-.1,.1m29.2,.2h-.1v-.1m-29.2,6.2h0v-.2l.1-.1v-.6m-.2,7.2l.1-6.3m2.5-6.3h-2.4m0,5.4v-5.4m29.2,5.6h0v.9m0-6.3v5.4m0-5.4h-2.3m2.3,6.3v6.3m-27.8,1.9h-.1m.1-.3l-.1-.5-.1-.3-.3-.6-.3-.2-.3-.2h-.4m1.3,2.1l-.6-.9-.8-1.2m27.9,2.3h-.1m1.6-2.1l-.8,1.2-.6,.9m1.4-2.1h-.5l-.3,.2-.2,.2-.2,.2-.1,.3-.2,.4-.1,.4m-.9-14.4h.1l.1,.1m-24.5-.2h0l.1-.1m8.7,.1l-.1,.1m7,0l-.1-.1m0,0v.2m-6.8,0v-.2m6.6,0v.4m-6.4,0v-.4m.2,.5v-.5m6,0v.5m-5.7-.5v.6m5.4,0v-.6m11.8,.1h-2.4m0,0h-1.1l-1.2-.1h-6.4m0,0h0m0,0h-.2m0,0h-.2m0,0h-.3m0,0h-.2m0,0h-5m0,0h-.2m0,0h-.3m0,0h-.2m0,0h-.2m0,0h0m0,0l-1.7-.1h-7m0,0h-2.4m0,0h2.4m0,0h7l1.7,.1m0,0h0m0,0h.2m0,0h.2m0,0h.3m0,0h.2m5,0h.2m0,0h.3m0,0h.2m0,0h.2m0,0h0m0,0h6.4l1.2,.1h1.1m0,0h2.4m-14.6-.1h9.5l.8,.1h.4l-.8-.1h-13.9l-1.1-.1h.5l1.1,.1h3.5m-2.4,0h5m-5,0v.6m5,0v-.6m-5.9,.2l-.1-.1m0,0h-6.1l-.9-.1h-1.7m-1,14.4l.3-2.9,.2-2.7,.2-2.5,.2-2.2v-2.1l.1-2m-2.5,33.6l.1-4.8,.4-4.7,.6-4.8,.2-1.2,.2-1.3,.1-1.3-.1-.6v-.5m26.2,.1l-.2-2.8-.3-2.7-.1-2.5-.1-2.3v-4m0,0h-7.5l-1.3-.1m0,0l-.1,.1m9.6,14.3l-.1,1,.1,.9,.1,.9,.3,2.8,.3,2.8,.3,2.8,.2,4.1v4m-10.1-.1l2.2,.1h7.9m0,0l-.1,1.9-.4,1.8-.6,1.8-.9,1.7-1,1.6-1.3,1.4-1.4,1.2-1.6,1.1-1.7,.8-1.8,.6-1.8,.4-1.9,.1m0,0l-1.9-.2-1.9-.4-1.8-.6-1.6-.8-1.6-1.1-1.4-1.2-1.3-1.5-1-1.6-.8-1.7-.6-1.7-.4-1.9-.1-1.9m14.5,.1h0v3.1l-.1,1.3v10.1m-14.4-14.6h5l.9,.1h4.2m8.7,0h-4.3m3.6-33.5v7.6l.1,3,.1,3.1,.2,3.2,.1,3.2,.1,3.1,.1,2.9v7.4m-.9-33.3l.2-.2m-.4,.3l.2-.1m-.5,.2l.3-.1m-.5,.1h.2m-.2,0h-5m-.2,0h.2m-.5-.1l.3,.1m-.5-.2l.2,.1m-.4-.3l.2,.2m-1.4,33.3v-2.3l.1-2.5,.1-2.7,.1-2.9,.1-3.1,.2-3.2,.2-3.2,.1-3.1,.2-2.9v-2.8l.1-2.5v-2.3m-1.2,33.5h4.4m14.7-41.8h0m-29.2,5.3v-1.5l.1-1.6,.1-1.7,.2-1.5,.3-1.7,.5-1.9,.6-2.1m-1.4,14.3h-.4m.4-2.3h-.4m0,2.3v-2.3m1.9-12.2l6.9-13.6m.7,0h-.7m20.4,20.5h0v.9m-1.1-49.6l-.1-1.6-.2-1.3-.1-1.1m1.5,52.7l.1-5.2v-9.9l-.1-4.7v-4.5l-.1-4.2-.1-3.9-.2-3.6-.1-3.3-.1-2.8-.2-2.5v-.8m.8,50.9v-4.6m0,6.9h-2m2-2.3h0m0,2.3v-2.3m-27.3-12.2h-.1m10.1-30.2l.5,1,.4,1,.3,1,.1,1.1v1.5l-.1,1.4-.3,1.4-.6,2.1-.8,2-.9,2-1,1.9m0,0l-4.9,9.6-.4,.8-.4,.7-.4,.8-.3,.5-.3,.4-.2,.3-.2,.2-.2,.2-.2,.1h-.1m9.1-31.4l-.6-.5-.6-.5m17.8-5.4l-.2-.1-.2-.2m-15.8,7.1l-.2-.2-.2-.2m-.1,.1h.1v-.1m.9,1.4l-1-1.3m1,1.3h.1m-.6-1v-.2l.1-.1m-.1,.3l.4,.4,.4,.3m6.3,.6l-1,.1h-1.7l-.9-.2-.8-.4-.8-.4-.8-.5-.9-.5m0,0v.2l-.1,.1m1.2,.7l-.6-.3-.6-.4m15.7-6.8l-.2,.8-.1,.6m.2-1.4h.1m-.3-.1h.1l.1,.1m-.2-.1l-.2,1-.2,.9-.3,.9-.3,.8-.4,.7-.5,.6-.6,.6-.7,.6m0,0l-1.2,.8-1.3,.7-1.3,.5-1.4,.4m-16.6,29.9h.1l.2-.1,.2-.2,.4-.4,.3-.6,.5-.6,.4-.8,.4-.7m-4,12.5l.2-1.8,.2-2.1,.3-1.5,.3-1.8,.5-1.9m25.7-36.4l-.7-.5m0,0l-.4,1.1-.4,1-.5,.8-.6,.7-.8,.8-.9,.6-1,.7-1.1,.5-1.2,.5-1.1,.3-1.2,.2-1.1,.1-1-.1-1-.2-.9-.4-1-.5m-.1,.6l.1-.3v-.3m-.1,.6l-.2-.1-.2-.2m-.1,.2h0v-.1h.1v-.1m15.4-7.5v1.6m0,0l-.1,.7-.1,.6-.3,1-.4,1-.6,.9-.4,.4-.4,.4-.5,.4-.6,.3-1.2,.7-1.3,.6-1.3,.5-1.3,.4-.7,.1-.7,.1-.6,.1-.6-.1-.7-.1-.7-.2-.6-.3-1-.6-.9-.7m6.9,1.8l-1.1,.3-1.2,.1h-1l-.9-.2-.8-.4-.8-.5-.8-.5-.8-.7m-.1,.1v-.1h.1m-7.7,26.9l2.1-4.4,2.2-4.3,2.2-4.3,.9-2.2,.8-2.3,.6-2.3,.1-1.8-.1-1.8-.4-1.8-.4-.8-.4-.8m-2.8,28.5l-1.3-.5-1.3-.4-1.1-.4-1.1-.4m7.1,2.6l-1.2-.5-1.1-.4m-3.4,7.3l.7-1.1,.7-1.2,.6-1.2,.7-1.9,.7-1.9m.2,16.1h-3.1l-1.4-.1h-4.5m0,0v-2.3m9,0h-9m9.5-6.5l-2.2,.1h-1.9m0,0l-.8,1-.8,.8-.8,.7-.8,.5-.7,.3-.6,.1-.5,.1h-.4m0,2.9v-2.9m27.3-45.5l-.2,16.3-.2,22.1m-4-31.8l1.1-.6,.5-.4,.4-.3,.6-.5,.4-.4,.3-.6,.5-.8,.3-.9,.2-1,.1-.6v-.5m-.5,50.9h-6.4l-1.7-.1h-3.4m11.5,.1v-2.3m0,0h-2.1l-1.3-.1h-8.1m11.5,.1v-5.1l.1-5.1m0,0h-9l-1.6,.1m-1,10l.1-2.2,.1-2.2,.1-1.8,.3-1.8,.4-2m0,0l.6-2.6,.7-2.9,.9-3.1,.9-3.3,1-3.4,.8-2.9,.7-3,.6-2.9,.3-2.1,.2-2v-1.9l-.1-1.8m0,0l-1.9,.8-1.9,.6m0,0l.2,1.6-.1,1.7-.2,1.7-.4,1.8-.6,2.4-.8,2.4-.9,2.5-1.4,3.6-1.4,3.5-1.3,3.3-1.1,3.1m0,0l-1,3.3-.6,3m-.5,6.5l.1-3.1,.4-3.4m5.8,6.6h-4.8l-1.5-.1m0,2.4v-2.4m6.3,2.4h-6.3m6.3,0v-2.3m-8.1-77.2h0m19.3-3.3h0v-.1l-.1-.2v-.6m-22.8-.6l3.6,4.8m0,0h0m-3.7-5l-.3-1.3-.2-1-.1-.9-.1-1v-.8m24.6,19.9l-.9,1.6m.9-1.9v.3m0,0h-.5m-.5-14.1h0v.7l.1,.1v.1m-.1-6.7v5.8m1,13.8h-.4m-.5-12.9v2.2l.2,2.3,.2,2.6,.2,2.7,.3,3.1m-23.5-14.4l1.1,1.5,1.1,1.4m-2.7-6.9v-1.2m23,21.4h0l.1,.1m-19.5-14l-.4,.3-.2,.2-.2,.1h-.1m0,0l.6,.9,.7,.9m0,0l1,1.5,1,1.5m.8-.2h-.4l-.4,.2m-5.6-7.9h-.3m.1,.2h.3m0,0l.2,.1,.3,.1,.3,.1,.5,.2,.4,.3,.5,.4,.4,.5,.5,.6m0,0l1.7,2.5,.8,1.3,.7,1.4m16.8,6.9v.1l-.1,.2m-21.3-18.2l-.7-.2-.6-.2-.5-.1h-.4m.4,3.8l-.3-2.3-.1-1.5m5.3,8.7l-.5-.8-.5-.7-.5-.8-.5-.7-.6-.7-.7-.6-.7-.4-.6-.1-.3-.1m1.8-3.3v-1.7m4.8,6.3l-1.1-1.5-1.1-1.3-.7-.6-.6-.5-.7-.4-.6-.3m21.4,17.9h-.3l-.1,.1-.2,.3v.3l-.1,.5,.1,.4v.5l.2,.9,.3,2,.2,1.9,.2,2v2m-1-16l.7,5.1m-1.9-19.6h0m1.3,0h-.9m0,0h.9m-10.2,0h9.3m-11.1,0h1.8m-10.6,0h8.8m-11,0h2.2m-2.8,0h.6m0,0h-.6m2.8,0h-2.2m11,0h-8.8m3.1,9.9l.6-.4,.7-.4,.7-.5,.8-.5m-1.2,4.6l-.7-1.5-.9-1.3m6.2-4.8l-1,.2-1.1,.3-1.2,.3-1.2,.4m1.1,1.8l-.5-.9-.6-.9m-.1,6.4h.9l.9-.1m-3.6,5.8l1-1.2,.5-.7,.3-.7,.2-.8,.1-.8-.1-.7-.2-.8m-2.4,6.4l.3-.4,.3-.3m-3.2,3.4l1.3-1.4,1.3-1.3m.6-.7l.2,.1,.3,.1,.4,.1,.5,.2m15.6-18.9l.1,2.1v4.5l.2,2.4,.2,2.6,.3,2.9m-.8-14.5h-9.3m10.1,14.5l-.4,.1-.3,.3-.4,.4-.4,.5-.3,.7-.3,.9v1.4l.1,.7m-16.3,1.3l.6-.5,.5-.5m-2.8,2.9l.8-1,.9-.9m1.1-1l.5,.4,.9,.5m1.6-8.1h.6l.6-.1,1.1-.1,1-.1,.9-.1m-6.4,6.7l1.2-1.3,.4-.8,.4-.8,.3-.8,.1-.8-.1-.9-.1-.9m-3,7.2l.4-.5,.4-.4m15.3,4.7l.8,3.4,.3,1.7,.1,1.8m-6-3.8l1.4-.9,1.2-.8,1.2-.8,1-.6m-.9-4.1l.1,.7,.1,.7,.2,.6,.5,2.1m-7.3-4.9l1.9,.2,1.8,.3,1.4,.2,1.3,.1m-6.4-.8l.2-1.9-.1-2-.2-2.1-.4-2.3-.5-3.2-.4-3.4-.3-3.8m0,0h-1.8m.5,5.1l-.3-2.6-.2-2.5m1.9,12.2l-.8-3.6-.6-3.5m1.4,7.1l.4,2.1,.2,2v1.9l-.2,1.8m-.5,3.7l.7-1.6,.6-1.7,.4-1.7m-11.1,4.5l.8-.8,.9-.7,1-.5,1-.5m6.2-.7l-.6,1.8-.7,1.8m-4.9-2.9l1.5-.5,1.5-.3,1.6-.1,1.6,.2m-1.3,3.6l-.8-.1m12.7,7l-.1,1.7-.3,1.6-.5,1.6-.8,1.5-.9,1.3-1.1,1.3-1.2,1.1-1.4,.9-1.5,.8-1.6,.5-1.6,.3-1.7,.1m12.7-12.7h-.9m0,0h-4.8m0,0l-.1-1-.2-.9-.3-1-.6-.9m0,0l-.8-1.1-1.1-.9-1.1-.6-1.2-.4m-.8-.1l.8,.1m-1.6,19.5l-1.8-.1-1.8-.4-1.8-.7-1.6-.9-1.5-1.1-1.2-1.3-1.1-1.5-.9-1.6-.6-1.8-.3-1.8-.1-1.9,.2-1.8,.4-1.8,.7-1.7,1-1.6,1.1-1.4m9.3,21.4v-12.7m0,0v-7m0,0l-1.3,.1-1.4,.5-1.2,.6-1.2,1m0,0l-.8-.7-.7-.7-.6-.6-.6-.5m0-.1h0v.1m-.5-.5l.2,.2,.3,.2m-1.5-1.3l.1,.1,.2,.2,.3,.2,.4,.4m20.1-27.5h0m0,.4h0m-23.6-.4h0m0,.9h0m.8-21.9v-.4l.1-1.9v-3.3l.1-.5v-2l.1-.5v-.9l.1-.5v-.4l.1-.5v-.4l.1-.3v-.4l.1-.2v-.2m20.4-1.6l.5,1.7,.3,1.9,.2,2.2,.1,2.3,.1,2.4,.1,2.2,.1,2.1v1.8m-22.5,0v-.4l-.1-.8v-4.2l.1-1.8v-1.7l.1-1.7,.1-1.7,.2-1.7,.1-.8,.2-.9,.1-.2m-1.4,15.9l.1-1.8,.1-2.1,.1-2.2,.1-2.4,.1-2.3,.2-2.2,.3-1.9,.4-1.6m-.6,16.4l-.1-.4v-.8l-.1-1.3m2.5,3.3h17m1.7-16.5l.4,1.5,.2,1.9,.1,1v.9l.1,1.9v2l.1,1.9v3.3l-.1,.8-.1,.6m-.6-14.8l.1,.6,.2,1.9,.1,.9,.1,1v2.9l.1,.4v4.5m0,0v1.9l-.1,.6-.1,.1-.1,.2-.3,.3-.3,.1h-.3l-.5,.1h-.7m0,0h-17m0,0h-.6l-.6-.1-.6-.1-.3-.2-.2-.4m0,0l-.2,.1m-.8,18.8v-.4m23.6,0h0v.4m-.3-18.8l.3,10.1v8.3m-.3-18.4h-.6m0,0l-.1,.3-.3,.3-.3,.1-.3,.1h-19.5l-.7-.1-.4-.2-.2-.4-.1-.1m0,0h-.6m-.2,18.4v-8.3l.2-10.1m23.4,18.8h-23.6m0,0v.5m0,3.8v-3.8m23.6,3.8h-23.6m23.6,0v-3.8m0,0h0v-.5m-2-46.9h1.5m-2,.3h0l.1-.2,.2-.1h.2m-21.2,0h1.5m0,0h.3l.2,.1,.1,.2m19.9-.5h-.8l-.2,.1-.2,.2-.1,.2-.1,.3v.6l.1,.6v1m-18.7,0l.1-.5,.1-1.4-.1-.4-.1-.3-.1-.2-.2-.2h-.9m20.3,6.6h0m-.4-3.6l.1,.5,.2,1.9,.1,1.2m-.4-3.6h-.7m1.1,3.7v-.1m-19.1-3.6h.8m-1.1,3.6v-.3l.1-.9v-.5l.1-.5v-.4l.1-.5v-.5m-.3,3.6h0m0,0v.1m18.3-3.7h-.1m.6-5.4l-.5,.3-.4,.5-.3,.7-.1,.7,.1,.8,.2,.8,.2,.8,.3,.8m-17.2,0l.2-.8,.3-.8,.2-.7,.1-.8-.1-.8-.3-.7-.4-.5-.5-.3m.5,5.4h.1m-3-3h.9m0,0v-2.6m0,0h.6l.5,.1,.4,.1m0,0h4.8m8.6,0h4.8m0,0l.3-.1,.2-.1h1m0,0v2.6m0,0h.9m0-28.1h-10.7l-1.1,.1h-11.2m20,31l.8,3.1,.5,3.1,.2,2.1,.2,2.1,.1,2.1m-6.2-12.5h4.4m-17,0h4.4m-6.2,12.5l.1-2.1,.2-2.1,.2-2.1,.5-3.1,.8-3.1m11.5,5.3l1,.5,1,.7,.8,.8,.7,.9,.6,1,.4,1,.2,1.2,.1,1.1m-10.8-7.2l-1,.5-1,.7-.8,.8-.7,.9-.6,1-.4,1-.3,1.2v1.1m4.8-7.2l.5,1.4,.6,1.4m-2.4-13.5h4.3m-4.3,0v3.7l.2,1.7m0,0l.2,1.8,.3,1.7,.6,1.8m3-10.7h4.3m-4.3,0v13.2m1.8,.3l.6-1.4,.6-1.4m0,0l.5-1.8,.4-1.7,.2-1.8m.2-5.4l-.1,2.7v1.4l-.1,1.3m6.2,12.5h-2.5m0,0h-3.1m0,0v-.7l-.2-.7-.2-.6-.4-.6-.4-.6-.5-.4-.5-.4-.7-.4m-1.8-.3l.9,.1,.9,.2m-1.8-.3v4.1m-1.9-3.8l.9-.2,1-.1m-1.9,.3l-.6,.4-.5,.4-.5,.4-.5,.6-.3,.6-.3,.6-.1,.7-.1,.7m0,0h-3m0,0h-2.5m10.3,.4v9.8m0-10.8l-.2,.1h-.1l-.1,.2-.1,.1v.1l.1,.2,.1,.1,.1,.1h.1l.1,.1m0,0l.2-.1,.1-.1,.1-.1v-.4l-.1-.1-.1-.1-.2-.1m.4,.4v.3l-.1,.1-.1,.1-.2,.1-.2-.1-.1-.1-.1-.1-.1-.2m1.1-57.6h0m-5.1,0h0m10,0h0m-10,0h0m10,0h0m-8.9,0h0m12,0h-17.3m17.8,1.8h.1m-18.4,0h.1m20.5,12.3h-9.7l-1.1,.1h-8.7m0,0h-3.4m2.4-12.4h1.4m0,0h16.8m2.4,.6h-19.6m0,0h-3.4m148,286.1l-47.1-47.1m64.4,17.3l-.8,2.5-.8,2.6-1,2.5-1,2.5-1.2,2.4-1.2,2.3-1.4,2.4-1.4,2.2-1.5,2.2-1.6,2.2-1.7,2.1-1.8,2-1.9,1.9M224.82,65.77l-2.1,.2-4.1,.4-4.2,.4-4.1,.6-4.1,.8-4.1,.8-4.1,.9-4.1,1-4,1.2-4,1.2-3.9,1.3-4,1.5-3.9,1.5-3.8,1.7-3.8,1.7-3.7,1.9-3.7,1.9-3.7,2.1-3.6,2.1-3.5,2.2-3.5,2.4-3.4,2.4-3.4,2.5-3.3,2.6-3.2,2.6-3.1,2.8-3.1,2.8-3,3-2.9,3-2.8,3-2.8,3.2-2.7,3.2-2.6,3.3-2.5,3.3-2.4,3.4-2.3,3.5-2.2,3.6-2.2,3.5-2,3.7-2,3.7-1.8,3.7-1.8,3.8-1.6,3.9-1.6,3.9-1.4,3.9-1.3,4-1.3,3.9-1.1,4.1-1,4-1,4.1-.8,4.1-.7,4.1-.6,4.2-.5,4.1-.4,4.2-.2,4.2-.2,4.1-.1,4.2,.1,4.2,.2,4.2,.2,4.1,.4,4.2,.5,4.2,.6,4.1,.7,4.1,.8,4.1,1,4.1,1,4.1m308.6,0l1-4.1,.9-4.1,.8-4.1,.7-4.1,.6-4.1,.5-4.2,.4-4.2,.3-4.1,.1-4.2,.1-4.2-.1-4.2-.1-4.1-.3-4.2-.4-4.2-.5-4.1-.6-4.2-.7-4.1-.8-4.1-.9-4.1-1-4-1.2-4.1-1.2-3.9-1.4-4-1.4-3.9-1.6-3.9-1.6-3.9-1.8-3.8-1.8-3.7-2-3.7-2-3.7-2.1-3.5-2.3-3.6-2.3-3.5-2.4-3.4-2.5-3.3-2.6-3.3-2.7-3.2-2.7-3.2-2.9-3-2.9-3-3-3-3-2.8-3.2-2.8-3.2-2.6-3.3-2.6-3.3-2.5-3.5-2.4-3.4-2.4-3.6-2.2-3.6-2.1-3.6-2.1-3.7-1.9-3.8-1.9-3.8-1.7-3.8-1.7-3.9-1.5-3.9-1.5-4-1.3-4-1.2-4-1.2-4-1-4.1-.9-4.1-.8-4.1-.8-4.2-.6-4.1-.4-4.2-.4-1.1-.1m-43.7,216.7l-1.3,2.2-1.4,2.2-1.5,2.1-1.6,2-1.7,2-1.7,1.9-1.8,1.8-1.8,1.8-2,1.7-2,1.6-2,1.5-2.2,1.5-2.1,1.4-2.3,1.3-2.2,1.2-2.4,1.1-2.3,1-2.4,.9-2.4,.9-2.5,.7-2.5,.7-2.5,.5-2.5,.5-2.6,.3-2.5,.3-2.6,.2h-5.2l-2.5-.2-2.6-.2-2.5-.3-2.6-.5-2.5-.5-2.5-.6-2.5-.7-2.4-.9-2.4-.9-2.4-1-2.3-1.1-2.3-1.2-2.2-1.2-2.2-1.4-2.1-1.4-2.1-1.6-2-1.6-2-1.6-1.9-1.8-1.8-1.8-1.7-1.9-1.7-2-1.6-2-1.5-2.1-1.4-2.1-1.4-2.2-1.2-2.2-1.2-2.3-1.1-2.4-1-2.3-.9-2.4-.8-2.5-.7-2.4m64.3-17.3l57.7,33.3m20.1-149.7l-3,.4-3,.6-3,.6-2.9,.8-3,.8-2.9,.9-2.8,1.1-2.9,1.1-2.8,1.2-2.7,1.3-2.7,1.4-2.7,1.5-2.6,1.5-2.6,1.7-2.5,1.7-2.4,1.8-2.4,1.9-2.3,2-2.3,2-2.2,2.2-2.1,2.2-2,2.2-2,2.3-1.9,2.4-1.8,2.5-1.8,2.5-1.6,2.5-1.6,2.7-1.5,2.6-1.3,2.7-1.3,2.8-1.3,2.8-1.1,2.8-1,2.9-.9,2.9-.9,2.9-.7,3-.7,2.9-.5,3-.5,3.1-.3,3-.2,3-.2,3.1v6.1l.2,3,.2,3,.3,3.1,.5,3,.5,3,.7,3,.7,2.9m179.9,0l.8-2.9,.6-3,.5-3,.5-3,.3-3.1,.3-3,.1-3,.1-3.1-.1-3-.1-3.1-.3-3-.3-3-.5-3.1-.5-3-.6-2.9-.8-3-.8-2.9-1-2.9-1-2.9-1.1-2.8-1.2-2.8-1.3-2.8-1.4-2.7-1.5-2.6-1.6-2.7-1.6-2.5-1.7-2.5-1.9-2.5-1.8-2.4-2-2.3-2.1-2.2-2.1-2.2-2.2-2.2-2.2-2-2.4-2-2.3-1.9-2.5-1.8-2.5-1.7-2.6-1.7-2.6-1.5-2.6-1.5-2.7-1.4-2.8-1.3-2.8-1.2-2.8-1.1-2.9-1.1-2.9-.9-2.9-.8-3-.8-3-.6-3-.6-1.6-.2m4.9,151.6v-3.9m-36.9,0v3.9m4.2-31.1l-.2,.1m28.9,0l-.1-.1m.1,27.2v-20.5m0-1v-5.6m-28.9,0v5.6m0,1v20.5m0-53.1v-.3m0,.3v2.7m0-2.9v.3m28.9,0v-.3m0-.1v.3m0,2.7v-2.7m0,25.7v-4.2m-28.9,0v4.2m0-23v18.8m28.9,0v-18.8m-27.5-24.2h0m-1.4-2.1l.7,1,.7,1.1m26.4,.2l.7-1.1,.7-1m-16.5-51.5l-.1,.3-.4,1.8-.6,2-.8,1.9-1,2-1,2.1m-1.8-20.9l.1,.1,.2,.1,.1,.2,.2,.1,.2,.1,.2,.2,.6,.4,.7,.6,.8,.7,.8,.8,.6,.9,.6,.9,.4,1,.2,1.1,.1,1v1l-.1,1-.1,.9m16.6,35.8v-27.9l-.1-3.3-.1-3v-2.8l-.1-2.5-.1-2.2-.1-2.3-.1-1.9v-1.7l-.1-1.5-.1-1.3-.1-1.3-.1-1.1v-.8l-.1-.7m-26.2,41.9l-.1,.1v.1m5.8-65.1l.9,1.3,.8,1.2,.7,1.1,.4,.7,.2,.8,.1,.5m-6.8-10.6v.1l.1,.1m6.9,8.8v.1m-1.4,3.6l-.5,.6-1,1-1.1,1.2-1.2,1.3m5.2-7.7v.6l-.1,.5-.1,.6-.4,.8-.5,.8m.9-1.7v.1l-.4,.8-.6,.8-.7,.9-1,1-1.1,1.2-1.2,1.3m22,8.5v-1.5l-.1-1.8-.2-1.9-.3-1.9-.2-1-.1-1v-.9m-11,22.9l.8-.1,1.8-.3,1.7-.6,1.7-.9,1.4-1.1,1.3-1.2,1.1-1.5,.9-1.6,.7-1.7,.4-1.7,.1-1.9v-.1m-22.3-8.3l-.7,.7-.9,1.4-.6,1.3-.4,1.2-.2,.9-.2,.8-.1,.9v.9l.1,1.8,.3,1.8,.6,1.7,.9,1.6,1,1.5,1.3,1.3,1.5,1.1,1.5,.9,1.7,.7,1.8,.4,1.8,.1h.2m11.8-22.9v-.1l.1-.1m-2.7-70.9l.8-.2,1.3-.3m-22.7,0l1.4,.3,.7,.2m20.6-.5l.1-.1,.1-.1m-23,0l.1,.1v.1m21.7,15.3v-2.3l-.1-.3v-.9l-.1-.9v-.4l-.1-.4v-.6l-.1-.6v-.6l-.1-.2v-.8l-.1-.3v-.5m-19.4,0l-.1,.5v.8l-.1,.2v.7l-.1,.5v.6l-.1,.7v.6l-.1,.5v.6l-.1,.8v.8l-.1,.6v.9m21.9-15.5V21.97m-23,.1v28m11.5,25.8l1.1-.1,1-.2,1.1-.2,1-.4,.9-.5,.9-.6,.9-.7,.7-.7,.7-.9,.6-.9,.5-.9,.4-1,.3-1.1,.2-1v-1.1m-20.7,0l.1,1.2,.3,1.3,.4,1.3,.4,1,.6,.9,.6,.8,.8,.8,.8,.7,.9,.7,.9,.5,.9,.4,1.3,.4,1.3,.2h1.1m-9-67.6v1.2m17.9,0v-1.2m0,0h0v-.1l-.1-.1v-.1h-.1m-17.4,0h-.2v.1l-.1,.1v.1m0,1.2v.2l-.1,.1m18.2,0h-.1l-.1-.1v-.2m-20.4,.9v11.8m23-.1V10.27m-22.4-.6l-.6,.6m23,0l-.6-.6" style="fill: none; stroke: #000; stroke-linecap: round; stroke-linejoin: round; stroke-width: .99px;"/>
  <path d="M245.62,191.27h0m0,0h0m-6,0h0m0,0h0" style="fill: none; stroke: #000; stroke-linecap: round; stroke-linejoin: round; stroke-width: .99px;"/>
  <g>
    <path d="M74.75,282.3h-10.56v-2.64h.84v1.44h8.88v-1.44h.84v2.64Z"/>
    <path d="M67.98,277.03c-.15,.5-.37,.87-.66,1.1-.29,.24-.63,.36-1.03,.36-.6,0-1.11-.25-1.52-.76-.41-.51-.61-1.19-.61-2.04s.21-1.54,.63-2.06,.93-.78,1.53-.78c.38,0,.72,.12,1,.36,.28,.24,.5,.6,.66,1.08,.17-.6,.43-1.05,.8-1.37s.81-.47,1.32-.47c.71,0,1.3,.29,1.78,.88,.48,.59,.72,1.37,.72,2.33s-.24,1.74-.72,2.33c-.48,.59-1.09,.89-1.81,.89-.54,0-.99-.16-1.35-.48s-.61-.78-.74-1.37Zm-1.72,.24c.39,0,.71-.15,.96-.45,.25-.3,.37-.68,.37-1.16s-.12-.84-.37-1.13c-.25-.29-.55-.44-.91-.44s-.68,.15-.94,.46c-.25,.3-.38,.68-.38,1.13s.12,.84,.37,1.14,.54,.45,.89,.45Zm3.82,.39c.29,0,.57-.08,.84-.24s.48-.4,.63-.72c.15-.32,.22-.66,.22-1.03,0-.57-.16-1.04-.47-1.42s-.71-.56-1.19-.56-.89,.19-1.21,.58-.48,.86-.48,1.44,.16,1.03,.47,1.4c.32,.37,.71,.55,1.18,.55Z"/>
    <path d="M72.46,270.62h-1.16v-1.36h1.16v1.36Z"/>
    <path d="M71.49,261.21h.98v6.45c-.24,0-.48-.04-.71-.14-.37-.16-.74-.43-1.1-.79-.36-.36-.78-.88-1.25-1.57-.74-1.06-1.32-1.78-1.75-2.15-.43-.37-.84-.56-1.22-.56s-.74,.17-1.02,.51c-.28,.34-.41,.78-.41,1.33,0,.58,.15,1.04,.44,1.38,.29,.35,.7,.52,1.22,.53l-.11,1.23c-.78-.08-1.37-.4-1.78-.95-.41-.55-.61-1.29-.61-2.22s.22-1.68,.66-2.22c.44-.55,.99-.82,1.63-.82,.33,0,.66,.08,.98,.24,.32,.16,.66,.42,1.01,.79,.35,.37,.84,.99,1.46,1.85,.51,.72,.86,1.18,1.04,1.38,.18,.2,.37,.37,.55,.51v-4.79Z"/>
    <path d="M66.22,253.7l.08,1.19c-.4,.11-.69,.26-.87,.45-.29,.32-.43,.72-.43,1.2,0,.38,.09,.72,.27,1,.23,.38,.57,.67,1.02,.89s1.08,.33,1.91,.34c-.37-.29-.65-.64-.83-1.06-.18-.42-.27-.85-.27-1.31,0-.8,.25-1.48,.75-2.04,.5-.56,1.14-.84,1.93-.84,.52,0,1,.13,1.45,.4s.79,.63,1.02,1.09c.24,.46,.35,.99,.35,1.57,0,1-.31,1.81-.93,2.44s-1.65,.94-3.08,.94c-1.6,0-2.76-.35-3.48-1.04-.63-.61-.95-1.43-.95-2.46,0-.77,.18-1.4,.55-1.89s.87-.79,1.51-.88Zm3.56,4.89c.35,0,.68-.09,1-.26,.32-.17,.56-.42,.73-.73,.17-.32,.25-.65,.25-.99,0-.51-.17-.94-.52-1.3-.35-.36-.82-.54-1.41-.54s-1.02,.18-1.35,.54c-.33,.36-.49,.81-.49,1.36s.17,1,.49,1.38c.33,.38,.76,.57,1.29,.57Z"/>
    <path d="M67.98,250.5c-.15,.5-.37,.87-.66,1.1-.29,.24-.63,.36-1.03,.36-.6,0-1.11-.25-1.52-.76-.41-.51-.61-1.19-.61-2.04s.21-1.54,.63-2.06,.93-.78,1.53-.78c.38,0,.72,.12,1,.36,.28,.24,.5,.6,.66,1.08,.17-.6,.43-1.05,.8-1.37s.81-.47,1.32-.47c.71,0,1.3,.29,1.78,.88,.48,.59,.72,1.37,.72,2.33s-.24,1.74-.72,2.33c-.48,.59-1.09,.89-1.81,.89-.54,0-.99-.16-1.35-.48s-.61-.78-.74-1.37Zm-1.72,.24c.39,0,.71-.15,.96-.45,.25-.3,.37-.68,.37-1.16s-.12-.84-.37-1.13c-.25-.29-.55-.44-.91-.44s-.68,.15-.94,.46c-.25,.3-.38,.68-.38,1.13s.12,.84,.37,1.14,.54,.45,.89,.45Zm3.82,.39c.29,0,.57-.08,.84-.24s.48-.4,.63-.72c.15-.32,.22-.66,.22-1.03,0-.57-.16-1.04-.47-1.42s-.71-.56-1.19-.56-.89,.19-1.21,.58-.48,.86-.48,1.44,.16,1.03,.47,1.4c.32,.37,.71,.55,1.18,.55Z"/>
    <path d="M65.36,240.63h-1.17v-1.2h1.17v1.2Zm7.1,0h-5.99v-1.2h5.99v1.2Z"/>
    <path d="M72.46,237.61h-5.99v-1.08h.85c-.66-.52-.99-1.27-.99-2.25,0-.43,.07-.82,.19-1.17,.13-.36,.3-.62,.51-.8,.21-.18,.46-.3,.75-.37,.19-.04,.52-.07,.99-.07h3.68v1.2h-3.64c-.41,0-.72,.05-.93,.14-.2,.09-.37,.26-.49,.5s-.18,.52-.18,.83c0,.51,.14,.95,.41,1.32s.79,.56,1.56,.56h3.27v1.2Z"/>
    <path d="M74.75,228.03v2.64h-.84v-1.44h-8.88v1.44h-.84v-2.64h10.56Z"/>
  </g>
  <g>
    <path d="M56,272.69h.98v6.45c-.24,0-.48-.04-.71-.14-.37-.16-.74-.43-1.1-.79-.36-.36-.78-.88-1.25-1.57-.74-1.06-1.32-1.78-1.75-2.15-.43-.37-.84-.56-1.22-.56s-.74,.17-1.02,.51c-.28,.34-.41,.78-.41,1.33,0,.58,.15,1.04,.44,1.38,.29,.35,.7,.52,1.22,.53l-.11,1.23c-.78-.08-1.37-.4-1.78-.95-.41-.55-.61-1.29-.61-2.22s.22-1.68,.66-2.22c.44-.55,.99-.82,1.63-.82,.33,0,.66,.08,.98,.24,.32,.16,.66,.42,1.01,.79,.35,.37,.84,.99,1.46,1.85,.51,.72,.86,1.18,1.04,1.38,.18,.2,.37,.37,.55,.51v-4.79Z"/>
    <path d="M56.98,266.89v1.2h-6.47c.23,.29,.47,.67,.7,1.13,.23,.47,.41,.89,.52,1.26h-.98c-.27-.67-.59-1.26-.97-1.76-.38-.5-.75-.86-1.1-1.07v-.77h8.3Z"/>
    <path d="M52.9,263.82c-.98,0-1.76-.12-2.36-.36s-1.05-.59-1.38-1.06c-.32-.47-.48-1.06-.48-1.77,0-.52,.09-.98,.27-1.38,.18-.39,.44-.72,.77-.98,.34-.26,.75-.46,1.23-.61,.48-.15,1.13-.22,1.95-.22,.97,0,1.75,.12,2.35,.35,.6,.23,1.06,.59,1.38,1.05,.33,.47,.49,1.06,.49,1.77,0,.94-.29,1.68-.86,2.22-.69,.64-1.81,.96-3.36,.96Zm0-1.23c1.36,0,2.26-.19,2.71-.56s.67-.84,.67-1.39-.23-1.01-.68-1.39c-.45-.38-1.35-.56-2.71-.56s-2.26,.19-2.71,.56-.67,.84-.67,1.4,.2,.99,.59,1.32c.5,.41,1.43,.62,2.79,.62Z"/>
    <path d="M56.98,252.12h-5.99v-1.07h.84c-.29-.22-.53-.52-.71-.89-.18-.37-.27-.79-.27-1.26,0-.52,.09-.95,.28-1.29,.18-.33,.44-.57,.77-.71-.7-.56-1.05-1.29-1.05-2.18,0-.7,.17-1.24,.49-1.62,.33-.38,.84-.57,1.52-.57h4.11v1.19h-3.77c-.41,0-.7,.04-.88,.12-.18,.08-.32,.22-.43,.42-.11,.2-.16,.44-.16,.72,0,.5,.14,.91,.42,1.24,.28,.33,.73,.49,1.34,.49h3.48v1.2h-3.89c-.45,0-.79,.1-1.01,.29s-.34,.51-.34,.96c0,.34,.08,.65,.23,.94s.37,.49,.66,.62,.71,.19,1.25,.19h3.11v1.2Z"/>
    <path d="M56.98,240.77h-5.99v-1.07h.84c-.29-.22-.53-.52-.71-.89-.18-.37-.27-.79-.27-1.26,0-.52,.09-.95,.28-1.29,.18-.33,.44-.57,.77-.71-.7-.56-1.05-1.29-1.05-2.18,0-.7,.17-1.24,.49-1.62,.33-.38,.84-.57,1.52-.57h4.11v1.19h-3.77c-.41,0-.7,.04-.88,.12s-.32,.22-.43,.42c-.11,.2-.16,.44-.16,.72,0,.5,.14,.91,.42,1.24,.28,.33,.73,.49,1.34,.49h3.48v1.2h-3.89c-.45,0-.79,.1-1.01,.29s-.34,.52-.34,.96c0,.34,.08,.65,.23,.94,.15,.29,.37,.49,.66,.62,.29,.13,.71,.19,1.25,.19h3.11v1.2Z"/>
  </g>
  <g>
    <path d="M74.35,208.34h-10.56v-2.64h.84v1.44h8.88v-1.44h.84v2.64Z"/>
    <path d="M72.05,200.4v1.2h-6.47c.23,.29,.47,.67,.7,1.13,.23,.47,.41,.89,.52,1.26h-.98c-.27-.67-.59-1.26-.97-1.76s-.75-.86-1.1-1.06v-.77h8.3Z"/>
    <path d="M71.08,191.04h.98v6.45c-.24,0-.48-.04-.7-.14-.37-.16-.74-.43-1.1-.79-.36-.36-.78-.88-1.25-1.57-.74-1.06-1.32-1.78-1.75-2.15-.43-.37-.84-.56-1.22-.56-.4,0-.74,.17-1.02,.51-.28,.34-.41,.78-.41,1.33,0,.58,.15,1.04,.44,1.38,.29,.35,.7,.52,1.22,.53l-.11,1.23c-.78-.08-1.37-.4-1.78-.95-.41-.55-.61-1.29-.61-2.22s.22-1.68,.66-2.22c.44-.55,.98-.82,1.63-.82,.33,0,.66,.08,.98,.24,.32,.16,.66,.42,1.01,.79,.35,.37,.84,.99,1.45,1.85,.51,.72,.86,1.18,1.04,1.38,.18,.2,.37,.37,.55,.51v-4.79Z"/>
    <path d="M72.05,189.08h-1.16v-1.36h1.16v1.36Z"/>
    <path d="M70.14,185.79l-.09-1.15c.46-.1,.79-.28,1-.56,.21-.27,.31-.63,.31-1.06,0-.37-.07-.69-.21-.97-.14-.28-.33-.5-.57-.68-.24-.18-.56-.33-.97-.45-.41-.12-.82-.18-1.24-.18-.05,0-.11,0-.2,0,.32,.24,.59,.57,.79,.98,.2,.42,.3,.86,.3,1.35,0,.81-.25,1.49-.74,2.05s-1.15,.84-1.96,.84-1.51-.29-2.02-.88c-.51-.58-.77-1.31-.77-2.19,0-.63,.15-1.21,.43-1.74,.29-.53,.7-.93,1.24-1.2,.54-.27,1.31-.41,2.33-.41s1.9,.14,2.52,.41c.63,.27,1.1,.67,1.43,1.21,.33,.53,.49,1.16,.49,1.88,0,.76-.18,1.39-.54,1.87-.36,.48-.86,.77-1.51,.87Zm-3.65-4.91c-.58,0-1.04,.18-1.39,.55s-.51,.81-.51,1.32,.18,1,.55,1.39c.37,.39,.85,.59,1.43,.59,.53,0,.95-.19,1.28-.56,.33-.38,.49-.84,.49-1.39s-.16-1.01-.49-1.37c-.33-.36-.78-.54-1.37-.54Z"/>
    <path d="M69.87,178.38l-.14-1.2c.58-.14,.99-.37,1.24-.7,.25-.33,.38-.73,.38-1.21,0-.56-.17-1.04-.5-1.43-.33-.39-.74-.58-1.23-.58s-.85,.18-1.15,.54c-.3,.36-.45,.82-.45,1.37,0,.23,.04,.51,.11,.85l-.89-.13c0-.08,.01-.14,.01-.19,0-.51-.11-.97-.34-1.38s-.57-.61-1.04-.61c-.37,0-.68,.15-.92,.45-.24,.3-.37,.68-.37,1.15s.12,.85,.37,1.16,.62,.51,1.12,.6l-.18,1.2c-.68-.15-1.21-.48-1.58-1s-.56-1.17-.56-1.94c0-.53,.1-1.02,.29-1.47,.19-.45,.46-.79,.79-1.03s.69-.36,1.07-.36,.68,.11,.98,.34c.29,.23,.53,.56,.7,1,.11-.58,.35-1.02,.7-1.34,.35-.32,.8-.48,1.33-.48,.72,0,1.33,.31,1.83,.93,.5,.62,.75,1.41,.75,2.36,0,.86-.22,1.57-.65,2.13-.43,.57-.99,.89-1.68,.97Z"/>
    <path d="M69.87,170.8l-.14-1.2c.58-.14,.99-.37,1.24-.7,.25-.33,.38-.73,.38-1.21,0-.56-.17-1.04-.5-1.43-.33-.39-.74-.58-1.23-.58s-.85,.18-1.15,.54c-.3,.36-.45,.82-.45,1.37,0,.23,.04,.51,.11,.85l-.89-.13c0-.08,.01-.14,.01-.19,0-.51-.11-.97-.34-1.38s-.57-.61-1.04-.61c-.37,0-.68,.15-.92,.45-.24,.3-.37,.68-.37,1.15s.12,.85,.37,1.16,.62,.51,1.12,.6l-.18,1.2c-.68-.15-1.21-.48-1.58-1s-.56-1.17-.56-1.94c0-.53,.1-1.02,.29-1.47,.19-.45,.46-.79,.79-1.03s.69-.36,1.07-.36,.68,.11,.98,.34c.29,.23,.53,.56,.7,1,.11-.58,.35-1.02,.7-1.34,.35-.32,.8-.48,1.33-.48,.72,0,1.33,.31,1.83,.93,.5,.62,.75,1.41,.75,2.36,0,.86-.22,1.57-.65,2.13-.43,.57-.99,.89-1.68,.97Z"/>
    <path d="M64.95,159.1h-1.17v-1.2h1.17v1.2Zm7.1,0h-5.99v-1.2h5.99v1.2Z"/>
    <path d="M72.05,156.08h-5.99v-1.08h.85c-.66-.52-.99-1.27-.99-2.25,0-.43,.06-.82,.19-1.17,.13-.36,.3-.62,.51-.8,.21-.18,.46-.3,.75-.37,.19-.04,.52-.07,.99-.07h3.68v1.2h-3.64c-.41,0-.72,.05-.93,.14-.2,.09-.37,.26-.49,.5s-.18,.52-.18,.83c0,.51,.14,.95,.41,1.32s.79,.56,1.56,.56h3.27v1.2Z"/>
    <path d="M74.35,146.49v2.64h-.84v-1.44h-8.88v1.44h-.84v-2.64h10.56Z"/>
  </g>
  <g>
    <path d="M55.12,207l-.13-1.2c.58-.14,.99-.37,1.24-.7,.25-.33,.38-.73,.38-1.21,0-.56-.17-1.04-.5-1.43-.33-.39-.74-.58-1.23-.58s-.85,.18-1.15,.54c-.3,.36-.45,.82-.45,1.37,0,.23,.04,.51,.11,.85l-.89-.13c0-.08,.01-.14,.01-.19,0-.51-.11-.97-.34-1.38s-.57-.61-1.04-.61c-.37,0-.68,.15-.92,.45-.24,.3-.37,.68-.37,1.15s.12,.85,.37,1.16,.62,.51,1.12,.6l-.18,1.2c-.68-.15-1.21-.48-1.58-1s-.56-1.17-.56-1.94c0-.53,.1-1.02,.29-1.47,.19-.45,.46-.79,.79-1.03,.33-.24,.69-.36,1.07-.36,.36,0,.68,.11,.97,.34,.29,.23,.53,.56,.7,1,.11-.58,.35-1.02,.7-1.34,.35-.32,.8-.48,1.33-.48,.72,0,1.33,.31,1.83,.93,.5,.62,.75,1.41,.75,2.36,0,.86-.22,1.57-.65,2.13-.43,.57-.99,.89-1.68,.97Z"/>
    <path d="M56.32,193.13h.97v6.45c-.24,0-.48-.04-.7-.14-.37-.16-.74-.43-1.1-.79-.36-.36-.78-.88-1.25-1.57-.74-1.06-1.32-1.78-1.75-2.15-.43-.37-.84-.56-1.22-.56-.4,0-.74,.17-1.02,.51-.28,.34-.42,.78-.42,1.33,0,.58,.15,1.04,.44,1.38,.29,.35,.7,.52,1.22,.53l-.11,1.23c-.78-.08-1.37-.4-1.78-.95-.41-.55-.61-1.29-.61-2.22s.22-1.68,.66-2.22c.44-.55,.98-.82,1.63-.82,.33,0,.66,.08,.97,.24,.32,.16,.66,.42,1.01,.79,.35,.37,.84,.99,1.45,1.85,.51,.72,.86,1.18,1.04,1.38s.37,.37,.55,.51v-4.79Z"/>
    <path d="M52.82,190c-.15,.5-.37,.87-.66,1.1-.29,.24-.63,.36-1.03,.36-.6,0-1.11-.25-1.52-.77-.41-.51-.62-1.19-.62-2.04s.21-1.54,.63-2.06,.93-.78,1.53-.78c.38,0,.72,.12,1,.36,.28,.24,.5,.6,.66,1.08,.17-.6,.43-1.05,.8-1.37,.37-.31,.81-.47,1.32-.47,.71,0,1.3,.3,1.78,.89,.48,.59,.72,1.37,.72,2.33s-.24,1.74-.72,2.33c-.48,.59-1.08,.89-1.81,.89-.54,0-.99-.16-1.35-.48-.36-.32-.61-.78-.74-1.37Zm-1.72,.24c.39,0,.71-.15,.96-.45s.37-.68,.37-1.16-.12-.84-.37-1.13c-.25-.29-.55-.44-.91-.44s-.68,.15-.94,.46c-.25,.3-.38,.68-.38,1.13s.12,.84,.37,1.14c.25,.3,.54,.45,.89,.45Zm3.82,.39c.29,0,.57-.08,.84-.24,.27-.16,.48-.4,.63-.72,.15-.32,.22-.66,.22-1.03,0-.57-.16-1.04-.47-1.42-.31-.37-.71-.56-1.19-.56s-.89,.19-1.21,.58c-.32,.38-.48,.86-.48,1.44s.16,1.03,.47,1.4c.32,.37,.71,.56,1.18,.56Z"/>
    <path d="M57.3,183.59h-1.16v-1.36h1.16v1.36Z"/>
    <path d="M55.14,180.47l-.09-1.26c.52-.09,.91-.31,1.17-.65,.26-.34,.39-.75,.39-1.23,0-.58-.18-1.06-.55-1.46-.37-.4-.86-.6-1.47-.6s-1.04,.19-1.37,.58c-.33,.38-.5,.89-.5,1.51,0,.39,.07,.73,.22,1.04s.34,.55,.58,.73l-.12,1.12-4.25-.94v-4.85h.97v3.89l2.22,.53c-.35-.59-.52-1.2-.52-1.84,0-.85,.25-1.57,.75-2.16,.5-.59,1.14-.88,1.93-.88s1.39,.26,1.94,.77c.67,.63,1,1.48,1,2.56,0,.89-.21,1.61-.63,2.17-.42,.56-.98,.88-1.67,.96Z"/>
    <path d="M57.3,168.77h-5.99v-1.07h.84c-.29-.22-.53-.52-.71-.89-.18-.37-.27-.79-.27-1.26,0-.52,.09-.95,.28-1.29,.18-.33,.44-.57,.77-.71-.7-.56-1.05-1.29-1.05-2.18,0-.7,.17-1.24,.49-1.62,.33-.38,.83-.57,1.52-.57h4.11v1.19h-3.77c-.41,0-.7,.04-.88,.12s-.32,.22-.43,.42c-.11,.2-.16,.44-.16,.72,0,.5,.14,.91,.42,1.24,.28,.33,.73,.49,1.34,.49h3.48v1.2h-3.89c-.45,0-.79,.1-1.01,.29s-.34,.51-.34,.96c0,.34,.08,.65,.23,.94,.15,.29,.37,.49,.66,.62,.29,.13,.71,.19,1.25,.19h3.11v1.2Z"/>
    <path d="M57.3,157.42h-5.99v-1.07h.84c-.29-.22-.53-.52-.71-.89-.18-.37-.27-.79-.27-1.26,0-.52,.09-.95,.28-1.29,.18-.33,.44-.57,.77-.71-.7-.56-1.05-1.29-1.05-2.18,0-.7,.17-1.24,.49-1.62,.33-.38,.83-.57,1.52-.57h4.11v1.19h-3.77c-.41,0-.7,.04-.88,.12s-.32,.22-.43,.42c-.11,.2-.16,.44-.16,.72,0,.5,.14,.91,.42,1.24,.28,.33,.73,.49,1.34,.49h3.48v1.2h-3.89c-.45,0-.79,.1-1.01,.29s-.34,.51-.34,.96c0,.34,.08,.65,.23,.94,.15,.29,.37,.49,.66,.62,.29,.13,.71,.19,1.25,.19h3.11v1.2Z"/>
  </g>
  <g>
    <path d="M74.76,122.68h-10.56v-2.64h.84v1.44h8.88v-1.44h.84v2.64Z"/>
    <path d="M70.55,119.07l-.09-1.15c.46-.1,.79-.28,1-.56,.21-.27,.31-.63,.31-1.06,0-.37-.07-.69-.21-.97-.14-.28-.33-.5-.57-.68-.24-.18-.56-.33-.97-.45-.41-.12-.82-.18-1.24-.18-.05,0-.11,0-.2,0,.32,.24,.59,.57,.79,.98,.2,.42,.3,.86,.3,1.35,0,.81-.25,1.49-.74,2.05s-1.15,.84-1.96,.84-1.51-.29-2.02-.88c-.51-.58-.77-1.31-.77-2.19,0-.63,.15-1.21,.43-1.74,.29-.53,.7-.93,1.24-1.2,.54-.27,1.31-.41,2.33-.41s1.9,.14,2.52,.41c.63,.27,1.1,.67,1.43,1.21,.33,.53,.49,1.16,.49,1.88,0,.76-.18,1.39-.54,1.87-.36,.48-.86,.77-1.51,.87Zm-3.65-4.91c-.58,0-1.04,.18-1.39,.55s-.51,.81-.51,1.32,.18,1,.55,1.39c.37,.39,.85,.59,1.43,.59,.53,0,.95-.19,1.28-.56,.33-.38,.49-.84,.49-1.39s-.16-1.01-.49-1.37c-.33-.36-.78-.54-1.37-.54Z"/>
    <path d="M72.46,111h-1.16v-1.36h1.16v1.36Z"/>
    <path d="M71.49,101.59h.98v6.45c-.24,0-.48-.04-.7-.14-.37-.16-.74-.43-1.1-.79-.36-.36-.78-.88-1.25-1.57-.74-1.06-1.32-1.78-1.75-2.15-.43-.37-.84-.56-1.22-.56-.4,0-.74,.17-1.02,.51-.28,.34-.41,.78-.41,1.33,0,.58,.15,1.04,.44,1.38,.29,.35,.7,.52,1.22,.53l-.11,1.23c-.78-.08-1.37-.4-1.78-.95-.41-.55-.61-1.29-.61-2.22s.22-1.68,.66-2.22c.44-.55,.98-.82,1.63-.82,.33,0,.66,.08,.98,.24,.32,.16,.66,.42,1.01,.79,.35,.37,.84,.99,1.45,1.85,.51,.72,.86,1.18,1.04,1.38,.18,.2,.37,.37,.55,.51v-4.79Z"/>
    <path d="M72.46,96.46h-1.98v4.23h-.93l-5.36-4.45v-.98h5.36v-1.32h.93v1.32h1.98v1.2Zm-2.91,0h-3.73l3.73,3.06v-3.06Z"/>
    <path d="M70.55,92.54l-.09-1.15c.46-.1,.79-.28,1-.56,.21-.27,.31-.63,.31-1.06,0-.37-.07-.69-.21-.97-.14-.28-.33-.5-.57-.68-.24-.18-.56-.33-.97-.45-.41-.12-.82-.18-1.24-.18-.05,0-.11,0-.2,0,.32,.24,.59,.57,.79,.98,.2,.42,.3,.86,.3,1.35,0,.81-.25,1.49-.74,2.05s-1.15,.84-1.96,.84-1.51-.29-2.02-.88c-.51-.58-.77-1.31-.77-2.19,0-.63,.15-1.21,.43-1.74,.29-.53,.7-.93,1.24-1.2,.54-.27,1.31-.41,2.33-.41s1.9,.14,2.52,.41c.63,.27,1.1,.67,1.43,1.21,.33,.53,.49,1.16,.49,1.88,0,.76-.18,1.39-.54,1.87-.36,.48-.86,.77-1.51,.87Zm-3.65-4.91c-.58,0-1.04,.18-1.39,.55s-.51,.81-.51,1.32,.18,1,.55,1.39c.37,.39,.85,.59,1.43,.59,.53,0,.95-.19,1.28-.56,.33-.38,.49-.84,.49-1.39s-.16-1.01-.49-1.37c-.33-.36-.78-.54-1.37-.54Z"/>
    <path d="M65.36,81.02h-1.17v-1.2h1.17v1.2Zm7.1,0h-5.99v-1.2h5.99v1.2Z"/>
    <path d="M72.46,77.99h-5.99v-1.08h.85c-.66-.52-.99-1.27-.99-2.25,0-.43,.06-.82,.19-1.17,.13-.36,.3-.62,.51-.8,.21-.18,.46-.3,.75-.37,.19-.04,.52-.07,.99-.07h3.68v1.2h-3.64c-.41,0-.72,.05-.93,.14-.2,.09-.37,.26-.49,.5s-.18,.52-.18,.83c0,.51,.14,.95,.41,1.32s.79,.56,1.56,.56h3.27v1.2Z"/>
    <path d="M74.76,68.41v2.64h-.84v-1.44h-8.88v1.44h-.84v-2.64h10.56Z"/>
  </g>
  <g>
    <path d="M56.34,113.07h.98v6.45c-.24,0-.48-.04-.7-.14-.37-.16-.74-.43-1.1-.79-.36-.36-.78-.88-1.25-1.57-.74-1.06-1.32-1.78-1.75-2.15-.43-.37-.84-.56-1.22-.56-.4,0-.74,.17-1.02,.51-.28,.34-.41,.78-.41,1.33,0,.58,.15,1.04,.44,1.38,.29,.35,.7,.52,1.22,.53l-.11,1.23c-.78-.08-1.37-.4-1.78-.95-.41-.55-.61-1.29-.61-2.22s.22-1.68,.66-2.22c.44-.55,.98-.82,1.63-.82,.33,0,.66,.08,.98,.24,.32,.16,.66,.42,1.01,.79,.35,.37,.84,.99,1.45,1.85,.51,.72,.86,1.18,1.04,1.38,.18,.2,.37,.37,.55,.51v-4.79Z"/>
    <path d="M55.14,111.78l-.14-1.2c.58-.14,.99-.37,1.24-.7,.25-.33,.38-.73,.38-1.21,0-.56-.17-1.04-.5-1.43-.33-.39-.74-.58-1.23-.58s-.85,.18-1.15,.54c-.3,.36-.45,.82-.45,1.37,0,.23,.04,.51,.11,.85l-.89-.13c0-.08,.01-.14,.01-.19,0-.51-.11-.97-.34-1.38s-.57-.61-1.04-.61c-.37,0-.68,.15-.92,.45-.24,.3-.37,.68-.37,1.15s.12,.85,.37,1.16,.62,.51,1.12,.6l-.18,1.2c-.68-.15-1.21-.48-1.58-1s-.56-1.17-.56-1.94c0-.53,.1-1.02,.29-1.47,.19-.45,.46-.79,.79-1.03s.69-.36,1.07-.36,.68,.11,.98,.34c.29,.23,.53,.56,.7,1,.11-.58,.35-1.02,.7-1.34,.35-.32,.8-.48,1.33-.48,.72,0,1.33,.31,1.83,.93,.5,.62,.75,1.41,.75,2.36,0,.86-.22,1.57-.65,2.13-.43,.57-.99,.89-1.68,.97Z"/>
    <path d="M55.15,104.2l-.09-1.26c.52-.09,.91-.31,1.17-.65s.39-.75,.39-1.23c0-.58-.18-1.06-.55-1.46-.37-.4-.86-.6-1.47-.6s-1.04,.19-1.37,.58-.5,.89-.5,1.51c0,.39,.07,.73,.22,1.04s.34,.55,.58,.73l-.12,1.12-4.24-.94v-4.85h.97v3.89l2.22,.53c-.35-.59-.52-1.2-.52-1.84,0-.85,.25-1.57,.75-2.16,.5-.59,1.14-.88,1.93-.88s1.39,.26,1.94,.77c.67,.63,1,1.48,1,2.56,0,.89-.21,1.61-.63,2.17-.42,.56-.98,.88-1.67,.96Z"/>
    <path d="M57.32,92.5h-5.99v-1.07h.84c-.29-.22-.53-.52-.71-.89-.18-.37-.27-.79-.27-1.26,0-.52,.09-.95,.28-1.29s.44-.57,.77-.71c-.7-.56-1.05-1.29-1.05-2.18,0-.7,.16-1.24,.49-1.62,.33-.38,.83-.57,1.52-.57h4.11v1.19h-3.77c-.41,0-.7,.04-.88,.12-.18,.08-.32,.22-.43,.42-.11,.2-.16,.44-.16,.72,0,.5,.14,.91,.42,1.24,.28,.33,.73,.49,1.34,.49h3.48v1.2h-3.89c-.45,0-.79,.1-1.01,.29s-.34,.51-.34,.96c0,.34,.08,.65,.23,.94,.15,.29,.37,.49,.66,.62,.29,.13,.71,.19,1.25,.19h3.11v1.2Z"/>
    <path d="M57.32,81.15h-5.99v-1.07h.84c-.29-.22-.53-.52-.71-.89-.18-.37-.27-.79-.27-1.26,0-.52,.09-.95,.28-1.29s.44-.57,.77-.71c-.7-.56-1.05-1.29-1.05-2.18,0-.7,.16-1.24,.49-1.62,.33-.38,.83-.57,1.52-.57h4.11v1.19h-3.77c-.41,0-.7,.04-.88,.12-.18,.08-.32,.22-.43,.42-.11,.2-.16,.44-.16,.72,0,.5,.14,.91,.42,1.24,.28,.33,.73,.49,1.34,.49h3.48v1.2h-3.89c-.45,0-.79,.1-1.01,.29s-.34,.51-.34,.96c0,.34,.08,.65,.23,.94,.15,.29,.37,.49,.66,.62,.29,.13,.71,.19,1.25,.19h3.11v1.2Z"/>
  </g>
  <g>
    <path d="M27.17,166.99h-10.56v-2.64h.84v1.44h8.88v-1.44h.84v2.64Z"/>
    <path d="M22.7,163.56l-.14-1.2c.58-.14,.99-.37,1.24-.7,.25-.33,.38-.73,.38-1.21,0-.56-.17-1.04-.5-1.43-.33-.39-.74-.58-1.23-.58s-.85,.18-1.15,.54c-.3,.36-.45,.82-.45,1.37,0,.23,.04,.51,.11,.85l-.89-.13c0-.08,.01-.14,.01-.19,0-.51-.11-.97-.34-1.38s-.57-.61-1.04-.61c-.37,0-.68,.15-.92,.45-.24,.3-.37,.68-.37,1.15s.12,.85,.37,1.16,.62,.51,1.12,.6l-.18,1.2c-.68-.15-1.21-.48-1.58-1s-.56-1.17-.56-1.94c0-.53,.1-1.02,.29-1.47,.19-.45,.46-.79,.79-1.03s.69-.36,1.07-.36,.68,.11,.98,.34c.29,.23,.53,.56,.7,1,.11-.58,.35-1.02,.7-1.34,.35-.32,.8-.48,1.33-.48,.72,0,1.33,.31,1.83,.93,.5,.62,.75,1.41,.75,2.36,0,.86-.22,1.57-.65,2.13-.43,.57-.99,.89-1.68,.97Z"/>
    <path d="M20.4,154.14c-.15,.5-.37,.87-.66,1.1-.29,.24-.63,.36-1.03,.36-.6,0-1.11-.25-1.52-.77-.41-.51-.61-1.19-.61-2.04s.21-1.54,.63-2.06c.42-.52,.93-.78,1.53-.78,.38,0,.72,.12,1,.36,.28,.24,.5,.6,.66,1.08,.17-.6,.43-1.05,.8-1.37,.37-.31,.81-.47,1.32-.47,.71,0,1.3,.3,1.78,.89,.48,.59,.72,1.37,.72,2.33s-.24,1.74-.72,2.33c-.48,.59-1.08,.89-1.81,.89-.54,0-.99-.16-1.35-.48-.36-.32-.61-.78-.74-1.37Zm-1.72,.24c.39,0,.71-.15,.96-.45s.37-.68,.37-1.16-.12-.84-.37-1.13c-.25-.29-.55-.44-.9-.44s-.68,.15-.94,.46c-.25,.3-.38,.68-.38,1.13s.12,.84,.37,1.14c.25,.3,.54,.45,.89,.45Zm3.82,.39c.29,0,.57-.08,.84-.24,.27-.16,.48-.4,.63-.72,.15-.32,.22-.66,.22-1.03,0-.57-.16-1.04-.47-1.42-.31-.37-.71-.56-1.19-.56s-.89,.19-1.21,.58c-.32,.38-.48,.86-.48,1.44s.16,1.03,.47,1.4c.32,.37,.71,.56,1.18,.56Z"/>
    <path d="M24.88,147.73h-1.16v-1.36h1.16v1.36Z"/>
    <path d="M24.88,140.77h-1.98v4.23h-.93l-5.36-4.45v-.98h5.36v-1.32h.93v1.32h1.98v1.2Zm-2.91,0h-3.73l3.73,3.06v-3.06Z"/>
    <path d="M22.71,137.03l-.09-1.26c.52-.09,.91-.31,1.17-.65s.39-.75,.39-1.23c0-.58-.18-1.06-.55-1.46-.37-.4-.86-.6-1.47-.6s-1.04,.19-1.37,.58-.5,.89-.5,1.51c0,.39,.07,.73,.22,1.04s.34,.55,.58,.73l-.12,1.12-4.24-.94v-4.85h.97v3.89l2.22,.53c-.35-.59-.52-1.2-.52-1.84,0-.85,.25-1.57,.75-2.16,.5-.59,1.14-.88,1.93-.88s1.39,.26,1.94,.77c.67,.63,1,1.48,1,2.56,0,.89-.21,1.61-.63,2.17-.42,.56-.98,.88-1.67,.96Z"/>
    <path d="M22.7,129.44l-.14-1.2c.58-.14,.99-.37,1.24-.7,.25-.33,.38-.73,.38-1.21,0-.56-.17-1.04-.5-1.43-.33-.39-.74-.58-1.23-.58s-.85,.18-1.15,.54c-.3,.36-.45,.82-.45,1.37,0,.23,.04,.51,.11,.85l-.89-.13c0-.08,.01-.14,.01-.19,0-.51-.11-.97-.34-1.38s-.57-.61-1.04-.61c-.37,0-.68,.15-.92,.45-.24,.3-.37,.68-.37,1.15s.12,.85,.37,1.16,.62,.51,1.12,.6l-.18,1.2c-.68-.15-1.21-.48-1.58-1s-.56-1.17-.56-1.94c0-.53,.1-1.02,.29-1.47,.19-.45,.46-.79,.79-1.03s.69-.36,1.07-.36,.68,.11,.98,.34c.29,.23,.53,.56,.7,1,.11-.58,.35-1.02,.7-1.34,.35-.32,.8-.48,1.33-.48,.72,0,1.33,.31,1.83,.93,.5,.62,.75,1.41,.75,2.36,0,.86-.22,1.57-.65,2.13-.43,.57-.99,.89-1.68,.97Z"/>
    <path d="M17.78,117.74h-1.17v-1.2h1.17v1.2Zm7.1,0h-5.99v-1.2h5.99v1.2Z"/>
    <path d="M24.88,114.72h-5.99v-1.08h.85c-.66-.52-.99-1.27-.99-2.25,0-.43,.06-.82,.19-1.17,.13-.36,.3-.62,.51-.8,.21-.18,.46-.3,.75-.37,.19-.04,.52-.07,.99-.07h3.68v1.2h-3.64c-.41,0-.72,.05-.93,.14-.2,.09-.37,.26-.49,.5s-.18,.52-.18,.83c0,.51,.14,.95,.41,1.32s.79,.56,1.56,.56h3.27v1.2Z"/>
    <path d="M27.17,105.14v2.64h-.84v-1.44h-8.88v1.44h-.84v-2.64h10.56Z"/>
  </g>
  <g>
    <path d="M8,165.42l-.09-1.15c.46-.1,.79-.28,1-.56,.21-.27,.31-.63,.31-1.06,0-.37-.07-.69-.21-.97-.14-.28-.33-.5-.57-.68-.24-.18-.56-.33-.97-.45-.41-.12-.82-.18-1.24-.18-.05,0-.11,0-.2,0,.32,.24,.59,.57,.79,.98,.2,.42,.3,.86,.3,1.35,0,.81-.25,1.49-.74,2.05s-1.15,.84-1.96,.84-1.51-.29-2.02-.88c-.51-.58-.77-1.31-.77-2.19,0-.63,.15-1.21,.43-1.74,.29-.53,.7-.93,1.24-1.2,.54-.27,1.31-.41,2.33-.41s1.9,.14,2.52,.41c.63,.27,1.1,.67,1.43,1.21,.33,.53,.49,1.16,.49,1.88,0,.76-.18,1.39-.54,1.87-.36,.48-.86,.77-1.51,.87Zm-3.65-4.91c-.58,0-1.04,.18-1.39,.55s-.51,.81-.51,1.32,.18,1,.55,1.39c.37,.39,.85,.59,1.43,.59,.53,0,.95-.19,1.28-.56,.33-.38,.49-.84,.49-1.39s-.16-1.01-.49-1.37c-.33-.36-.78-.54-1.37-.54Z"/>
    <path d="M2.73,157.94h-.98v-6.32h.79c.56,.62,1.3,1.24,2.23,1.85,.93,.61,1.88,1.08,2.86,1.41,.69,.24,1.45,.39,2.27,.46v1.23c-.65-.01-1.44-.16-2.36-.45-.92-.29-1.81-.7-2.66-1.24-.85-.54-1.58-1.11-2.16-1.72v4.78Z"/>
    <path d="M3.67,144.22l.08,1.19c-.4,.11-.69,.26-.87,.45-.29,.32-.43,.72-.43,1.2,0,.38,.09,.72,.27,1,.23,.38,.57,.67,1.02,.89,.45,.22,1.08,.33,1.91,.34-.37-.29-.65-.64-.83-1.06-.18-.42-.27-.85-.27-1.31,0-.8,.25-1.48,.75-2.04,.5-.56,1.14-.84,1.93-.84,.52,0,1,.13,1.45,.4s.79,.63,1.02,1.09c.24,.46,.36,.99,.36,1.57,0,1-.31,1.81-.93,2.44s-1.65,.94-3.08,.94c-1.6,0-2.76-.35-3.48-1.04-.63-.61-.95-1.43-.95-2.46,0-.77,.18-1.4,.55-1.89,.36-.49,.87-.78,1.51-.88Zm3.56,4.89c.35,0,.68-.09,1-.26,.32-.17,.56-.42,.73-.74,.17-.31,.25-.65,.25-.99,0-.51-.17-.94-.52-1.3s-.82-.55-1.41-.55-1.02,.18-1.35,.54c-.33,.36-.49,.81-.49,1.36s.16,1,.49,1.38c.33,.38,.76,.57,1.29,.57Z"/>
    <path d="M9.91,142.19h-1.16v-1.36h1.16v1.36Z"/>
    <path d="M2.73,138.99h-.98v-6.32h.79c.56,.62,1.3,1.24,2.23,1.85,.93,.61,1.88,1.08,2.86,1.41,.69,.24,1.45,.39,2.27,.46v1.23c-.65-.01-1.44-.16-2.36-.45-.92-.29-1.81-.7-2.66-1.24-.85-.54-1.58-1.11-2.16-1.72v4.78Z"/>
    <path d="M9.91,127.37H3.92v-1.07h.84c-.29-.22-.53-.52-.71-.89-.18-.37-.27-.79-.27-1.26,0-.52,.09-.95,.28-1.29s.44-.57,.77-.71c-.7-.56-1.05-1.29-1.05-2.18,0-.7,.16-1.24,.49-1.62,.33-.38,.83-.57,1.52-.57h4.11v1.19h-3.77c-.41,0-.7,.04-.88,.12-.18,.08-.32,.22-.43,.42-.11,.2-.16,.44-.16,.72,0,.5,.14,.91,.42,1.24,.28,.33,.73,.49,1.34,.49h3.48v1.2h-3.89c-.45,0-.79,.1-1.01,.29s-.34,.51-.34,.96c0,.34,.08,.65,.23,.94,.15,.29,.37,.49,.66,.62,.29,.13,.71,.19,1.25,.19h3.11v1.2Z"/>
    <path d="M9.91,116.02H3.92v-1.07h.84c-.29-.22-.53-.52-.71-.89-.18-.37-.27-.79-.27-1.26,0-.52,.09-.95,.28-1.29s.44-.57,.77-.71c-.7-.56-1.05-1.29-1.05-2.18,0-.7,.16-1.24,.49-1.62,.33-.38,.83-.57,1.52-.57h4.11v1.19h-3.77c-.41,0-.7,.04-.88,.12-.18,.08-.32,.22-.43,.42-.11,.2-.16,.44-.16,.72,0,.5,.14,.91,.42,1.24,.28,.33,.73,.49,1.34,.49h3.48v1.2h-3.89c-.45,0-.79,.1-1.01,.29s-.34,.51-.34,.96c0,.34,.08,.65,.23,.94,.15,.29,.37,.49,.66,.62,.29,.13,.71,.19,1.25,.19h3.11v1.2Z"/>
  </g>
  <g>
    <path d="M228.17,372.04h-10.56v-2.64h.84v1.44h8.88v-1.44h.84v2.64Z"/>
    <path d="M225.87,364.77h-1.98v4.23h-.93l-5.35-4.45v-.98h5.35v-1.32h.93v1.32h1.98v1.2Zm-2.91,0h-3.73l3.73,3.05v-3.05Z"/>
    <path d="M225.87,360.35h-1.16v-1.36h1.16v1.36Z"/>
    <path d="M224.9,350.94h.98v6.45c-.24,0-.48-.04-.71-.14-.37-.16-.74-.43-1.1-.79-.36-.36-.78-.88-1.25-1.57-.74-1.06-1.32-1.78-1.75-2.15-.43-.37-.84-.56-1.22-.56s-.74,.17-1.02,.51c-.28,.34-.41,.78-.41,1.33,0,.58,.15,1.04,.44,1.38,.29,.35,.7,.52,1.22,.53l-.11,1.23c-.78-.08-1.37-.4-1.78-.95-.41-.55-.61-1.29-.61-2.22s.22-1.68,.66-2.22c.44-.55,.99-.82,1.63-.82,.33,0,.66,.08,.98,.24,.32,.16,.66,.42,1.01,.8,.35,.37,.84,.99,1.46,1.85,.51,.72,.86,1.18,1.04,1.38,.18,.2,.37,.37,.55,.51v-4.79Z"/>
    <path d="M223.71,349.66l-.09-1.26c.52-.09,.91-.31,1.17-.65,.26-.34,.39-.75,.39-1.23,0-.58-.18-1.07-.55-1.46s-.86-.6-1.47-.6-1.04,.19-1.37,.58c-.33,.38-.5,.89-.5,1.51,0,.39,.07,.73,.22,1.04s.34,.55,.58,.73l-.12,1.12-4.25-.95v-4.85h.97v3.89l2.22,.53c-.35-.59-.52-1.2-.52-1.84,0-.85,.25-1.57,.75-2.16,.5-.59,1.14-.88,1.93-.88s1.39,.26,1.94,.77c.67,.62,1,1.48,1,2.56,0,.89-.21,1.61-.63,2.17s-.98,.88-1.67,.96Z"/>
    <path d="M224.9,335.78h.98v6.45c-.24,0-.48-.04-.71-.14-.37-.16-.74-.43-1.1-.79-.36-.36-.78-.88-1.25-1.57-.74-1.06-1.32-1.78-1.75-2.15-.43-.37-.84-.56-1.22-.56s-.74,.17-1.02,.51c-.28,.34-.41,.78-.41,1.33,0,.58,.15,1.04,.44,1.38,.29,.35,.7,.52,1.22,.53l-.11,1.23c-.78-.08-1.37-.4-1.78-.95-.41-.55-.61-1.29-.61-2.22s.22-1.68,.66-2.22c.44-.55,.99-.82,1.63-.82,.33,0,.66,.08,.98,.24,.32,.16,.66,.42,1.01,.8,.35,.37,.84,.99,1.46,1.85,.51,.72,.86,1.18,1.04,1.38,.18,.2,.37,.37,.55,.51v-4.79Z"/>
    <path d="M218.78,330.37h-1.17v-1.2h1.17v1.2Zm7.1,0h-5.99v-1.2h5.99v1.2Z"/>
    <path d="M225.87,327.35h-5.99v-1.08h.85c-.66-.52-.99-1.27-.99-2.25,0-.43,.07-.82,.19-1.17,.13-.36,.3-.62,.51-.8,.21-.18,.46-.3,.75-.37,.19-.04,.52-.07,.99-.07h3.68v1.2h-3.64c-.41,0-.72,.05-.93,.14-.2,.09-.37,.26-.49,.5s-.18,.52-.18,.83c0,.51,.14,.95,.41,1.32s.79,.56,1.56,.56h3.27v1.2Z"/>
    <path d="M228.17,317.76v2.64h-.84v-1.44h-8.88v1.44h-.84v-2.64h10.56Z"/>
  </g>
  <g>
    <path d="M209.01,364.74v1.2h-6.47c.23,.29,.47,.67,.7,1.13,.23,.47,.41,.89,.52,1.26h-.98c-.27-.67-.59-1.26-.97-1.76-.38-.5-.75-.86-1.1-1.07v-.77h8.3Z"/>
    <path d="M204.93,361.67c-.98,0-1.76-.12-2.36-.36s-1.05-.59-1.38-1.06c-.32-.47-.48-1.06-.48-1.77,0-.52,.09-.98,.27-1.38,.18-.39,.44-.72,.77-.98,.34-.26,.75-.46,1.23-.61,.48-.15,1.13-.22,1.95-.22,.97,0,1.75,.12,2.35,.35,.6,.24,1.06,.59,1.38,1.06,.33,.47,.49,1.06,.49,1.77,0,.94-.29,1.68-.86,2.22-.69,.64-1.81,.97-3.36,.97Zm0-1.23c1.36,0,2.26-.19,2.71-.56s.67-.84,.67-1.39-.23-1.01-.68-1.39c-.45-.38-1.35-.56-2.71-.56s-2.26,.19-2.71,.56-.67,.84-.67,1.4,.2,.99,.59,1.32c.5,.41,1.43,.62,2.79,.62Z"/>
    <path d="M204.52,352.25c-.15,.5-.37,.87-.66,1.1-.29,.24-.63,.36-1.03,.36-.6,0-1.11-.25-1.52-.77-.41-.51-.61-1.19-.61-2.04s.21-1.54,.63-2.06,.93-.78,1.53-.78c.38,0,.72,.12,1,.36,.28,.24,.5,.6,.66,1.08,.17-.6,.43-1.06,.8-1.37s.81-.47,1.32-.47c.71,0,1.3,.29,1.78,.88,.48,.59,.72,1.37,.72,2.33s-.24,1.74-.72,2.33c-.48,.59-1.09,.88-1.81,.88-.54,0-.99-.16-1.35-.48-.36-.32-.61-.78-.74-1.37Zm-1.72,.24c.39,0,.71-.15,.96-.45,.25-.3,.37-.68,.37-1.16s-.12-.84-.37-1.13-.55-.44-.91-.44-.68,.15-.94,.46c-.25,.3-.38,.68-.38,1.13s.12,.84,.37,1.14,.54,.45,.89,.45Zm3.82,.39c.29,0,.57-.08,.84-.24s.48-.4,.63-.72,.22-.66,.22-1.03c0-.57-.16-1.04-.47-1.42s-.71-.56-1.19-.56-.89,.19-1.21,.58-.48,.86-.48,1.44,.16,1.03,.47,1.4c.32,.37,.71,.56,1.18,.56Z"/>
    <path d="M209.01,342.39h-5.99v-1.07h.84c-.29-.22-.53-.52-.71-.89-.18-.37-.27-.79-.27-1.26,0-.52,.09-.95,.28-1.29,.18-.33,.44-.57,.77-.71-.7-.56-1.05-1.29-1.05-2.18,0-.7,.17-1.24,.49-1.62,.33-.38,.84-.57,1.52-.57h4.11v1.19h-3.77c-.41,0-.7,.04-.88,.12-.18,.08-.32,.22-.43,.42-.11,.2-.16,.44-.16,.72,0,.5,.14,.91,.42,1.24,.28,.33,.73,.49,1.34,.49h3.48v1.2h-3.89c-.45,0-.79,.1-1.01,.29s-.34,.51-.34,.96c0,.34,.08,.65,.23,.93s.37,.49,.66,.62c.29,.13,.71,.19,1.25,.19h3.11v1.2Z"/>
    <path d="M209.01,331.04h-5.99v-1.07h.84c-.29-.22-.53-.52-.71-.89-.18-.37-.27-.79-.27-1.26,0-.52,.09-.95,.28-1.29,.18-.33,.44-.57,.77-.71-.7-.56-1.05-1.29-1.05-2.18,0-.7,.17-1.24,.49-1.62,.33-.38,.84-.57,1.52-.57h4.11v1.19h-3.77c-.41,0-.7,.04-.88,.12-.18,.08-.32,.22-.43,.42-.11,.2-.16,.44-.16,.72,0,.5,.14,.91,.42,1.24,.28,.33,.73,.49,1.34,.49h3.48v1.2h-3.89c-.45,0-.79,.1-1.01,.29s-.34,.51-.34,.96c0,.34,.08,.65,.23,.93s.37,.49,.66,.62c.29,.13,.71,.19,1.25,.19h3.11v1.2Z"/>
  </g>
  <g>
    <path d="M294.39,331.05v-10.56h2.64v.84h-1.45v8.88h1.45v.84h-2.64Z"/>
    <path d="M304.12,327.78v.98h-6.45c0-.24,.04-.48,.14-.71,.16-.37,.43-.74,.79-1.1,.36-.36,.88-.78,1.57-1.25,1.06-.74,1.78-1.32,2.15-1.75s.56-.84,.56-1.22-.17-.74-.51-1.02c-.34-.28-.78-.41-1.33-.41-.58,0-1.04,.15-1.38,.44-.35,.29-.52,.7-.53,1.22l-1.23-.11c.09-.78,.4-1.37,.95-1.78,.55-.41,1.29-.61,2.21-.61s1.68,.22,2.22,.66c.54,.44,.82,.99,.82,1.63,0,.33-.08,.66-.24,.98s-.42,.66-.79,1.01c-.37,.35-.99,.84-1.85,1.46-.72,.51-1.18,.86-1.38,1.04-.2,.18-.37,.37-.51,.55h4.79Z"/>
    <path d="M311.7,327.78v.98h-6.45c0-.24,.04-.48,.14-.71,.16-.37,.43-.74,.79-1.1,.36-.36,.88-.78,1.57-1.25,1.06-.74,1.78-1.32,2.15-1.75,.37-.43,.56-.84,.56-1.22s-.17-.74-.51-1.02c-.34-.28-.78-.41-1.33-.41-.58,0-1.04,.15-1.38,.44-.35,.29-.52,.7-.53,1.22l-1.23-.11c.08-.78,.4-1.37,.95-1.78,.55-.41,1.29-.61,2.22-.61s1.68,.22,2.22,.66c.55,.44,.82,.99,.82,1.63,0,.33-.08,.66-.24,.98-.16,.32-.43,.66-.8,1.01-.37,.35-.99,.84-1.85,1.46-.72,.51-1.18,.86-1.38,1.04-.21,.18-.37,.37-.51,.55h4.79Z"/>
    <path d="M313.66,328.76v-1.16h1.36v1.16h-1.36Z"/>
    <path d="M321.28,328.76h-1.2v-6.47c-.29,.23-.67,.47-1.13,.7-.47,.23-.89,.41-1.26,.52v-.98c.67-.27,1.26-.59,1.76-.97,.5-.38,.86-.75,1.07-1.1h.77v8.3Z"/>
    <path d="M326.19,324.28c-.5-.15-.87-.37-1.11-.66-.24-.29-.36-.63-.36-1.03,0-.6,.26-1.11,.77-1.52,.51-.41,1.19-.61,2.04-.61s1.54,.21,2.06,.63,.78,.93,.78,1.53c0,.38-.12,.72-.36,1-.24,.28-.6,.5-1.08,.66,.6,.17,1.06,.43,1.37,.8s.47,.81,.47,1.32c0,.71-.29,1.3-.88,1.78-.59,.48-1.37,.72-2.33,.72s-1.74-.24-2.33-.72c-.59-.48-.88-1.09-.88-1.81,0-.54,.16-.99,.48-1.35s.78-.61,1.38-.74Zm-.62,2.1c0,.29,.08,.57,.24,.84s.4,.48,.72,.63c.32,.15,.66,.22,1.03,.22,.57,0,1.04-.16,1.42-.47s.56-.71,.56-1.19-.19-.89-.58-1.21c-.38-.32-.86-.48-1.44-.48s-1.03,.16-1.4,.47-.55,.71-.55,1.18Zm.38-3.82c0,.39,.15,.71,.45,.96,.3,.25,.68,.37,1.16,.37s.84-.12,1.13-.37,.44-.55,.44-.91-.15-.68-.46-.94c-.3-.25-.68-.38-1.13-.38s-.84,.12-1.14,.37c-.3,.25-.45,.54-.45,.89Z"/>
    <path d="M331.93,326.59l1.26-.09c.09,.52,.31,.91,.65,1.17,.34,.26,.75,.39,1.23,.39,.58,0,1.07-.18,1.46-.55,.4-.37,.6-.86,.6-1.47s-.19-1.04-.58-1.37c-.38-.33-.89-.5-1.51-.5-.38,0-.73,.07-1.04,.22s-.55,.34-.73,.58l-1.12-.12,.95-4.25h4.85v.97h-3.89l-.53,2.22c.59-.35,1.2-.52,1.84-.52,.85,0,1.57,.25,2.16,.75s.88,1.14,.88,1.93-.26,1.39-.77,1.94c-.62,.67-1.48,1-2.56,1-.89,0-1.61-.21-2.17-.63-.56-.42-.88-.98-.96-1.67Z"/>
    <path d="M343.64,321.66v-1.17h1.2v1.17h-1.2Zm0,7.1v-5.99h1.2v5.99h-1.2Z"/>
    <path d="M346.66,328.76v-5.99h1.08v.85c.52-.66,1.27-.99,2.25-.99,.43,0,.82,.07,1.17,.19,.36,.13,.62,.3,.8,.51,.18,.21,.3,.46,.37,.75,.04,.19,.07,.52,.07,.99v3.68h-1.2v-3.64c0-.41-.05-.72-.14-.93-.09-.2-.26-.37-.5-.49-.24-.12-.52-.18-.84-.18-.51,0-.95,.14-1.32,.41-.37,.27-.56,.79-.56,1.56v3.27h-1.2Z"/>
    <path d="M356.25,331.05h-2.64v-.84h1.44v-8.88h-1.44v-.84h2.64v10.56Z"/>
  </g>
  <g>
    <path d="M295.74,311l1.26-.09c.09,.52,.31,.91,.65,1.17,.34,.26,.75,.39,1.23,.39,.58,0,1.07-.18,1.46-.55s.6-.86,.6-1.47-.19-1.04-.58-1.37c-.38-.33-.89-.5-1.51-.5-.39,0-.73,.07-1.04,.22s-.55,.34-.73,.58l-1.12-.12,.95-4.25h4.85v.97h-3.89l-.53,2.22c.59-.35,1.2-.52,1.84-.52,.85,0,1.57,.25,2.16,.75,.59,.5,.88,1.14,.88,1.93s-.26,1.39-.77,1.94c-.62,.67-1.48,1-2.56,1-.89,0-1.61-.21-2.17-.63s-.88-.98-.96-1.67Z"/>
    <path d="M309.54,306.93l-1.19,.08c-.11-.4-.26-.69-.45-.87-.32-.29-.72-.43-1.2-.43-.38,0-.72,.09-1,.27-.38,.23-.67,.57-.89,1.02-.22,.45-.33,1.08-.34,1.91,.29-.37,.64-.65,1.06-.83,.42-.18,.85-.27,1.31-.27,.8,0,1.48,.25,2.04,.75s.84,1.14,.84,1.93c0,.52-.13,1-.4,1.45-.26,.45-.63,.79-1.09,1.02-.46,.24-.98,.35-1.57,.35-1,0-1.81-.31-2.44-.93-.63-.62-.95-1.65-.95-3.08,0-1.6,.35-2.76,1.04-3.48,.61-.63,1.43-.95,2.46-.95,.77,0,1.4,.18,1.89,.55s.78,.87,.88,1.51Zm-4.89,3.56c0,.35,.09,.68,.26,1,.17,.32,.42,.56,.74,.73,.31,.17,.65,.25,.99,.25,.51,0,.94-.17,1.3-.52,.36-.35,.55-.82,.55-1.41s-.18-1.02-.54-1.35c-.36-.33-.81-.49-1.36-.49s-1,.17-1.38,.49c-.38,.33-.57,.76-.57,1.29Z"/>
    <path d="M310.91,310.99l1.2-.13c.14,.57,.37,.99,.7,1.24,.33,.25,.73,.38,1.21,.38,.56,0,1.04-.17,1.43-.5,.39-.33,.58-.74,.58-1.23s-.18-.85-.54-1.15-.82-.45-1.37-.45c-.23,0-.51,.04-.84,.11l.13-.89c.08,0,.14,.01,.19,.01,.51,0,.97-.11,1.38-.34s.61-.57,.61-1.04c0-.37-.15-.68-.45-.92-.3-.25-.68-.37-1.15-.37s-.85,.12-1.17,.37-.51,.62-.6,1.12l-1.2-.18c.15-.68,.48-1.21,1-1.58,.52-.37,1.17-.56,1.94-.56,.53,0,1.02,.1,1.47,.29,.45,.19,.79,.46,1.03,.79,.24,.33,.36,.69,.36,1.07s-.11,.68-.34,.98c-.23,.29-.56,.53-1,.7,.58,.11,1.02,.35,1.34,.7,.32,.36,.48,.8,.48,1.33,0,.72-.31,1.33-.93,1.83-.62,.5-1.41,.75-2.36,.75-.86,0-1.57-.22-2.13-.65-.57-.43-.89-.99-.97-1.68Z"/>
    <path d="M319.15,313.17v-1.16h1.36v1.16h-1.36Z"/>
    <path d="M322.27,311l1.26-.09c.09,.52,.31,.91,.65,1.17,.34,.26,.75,.39,1.23,.39,.58,0,1.07-.18,1.46-.55s.6-.86,.6-1.47-.19-1.04-.58-1.37c-.38-.33-.89-.5-1.51-.5-.39,0-.73,.07-1.04,.22s-.55,.34-.73,.58l-1.12-.12,.95-4.25h4.85v.97h-3.89l-.53,2.22c.59-.35,1.2-.52,1.84-.52,.85,0,1.57,.25,2.16,.75,.59,.5,.88,1.14,.88,1.93s-.26,1.39-.77,1.94c-.62,.67-1.48,1-2.56,1-.89,0-1.61-.21-2.17-.63s-.88-.98-.96-1.67Z"/>
    <path d="M333.97,313.17v-5.99h1.07v.84c.22-.29,.52-.53,.89-.71,.37-.18,.79-.27,1.26-.27,.52,0,.95,.09,1.29,.28,.33,.18,.57,.44,.71,.77,.56-.7,1.29-1.05,2.18-1.05,.7,0,1.24,.17,1.62,.49,.38,.33,.57,.84,.57,1.52v4.11h-1.19v-3.77c0-.41-.04-.7-.12-.88-.08-.18-.22-.32-.42-.43-.2-.11-.44-.16-.72-.16-.5,0-.91,.14-1.24,.42-.33,.28-.49,.73-.49,1.34v3.48h-1.2v-3.89c0-.45-.1-.79-.29-1.01s-.51-.34-.96-.34c-.34,0-.65,.08-.93,.23s-.49,.37-.62,.66c-.13,.29-.19,.71-.19,1.25v3.11h-1.2Z"/>
    <path d="M345.32,313.17v-5.99h1.07v.84c.22-.29,.52-.53,.89-.71,.37-.18,.79-.27,1.26-.27,.52,0,.95,.09,1.29,.28,.33,.18,.57,.44,.71,.77,.56-.7,1.29-1.05,2.18-1.05,.7,0,1.24,.17,1.62,.49,.38,.33,.57,.84,.57,1.52v4.11h-1.19v-3.77c0-.41-.04-.7-.12-.88-.08-.18-.22-.32-.42-.43-.2-.11-.44-.16-.72-.16-.5,0-.91,.14-1.24,.42-.33,.28-.49,.73-.49,1.34v3.48h-1.2v-3.89c0-.45-.1-.79-.29-1.01s-.51-.34-.96-.34c-.34,0-.65,.08-.93,.23s-.49,.37-.62,.66c-.13,.29-.19,.71-.19,1.25v3.11h-1.2Z"/>
  </g>
  <g>
    <path d="M195.97,219.09l-.45,1.11-6-2.4c.11,.35,.18,.79,.23,1.31,.04,.52,.05,.98,.02,1.37l-.91-.36c0-.72-.08-1.39-.25-1.99s-.38-1.07-.63-1.4l.29-.72,7.7,3.08Z"/>
    <path d="M193.33,214.72c-.91-.36-1.59-.77-2.06-1.21-.46-.44-.76-.94-.89-1.49-.12-.55-.06-1.16,.21-1.82,.2-.49,.45-.88,.76-1.18,.31-.3,.67-.51,1.08-.62,.41-.11,.86-.15,1.37-.11,.5,.04,1.13,.22,1.89,.52,.9,.36,1.58,.76,2.05,1.2,.47,.44,.76,.94,.89,1.49,.13,.55,.06,1.16-.21,1.83-.35,.87-.89,1.45-1.62,1.74-.88,.34-2.04,.22-3.48-.35Zm.46-1.14c1.26,.5,2.17,.67,2.72,.48,.56-.18,.94-.53,1.14-1.04,.2-.51,.17-1.02-.11-1.54s-1.05-1.02-2.3-1.53c-1.26-.51-2.17-.67-2.73-.49-.55,.18-.94,.53-1.14,1.05-.21,.51-.19,.99,.06,1.44,.31,.57,1.1,1.11,2.36,1.61Z"/>
    <path d="M197.92,208.4l.38-1.2c.52,.11,.96,.05,1.33-.17,.37-.22,.64-.55,.82-1,.21-.54,.22-1.06,.03-1.56-.19-.51-.57-.88-1.14-1.1-.54-.22-1.03-.21-1.48,.03-.45,.23-.79,.64-1.03,1.21-.14,.36-.2,.71-.18,1.05,.02,.34,.11,.64,.27,.9l-.53,1-3.59-2.45,1.8-4.51,.9,.36-1.45,3.62,1.87,1.31c-.1-.67-.04-1.31,.2-1.91,.32-.79,.82-1.36,1.5-1.72,.68-.36,1.39-.39,2.12-.1,.7,.28,1.2,.76,1.51,1.44,.39,.83,.38,1.75-.02,2.75-.33,.82-.79,1.42-1.39,1.78-.6,.36-1.24,.46-1.91,.27Z"/>
    <path d="M196.5,199.35c-.4-.16-.68-.47-.82-.91s-.13-.91,.06-1.38c.19-.48,.49-.83,.91-1.05s.82-.25,1.23-.09c.4,.16,.68,.46,.83,.91,.15,.45,.13,.91-.06,1.39-.19,.47-.49,.82-.91,1.04-.42,.22-.83,.25-1.23,.09Zm.27-.67c.24,.1,.49,.08,.75-.06,.25-.14,.44-.35,.55-.63,.11-.28,.12-.56,.03-.84-.09-.27-.26-.46-.5-.56s-.49-.08-.75,.06-.44,.34-.55,.63c-.12,.29-.13,.57-.04,.84,.09,.27,.26,.46,.5,.56Z"/>
  </g>
  <g>
    <path d="M264.89,200.16l-.54-1.07,5.78-2.91c-.34-.15-.72-.39-1.13-.7-.42-.31-.76-.61-1.04-.89l.88-.44c.54,.48,1.09,.86,1.66,1.13,.56,.28,1.05,.43,1.47,.45l.35,.69-7.41,3.73Z"/>
    <path d="M269.91,201.07c.87-.44,1.63-.69,2.27-.74,.64-.06,1.21,.05,1.71,.33,.5,.27,.91,.73,1.23,1.36,.24,.47,.36,.92,.38,1.35,.02,.43-.06,.84-.25,1.22-.18,.38-.46,.75-.83,1.09-.37,.35-.91,.71-1.65,1.07-.87,.44-1.62,.68-2.26,.74-.64,.06-1.21-.05-1.71-.32s-.91-.73-1.23-1.37c-.42-.84-.5-1.63-.23-2.37,.33-.88,1.18-1.67,2.57-2.37Zm.55,1.1c-1.21,.61-1.93,1.18-2.17,1.72-.23,.54-.22,1.05,.02,1.54,.25,.49,.66,.8,1.23,.94,.57,.13,1.46-.11,2.67-.71,1.22-.61,1.94-1.18,2.17-1.72,.23-.54,.22-1.05-.03-1.55-.25-.49-.62-.79-1.12-.91-.63-.14-1.56,.09-2.77,.7Z"/>
    <path d="M271.61,208.7l.65,1.08c-.42,.32-.67,.69-.75,1.11-.08,.42-.01,.84,.2,1.27,.26,.52,.64,.87,1.15,1.06s1.04,.15,1.58-.12c.52-.26,.84-.64,.96-1.13s.05-1.02-.23-1.57c-.17-.34-.4-.62-.67-.83-.27-.21-.55-.34-.85-.39l-.39-1.06,4.22-1.06,2.18,4.33-.87,.44-1.75-3.48-2.22,.53c.57,.37,1,.84,1.29,1.41,.38,.76,.48,1.51,.3,2.26-.18,.75-.62,1.3-1.33,1.65-.67,.34-1.36,.4-2.08,.18-.88-.26-1.56-.87-2.05-1.84-.4-.79-.54-1.53-.41-2.23,.12-.69,.48-1.23,1.06-1.61Z"/>
    <path d="M279.33,213.63c.39-.19,.8-.2,1.23-.01,.43,.19,.77,.5,.99,.96,.23,.46,.29,.92,.18,1.38s-.36,.78-.75,.98c-.39,.19-.8,.2-1.23,.01-.44-.19-.77-.51-1-.96-.23-.45-.29-.91-.18-1.37,.11-.46,.36-.79,.75-.98Zm.33,.65c-.24,.12-.39,.32-.45,.6-.07,.28-.03,.56,.11,.84,.14,.27,.34,.47,.6,.58s.51,.11,.75,0,.39-.32,.45-.6c.07-.28,.03-.56-.11-.83-.14-.28-.34-.47-.61-.58-.26-.11-.52-.11-.75,0Z"/>
  </g>
  <g>
    <path d="M192.94,125.88l-.43,1.12-6.03-2.32c.11,.35,.2,.79,.25,1.31,.05,.52,.06,.98,.04,1.37l-.92-.35c0-.72-.1-1.38-.27-1.99-.17-.6-.39-1.07-.65-1.39l.28-.72,7.74,2.98Z"/>
    <path d="M192.01,122.22l.3-1.17c.59,.08,1.06,0,1.41-.21,.36-.22,.62-.55,.79-.99,.2-.53,.22-1.03,.05-1.51-.17-.48-.48-.81-.94-.99-.43-.17-.86-.14-1.27,.09-.41,.23-.72,.6-.92,1.12-.08,.21-.15,.49-.2,.83l-.78-.44c.04-.07,.06-.13,.08-.18,.18-.48,.24-.95,.18-1.41s-.31-.78-.75-.95c-.35-.13-.69-.11-1.02,.08-.33,.19-.59,.5-.76,.94-.17,.44-.19,.84-.07,1.22,.12,.38,.39,.7,.83,.96l-.6,1.05c-.58-.38-.95-.88-1.12-1.5-.16-.62-.1-1.29,.17-2.01,.19-.5,.46-.92,.8-1.27,.34-.35,.71-.57,1.11-.67,.4-.1,.77-.09,1.12,.05,.33,.13,.59,.35,.79,.67,.19,.32,.29,.71,.29,1.19,.31-.5,.69-.83,1.14-1,.45-.17,.92-.16,1.42,.03,.67,.26,1.13,.77,1.38,1.53,.24,.76,.2,1.58-.14,2.47-.31,.8-.76,1.39-1.37,1.76-.61,.37-1.25,.47-1.92,.3Z"/>
    <path d="M194.74,115.16l.37-1.21c.52,.1,.96,.04,1.33-.18,.37-.22,.63-.56,.81-1.01,.21-.54,.21-1.06,.01-1.56-.2-.5-.58-.87-1.15-1.09-.54-.21-1.04-.19-1.49,.05-.45,.24-.79,.65-1.01,1.23-.14,.36-.19,.71-.17,1.06,.03,.34,.12,.64,.28,.89l-.52,1-3.62-2.41,1.74-4.53,.91,.35-1.4,3.63,1.88,1.29c-.11-.67-.05-1.31,.18-1.91,.31-.79,.8-1.38,1.47-1.74,.68-.37,1.38-.41,2.12-.13,.7,.27,1.21,.74,1.53,1.42,.4,.82,.41,1.74,.02,2.75-.32,.83-.78,1.43-1.37,1.8-.6,.37-1.23,.47-1.91,.3Z"/>
    <path d="M193.2,106.14c-.4-.16-.68-.46-.84-.9-.15-.45-.14-.91,.04-1.38,.19-.48,.48-.83,.9-1.06s.82-.26,1.23-.11c.4,.16,.68,.46,.84,.9s.14,.91-.04,1.39c-.18,.47-.48,.82-.89,1.05-.41,.23-.83,.26-1.23,.11Zm.26-.68c.25,.09,.49,.07,.75-.07,.25-.14,.43-.35,.55-.64,.11-.29,.12-.56,.02-.84s-.26-.46-.51-.55c-.25-.09-.5-.07-.75,.07-.25,.14-.43,.35-.54,.64-.11,.29-.12,.57-.03,.84,.09,.27,.27,.46,.51,.55Z"/>
  </g>
  <g>
    <path d="M262.98,107.65l.67,1c-.45,.39-.71,.79-.78,1.2-.07,.41,0,.83,.22,1.25,.26,.5,.62,.85,1.1,1.04,.47,.19,.93,.18,1.36-.05,.41-.21,.67-.55,.78-1.01s.03-.93-.23-1.43c-.1-.2-.27-.43-.49-.7l.85-.29c.03,.07,.06,.13,.08,.18,.24,.45,.55,.81,.93,1.07,.39,.26,.79,.28,1.21,.06,.33-.17,.54-.44,.62-.82,.08-.38,.01-.77-.21-1.19-.21-.41-.5-.7-.87-.86-.36-.16-.79-.17-1.27-.02l-.39-1.15c.67-.18,1.29-.13,1.86,.16,.57,.29,1.03,.78,1.39,1.46,.24,.47,.38,.95,.42,1.44,.03,.49-.04,.91-.23,1.28-.19,.36-.45,.63-.78,.81-.32,.16-.66,.21-1.02,.15-.37-.07-.73-.26-1.08-.57,.17,.56,.16,1.07,0,1.52-.17,.45-.49,.79-.96,1.04-.64,.33-1.33,.34-2.06,.02s-1.32-.9-1.75-1.75c-.39-.76-.53-1.49-.41-2.19,.12-.7,.47-1.25,1.05-1.63Z"/>
    <path d="M268.15,113.5c.87-.45,1.62-.71,2.26-.77,.64-.06,1.21,.04,1.71,.31s.92,.72,1.24,1.35c.24,.46,.37,.91,.4,1.35,.02,.43-.05,.84-.24,1.22-.18,.38-.45,.75-.81,1.1s-.91,.72-1.63,1.09c-.86,.45-1.61,.7-2.25,.77-.64,.07-1.21-.04-1.71-.3-.5-.27-.92-.72-1.25-1.35-.43-.84-.52-1.62-.26-2.36,.31-.89,1.16-1.69,2.54-2.4Zm.57,1.09c-1.21,.62-1.92,1.21-2.15,1.75-.23,.54-.21,1.05,.04,1.54,.25,.49,.67,.79,1.24,.92,.57,.13,1.46-.12,2.66-.75,1.21-.63,1.92-1.21,2.15-1.75,.22-.54,.21-1.06-.05-1.55-.25-.49-.63-.79-1.13-.9-.64-.13-1.56,.11-2.76,.73Z"/>
    <path d="M274.22,119.22c.38-.2,.79-.21,1.23-.03,.44,.18,.77,.5,1,.95,.24,.46,.3,.91,.2,1.37-.1,.46-.35,.79-.73,.99-.38,.2-.79,.21-1.23,.03-.44-.18-.77-.5-1.01-.95-.23-.45-.3-.91-.19-1.37s.35-.79,.74-.99Zm.33,.64c-.23,.12-.38,.32-.45,.6-.06,.28-.02,.56,.12,.83,.14,.27,.34,.46,.61,.57,.27,.11,.52,.1,.75-.02s.38-.32,.45-.6c.06-.28,.03-.56-.12-.83-.14-.28-.35-.47-.61-.58s-.52-.1-.75,.02Z"/>
  </g>
  <g>
    <path d="M202.39,49.6l-.77,.92-4.96-4.15c0,.37-.07,.81-.19,1.32-.12,.51-.26,.94-.41,1.3l-.75-.63c.22-.69,.35-1.34,.38-1.97,.03-.63-.03-1.14-.17-1.53l.5-.59,6.36,5.32Z"/>
    <path d="M201.23,44.63c-.75-.63-1.28-1.22-1.58-1.79-.3-.56-.43-1.13-.38-1.7,.05-.57,.31-1.12,.76-1.67,.34-.4,.7-.7,1.09-.89,.39-.19,.8-.27,1.22-.25,.42,.02,.87,.13,1.33,.32,.46,.2,1.01,.56,1.64,1.08,.74,.62,1.27,1.22,1.57,1.78,.31,.56,.43,1.13,.38,1.69-.05,.57-.3,1.13-.76,1.67-.6,.72-1.3,1.1-2.08,1.15-.94,.05-2.01-.42-3.2-1.42Zm.79-.94c1.04,.87,1.85,1.31,2.44,1.31,.58,0,1.05-.21,1.41-.63,.35-.42,.48-.92,.37-1.5-.11-.58-.68-1.3-1.71-2.17-1.04-.87-1.86-1.31-2.44-1.31-.58,0-1.05,.22-1.41,.64-.35,.42-.48,.89-.39,1.39,.12,.64,.7,1.39,1.74,2.26Z"/>
    <path d="M207.56,40.04l.74-1.02c.46,.26,.9,.35,1.31,.25,.42-.09,.78-.32,1.09-.69,.37-.44,.54-.93,.52-1.48-.03-.54-.27-1.01-.74-1.4-.44-.37-.92-.52-1.42-.44-.5,.08-.95,.36-1.35,.83-.25,.3-.42,.61-.5,.94s-.09,.64-.03,.93l-.82,.78-2.65-3.45,3.11-3.72,.74,.62-2.5,2.99,1.37,1.83c.11-.67,.37-1.25,.79-1.75,.55-.65,1.2-1.04,1.96-1.17,.76-.13,1.44,.06,2.04,.56,.57,.48,.9,1.09,.99,1.84,.11,.91-.18,1.78-.87,2.61-.57,.68-1.2,1.1-1.88,1.26s-1.32,.05-1.9-.34Z"/>
    <path d="M209.02,31c-.33-.28-.5-.65-.5-1.13,0-.47,.16-.9,.48-1.29,.33-.39,.73-.63,1.19-.71,.46-.08,.86,.02,1.19,.3s.5,.65,.5,1.13c0,.47-.16,.91-.49,1.3-.32,.39-.72,.62-1.19,.71s-.87-.02-1.2-.3Zm.47-.56c.2,.17,.44,.23,.73,.18,.28-.05,.52-.19,.72-.43,.2-.24,.29-.5,.29-.78,0-.29-.1-.52-.3-.69-.2-.17-.45-.23-.73-.18-.28,.05-.52,.19-.72,.43-.2,.24-.3,.5-.29,.79,0,.29,.1,.52,.3,.69Z"/>
  </g>
  <g>
    <path d="M261.13,39.5l-.61-1.03,5.55-3.31c-.35-.13-.74-.33-1.18-.62-.44-.28-.8-.55-1.1-.81l.84-.5c.57,.44,1.15,.78,1.73,1.01,.58,.24,1.08,.35,1.5,.35l.4,.66-7.12,4.25Z"/>
    <path d="M266.21,40.05c.84-.5,1.57-.8,2.21-.9,.63-.1,1.21-.03,1.73,.2,.52,.24,.96,.66,1.32,1.27,.27,.45,.43,.89,.48,1.32,.05,.43,0,.84-.16,1.23-.16,.39-.41,.78-.75,1.15-.34,.37-.86,.77-1.56,1.19-.83,.5-1.57,.8-2.2,.9s-1.21,.04-1.73-.2-.96-.66-1.33-1.27c-.48-.81-.62-1.59-.4-2.34,.26-.9,1.06-1.75,2.39-2.55Zm.63,1.06c-1.17,.7-1.84,1.32-2.04,1.87s-.15,1.07,.13,1.54c.28,.47,.71,.75,1.29,.84,.58,.09,1.45-.21,2.61-.9,1.17-.7,1.85-1.32,2.04-1.87s.14-1.07-.14-1.55c-.28-.47-.68-.75-1.18-.83-.64-.1-1.55,.2-2.71,.9Z"/>
    <path d="M268.45,47.54l.72,1.04c-.4,.35-.62,.73-.67,1.16-.05,.43,.05,.84,.29,1.26,.29,.5,.7,.82,1.22,.97s1.04,.08,1.57-.24c.5-.3,.79-.7,.88-1.2s-.02-1.02-.34-1.55c-.2-.33-.44-.59-.73-.78-.29-.19-.58-.3-.87-.33l-.47-1.03,4.13-1.36,2.49,4.17-.83,.5-2-3.34-2.18,.69c.6,.33,1.06,.77,1.39,1.32,.44,.73,.59,1.48,.46,2.24-.13,.76-.53,1.34-1.2,1.74-.64,.38-1.33,.49-2.06,.33-.89-.19-1.62-.76-2.17-1.69-.46-.76-.65-1.49-.57-2.19,.07-.7,.39-1.26,.95-1.68Z"/>
    <path d="M276.5,51.9c.37-.22,.78-.25,1.23-.1,.45,.15,.8,.45,1.06,.88,.26,.44,.36,.9,.28,1.36-.08,.46-.3,.81-.67,1.03-.37,.22-.78,.26-1.23,.1s-.8-.45-1.07-.89c-.26-.43-.35-.89-.27-1.35s.3-.81,.67-1.04Zm.37,.62c-.23,.13-.36,.34-.41,.63-.05,.28,0,.56,.17,.83,.16,.26,.37,.44,.64,.53,.27,.09,.52,.07,.75-.06,.23-.14,.36-.35,.41-.63,.05-.28,0-.56-.17-.82-.16-.27-.37-.45-.65-.54-.27-.09-.52-.07-.75,.06Z"/>
  </g>
  <path d="M59.52,215.27l.1,.5,.3,.4,.4,.3,.4,.2h.5l.5-.2,.4-.3,.3-.4,.1-.5-1.5,9.9-1.5-9.9m3,79.4l-.1-.5-.3-.5-.4-.3-.5-.2h-.5l-.4,.2-.4,.3-.3,.5-.1,.5,1.5-10,1.5,10" style="fill: none; stroke: #000; stroke-miterlimit: 10; stroke-width: .51px;"/>
  <path d="M62.52,141.97l-.1-.5-.3-.4-.4-.3-.5-.2h-.5l-.4,.2-.4,.3-.3,.4-.1,.5,1.5-9.9,1.5,9.9m-3-86.4l.1,.5,.3,.4,.4,.3,.4,.2h.5l.5-.2,.4-.3,.3-.4,.1-.5-1.5,9.9-1.5-9.9" style="fill: none; stroke: #000; stroke-miterlimit: 10; stroke-width: .51px;"/>
  <path d="M62.52,235.07l-.1-.5-.3-.4-.4-.3-.5-.2h-.5l-.4,.2-.4,.3-.3,.4-.1,.5,1.5-9.9,1.5,9.9m-3-112.9l.1,.5,.3,.4,.4,.3,.4,.2h.5l.5-.2,.4-.3,.3-.4,.1-.5-1.5,9.9-1.5-9.9" style="fill: none; stroke: #000; stroke-miterlimit: 10; stroke-width: .51px;"/>
  <path d="M270.02,234.47l.4-1.4,.3-1.4,.2-1.4,.2-1.4,.1-1.4,.1-1.5v-1.4l-.1-1.4-.1-1.5-.2-1.4-.2-1.4-.3-1.4-.3-1.4-.4-1.4-.4-1.3-.5-1.4-.6-1.3-.6-1.3-.7-1.3-.7-1.2-.7-1.3-.8-1.1-.9-1.2-.9-1.1-.9-1.1-1-1-1-1.1-1.1-.9-1.1-.9-1.1-.9-1.2-.8-1.2-.8-1.2-.8-1.3-.6-1.3-.7-1.3-.6-1.3-.5-1.4-.5-1.3-.4-1.4-.4-1.4-.3-1.4-.2-1.4-.2-1.5-.2h-1.4l-1.4-.1m10-.2l-.5,.1-.5,.2-.3,.4-.3,.4v.5l.1,.5,.2,.4,.4,.3,.5,.3-9.6-2.9,10-.2m24.5,35.5l.1,.5,.2,.5,.3,.3,.5,.3h.5l.5-.1,.4-.2,.3-.5,.2-.4-2.8,9.6-.2-10" style="fill: none; stroke: #000; stroke-miterlimit: 10; stroke-width: .51px;"/>
  <path d="M235.32,100.67h-1.4l-1.5,.1-1.4,.1-1.4,.2-1.3,.3-1.4,.4-1.4,.4-1.3,.4-1.3,.5-1.3,.6-1.3,.6-1.2,.7-1.3,.7m49.8,25.1l-.2-1.3-.1-1.4-.3-1.4-.3-1.3-.3-1.3-.4-1.4-.5-1.3-.5-1.2-.6-1.3-.6-1.2-.7-1.2-.7-1.2-.8-1.1-.8-1.1-.9-1.1-.9-1-1-1-1-1-1-.9-1.1-.8-1.1-.8-1.2-.8-1.1-.7m0,0l-1.3-.7-1.2-.6-1.3-.6-1.4-.5-1.3-.5-1.4-.3-1.3-.4-1.4-.3-1.4-.2-1.4-.1-1.4-.1h-1.4m-9.6,2.9l.5-.2,.3-.3,.3-.4,.1-.5-.1-.5-.2-.5-.4-.3-.5-.2-.5-.1,10.1,.1-9.6,2.9m34.5,6.4l-.5-.2-.5-.1-.5,.1-.4,.3-.4,.4-.1,.5v.5l.2,.4,.3,.5-6.8-7.4,8.7,5" style="fill: none; stroke: #000; stroke-miterlimit: 10; stroke-width: .51px;"/>
  <path d="M267.92,74.17l.3-1.3,.3-1.4,.2-1.4,.2-1.4,.1-1.4,.1-1.4-.1-1.4v-1.4l-.2-1.4-.1-1.4-.3-1.4-.3-1.4-.3-1.3-.5-1.4-.4-1.3-.6-1.3-.5-1.3-.7-1.3-.7-1.2-.7-1.2-.8-1.2-.8-1.1-.9-1.1-.9-1.1-1-1-1-1-1.1-.9-1-.9-1.2-.8-1.1-.8-1.2-.8-1.2-.7-1.3-.6-1.3-.6-1.3-.6-1.3-.5-1.3-.4-1.4-.4-1.3-.3-1.4-.2-1.4-.2-1.4-.2-1.4-.1h-1.4m10-.1l-.5,.1-.5,.2-.3,.3-.3,.4-.1,.5,.1,.5,.3,.5,.4,.3,.5,.2-9.6-2.9,10-.1m22.3,32.6l.1,.5,.2,.5,.3,.3,.5,.3h.5l.5-.1,.4-.3,.3-.4,.2-.4-2.7,9.6-.3-10" style="fill: none; stroke: #000; stroke-miterlimit: 10; stroke-width: .51px;"/>
  <path d="M202.62,74.17l.4,1.4,.5,1.3,.5,1.4,.6,1.3,.6,1.2,.6,1.3,.8,1.2,.7,1.2,.9,1.2,.8,1.1,1,1.1,.9,1,1,1m40.9-53.3l-1.2-.7-1.3-.7-1.2-.6-1.4-.5-1.3-.5-1.3-.5-1.4-.3-1.4-.4-1.4-.2-1.4-.2-1.4-.2-1.4-.1h-1.4m0,0h-1.4l-1.4,.1-1.4,.2-1.4,.2-1.4,.2-1.4,.3-1.3,.4-1.4,.4-1.3,.5-1.3,.6-1.3,.6-1.2,.6-1.2,.7-1.2,.8-1.2,.8-1.1,.8-1.1,.9-1.1,.9-1,1-.9,1-1,1.1-.8,1.1-.9,1.1-.8,1.2-.7,1.2-.7,1.2-.6,1.3-.6,1.3-.5,1.3-.5,1.3-.4,1.4-.4,1.3-.3,1.4-.2,1.4-.2,1.4-.1,1.4-.1,1.4v2.8l.1,1.4,.2,1.4,.2,1.4,.3,1.4,.3,1.3m5.3,8.5l-.3-.3-.4-.3-.5-.2h-.5l-.5,.2-.3,.4-.3,.4v1l-2.5-9.7,5.3,8.5m37.4-51.1l-.5,.1-.5,.2-.3,.3-.3,.4-.1,.5,.1,.5,.3,.5,.4,.3,.5,.2-9.6-2.9,10-.1" style="fill: none; stroke: #000; stroke-miterlimit: 10; stroke-width: .51px;"/>
  <path d="M235.32,187.97l-1.5,.1-1.5,.1-1.5,.1-1.4,.2-1.5,.3-1.4,.3-1.5,.4-1.4,.4-1.4,.5-1.3,.5-1.4,.6-1.3,.7-1.3,.7-1.3,.8-1.2,.8-1.3,.8-1.1,.9-1.2,1-1.1,1-1,1-1,1.1-1,1.1-.9,1.2-.9,1.2-.8,1.2-.8,1.3-.7,1.2-.7,1.4-.6,1.3-.6,1.4-.5,1.4-.5,1.4-.4,1.4-.3,1.4-.3,1.5-.3,1.4-.1,1.5-.1,1.5-.1,1.5v1.5l.1,1.4,.1,1.5,.2,1.5,.2,1.4,.3,1.5,.4,1.4m-2.8-9.6l.2,.5,.3,.4,.4,.2,.5,.1h.5l.4-.3,.4-.3,.2-.5,.1-.5-.2,10-2.8-9.6m29-34.4l.5-.2,.4-.3,.3-.4,.1-.5-.1-.5-.2-.5-.4-.3-.5-.2-.5-.1,10.1,.2-9.7,2.8" style="fill: none; stroke: #000; stroke-miterlimit: 10; stroke-width: .51px;"/>
  <path d="M235.32,92.27h-1.6l-1.5,.1-1.5,.1-1.5,.2-1.5,.3-1.5,.3-1.5,.4-1.5,.4-1.5,.5-1.4,.6-1.4,.6-1.4,.6-1.4,.7-1.3,.8-1.3,.8-1.3,.8-1.2,.9-1.2,1-1.2,.9-1.1,1.1-1.1,1.1-1.1,1.1-1,1.1-.9,1.2-.9,1.3-.9,1.2-.8,1.3-.8,1.3-.7,1.4-.7,1.4-.6,1.4-.6,1.4-.5,1.5-.4,1.4-.4,1.5-.3,1.5-.3,1.5-.3,1.5-.1,1.6-.1,1.5-.1,1.5v1.5l.1,1.6,.1,1.5,.2,1.5,.3,1.5,.3,1.5,.3,1.5,.4,1.5,.5,1.5,.5,1.4,.6,1.4,.6,1.4,.7,1.4,.7,1.4,.8,1.3,.9,1.3,.9,1.2,.9,1.2,1,1.2,1,1.2,1,1.1m-7.3-6.9l.5,.3,.4,.2h.5l.5-.2,.4-.3,.3-.4,.1-.5-.1-.5-.2-.5,4.9,8.8-7.3-6.9m26.2-59.3l.5-.2,.4-.3,.3-.5,.1-.5-.1-.5-.2-.4-.4-.3-.4-.2-.6-.1,10.1,.3-9.7,2.7" style="fill: none; stroke: #000; stroke-miterlimit: 10; stroke-width: .51px;"/>
  <path d="M214.02,294.67l-.2-.5-.2-.5-.4-.3-.5-.2h-.5l-.5,.2-.3,.3-.3,.5-.2,.5,1.6-10,1.5,10m-3.1,10.7l.2,.5,.3,.5,.3,.3,.5,.2h.5l.5-.2,.4-.3,.2-.5,.2-.5-1.5,10-1.6-10" style="fill: none; stroke: #000; stroke-miterlimit: 10; stroke-width: .51px;"/>
  <path d="M11.72,274.77l.1,.5,.3,.4,.4,.4,.4,.1h.5l.5-.1,.4-.4,.2-.4,.2-.5-1.5,9.9-1.5-9.9M14.72,17.77l-.2-.5-.2-.4-.4-.4-.5-.1h-.5l-.4,.1-.4,.4-.3,.4-.1,.5,1.5-9.9,1.5,9.9" style="fill: none; stroke: #000; stroke-miterlimit: 10; stroke-width: .51px;"/>
  <path d="M385.12,318.17l.5-.2,.4-.2,.3-.4,.2-.5v-.5l-.2-.4-.3-.4-.4-.3-.5-.1,9.9,1.5-9.9,1.5m-139.9-3l-.5,.1-.4,.3-.4,.4-.1,.4v.5l.1,.5,.4,.4,.4,.2,.5,.2-9.9-1.5,9.9-1.5" style="fill: none; stroke: #000; stroke-miterlimit: 10; stroke-width: .51px;"/>
  <line x1="235.86" y1="64.71" x2="235.86" y2="64.25" style="fill: none; stroke: #000; stroke-dasharray: 0 0 0 0 86.4 3.6 3.6 3.6; stroke-miterlimit: 10; stroke-width: .51px;"/>
  <line x1="235.15" y1="65.42" x2="234.7" y2="65.42" style="fill: none; stroke: #000; stroke-dasharray: 0 0 0 0 86.4 3.6 3.6 3.6; stroke-miterlimit: 10; stroke-width: .51px;"/>
  <line x1="235.86" y1="66.12" x2="235.86" y2="66.58" style="fill: none; stroke: #000; stroke-dasharray: 0 0 0 0 86.4 3.6 3.6 3.6; stroke-miterlimit: 10; stroke-width: .51px;"/>
  <line x1="236.57" y1="65.42" x2="237.02" y2="65.42" style="fill: none; stroke: #000; stroke-dasharray: 0 0 0 0 86.4 3.6 3.6 3.6; stroke-miterlimit: 10; stroke-width: .51px;"/>
  <line x1="395.08" y1="225.18" x2="395.08" y2="282.35" style="fill: none; stroke: #000; stroke-dasharray: 0 0 0 0 86.4 3.6 3.6 3.6; stroke-dashoffset: 63.22px; stroke-miterlimit: 10; stroke-width: .51px;"/>
  <line x1="235.34" y1="225.13" x2="235.34" y2="291.68" style="fill: none; stroke: #000; stroke-dasharray: 0 0 0 0 86.4 3.6 3.6 3.6; stroke-dashoffset: 58.52px; stroke-miterlimit: 10; stroke-width: .51px;"/>
  <line x1="235.34" y1="225.13" x2="235.34" style="fill: none; stroke: #000; stroke-dasharray: 0 0 0 0 86.4 3.6 3.6 3.6; stroke-dashoffset: 27.84px; stroke-miterlimit: 10; stroke-width: .51px;"/>
  <line x1="235.34" y1="225.13" x2="180.47" y2="239.83" style="fill: none; stroke: #000; stroke-dasharray: 0 0 0 0 86.4 3.6 3.6 3.6; stroke-dashoffset: 63.4px; stroke-miterlimit: 10; stroke-width: .51px;"/>
  <line x1="235.34" y1="225.13" x2="281.68" y2="237.54" style="fill: none; stroke: #000; stroke-dasharray: 0 0 0 0 86.4 3.6 3.6 3.6; stroke-dashoffset: 67.82px; stroke-miterlimit: 10; stroke-width: .51px;"/>
  <line x1="235.88" y1="132.01" x2="203.84" y2="164.05" style="fill: none; stroke: #000; stroke-dasharray: 0 0 0 0 86.4 3.6 3.6 3.6; stroke-dashoffset: 69.15px; stroke-miterlimit: 10; stroke-width: .51px;"/>
  <line x1="235.88" y1="132.01" x2="256.42" y2="96.42" style="fill: none; stroke: #000; stroke-dasharray: 0 0 0 0 86.4 3.6 3.6 3.6; stroke-dashoffset: 71.25px; stroke-miterlimit: 10; stroke-width: .51px;"/>
  <line x1="235.34" y1="65.4" x2="194.2" y2="76.42" style="fill: none; stroke: #000; stroke-dasharray: 0 0 0 0 86.4 3.6 3.6 3.6; stroke-dashoffset: 70.5px; stroke-miterlimit: 10; stroke-width: .51px;"/>
  <line x1="235.34" y1="65.4" x2="271.22" y2="75.01" style="fill: none; stroke: #000; stroke-dasharray: 0 0 0 0 86.4 3.6 3.6 3.6; stroke-dashoffset: 73.23px; stroke-miterlimit: 10; stroke-width: .51px;"/>
  <path d="M235.82,65.47h.7m-.7,0v.7m0-.7h-.7m.7,0v-.7" style="fill: none; stroke: #000; stroke-linecap: round; stroke-linejoin: round; stroke-width: .51px;"/>
  <path d="M61.02,225.17v-19.1m0,78.6v-59.5m0,59.5v19.1m174.3-78.6H55.32m161.5,59.5H55.32" style="fill: none; stroke: #000; stroke-linecap: round; stroke-linejoin: round; stroke-width: .51px;"/>
  <path d="M61.02,132.07v19.1m0-85.7v66.6m0-66.6v-19.1m174.8,85.7H55.32M234.62,65.47H55.32" style="fill: none; stroke: #000; stroke-linecap: round; stroke-linejoin: round; stroke-width: .51px;"/>
  <path d="M61.02,225.17v19.1m0-112.2v93.1m0-93.1v-19.1m174.3,112.2H55.32m180.5-93.1H55.32" style="fill: none; stroke: #000; stroke-linecap: round; stroke-linejoin: round; stroke-width: .51px;"/>
  <path d="M212.52,315.37v-30.7m0,30.7v58.37m4.3-89.07h-10m-26.6,30.7h37.9m-81.5,0h43.6M235.82,7.87h10.4" style="fill: none; stroke: #000; stroke-linecap: round; stroke-linejoin: round; stroke-width: .51px;"/>
  <path d="M13.22,7.87V284.67m203.6,0H7.52M235.82,7.87H7.52" style="fill: none; stroke: #000; stroke-linecap: round; stroke-linejoin: round; stroke-width: .51px;"/>
  <path d="M235.32,316.67h159.7m0-34.3v40m-159.7-30.6v30.6" style="fill: none; stroke: #000; stroke-linecap: round; stroke-linejoin: round; stroke-width: .51px;"/>
  <path d="M59.52,215.27l.1,.5,.3,.4,.4,.3,.4,.2h.5l.5-.2,.4-.3,.3-.4,.1-.5-1.5,9.9-1.5-9.9m3,79.4l-.1-.5-.3-.5-.4-.3-.5-.2h-.5l-.4,.2-.4,.3-.3,.5-.1,.5,1.5-10,1.5,10"/>
  <path d="M62.52,141.97l-.1-.5-.3-.4-.4-.3-.5-.2h-.5l-.4,.2-.4,.3-.3,.4-.1,.5,1.5-9.9,1.5,9.9m-3-86.4l.1,.5,.3,.4,.4,.3,.4,.2h.5l.5-.2,.4-.3,.3-.4,.1-.5-1.5,9.9-1.5-9.9"/>
  <path d="M62.52,235.07l-.1-.5-.3-.4-.4-.3-.5-.2h-.5l-.4,.2-.4,.3-.3,.4-.1,.5,1.5-9.9,1.5,9.9m-3-112.9l.1,.5,.3,.4,.4,.3,.4,.2h.5l.5-.2,.4-.3,.3-.4,.1-.5-1.5,9.9-1.5-9.9"/>
  <path d="M245.32,188.97l-.5,.1-.5,.2-.3,.4-.3,.4v.5l.1,.5,.2,.4,.4,.3,.5,.3-9.6-2.9,10-.2m24.5,35.5l.1,.5,.2,.5,.3,.3,.5,.3h.5l.5-.1,.4-.2,.3-.5,.2-.4-2.8,9.6-.2-10"/>
  <path d="M225.72,103.57l.5-.2,.3-.3,.3-.4,.1-.5-.1-.5-.2-.5-.4-.3-.5-.2-.5-.1,10.1,.1-9.6,2.9m34.5,6.4l-.5-.2-.5-.1-.5,.1-.4,.3-.4,.4-.1,.5v.5l.2,.4,.3,.5-6.8-7.4,8.7,5"/>
  <path d="M245.32,31.57l-.5,.1-.5,.2-.3,.3-.3,.4-.1,.5,.1,.5,.3,.5,.4,.3,.5,.2-9.6-2.9,10-.1m22.3,32.6l.1,.5,.2,.5,.3,.3,.5,.3h.5l.5-.1,.4-.3,.3-.4,.2-.4-2.7,9.6-.3-10"/>
  <path d="M207.92,82.67l-.3-.3-.4-.3-.5-.2h-.5l-.5,.2-.3,.4-.3,.4v1l-2.5-9.7,5.3,8.5m37.4-51.1l-.5,.1-.5,.2-.3,.3-.3,.4-.1,.5,.1,.5,.3,.5,.4,.3,.5,.2-9.6-2.9,10-.1"/>
  <path d="M196.62,225.17l.2,.5,.3,.4,.4,.2,.5,.1h.5l.4-.3,.4-.3,.2-.5,.1-.5-.2,10-2.8-9.6m29-34.4l.5-.2,.4-.3,.3-.4,.1-.5-.1-.5-.2-.5-.4-.3-.5-.2-.5-.1,10.1,.2-9.7,2.8"/>
  <path d="M199.42,154.27l.5,.3,.4,.2h.5l.5-.2,.4-.3,.3-.4,.1-.5-.1-.5-.2-.5,4.9,8.8-7.3-6.9m26.2-59.3l.5-.2,.4-.3,.3-.5,.1-.5-.1-.5-.2-.4-.4-.3-.4-.2-.6-.1,10.1,.3-9.7,2.7"/>
  <path d="M214.02,294.67l-.2-.5-.2-.5-.4-.3-.5-.2h-.5l-.5,.2-.3,.3-.3,.5-.2,.5,1.6-10,1.5,10m-3.1,10.7l.2,.5,.3,.5,.3,.3,.5,.2h.5l.5-.2,.4-.3,.2-.5,.2-.5-1.5,10-1.6-10"/>
  <path d="M11.72,274.77l.1,.5,.3,.4,.4,.4,.4,.1h.5l.5-.1,.4-.4,.2-.4,.2-.5-1.5,9.9-1.5-9.9M14.72,17.77l-.2-.5-.2-.4-.4-.4-.5-.1h-.5l-.4,.1-.4,.4-.3,.4-.1,.5,1.5-9.9,1.5,9.9"/>
  <path d="M385.12,318.17l.5-.2,.4-.2,.3-.4,.2-.5v-.5l-.2-.4-.3-.4-.4-.3-.5-.1,9.9,1.5-9.9,1.5m-139.9-3l-.5,.1-.4,.3-.4,.4-.1,.4v.5l.1,.5,.4,.4,.4,.2,.5,.2-9.9-1.5,9.9-1.5"/>
</svg>