<?xml version="1.0" encoding="UTF-8"?>
<svg id="_图层_1" data-name="图层 1" xmlns="http://www.w3.org/2000/svg" viewBox="0 0 694.8 177.12">
  <rect x=".3" y=".3" width="694.2" height="176.52" style="fill: none; stroke: #000; stroke-linecap: square; stroke-miterlimit: 2; stroke-width: .6px;"/>
  <rect x="103.5" y="31.14" width="28.32" height="28.2" style="fill: #7f7f7f;"/>
  <rect x="103.5" y="31.14" width="28.32" height="28.2" style="fill: none; stroke: #000; stroke-linecap: square; stroke-miterlimit: 2; stroke-width: .6px;"/>
  <path d="M119.16,22.74h-1.75V11.58c-.42,.4-.97,.8-1.66,1.21-.68,.4-1.3,.7-1.84,.9v-1.69c.98-.46,1.83-1.02,2.57-1.67,.73-.66,1.25-1.29,1.56-1.91h1.13v14.32Z"/>
  <path d="M121.77,153.78v1.68h-9.43c-.01-.42,.06-.83,.2-1.22,.24-.64,.62-1.27,1.15-1.9,.53-.62,1.29-1.34,2.29-2.16,1.55-1.27,2.6-2.28,3.14-3.02,.54-.74,.82-1.44,.82-2.11s-.25-1.28-.74-1.76-1.14-.71-1.94-.71c-.84,0-1.52,.25-2.02,.76s-.76,1.21-.77,2.1l-1.8-.18c.12-1.34,.59-2.37,1.39-3.07,.8-.7,1.88-1.06,3.24-1.06s2.45,.38,3.25,1.14c.8,.76,1.2,1.7,1.2,2.82,0,.57-.12,1.13-.35,1.68-.23,.55-.62,1.13-1.16,1.74s-1.44,1.45-2.7,2.51c-1.05,.88-1.72,1.48-2.02,1.79s-.54,.63-.74,.95h6.99Z"/>
  <rect x="169.02" y="31.14" width="28.32" height="28.2" style="fill: #7f7f7f;"/>
  <rect x="169.02" y="31.14" width="28.32" height="28.2" style="fill: none; stroke: #000; stroke-linecap: square; stroke-miterlimit: 2; stroke-width: .6px;"/>
  <path d="M178.22,18.97l1.75-.23c.2,.99,.54,1.71,1.03,2.14,.48,.44,1.07,.66,1.77,.66,.82,0,1.52-.29,2.09-.86,.57-.57,.85-1.28,.85-2.12s-.26-1.47-.79-1.99-1.19-.78-2-.78c-.33,0-.74,.06-1.24,.19l.19-1.54c.12,.01,.21,.02,.28,.02,.75,0,1.42-.19,2.01-.58s.9-.99,.9-1.8c0-.64-.22-1.17-.65-1.6-.43-.42-1-.63-1.68-.63s-1.25,.21-1.7,.64c-.45,.43-.75,1.07-.88,1.93l-1.75-.31c.21-1.17,.7-2.08,1.46-2.73,.76-.65,1.7-.97,2.83-.97,.78,0,1.49,.17,2.15,.5,.65,.33,1.16,.79,1.5,1.37,.35,.58,.52,1.19,.52,1.84s-.17,1.18-.5,1.68-.82,.91-1.47,1.21c.84,.19,1.5,.6,1.96,1.21s.7,1.38,.7,2.3c0,1.25-.45,2.3-1.36,3.17-.91,.87-2.06,1.3-3.44,1.3-1.25,0-2.29-.37-3.12-1.12-.83-.75-1.3-1.71-1.42-2.9Z"/>
  <path d="M185.26,155.46v-3.41h-6.19v-1.6l6.51-9.24h1.43v9.24h1.93v1.6h-1.93v3.41h-1.75Zm0-5.02v-6.43l-4.46,6.43h4.46Z"/>
  <rect x="234.54" y="31.14" width="28.2" height="28.2" style="fill: #7f7f7f;"/>
  <rect x="234.54" y="31.14" width="28.2" height="28.2" style="fill: none; stroke: #000; stroke-linecap: square; stroke-miterlimit: 2; stroke-width: .6px;"/>
  <path d="M243.97,19l1.84-.16c.14,.9,.45,1.57,.95,2.02,.5,.45,1.09,.68,1.79,.68,.84,0,1.56-.32,2.14-.95,.58-.64,.88-1.48,.88-2.53s-.28-1.79-.84-2.36c-.56-.58-1.3-.87-2.2-.87-.56,0-1.07,.13-1.53,.38-.45,.26-.81,.59-1.07,1l-1.64-.21,1.38-7.32h7.09v1.67h-5.69l-.77,3.83c.86-.6,1.75-.9,2.69-.9,1.25,0,2.3,.43,3.15,1.29,.86,.86,1.28,1.97,1.28,3.33s-.38,2.41-1.13,3.35c-.91,1.15-2.16,1.73-3.74,1.73-1.3,0-2.36-.36-3.18-1.09-.82-.73-1.29-1.69-1.41-2.89Z"/>
  <path d="M252.81,144.7l-1.74,.14c-.16-.69-.38-1.19-.66-1.5-.47-.5-1.06-.75-1.75-.75-.56,0-1.05,.16-1.47,.47-.55,.4-.99,.99-1.3,1.76-.32,.77-.48,1.87-.5,3.3,.42-.64,.94-1.12,1.55-1.43,.61-.31,1.25-.47,1.92-.47,1.17,0,2.16,.43,2.98,1.29,.82,.86,1.23,1.97,1.23,3.33,0,.89-.19,1.73-.58,2.5s-.92,1.36-1.59,1.77c-.67,.41-1.44,.61-2.3,.61-1.46,0-2.65-.54-3.57-1.61-.92-1.07-1.38-2.84-1.38-5.31,0-2.76,.51-4.76,1.53-6.01,.89-1.09,2.08-1.63,3.59-1.63,1.12,0,2.04,.31,2.76,.94s1.15,1.5,1.29,2.61Zm-7.15,6.15c0,.6,.13,1.18,.38,1.73s.61,.97,1.07,1.26c.46,.29,.94,.43,1.45,.43,.74,0,1.38-.3,1.91-.89,.53-.6,.8-1.41,.8-2.43s-.26-1.76-.79-2.33c-.53-.57-1.19-.85-1.98-.85s-1.46,.28-2.01,.85c-.55,.57-.83,1.31-.83,2.23Z"/>
  <rect x="300.06" y="31.14" width="28.2" height="28.2" style="fill: #7f7f7f;"/>
  <rect x="300.06" y="31.14" width="28.2" height="28.2" style="fill: none; stroke: #000; stroke-linecap: square; stroke-miterlimit: 2; stroke-width: .6px;"/>
  <path d="M309.85,10.35v-1.68h9.23v1.36c-.91,.97-1.81,2.25-2.7,3.85-.89,1.6-1.58,3.25-2.07,4.94-.35,1.19-.57,2.5-.67,3.92h-1.8c.02-1.12,.24-2.48,.66-4.07,.42-1.59,1.03-3.12,1.81-4.6,.79-1.48,1.63-2.72,2.51-3.73h-6.98Z"/>
  <path d="M311.46,147.73c-.73-.27-1.26-.65-1.61-1.14-.35-.49-.52-1.08-.52-1.77,0-1.04,.37-1.91,1.12-2.62s1.74-1.06,2.98-1.06,2.25,.36,3.01,1.08c.76,.72,1.14,1.6,1.14,2.64,0,.66-.17,1.24-.52,1.73-.35,.49-.87,.87-1.58,1.13,.88,.29,1.54,.75,2,1.38,.46,.64,.69,1.39,.69,2.28,0,1.22-.43,2.24-1.29,3.07-.86,.83-2,1.25-3.4,1.25s-2.54-.42-3.4-1.25c-.86-.83-1.29-1.87-1.29-3.12,0-.93,.24-1.7,.71-2.33,.47-.63,1.14-1.05,2.01-1.28Zm-.91,3.62c0,.5,.12,.98,.35,1.45,.24,.47,.59,.83,1.06,1.08,.47,.26,.97,.38,1.51,.38,.84,0,1.53-.27,2.07-.81,.54-.54,.82-1.22,.82-2.05s-.28-1.54-.84-2.09c-.56-.55-1.26-.83-2.11-.83s-1.51,.27-2.05,.82c-.54,.54-.81,1.23-.81,2.04Zm.56-6.58c0,.67,.22,1.23,.65,1.65,.43,.43,1,.64,1.69,.64s1.23-.21,1.66-.64c.43-.42,.65-.94,.65-1.56s-.22-1.18-.67-1.62c-.44-.44-1-.66-1.66-.66s-1.22,.21-1.66,.64c-.44,.43-.66,.94-.66,1.54Z"/>
  <rect x="365.46" y="31.14" width="28.32" height="28.2" style="fill: #7f7f7f;"/>
  <rect x="365.46" y="31.14" width="28.32" height="28.2" style="fill: none; stroke: #000; stroke-linecap: square; stroke-miterlimit: 2; stroke-width: .6px;"/>
  <path d="M375.75,19.44l1.68-.16c.14,.79,.41,1.36,.82,1.72,.4,.36,.92,.54,1.55,.54,.54,0,1.01-.12,1.42-.37s.74-.58,1-.99c.26-.41,.48-.97,.65-1.67,.18-.7,.26-1.41,.26-2.14,0-.08,0-.19,0-.35-.35,.56-.83,1.01-1.43,1.36-.61,.35-1.26,.52-1.97,.52-1.18,0-2.18-.43-3-1.28-.82-.86-1.23-1.98-1.23-3.38s.43-2.61,1.28-3.49c.85-.88,1.92-1.32,3.21-1.32,.93,0,1.78,.25,2.54,.75,.77,.5,1.35,1.21,1.75,2.14,.4,.92,.6,2.26,.6,4.01s-.2,3.27-.59,4.35-.98,1.9-1.76,2.47-1.7,.85-2.75,.85c-1.12,0-2.03-.31-2.73-.93s-1.13-1.49-1.27-2.61Zm7.17-6.29c0-1-.27-1.8-.8-2.39-.53-.59-1.18-.89-1.93-.89s-1.46,.32-2.03,.95c-.58,.64-.87,1.46-.87,2.47,0,.91,.27,1.65,.82,2.21s1.22,.85,2.03,.85,1.48-.28,2-.85c.52-.57,.78-1.35,.78-2.36Z"/>
  <g>
    <path d="M377.4,155.46h-1.75v-11.16c-.42,.4-.97,.8-1.66,1.21-.68,.4-1.3,.7-1.84,.9v-1.69c.98-.46,1.83-1.02,2.57-1.67,.73-.65,1.25-1.29,1.56-1.91h1.13v14.32Z"/>
    <path d="M381.95,148.43c0-1.69,.17-3.04,.52-4.07,.35-1.03,.86-1.82,1.55-2.38s1.54-.84,2.58-.84c.77,0,1.44,.15,2.01,.46,.58,.31,1.05,.75,1.43,1.33s.67,1.29,.89,2.12,.32,1.96,.32,3.37c0,1.67-.17,3.02-.52,4.05-.34,1.03-.86,1.82-1.54,2.38-.68,.56-1.55,.84-2.59,.84-1.37,0-2.45-.49-3.24-1.48-.94-1.19-1.41-3.12-1.41-5.8Zm1.8,0c0,2.34,.27,3.9,.82,4.67,.55,.77,1.22,1.16,2.03,1.16s1.48-.39,2.03-1.17,.82-2.33,.82-4.67-.27-3.91-.82-4.68c-.55-.77-1.23-1.16-2.05-1.16s-1.45,.34-1.93,1.02c-.6,.87-.9,2.47-.9,4.81Z"/>
  </g>
  <rect x="430.98" y="31.14" width="28.2" height="28.2" style="fill: #7f7f7f;"/>
  <rect x="430.98" y="31.14" width="28.2" height="28.2" style="fill: none; stroke: #000; stroke-linecap: square; stroke-miterlimit: 2; stroke-width: .6px;"/>
  <g>
    <path d="M441.36,22.74h-1.75V11.58c-.42,.4-.97,.8-1.66,1.21-.68,.4-1.3,.7-1.84,.9v-1.69c.98-.46,1.83-1.02,2.57-1.67,.73-.66,1.25-1.29,1.56-1.91h1.13v14.32Z"/>
    <path d="M452.5,22.74h-1.75V11.58c-.42,.4-.97,.8-1.66,1.21-.68,.4-1.3,.7-1.84,.9v-1.69c.98-.46,1.83-1.02,2.57-1.67,.73-.66,1.25-1.29,1.56-1.91h1.13v14.32Z"/>
  </g>
  <g>
    <path d="M441.36,155.46h-1.75v-11.16c-.42,.4-.97,.8-1.66,1.21-.68,.4-1.3,.7-1.84,.9v-1.69c.98-.46,1.83-1.02,2.57-1.67,.73-.65,1.25-1.29,1.56-1.91h1.13v14.32Z"/>
    <path d="M455.11,153.78v1.68h-9.42c-.01-.42,.05-.83,.2-1.22,.24-.64,.62-1.27,1.15-1.9,.53-.62,1.29-1.34,2.29-2.16,1.55-1.27,2.6-2.28,3.14-3.02,.54-.74,.82-1.44,.82-2.11s-.25-1.28-.74-1.76-1.14-.71-1.94-.71c-.84,0-1.52,.25-2.02,.76s-.76,1.21-.77,2.1l-1.8-.18c.12-1.34,.59-2.37,1.39-3.07,.8-.7,1.88-1.06,3.24-1.06s2.45,.38,3.25,1.14c.8,.76,1.2,1.7,1.2,2.82,0,.57-.12,1.13-.35,1.68s-.62,1.13-1.16,1.74-1.44,1.45-2.7,2.51c-1.05,.88-1.72,1.48-2.02,1.79-.3,.31-.54,.63-.74,.95h6.99Z"/>
  </g>
  <rect x="103.5" y="101.82" width="28.32" height="28.32" style="fill: #7f7f7f;"/>
  <rect x="103.5" y="101.82" width="28.32" height="28.32" style="fill: none; stroke: #000; stroke-linecap: square; stroke-miterlimit: 2; stroke-width: .6px;"/>
  <rect x="169.02" y="101.82" width="28.32" height="28.32" style="fill: #7f7f7f;"/>
  <rect x="169.02" y="101.82" width="28.32" height="28.32" style="fill: none; stroke: #000; stroke-linecap: square; stroke-miterlimit: 2; stroke-width: .6px;"/>
  <rect x="234.54" y="101.82" width="28.2" height="28.32" style="fill: #7f7f7f;"/>
  <rect x="234.54" y="101.82" width="28.2" height="28.32" style="fill: none; stroke: #000; stroke-linecap: square; stroke-miterlimit: 2; stroke-width: .6px;"/>
  <rect x="300.06" y="101.82" width="28.2" height="28.32" style="fill: #7f7f7f;"/>
  <rect x="300.06" y="101.82" width="28.2" height="28.32" style="fill: none; stroke: #000; stroke-linecap: square; stroke-miterlimit: 2; stroke-width: .6px;"/>
  <rect x="365.46" y="101.82" width="28.32" height="28.32" style="fill: #7f7f7f;"/>
  <rect x="365.46" y="101.82" width="28.32" height="28.32" style="fill: none; stroke: #000; stroke-linecap: square; stroke-miterlimit: 2; stroke-width: .6px;"/>
  <rect x="430.98" y="101.82" width="28.2" height="28.32" style="fill: #7f7f7f;"/>
  <rect x="430.98" y="101.82" width="28.2" height="28.32" style="fill: none; stroke: #000; stroke-linecap: square; stroke-miterlimit: 2; stroke-width: .6px;"/>
  <path d="M13.38,115.98c0-14.64,11.88-26.52,26.4-26.52s26.52,11.88,26.52,26.52-11.88,26.52-26.52,26.52-26.4-11.88-26.4-26.52Z" style="fill: #fff2cc; fill-rule: evenodd;"/>
  <path d="M13.38,115.98c0-14.64,11.88-26.52,26.4-26.52s26.52,11.88,26.52,26.52-11.88,26.52-26.52,26.52-26.4-11.88-26.4-26.52" style="fill: none; stroke: #000; stroke-linecap: square; stroke-miterlimit: 2; stroke-width: .6px;"/>
  <path d="M622.86,114.9c0-14.64,11.88-26.52,26.4-26.52s26.52,11.88,26.52,26.52-11.88,26.52-26.52,26.52-26.4-11.88-26.4-26.52Z" style="fill: #fff2cc; fill-rule: evenodd;"/>
  <path d="M622.86,114.9c0-14.64,11.88-26.52,26.4-26.52s26.52,11.88,26.52,26.52-11.88,26.52-26.52,26.52-26.4-11.88-26.4-26.52" style="fill: none; stroke: #000; stroke-linecap: square; stroke-miterlimit: 2; stroke-width: .6px;"/>
  <rect x="494.46" y="30.06" width="28.2" height="28.2" style="fill: #7f7f7f;"/>
  <rect x="494.46" y="30.06" width="28.2" height="28.2" style="fill: none; stroke: #000; stroke-linecap: square; stroke-miterlimit: 2; stroke-width: .6px;"/>
  <g>
    <path d="M505.93,21.78h-1.75V10.63c-.42,.4-.97,.8-1.66,1.21-.68,.4-1.3,.7-1.84,.9v-1.69c.98-.46,1.83-1.02,2.57-1.67,.73-.66,1.25-1.29,1.56-1.91h1.13v14.32Z"/>
    <path d="M510.48,18.02l1.75-.23c.2,.99,.54,1.71,1.03,2.14,.48,.44,1.07,.66,1.77,.66,.82,0,1.52-.29,2.09-.86,.57-.57,.85-1.28,.85-2.12s-.26-1.47-.79-1.99-1.19-.78-2-.78c-.33,0-.74,.06-1.24,.19l.2-1.54c.12,.01,.21,.02,.28,.02,.75,0,1.42-.19,2.01-.58s.89-.99,.89-1.8c0-.64-.22-1.17-.65-1.6-.43-.42-1-.63-1.68-.63s-1.25,.21-1.7,.64c-.45,.43-.75,1.07-.88,1.93l-1.75-.31c.21-1.17,.7-2.08,1.46-2.73,.76-.65,1.7-.97,2.83-.97,.78,0,1.5,.17,2.15,.5,.66,.33,1.16,.79,1.5,1.37s.52,1.19,.52,1.84-.17,1.18-.5,1.68-.82,.91-1.47,1.21c.84,.19,1.5,.6,1.96,1.21s.7,1.38,.7,2.3c0,1.25-.45,2.3-1.36,3.17-.91,.87-2.06,1.3-3.44,1.3-1.25,0-2.29-.37-3.12-1.12-.83-.75-1.3-1.71-1.42-2.9Z"/>
  </g>
  <g>
    <path d="M506.4,154.38h-1.75v-11.16c-.42,.4-.97,.8-1.66,1.21-.68,.4-1.3,.7-1.84,.9v-1.69c.98-.46,1.83-1.02,2.57-1.67,.73-.65,1.25-1.29,1.56-1.91h1.13v14.32Z"/>
    <path d="M516.56,154.38v-3.41h-6.19v-1.6l6.51-9.24h1.43v9.24h1.93v1.6h-1.93v3.41h-1.75Zm0-5.02v-6.43l-4.46,6.43h4.46Z"/>
  </g>
  <rect x="557.1" y="30.06" width="28.32" height="28.2" style="fill: #7f7f7f;"/>
  <rect x="557.1" y="30.06" width="28.32" height="28.2" style="fill: none; stroke: #000; stroke-linecap: square; stroke-miterlimit: 2; stroke-width: .6px;"/>
  <g>
    <path d="M567.49,21.78h-1.75V10.63c-.42,.4-.97,.8-1.66,1.21-.68,.4-1.3,.7-1.84,.9v-1.69c.98-.46,1.83-1.02,2.57-1.67,.73-.66,1.25-1.29,1.56-1.91h1.13v14.32Z"/>
    <path d="M572.03,18.05l1.84-.16c.14,.9,.45,1.57,.95,2.02,.5,.45,1.09,.68,1.79,.68,.84,0,1.56-.32,2.14-.95,.58-.64,.88-1.48,.88-2.53s-.28-1.79-.84-2.36c-.56-.58-1.3-.87-2.2-.87-.56,0-1.07,.13-1.53,.38-.45,.26-.81,.59-1.07,1l-1.64-.21,1.38-7.32h7.09v1.67h-5.69l-.77,3.83c.86-.6,1.75-.9,2.69-.9,1.25,0,2.3,.43,3.15,1.29,.86,.86,1.28,1.97,1.28,3.33s-.38,2.41-1.13,3.35c-.91,1.15-2.16,1.73-3.74,1.73-1.3,0-2.36-.36-3.18-1.09s-1.29-1.69-1.41-2.89Z"/>
  </g>
  <g>
    <path d="M567.49,154.38h-1.75v-11.16c-.42,.4-.97,.8-1.66,1.21-.68,.4-1.3,.7-1.84,.9v-1.69c.98-.46,1.83-1.02,2.57-1.67,.73-.65,1.25-1.29,1.56-1.91h1.13v14.32Z"/>
    <path d="M581.12,143.62l-1.74,.14c-.16-.69-.38-1.19-.66-1.5-.47-.5-1.06-.75-1.75-.75-.56,0-1.05,.16-1.47,.47-.55,.4-.99,.99-1.3,1.76-.32,.77-.48,1.87-.5,3.3,.42-.64,.94-1.12,1.55-1.43,.61-.31,1.25-.47,1.92-.47,1.17,0,2.16,.43,2.98,1.29s1.23,1.97,1.23,3.33c0,.89-.19,1.73-.58,2.5-.39,.77-.92,1.36-1.59,1.77-.67,.41-1.44,.61-2.29,.61-1.46,0-2.65-.54-3.57-1.61s-1.38-2.84-1.38-5.31c0-2.76,.51-4.76,1.53-6.01,.89-1.09,2.08-1.63,3.59-1.63,1.12,0,2.04,.31,2.76,.94,.72,.63,1.15,1.5,1.29,2.61Zm-7.15,6.15c0,.6,.13,1.18,.38,1.73s.61,.97,1.08,1.26c.46,.29,.94,.43,1.45,.43,.74,0,1.37-.3,1.91-.89,.53-.6,.8-1.41,.8-2.43s-.26-1.76-.79-2.33-1.19-.85-1.98-.85-1.46,.28-2.01,.85c-.55,.57-.83,1.31-.83,2.23Z"/>
  </g>
  <rect x="494.46" y="100.74" width="28.2" height="28.32" style="fill: #7f7f7f;"/>
  <rect x="494.46" y="100.74" width="28.2" height="28.32" style="fill: none; stroke: #000; stroke-linecap: square; stroke-miterlimit: 2; stroke-width: .6px;"/>
  <rect x="557.1" y="100.74" width="28.32" height="28.32" style="fill: #7f7f7f;"/>
</svg>