<?xml version="1.0" encoding="UTF-8"?>
<svg xmlns="http://www.w3.org/2000/svg" viewBox="0 0 548.24 536.74">
  <defs>
    <style>
      .cls-1 {
        fill: red;
      }

      .cls-1, .cls-2 {
        stroke-width: 0px;
      }

      .cls-2 {
        fill: #e8e8e8;
      }

      .cls-3 {
        fill: none;
        stroke: #000;
        stroke-linecap: round;
        stroke-linejoin: round;
      }
    </style>
  </defs>
  <g id="_图层_3" data-name="图层 3">
    <polygon class="cls-2" points="149.53 80.84 1.99 99.21 2.83 400 97.65 426.11 242.66 390.11 246.91 93.76 149.53 80.84"/>
    <polygon class="cls-2" points=".5 14.66 .53 23.49 99.2 35.02 249.21 19.19 249.34 10.5 150.67 .55 .5 14.66"/>
  </g>
  <g id="Make2D::可见线::曲线">
    <line class="cls-3" x1="338.75" y1="498.61" x2="401.09" y2="515.92"/>
    <line class="cls-3" x1="285.51" y1="483.83" x2="333.88" y2="497.26"/>
    <line class="cls-3" x1="525.32" y1="486.3" x2="525.56" y2="479.3"/>
    <line class="cls-3" x1="516.17" y1="377.59" x2="521.48" y2="220.66"/>
    <line class="cls-3" x1="536.17" y1="461.09" x2="539.69" y2="362"/>
    <line class="cls-3" x1="284.87" y1="473.22" x2="284.81" y2="476.94"/>
    <line class="cls-3" x1="542.38" y1="460.89" x2="542.25" y2="464.55"/>
    <line class="cls-3" x1="521.46" y1="232.84" x2="532.25" y2="373.4"/>
    <line class="cls-3" x1="333.52" y1="514.28" x2="333.82" y2="500.1"/>
    <line class="cls-3" x1="388.9" y1="530.01" x2="389.26" y2="515.55"/>
    <line class="cls-3" x1="459.07" y1="507.53" x2="459.28" y2="500.34"/>
    <line class="cls-3" x1="546" y1="472.82" x2="410.61" y2="515.78"/>
    <line class="cls-3" x1="288.13" y1="477.85" x2="294.07" y2="142.25"/>
    <line class="cls-3" x1="280.71" y1="476.89" x2="401.24" y2="510.11"/>
    <line class="cls-3" x1="459.37" y1="497.5" x2="503.64" y2="483.5"/>
    <line class="cls-3" x1="401.24" y1="510.11" x2="546.29" y2="464.59"/>
    <polyline class="cls-3" points="367.86 347.45 322.14 337.41 322.33 327.79"/>
    <polyline class="cls-3" points="284.81 476.69 283.99 476.93 400.89 509.1 543.06 464.56 542.26 464.36"/>
    <line class="cls-3" x1="317.58" y1="412.4" x2="369.23" y2="425.2"/>
    <polyline class="cls-3" points="369.73 403.88 369.83 399.8 318.07 387.46 317.99 391.46"/>
    <line class="cls-3" x1="400.81" y1="508.85" x2="542.25" y2="464.55"/>
    <line class="cls-3" x1="400.91" y1="504.98" x2="542.38" y2="460.89"/>
    <line class="cls-3" x1="400.91" y1="504.98" x2="400.81" y2="508.85"/>
    <line class="cls-3" x1="397.77" y1="504.12" x2="397.67" y2="507.99"/>
    <line class="cls-3" x1="536.99" y1="460.83" x2="397.77" y2="504.12"/>
    <line class="cls-3" x1="287.76" y1="474.01" x2="287.7" y2="477.73"/>
    <line class="cls-3" x1="516.4" y1="370.83" x2="530.49" y2="373.87"/>
    <line class="cls-3" x1="530.49" y1="373.87" x2="520.9" y2="249.33"/>
    <line class="cls-3" x1="344.8" y1="517.48" x2="345.11" y2="503.25"/>
    <line class="cls-3" x1="400.64" y1="533.34" x2="401.02" y2="518.83"/>
    <polyline class="cls-3" points="284.82 476.12 282.08 476.91 401.1 509.69 544.95 464.58 542.27 463.92"/>
    <line class="cls-3" x1="291.16" y1="502.25" x2="291.41" y2="488.28"/>
    <line class="cls-3" x1="459.37" y1="497.5" x2="401.09" y2="515.92"/>
    <line class="cls-3" x1="541.2" y1="471.62" x2="503.64" y2="483.5"/>
    <line class="cls-3" x1="245.19" y1="93.75" x2="98.93" y2="113.37"/>
    <line class="cls-3" x1="369.73" y1="403.88" x2="369.14" y2="429.26"/>
    <line class="cls-3" x1="317.99" y1="391.46" x2="369.73" y2="403.88"/>
    <line class="cls-3" x1="317.5" y1="416.39" x2="317.99" y2="391.46"/>
    <line class="cls-3" x1="369.14" y1="429.26" x2="317.5" y2="416.39"/>
    <line class="cls-3" x1="369.43" y1="416.66" x2="341.83" y2="409.91"/>
    <line class="cls-3" x1="317.5" y1="416.39" x2="341.83" y2="409.91"/>
    <line class="cls-3" x1="322.99" y1="373.45" x2="365.39" y2="383.32"/>
    <line class="cls-3" x1="365.17" y1="393.03" x2="322.8" y2="383.02"/>
    <line class="cls-3" x1="328.62" y1="348.51" x2="360.75" y2="355.68"/>
    <line class="cls-3" x1="360.75" y1="355.68" x2="360.37" y2="372.4"/>
    <line class="cls-3" x1="322.33" y1="327.79" x2="368.08" y2="337.67"/>
    <line class="cls-3" x1="412.11" y1="150.14" x2="347.82" y2="140.81"/>
    <line class="cls-3" x1="347.82" y1="140.81" x2="391.82" y2="133.83"/>
    <line class="cls-3" x1="470.75" y1="462.37" x2="480.47" y2="146.27"/>
    <line class="cls-3" x1="470.16" y1="481.61" x2="470.75" y2="462.37"/>
    <line class="cls-3" x1="294.07" y1="142.25" x2="406.12" y2="158.9"/>
    <line class="cls-3" x1="397.2" y1="507.86" x2="406.12" y2="158.9"/>
    <line class="cls-3" x1="288.13" y1="477.85" x2="397.2" y2="507.86"/>
    <line class="cls-3" x1="521.8" y1="480.5" x2="525.49" y2="481.44"/>
    <line class="cls-3" x1="541.2" y1="471.62" x2="546.1" y2="470.08"/>
    <line class="cls-3" x1="300.79" y1="499.39" x2="333.64" y2="508.65"/>
    <line class="cls-3" x1="354.41" y1="514.51" x2="389.04" y2="524.27"/>
    <line class="cls-3" x1="388.9" y1="530.01" x2="344.8" y2="517.48"/>
    <line class="cls-3" x1="333.52" y1="514.28" x2="291.16" y2="502.25"/>
    <line class="cls-3" x1="288.23" y1="472.26" x2="284.87" y2="473.22"/>
    <line class="cls-3" x1="530.11" y1="373.79" x2="516.17" y2="377.59"/>
    <line class="cls-3" x1="391.82" y1="133.83" x2="455.97" y2="142.83"/>
    <line class="cls-3" x1="521.07" y1="232.77" x2="521.46" y2="232.84"/>
    <line class="cls-3" x1="350.04" y1="501.75" x2="345.11" y2="503.25"/>
    <line class="cls-3" x1="296.35" y1="486.84" x2="291.41" y2="488.28"/>
    <line class="cls-3" x1="284.83" y1="475.72" x2="280.71" y2="476.89"/>
    <line class="cls-3" x1="546.29" y1="464.59" x2="542.28" y2="463.6"/>
    <line class="cls-3" x1="536.95" y1="489.28" x2="537.44" y2="475.53"/>
    <line class="cls-3" x1="525.32" y1="486.3" x2="513.23" y2="483.22"/>
    <line class="cls-3" x1="280.61" y1="482.47" x2="280.71" y2="476.89"/>
    <line class="cls-3" x1="401.09" y1="515.92" x2="401.24" y2="510.11"/>
    <line class="cls-3" x1="546.1" y1="470.08" x2="546.29" y2="464.59"/>
    <line class="cls-3" x1="536.95" y1="489.28" x2="525.32" y2="486.3"/>
    <line class="cls-3" x1="545.5" y1="486.51" x2="536.95" y2="489.28"/>
    <line class="cls-3" x1="545.5" y1="486.51" x2="546" y2="472.82"/>
    <line class="cls-3" x1="536.86" y1="492.02" x2="508.45" y2="484.74"/>
    <line class="cls-3" x1="536.86" y1="492.02" x2="536.95" y2="489.28"/>
    <line class="cls-3" x1="545.4" y1="489.25" x2="536.86" y2="492.02"/>
    <line class="cls-3" x1="545.4" y1="489.25" x2="545.5" y2="486.51"/>
    <line class="cls-3" x1="410.15" y1="533.13" x2="400.57" y2="536.24"/>
    <line class="cls-3" x1="410.15" y1="533.13" x2="410.23" y2="530.24"/>
    <line class="cls-3" x1="280.28" y1="501.95" x2="280.33" y2="499.17"/>
    <line class="cls-3" x1="400.57" y1="536.24" x2="280.28" y2="501.95"/>
    <line class="cls-3" x1="400.57" y1="536.24" x2="400.64" y2="533.34"/>
    <line class="cls-3" x1="530.37" y1="462.89" x2="530.37" y2="462.89"/>
    <line class="cls-3" x1="536.19" y1="460.64" x2="536.99" y2="460.83"/>
    <line class="cls-3" x1="544.87" y1="215.87" x2="547.74" y2="134.85"/>
    <line class="cls-3" x1="539.69" y1="362" x2="531.24" y2="360.21"/>
    <line class="cls-3" x1="532.2" y1="364.01" x2="531.99" y2="369.95"/>
    <line class="cls-3" x1="539.69" y1="362" x2="532.2" y2="364.01"/>
    <line class="cls-3" x1="521.48" y1="220.66" x2="544.87" y2="215.87"/>
    <line class="cls-3" x1="532.2" y1="364.01" x2="531.52" y2="363.86"/>
    <line class="cls-3" x1="436.58" y1="120.05" x2="368.8" y2="130.61"/>
    <line class="cls-3" x1="547.74" y1="134.85" x2="436.58" y2="120.05"/>
    <line class="cls-3" x1="480.47" y1="146.27" x2="547.74" y2="134.85"/>
    <line class="cls-3" x1="287.76" y1="474.01" x2="288.2" y2="473.88"/>
    <line class="cls-3" x1="397.67" y1="507.99" x2="400.81" y2="508.85"/>
    <line class="cls-3" x1="397.77" y1="504.12" x2="400.91" y2="504.98"/>
    <line class="cls-3" x1="287.7" y1="477.73" x2="288.14" y2="477.6"/>
    <line class="cls-3" x1="284.81" y1="476.94" x2="287.7" y2="477.73"/>
    <line class="cls-3" x1="284.87" y1="473.22" x2="287.76" y2="474.01"/>
    <line class="cls-3" x1="542.38" y1="460.89" x2="536.23" y2="459.38"/>
    <line class="cls-3" x1="99.23" y1="25.83" x2=".5" y2="14.66"/>
    <line class="cls-3" x1="99.23" y1="25.83" x2="99.2" y2="35.02"/>
    <line class="cls-3" x1="249.34" y1="10.5" x2="99.23" y2="25.83"/>
    <line class="cls-3" x1="99.2" y1="35.02" x2=".53" y2="23.49"/>
    <line class="cls-3" x1="249.21" y1="19.19" x2="99.2" y2="35.02"/>
    <line class="cls-3" x1="249.34" y1="10.5" x2="249.21" y2="19.19"/>
    <line class="cls-3" x1="150.13" y1=".5" x2="249.34" y2="10.5"/>
    <line class="cls-3" x1=".5" y1="14.66" x2=".53" y2="23.49"/>
    <line class="cls-3" x1=".5" y1="14.66" x2="150.13" y2=".5"/>
    <line class="cls-3" x1="357.02" y1="496.81" x2="357.02" y2="496.81"/>
    <line class="cls-3" x1="291.41" y1="488.28" x2="280.57" y2="485.26"/>
    <line class="cls-3" x1="470.76" y1="510.68" x2="471.2" y2="496.56"/>
    <line class="cls-3" x1="455.98" y1="501.39" x2="459.23" y2="502.25"/>
    <line class="cls-3" x1="459.07" y1="507.53" x2="446.92" y2="504.26"/>
    <line class="cls-3" x1="285.51" y1="483.83" x2="280.61" y2="482.47"/>
    <line class="cls-3" x1="470.67" y1="513.5" x2="442.12" y2="505.79"/>
    <line class="cls-3" x1="520.9" y1="249.33" x2="521.46" y2="232.84"/>
    <line class="cls-3" x1="532.25" y1="373.4" x2="530.49" y2="373.87"/>
    <line class="cls-3" x1="345.11" y1="503.25" x2="333.82" y2="500.1"/>
    <line class="cls-3" x1="338.75" y1="498.61" x2="333.88" y2="497.26"/>
    <line class="cls-3" x1="344.8" y1="517.48" x2="333.52" y2="514.28"/>
    <line class="cls-3" x1="354.41" y1="514.51" x2="344.8" y2="517.48"/>
    <line class="cls-3" x1="354.41" y1="514.51" x2="354.67" y2="503.03"/>
    <line class="cls-3" x1="479.72" y1="510.56" x2="470.67" y2="513.5"/>
    <line class="cls-3" x1="479.72" y1="510.56" x2="479.81" y2="507.75"/>
    <line class="cls-3" x1="470.67" y1="513.5" x2="470.76" y2="510.68"/>
    <line class="cls-3" x1="400.64" y1="533.34" x2="388.9" y2="530.01"/>
    <line class="cls-3" x1="410.61" y1="515.78" x2="401.02" y2="518.83"/>
    <line class="cls-3" x1="410.23" y1="530.24" x2="400.64" y2="533.34"/>
    <line class="cls-3" x1="410.23" y1="530.24" x2="410.61" y2="515.78"/>
    <line class="cls-3" x1="333.82" y1="500.1" x2="333.88" y2="497.26"/>
    <line class="cls-3" x1="345.11" y1="503.25" x2="345.17" y2="500.4"/>
    <line class="cls-3" x1="280.57" y1="485.26" x2="280.61" y2="482.47"/>
    <line class="cls-3" x1="291.41" y1="488.28" x2="291.46" y2="485.48"/>
    <line class="cls-3" x1="291.16" y1="502.25" x2="280.33" y2="499.17"/>
    <line class="cls-3" x1="300.79" y1="499.39" x2="291.16" y2="502.25"/>
    <line class="cls-3" x1="300.79" y1="499.39" x2="301" y2="488.13"/>
    <line class="cls-3" x1="280.33" y1="499.17" x2="280.57" y2="485.26"/>
    <line class="cls-3" x1="470.76" y1="510.68" x2="459.07" y2="507.53"/>
    <line class="cls-3" x1="479.81" y1="507.75" x2="470.76" y2="510.68"/>
    <line class="cls-3" x1="479.81" y1="507.75" x2="480.25" y2="493.68"/>
    <line class="cls-3" x1="389.26" y1="515.55" x2="389.33" y2="512.66"/>
    <line class="cls-3" x1="401.02" y1="518.83" x2="389.26" y2="515.55"/>
    <line class="cls-3" x1="401.02" y1="518.83" x2="401.09" y2="515.92"/>
    <line class="cls-3" x1="546" y1="472.82" x2="546.1" y2="470.08"/>
    <line class="cls-3" x1="3.73" y1="99.22" x2="149.54" y2="81.05"/>
    <line class="cls-3" x1="98.9" y1="113.63" x2="246.91" y2="93.76"/>
    <line class="cls-3" x1="1.99" y1="99.21" x2="98.9" y2="113.63"/>
    <line class="cls-3" x1="97.65" y1="426.11" x2="98.9" y2="113.63"/>
    <line class="cls-3" x1="149.35" y1="106.61" x2="149.54" y2="81.05"/>
    <line class="cls-3" x1="98.93" y1="113.37" x2="3.73" y2="99.22"/>
    <line class="cls-3" x1="149.54" y1="81.05" x2="245.19" y2="93.75"/>
    <line class="cls-3" x1="149.53" y1="80.84" x2="1.99" y2="99.21"/>
    <line class="cls-3" x1="246.91" y1="93.76" x2="149.53" y2="80.84"/>
    <line class="cls-3" x1="242.66" y1="390.11" x2="246.91" y2="93.76"/>
    <line class="cls-3" x1="97.65" y1="426.11" x2="242.66" y2="390.11"/>
    <line class="cls-3" x1="2.83" y1="400" x2="1.99" y2="99.21"/>
    <line class="cls-3" x1="2.83" y1="400" x2="97.65" y2="426.11"/>
    <line class="cls-3" x1="365.39" y1="383.32" x2="365.17" y2="393.03"/>
    <line class="cls-3" x1="360.37" y1="372.4" x2="328.29" y2="365.04"/>
    <line class="cls-3" x1="328.29" y1="365.04" x2="352.7" y2="359.02"/>
    <line class="cls-3" x1="368.08" y1="337.67" x2="367.86" y2="347.45"/>
    <line class="cls-3" x1="360.64" y1="360.81" x2="352.7" y2="359.02"/>
    <line class="cls-3" x1="341.83" y1="409.91" x2="342.1" y2="397.25"/>
    <line class="cls-3" x1="322.8" y1="383.02" x2="322.99" y2="373.45"/>
    <line class="cls-3" x1="322.8" y1="383.02" x2="342.57" y2="378.01"/>
    <line class="cls-3" x1="328.29" y1="365.04" x2="328.62" y2="348.51"/>
    <line class="cls-3" x1="352.7" y1="359.02" x2="352.81" y2="353.9"/>
    <line class="cls-3" x1="322.14" y1="337.41" x2="343.56" y2="332.37"/>
    <line class="cls-3" x1="391.82" y1="133.83" x2="368.8" y2="130.61"/>
    <line class="cls-3" x1="455.97" y1="142.83" x2="412.11" y2="150.14"/>
    <line class="cls-3" x1="391.82" y1="133.83" x2="391.49" y2="147.15"/>
    <line class="cls-3" x1="480.47" y1="146.27" x2="455.97" y2="142.83"/>
    <line class="cls-3" x1="406.12" y1="158.9" x2="480.47" y2="146.27"/>
    <line class="cls-3" x1="397.2" y1="507.86" x2="397.67" y2="507.71"/>
    <line class="cls-3" x1="368.8" y1="130.61" x2="294.07" y2="142.25"/>
  </g>
  <g id="_图层_2" data-name="图层 2">
    <polygon class="cls-1" points="213.04 253.68 213.04 280.22 279.47 299.73 279.91 273.2 213.04 253.68"/>
    <polygon class="cls-1" points="217.87 240.01 217.87 296.24 193.67 257.54 217.87 240.01"/>
    <polygon class="cls-1" points="133.45 49.26 113.27 54.7 112.05 109.2 132.31 104.1 133.45 49.26"/>
    <polygon class="cls-1" points="143.96 53.94 99.92 58.41 124.72 36.37 143.96 53.94"/>
  </g>
</svg>