<?xml version="1.0" encoding="UTF-8"?>
<svg xmlns="http://www.w3.org/2000/svg" viewBox="0 0 462.02 504.23">
  <defs>
    <style>
      .cls-1 {
        fill: #ccc;
      }

      .cls-1, .cls-2 {
        stroke-width: 0px;
      }

      .cls-2 {
        fill: red;
      }

      .cls-3 {
        fill: none;
        stroke: #000;
        stroke-linecap: round;
        stroke-linejoin: round;
      }
    </style>
  </defs>
  <g id="_图层_2" data-name="图层 2">
    <polygon class="cls-1" points="130.76 229.49 109.83 232.32 109.83 243.56 150.93 253.4 171.93 250.69 171.87 239.21 130.76 229.49"/>
    <polygon class="cls-1" points="136.83 254.28 115.63 257.02 115.85 277.23 144.72 284.89 166.1 281.85 165.98 261.79 136.83 254.28"/>
    <polygon class="cls-1" points="132.29 284.75 111.69 287.66 111.82 298.69 111.82 299.31 149.91 310.12 170.78 306.92 170.71 295.04 132.29 284.75"/>
    <polygon class="cls-1" points="127.3 306.7 107.77 309.63 108.12 339.85 154.51 354.55 174.31 351.15 174.15 320.1 127.3 306.7"/>
  </g>
  <g id="Make2D::可见线::曲线">
    <line class="cls-3" x1="152.37" y1="401.07" x2="152.02" y2="353.76"/>
    <line class="cls-3" x1="419.9" y1="290.43" x2="423.54" y2="103.95"/>
    <line class="cls-3" x1="449.72" y1="390.06" x2="452.36" y2="274.28"/>
    <line class="cls-3" x1="345.08" y1="440.04" x2="345.21" y2="429.72"/>
    <line class="cls-3" x1="148.16" y1="401.07" x2=".5" y2="460.18"/>
    <line class="cls-3" x1="250.35" y1="440.86" x2="115.09" y2="499.53"/>
    <line class="cls-3" x1="461.29" y1="404.06" x2="269.4" y2="446.48"/>
    <line class="cls-3" x1="437.53" y1="419.17" x2="437.74" y2="409.27"/>
    <line class="cls-3" x1="149.39" y1="395.72" x2="149.42" y2="400.03"/>
    <line class="cls-3" x1="456.92" y1="390.07" x2="456.82" y2="394.33"/>
    <line class="cls-3" x1="149.91" y1="310.12" x2="170.78" y2="306.92"/>
    <line class="cls-3" x1="132.29" y1="284.75" x2="170.71" y2="295.04"/>
    <line class="cls-3" x1="150.93" y1="253.4" x2="171.93" y2="250.69"/>
    <line class="cls-3" x1="130.41" y1="229.88" x2="171.87" y2="239.21"/>
    <line class="cls-3" x1="244.15" y1="462.83" x2="244.18" y2="445.54"/>
    <line class="cls-3" x1="144.72" y1="284.89" x2="166.1" y2="281.85"/>
    <line class="cls-3" x1="136.83" y1="254.28" x2="165.98" y2="261.37"/>
    <line class="cls-3" x1="154.51" y1="354.55" x2="108.12" y2="339.85"/>
    <line class="cls-3" x1="127.3" y1="306.7" x2="174.15" y2="320.1"/>
    <line class="cls-3" x1="224.55" y1="312.21" x2="224.55" y2="342.61"/>
    <line class="cls-3" x1="176.9" y1="299.35" x2="224.55" y2="312.21"/>
    <line class="cls-3" x1="181" y1="277.87" x2="220.06" y2="287.74"/>
    <line class="cls-3" x1="215.15" y1="254.8" x2="215.17" y2="274.87"/>
    <line class="cls-3" x1="179.33" y1="223.77" x2="221.56" y2="232.73"/>
    <line class="cls-3" x1="338.73" y1="6.41" x2="275.24" y2="8.21"/>
    <line class="cls-3" x1="252.52" y1="436.48" x2="253.73" y2="10.61"/>
    <polyline class="cls-3" points="149.42 399.82 148.49 400 255.84 437.98 457.76 394.36 456.83 394.1"/>
    <line class="cls-3" x1="356.51" y1="443.86" x2="345.08" y2="440.04"/>
    <polyline class="cls-3" points="149.42 399.34 146.32 399.93 255.57 438.63 459.95 394.43 456.84 393.55"/>
    <line class="cls-3" x1="227.99" y1="450.56" x2="227.98" y2="460.18"/>
    <line class="cls-3" x1="424.11" y1="409.05" x2="255.35" y2="446.09"/>
    <line class="cls-3" x1="449.07" y1="425.87" x2="412.62" y2="414.82"/>
    <line class="cls-3" x1="255.95" y1="437.7" x2="456.82" y2="394.33"/>
    <line class="cls-3" x1="255.97" y1="433.04" x2="456.92" y2="390.07"/>
    <line class="cls-3" x1="255.97" y1="433.04" x2="255.95" y2="437.7"/>
    <line class="cls-3" x1="252.98" y1="432" x2="252.97" y2="436.64"/>
    <line class="cls-3" x1="450.66" y1="389.86" x2="252.98" y2="432"/>
    <line class="cls-3" x1="151.95" y1="396.61" x2="151.98" y2="400.94"/>
    <line class="cls-3" x1="149.82" y1="298.13" x2="170.71" y2="295.04"/>
    <line class="cls-3" x1="150.85" y1="241.83" x2="171.87" y2="239.21"/>
    <line class="cls-3" x1="255.38" y1="439.1" x2="461.52" y2="394.48"/>
    <line class="cls-3" x1="144.55" y1="264.23" x2="165.98" y2="261.37"/>
    <line class="cls-3" x1="107.77" y1="309.63" x2="154.29" y2="323.26"/>
    <line class="cls-3" x1="151.73" y1="313.69" x2="151.7" y2="309.84"/>
    <line class="cls-3" x1="151.56" y1="289.91" x2="151.51" y2="283.92"/>
    <line class="cls-3" x1="151.32" y1="257.8" x2="151.29" y2="253.36"/>
    <line class="cls-3" x1="151.15" y1="234.55" x2="149.48" y2="5.63"/>
    <line class="cls-3" x1="339.27" y1="431.03" x2="345.17" y2="432.97"/>
    <line class="cls-3" x1="345.08" y1="440.04" x2="326.53" y2="433.85"/>
    <line class="cls-3" x1="224.55" y1="326.69" x2="211.73" y2="323.1"/>
    <line class="cls-3" x1="442.02" y1="391.71" x2="442.02" y2="391.71"/>
    <line class="cls-3" x1="179.38" y1="235.2" x2="179.33" y2="223.77"/>
    <line class="cls-3" x1="449.73" y1="389.6" x2="450.66" y2="389.86"/>
    <line class="cls-3" x1="152.32" y1="395.16" x2="149.39" y2="395.72"/>
    <line class="cls-3" x1="275.24" y1="8.21" x2="214.59" y2="5.46"/>
    <line class="cls-3" x1="214.59" y1="5.46" x2="277.06" y2="3.81"/>
    <line class="cls-3" x1="253.73" y1="10.61" x2="362.95" y2="7.43"/>
    <line class="cls-3" x1="356.46" y1="447.19" x2="320.65" y2="435.15"/>
    <line class="cls-3" x1="277.06" y1="3.81" x2="338.73" y2="6.41"/>
    <line class="cls-3" x1="220.06" y1="287.74" x2="220.07" y2="299.38"/>
    <line class="cls-3" x1="220.07" y1="299.38" x2="181.05" y2="289.19"/>
    <line class="cls-3" x1="185.52" y1="248.01" x2="215.15" y2="254.8"/>
    <line class="cls-3" x1="215.17" y1="274.87" x2="185.59" y2="267.65"/>
    <line class="cls-3" x1="185.59" y1="267.65" x2="215.16" y2="263.59"/>
    <line class="cls-3" x1="221.57" y1="244.51" x2="179.38" y2="235.2"/>
    <line class="cls-3" x1="149.48" y1="5.63" x2="253.73" y2="10.61"/>
    <line class="cls-3" x1="177.04" y1="328.74" x2="176.9" y2="299.35"/>
    <line class="cls-3" x1="224.55" y1="342.61" x2="177.04" y2="328.74"/>
    <line class="cls-3" x1="211.73" y1="323.1" x2="211.71" y2="308.74"/>
    <line class="cls-3" x1="177.04" y1="328.74" x2="211.73" y2="323.1"/>
    <line class="cls-3" x1="181.05" y1="289.19" x2="181" y2="277.87"/>
    <line class="cls-3" x1="181.05" y1="289.19" x2="209.4" y2="285.04"/>
    <line class="cls-3" x1="185.59" y1="267.65" x2="185.52" y2="248.01"/>
    <line class="cls-3" x1="221.56" y1="232.73" x2="221.57" y2="244.51"/>
    <line class="cls-3" x1="179.38" y1="235.2" x2="213.45" y2="231.01"/>
    <line class="cls-3" x1="277.06" y1="3.81" x2="255.52" y2="2.9"/>
    <line class="cls-3" x1="277.06" y1="3.81" x2="277.04" y2="8.16"/>
    <line class="cls-3" x1="362.95" y1="7.43" x2="338.73" y2="6.41"/>
    <line class="cls-3" x1="252.52" y1="436.48" x2="252.97" y2="436.39"/>
    <line class="cls-3" x1="152.37" y1="401.07" x2="252.52" y2="436.48"/>
    <line class="cls-3" x1="255.52" y1="2.9" x2="149.48" y2="5.63"/>
    <line class="cls-3" x1="456.29" y1="101.48" x2="458.49" y2="4.65"/>
    <line class="cls-3" x1="452.36" y1="274.28" x2="420.34" y2="267.64"/>
    <line class="cls-3" x1="441.75" y1="286.86" x2="419.9" y2="290.43"/>
    <line class="cls-3" x1="441.99" y1="275.92" x2="441.75" y2="286.86"/>
    <line class="cls-3" x1="452.36" y1="274.28" x2="441.99" y2="275.92"/>
    <line class="cls-3" x1="423.54" y1="103.95" x2="456.29" y2="101.48"/>
    <line class="cls-3" x1="441.75" y1="286.86" x2="420.06" y2="282.16"/>
    <line class="cls-3" x1="441.99" y1="275.92" x2="420.27" y2="271.36"/>
    <line class="cls-3" x1="348.89" y1=".5" x2="255.52" y2="2.9"/>
    <line class="cls-3" x1="458.49" y1="4.65" x2="348.89" y2=".5"/>
    <line class="cls-3" x1="362.95" y1="7.43" x2="458.49" y2="4.65"/>
    <line class="cls-3" x1="356.51" y1="443.86" x2="356.73" y2="427.17"/>
    <line class="cls-3" x1="369.28" y1="444.24" x2="356.46" y2="447.19"/>
    <line class="cls-3" x1="369.28" y1="444.24" x2="369.33" y2="440.92"/>
    <line class="cls-3" x1="356.46" y1="447.19" x2="356.51" y2="443.86"/>
    <line class="cls-3" x1="369.33" y1="440.92" x2="356.51" y2="443.86"/>
    <line class="cls-3" x1="369.33" y1="440.92" x2="369.57" y2="424.33"/>
    <line class="cls-3" x1="96.75" y1="503.73" x2="250.36" y2="437.33"/>
    <line class="cls-3" x1="424.11" y1="409.05" x2="461.36" y2="400.87"/>
    <line class="cls-3" x1="250.36" y1="437.33" x2="255.38" y2="439.1"/>
    <line class="cls-3" x1="246.03" y1="442.74" x2="255.35" y2="446.09"/>
    <line class="cls-3" x1="144.8" y1="402.42" x2="144.78" y2="399.87"/>
    <line class="cls-3" x1="230.5" y1="449.47" x2="244.17" y2="454.52"/>
    <line class="cls-3" x1="449.14" y1="422.67" x2="437.53" y2="419.17"/>
    <line class="cls-3" x1="437.53" y1="419.17" x2="418.64" y2="413.49"/>
    <line class="cls-3" x1=".5" y1="460.18" x2="96.75" y2="503.73"/>
    <line class="cls-3" x1="148.16" y1="401.07" x2="250.36" y2="437.33"/>
    <line class="cls-3" x1="115.09" y1="499.53" x2="96.75" y2="503.73"/>
    <line class="cls-3" x1="250.36" y1="437.33" x2="250.35" y2="440.86"/>
    <line class="cls-3" x1="227.98" y1="460.18" x2="182.35" y2="470.36"/>
    <line class="cls-3" x1="449.14" y1="422.67" x2="449.51" y2="406.66"/>
    <line class="cls-3" x1="430.35" y1="410.9" x2="437.66" y2="413.07"/>
    <line class="cls-3" x1="244.18" y1="445.54" x2="244.19" y2="443.54"/>
    <line class="cls-3" x1="255.34" y1="449.58" x2="244.18" y2="445.54"/>
    <line class="cls-3" x1="255.34" y1="449.58" x2="255.35" y2="446.09"/>
    <line class="cls-3" x1="461.29" y1="404.06" x2="461.36" y2="400.87"/>
    <line class="cls-3" x1="460.91" y1="419.98" x2="449.14" y2="422.67"/>
    <line class="cls-3" x1="460.91" y1="419.98" x2="461.29" y2="404.06"/>
    <line class="cls-3" x1="449.07" y1="425.87" x2="449.14" y2="422.67"/>
    <line class="cls-3" x1="460.83" y1="423.16" x2="449.07" y2="425.87"/>
    <line class="cls-3" x1="460.83" y1="423.16" x2="460.91" y2="419.98"/>
    <line class="cls-3" x1="149.41" y1="398.99" x2="144.78" y2="399.87"/>
    <line class="cls-3" x1="252.97" y1="436.64" x2="255.95" y2="437.7"/>
    <line class="cls-3" x1="252.98" y1="432" x2="255.97" y2="433.04"/>
    <line class="cls-3" x1="151.98" y1="400.94" x2="152.37" y2="400.86"/>
    <line class="cls-3" x1="151.95" y1="396.61" x2="152.33" y2="396.54"/>
    <line class="cls-3" x1="149.42" y1="400.03" x2="151.98" y2="400.94"/>
    <line class="cls-3" x1="149.39" y1="395.72" x2="151.95" y2="396.61"/>
    <line class="cls-3" x1="456.92" y1="390.07" x2="449.77" y2="388.07"/>
    <line class="cls-3" x1="149.82" y1="298.13" x2="149.91" y2="310.12"/>
    <line class="cls-3" x1="111.69" y1="287.66" x2="149.82" y2="298.13"/>
    <line class="cls-3" x1="149.91" y1="310.12" x2="111.82" y2="299.31"/>
    <line class="cls-3" x1="170.71" y1="295.04" x2="170.78" y2="306.92"/>
    <line class="cls-3" x1="111.69" y1="287.66" x2="132.29" y2="284.75"/>
    <line class="cls-3" x1="111.82" y1="299.31" x2="111.69" y2="287.66"/>
    <line class="cls-3" x1="150.85" y1="241.83" x2="150.93" y2="253.4"/>
    <line class="cls-3" x1="109.71" y1="232.34" x2="150.85" y2="241.83"/>
    <line class="cls-3" x1="150.93" y1="253.4" x2="109.83" y2="243.56"/>
    <line class="cls-3" x1="171.87" y1="239.21" x2="171.93" y2="250.69"/>
    <line class="cls-3" x1="109.71" y1="232.34" x2="130.41" y2="229.88"/>
    <line class="cls-3" x1="109.83" y1="243.56" x2="109.71" y2="232.34"/>
    <line class="cls-3" x1="255.29" y1="467" x2="255.34" y2="449.58"/>
    <line class="cls-3" x1="244.15" y1="462.83" x2="227.98" y2="456.77"/>
    <line class="cls-3" x1="144.78" y1="399.87" x2="148.16" y2="401.07"/>
    <line class="cls-3" x1="255.35" y1="446.09" x2="255.38" y2="439.1"/>
    <line class="cls-3" x1="461.36" y1="400.87" x2="461.52" y2="394.48"/>
    <line class="cls-3" x1="461.52" y1="394.48" x2="456.85" y2="393.17"/>
    <line class="cls-3" x1="255.29" y1="467" x2="244.15" y2="462.83"/>
    <line class="cls-3" x1="269.4" y1="446.48" x2="255.34" y2="449.58"/>
    <line class="cls-3" x1="269.32" y1="463.79" x2="255.29" y2="467"/>
    <line class="cls-3" x1="269.32" y1="463.79" x2="269.4" y2="446.48"/>
    <line class="cls-3" x1="144.55" y1="264.23" x2="144.72" y2="284.89"/>
    <line class="cls-3" x1="115.63" y1="257.02" x2="144.55" y2="264.23"/>
    <line class="cls-3" x1="144.72" y1="284.89" x2="115.85" y2="277.23"/>
    <line class="cls-3" x1="165.98" y1="261.37" x2="166.1" y2="281.85"/>
    <line class="cls-3" x1="115.63" y1="257.02" x2="136.83" y2="254.28"/>
    <line class="cls-3" x1="115.85" y1="277.23" x2="115.63" y2="257.02"/>
    <line class="cls-3" x1="154.29" y1="323.26" x2="154.51" y2="354.55"/>
    <line class="cls-3" x1="174.15" y1="320.1" x2="174.31" y2="351.15"/>
    <line class="cls-3" x1="154.51" y1="354.55" x2="174.31" y2="351.15"/>
    <line class="cls-3" x1="154.29" y1="323.26" x2="174.15" y2="320.1"/>
    <line class="cls-3" x1="107.77" y1="309.63" x2="127.3" y2="306.7"/>
    <line class="cls-3" x1="108.12" y1="339.85" x2="107.77" y2="309.63"/>
    <line class="cls-3" x1="269.31" y1="467.25" x2="255.28" y2="470.48"/>
    <line class="cls-3" x1="269.31" y1="467.25" x2="269.32" y2="463.79"/>
    <line class="cls-3" x1="255.28" y1="470.48" x2="227.98" y2="460.18"/>
    <line class="cls-3" x1="255.28" y1="470.48" x2="255.29" y2="467"/>
  </g>
  <g id="_图层_3" data-name="图层 3">
    <polygon class="cls-2" points="104.25 182.33 104.25 207.17 167.55 190.95 167.55 167.85 104.25 182.33"/>
    <polygon class="cls-2" points="109.33 169.23 110.3 214.87 88.36 203.34 109.33 169.23"/>
  </g>
</svg>