<?xml version="1.0" encoding="UTF-8"?>
<svg xmlns="http://www.w3.org/2000/svg" viewBox="0 0 308.19 689.91">
  <defs>
    <style>
      .cls-1 {
        stroke: #3797d4;
      }

      .cls-1, .cls-2, .cls-3, .cls-4 {
        fill: none;
        stroke-linecap: round;
        stroke-linejoin: round;
      }

      .cls-1, .cls-3, .cls-4 {
        stroke-width: 3px;
      }

      .cls-5 {
        fill: #e7211a;
      }

      .cls-5, .cls-6, .cls-7 {
        stroke-width: 0px;
      }

      .cls-6 {
        fill: #6bb938;
      }

      .cls-2 {
        stroke: #040000;
        stroke-width: 1.5px;
      }

      .cls-3 {
        stroke: #e7211a;
      }

      .cls-7 {
        fill: #3797d4;
      }

      .cls-4 {
        stroke: #6bb938;
      }
    </style>
  </defs>
  <g id="_图层_1" data-name="图层 1">
    <path class="cls-2" d="M176.34,252.28c-6.21.82-12.66,1.43-19.23,1.83-5.69.35-11.47.54-17.26.57-6.52.03-13.04-.14-19.47-.51-4.7-.27-9.35-.65-13.9-1.13-7.4-.78-14.56-1.84-21.29-3.14-4.82-.93-9.41-1.99-13.75-3.16-2.24-.61-4.41-1.24-6.51-1.9-2.58-.82-5.04-1.68-7.37-2.58-1.56-.6-3.06-1.22-4.5-1.85-1.84-.81-3.57-1.64-5.21-2.5-1.65-.87-3.2-1.76-4.63-2.67-1.45-.92-2.78-1.86-4-2.82-.41-.33-.81-.65-1.2-.98-.76-.65-1.47-1.3-2.12-1.97-.46-.46-.89-.93-1.29-1.41-.47-.55-.91-1.1-1.31-1.66-.13-.18-.25-.35-.37-.53-.12-.18-.24-.36-.35-.54-.43-.69-.82-1.39-1.14-2.1-.34-.75-.63-1.51-.84-2.27-.09-.32-.17-.64-.24-.96-.06-.3-.12-.6-.16-.9-.04-.29-.07-.58-.1-.86-.02-.29-.04-.58-.04-.86"/>
    <path class="cls-2" d="M137.12,186.1c-6.3-.03-12.9.45-18.76,1.41"/>
    <path class="cls-2" d="M64.69,299.45c.3-.12.7.05,1.01.41.3.36.51.91.51,1.38"/>
    <path class="cls-2" d="M214.21,525.15c14.27-7.75,22.45-18.18,22.52-28.03"/>
    <path class="cls-2" d="M58.94,297.98c.16.52.34,1.03.56,1.53s.45.98.71,1.44c.26.46.54.89.84,1.3.3.41.62.79.95,1.13.33.35.67.65,1.02.93.35.27.71.51,1.07.71.36.2.72.35,1.08.46.36.11.72.18,1.07.2.35.03.69,0,1.02-.06s.65-.17.95-.32c.3-.15.58-.33.85-.56.26-.23.51-.5.73-.8s.41-.63.58-1c.17-.37.31-.77.42-1.19.16-.59.26-1.23.3-1.9"/>
    <path class="cls-2" d="M59.21,666.22c3.15,1.46,6.31,3.67,9.25,6.44,2.94,2.77,5.65,6.11,7.92,9.77,2.27,3.65,4.1,7.62,5.34,11.58,1.24,3.96,1.9,7.93,1.92,11.58.02,3.65-.59,6.99-1.78,9.77-1.19,2.78-2.96,4.98-5.17,6.47-.16.11-.32.21-.48.31"/>
    <path class="cls-2" d="M34.67,496.08c-1.25,17.72,27.68,36.3,66.8,42.78s88.44.87,112.74-13.71"/>
    <path class="cls-2" d="M137.17,162.7c1.67,0,3.4.24,4.59.62.6.19,1.07.42,1.4.68"/>
    <path class="cls-2" d="M64.53,303.13c-.46-.18-.91-.44-1.34-.76-.37-.27-.72-.6-1.06-.96-.14-.15-.28-.31-.41-.48-.26-.32-.5-.66-.73-1.03-.24-.39-.46-.81-.66-1.24-.21-.46-.39-.93-.54-1.42-.08-.25-.15-.5-.2-.76-.06-.26-.11-.52-.15-.78-.04-.26-.07-.52-.1-.78-.04-.47-.04-.93-.02-1.38.02-.3.05-.6.1-.89.06-.35.15-.69.25-1.01.04-.11.07-.21.11-.31.04-.11.09-.21.14-.32.08-.17.16-.32.25-.48.06-.1.13-.2.19-.3.11-.16.23-.31.36-.45.15-.16.31-.31.48-.44.16-.13.34-.24.52-.34.17-.09.34-.17.52-.23"/>
    <path class="cls-2" d="M44.22,644.55c.61-.03,1.23-.04,1.84-.02.31,0,.61.02.92.04.15,0,.31.02.46.03.08,0,.15.01.23.02s.15.01.23.02c.31.03.63.06.95.1.16.02.32.04.48.06.16.02.32.05.48.07.32.05.65.1.97.17.16.03.32.06.49.09.08.02.16.03.24.05.08.02.16.03.24.05.16.04.32.07.48.11.08.02.16.04.25.06.04.01.08.02.12.03.04.01.08.02.12.03.16.04.32.08.48.12.08.02.17.04.25.07.04.01.08.02.13.03.02,0,.04.01.06.02.02,0,.04.01.06.02.16.04.31.09.48.14.08.02.17.05.25.08.04.01.09.03.13.04.02,0,.04.01.07.02.01,0,.02,0,.03.01s.02,0,.03,0c.14.04.28.09.45.14.08.03.17.06.26.09.05.02.09.03.14.05.02,0,.05.02.07.02.01,0,.02,0,.04.01,0,0,.01,0,.02,0,0,0,.01,0,.02,0,.13.04.24.08.32.11.04.01.08.03.11.04.01,0,.03,0,.04.01,0,0,.01,0,.02,0,0,0,0,0,0,0s0,0,.01,0c.08.03.17.06.26.09.04.02.08.03.12.04.02,0,.04.01.06.02,0,0,.02,0,.03.01.01,0,.02,0,.03.01.18.07.36.13.52.2.08.03.16.06.24.09.04.02.08.03.12.05.02,0,.04.02.06.02s.04.02.06.02c.17.07.34.14.51.21.08.03.17.07.25.1.04.02.08.03.12.05.04.02.08.04.13.05.34.14.68.3,1.01.45"/>
    <path class="cls-2" d="M44.13,665.51c.18-.12.37-.23.56-.34"/>
    <path class="cls-2" d="M66.23,651.54s.03.02.04.03c.08.05.17.11.25.16.04.03.08.05.12.08.04.03.08.05.12.08.17.11.34.23.51.34.08.06.17.11.25.17.08.06.16.11.25.17.33.23.66.47.99.71s.66.49.99.73c.33.25.65.5.98.76.16.13.33.26.49.39.16.13.33.26.49.4.32.27.65.53.97.81.16.14.32.28.48.42.16.14.32.28.48.42.64.57,1.27,1.15,1.91,1.76"/>
    <path class="cls-2" d="M30.03,216.12c-.48,8.22,10.4,18.28,30.92,25.35s50.66,11.17,76.17,11.03"/>
    <path class="cls-2" d="M61.65,287.1c.14-.05.29-.09.44-.13.34-.08.7-.12,1.06-.12s.74.05,1.11.14c.3.07.61.17.92.29"/>
    <line class="cls-2" x1="205.82" y1="684.88" x2="205.98" y2="684.85"/>
    <path class="cls-2" d="M183.01,577.61c2.57,2.3,5.08,4.74,7.51,7.35,1.26,1.35,2.5,2.74,3.71,4.17,1.22,1.43,2.41,2.9,3.57,4.39,2.32,2.99,4.5,6.07,6.55,9.26s3.97,6.47,5.75,9.86c.89,1.69,1.75,3.41,2.56,5.14s1.58,3.46,2.31,5.2c1.45,3.48,2.74,6.98,3.85,10.53.56,1.77,1.07,3.55,1.54,5.32.47,1.77.88,3.53,1.25,5.26"/>
    <line class="cls-2" x1="66.96" y1="288.81" x2="67.1" y2="288.95"/>
    <path class="cls-2" d="M64.46,303.1c.21.19.43.36.65.52.4.28.8.51,1.2.68.4.17.81.29,1.2.35s.78.06,1.15,0c.16-.03.32-.06.47-.11"/>
    <path class="cls-2" d="M69.39,304.4c-.13.07-.27.13-.41.18"/>
    <path class="cls-2" d="M243.04,253.59c-.03.39-.05.8-.08,1.22-.03.41-.05.83-.08,1.25-.02.43-.05.86-.07,1.31-.02.44-.05.9-.07,1.36-.02.46-.04.93-.07,1.41-.02.48-.04.98-.06,1.48-.02.51-.04,1.02-.05,1.54-.02.52-.03,1.05-.05,1.59"/>
    <path class="cls-2" d="M66.12,292.72c.02.48-.21.92-.52,1.01"/>
    <path class="cls-2" d="M77.51,304.79c.18.07.36.13.55.19"/>
    <path class="cls-2" d="M44.85,644.88c.59-.03,1.18-.04,1.8-.02.04,0,.08,0,.12,0s.08,0,.12,0c.08,0,.16,0,.24,0,.16,0,.32.01.47.02.31.02.6.04.89.06.02,0,.04,0,.06,0,.02,0,.04,0,.06,0,.04,0,.08,0,.13.01.08,0,.17.02.25.03.17.02.33.04.49.06.33.04.65.09.97.14.63.1,1.25.22,1.85.35.3.07.61.14.93.22.16.04.33.08.5.13.09.02.17.05.26.07.08.02.16.04.24.07.63.18,1.28.38,1.97.61.04.01.09.03.13.04s.09.03.14.05c.09.03.18.06.27.09.17.06.35.12.51.19.33.12.63.24.93.36.04.02.08.03.11.05s.08.03.12.05c.08.03.16.07.24.1.16.07.33.14.49.21.33.14.67.29,1.02.45"/>
    <path class="cls-2" d="M164.69,679.35c-.51-2.65-1.13-5.36-1.87-8.1"/>
    <path class="cls-2" d="M205.98,684.85c.34-.09.8.24.97.7"/>
    <path class="cls-2" d="M197.78,689.69c-.65.56-.8,1.96-.34,3.14"/>
    <path class="cls-2" d="M67.75,289.71s0,.03,0,.04v-.04Z"/>
    <line class="cls-2" x1="221.75" y1="649.82" x2="221.5" y2="649.98"/>
    <path class="cls-2" d="M31.7,316.68c-.21,10.08,11.75,21.07,31.71,28.31"/>
    <path class="cls-2" d="M229.59,289.18s.09.07.14.1"/>
    <path class="cls-2" d="M137.25,198.04c17.33.33,36.57-4,41.72-9.29"/>
    <path class="cls-2" d="M30.09,219.37c0-.54.02-1.09.08-1.63"/>
    <path class="cls-2" d="M229.54,289.97c.05-.21.11-.41.16-.62"/>
    <line class="cls-2" x1="244.07" y1="220.28" x2="243.32" y2="248.53"/>
    <path class="cls-2" d="M209.66,682.32c-.05.05-.11.09-.17.13"/>
    <path class="cls-2" d="M96.85,189.53c-.98-1.17-1.48-2.39-1.49-3.59"/>
    <line class="cls-2" x1="241.49" y1="317.64" x2="241.43" y2="320.04"/>
    <path class="cls-2" d="M71.07,299.86c.02-.26.02-.52.02-.78"/>
    <path class="cls-2" d="M66.96,288.81c2.37,2.41,4.17,7.01,4.11,10.5"/>
    <path class="cls-2" d="M65.18,287.28c-.1.18-.2.37-.28.57"/>
    <path class="cls-2" d="M61.79,287.05s0,0,0,0h0Z"/>
    <path class="cls-2" d="M206.95,685.55c.14.32.16.73.06,1.04s-.32.54-.58.59"/>
    <path class="cls-2" d="M194.01,165.29c1.12.35,2.21.71,3.27,1.08,1.12.39,2.21.8,3.26,1.22.89.35,1.75.71,2.58,1.07.22.09.43.19.65.29,1.1.49,2.15,1,3.15,1.52,1.06.55,2.07,1.11,3.02,1.69,1.01.61,1.95,1.24,2.84,1.88.47.34.91.68,1.34,1.03.43.35.84.7,1.24,1.07.02.02.04.04.06.05.81.74,1.54,1.51,2.18,2.3.05.07.11.13.16.2.27.34.53.68.76,1.03.24.35.46.7.67,1.06.07.12.13.24.2.36.26.48.49.98.69,1.48.2.49.36.99.49,1.49.15.56.25,1.13.31,1.7.05.48.07.96.06,1.45"/>
    <path class="cls-2" d="M69.25,304.48c-.15-.03-.29-.06-.43-.12-.37-.15-.77-.4-1.16-.79"/>
    <path class="cls-2" d="M62.02,293.91c-.3.12-.7-.05-1-.41-.3-.36-.51-.91-.51-1.37"/>
    <path class="cls-2" d="M242.39,278.31c0,.62,0,1.24,0,1.86,0,.62,0,1.24,0,1.85,0,.62,0,1.24-.02,1.85,0,.62-.02,1.23-.03,1.83,0,.43-.02.85-.03,1.27"/>
    <path class="cls-2" d="M60.57,297.5c-.02-.48.21-.91.51-1"/>
    <path class="cls-2" d="M137.1,255.86c25.43.32,55.46-3.54,75.94-10.46,20.48-6.92,31.41-16.88,31.02-25.12"/>
    <path class="cls-2" d="M69.38,304.41s0,0,0,0h0Z"/>
    <path class="cls-2" d="M233.27,190.03c10.92,9.67,6.69,21.59-11.83,30.49-18.52,8.9-51.31,14.77-84.25,14.46"/>
    <path class="cls-2" d="M182.65,576.98c-3.65.89-7.43,1.69-11.3,2.35-.97.17-1.94.32-2.92.52-.98.2-1.96.44-2.92.77-.48.16-.96.35-1.43.57-.47.21-.94.45-1.38.72-.45.26-.87.55-1.28.87-.41.32-.79.67-1.14,1.04-.35.37-.66.76-.93,1.17-.27.41-.51.85-.7,1.3s-.33.9-.44,1.36c-.1.46-.17.93-.21,1.39-.07.92-.04,1.83,0,2.75.04.91.07,1.83.11,2.75.16,3.68.4,7.37.65,11.06"/>
    <path class="cls-2" d="M183.42,171.07s.03,0,.05,0h-.05Z"/>
    <path class="cls-2" d="M39.14,650.46c.23.13.46.28.69.45.23.17.45.36.67.56.44.41.86.9,1.25,1.43.19.27.38.55.55.84s.34.6.49.91c.3.62.56,1.26.76,1.92"/>
    <path class="cls-2" d="M59.31,721.4c11.97,6.85,23.34-1.63,23.23-15.74-.11-14.11-11.71-33.86-23.87-38.46"/>
    <path class="cls-2" d="M71.02,182.94c-2.15-.02-4.43.29-5.98.79-.6.19-1.09.42-1.51.67"/>
    <path class="cls-2" d="M83.64,671.06c.33.13.67.29.99.48.33.19.65.41.97.65s.61.51.9.8.56.61.82.94.49.68.7,1.04c.21.36.4.74.57,1.13s.3.77.42,1.17.2.8.26,1.19c.06.4.09.78.09,1.17,0,.38-.02.76-.07,1.12-.05.36-.13.7-.23,1.03-.1.33-.23.64-.39.93-.15.29-.33.55-.52.79-.2.24-.42.45-.65.63-.12.1-.25.18-.39.26"/>
    <path class="cls-2" d="M83.08,670.87c-.18,1.17-.12,2.39.26,3.67.81,2.73,3.1,5.73,5.3,6.62"/>
    <path class="cls-2" d="M66.89,302.55c-.56-.94-.83-2.04-.84-2.95,0-.41.04-.77.15-1.16"/>
    <line class="cls-2" x1="221.48" y1="651.85" x2="221.75" y2="649.82"/>
    <path class="cls-2" d="M95.43,188.41c-5.15-4.36-2.81-9.56,5.44-13.33,8.24-3.77,22.39-6.1,36.33-5.99"/>
    <path class="cls-2" d="M176.67,589.78c15.02,12.68,27.06,33.57,31.02,53.23,3.96,19.66-.18,38.1-10.59,47.17"/>
    <line class="cls-2" x1="68.54" y1="300.53" x2="68.44" y2="302.07"/>
    <path class="cls-2" d="M64.17,300.45c-.02-.48.21-.91.52-1"/>
    <path class="cls-2" d="M29.87,206.09c-.48,8.14,10.42,18.09,30.98,25.1,20.56,7,50.77,11.06,76.33,10.92"/>
    <path class="cls-2" d="M137.12,252.5c25.45.32,55.5-3.53,76-10.43,20.49-6.89,31.43-16.83,31.04-25.04"/>
    <line class="cls-2" x1="31.54" y1="307.05" x2="30.09" y2="219.37"/>
    <path class="cls-2" d="M216.45,359.13c15.6-6.94,24.59-16.47,24.61-25.43"/>
    <path class="cls-2" d="M180.49,586.39c-.3-.03-.62-.1-.94-.22"/>
    <path class="cls-2" d="M70.57,185.77c2.18.01,4.4-.28,5.98-.79,1.58-.51,2.5-1.23,2.48-1.93"/>
    <path class="cls-2" d="M183.47,171.07c3.94.13,8.3-1.24,7.93-2.49"/>
    <path class="cls-2" d="M70.57,185.77c-4,.11-8.39-1.33-8.02-2.63"/>
    <path class="cls-2" d="M203.9,186.23c-2.18,0-4.42-.32-5.99-.84-1.58-.52-2.51-1.25-2.47-1.96"/>
    <path class="cls-2" d="M229.51,285.37c-.01.51-.02,1.01-.01,1.5,0,.49.02.98.04,1.45.02.47.05.93.09,1.39.04.45.08.89.14,1.31.05.43.11.85.18,1.25.07.41.14.8.22,1.18.08.38.17.75.26,1.11.09.36.19.7.29,1.02.1.33.21.64.31.93.11.3.22.57.33.83.11.26.23.5.34.72.08.15.15.29.23.42.03.06.07.12.1.18.11.18.21.33.31.47.1.13.18.24.26.33.04.04.07.08.1.11.03.03.05.05.07.07.02.02.04.03.04.04,0,0,0,0,0,0"/>
    <line class="cls-2" x1="72.03" y1="314.88" x2="71.11" y2="315.21"/>
    <path class="cls-2" d="M58.94,297.98c-.5-1.43-.78-2.97-.79-4.38"/>
    <path class="cls-2" d="M244.07,220.28c.01-.54,0-1.09-.06-1.63"/>
    <path class="cls-2" d="M57.46,293.6c.11-.73.27-1.41.5-2.05.23-.64.53-1.23.88-1.75"/>
    <path class="cls-2" d="M58.3,293.55c-.02.72.03,1.46.14,2.2.11.74.28,1.5.5,2.23"/>
    <line class="cls-2" x1="31.74" y1="319.08" x2="31.7" y2="316.68"/>
    <path class="cls-2" d="M31.74,319.08c-.97,14.49,24.67,29.74,61.47,36.21,36.8,6.46,84.77,4.13,113.42-6.18"/>
    <line class="cls-2" x1="215.02" y1="689.83" x2="215.32" y2="689.65"/>
    <path class="cls-2" d="M216.73,563.25c.57.51,1.13,1.03,1.69,1.55.97.91,1.92,1.84,2.85,2.79,1.89,1.91,3.71,3.91,5.46,5.98,1.77,2.08,3.46,4.24,5.08,6.47.81,1.12,1.6,2.25,2.37,3.39.77,1.15,1.52,2.31,2.25,3.49,1.46,2.35,2.83,4.75,4.12,7.2.64,1.22,1.26,2.45,1.85,3.69,1.18,2.47,2.27,4.97,3.26,7.5.49,1.26.96,2.52,1.4,3.79.37,1.05.72,2.1,1.05,3.16"/>
    <path class="cls-2" d="M209.5,682.45c-.06.04-.12.07-.19.09"/>
    <path class="cls-2" d="M200.73,687.95c.06-.04.12-.08.17-.13"/>
    <line class="cls-2" x1="60.05" y1="284.38" x2="67.84" y2="281.64"/>
    <path class="cls-2" d="M71.04,300.26c-.08,5.01-3.93,7.76-7.66,6.07-3.72-1.69-7.31-7.81-7.13-12.73"/>
    <line class="cls-2" x1="71.07" y1="299.86" x2="71.04" y2="300.26"/>
    <path class="cls-2" d="M175.93,587.01c0,1.15.76,2.7,1.7,3.49"/>
    <path class="cls-2" d="M63.95,286.93c-.19.22-.37.45-.53.71-.18.28-.34.58-.48.91"/>
    <path class="cls-2" d="M55.39,293.15c-.01-.95.07-1.88.23-2.75.1-.51.22-1.01.38-1.47.08-.25.18-.5.28-.74.16-.39.35-.75.56-1.09.22-.36.47-.7.73-1.01.19-.22.39-.42.6-.61.22-.19.45-.37.69-.53.13-.08.26-.16.39-.23.13-.07.26-.13.39-.19.13-.06.27-.11.4-.16"/>
    <line class="cls-2" x1="206.43" y1="687.17" x2="206.27" y2="687.2"/>
    <path class="cls-2" d="M170,580.33c2.11-.36,4.19-.75,6.24-1.17s4.06-.88,6.03-1.36c1.97-.49,3.91-1,5.81-1.55s3.75-1.13,5.55-1.73c3.6-1.21,6.99-2.51,10.18-3.92,3.19-1.41,6.17-2.91,8.94-4.52,1.39-.8,2.72-1.63,3.98-2.47,1.26-.84,2.45-1.7,3.58-2.57,1.7-1.31,3.25-2.66,4.65-4.04"/>
    <path class="cls-2" d="M158.98,604.95c-.16-2.53-.31-5.07-.41-7.62-.05-1.27-.09-2.55-.11-3.83,0-.64-.01-1.28-.01-1.92s0-1.28.03-1.92c.03-.64.08-1.28.21-1.92s.34-1.27.65-1.87.71-1.16,1.19-1.66c.24-.25.5-.49.77-.72.27-.22.56-.43.85-.63.59-.39,1.22-.72,1.87-1s1.31-.51,1.97-.71c1.33-.38,2.68-.61,4.01-.83"/>
    <path class="cls-2" d="M31.96,332.73c-1.29,15.53,28.04,31.86,68.07,37.72,40.03,5.86,90.77,1.26,116.42-11.32"/>
    <path class="cls-2" d="M61.08,296.5c.3-.12.7.05,1,.41.3.36.51.91.51,1.37"/>
    <path class="cls-2" d="M38.65,663.72c-.43-.22-.86-.52-1.28-.87-.41-.35-.81-.77-1.18-1.23"/>
    <path class="cls-2" d="M242.52,264.75c-.01.52-.03,1.05-.04,1.59-.01.53-.02,1.06-.03,1.6,0,.54-.02,1.09-.02,1.64,0,.56-.01,1.11-.02,1.67,0,.57,0,1.13-.01,1.7,0,.58,0,1.17,0,1.75,0,.6,0,1.2,0,1.79,0,.61,0,1.21,0,1.81"/>
    <path class="cls-2" d="M23.93,675.46c.05,1.45.16,2.93.33,4.42.17,1.49.39,2.99.68,4.5.56,3.02,1.36,6.11,2.37,9.18,1.01,3.08,2.23,6.15,3.64,9.14.7,1.5,1.45,2.97,2.25,4.44s1.65,2.93,2.54,4.34c1.77,2.84,3.68,5.52,5.74,8.07,1.03,1.27,2.1,2.51,3.19,3.71,1.09,1.19,2.22,2.34,3.35,3.43,2.28,2.18,4.62,4.13,7.05,5.87,1.21.87,2.45,1.68,3.68,2.42,1.24.74,2.48,1.42,3.72,2.03"/>
    <path class="cls-2" d="M71.06,299.03s.02.02.02.03l-.02-.03Z"/>
    <path class="cls-2" d="M59.56,286.49c.18-.09.36-.17.55-.23"/>
    <path class="cls-2" d="M62.54,292.91c.02.48-.21.91-.52,1.01"/>
    <path class="cls-2" d="M64.59,184.89c.36-.3.88-.57,1.57-.79,1.26-.41,3.08-.66,4.82-.64"/>
    <line class="cls-2" x1="219.22" y1="666.32" x2="219.77" y2="665.8"/>
    <path class="cls-2" d="M69.28,304.48s.04-.02.07-.02l-.07.02Z"/>
    <line class="cls-2" x1="61.65" y1="287.1" x2="61.79" y2="287.05"/>
    <path class="cls-2" d="M178.97,188.76c5.21-4.33,2.89-9.56-5.36-13.4-8.25-3.84-22.44-6.28-36.41-6.26"/>
    <path class="cls-2" d="M95.37,185.94c-.1-3.58,4.55-7.15,12.33-9.64s18.7-3.93,29.48-3.87"/>
    <path class="cls-2" d="M179.35,585.05c-.03-1.56-.79-3.46-1.88-4.82-.33-.41-.69-.77-1.08-1.11"/>
    <path class="cls-2" d="M77.37,721.43c.16-.1.32-.2.48-.31,1.1-.74,2.09-1.65,2.96-2.74.44-.54.84-1.13,1.21-1.75.37-.62.7-1.28,1-1.97.3-.69.56-1.41.78-2.17.23-.76.42-1.56.57-2.38.3-1.64.44-3.38.43-5.2,0-.91-.05-1.84-.13-2.79-.08-.95-.21-1.92-.37-2.89-.32-1.94-.79-3.9-1.41-5.89-.31-.99-.66-1.99-1.04-2.98-.38-.99-.79-1.96-1.24-2.93-.89-1.94-1.91-3.84-3.05-5.67-1.13-1.83-2.38-3.58-3.7-5.21-.66-.82-1.34-1.6-2.05-2.36-.7-.76-1.43-1.5-2.17-2.19-1.47-1.39-2.98-2.62-4.53-3.7s-3.14-2-4.73-2.74"/>
    <path class="cls-2" d="M59.72,647.94c.16.08.33.15.5.23.08.04.17.08.25.12.04.02.08.04.13.06s.08.04.12.06c.16.08.33.16.49.24.08.04.17.08.25.13.04.02.09.04.13.07.02.01.04.02.06.03.02.01.04.02.06.03.16.08.31.16.48.25.08.04.17.09.26.14.04.02.09.05.13.07.02.01.05.02.07.04.01,0,.02.01.03.02.01,0,.02.01.03.02.08.04.16.09.24.13.04.02.09.05.13.07.02.01.04.02.07.04.01,0,.02.01.03.02,0,0,.01,0,.02,0,0,0,0,0,.01,0,.05.03.11.06.19.11.04.02.09.05.14.08.03.01.05.03.08.05.01,0,.03.02.04.03s.03.02.04.02c.21.12.4.23.56.33.08.05.16.1.24.14.04.02.07.04.11.07.02.01.03.02.05.03,0,0,.02,0,.03.02,0,0,.02.01.03.02.17.1.35.21.52.32.08.05.17.1.25.15.04.03.08.05.12.08.02.01.04.02.06.04.02.01.04.03.06.04.15.1.32.2.47.3"/>
    <path class="cls-2" d="M213.34,565.3c2.13-1.22,4.12-2.48,5.97-3.79,1.84-1.3,3.54-2.65,5.09-4.03.59-.53,1.16-1.06,1.71-1.6"/>
    <path class="cls-2" d="M61.03,291.12c.3-.12.7.05,1,.41.3.36.51.91.51,1.37"/>
    <path class="cls-2" d="M60.16,648.22c.69.32,1.36.65,1.98.96.04.02.08.04.11.06s.07.04.11.06c.07.04.15.08.23.12.16.08.32.17.48.26.33.18.68.38,1.05.59.09.05.19.11.28.16.09.05.19.11.28.16.18.11.37.22.54.33.36.22.7.43,1.03.64.11.07.21.13.31.2"/>
    <path class="cls-2" d="M30.16,672.14c.39.22.77.5,1.15.83"/>
    <path class="cls-2" d="M205.82,684.88c-.25.04-.47.27-.57.59-.1.31-.08.72.06,1.04"/>
    <path class="cls-2" d="M58.67,667.19c-11.18-6.42-23.62,1.78-22.83,15.13"/>
    <path class="cls-2" d="M236.68,499.35c-.08,9.86-8.26,20.31-22.51,28.07"/>
    <line class="cls-2" x1="236.68" y1="499.35" x2="235.7" y2="536.54"/>
    <path class="cls-2" d="M243.72,221.22c-1.08,6.79-6.84,13.18-17.91,18.63-19.18,9.45-54.3,16.08-88.7,15.65"/>
    <path class="cls-2" d="M38.83,650.3c-.18,1.16-.12,2.36.25,3.63.76,2.59,2.82,5.44,4.9,6.43"/>
    <path class="cls-2" d="M197.1,690.17c-.16.15-.29.33-.39.53-.1.21-.17.45-.21.7-.04.26-.04.54-.02.82.03.29.09.58.18.88"/>
    <path class="cls-2" d="M229.49,286.36c.16.23.33.34.5.36"/>
    <path class="cls-2" d="M35.85,681.71c.06-3.16.61-6.08,1.61-8.57,1.13-2.79,2.83-5.05,4.98-6.61.36-.26.72-.49,1.1-.71"/>
    <path class="cls-2" d="M64.72,303.2s0,0,0,0c.18.19.37.36.56.53"/>
    <path class="cls-2" d="M35.06,520.82s0-.02,0-.03c0-.4,0-.8,0-1.21,0-.3,0-.61-.01-.92,0-.53-.02-1.08-.03-1.66"/>
    <path class="cls-2" d="M214.16,527.42c-24.29,14.6-73.58,20.22-112.69,13.73-39.1-6.49-68.02-25.09-66.77-42.84"/>
    <path class="cls-2" d="M220.82,640.42c2.59,17.25-2.02,33.73-11.15,41.91"/>
    <path class="cls-2" d="M161.13,642.51c.09.17.18.35.27.53.9,1.76,1.75,3.54,2.57,5.34,1.68,3.72,3.18,7.49,4.47,11.28.67,1.95,1.28,3.91,1.83,5.87.8,2.81,1.48,5.62,2.04,8.41.65,3.22,1.14,6.42,1.46,9.56.41,4.01.56,7.93.44,11.73-.06,1.91-.19,3.78-.38,5.62-.39,3.67-1.05,7.17-1.96,10.48-.46,1.64-.97,3.23-1.56,4.77-.82,2.17-1.77,4.24-2.83,6.18-1.15,2.1-2.43,4.05-3.84,5.85-.88,1.12-1.81,2.18-2.78,3.18-.96.98-1.96,1.9-3,2.75-.23.19-.46.37-.7.56"/>
    <path class="cls-2" d="M174.94,586.47c.03.3.09.6.18.91.09.3.22.61.37.9.15.29.33.57.53.82.2.25.42.48.65.69"/>
    <path class="cls-2" d="M221.6,644.08c.44,7.17.87,14.31,1.31,21.43.22,3.56.44,7.11.65,10.65s.42,7.08.61,10.6c.77,14.08,1.29,27.97,1.6,41.65"/>
    <path class="cls-2" d="M136.65,346.58c-25.02.16-54.59-4.28-74.73-11.97-20.14-7.69-30.83-18.61-30.38-27.56"/>
    <path class="cls-2" d="M137.19,234.98c-33.02.08-65.88-6.06-84.39-15.11s-22.67-21.04-11.64-30.63"/>
    <path class="cls-2" d="M68.42,346.75c29,10.11,76.31,12.47,112.52,6.24s61.32-21.04,60.55-35.35"/>
    <path class="cls-2" d="M35.34,647.52s.1-.06.15-.08c0,0,.01,0,.01,0s0,0,.01,0c0,0,.01,0,.02-.01.02,0,.03-.02.05-.03.03-.02.07-.04.1-.06.07-.04.15-.08.24-.13.18-.09.38-.2.63-.31.03-.01.06-.03.09-.04.03-.01.06-.03.09-.04.06-.03.12-.05.17-.08.11-.05.21-.09.3-.13.18-.08.32-.14.44-.19,0,0,0,0,.01,0s.01,0,.02,0c.01,0,.03-.01.04-.02.03-.01.05-.02.08-.03.05-.02.1-.04.15-.06.1-.04.2-.08.29-.11.19-.07.37-.13.54-.19.01,0,.02,0,.03-.01s.02,0,.04-.01c.03,0,.05-.02.07-.02.05-.02.1-.03.15-.05.1-.03.19-.06.29-.09.05-.01.1-.03.15-.04s.1-.03.15-.04c0,0,.01,0,.02,0,0,0,.02,0,.02,0,.01,0,.03,0,.04-.01.02,0,.04-.01.06-.02,0,0,0,0,.01,0,0,0,0,0,.01,0,0,0,.02,0,.03,0,.02,0,.03,0,.04-.01.02,0,.04-.01.05-.01,0,0,0,0,0,0,0,0,0,0,0,0,0,0,.01,0,.02,0,.01,0,.02,0,.04,0,.02,0,.05-.01.07-.02.05-.01.1-.03.15-.04.1-.03.2-.05.3-.08.02,0,.05-.01.07-.02s.05-.01.07-.02c.05-.01.1-.02.15-.03.1-.02.21-.05.31-.07.01,0,.02,0,.04,0,.01,0,.02,0,.03,0,.02,0,.04,0,.07-.01.05,0,.09-.02.14-.03.1-.02.21-.04.32-.06,0,0,.01,0,.02,0,0,0,.01,0,.02,0,.01,0,.02,0,.03,0,.02,0,.05,0,.07-.01.05,0,.1-.02.17-.03,0,0,0,0,.01,0,0,0,.01,0,.02,0,.01,0,.02,0,.03,0,.02,0,.04,0,.06,0,.04,0,.07-.01.09-.01.05,0,.08-.01.1-.01,0,0,0,0,0,0,0,0,0,0,.01,0,0,0,.02,0,.02,0,.01,0,.03,0,.04,0,.03,0,.06,0,.09-.01.06,0,.11-.02.16-.02.1-.01.19-.03.28-.04,0,0,.01,0,.02,0s.01,0,.02,0c.01,0,.03,0,.04,0,.03,0,.05,0,.08,0,.05,0,.11-.01.16-.02.1-.01.2-.02.3-.03.01,0,.03,0,.04,0s.03,0,.04,0c.03,0,.05,0,.08,0,.05,0,.11,0,.16-.01.1,0,.2-.02.31-.02.03,0,.05,0,.08,0s.05,0,.08,0c.05,0,.11,0,.16-.01.11,0,.21-.01.31-.02"/>
    <path class="cls-2" d="M67.41,303.25c-.07.03-.14.05-.21.07-.14.04-.29.07-.43.1-.14.02-.28.04-.42.04-.13,0-.27,0-.4,0-.13,0-.26-.02-.38-.04-.12-.02-.24-.04-.36-.07-.22-.05-.44-.12-.66-.21"/>
    <line class="cls-2" x1="242.3" y1="287.01" x2="241.74" y2="308"/>
    <path class="cls-2" d="M63.63,286.41s-.06.03-.09.04"/>
    <path class="cls-2" d="M62.64,288.65c.14-.32.3-.62.48-.9.2-.31.42-.6.66-.85"/>
    <path class="cls-2" d="M137.1,255.86c-25.49.14-55.62-3.96-76.12-11.06-20.5-7.1-31.37-17.18-30.9-25.43"/>
    <line class="cls-2" x1="53.64" y1="197.93" x2="53.5" y2="186.56"/>
    <path class="cls-2" d="M203.9,186.23c3.99.14,8.37-1.27,8.02-2.56"/>
    <path class="cls-2" d="M203.4,183.39c-2.56-.04-5.66.46-7.02,1.32"/>
    <path class="cls-2" d="M137.19,164.83c3.95.14,8.41-1.26,8.02-2.51"/>
    <path class="cls-2" d="M201.13,687.6c-.08.07-.15.15-.23.22"/>
    <path class="cls-2" d="M183.47,171.07c-2.13,0-4.3-.3-5.84-.8-1.54-.5-2.44-1.19-2.41-1.87"/>
    <path class="cls-2" d="M137.25,202.68c2.2,0,4.42.32,5.99.85,1.57.53,2.5,1.28,2.48,2.01"/>
    <path class="cls-2" d="M137.26,208.34c-4.18.13-8.9-1.47-8.47-2.86"/>
    <path class="cls-2" d="M180.7,588.23c.11.1.23.2.34.3"/>
    <path class="cls-2" d="M205.9,684.87s-.05,0-.08,0h.08Z"/>
    <path class="cls-2" d="M71.11,315.21c.22-.08.45-.18.67-.28.23-.11.46-.23.69-.36.23-.13.45-.28.68-.44.22-.16.44-.33.66-.52.22-.19.43-.38.64-.6.21-.21.41-.43.6-.67.19-.23.38-.48.57-.74.18-.26.36-.53.52-.81.17-.28.32-.57.47-.87.15-.3.29-.61.42-.93.13-.32.25-.65.36-.98.11-.33.21-.68.3-1.03.09-.35.17-.71.23-1.08.07-.36.12-.74.17-1.12.04-.38.08-.76.1-1.15.02-.39.03-.79.03-1.19,0-.4-.02-.81-.05-1.22-.03-.41-.07-.83-.12-1.25-.05-.42-.12-.85-.2-1.27-.08-.43-.17-.86-.27-1.29-.1-.43-.22-.87-.35-1.3-.13-.44-.27-.88-.42-1.31-.16-.44-.32-.88-.5-1.32-.18-.44-.37-.88-.58-1.31-.21-.44-.42-.88-.65-1.31-.23-.44-.47-.87-.72-1.29-.25-.43-.51-.85-.78-1.27-.27-.42-.56-.83-.84-1.23-.29-.41-.59-.8-.9-1.19-.31-.39-.62-.77-.94-1.14-.32-.37-.65-.73-.98-1.09-.33-.35-.67-.69-1.01-1.02-.34-.33-.68-.64-1.02-.95-.34-.3-.69-.59-1.03-.87-.34-.28-.69-.54-1.03-.78-.34-.25-.68-.48-1.01-.69-.33-.22-.66-.42-.99-.6-.32-.19-.64-.36-.95-.51-.31-.15-.61-.29-.91-.42-.29-.12-.57-.23-.85-.32-.27-.09-.53-.17-.78-.23-.25-.06-.48-.11-.7-.15-.22-.04-.42-.06-.61-.08-.19-.01-.36-.02-.52-.01-.16,0-.3.02-.44.03-.13.02-.25.04-.36.07-.08.02-.15.04-.21.06"/>
    <path class="cls-2" d="M62.55,183.14c-.03-.71.91-1.43,2.48-1.94,1.58-.51,3.8-.8,5.97-.79"/>
    <path class="cls-2" d="M175.22,168.4c-.37-1.26,4.01-2.63,7.93-2.49"/>
    <path class="cls-2" d="M191.4,168.58c.03-.68-.88-1.38-2.41-1.87s-3.7-.79-5.83-.8"/>
    <path class="cls-2" d="M197.43,185.22c.87-.81,3.69-1.35,6.02-1.31"/>
    <path class="cls-2" d="M211.92,183.66c.03-.71-.9-1.44-2.48-1.96-1.58-.52-3.81-.83-5.99-.84"/>
    <line class="cls-2" x1="36.32" y1="193.67" x2="41.17" y2="189.24"/>
    <path class="cls-2" d="M36.32,193.67c-4.29,3.91-6.54,8.17-6.45,12.42"/>
    <path class="cls-2" d="M41.17,189.24c3.21-2.94,7.83-5.86,13.82-8.53"/>
    <path class="cls-2" d="M58.51,292.82c-.01.67.02,1.34.1,2.02.08.68.21,1.38.38,2.06s.38,1.35.63,2c.25.65.55,1.29.87,1.89.32.6.68,1.16,1.06,1.69.38.52.79,1.01,1.22,1.44s.87.8,1.32,1.13c0,0,0,0,0,0"/>
    <path class="cls-2" d="M220.8,194.06s-.08-.03-.12-.05"/>
    <path class="cls-2" d="M67.66,303.56c-.15-.08-.3-.16-.46-.25"/>
    <path class="cls-2" d="M68.98,304.58c-.2.07-.4.12-.61.16-.37.06-.76.06-1.15,0-.39-.06-.79-.17-1.2-.34-.4-.17-.81-.4-1.21-.68-.4-.28-.78-.61-1.15-.99-.04-.04-.08-.09-.13-.13"/>
    <path class="cls-2" d="M177.53,189.86c1-1.17,1.51-2.38,1.52-3.58"/>
    <path class="cls-2" d="M195.43,183.43c-.36-1.3,4.04-2.7,8.02-2.56"/>
    <path class="cls-2" d="M129.16,162.26c-.02-.66.87-1.32,2.36-1.79s3.59-.73,5.66-.72"/>
    <path class="cls-2" d="M79.03,183.05c.37-1.3-4.04-2.74-8.02-2.63"/>
    <path class="cls-2" d="M66.45,344.87c-.68-.06-1.47,0-2.04.16"/>
    <path class="cls-2" d="M68.42,346.75c-.17-.05-.28-.15-.28-.24"/>
    <line class="cls-2" x1="241.74" y1="308" x2="241.49" y2="317.64"/>
    <line class="cls-2" x1="179.7" y1="585.88" x2="179.49" y2="586"/>
    <path class="cls-2" d="M137.17,162.21c-2.06-.02-4.21.27-5.67.72-.52.16-.95.35-1.33.56"/>
    <line class="cls-2" x1="78.11" y1="304.57" x2="68.5" y2="308.05"/>
    <line class="cls-2" x1="31.96" y1="332.73" x2="31.74" y2="319.08"/>
    <path class="cls-2" d="M181.23,586.39c-.24.03-.49.03-.75,0"/>
    <line class="cls-2" x1="241.43" y1="320.04" x2="241.06" y2="333.7"/>
    <path class="cls-2" d="M241.43,320.04c.01-.4,0-.8-.02-1.2"/>
    <path class="cls-2" d="M68.64,371.27c-1.71-.57-3.38-1.17-4.99-1.79"/>
    <path class="cls-2" d="M64.58,362.19c.21-.06.44-.1.7-.13"/>
    <line class="cls-2" x1="69.27" y1="304.48" x2="68.98" y2="304.58"/>
    <path class="cls-2" d="M62.83,286.86c-.18.13-.35.27-.51.42-.32.3-.6.65-.85,1.04-.25.4-.47.84-.64,1.31-.01.04-.03.07-.04.11"/>
    <path class="cls-2" d="M68.39,363.55c-.06.05-.1.1-.09.15"/>
    <path class="cls-2" d="M34.67,496.08l-2.69-162.63c0-.12,0-.24,0-.36"/>
    <path class="cls-2" d="M217.83,359.22c-28.41,16.86-112.96,19.63-149.26,4.72"/>
    <path class="cls-2" d="M63.58,362.16c-19.89-7.34-31.81-18.5-31.61-28.72"/>
    <path class="cls-2" d="M68.3,363.7c0,.09.11.18.28.24"/>
    <path class="cls-2" d="M241.05,334.05c0,.12,0,.24,0,.36"/>
    <line class="cls-2" x1="230.49" y1="288.95" x2="229.64" y2="289.87"/>
    <path class="cls-2" d="M68.35,369.8c-.26-.16-.58-.28-.97-.36-.82-.17-1.97-.15-2.73.07"/>
    <path class="cls-2" d="M244.12,217.64c0,.15,0,.3,0,.46,0,.06,0,.12,0,.19"/>
    <path class="cls-2" d="M244.12,218.28c0,.29-.02.58-.05.86-.03.29-.06.58-.11.86-.03.21-.07.41-.11.62-.04.2-.09.41-.14.61-.05.21-.11.42-.17.63-.2.69-.46,1.37-.76,2.04-.35.78-.78,1.55-1.27,2.31-.2.31-.41.62-.64.93-.43.6-.91,1.2-1.42,1.78-.28.31-.56.63-.86.94-.78.82-1.65,1.62-2.59,2.41-.06.05-.12.1-.18.15-.98.81-2.04,1.61-3.19,2.39-1.11.76-2.29,1.5-3.55,2.23-1.21.7-2.5,1.39-3.85,2.06-1.3.65-2.67,1.28-4.09,1.9-1.54.67-3.15,1.31-4.82,1.94-2.65.99-5.46,1.93-8.42,2.82-4.29,1.29-8.91,2.45-13.78,3.49-5.62,1.19-11.59,2.21-17.81,3.02"/>
    <path class="cls-2" d="M53.5,186.56c0-.48.02-.97.08-1.44.05-.46.13-.91.24-1.36.01-.06.03-.12.04-.18.14-.56.33-1.11.55-1.66.19-.47.41-.93.66-1.39.08-.15.16-.3.25-.44.21-.36.44-.71.68-1.05.24-.35.5-.69.77-1.02.15-.18.3-.36.46-.54.58-.66,1.21-1.3,1.91-1.93.36-.32.73-.64,1.12-.96.92-.75,1.92-1.47,3-2.17.28-.18.57-.37.87-.55.72-.44,1.47-.87,2.25-1.3.78-.42,1.6-.84,2.44-1.24.86-.41,1.76-.82,2.68-1.22.9-.39,1.83-.76,2.79-1.13,1.95-.75,4.02-1.45,6.19-2.12,2.17-.67,4.44-1.29,6.81-1.87,2.29-.56,4.66-1.08,7.1-1.56,2.55-.5,5.17-.95,7.87-1.35,2.57-.39,5.21-.73,7.89-1.02,5.16-.57,10.49-.97,15.89-1.19,5.05-.21,10.17-.26,15.26-.16,2.4.05,4.79.13,7.17.24,4.45.22,8.85.55,13.14,1,2,.21,3.97.44,5.92.7,3.61.48,7.11,1.04,10.49,1.68,3.04.58,5.97,1.22,8.78,1.92,2.52.63,4.93,1.3,7.22,2.03"/>
    <polyline class="cls-2" points="66.23 651.54 66.26 651.56 66.29 651.58 66.32 651.6 66.35 651.62 66.38 651.64 66.41 651.66 66.44 651.67 66.46 651.69 66.49 651.71 66.52 651.73 66.55 651.75 66.58 651.77"/>
    <path class="cls-2" d="M56.25,293.6c-.09-3.39,1.3-6.26,3.45-7.22,2.14-.97,5.04-.03,7.26,2.43"/>
    <line class="cls-2" x1="215.32" y1="689.65" x2="216.46" y2="692.43"/>
    <path class="cls-2" d="M240.69,249.69s0,0,0,0c0,0,0,0,0,0,0,0,0,0,0,0,0,.01-.03.03-.05.07-.02.03-.05.07-.09.12-.03.05-.07.1-.12.17-.04.06-.09.13-.14.21-.1.15-.21.33-.33.54-.12.2-.25.43-.39.68-.14.25-.29.52-.44.8-.16.29-.32.59-.48.92-.17.33-.34.67-.52,1.03-.18.36-.36.74-.55,1.13-.19.39-.38.8-.57,1.22-.19.42-.39.86-.59,1.31-.2.45-.4.92-.6,1.39-.2.48-.4.97-.6,1.47-.2.5-.4,1.01-.6,1.53-.2.52-.4,1.05-.59,1.59-.19.54-.39,1.08-.58,1.63-.19.55-.37,1.11-.55,1.67-.18.56-.35,1.12-.53,1.7-.17.57-.33,1.14-.49,1.71-.16.57-.31,1.14-.45,1.72-.14.57-.28,1.14-.41,1.71-.13.57-.25,1.13-.36,1.7-.11.56-.22,1.12-.32,1.68-.1.55-.19,1.11-.27,1.66-.08.55-.15,1.09-.21,1.63-.06.54-.12,1.07-.16,1.6-.05.52-.08,1.04-.11,1.56-.03.52-.05,1.02-.06,1.53"/>
    <line class="cls-2" x1="219.77" y1="665.8" x2="219.48" y2="665.42"/>
    <path class="cls-2" d="M67.1,288.95c-.57-.61-1.19-1.15-1.82-1.58-.64-.44-1.31-.78-1.97-.99-.33-.11-.66-.19-.99-.24-.33-.05-.64-.07-.96-.06-.63.02-1.24.16-1.8.42"/>
    <path class="cls-2" d="M61.28,737.75c-2.47-1.21-4.94-2.7-7.36-4.43-2.42-1.73-4.79-3.7-7.08-5.89s-4.47-4.57-6.54-7.12c-2.06-2.55-4-5.27-5.77-8.1-1.77-2.83-3.38-5.78-4.79-8.79-1.42-3.01-2.64-6.08-3.65-9.16s-1.8-6.16-2.37-9.2c-.57-3.04-.9-6.03-1.01-8.92"/>
    <line class="cls-2" x1="68.36" y1="371.03" x2="68.3" y2="363.7"/>
    <path class="cls-2" d="M62.08,299.28c-.3.12-.7-.05-1-.41s-.51-.91-.51-1.37"/>
    <path class="cls-2" d="M184.8,583.92c.32.03.64.03.93-.02"/>
    <line class="cls-2" x1="219.77" y1="665.8" x2="219.29" y2="666.1"/>
    <path class="cls-2" d="M66.2,301.24c.02.48-.21.91-.51,1"/>
    <path class="cls-2" d="M237.73,271.28c-.02.89-.07,1.81-.14,2.75-.07.85-.15,1.71-.26,2.56-.08.64-.17,1.27-.26,1.89-.05.33-.11.66-.16.98-.12.68-.25,1.34-.39,1.96-.08.33-.15.66-.23.97-.08.31-.16.6-.24.88-.09.29-.17.58-.26.84-.09.27-.18.52-.28.76-.06.16-.12.3-.19.44-.03.08-.07.15-.1.22-.1.2-.2.39-.3.56-.01.02-.03.05-.04.07-.05.07-.09.14-.14.2-.05.06-.09.12-.14.18,0,0,0,0,0,0-.07.08-.14.15-.22.21-.06.05-.12.09-.18.13-.05.03-.1.06-.16.09-.05.02-.1.04-.15.05-.04.01-.09.02-.14.03-.08.01-.16.01-.25,0"/>
    <path class="cls-2" d="M35.8,650.25c.07-.04.13-.07.2-.1.23-.11.47-.18.72-.22.25-.04.51-.05.77-.02.27.03.54.09.81.18.27.09.55.21.82.37"/>
    <line class="cls-2" x1="221.56" y1="656.78" x2="221.12" y2="657.05"/>
    <path class="cls-2" d="M203.45,183.91c1.75,0,3.58.26,4.84.68.69.23,1.21.5,1.57.81"/>
    <path class="cls-2" d="M69.83,756.58c-1.31-.65-2.61-1.34-3.89-2.06-1.3-.73-2.59-1.5-3.86-2.3-1.29-.81-2.56-1.66-3.81-2.55-1.07-.76-2.14-1.54-3.19-2.34-.19-.15-.38-.29-.57-.44-1.25-.97-2.48-1.98-3.69-3.01-1.22-1.05-2.42-2.13-3.6-3.24-1.19-1.12-2.36-2.27-3.51-3.45-1.15-1.19-2.29-2.41-3.39-3.65-1.11-1.25-2.2-2.53-3.27-3.84-.9-1.1-1.77-2.22-2.63-3.36-.16-.22-.33-.43-.49-.65-1.02-1.36-2.01-2.75-2.97-4.16-.96-1.41-1.9-2.85-2.8-4.3-.9-1.45-1.78-2.92-2.62-4.41-.84-1.49-1.65-2.99-2.43-4.51-.77-1.51-1.52-3.04-2.23-4.58-.5-1.09-.99-2.2-1.46-3.3-.19-.44-.37-.89-.56-1.33-.63-1.55-1.24-3.1-1.8-4.67-.56-1.55-1.09-3.12-1.58-4.68-.49-1.55-.94-3.11-1.36-4.67-.41-1.55-.79-3.1-1.13-4.65-.34-1.54-.64-3.07-.91-4.61-.22-1.25-.41-2.49-.58-3.74-.04-.27-.07-.54-.11-.81-.19-1.5-.34-2.99-.46-4.48-.11-1.43-.19-2.86-.24-4.29"/>
    <path class="cls-2" d="M35.84,682.31c0,.38-.03.75-.05,1.12-.68,12.19,11.08,32.39,22.35,37.36"/>
    <path class="cls-2" d="M231.64,286.89c-.39.98-.78,1.68-1.15,2.07"/>
    <path class="cls-2" d="M179.06,186.28c.14-3.59-4.51-7.2-12.31-9.77-7.8-2.56-18.75-4.08-29.56-4.09"/>
    <line class="cls-2" x1="43.54" y1="665.82" x2="44.71" y2="665.16"/>
    <path class="cls-2" d="M164.76,679.67c-.02-.11-.04-.22-.06-.33"/>
    <path class="cls-2" d="M43.77,657.47c-1.09-.66-2.08-2.13-2.48-3.47-.19-.65-.24-1.27-.17-1.88"/>
    <path class="cls-2" d="M66.23,288.11s0-.01,0-.02v.02Z"/>
    <path class="cls-2" d="M10.71,662.46c-.01-.41-.02-.82-.03-1.23,0-.41-.01-.82-.02-1.22,0-.57,0-1.14,0-1.7,0-.57.01-1.13.02-1.69,0-.43.02-.87.03-1.3.01-.43.03-.86.04-1.3.01-.35.03-.7.04-1.03.03-.63.06-1.19.09-1.76.03-.58.07-1.17.11-1.75.07-1.07.14-2.09.24-3.22.08-1.02.18-2.11.3-3.26.16-1.58.35-3.28.55-4.94.1-.8.2-1.58.3-2.37.19-1.45.4-2.9.62-4.37.39-2.57.83-5.17,1.28-7.66.6-3.35,1.23-6.51,1.91-9.74.59-2.79,1.22-5.63,1.86-8.43.58-2.54,1.18-5.06,1.8-7.61.57-2.34,1.15-4.72,1.73-7.07.56-2.24,1.11-4.45,1.67-6.68.53-2.13,1.07-4.27,1.6-6.4,1.02-4.11,2.02-8.18,2.97-12.22.05-.23.11-.45.16-.68"/>
    <path class="cls-2" d="M43.54,656.56c.18.6.32,1.21.39,1.81.08.6.1,1.18.07,1.73s-.12,1.07-.26,1.54c-.14.47-.34.89-.58,1.25-.24.36-.53.65-.86.87-.06.04-.12.08-.18.11"/>
    <path class="cls-2" d="M229.85,763.5c.01-5.01,0-10.06-.01-15.11s-.03-10.14-.05-15.23c-.02-5.09-.04-10.2-.07-15.34s-.07-10.28-.13-15.46c-.07-5.18-.16-10.38-.31-15.63-.15-5.25-.36-10.53-.69-15.87-.33-5.33-.79-10.72-1.53-16.17-.37-2.73-.81-5.48-1.35-8.25-.54-2.77-1.19-5.57-1.95-8.4"/>
    <path class="cls-2" d="M180.77,581.32c.06.08.12.16.18.24,1.05,1.31,2.58,2.26,3.85,2.37"/>
    <path class="cls-2" d="M87.11,684.39c-.37.22-.77.37-1.21.46"/>
    <line class="cls-2" x1="221.77" y1="646.89" x2="221.43" y2="647.1"/>
    <line class="cls-2" x1="164.69" y1="679.35" x2="164.82" y2="680"/>
    <path class="cls-2" d="M31.32,672.97c.29.25.59.54.86.85.28.31.55.64.8,1,.25.36.5.74.72,1.13.22.39.42.79.6,1.2.18.41.34.83.47,1.26.13.42.24.84.32,1.25.08.41.14.82.16,1.22.03.4.02.78,0,1.14-.03.36-.09.71-.17,1.02-.08.32-.2.61-.33.88-.14.26-.3.49-.48.69-.18.2-.38.36-.61.49"/>
    <path class="cls-2" d="M79.51,671.2c.07-.04.14-.08.21-.12.22-.11.45-.2.69-.27.48-.14,1.01-.19,1.56-.15.27.02.55.06.82.13.28.06.56.15.84.26"/>
    <path class="cls-2" d="M136.65,346.58c24.96.35,54.45-3.85,74.57-11.34,20.12-7.5,30.88-18.3,30.52-27.24"/>
    <path class="cls-2" d="M164.34,701.56c-.01-.68-.03-1.36-.06-2.05s-.06-1.37-.09-2.06c-.07-1.38-.13-2.76-.2-4.14-.14-2.76-.28-5.53-.42-8.31-.29-5.55-.59-11.12-.91-16.71-.31-5.59-.64-11.2-.98-16.84-.24-3.97-.48-7.95-.73-11.95"/>
    <path class="cls-2" d="M164.96,581c.22-.02.45-.04.68-.07.35-.04.72-.08,1.09-.13.37-.05.74-.09,1.11-.14.37-.05.74-.1,1.1-.16s.7-.12,1.04-.19"/>
    <path class="cls-2" d="M75.56,658.97s.1.1.22.21c.06.05.12.12.2.19.04.04.08.08.12.12.02.02.04.04.07.07.01.01.02.02.03.03.01.01.02.02.03.03.15.14.27.26.38.37.06.05.11.11.16.16.03.02.05.05.07.07.01.01.02.02.03.03,0,0,.01.01.02.02,0,0,.01.01.02.02.24.24.48.48.7.7.11.11.22.22.33.33.05.05.11.11.16.16.03.03.05.05.08.08.03.03.05.05.08.08.22.22.44.46.66.69.11.12.22.23.33.35.05.06.11.12.16.18.05.06.1.11.16.17.41.45.84.93,1.29,1.45.22.26.45.53.66.78.11.13.21.25.31.37.05.06.1.12.15.18.02.03.05.06.07.09s.05.06.08.09c.2.25.41.51.62.76.1.13.21.26.31.39.1.13.2.26.3.38.4.51.79,1.03,1.19,1.55.2.26.39.53.59.8s.39.54.59.82c.39.55.76,1.09,1.13,1.64.18.27.37.55.55.82s.35.54.53.82c.7,1.09,1.39,2.23,2.06,3.41.33.59.66,1.18.98,1.77.32.59.62,1.17.92,1.76.3.58.59,1.17.87,1.77.14.3.29.6.43.91.07.15.14.31.21.46.07.15.14.31.21.46.27.61.53,1.21.78,1.82.13.3.25.61.37.91.06.15.12.3.18.45.03.08.06.15.09.23s.06.15.09.22c.22.58.44,1.16.66,1.77.11.3.22.62.33.93.05.16.11.32.16.48.03.08.05.16.08.24.01.04.03.08.04.12.01.04.03.08.04.11.2.6.39,1.19.57,1.81.09.31.18.62.28.93.05.16.09.31.13.47.02.08.04.16.07.24.01.04.02.08.03.12.01.04.02.08.03.11.08.29.16.58.24.89.04.15.08.31.12.47.02.08.04.16.06.24.01.04.02.08.03.12,0,.02.01.04.02.06,0,.01,0,.02,0,.03,0,0,0,.02,0,.02.05.2.11.45.18.75.04.15.08.32.12.51.02.09.04.19.06.29.01.05.02.1.03.15,0,.03.01.05.02.08,0,.01,0,.03,0,.04,0,.01,0,.02,0,.03.14.64.26,1.25.38,1.86.06.3.11.61.17.91.03.15.05.3.08.45.01.07.02.15.04.22,0,.04.01.07.02.11,0,.04.01.08.02.12.1.63.19,1.25.27,1.84.04.3.08.59.11.88.02.14.03.29.05.43s.03.28.05.42c0,.09.02.19.03.28"/>
    <path class="cls-2" d="M21.84,676.2c-.02-.6-.03-1.17-.03-1.72,0-.27,0-.54,0-.81,0-.13,0-.26,0-.39,0-.06,0-.13,0-.19,0-.03,0-.06,0-.1,0-.03,0-.07,0-.1.02-.55.04-1.1.07-1.63.02-.27.04-.53.06-.78.01-.13.02-.26.03-.38.01-.13.02-.25.04-.38.05-.5.11-1,.18-1.51.03-.25.07-.51.11-.77.02-.13.04-.26.06-.39.01-.07.02-.13.03-.2,0-.03.01-.07.02-.1,0-.03.01-.06.02-.09.09-.5.18-.98.28-1.47.05-.24.11-.49.16-.74.03-.12.06-.25.09-.37.01-.06.03-.12.05-.18,0-.03.02-.06.02-.09,0-.02,0-.03.01-.05,0,0,0-.01,0-.02,0,0,0-.02,0-.03.09-.34.17-.63.23-.87.03-.12.06-.22.09-.31.01-.05.03-.09.04-.13,0-.02.01-.04.02-.06,0,0,0-.02,0-.03,0,0,0,0,0-.01,0,0,0-.01,0-.02.07-.24.15-.49.22-.72.04-.11.07-.23.11-.33.02-.05.04-.11.05-.16,0-.03.02-.05.03-.08s.02-.06.03-.08c.16-.46.32-.91.5-1.34.09-.22.17-.43.26-.64.04-.1.09-.21.13-.31.02-.05.04-.1.07-.15.01-.03.02-.05.03-.08.01-.03.02-.05.04-.08.19-.43.39-.85.6-1.25.1-.2.2-.4.3-.59.05-.1.1-.19.15-.28.03-.05.05-.09.08-.14.03-.05.05-.09.08-.14.21-.38.44-.75.67-1.12.12-.18.23-.37.35-.55.06-.09.12-.18.18-.27.06-.09.12-.18.19-.27.25-.36.51-.71.77-1.04s.53-.65.8-.96c.54-.62,1.13-1.21,1.74-1.77.31-.28.62-.55.94-.8.16-.13.32-.25.47-.37.16-.12.32-.24.48-.35.32-.23.65-.45.99-.67.17-.11.34-.21.51-.31.17-.1.35-.2.53-.3.36-.2.72-.38,1.08-.55.18-.09.36-.17.55-.25.09-.04.18-.08.28-.12.09-.04.18-.08.28-.11.19-.08.38-.15.57-.22.1-.04.19-.07.29-.1.05-.02.1-.03.15-.05.02,0,.05-.02.07-.02s.05-.02.07-.02c.18-.06.37-.12.57-.18.1-.03.2-.06.3-.09.1-.03.21-.06.32-.09.21-.06.42-.11.62-.16.1-.02.2-.05.3-.07.05-.01.1-.02.14-.03s.1-.02.14-.03c.19-.04.4-.08.6-.12.1-.02.2-.04.31-.05.05,0,.1-.02.15-.02.03,0,.05,0,.08-.01.03,0,.05,0,.07-.01.19-.03.39-.06.59-.08.1-.01.21-.03.32-.04.05,0,.11-.01.17-.02.03,0,.06,0,.09,0,.01,0,.03,0,.04,0,0,0,.01,0,.02,0,0,0,.01,0,.02,0,.09,0,.18-.02.29-.03.05,0,.11,0,.17-.01.03,0,.06,0,.09,0,.02,0,.03,0,.05,0,0,0,.01,0,.02,0s.02,0,.03,0c.36-.03.58-.04.64-.04"/>
    <path class="cls-2" d="M68.5,308.05s-.09.03-.14.05c-.22.07-.44.13-.67.18-.01,0-.02,0-.04,0-.45.09-.92.12-1.39.1-.25-.01-.49-.04-.74-.08-.25-.04-.5-.1-.75-.16-.25-.07-.5-.15-.75-.25-.48-.19-.96-.43-1.43-.72-.25-.15-.49-.31-.73-.49-.57-.42-1.13-.91-1.66-1.46-.67-.7-1.3-1.51-1.87-2.38-.45-.69-.85-1.44-1.21-2.21-.22-.47-.42-.96-.6-1.45-.25-.67-.46-1.36-.63-2.06-.15-.62-.27-1.24-.36-1.85-.1-.71-.15-1.42-.16-2.12"/>
    <path class="cls-2" d="M166.57,698.6c.06-5.93-.53-12.22-1.75-18.6"/>
    <path class="cls-2" d="M56.31,293.6c-.1-3.22,1.26-6.2,3.25-7.11"/>
    <path class="cls-2" d="M183.13,168.47c2.04,0,4.19.3,5.65.77.58.19,1.05.4,1.45.65"/>
    <path class="cls-2" d="M58.7,290.85s0,.03,0,.04c-.11.61-.17,1.26-.18,1.92"/>
    <path class="cls-2" d="M137.24,205.81c1.76,0,3.58.26,4.84.69.72.24,1.26.54,1.61.87"/>
    <path class="cls-2" d="M168.94,581.19c.27-.14.57-.22.88-.25.85-.06,1.84.31,2.7,1.02s1.61,1.76,2.03,2.87c.21.54.34,1.1.39,1.64"/>
    <path class="cls-2" d="M88.62,678.36c-1.25-.51-2.53-2.19-3-3.75-.26-.87-.27-1.71-.06-2.45"/>
    <path class="cls-2" d="M131.19,163.95c.34-.25.8-.48,1.4-.67,1.19-.37,2.91-.6,4.58-.59"/>
    <path class="cls-2" d="M226.1,555.88c-.38.37-.76.75-1.14,1.12"/>
    <path class="cls-2" d="M130.8,207.32c.35-.33.89-.62,1.61-.86,1.26-.41,3.07-.67,4.83-.65"/>
    <path class="cls-2" d="M66.58,282.09c.06-.44.13-.88.22-1.31"/>
    <path class="cls-2" d="M75,305.7c.79.75,1.63,1.42,2.49,1.99"/>
    <path class="cls-2" d="M223.75,638.04c-5.65-21.81-19.78-45.83-36.73-61.5"/>
    <path class="cls-2" d="M177.62,590.5c14.64,12.75,26.28,33.23,30.16,52.53,3.88,19.3,0,37.43-10,46.67"/>
    <path class="cls-2" d="M44.71,665.16c.2-.11.4-.22.6-.32.6-.3,1.22-.55,1.86-.76,1.28-.41,2.63-.63,4.07-.66.72-.01,1.46.02,2.21.1.75.08,1.5.21,2.27.39,1.53.36,3.08.9,4.67,1.64"/>
    <path class="cls-2" d="M43.54,665.82c1.92-1.1,4.13-1.69,6.53-1.74,2.87-.06,5.99.67,9.14,2.14"/>
    <path class="cls-2" d="M168.91,581.2s.02,0,.03-.01h-.03Z"/>
    <path class="cls-2" d="M64.61,290.94c.3-.12.7.05,1,.41.3.36.51.91.51,1.38"/>
    <path class="cls-2" d="M210.92,184.91c-.42-.26-.91-.49-1.51-.69-1.55-.51-3.84-.84-6-.84"/>
    <path class="cls-2" d="M172.3,192.61c-1.69-.87-3.53-1.66-5.65-2.37-7.6-2.55-18.87-4.16-29.53-4.14"/>
    <path class="cls-2" d="M60.34,290.3c.06-.19.12-.38.18-.56.18-.47.39-.91.64-1.31.25-.4.54-.75.85-1.05.2-.19.42-.36.65-.52"/>
    <path class="cls-2" d="M182.65,576.98c2.97-.73,5.84-1.52,8.62-2.38,2.78-.86,5.46-1.78,8.03-2.76,2.57-.98,5.04-2.02,7.38-3.11,2.34-1.09,4.56-2.24,6.65-3.43"/>
    <path class="cls-2" d="M78.08,304.81c-.14-.02-.29-.04-.43-.07"/>
    <path class="cls-2" d="M176.36,169.74c1.28-.82,4.3-1.3,6.77-1.27"/>
    <line class="cls-2" x1="70.68" y1="302.07" x2="67.41" y2="303.25"/>
    <line class="cls-2" x1="234.26" y1="263.18" x2="235.92" y2="263.34"/>
    <path class="cls-2" d="M68.42,346.75c-1.71-.56-3.39-1.15-5.01-1.75"/>
    <path class="cls-2" d="M64.09,291.94c-.02-.48.21-.92.52-1.01"/>
    <path class="cls-2" d="M224.97,557c.19-.19.38-.37.56-.56"/>
    <line class="cls-2" x1="68.14" y1="346.51" x2="68.05" y2="336.78"/>
    <path class="cls-2" d="M201.67,687.33c.09.12.18.25.26.38.15.24.29.48.41.73.16.34.3.69.39,1.05.08.31.14.61.17.91.03.34.03.66-.02.98"/>
    <line class="cls-2" x1="221.75" y1="649.82" x2="221.86" y2="648.36"/>
    <path class="cls-2" d="M65.6,293.73c-.3.12-.7-.05-1.01-.41-.3-.36-.51-.91-.51-1.38"/>
    <line class="cls-2" x1="62.25" y1="288.79" x2="65.61" y2="287.6"/>
    <path class="cls-2" d="M128.79,205.48c-.02-.73.91-1.47,2.49-1.99,1.57-.52,3.78-.82,5.98-.8"/>
    <path class="cls-2" d="M244.42,206.99c.39,8.13-10.56,17.97-31.09,24.79s-50.65,10.64-76.15,10.32"/>
    <line class="cls-2" x1="214.98" y1="689.71" x2="215.32" y2="689.65"/>
    <path class="cls-2" d="M137.19,164.83c-3.96.11-8.44-1.32-8.03-2.57"/>
    <path class="cls-2" d="M137.24,205.26c-2.17-.02-4.44.3-5.98.81-.61.2-1.11.44-1.53.7"/>
    <path class="cls-2" d="M64.59,287.96c.12-.27.25-.52.39-.76"/>
    <path class="cls-2" d="M243.32,248.53c0,.22-.01.44-.02.67-.01.31-.03.64-.05.98-.02.34-.04.69-.06,1.06-.02.37-.05.74-.07,1.14-.02.39-.05.79-.08,1.21"/>
    <path class="cls-2" d="M71.07,299.31c0,.32,0,.64-.03.94"/>
    <path class="cls-2" d="M63.62,286.41s.01,0,.02,0h-.02Z"/>
    <path class="cls-2" d="M205.3,686.51c.16.45.63.79.96.7"/>
    <path class="cls-2" d="M60.86,738.53c-18.69-7.14-39.99-41.08-39.02-62.34"/>
    <path class="cls-2" d="M239.46,250.52s0,0,.01,0c.12-.06.24-.11.34-.17.13-.07.24-.14.33-.21.07-.05.13-.09.18-.13.02-.01.04-.03.05-.04.03-.02.06-.05.08-.07.04-.03.07-.06.1-.08.02-.01.03-.03.04-.04,0,0,.02-.02.02-.02.02-.02.04-.04.05-.05.01-.01.02-.02.02-.02"/>
    <path class="cls-2" d="M88.64,681.16c.17.08.35.15.52.22"/>
    <path class="cls-2" d="M158.77,605.59c.32,4.85.66,9.69.97,14.5.31,4.82.61,9.61.9,14.38"/>
    <path class="cls-2" d="M160.63,633.64c-.13-2.37-.25-4.75-.38-7.13-.13-2.38-.26-4.77-.4-7.16-.14-2.39-.28-4.79-.42-7.19-.07-1.2-.15-2.4-.22-3.6-.04-.6-.07-1.2-.11-1.8-.02-.3-.04-.6-.06-.9,0-.15-.02-.3-.03-.45,0-.08,0-.15-.01-.23,0-.08,0-.15-.01-.23"/>
    <path class="cls-2" d="M137.1,255.51c-34.48.18-69.66-6.73-88.84-16.35-11.08-5.56-16.82-12.02-17.83-18.84"/>
    <path class="cls-2" d="M145.72,205.55c.41,1.39-4.29,2.94-8.46,2.79"/>
    <line class="cls-2" x1="220.95" y1="187.26" x2="220.7" y2="198.62"/>
    <path class="cls-2" d="M160.63,633.64c0,.06,0,.13.01.19,0,.06,0,.13.01.19,0,.06,0,.13.01.19,0,.06,0,.13.01.19,0,.06,0,.13.01.19,0,.06,0,.13.01.19,0,.13.01.26.02.39,0,.13.01.26.02.39,0,.13.01.26.02.39.01.26.03.52.04.77.02.32.03.64.05.96"/>
    <path class="cls-2" d="M183.12,168.39c-2.5-.04-5.55.44-6.91,1.26"/>
    <path class="cls-2" d="M67.75,289.71c-.2-.25-.41-.49-.62-.72-.01-.01-.02-.03-.04-.04"/>
    <path class="cls-2" d="M58.84,289.8c.18-.38.39-.72.62-1.03s.49-.59.76-.83.57-.44.88-.6c.18-.09.36-.17.55-.24"/>
    <path class="cls-2" d="M78.1,672.62c.27-.45.6-.83.99-1.13.13-.1.27-.2.42-.28"/>
    <path class="cls-2" d="M137.25,198.04c-17.39.21-36.7-4.29-41.81-9.63"/>
    <path class="cls-2" d="M85.9,684.85c-.45.09-.91.1-1.4.04-.48-.06-.98-.2-1.47-.41-.5-.21-1-.49-1.47-.84-.48-.35-.93-.75-1.36-1.21-.21-.23-.42-.47-.62-.73s-.38-.51-.55-.78c-.35-.54-.65-1.12-.9-1.71-.25-.59-.44-1.2-.57-1.8-.13-.6-.2-1.19-.2-1.77s.06-1.12.18-1.63c.13-.51.31-.98.56-1.39"/>
    <path class="cls-2" d="M25.49,676.48c-.05-.48-.07-.93-.05-1.36.02-.43.07-.84.17-1.21.09-.37.21-.7.37-1,.16-.29.35-.55.57-.75.13-.12.28-.23.43-.32"/>
    <path class="cls-2" d="M65.36,287.42s.03-.01.04-.02l-.04.02Z"/>
    <path class="cls-2" d="M30.39,684.84c-.29-.17-.59-.37-.88-.61-.29-.24-.58-.5-.85-.8-.28-.29-.54-.61-.79-.96-.25-.34-.49-.71-.71-1.09-.44-.76-.82-1.59-1.1-2.42s-.48-1.68-.56-2.48"/>
    <path class="cls-2" d="M206.27,687.2s.05-.01.08-.02l-.08.02Z"/>
    <line class="cls-2" x1="244.42" y1="206.99" x2="244.15" y2="217.03"/>
    <path class="cls-2" d="M70.98,183.46c2.33-.03,5.17.54,6.03,1.36"/>
    <line class="cls-2" x1="233.27" y1="190.03" x2="238.08" y2="194.51"/>
    <path class="cls-2" d="M58.15,293.6c-.02-1.4.23-2.74.7-3.8"/>
    <path class="cls-2" d="M238.08,194.51c4.25,3.95,6.47,8.23,6.34,12.48"/>
    <path class="cls-2" d="M35.01,517.02l-.31-18.71c0-.37,0-.74.01-1.12"/>
    <path class="cls-2" d="M26.98,671.84c.1-.06.2-.1.3-.14.27-.1.56-.16.87-.16.31,0,.64.05.98.15.34.1.68.25,1.03.45"/>
    <path class="cls-2" d="M145.21,162.32c.02-.66-.86-1.33-2.35-1.81-1.49-.48-3.6-.76-5.68-.76"/>
    <path class="cls-2" d="M58.63,301.64c-1.42-2.33-2.32-5.45-2.32-8.05"/>
    <path class="cls-2" d="M33.67,685.1s0,0,0,0c-.22.13-.46.22-.72.27s-.53.07-.81.05c-.28-.02-.56-.08-.86-.18-.29-.1-.59-.24-.89-.41"/>
    <path class="cls-2" d="M42.12,663.87c-.28.16-.58.27-.91.33-.2.04-.4.05-.61.05-.21,0-.42-.02-.63-.06-.43-.08-.88-.24-1.32-.47"/>
    <path class="cls-2" d="M235.7,536.54c0-.07,0-.14,0-.21"/>
    <path class="cls-2" d="M160.85,637.71c.03.6.07,1.2.1,1.8,0,0,0,0,0,0"/>
    <line class="cls-2" x1="30.03" y1="216.12" x2="29.87" y2="206.09"/>
    <path class="cls-2" d="M27.97,564.81c.07-.29.13-.54.18-.78.26-1.13.54-2.33.8-3.49"/>
    <path class="cls-2" d="M235.41,192.27c.97.74,1.86,1.49,2.67,2.24"/>
    <path class="cls-2" d="M219.53,181.39c5.97,2.72,10.56,5.68,13.75,8.65"/>
    <path class="cls-2" d="M56.56,293.51c-.01.68.02,1.37.11,2.07s.22,1.41.4,2.1c.18.7.4,1.38.66,2.04.26.66.57,1.31.91,1.93"/>
    <path class="cls-2" d="M190.38,169.81c-.4-.23-.86-.44-1.42-.62-1.51-.49-3.73-.8-5.84-.8"/>
    <path class="cls-2" d="M58.63,301.64c-.27-.63-.5-1.28-.69-1.95-.19-.67-.34-1.36-.44-2.05-.1-.69-.16-1.37-.17-2.05,0-.68.03-1.35.13-2"/>
    <path class="cls-2" d="M144.19,163.55c-.38-.21-.81-.4-1.33-.57-1.46-.47-3.63-.77-5.69-.77"/>
    <path class="cls-2" d="M34.81,678.49c-.93-.73-1.72-2-2.06-3.14-.11-.37-.17-.72-.2-1.09"/>
    <path class="cls-2" d="M78.06,184.31c-1.36-.87-4.47-1.4-7.04-1.37"/>
    <path class="cls-2" d="M144.78,206.83c-.42-.27-.92-.51-1.54-.72-1.55-.52-3.82-.86-6-.85"/>
    <path class="cls-2" d="M36.71,676c-.03-.09-.06-.18-.09-.28"/>
    <path class="cls-2" d="M166.9,581.3c.2-.11.37-.27.52-.46"/>
    <line class="cls-2" x1="35.34" y1="647.51" x2="36.56" y2="646.83"/>
    <path class="cls-2" d="M30.24,672.18c-.07,1.02.02,2.02.33,3.07.73,2.49,2.7,5.25,4.71,6.29"/>
    <path class="cls-2" d="M64.41,345.03c-.27.08-.77.07-1-.03"/>
    <path class="cls-2" d="M89.28,678.58c-.22-.05-.44-.13-.65-.23"/>
    <line class="cls-2" x1="31.7" y1="316.68" x2="31.54" y2="307.05"/>
    <path class="cls-2" d="M68.13,345.31c-.39-.24-1.05-.4-1.68-.45"/>
    <path class="cls-2" d="M62.59,298.28c.02.48-.21.91-.51,1"/>
    <path class="cls-2" d="M187.74,582.67c.13-.07.28-.13.45-.14"/>
    <path class="cls-2" d="M36.2,661.62c-.49-.61-.92-1.3-1.28-2.04-.36-.74-.64-1.53-.83-2.32-.19-.79-.29-1.58-.3-2.34,0-.38.02-.75.06-1.1s.11-.69.19-1.01c.09-.32.2-.62.32-.9.13-.28.27-.53.44-.75.17-.23.35-.42.55-.59.14-.12.29-.22.44-.31"/>
    <polyline class="cls-2" points="66.92 297.83 68.46 299.47 68.6 299.62"/>
    <path class="cls-2" d="M65.69,302.24c-.3.12-.7-.05-1.01-.41s-.51-.91-.51-1.37"/>
    <path class="cls-2" d="M22.72,676.15c-.02-.56-.03-1.1-.03-1.66,0-.02,0-.03,0-.05,0-.02,0-.04,0-.06,0-.04,0-.08,0-.12,0-.08,0-.16,0-.23,0-.15,0-.3,0-.43,0-.27,0-.5.01-.71,0,0,0-.01,0-.02s0-.02,0-.03c0-.02,0-.04,0-.05,0-.04,0-.07,0-.11,0-.07,0-.14,0-.21,0-.14.01-.28.02-.41.01-.26.03-.51.04-.76,0-.03,0-.06,0-.09,0-.03,0-.07,0-.1,0-.07,0-.13.01-.2,0-.13.02-.26.03-.38s.02-.25.03-.38.02-.26.04-.4c.01-.13.03-.26.04-.39s.03-.26.04-.39c.03-.26.06-.51.1-.77.07-.5.14-.99.23-1.48.01-.06.02-.12.03-.18s.02-.12.03-.19c.02-.12.05-.25.07-.37.05-.24.1-.48.15-.73,0-.03.01-.06.02-.09s.01-.06.02-.09c.01-.06.03-.12.04-.18.03-.12.05-.24.08-.35,0-.03.01-.05.02-.08,0-.03.01-.05.02-.08.01-.05.03-.11.04-.17.03-.12.06-.26.1-.39.14-.53.27-1,.39-1.4,0-.01,0-.03.01-.04s0-.03.01-.05c0-.03.02-.06.03-.09.02-.06.04-.12.05-.18.04-.12.07-.23.11-.35.07-.23.14-.44.22-.65,0-.01,0-.03.01-.04,0-.01.01-.03.02-.04.01-.03.02-.06.03-.09.02-.06.04-.12.06-.18.04-.12.08-.23.13-.35.08-.23.17-.45.25-.66.17-.43.34-.82.51-1.21.01-.02.02-.05.03-.07.01-.03.02-.05.04-.08.02-.05.05-.11.07-.16.05-.11.1-.21.15-.32.1-.21.2-.42.3-.62.2-.41.42-.8.63-1.18.43-.76.88-1.46,1.34-2.12.03-.04.06-.08.09-.12s.06-.08.09-.13c.06-.09.12-.17.19-.25.12-.17.25-.33.38-.5.26-.33.53-.66.8-.97.03-.04.07-.08.1-.12s.07-.08.1-.11c.07-.07.14-.15.2-.22.14-.15.28-.3.42-.44.29-.29.59-.58.89-.86.02-.02.04-.03.06-.05s.04-.03.05-.05c.03-.03.07-.06.11-.09.07-.06.14-.13.22-.19.15-.13.3-.25.45-.38.31-.25.64-.51.98-.75.02-.02.04-.03.06-.04.02-.01.04-.03.06-.04.04-.03.08-.05.12-.08.08-.06.16-.11.24-.17.16-.11.34-.22.51-.33.01,0,.02-.01.03-.02,0,0,.02-.01.03-.02.02-.01.04-.02.06-.04.04-.02.08-.05.12-.07.08-.05.16-.1.25-.15.13-.07.26-.15.39-.23"/>
    <path class="cls-2" d="M212.17,526.63c-14.23,8.39-41.2,15.2-68.99,16.03-27.78.84-56.38-4.29-74.13-11.77-3.51-1.48-6.59-3.05-9.65-4.78-3.06-1.74-6.09-3.64-8.66-5.66"/>
    <path class="cls-2" d="M31.74,319.08c0-.4,0-.8.03-1.2"/>
    <path class="cls-2" d="M226.1,555.88c.88-.87,1.71-1.75,2.47-2.64.62-.72,1.2-1.45,1.74-2.18s1.04-1.48,1.5-2.22c.92-1.49,1.68-2.99,2.27-4.51s1.03-3.05,1.29-4.58c.19-1.07.29-2.14.32-3.21"/>
    <path class="cls-2" d="M160.95,639.51c-.1-1.67-.2-3.35-.31-5.03"/>
    <path class="cls-2" d="M28.96,560.54c.15-.66.29-1.28.44-1.95.05-.21.1-.43.14-.64.02-.11.05-.22.07-.33.02-.11.05-.22.07-.32.05-.21.09-.42.14-.64.03-.16.07-.32.11-.48.03-.16.07-.32.1-.47.03-.16.07-.31.1-.47.03-.16.07-.31.1-.47.03-.15.07-.31.1-.46.03-.15.07-.31.1-.46.07-.3.13-.61.2-.91.07-.3.13-.6.2-.89.07-.29.13-.59.2-.88.07-.29.13-.58.2-.87.06-.29.13-.57.19-.86.13-.56.25-1.13.38-1.69.12-.56.25-1.11.37-1.66.12-.55.24-1.1.36-1.64.12-.55.23-1.09.34-1.64.23-1.1.44-2.21.64-3.33.1-.57.2-1.14.29-1.71.09-.58.18-1.16.27-1.75.09-.6.17-1.2.24-1.81.08-.62.14-1.24.21-1.87.02-.19.04-.38.05-.57.02-.19.03-.39.05-.58.02-.2.03-.39.05-.59.02-.2.03-.4.04-.6.06-.83.11-1.66.15-2.49.03-.6.06-1.19.08-1.77,0-.16.01-.31.02-.46,0-.16.01-.32.02-.47,0-.16,0-.33.01-.49,0-.35.02-.69.02-1.02,0-.18,0-.36,0-.54,0-.4,0-.78.01-1.16,0-.26,0-.51,0-.76"/>
    <line class="cls-2" x1="35.84" y1="682.31" x2="35.85" y2="681.71"/>
    <path class="cls-2" d="M165.09,581.46c.19.11.38.22.57.34"/>
    <path class="cls-2" d="M179.34,578.49c.08.26.17.53.27.79"/>
    <path class="cls-2" d="M165.28,581.39c.59.2,1.19.16,1.62-.09"/>
    <path class="cls-2" d="M171.41,580.09c.97.43,1.88,1.15,2.63,2.09,1.1,1.39,1.85,3.25,1.88,4.82"/>
    <path class="cls-2" d="M68.64,371.27c-.17-.06-.28-.15-.28-.24"/>
    <path class="cls-2" d="M61.8,287.05c-.14.05-.27.11-.4.18-.37.19-.72.44-1.03.74-.32.3-.6.65-.85,1.04-.25.4-.47.84-.64,1.31-.18.48-.31.98-.41,1.52-.1.54-.15,1.11-.17,1.7"/>
    <line class="cls-2" x1="222.07" y1="651.85" x2="221.56" y2="656.78"/>
    <path class="cls-2" d="M117.6,187.64c-3.69.64-7.01,1.44-9.89,2.38-2.11.69-3.98,1.45-5.65,2.3"/>
    <path class="cls-2" d="M63.58,362.16c.23.1.72.11,1,.03"/>
    <line class="cls-2" x1="221.56" y1="643.91" x2="221.23" y2="644.11"/>
    <path class="cls-2" d="M64.65,369.51c-.27.08-.77.07-.99-.03"/>
    <path class="cls-2" d="M162.6,667.41c7.03,21.89,6.15,45.3-1.92,59.29"/>
    <path class="cls-2" d="M60.2,286.26c-.05.03-.1.05-.16.08-.42.22-.81.5-1.16.84-.36.34-.68.74-.96,1.19s-.52.95-.72,1.49c-.2.54-.35,1.12-.46,1.73-.11.61-.17,1.26-.18,1.93"/>
    <path class="cls-2" d="M248.12,612.26c.33,1.04.64,2.09.94,3.14.39,1.39.75,2.78,1.07,4.18.25,1.06.47,2.12.68,3.18.12.59.23,1.17.33,1.75.11.63.22,1.26.32,1.89.22,1.37.41,2.74.57,4.11.18,1.55.34,3.09.46,4.62.07.84.13,1.68.18,2.52.11,1.7.18,3.39.23,5.08,0,.13,0,.26.01.39.03.98.05,1.96.06,2.94.02,2.09.01,4.2-.02,6.24-.04,2.18-.1,4.31-.19,6.66-.04,1.02-.09,2.07-.14,3.14-.05,1.06-.11,2.14-.17,3.2-.01.22-.02.44-.04.67-.05.84-.1,1.67-.15,2.51-.06,1.05-.13,2.1-.2,3.14-.07,1.03-.14,2.05-.22,3.1-.07,1.03-.15,2.09-.23,3.07-.08,1.09-.16,2.09-.23,3.01-.08,1.06-.16,2.02-.24,3-.08.98-.16,1.98-.25,2.98-.08,1-.17,1.99-.25,2.97-.02.24-.04.49-.06.74-.07.76-.14,1.58-.2,2.28-.08.95-.15,1.7-.27,3.08-.15,1.64-.38,4.17-.56,6.19-.11,1.21-.21,2.23-.3,3.23-.24,2.56-.48,5-.7,7.26-.15,1.5-.29,2.91-.42,4.22-.18,1.79-.34,3.36-.52,5.06-.04.33-.07.67-.11.99"/>
    <line class="cls-2" x1="241.05" y1="334.41" x2="236.74" y2="497.12"/>
    <path class="cls-2" d="M236.68,498.23c.01.37.01.75,0,1.12"/>
    <path class="cls-2" d="M241.05,334.41c-.04,8.71-8.46,17.94-23.21,24.8"/>
    <path class="cls-2" d="M220.4,521.34c-2.46,1.87-5.22,3.64-8.23,5.3"/>
    <path class="cls-2" d="M35.96,647.18c-.43.26-.85.54-1.26.83-.65.47-1.27.97-1.87,1.52-1.19,1.09-2.27,2.32-3.25,3.7-.49.69-.95,1.42-1.38,2.19-.43.77-.84,1.57-1.21,2.39-.74,1.66-1.35,3.42-1.83,5.29-.24.93-.45,1.9-.62,2.89-.17.99-.31,2.01-.42,3.05-.21,2.07-.27,4.22-.19,6.43"/>
    <line class="cls-2" x1="215.02" y1="689.83" x2="211.28" y2="680.67"/>
    <path class="cls-2" d="M205.46,686.48c-.14-.32-.16-.73-.06-1.04.1-.31.32-.54.57-.59"/>
    <path class="cls-2" d="M206.43,687.17c-.34.09-.8-.24-.96-.7"/>
    <path class="cls-2" d="M67.1,297.1c.51-.33,1.09-.33,1.65-.12.45.17.88.48,1.33.98.44.52.77,1.07,1,1.66"/>
    <path class="cls-2" d="M71.17,303.4c-.38.81-1.13,1.2-1.86,1.08"/>
    <path class="cls-2" d="M165.66,581.79c.25.15.5.25.74.32.19.05.38.08.56.09"/>
    <path class="cls-2" d="M159.19,586.2c3.27-1.68,6.52-3.35,9.75-5.01"/>
    <path class="cls-2" d="M206.63,349.11c21.66-7.08,34.96-18.53,34.79-29.07"/>
    <path class="cls-2" d="M178.92,578.58c.07.06.15.13.22.2.1.1.2.2.3.3.2.22.39.45.56.7.09.13.17.26.25.4.16.28.3.57.42.87.11.27.2.55.26.83.1.41.15.82.15,1.22,0,.35-.04.69-.12,1.01-.03.12-.07.24-.11.36-.08.22-.19.42-.31.61-.06.09-.12.17-.19.25,0,0-.01.01-.02.02-.06.07-.12.14-.19.2-.07.06-.14.13-.22.18-.08.06-.15.11-.23.15"/>
    <path class="cls-2" d="M30.05,217.37c0-.21,0-.41,0-.62,0,0,0-.02,0-.02"/>
    <path class="cls-2" d="M235.92,263.34c.08,0,.16.03.24.06.04.02.09.03.13.06.05.02.09.05.13.08.05.04.1.07.14.12.05.05.1.11.15.17.06.08.12.17.18.27.04.06.07.13.1.2.03.07.06.14.09.22.06.16.12.33.17.52.05.17.09.36.13.55.04.19.07.39.11.6.03.2.06.41.08.63.02.21.05.42.06.65.04.41.06.85.08,1.31.02.41.02.84.02,1.29,0,.4,0,.81-.01,1.23"/>
    <line class="cls-2" x1="233.47" y1="287.07" x2="229.99" y2="286.72"/>
    <path class="cls-2" d="M230.49,288.95c-.3.32-.61.47-.9.37"/>
    <path class="cls-2" d="M164.82,680c-.54-2.8-1.2-5.65-1.99-8.54"/>
    <path class="cls-2" d="M68.66,363.24c-.05.11-.14.22-.27.31"/>
    <path class="cls-2" d="M60.51,292.13c-.02-.48.21-.92.52-1.01"/>
    <path class="cls-2" d="M201.13,687.6c-.65.56-.8,1.95-.34,3.14"/>
    <path class="cls-2" d="M179.35,585.05c0,1.15.75,2.7,1.69,3.48"/>
    <line class="cls-2" x1="209.5" y1="682.45" x2="200.94" y2="687.82"/>
    <line class="cls-2" x1="179.94" y1="587.13" x2="187.74" y2="582.67"/>
    <line class="cls-2" x1="205.46" y1="686.48" x2="205.3" y2="686.51"/>
    <path class="cls-2" d="M237.73,271.28s0,.03-.01.04v-.04Z"/>
    <line class="cls-2" x1="212.17" y1="526.63" x2="212.18" y2="526.23"/>
    <line class="cls-2" x1="68.58" y1="363.94" x2="68.64" y2="371.27"/>
    <path class="cls-2" d="M232.71,279.25c.02-.68.05-1.37.09-2.07.02-.35.05-.7.08-1.06.02-.18.03-.36.05-.54,0-.09.02-.18.03-.27,0-.09.02-.18.03-.28.04-.37.08-.76.13-1.14.02-.19.05-.38.07-.57s.05-.38.08-.57c.11-.76.23-1.51.37-2.22.07-.36.14-.7.21-1.04.04-.17.07-.33.11-.5.04-.16.08-.32.11-.48.08-.31.15-.61.23-.89.04-.14.08-.28.12-.42.02-.07.04-.14.06-.2.02-.06.04-.13.06-.19.31-.98.63-1.71.94-2.2.16-.25.32-.43.47-.55.08-.06.15-.1.22-.12.04-.01.07-.02.11-.02.02,0,.04,0,.05,0s.04,0,.05,0c.07,0,.15.04.22.09.04.02.07.05.1.09s.07.07.1.12c.13.17.25.43.36.75.05.16.1.34.15.54.02.1.05.2.07.31s.04.22.06.34c.04.23.07.47.1.73.02.13.03.26.04.4,0,.07.01.14.02.21,0,.07.01.14.02.2.09,1.08.11,2.28.08,3.63"/>
    <path class="cls-2" d="M176.67,251.37c0,.5-.15.91-.33.91"/>
    <line class="cls-2" x1="200.9" y1="687.82" x2="209.66" y2="682.32"/>
    <line class="cls-2" x1="189.07" y1="583.44" x2="180.7" y2="588.23"/>
    <path class="cls-2" d="M237.72,271.24s.01.03.01.04v-.04Z"/>
    <path class="cls-2" d="M233.83,263.01s0,0,0,0h0Z"/>
    <path class="cls-2" d="M71.72,299.56c.34,5.79-3.8,9.4-7.97,7.78-4.17-1.62-8.36-8.48-8.14-13.99"/>
    <path class="cls-2" d="M232.07,279.38c-.15,4.3.5,7.81,1.4,7.69"/>
    <path class="cls-2" d="M248.12,612.26s0,0,0,0h0Z"/>
    <path class="cls-2" d="M53.64,197.93c-.17,6.75,8.49,14.06,23.12,19.06"/>
    <path class="cls-2" d="M201.51,687.46c.94,1.22,1.43,2.96,1.24,4.11"/>
    <path class="cls-2" d="M248.12,612.26s0-.03-.01-.04v.04Z"/>
    <path class="cls-2" d="M228.8,286.31c.03-1.45.14-2.96.3-4.5.08-.77.19-1.55.3-2.34.06-.39.12-.79.19-1.19.03-.2.07-.4.1-.6.02-.1.04-.2.05-.3,0-.05.02-.1.03-.15,0-.02,0-.05.01-.08,0-.01,0-.03,0-.04,0-.01,0-.02,0-.03.11-.58.25-1.27.42-2.07.09-.4.19-.84.3-1.3.05-.23.11-.47.17-.72.03-.12.06-.25.09-.37.02-.06.03-.13.05-.19,0-.03.02-.06.02-.1,0-.02,0-.03.01-.05s0-.03.01-.04c.22-.84.44-1.65.66-2.43.11-.39.23-.78.34-1.16.06-.19.12-.38.17-.56.03-.09.06-.19.09-.28.01-.05.03-.09.04-.14,0-.02.01-.05.02-.07,0-.01,0-.02.01-.03,0,0,0-.01,0-.02,0,0,0,0,0,0s0-.01,0-.02c.48-1.51.88-2.63,1.15-3.38.13-.37.24-.65.31-.85.04-.1.06-.17.08-.22,0-.03.02-.05.02-.06,0,0,0-.01,0-.02,0,0,0,0,0,0,0,0,0,0,0,0,0,0,0,0,0,0"/>
    <path class="cls-2" d="M176.46,250.1c.14.37.22.9.21,1.26"/>
    <path class="cls-2" d="M242.3,287.01c0,.14,0,.27-.01.41,0,.1,0,.19,0,.29,0,.05,0,.1,0,.15,0,.02,0,.05,0,.07,0,.01,0,.02,0,.04s0,.03,0,.05c-.03,1.04-.08,1.94-.12,2.68-.02.37-.04.7-.06,1,0,.15-.02.29-.03.42,0,.07,0,.13-.01.19,0,.03,0,.06,0,.09,0,.01,0,.03,0,.04,0,0,0,.01,0,.02,0,0,0,.02,0,.03-.05.67-.11,1.35-.18,2.01-.04.33-.07.65-.11.97-.02.16-.04.32-.06.47-.01.08-.02.16-.03.23,0,.04-.01.08-.02.12s-.01.08-.02.12c-.1.65-.2,1.26-.31,1.81-.05.27-.11.53-.17.78-.03.12-.06.24-.09.36-.01.06-.03.12-.04.17,0,.03-.01.06-.02.09,0,.03-.02.06-.02.09-.12.48-.26.94-.41,1.38-.08.22-.15.43-.24.64-.04.1-.08.2-.12.3-.02.05-.04.1-.06.15s-.04.1-.06.14c-.34.75-.72,1.36-1.14,1.85-.21.24-.43.45-.66.62-.11.09-.23.16-.35.23-.06.03-.12.07-.18.1-.03.01-.06.03-.09.04-.02,0-.03.01-.05.02-.01,0-.03.01-.04.02-.46.19-.95.26-1.48.18-.26-.04-.53-.12-.81-.23-.14-.06-.28-.13-.42-.2-.07-.04-.14-.08-.21-.12-.04-.02-.07-.04-.11-.07-.02-.01-.04-.02-.05-.04,0,0-.02-.01-.03-.02,0,0,0,0-.01,0,0,0,0,0,0,0,0,0,0,0,0,0-.08-.05-.19-.13-.36-.27-.16-.13-.38-.32-.63-.59-.26-.27-.56-.62-.89-1.09-.17-.24-.34-.5-.53-.8-.09-.15-.18-.31-.28-.48-.05-.09-.09-.17-.14-.26-.02-.05-.05-.09-.07-.14-.01-.02-.02-.05-.04-.07,0-.01-.01-.02-.02-.04,0,0,0-.01,0-.02s0,0,0-.01c-.53-1.05-.95-2.16-1.29-3.26-.17-.55-.32-1.09-.44-1.63-.06-.27-.12-.53-.18-.79-.03-.13-.05-.26-.08-.38-.01-.06-.02-.13-.04-.19,0-.03-.01-.06-.02-.09,0-.02,0-.03,0-.05,0-.02,0-.04-.01-.06-.47-2.56-.66-5.38-.59-8.18"/>
    <path class="cls-2" d="M229.51,285.37c0,.36-.3.69-.71.94"/>
    <line class="cls-2" x1="197.78" y1="689.69" x2="201.13" y2="687.6"/>
    <path class="cls-2" d="M70.08,298.06c.23-3.39-2.71-8.48-5.29-9.15"/>
    <path class="cls-2" d="M64.21,289.87c2.43.73,4.71,4.92,4.73,8.22.02,3.3-2.23,5.7-4.65,4.52"/>
    <line class="cls-2" x1="70.97" y1="297.74" x2="70.08" y2="298.06"/>
    <line class="cls-2" x1="62.12" y1="296.95" x2="60.57" y2="297.5"/>
    <path class="cls-2" d="M236.31,282.26c0,.24.01.52.02.85,0,.32.01.68.01,1.08,0,.2,0,.41,0,.63,0,.11,0,.22,0,.34,0,.06,0,.12,0,.17,0,.03,0,.06,0,.09,0,.02,0,.03,0,.04,0,.01,0,.03,0,.04,0,.76,0,1.42-.02,2,0,.29-.01.56-.02.81,0,.13,0,.25-.01.36,0,.06,0,.11,0,.17,0,.03,0,.06,0,.08,0,.01,0,.03,0,.04,0,0,0,.01,0,.02,0,0,0,.02,0,.03-.02.59-.05,1.16-.09,1.68-.02.26-.04.51-.06.75-.01.12-.02.24-.03.35,0,.06-.01.11-.02.17,0,.03,0,.06,0,.08,0,.01,0,.03,0,.04,0,.01,0,.03,0,.05-.11,1.02-.25,1.93-.43,2.73-.09.4-.18.76-.29,1.1-.05.17-.11.33-.16.49-.03.08-.06.15-.08.23-.01.04-.03.07-.04.11-.01.04-.03.07-.05.11-.25.59-.53,1.09-.86,1.49-.16.2-.33.37-.51.51-.09.07-.18.14-.28.19-.05.03-.09.06-.14.08-.02.01-.05.02-.07.04-.01,0-.02.01-.04.02-.01,0-.02.01-.03.02-.18.08-.36.13-.55.16"/>
    <path class="cls-2" d="M73.4,204.21c1.03.4,2.1.79,3.19,1.17"/>
    <path class="cls-2" d="M30.05,217.37c-.42,11.22,17.51,22.99,46.28,29.8,28.77,6.8,68.37,8.63,100.34,4.2"/>
    <path class="cls-2" d="M101.63,560.41c17.28,2.96,37.07,3.65,55.06,1.92"/>
    <path class="cls-2" d="M35.01,517.02c.08,6.57,3.39,13.35,9.63,19.41"/>
    <line class="cls-2" x1="88.64" y1="681.16" x2="83.03" y2="684.48"/>
    <path class="cls-2" d="M237.71,271.32c-.02.67-.05,1.36-.09,2.05-.02.35-.05.7-.08,1.05-.01.18-.03.35-.05.53,0,.09-.02.18-.03.27s-.02.18-.03.27c-.04.37-.08.75-.13,1.13-.02.19-.05.38-.07.56s-.05.38-.08.56c-.11.75-.23,1.49-.36,2.2-.07.35-.14.7-.21,1.03-.04.17-.07.33-.11.49-.04.16-.08.32-.11.48-.08.31-.15.6-.23.89-.04.14-.08.28-.12.41-.02.07-.04.13-.06.2-.02.06-.04.13-.06.19-.31.98-.62,1.71-.94,2.22-.16.25-.31.44-.47.57-.08.06-.15.1-.22.13-.04.01-.07.02-.11.03-.02,0-.04,0-.05,0-.02,0-.04,0-.05,0-.07,0-.15-.03-.22-.07-.04-.02-.07-.05-.1-.08-.03-.03-.07-.07-.1-.11-.13-.17-.26-.41-.37-.74-.05-.16-.11-.34-.15-.54-.02-.1-.05-.2-.07-.31s-.04-.22-.06-.33c-.04-.23-.07-.47-.11-.72-.02-.13-.03-.26-.04-.39,0-.07-.01-.14-.02-.21,0-.07-.01-.14-.02-.2-.09-1.08-.11-2.29-.08-3.65"/>
    <path class="cls-2" d="M182.95,557.05c-6.79,1.63-13.93,2.89-21.39,3.78"/>
    <path class="cls-2" d="M235.92,263.34c-.74-.14-1.71,1.85-2.47,5-.76,3.16-1.3,7.49-1.38,11.03"/>
    <path class="cls-2" d="M42.08,629.52c-2.2.05-4.33.32-6.33.82-2.01.5-3.9,1.22-5.68,2.15s-3.43,2.09-4.95,3.45c-1.52,1.36-2.92,2.93-4.17,4.68-1.25,1.76-2.37,3.7-3.32,5.81-.95,2.11-1.75,4.39-2.38,6.8-.63,2.41-1.08,4.96-1.37,7.62s-.38,5.42-.31,8.26c-.97-1.2-1.78-2.47-2.29-3.84-.33-.89-.54-1.83-.57-2.8"/>
    <path class="cls-2" d="M44.22,644.55c-.96-4.99-1.68-10.02-2.15-15.04"/>
    <path class="cls-2" d="M72.86,299.57c.03-3.95-1.72-8.62-4.3-11.67-2.58-3.05-5.99-4.49-8.51-3.52"/>
    <path class="cls-2" d="M43.16,580.63c-.32,3.95-.65,7.93-.94,11.95-.29,4.02-.54,8.07-.7,12.16-.16,4.08-.22,8.2-.14,12.33.08,4.13.3,8.29.69,12.45"/>
    <path class="cls-2" d="M60.63,658.33c-1.06-.49-2.07-.9-3.09-1.25-1.02-.35-2.04-.64-3.05-.87-1.01-.23-2-.39-2.97-.48-.49-.05-.97-.08-1.45-.09-.48-.02-.95-.01-1.42,0"/>
    <path class="cls-2" d="M72.79,666.83c-.48-.46-.97-.91-1.46-1.34s-.99-.86-1.49-1.27c-1-.82-2.01-1.59-3.03-2.3s-2.06-1.37-3.08-1.97-2.04-1.13-3.1-1.62"/>
    <path class="cls-2" d="M81.46,647.43c1.65-3.29,3.28-6.66,4.86-10.11,1.58-3.45,3.1-6.99,4.51-10.58,1.41-3.6,2.72-7.26,3.89-10.97s2.2-7.47,3.07-11.26"/>
    <path class="cls-2" d="M85.9,684.85c.18.36.35.72.52,1.08.09.18.17.36.25.54.01.02.02.05.03.06,0,.02.01.03.02.05.01.03.03.06.04.09.03.06.06.12.08.18.22.5.46,1.03.69,1.59.48,1.13.97,2.4,1.46,3.8.48,1.4.96,2.93,1.38,4.56.05.2.1.41.16.62.03.1.05.21.08.31s.05.2.07.29c.09.38.17.76.25,1.13.16.74.3,1.47.41,2.17"/>
    <path class="cls-2" d="M80.76,304.14c0-1.42-.14-2.91-.42-4.45s-.71-3.14-1.28-4.73c0-.02-.02-.05-.03-.07,0-.02-.02-.04-.02-.06-.01-.04-.03-.08-.05-.13-.03-.08-.06-.17-.1-.26-.07-.17-.13-.35-.2-.53-.14-.36-.3-.73-.47-1.11-.34-.77-.74-1.6-1.19-2.45,0,0,0-.01,0-.02,0,0,0,0,0-.01,0,0,0-.01-.01-.02,0-.01-.01-.03-.02-.04-.01-.03-.03-.06-.05-.09-.03-.06-.06-.12-.1-.18-.07-.13-.15-.26-.23-.41-.16-.29-.35-.62-.58-.98-.44-.73-1-1.6-1.7-2.57-.01-.02-.02-.03-.03-.04s-.02-.03-.03-.04c-.02-.02-.04-.05-.05-.07-.04-.05-.07-.1-.11-.15-.07-.1-.14-.19-.21-.29-.14-.19-.28-.37-.42-.55-.28-.35-.55-.69-.81-1-.26-.31-.51-.61-.76-.88-.06-.07-.12-.14-.19-.22-.07-.08-.16-.17-.24-.26-.16-.18-.32-.35-.48-.52-1.26-1.34-2.47-2.43-3.58-3.34-.02-.01-.03-.03-.05-.04-.02-.02-.04-.03-.06-.05-.04-.03-.08-.07-.12-.1-.08-.07-.17-.13-.25-.2-.17-.13-.33-.26-.5-.39-.33-.25-.66-.49-.99-.73-.66-.46-1.31-.89-1.94-1.27-1.28-.77-2.5-1.37-3.68-1.84-.29-.12-.58-.22-.88-.33-.29-.1-.59-.19-.88-.28-.59-.17-1.17-.31-1.74-.4-1.15-.2-2.28-.24-3.34-.11-.02,0-.03,0-.05,0-.02,0-.03,0-.04,0-.03,0-.06,0-.09.01-.06,0-.12.02-.17.03-.12.02-.23.04-.35.06-.23.05-.47.1-.7.17-.47.13-.94.31-1.41.55-.12.06-.23.12-.35.19-.01,0-.03.02-.04.02-.01,0-.02.01-.03.02-.02.01-.04.03-.07.04-.04.03-.09.05-.13.08-.18.11-.37.24-.56.38-.38.28-.77.62-1.18,1.05,0,0,0,0-.01.01,0,0,0,0-.01.01,0,0-.02.02-.03.03-.02.02-.03.04-.05.06-.03.04-.07.08-.1.11-.07.08-.13.15-.19.22-.12.15-.23.29-.34.43-.21.28-.38.54-.52.77-.28.46-.45.79-.55.98,0,0,0,0,0,0,0,0,0,0,0,.01,0,.01,0,.02-.01.03,0,.02-.02.04-.03.06-.02.04-.04.08-.05.11-.04.08-.07.15-.11.23-.07.15-.13.3-.2.45-.13.3-.24.59-.34.88-.21.58-.37,1.13-.5,1.65,0,.02,0,.03-.01.05,0,.02,0,.04-.01.06,0,.04-.02.08-.03.11-.02.08-.04.15-.06.23-.04.15-.07.31-.11.47-.07.32-.13.65-.19.99-.06.34-.11.7-.16,1.05-.05.35-.09.69-.12,1.03-.14,1.37-.2,2.82-.18,4.31"/>
    <path class="cls-2" d="M182.95,557.05c-.1,6.67-.2,13.32-.3,19.93"/>
    <path class="cls-2" d="M43.88,289.9c.02,1.4.11,2.88.28,4.44.17,1.56.43,3.19.77,4.83,0,.03.01.05.02.07,0,.02,0,.04.01.06,0,.04.02.09.03.13.02.09.04.18.06.26.04.18.08.36.12.55.09.37.18.76.28,1.16.21.8.45,1.66.74,2.56,0,0,0,.01,0,.02,0,0,0,0,0,.01,0,0,0,.01,0,.02,0,.01,0,.03.01.04,0,.03.02.06.03.09.02.06.04.13.06.19.04.13.09.28.14.43.1.31.23.65.37,1.04.28.77.65,1.69,1.11,2.72.01.03.03.06.04.1.01.03.03.06.04.09.03.06.05.12.08.18.05.12.11.23.16.35.11.23.22.45.33.67.22.44.44.85.66,1.25.44.8.88,1.51,1.31,2.16.86,1.3,1.67,2.31,2.39,3.12,0,0,.01.01.02.02s.02.02.02.03c.02.02.03.04.05.05.03.04.07.07.1.11.07.07.13.14.2.21.13.14.27.28.4.42.27.27.54.53.81.78.55.5,1.11.96,1.67,1.37,1.12.82,2.25,1.47,3.42,1.96s2.37.84,3.62,1.02c1.25.18,2.56.2,3.86.02.02,0,.04,0,.06,0,.02,0,.04,0,.05,0,.03,0,.07-.01.11-.02.07-.01.14-.02.21-.03.14-.02.29-.05.44-.08.29-.06.59-.13.89-.21.61-.17,1.23-.38,1.86-.66.16-.07.32-.14.48-.22.02,0,.04-.02.06-.03.02,0,.03-.02.05-.02.03-.01.06-.03.09-.05.06-.03.12-.06.19-.09.25-.13.51-.27.78-.43.54-.32,1.12-.71,1.73-1.2,0,0,0,0,.02-.01,0,0,.01-.01.02-.02.01-.01.03-.02.04-.03.03-.02.05-.04.08-.06.05-.04.1-.08.15-.13.1-.08.2-.17.29-.25.19-.17.36-.33.52-.48.32-.31.59-.6.82-.85.45-.51.73-.87.89-1.08,0,0,0,0,0,0s0,0,.01-.02c0-.01.02-.02.02-.03.02-.02.03-.04.05-.06.03-.04.06-.08.09-.12.06-.08.12-.16.18-.25.12-.16.23-.33.33-.49.21-.32.4-.64.58-.96.35-.62.64-1.21.88-1.77,0-.02.01-.03.02-.05s.02-.04.03-.06c.02-.04.03-.08.05-.12.03-.08.07-.16.1-.24.07-.16.13-.33.19-.5.12-.34.24-.68.35-1.04s.21-.74.3-1.1.17-.72.24-1.07c.27-1.42.41-2.91.4-4.42"/>
    <path class="cls-2" d="M97.8,604.51c1.7-7.36,2.76-14.83,3.29-22.21.54-7.38.56-14.67.53-21.89"/>
    <path class="cls-2" d="M115.01,717.2c0-1.28-.05-2.68-.14-4.19-.1-1.51-.24-3.13-.45-4.79,0-.03,0-.05,0-.08s0-.04,0-.06c0-.04-.01-.09-.02-.13-.01-.09-.02-.17-.03-.26-.02-.17-.05-.35-.07-.53-.05-.35-.1-.72-.16-1.08-.11-.73-.24-1.49-.38-2.28-.28-1.57-.63-3.23-1.05-4.95,0-.01,0-.03,0-.04s0-.02,0-.03c0-.02,0-.04-.02-.06-.01-.04-.02-.08-.03-.13-.02-.08-.04-.17-.06-.25-.04-.17-.09-.34-.13-.52-.09-.35-.18-.71-.28-1.07-.2-.73-.41-1.49-.64-2.29-.47-1.59-1.02-3.31-1.67-5.12-.01-.03-.02-.06-.03-.08,0-.03-.02-.05-.03-.08-.02-.05-.04-.1-.05-.15-.04-.1-.07-.2-.11-.3-.07-.2-.15-.4-.22-.6-.15-.4-.3-.8-.45-1.19-.3-.79-.62-1.56-.95-2.36-.01-.02-.02-.05-.03-.08s-.02-.06-.04-.09c-.02-.06-.05-.12-.07-.17-.05-.11-.1-.23-.14-.34-.1-.22-.19-.44-.28-.66-.19-.43-.37-.84-.54-1.23-.35-.78-.68-1.47-.98-2.12,0-.01,0-.02-.02-.03,0-.01-.01-.03-.02-.04-.01-.03-.03-.06-.04-.09-.03-.06-.05-.11-.08-.17-.05-.11-.11-.22-.16-.33-.11-.22-.22-.44-.32-.66-.22-.43-.43-.86-.64-1.27-.43-.83-.85-1.62-1.27-2.38-.83-1.51-1.63-2.87-2.39-4.11,0,0-.01-.02-.02-.03s-.02-.03-.02-.04c-.02-.03-.03-.05-.05-.08-.03-.05-.06-.1-.09-.15-.06-.1-.13-.2-.19-.3-.13-.2-.25-.4-.38-.6-.25-.4-.5-.79-.75-1.17-.5-.77-.99-1.5-1.48-2.21-.98-1.42-1.93-2.73-2.87-3.96-.01-.02-.03-.04-.05-.06-.02-.02-.03-.04-.05-.07-.03-.05-.07-.09-.1-.13-.07-.09-.14-.18-.2-.26-.14-.18-.27-.35-.4-.52-.27-.35-.54-.69-.81-1.02-.53-.67-1.06-1.31-1.59-1.95-.03-.04-.07-.08-.1-.12-.03-.04-.07-.08-.1-.12-.07-.08-.14-.17-.21-.25-.14-.16-.28-.33-.42-.49-.28-.33-.56-.65-.84-.97-.56-.64-1.12-1.27-1.68-1.87-.03-.04-.07-.08-.1-.11-.03-.04-.07-.07-.1-.11-.07-.07-.13-.14-.2-.22-.14-.15-.27-.29-.41-.44-.28-.3-.56-.59-.85-.9-.58-.6-1.19-1.22-1.82-1.84,0,0-.02-.02-.03-.03,0,0-.01-.01-.02-.02-.01-.01-.03-.03-.04-.04-.03-.03-.06-.06-.09-.09-.06-.06-.12-.12-.19-.18-.13-.13-.27-.26-.42-.41-.3-.29-.63-.61-1.02-.97-.02-.02-.05-.05-.07-.07s-.05-.05-.08-.07c-.05-.05-.1-.09-.15-.14-.1-.09-.19-.18-.28-.26-.18-.17-.35-.32-.5-.46-.3-.28-.54-.49-.72-.65"/>
    <path class="cls-2" d="M71.11,315.21c-.13.05-.26.09-.39.13-.23.07-.45.14-.68.19-.11.03-.22.05-.33.08-.05.01-.11.02-.16.03-.03,0-.05.01-.08.02s-.06.01-.09.02c-1.96.36-3.85.13-5.58-.55-.86-.34-1.69-.79-2.51-1.38-.41-.3-.82-.63-1.22-.99-.2-.18-.4-.37-.59-.57-.1-.1-.2-.2-.29-.31-.05-.05-.1-.1-.14-.16-.02-.03-.05-.05-.07-.08-.02-.03-.04-.05-.07-.07-.34-.39-.67-.79-1.01-1.25-.17-.23-.34-.47-.51-.72-.08-.13-.17-.25-.25-.39-.04-.07-.08-.13-.13-.2-.02-.03-.04-.07-.06-.1-.01-.02-.02-.03-.03-.05,0,0-.01-.02-.02-.03s0-.01-.01-.02c-.22-.37-.48-.81-.76-1.35-.14-.27-.29-.56-.44-.88-.08-.16-.15-.33-.23-.5-.04-.09-.08-.17-.12-.26-.02-.04-.04-.09-.06-.14-.02-.05-.04-.1-.06-.15-.34-.79-.6-1.51-.81-2.12-.11-.31-.2-.58-.28-.83-.04-.13-.08-.24-.11-.36-.02-.06-.03-.11-.05-.16,0-.03-.02-.05-.02-.08,0-.01,0-.03-.01-.04,0,0,0-.01,0-.02,0,0,0-.02,0-.03-.2-.68-.38-1.36-.54-2-.08-.32-.15-.64-.21-.94-.03-.15-.06-.31-.1-.45-.02-.07-.03-.15-.04-.22,0-.04-.01-.07-.02-.11,0-.02,0-.04-.01-.06,0-.02,0-.04-.01-.06-.53-2.76-.77-5.42-.8-7.74"/>
    <path class="cls-2" d="M173.27,704.95c1.36-.84,2.68-1.66,3.98-2.47.79-.49,1.58-.98,2.35-1.46.1-.06.19-.12.29-.18.02-.02.05-.03.08-.05.03-.02.06-.04.09-.05.06-.04.12-.07.18-.11.23-.14.47-.29.7-.43.46-.29.92-.57,1.38-.86,1.83-1.13,3.59-2.23,5.29-3.28,3.41-2.11,6.57-4.07,9.49-5.88"/>
    <path class="cls-2" d="M137.2,225.76c19.77.25,43.22-2.68,59.23-7.94,16.02-5.27,24.62-12.88,24.27-19.19"/>
    <path class="cls-2" d="M76.76,216.99c14.86,5.36,38.34,8.8,60.44,8.77"/>
    <path class="cls-2" d="M76.59,205.38c14.89,5.31,38.47,8.72,60.67,8.7"/>
    <path class="cls-2" d="M176.67,589.78c-2.98,1.84-6.2,3.83-9.67,5.97-1.74,1.07-3.54,2.18-5.4,3.32-.23.14-.47.29-.7.43-.12.07-.24.14-.35.22-.03.02-.06.04-.09.05-.03.02-.05.03-.07.05-.05.03-.1.06-.14.09-.39.24-.78.48-1.18.72-.11.07-.22.13-.33.2"/>
    <path class="cls-2" d="M137.26,214.07c19.82.24,43.32-2.64,59.37-7.85,16.06-5.21,24.67-12.73,24.32-18.97"/>
    <line class="cls-2" x1="44.85" y1="644.88" x2="44.22" y2="644.55"/>
    <line class="cls-2" x1="175.93" y1="587.01" x2="179.35" y2="585.05"/>
    <path class="cls-2" d="M78.54,202.16c-1.75-.6-3.41-1.23-4.97-1.88-.78-.32-1.54-.65-2.27-.99-.37-.17-.73-.34-1.08-.51-.18-.09-.35-.17-.53-.26-.09-.04-.17-.09-.26-.13-.04-.02-.09-.04-.13-.07-.04-.02-.09-.04-.13-.07-1.45-.73-2.79-1.49-4.01-2.26-.61-.39-1.19-.78-1.74-1.17-.28-.2-.54-.4-.8-.6-.13-.1-.26-.2-.39-.3-.06-.05-.13-.1-.19-.15-.03-.03-.06-.05-.09-.08s-.06-.05-.1-.08c-1.02-.84-1.91-1.69-2.66-2.56-.37-.43-.72-.87-1.02-1.3-.15-.22-.3-.44-.43-.66-.07-.11-.13-.22-.2-.33-.03-.05-.06-.11-.09-.17-.03-.06-.06-.11-.09-.17-.97-1.8-1.36-3.62-1.18-5.43.09-.91.33-1.81.7-2.7.19-.45.41-.89.67-1.33.13-.22.27-.44.41-.66.07-.11.15-.22.23-.33.04-.05.08-.11.12-.16.04-.05.08-.11.12-.16.64-.86,1.41-1.7,2.31-2.52.45-.41.93-.82,1.44-1.22.26-.2.52-.4.79-.6.14-.1.27-.2.41-.3.07-.05.14-.1.21-.15.04-.02.07-.05.11-.07.04-.02.07-.05.1-.07,1.11-.76,2.31-1.5,3.62-2.22.65-.36,1.34-.71,2.04-1.06.35-.17.71-.35,1.08-.52.18-.09.37-.17.55-.26.09-.04.19-.08.28-.13.05-.02.09-.04.14-.06.05-.02.09-.04.14-.06,2.87-1.27,6.06-2.45,9.55-3.52,1.75-.54,3.57-1.05,5.45-1.53.94-.24,1.9-.47,2.87-.7.49-.11.98-.23,1.47-.34.25-.05.5-.11.75-.16.12-.03.25-.05.37-.08.06-.01.12-.03.19-.04s.13-.03.2-.04c2.12-.45,4.31-.87,6.56-1.25,1.12-.19,2.26-.37,3.41-.55.57-.09,1.15-.17,1.73-.25.29-.04.58-.08.88-.12.15-.02.29-.04.44-.06.07,0,.15-.02.22-.03.07-.01.15-.02.23-.03,2.44-.32,4.93-.61,7.46-.85,1.26-.12,2.53-.23,3.82-.33.64-.05,1.28-.1,1.93-.14.32-.02.65-.05.97-.07.16-.01.32-.02.49-.03s.33-.02.49-.03c5.3-.33,10.68-.49,16.08-.47,2.7,0,5.41.06,8.09.16,1.34.05,2.68.11,4.01.18.67.04,1.33.07,2,.11.33.02.67.04,1,.06.17.01.33.02.5.03.17.01.33.02.49.03,2.61.18,5.17.4,7.7.66,1.26.13,2.52.27,3.76.42.62.08,1.24.15,1.86.23.31.04.62.08.93.12.15.02.31.04.46.06.08.01.15.02.23.03.08.01.15.02.22.03,2.37.33,4.66.69,6.91,1.09,1.12.2,2.23.41,3.33.62.55.11,1.09.22,1.63.33.27.06.54.11.81.17.13.03.27.06.4.09.07.01.14.03.2.04.07.01.13.03.19.04,4.04.88,7.8,1.87,11.31,2.97,1.8.57,3.47,1.14,5.06,1.74.8.3,1.57.6,2.33.91.38.16.75.31,1.12.47.18.08.37.16.55.24.09.04.18.08.27.12.04.02.09.04.14.06s.09.04.14.06c1.51.68,2.93,1.39,4.24,2.11.66.36,1.28.73,1.89,1.1.3.19.6.37.88.56.14.09.29.19.43.29.07.05.14.1.21.14.03.02.07.05.1.07.04.02.07.05.11.07,1.14.8,2.17,1.61,3.06,2.44.45.42.86.83,1.25,1.26.19.21.38.42.55.64.09.11.17.21.26.32.04.05.08.11.12.16.04.05.08.11.12.16,1.31,1.76,2.06,3.55,2.24,5.37.09.91.04,1.82-.16,2.72-.1.45-.23.9-.4,1.36-.09.23-.18.45-.28.68-.05.11-.11.23-.16.34-.03.06-.06.11-.09.17s-.06.11-.09.17c-.48.89-1.09,1.75-1.84,2.61-.38.43-.78.86-1.23,1.28-.22.21-.45.42-.69.63-.12.11-.24.21-.36.31-.06.05-.12.1-.19.16-.03.03-.06.05-.09.08-.03.03-.06.05-.09.08-.99.8-2.09,1.59-3.31,2.35-.61.38-1.25.76-1.92,1.13-.33.19-.68.37-1.03.55-.17.09-.35.18-.53.27-.09.05-.18.09-.27.14-.05.02-.09.05-.14.07s-.09.04-.13.07c-2.76,1.37-5.88,2.65-9.38,3.83-1.75.59-3.59,1.15-5.5,1.69-.96.27-1.93.53-2.93.78-.5.13-1,.25-1.51.37-.25.06-.51.12-.77.18-.13.03-.26.06-.39.09-.06.01-.13.03-.19.04s-.13.03-.2.05c-2.18.5-4.45.97-6.79,1.4-1.17.21-2.35.42-3.55.61-.6.1-1.21.19-1.82.29-.3.05-.61.09-.92.14-.15.02-.31.05-.46.07-.08.01-.15.02-.23.03-.08.01-.16.02-.24.03-2.56.36-5.19.69-7.87.96-1.34.14-2.68.26-4.04.38-.68.06-1.36.11-2.05.16-.34.03-.69.05-1.03.08-.17.01-.34.02-.52.04-.17.01-.35.02-.53.04-5.63.38-11.37.56-17.14.54-2.88-.01-5.77-.07-8.63-.18-1.43-.05-2.85-.12-4.27-.2-.71-.04-1.42-.08-2.13-.13-.35-.02-.71-.05-1.06-.07-.18-.01-.35-.02-.53-.04-.18-.01-.35-.03-.52-.04-2.78-.21-5.49-.45-8.16-.75-1.34-.15-2.66-.31-3.97-.48-.66-.08-1.31-.17-1.96-.26-.33-.05-.65-.09-.97-.14-.16-.02-.32-.05-.49-.07-.08-.01-.16-.02-.24-.04-.08-.01-.16-.02-.23-.03-2.48-.37-4.88-.78-7.22-1.22-1.17-.22-2.32-.45-3.45-.69-.57-.12-1.13-.24-1.69-.37-.28-.06-.56-.13-.83-.19-.14-.03-.28-.06-.41-.1-.07-.02-.14-.03-.21-.05-.07-.02-.13-.03-.2-.05-4.16-.98-7.97-2.07-11.48-3.28l-.05-.02Z"/>
    <path class="cls-2" d="M220.8,194.16s0,0,0,0c0,0,0,0,0,.01,0,0,0,0,0,0,0,0,0,0,0,0,0,0,0,0,0,0,.35.47.66.95.94,1.43.14.24.27.48.39.72.06.12.12.24.17.36.03.06.05.12.08.18.01.03.03.06.04.09,0,.02.01.03.02.05,0,0,0,.02,0,.02,0,0,0,0,0,.01,0,0,0,0,0,0,0,0,0,0,0,0,.04.09.11.26.2.5.04.12.09.26.14.42.03.08.05.17.08.26.01.05.03.09.04.14,0,.02.01.05.02.07,0,.02.01.05.02.07.1.38.16.69.2.93.02.12.04.23.05.32,0,.04.01.09.02.12,0,.02,0,.04,0,.05,0,0,0,.02,0,.02,0,0,0,0,0,.01,0,0,0,0,0,0,0,0,0,0,0,0,0,0,0,0,0,0,.05.49.07.98.04,1.47-.01.25-.03.49-.06.74-.02.12-.03.25-.05.37-.01.06-.02.12-.03.18,0,.03-.01.06-.02.09,0,.02,0,.03,0,.05,0,0,0,.02,0,.02,0,0,0,0,0,.01,0,0,0,0,0,0,0,0,0,0,0,0-.02.09-.05.26-.12.5-.03.12-.07.26-.12.43-.02.08-.05.17-.08.26-.02.05-.03.09-.05.14,0,.02-.02.05-.03.07,0,.02-.02.05-.03.07-.14.38-.27.69-.39.93-.06.12-.11.23-.15.32-.02.04-.04.09-.06.12,0,.02-.02.04-.03.05,0,0,0,.02-.01.02,0,0,0,0,0,.01,0,0,0,0,0,0s0,0,0,0c-.25.47-.53.95-.86,1.42-.16.24-.33.47-.51.71-.09.12-.18.23-.28.35-.05.06-.09.12-.14.18-.02.03-.05.06-.07.09-.01.01-.02.03-.04.04,0,0-.01.01-.02.02,0,0,0,0,0,.01,0,0,0,0,0,0,0,0,0,0,0,0-.08.09-.21.25-.42.48-.1.12-.23.25-.37.4-.07.08-.15.16-.23.24-.04.04-.09.09-.13.13-.02.02-.05.05-.07.07-.02.02-.05.05-.07.07-.36.36-.68.65-.94.87-.13.11-.24.21-.34.3-.05.04-.09.08-.13.11-.02.02-.04.03-.06.05,0,0-.02.01-.03.02,0,0,0,0-.01.01,0,0,0,0,0,0,0,0,0,0-.01,0-.51.43-1.06.86-1.65,1.28-.29.21-.59.42-.9.63-.15.11-.31.21-.47.31-.08.05-.16.1-.24.16-.04.03-.08.05-.12.08-.02.01-.04.03-.06.04-.01,0-.02.01-.03.02,0,0,0,0-.02,0,0,0,0,0,0,0s0,0,0,0c-.12.08-.34.22-.67.43-.17.1-.36.22-.59.36-.11.07-.23.14-.36.21-.06.04-.13.08-.2.12-.03.02-.07.04-.1.06-.03.02-.07.04-.1.06-.55.32-1.02.57-1.39.77-.19.1-.35.19-.49.26-.07.04-.13.07-.19.1-.03.01-.06.03-.08.04-.01,0-.02.01-.04.02,0,0-.01,0-.02,0,0,0,0,0,0,0s0,0-.02,0c-.71.36-1.47.73-2.25,1.09-.39.18-.78.36-1.19.53-.2.09-.4.18-.61.26-.1.04-.2.09-.31.13-.05.02-.1.04-.15.07-.03.01-.05.02-.08.03-.01,0-.03.01-.04.02,0,0-.01,0-.02,0,0,0,0,0,0,0,0,0,0,0,0,0-.16.07-.44.18-.86.35-.21.09-.46.18-.74.3-.14.06-.29.11-.45.18-.08.03-.16.06-.25.1-.04.02-.09.03-.13.05-.04.02-.09.03-.13.05-.69.26-1.26.47-1.72.63-.23.08-.43.15-.59.21-.08.03-.16.06-.23.08-.03.01-.07.02-.1.03-.01,0-.03.01-.04.02,0,0-.01,0-.02,0,0,0,0,0-.01,0s-.01,0-.02,0c-.91.32-1.87.63-2.84.94-.49.15-.98.3-1.48.45-.25.07-.5.15-.75.22-.13.04-.25.07-.38.11-.06.02-.13.04-.19.05-.03,0-.06.02-.1.03-.02,0-.03,0-.05.01,0,0-.02,0-.02,0,0,0,0,0-.01,0,0,0,0,0,0,0-.2.06-.54.15-1.05.3-.26.07-.56.15-.9.25-.17.05-.35.09-.55.15-.1.03-.2.05-.3.08-.05.01-.1.03-.16.04s-.1.03-.16.04c-.83.22-1.51.38-2.06.52-.27.07-.51.12-.7.17-.1.02-.19.04-.27.06-.04,0-.08.02-.11.03-.02,0-.03,0-.05.01,0,0-.02,0-.02,0,0,0,0,0-.01,0,0,0,0,0,0,0,0,0,0,0-.01,0-1.15.27-2.34.54-3.55.79-.6.13-1.21.25-1.82.37-.31.06-.61.12-.92.18-.15.03-.31.06-.46.09-.08.01-.15.03-.23.04-.04,0-.08.01-.12.02-.02,0-.04,0-.06.01,0,0-.02,0-.03,0,0,0-.01,0-.01,0,0,0,0,0,0,0-.24.04-.66.12-1.28.24-.31.06-.68.12-1.1.19-.21.04-.43.07-.66.11-.12.02-.24.04-.36.06-.06.01-.13.02-.19.03-.06.01-.13.02-.19.03-1,.17-1.82.29-2.47.39-.32.05-.61.09-.85.13-.12.02-.23.03-.32.05-.05,0-.09.01-.14.02-.02,0-.04,0-.06,0-.01,0-.02,0-.03,0,0,0,0,0-.01,0,0,0,0,0,0,0,0,0,0,0-.01,0-1.35.2-2.74.39-4.14.56-.7.09-1.4.17-2.1.25-.35.04-.71.08-1.06.12-.18.02-.35.04-.53.06-.09,0-.18.02-.27.03-.04,0-.09,0-.13.01-.02,0-.04,0-.07,0-.01,0-.02,0-.03,0,0,0-.01,0-.02,0,0,0,0,0,0,0-.27.03-.75.08-1.47.15-.36.04-.77.08-1.25.12-.24.02-.49.05-.75.07-.13.01-.27.02-.41.04-.07,0-.14.01-.21.02-.07,0-.14.01-.21.02-1.12.1-2.05.17-2.78.22-.37.03-.68.05-.95.07-.13,0-.26.02-.36.03-.05,0-.11,0-.15.01-.02,0-.05,0-.07,0-.01,0-.02,0-.03,0,0,0-.01,0-.02,0,0,0,0,0,0,0,0,0,0,0-.02,0-1.48.1-3,.19-4.51.27-.76.04-1.51.07-2.27.1-.38.02-.76.03-1.14.04-.19,0-.38.01-.57.02-.1,0-.19,0-.29,0-.05,0-.1,0-.14,0-.02,0-.05,0-.07,0-.01,0-.02,0-.04,0,0,0-.01,0-.02,0,0,0,0,0,0,0-.29,0-.8.03-1.57.05-.38,0-.82.02-1.33.03-.25,0-.52.01-.8.02-.14,0-.29,0-.44,0-.07,0-.15,0-.23,0-.08,0-.15,0-.22,0-1.19.02-2.16.02-2.92.03-.38,0-.72,0-1,0-.14,0-.27,0-.38,0-.06,0-.11,0-.16,0-.03,0-.05,0-.07,0-.01,0-.02,0-.04,0,0,0-.01,0-.02,0h0c-.13,0-.49,0-1.11,0-.61,0-1.48-.01-2.59-.03-.56,0-1.17-.02-1.85-.04-.09,0-.17,0-.26,0-.04,0-.09,0-.13,0-.02,0-.05,0-.07,0s-.03,0-.04,0c-.1,0-.2,0-.29,0-.2,0-.39-.01-.58-.02-.78-.02-1.55-.05-2.31-.08s-1.51-.06-2.25-.1c-.09,0-.18,0-.28-.01-.1,0-.19,0-.3-.01-.21-.01-.44-.02-.67-.03-.45-.02-.89-.05-1.32-.07-1.72-.1-3.32-.21-4.78-.32-1.46-.11-2.79-.23-4-.34-.15-.01-.3-.03-.45-.04-.15-.01-.3-.03-.45-.04-.31-.03-.63-.06-.97-.1-.66-.07-1.34-.14-2.03-.22-1.39-.15-2.85-.33-4.38-.53-.19-.03-.38-.05-.58-.08-.05,0-.1-.01-.14-.02-.05,0-.09-.01-.13-.02-.08-.01-.15-.02-.22-.03-.28-.04-.57-.08-.87-.12-.6-.08-1.22-.18-1.87-.27-1.3-.2-2.7-.42-4.2-.68-.19-.03-.38-.07-.56-.1-.05,0-.09-.02-.14-.02s-.08-.01-.12-.02c-.08-.01-.16-.03-.24-.04-.32-.06-.64-.12-.96-.17-.64-.12-1.27-.24-1.89-.36-.62-.12-1.23-.24-1.84-.37-.3-.06-.6-.12-.9-.19-.07-.02-.15-.03-.22-.05-.04,0-.07-.02-.11-.02-.02,0-.04,0-.06-.01-.02,0-.05-.01-.07-.02-.21-.04-.41-.09-.61-.13-1.57-.34-2.84-.64-3.82-.88-.49-.12-.92-.23-1.28-.32-.04-.01-.09-.02-.13-.03-.01,0-.02,0-.04,0-.01,0-.03,0-.05-.01-.03,0-.07-.02-.1-.03-.13-.03-.27-.07-.4-.1-.27-.07-.53-.14-.8-.21-1.06-.28-2.1-.57-3.12-.87-2.03-.59-3.98-1.22-5.84-1.87"/>
    <line class="cls-2" x1="58.3" y1="293.55" x2="58.15" y2="293.6"/>
    <path class="cls-2" d="M53.5,186.56c-.08,5.77,6.24,11.98,17.64,16.73"/>
    <line class="cls-2" x1="58.51" y1="292.82" x2="58.33" y2="292.88"/>
    <line class="cls-2" x1="66.37" y1="336.22" x2="66.45" y2="344.87"/>
    <line class="cls-2" x1="64.41" y1="345.03" x2="64.31" y2="335.5"/>
    <line class="cls-2" x1="68.33" y1="336.87" x2="68.42" y2="346.75"/>
    <line class="cls-2" x1="63.41" y1="345" x2="63.31" y2="335.13"/>
    <line class="cls-2" x1="56.56" y1="293.51" x2="56.31" y2="293.6"/>
    <line class="cls-2" x1="137.1" y1="255.51" x2="137.1" y2="255.86"/>
    <path class="cls-2" d="M64.24,302.59c0,.25.12.48.29.54"/>
    <path class="cls-2" d="M64.79,288.91c-.29.06-.62.6-.59.96"/>
    <path class="cls-2" d="M242.38,278.34s0-.02,0-.03v.03Z"/>
    <line class="cls-2" x1="62.07" y1="291.58" x2="60.51" y2="292.13"/>
    <path class="cls-2" d="M243.32,248.53s0,.08,0,.12"/>
    <line class="cls-2" x1="65.65" y1="291.39" x2="64.09" y2="291.94"/>
    <path class="cls-2" d="M64.16,289.85c-.61-.23-1.22-.3-1.78-.21-.28.05-.55.14-.8.27-.13.06-.25.14-.37.23-.12.09-.24.19-.35.3-.45.44-.8,1.03-1.02,1.74-.03.09-.06.18-.08.27s-.04.17-.06.26c-.04.17-.07.35-.1.54-.05.37-.08.76-.07,1.15,0,0,0,.01,0,.02,0,0,0,0,0,0,0,0,0,.01,0,.02,0,.01,0,.03,0,.05,0,.04,0,.08,0,.13,0,.1,0,.23.02.39,0,.04,0,.09.01.13s0,.08.01.11c0,.07.01.13.02.18.01.1.02.16.03.2,0,0,0,0,0,0s0,.01,0,.02c0,.01,0,.03,0,.04,0,.03,0,.05.01.08,0,.05.02.1.03.16.02.1.04.21.06.31.04.21.09.41.15.62.01.05.03.11.04.16s.03.11.05.17c.03.11.07.22.11.33.07.22.16.44.24.65.01.03.02.05.03.07,0,.02.02.05.03.07.02.05.04.1.07.15.05.1.1.21.16.35,0,0,0,.02.01.03s.01.02.02.03c.01.02.02.04.03.06.02.04.04.08.06.11.04.07.07.13.1.18.05.1.09.16.11.2,0,0,0,0,0,0,0,0,0,.01.01.02,0,.01.01.03.02.04.01.02.03.05.04.07.03.05.06.1.09.14.06.1.12.19.18.28.12.19.26.37.38.53.02.02.03.04.05.06.01.02.03.04.04.06.03.04.06.08.1.12.07.08.14.17.23.27,0,0,.01.01.02.02,0,0,.02.02.02.02.02.02.03.03.04.05.03.03.06.06.08.08.05.05.1.1.13.13.07.07.11.11.14.13,0,0,0,0,0,0,0,0,0,0,.01.01,0,0,.02.02.03.02.02.02.03.03.05.05.03.03.07.06.1.09.07.06.14.12.21.17.14.11.28.22.43.31.29.19.58.35.88.46"/>
    <path class="cls-2" d="M64.79,288.91c-.88-.35-1.78-.39-2.54-.12"/>
    <path class="cls-2" d="M55.39,293.15c0,.07.08.15.22.2"/>
    <path class="cls-2" d="M68.5,308.05c2.6-.79,4.49-4.45,4.36-8.48"/>
    <path class="cls-2" d="M242.3,286.97s0,.03,0,.04v-.04Z"/>
    <path class="cls-2" d="M243.32,248.53h0s0,0,0,0Z"/>
    <line class="cls-2" x1="60.38" y1="665.55" x2="59.21" y2="666.22"/>
    <path class="cls-2" d="M55.61,293.35c-.36-5.74,3.74-9.45,7.92-7.85,4.18,1.6,8.45,8.51,8.19,14.06"/>
    <path class="cls-2" d="M242.52,264.75c0-.05,0-.11-.01-.16"/>
    <path class="cls-2" d="M44.65,536.43c2.78,2.71,6.14,5.31,10.03,7.75,3.89,2.43,8.31,4.7,13.17,6.76,4.87,2.06,10.19,3.9,15.85,5.49,5.67,1.59,11.68,2.93,17.93,3.98"/>
    <path class="cls-2" d="M242.38,278.28s0,.04,0,.06v-.06Z"/>
    <path class="cls-2" d="M236.71,257.19c-.06.66-.13,1.33-.18,2.02-.03.36-.06.72-.09,1.08-.01.18-.03.36-.04.54,0,.09-.01.18-.02.27,0,.05,0,.09,0,.14,0,.02,0,.04,0,.07s0,.05,0,.07c-.04.66-.08,1.36-.12,2.06"/>
    <path class="cls-2" d="M13.57,669.11c1.09,1.34,2.4,2.59,3.82,3.78,1.42,1.18,2.93,2.29,4.46,3.31"/>
    <path class="cls-2" d="M71.72,299.56c.24.12.88.12,1.14,0"/>
    <line class="cls-2" x1="43.95" y1="660.7" x2="38.65" y2="663.72"/>
    <line class="cls-2" x1="184.8" y1="583.92" x2="180.49" y2="586.39"/>
    <line class="cls-2" x1="57.46" y1="293.6" x2="58.15" y2="293.6"/>
    <line class="cls-2" x1="158.98" y1="604.95" x2="158.72" y2="604.84"/>
    <path class="cls-2" d="M156.69,562.32c1.54-.53,3.16-1.03,4.87-1.5"/>
    <path class="cls-2" d="M28.94,560.61c-.04.18-.07.37-.09.55"/>
    <path class="cls-2" d="M244.12,218.28c1.49,13.34-28.42,28.62-67.45,33.09"/>
    <path class="cls-2" d="M72.79,666.83c1.75,1.67,3.54,3.59,5.31,5.79"/>
    <path class="cls-2" d="M74.81,220.2s-.02,0-.04-.01h.04Z"/>
    <line class="cls-2" x1="65.72" y1="299.89" x2="64.17" y2="300.45"/>
    <path class="cls-2" d="M23.93,675.46c.52.35,1.04.69,1.56,1.02"/>
    <path class="cls-2" d="M194.01,165.29c-.23-.07-.49-.07-.74.02"/>
    <line class="cls-2" x1="21.84" y1="676.2" x2="22.72" y2="676.15"/>
    <line class="cls-2" x1="59.72" y1="647.94" x2="60.16" y2="648.22"/>
    <line class="cls-2" x1="58.67" y1="667.19" x2="59.21" y2="666.22"/>
    <line class="cls-2" x1="181.04" y1="588.54" x2="177.62" y2="590.5"/>
    <path class="cls-2" d="M233.83,263.01s0,0,0,0c.35-.92.67-1.74.95-2.45.14-.36.28-.69.41-1,.06-.15.13-.3.19-.45.03-.07.06-.14.09-.21.01-.03.03-.07.04-.1,0-.02.01-.03.02-.05,0,0,0-.02.01-.03s0-.02.01-.03c.64-1.51,1.26-2.86,1.82-4.05.28-.59.55-1.14.81-1.66.13-.26.25-.5.37-.74.06-.12.12-.24.18-.35.03-.06.06-.11.09-.17.01-.03.03-.06.04-.08,0-.01.01-.03.02-.04,0-.01.02-.03.02-.05,1.04-1.98,1.91-3.44,2.58-4.37.34-.47.62-.8.86-1.01.12-.1.23-.17.33-.2.05-.02.09-.02.14-.02.04,0,.08.01.12.03.07.04.14.11.19.22.03.05.05.12.07.19.01.04.02.07.03.11,0,.02,0,.04.01.06,0,.01,0,.02,0,.03,0,0,0,.01,0,.02,0,0,0,0,0,0,0,0,0,0,0,0,.02.12.04.29.06.53,0,.12.01.26.02.42,0,.08,0,.17,0,.26,0,.05,0,.09,0,.14,0,.02,0,.05,0,.08,0,.01,0,.03,0,.04,0,.01,0,.03,0,.04,0,.14,0,.27,0,.41"/>
    <path class="cls-2" d="M10.71,662.46h0s0,0,0,0Z"/>
    <path class="cls-2" d="M35.06,520.83h0s0,0,0,0Z"/>
    <path class="cls-2" d="M27.97,564.81c.05-.21.1-.43.15-.64.24-1,.48-2.01.72-3.01"/>
    <path class="cls-2" d="M67.41,303.25c1.6-.48,2.75-2.72,2.67-5.19"/>
    <path class="cls-2" d="M10.71,662.46s0-.05,0-.08v.08Z"/>
    <path class="cls-2" d="M27.97,564.81s0,0,0,0h0Z"/>
    <line class="cls-2" x1="89.18" y1="678.03" x2="88.62" y2="678.36"/>
    <path class="cls-2" d="M74.77,220.19c-18.54-6.15-29.09-17.21-21.19-26.72"/>
    <line class="cls-2" x1="35.26" y1="682.02" x2="30.39" y2="684.84"/>
    <path class="cls-2" d="M27.93,564.98c.01-.06.03-.11.04-.17"/>
    <path class="cls-2" d="M35.06,520.81c0-.62,0-1.23,0-1.82,0-.23,0-.45.01-.67"/>
    <path class="cls-2" d="M44.65,536.43c.37,14.57-.15,29.09-1.48,44.2"/>
    <path class="cls-2" d="M52.2,290.32c-.01-1.16.02-2.32.12-3.45.05-.56.12-1.12.2-1.66.04-.27.09-.54.14-.8.03-.13.05-.26.08-.39.01-.07.03-.13.04-.19,0-.03.01-.06.02-.1,0-.02,0-.03.01-.05,0-.02,0-.03,0-.04.1-.44.22-.88.36-1.31.07-.22.15-.44.23-.66.04-.11.08-.22.13-.33.02-.05.05-.11.07-.16.01-.03.02-.05.04-.08,0-.01.01-.03.02-.04,0,0,0-.01,0-.02,0,0,0,0,0-.01.11-.25.26-.55.46-.9.1-.17.21-.36.34-.55.06-.09.13-.19.21-.29.04-.05.07-.1.11-.15.02-.02.04-.05.06-.07.02-.02.04-.05.06-.07.31-.37.61-.65.88-.87.14-.11.27-.21.39-.29.06-.04.12-.08.18-.12.03-.02.06-.04.08-.05.01,0,.03-.02.04-.02,0,0,.01,0,.02-.01,0,0,0,0,.01,0,0,0,0,0,.01,0,.31-.18.63-.32.95-.43"/>
    <path class="cls-2" d="M81.46,647.43c-1.99,3.97-3.98,7.81-5.9,11.53"/>
    <path class="cls-2" d="M28.94,560.61c.25-1.12.51-2.24.78-3.35.03-.14.07-.28.1-.42.03-.14.07-.28.1-.42.03-.14.07-.28.1-.42.03-.14.07-.28.1-.42.03-.14.07-.28.11-.41s.07-.28.11-.41c.07-.28.14-.55.22-.83.07-.28.15-.55.22-.83s.15-.55.22-.83c.07-.28.15-.55.23-.83s.15-.55.23-.83c.15-.56.31-1.12.46-1.68s.31-1.13.46-1.7c.3-1.15.6-2.31.88-3.52s.54-2.46.77-3.76c.23-1.3.42-2.65.58-4.06.08-.7.14-1.41.2-2.14.06-.72.1-1.45.14-2.19.01-.22.02-.44.03-.66s.02-.44.03-.66.02-.44.02-.66.01-.44.02-.66c.02-.88.03-1.75.03-2.62,0-1.73-.01-3.42-.02-5.02,0-.16,0-.32,0-.48"/>
    <path class="cls-2" d="M31.32,672.97c.1-.59.21-1.19.35-1.79.07-.3.14-.6.22-.91.04-.15.08-.31.13-.47.04-.16.09-.31.13-.46.37-1.22.79-2.29,1.22-3.23.43-.94.88-1.74,1.32-2.43.22-.34.43-.66.63-.94.03-.04.05-.07.08-.11s.06-.08.09-.12c.07-.09.15-.2.23-.3.16-.21.32-.4.48-.6"/>
    <path class="cls-2" d="M43.54,656.56c1.69-.57,3.42-.85,5.12-.92"/>
    <path class="cls-2" d="M232.71,279.25c-.03.09-.39.17-.64.13"/>
    <line class="cls-2" x1="63.66" y1="369.48" x2="63.58" y2="362.16"/>
    <line class="cls-2" x1="64.65" y1="369.51" x2="64.58" y2="362.19"/>
    <path class="cls-2" d="M158.53,596.27c5.73-3.42,11.2-6.69,16.41-9.8"/>
    <path class="cls-2" d="M160.06,584.76c1.95-1.03,3.81-2.02,5.6-2.97"/>
    <path class="cls-2" d="M161.2,643.56c18.81,33.44,15.74,79.02-4.02,91.04"/>
    <path class="cls-2" d="M178.72,578.63c.75.68,1.36,1.44,1.73,2.32.82,1.91.56,4.37-.75,4.93"/>
  </g>
  <g id="_图层_2" data-name="图层 2">
    <g>
      <line class="cls-4" x1="138.18" y1="190.82" x2="252.1" y2="156.21"/>
      <polygon class="cls-6" points="249.89 163.26 269.9 150.81 246.35 151.58 249.89 163.26"/>
    </g>
    <g>
      <line class="cls-1" x1="136.99" y1="189.1" x2="136.99" y2="60.07"/>
      <polygon class="cls-7" points="143.09 64.23 136.99 41.47 130.88 64.23 143.09 64.23"/>
    </g>
    <g>
      <line class="cls-3" x1="135.61" y1="191.77" x2="261.19" y2="254.54"/>
      <polygon class="cls-5" points="254.74 258.14 277.83 262.86 260.19 247.23 254.74 258.14"/>
    </g>
    <path class="cls-6" d="M286.95,165.9v-10.54l-9.18-14.51h5.93l5.9,9.91,5.78-9.91h5.83l-9.21,14.54v10.51h-5.04Z"/>
    <path class="cls-7" d="M128.12,32.21v-4.56l13.16-16.25h-11.67v-4.24h18.34v3.93l-13.72,16.9h14.25v4.22h-20.35Z"/>
    <path class="cls-5" d="M284.89,278.34l8.56-13.07-7.76-11.98h5.91l5.03,8.05,4.92-8.05h5.86l-7.79,12.17,8.56,12.89h-6.1l-5.55-8.66-5.57,8.66h-6.07Z"/>
  </g>
</svg>