<svg xmlns="http://www.w3.org/2000/svg" viewBox="0 0 474.66 129.68"><defs><style>.cls-1{fill:none;stroke:#000;stroke-linecap:round;stroke-linejoin:round;}</style></defs><g id="Make2D::可见线::曲线"><line class="cls-1" x1="180.31" y1="24.25" x2="180.2" y2="24.35"/><path class="cls-1" d="M472.71,35.82h-.37" transform="translate(-4.89 -11.9)"/><line class="cls-1" x1="352.97" y1="67.58" x2="352.97" y2="70.1"/><line class="cls-1" x1="358" y1="70.1" x2="358" y2="67.58"/><line class="cls-1" x1="352.97" y1="70.1" x2="349.95" y2="72.19"/><line class="cls-1" x1="349.95" y1="72.19" x2="348.79" y2="72.19"/><line class="cls-1" x1="348.79" y1="72.19" x2="348.79" y2="65.49"/><line class="cls-1" x1="348.79" y1="65.49" x2="349.95" y2="65.49"/><line class="cls-1" x1="358" y1="70.1" x2="361.03" y2="72.19"/><line class="cls-1" x1="358" y1="67.58" x2="361.03" y2="65.49"/><line class="cls-1" x1="362.19" y1="72.19" x2="361.03" y2="72.19"/><line class="cls-1" x1="331.19" y1="91.05" x2="331.19" y2="34.9"/><line class="cls-1" x1="331.19" y1="91.05" x2="338.65" y2="91.05"/><line class="cls-1" x1="264.81" y1="34.9" x2="264.81" y2="91.05"/><line class="cls-1" x1="347.02" y1="99.43" x2="347.02" y2="91.05"/><line class="cls-1" x1="363.95" y1="99.43" x2="363.95" y2="91.05"/><line class="cls-1" x1="372.33" y1="99.43" x2="372.33" y2="91.05"/><line class="cls-1" x1="391.61" y1="49.15" x2="391.61" y2="34.9"/><line class="cls-1" x1="397.56" y1="49.15" x2="391.61" y2="49.15"/><line class="cls-1" x1="446.17" y1="81.41" x2="446.17" y2="91.05"/><line class="cls-1" x1="459.15" y1="81.41" x2="446.17" y2="81.41"/><line class="cls-1" x1="399.49" y1="103.62" x2="454.97" y2="103.62"/><line class="cls-1" x1="399.49" y1="126.67" x2="399.49" y2="103.62"/><line class="cls-1" x1="243.53" y1="68.84" x2="251.82" y2="68.84"/><line class="cls-1" x1="446.17" y1="68.84" x2="459.15" y2="68.84"/><line class="cls-1" x1="446.17" y1="34.9" x2="446.17" y2="68.84"/><path class="cls-1" d="M256.71,111.33c0,3,1.23,4.2,4.19,4.2" transform="translate(-4.89 -11.9)"/><path class="cls-1" d="M459.85,115.53c3,0,4.19-1.23,4.19-4.2" transform="translate(-4.89 -11.9)"/><line class="cls-1" x1="294.66" y1="72.19" x2="283.58" y2="72.19"/><path class="cls-1" d="M244.22,80.75c-1.25.62,1.4,0,2.1,0h2.09" transform="translate(-4.89 -11.9)"/><line class="cls-1" x1="239.33" y1="24.43" x2="239.33" y2="68.84"/><path class="cls-1" d="M464,93.32c1.06-.54,0-5.63,0-6.29V82.32c0-.53.94-2,0-1.57" transform="translate(-4.89 -11.9)"/><path class="cls-1" d="M451.05,93.32c1.06-.54,0-5.63,0-6.29V82.32c0-.53.94-2,0-1.57" transform="translate(-4.89 -11.9)"/><line class="cls-1" x1="428.57" y1="65.49" x2="428.57" y2="72.19"/><line class="cls-1" x1="427.4" y1="72.19" x2="428.57" y2="72.19"/><line class="cls-1" x1="424.38" y1="70.1" x2="427.4" y2="72.19"/><line class="cls-1" x1="424.38" y1="67.58" x2="424.38" y2="70.1"/><line class="cls-1" x1="427.4" y1="65.49" x2="424.38" y2="67.58"/><line class="cls-1" x1="428.57" y1="65.49" x2="427.4" y2="65.49"/><line class="cls-1" x1="427.4" y1="72.19" x2="416.32" y2="72.19"/><line class="cls-1" x1="416.32" y1="65.49" x2="415.16" y2="65.49"/><line class="cls-1" x1="419.35" y1="70.1" x2="419.35" y2="67.58"/><line class="cls-1" x1="416.32" y1="72.19" x2="419.35" y2="70.1"/><line class="cls-1" x1="416.32" y1="72.19" x2="415.16" y2="72.19"/><line class="cls-1" x1="424.38" y1="67.58" x2="419.35" y2="67.58"/><line class="cls-1" x1="419.35" y1="70.1" x2="424.38" y2="70.1"/><line class="cls-1" x1="338.65" y1="91.05" x2="338.65" y2="99.43"/><line class="cls-1" x1="319.37" y1="49.15" x2="313.42" y2="49.15"/><line class="cls-1" x1="319.37" y1="34.9" x2="319.37" y2="49.15"/><line class="cls-1" x1="295.82" y1="65.49" x2="295.82" y2="72.19"/><line class="cls-1" x1="283.58" y1="65.49" x2="294.66" y2="65.49"/><line class="cls-1" x1="291.63" y1="70.1" x2="291.63" y2="67.58"/><line class="cls-1" x1="291.63" y1="67.58" x2="294.66" y2="65.49"/><line class="cls-1" x1="294.66" y1="65.49" x2="295.82" y2="65.49"/><line class="cls-1" x1="295.82" y1="72.19" x2="294.66" y2="72.19"/><line class="cls-1" x1="294.66" y1="72.19" x2="291.63" y2="70.1"/><line class="cls-1" x1="286.6" y1="67.58" x2="286.6" y2="70.1"/><line class="cls-1" x1="291.63" y1="67.58" x2="286.6" y2="67.58"/><line class="cls-1" x1="286.6" y1="70.1" x2="291.63" y2="70.1"/><line class="cls-1" x1="286.6" y1="70.1" x2="283.58" y2="72.19"/><line class="cls-1" x1="283.58" y1="72.19" x2="282.41" y2="72.19"/><line class="cls-1" x1="282.41" y1="72.19" x2="282.41" y2="65.49"/><line class="cls-1" x1="282.41" y1="65.49" x2="283.58" y2="65.49"/><line class="cls-1" x1="283.58" y1="65.49" x2="286.6" y2="67.58"/><line class="cls-1" x1="389.43" y1="126.67" x2="399.49" y2="126.67"/><line class="cls-1" x1="459.15" y1="99.43" x2="459.15" y2="81.41"/><line class="cls-1" x1="311.49" y1="126.67" x2="321.55" y2="126.67"/><line class="cls-1" x1="372.33" y1="91.05" x2="379.79" y2="91.05"/><line class="cls-1" x1="363.95" y1="91.05" x2="372.33" y2="91.05"/><line class="cls-1" x1="372.33" y1="99.43" x2="389.43" y2="99.43"/><path class="cls-1" d="M421.94,77.65l.15-.26" transform="translate(-4.89 -11.9)"/><line class="cls-1" x1="349.95" y1="65.49" x2="352.97" y2="67.58"/><line class="cls-1" x1="338.65" y1="91.05" x2="347.02" y2="91.05"/><line class="cls-1" x1="379.79" y1="91.05" x2="379.79" y2="34.9"/><line class="cls-1" x1="397.56" y1="91.05" x2="397.56" y2="49.15"/><line class="cls-1" x1="311.49" y1="103.62" x2="311.49" y2="126.67"/><line class="cls-1" x1="251.82" y1="68.84" x2="251.82" y2="99.43"/><path class="cls-1" d="M244.22,36.33c-1.25.62,1.4,0,2.1,0h2.09" transform="translate(-4.89 -11.9)"/><line class="cls-1" x1="415.16" y1="72.19" x2="415.16" y2="65.49"/><line class="cls-1" x1="338.65" y1="99.43" x2="321.55" y2="99.43"/><line class="cls-1" x1="313.42" y1="49.15" x2="313.42" y2="91.05"/><line class="cls-1" x1="2.64" y1="23.91" x2="2.64" y2="24.43"/><line class="cls-1" x1="251.29" y1="99.6" x2="251.29" y2="106.12"/><line class="cls-1" x1="12.99" y1="71.36" x2="0.5" y2="71.36"/><line class="cls-1" x1="12.99" y1="106.14" x2="12.99" y2="71.36"/><line class="cls-1" x1="72.66" y1="106.14" x2="12.99" y2="106.14"/><line class="cls-1" x1="72.66" y1="129.18" x2="72.66" y2="106.14"/><line class="cls-1" x1="165.68" y1="106.14" x2="165.68" y2="129.18"/><line class="cls-1" x1="308.98" y1="129.18" x2="308.98" y2="106.14"/><line class="cls-1" x1="402" y1="106.14" x2="402" y2="129.18"/><line class="cls-1" x1="461.67" y1="71.36" x2="461.67" y2="106.14"/><line class="cls-1" x1="460.59" y1="106.11" x2="460.59" y2="68.84"/><line class="cls-1" x1="225.11" y1="106.02" x2="225.11" y2="68.84"/><line class="cls-1" x1="116.66" y1="67.58" x2="116.66" y2="70.1"/><line class="cls-1" x1="121.68" y1="70.1" x2="121.68" y2="67.58"/><line class="cls-1" x1="116.66" y1="70.1" x2="113.63" y2="72.19"/><line class="cls-1" x1="113.63" y1="72.19" x2="112.46" y2="72.19"/><line class="cls-1" x1="112.46" y1="72.19" x2="112.46" y2="65.49"/><line class="cls-1" x1="112.46" y1="65.49" x2="113.63" y2="65.49"/><line class="cls-1" x1="113.63" y1="65.49" x2="116.66" y2="67.58"/><line class="cls-1" x1="121.68" y1="70.1" x2="124.71" y2="72.19"/><line class="cls-1" x1="121.68" y1="67.58" x2="124.71" y2="65.49"/><line class="cls-1" x1="124.71" y1="65.49" x2="125.87" y2="65.49"/><line class="cls-1" x1="125.87" y1="65.49" x2="125.87" y2="72.19"/><line class="cls-1" x1="125.87" y1="72.19" x2="124.71" y2="72.19"/><line class="cls-1" x1="94.87" y1="91.05" x2="94.87" y2="34.9"/><line class="cls-1" x1="136.01" y1="91.05" x2="143.47" y2="91.05"/><line class="cls-1" x1="127.63" y1="91.05" x2="136.01" y2="91.05"/><line class="cls-1" x1="102.32" y1="91.05" x2="110.7" y2="91.05"/><line class="cls-1" x1="94.87" y1="91.05" x2="102.32" y2="91.05"/><line class="cls-1" x1="143.47" y1="91.05" x2="143.47" y2="34.9"/><line class="cls-1" x1="28.49" y1="34.9" x2="28.49" y2="91.05"/><line class="cls-1" x1="110.7" y1="99.43" x2="110.7" y2="91.05"/><line class="cls-1" x1="127.63" y1="99.43" x2="127.63" y2="91.05"/><line class="cls-1" x1="136.01" y1="99.43" x2="136.01" y2="91.05"/><line class="cls-1" x1="155.29" y1="49.15" x2="155.29" y2="34.9"/><line class="cls-1" x1="161.24" y1="49.15" x2="155.29" y2="49.15"/><line class="cls-1" x1="161.24" y1="91.05" x2="161.24" y2="49.15"/><line class="cls-1" x1="136.01" y1="99.43" x2="153.11" y2="99.43"/><line class="cls-1" x1="209.85" y1="81.41" x2="209.85" y2="91.05"/><line class="cls-1" x1="163.17" y1="103.62" x2="218.65" y2="103.62"/><line class="cls-1" x1="163.17" y1="126.67" x2="163.17" y2="103.62"/><line class="cls-1" x1="75.17" y1="103.62" x2="75.17" y2="126.67"/><line class="cls-1" x1="15.5" y1="68.84" x2="15.5" y2="99.43"/><line class="cls-1" x1="7.21" y1="68.84" x2="15.5" y2="68.84"/><line class="cls-1" x1="209.85" y1="34.9" x2="209.85" y2="68.84"/><path class="cls-1" d="M20.39,111.33c0,3,1.23,4.2,4.19,4.2" transform="translate(-4.89 -11.9)"/><line class="cls-1" x1="58.34" y1="72.19" x2="47.25" y2="72.19"/><line class="cls-1" x1="235.32" y1="68.84" x2="235.32" y2="24.43"/><path class="cls-1" d="M7.9,80.75c-1.25.62,1.4,0,2.1,0h2.09" transform="translate(-4.89 -11.9)"/><path class="cls-1" d="M227.72,93.32c1.06-.54,0-5.63,0-6.29V82.32c0-.53.94-2,0-1.57" transform="translate(-4.89 -11.9)"/><path class="cls-1" d="M214.73,93.32c1.06-.54,0-5.63,0-6.29V82.32c0-.53.94-2,0-1.57" transform="translate(-4.89 -11.9)"/><line class="cls-1" x1="192.25" y1="65.49" x2="192.25" y2="72.19"/><line class="cls-1" x1="191.08" y1="72.19" x2="192.25" y2="72.19"/><line class="cls-1" x1="188.06" y1="70.1" x2="191.08" y2="72.19"/><line class="cls-1" x1="188.06" y1="67.58" x2="188.06" y2="70.1"/><line class="cls-1" x1="191.08" y1="65.49" x2="188.06" y2="67.58"/><line class="cls-1" x1="192.25" y1="65.49" x2="191.08" y2="65.49"/><line class="cls-1" x1="191.08" y1="72.19" x2="180" y2="72.19"/><line class="cls-1" x1="178.84" y1="72.19" x2="178.84" y2="65.49"/><line class="cls-1" x1="180" y1="65.49" x2="178.84" y2="65.49"/><line class="cls-1" x1="183.03" y1="67.58" x2="180" y2="65.49"/><line class="cls-1" x1="183.03" y1="70.1" x2="183.03" y2="67.58"/><line class="cls-1" x1="180" y1="72.19" x2="183.03" y2="70.1"/><line class="cls-1" x1="180" y1="72.19" x2="178.84" y2="72.19"/><line class="cls-1" x1="180" y1="65.49" x2="191.08" y2="65.49"/><line class="cls-1" x1="188.06" y1="67.58" x2="183.03" y2="67.58"/><line class="cls-1" x1="183.03" y1="70.1" x2="188.06" y2="70.1"/><line class="cls-1" x1="102.32" y1="99.43" x2="85.23" y2="99.43"/><line class="cls-1" x1="102.32" y1="91.05" x2="102.32" y2="99.43"/><line class="cls-1" x1="77.1" y1="49.15" x2="77.1" y2="91.05"/><line class="cls-1" x1="83.05" y1="34.9" x2="83.05" y2="49.15"/><line class="cls-1" x1="59.5" y1="65.49" x2="59.5" y2="72.19"/><line class="cls-1" x1="47.25" y1="65.49" x2="58.34" y2="65.49"/><line class="cls-1" x1="55.31" y1="70.1" x2="55.31" y2="67.58"/><line class="cls-1" x1="55.31" y1="67.58" x2="58.34" y2="65.49"/><line class="cls-1" x1="58.34" y1="65.49" x2="59.5" y2="65.49"/><line class="cls-1" x1="59.5" y1="72.19" x2="58.34" y2="72.19"/><line class="cls-1" x1="58.34" y1="72.19" x2="55.31" y2="70.1"/><line class="cls-1" x1="50.28" y1="67.58" x2="50.28" y2="70.1"/><line class="cls-1" x1="55.31" y1="67.58" x2="50.28" y2="67.58"/><line class="cls-1" x1="50.28" y1="70.1" x2="55.31" y2="70.1"/><line class="cls-1" x1="50.28" y1="70.1" x2="47.25" y2="72.19"/><line class="cls-1" x1="47.25" y1="72.19" x2="46.09" y2="72.19"/><line class="cls-1" x1="46.09" y1="72.19" x2="46.09" y2="65.49"/><line class="cls-1" x1="46.09" y1="65.49" x2="47.25" y2="65.49"/><line class="cls-1" x1="47.25" y1="65.49" x2="50.28" y2="67.58"/><line class="cls-1" x1="153.11" y1="126.67" x2="163.17" y2="126.67"/><line class="cls-1" x1="222.84" y1="99.43" x2="222.84" y2="81.41"/><line class="cls-1" x1="121.68" y1="67.58" x2="116.66" y2="67.58"/><line class="cls-1" x1="116.66" y1="70.1" x2="121.68" y2="70.1"/><line class="cls-1" x1="124.71" y1="72.19" x2="113.63" y2="72.19"/><line class="cls-1" x1="113.63" y1="65.49" x2="124.71" y2="65.49"/><line class="cls-1" x1="110.7" y1="91.05" x2="127.63" y2="91.05"/><line class="cls-1" x1="110.7" y1="99.43" x2="127.63" y2="99.43"/><line class="cls-1" x1="153.11" y1="110.33" x2="85.23" y2="110.33"/><line class="cls-1" x1="195.83" y1="24.68" x2="195.39" y2="24.25"/><line class="cls-1" x1="243.75" y1="106.14" x2="243.75" y2="68.97"/><line class="cls-1" x1="232.86" y1="106.14" x2="232.86" y2="68.59"/><line class="cls-1" x1="373.64" y1="129.18" x2="373.64" y2="126.67"/><line class="cls-1" x1="78.4" y1="129.18" x2="78.4" y2="126.58"/><line class="cls-1" x1="235.32" y1="23.91" x2="239.33" y2="23.91"/><path class="cls-1" d="M366.25,76.87c.27.47.54.92.83,1.37" transform="translate(-4.89 -11.9)"/><line class="cls-1" x1="225.9" y1="68.84" x2="225.9" y2="106.14"/><line class="cls-1" x1="467.83" y1="23.91" x2="473.76" y2="23.91"/><line class="cls-1" x1="0.69" y1="23.91" x2="3.17" y2="23.91"/><line class="cls-1" x1="358" y1="67.58" x2="352.97" y2="67.58"/><line class="cls-1" x1="352.97" y1="70.1" x2="358" y2="70.1"/><line class="cls-1" x1="361.03" y1="72.19" x2="349.95" y2="72.19"/><line class="cls-1" x1="361.03" y1="65.49" x2="362.19" y2="65.49"/><line class="cls-1" x1="362.19" y1="65.49" x2="362.19" y2="72.19"/><line class="cls-1" x1="349.95" y1="65.49" x2="361.03" y2="65.49"/><line class="cls-1" x1="347.02" y1="91.05" x2="363.95" y2="91.05"/><line class="cls-1" x1="446.17" y1="34.9" x2="264.81" y2="34.9"/><line class="cls-1" x1="264.81" y1="91.05" x2="321.55" y2="91.05"/><line class="cls-1" x1="321.55" y1="126.67" x2="321.55" y2="91.05"/><line class="cls-1" x1="347.02" y1="99.43" x2="363.95" y2="99.43"/><line class="cls-1" x1="389.43" y1="91.05" x2="446.17" y2="91.05"/><line class="cls-1" x1="389.43" y1="91.05" x2="389.43" y2="126.67"/><line class="cls-1" x1="321.55" y1="126.67" x2="389.43" y2="126.67"/><line class="cls-1" x1="256.01" y1="103.62" x2="311.49" y2="103.62"/><line class="cls-1" x1="467.45" y1="24.43" x2="243.53" y2="24.43"/><line class="cls-1" x1="459.15" y1="68.84" x2="467.45" y2="68.84"/><line class="cls-1" x1="471.64" y1="68.84" x2="471.64" y2="24.43"/><path class="cls-1" d="M476.53,80.75c-1.5.74-2.79,0-4.19,0" transform="translate(-4.89 -11.9)"/><path class="cls-1" d="M472.34,36.33c1.4,0,2.69.75,4.19,0" transform="translate(-4.89 -11.9)"/><line class="cls-1" x1="389.43" y1="110.33" x2="321.55" y2="110.33"/><line class="cls-1" x1="419.35" y1="67.58" x2="416.32" y2="65.49"/><line class="cls-1" x1="417.1" y1="65.49" x2="427.4" y2="65.49"/><line class="cls-1" x1="0.5" y1="21.91" x2="474.16" y2="21.91"/><line class="cls-1" x1="0.5" y1="71.36" x2="0.5" y2="21.91"/><line class="cls-1" x1="165.68" y1="129.18" x2="72.66" y2="129.18"/><line class="cls-1" x1="308.98" y1="106.14" x2="165.68" y2="106.14"/><line class="cls-1" x1="402" y1="129.18" x2="308.98" y2="129.18"/><line class="cls-1" x1="461.67" y1="106.14" x2="402" y2="106.14"/><line class="cls-1" x1="474.16" y1="71.36" x2="461.67" y2="71.36"/><line class="cls-1" x1="474.16" y1="21.91" x2="474.16" y2="71.36"/><line class="cls-1" x1="209.85" y1="34.9" x2="28.49" y2="34.9"/><line class="cls-1" x1="28.49" y1="91.05" x2="85.23" y2="91.05"/><line class="cls-1" x1="85.23" y1="126.67" x2="85.23" y2="91.05"/><line class="cls-1" x1="153.11" y1="91.05" x2="209.85" y2="91.05"/><line class="cls-1" x1="153.11" y1="91.05" x2="153.11" y2="126.67"/><line class="cls-1" x1="222.84" y1="81.41" x2="209.85" y2="81.41"/><line class="cls-1" x1="75.17" y1="126.67" x2="85.23" y2="126.67"/><line class="cls-1" x1="85.23" y1="126.67" x2="153.11" y2="126.67"/><line class="cls-1" x1="19.69" y1="103.62" x2="75.17" y2="103.62"/><line class="cls-1" x1="231.13" y1="24.43" x2="7.21" y2="24.43"/><line class="cls-1" x1="222.84" y1="68.84" x2="231.13" y2="68.84"/><line class="cls-1" x1="209.85" y1="68.84" x2="222.84" y2="68.84"/><path class="cls-1" d="M223.53,115.53c3,0,4.19-1.23,4.19-4.2" transform="translate(-4.89 -11.9)"/><path class="cls-1" d="M240.21,80.75c-1.5.74-2.8,0-4.19,0" transform="translate(-4.89 -11.9)"/><path class="cls-1" d="M236,36.33c1.39,0,2.69.75,4.19,0" transform="translate(-4.89 -11.9)"/><line class="cls-1" x1="3.01" y1="24.43" x2="3.01" y2="68.84"/><path class="cls-1" d="M7.9,36.33c-1.25.62,1.4,0,2.1,0h2.09" transform="translate(-4.89 -11.9)"/><line class="cls-1" x1="83.05" y1="49.15" x2="77.1" y2="49.15"/></g><g id="Make2D::可见线::正切线"><line class="cls-1" x1="7.21" y1="24.43" x2="7.21" y2="68.84"/><line class="cls-1" x1="467.45" y1="68.84" x2="467.45" y2="24.43"/><line class="cls-1" x1="72.54" y1="106.14" x2="72.54" y2="103.62"/><line class="cls-1" x1="379.51" y1="129.17" x2="379.51" y2="126.67"/><line class="cls-1" x1="367.78" y1="129.18" x2="367.78" y2="126.67"/><line class="cls-1" x1="84.27" y1="128.79" x2="84.27" y2="126.67"/><line class="cls-1" x1="467.83" y1="21.91" x2="467.83" y2="23.91"/><line class="cls-1" x1="220.03" y1="106.14" x2="220.03" y2="103.39"/><line class="cls-1" x1="231.13" y1="68.84" x2="231.13" y2="24.43"/><line class="cls-1" x1="257.16" y1="103.62" x2="257.16" y2="106.14"/><line class="cls-1" x1="243.53" y1="24.43" x2="243.53" y2="68.84"/></g><g id="图层_3" data-name="图层 3"><path d="M101.58,25.74V12.13h1.8v12h6.7v1.61Z" transform="translate(-4.89 -11.9)"/><path d="M112.26,25.74V12.13h9.84v1.61h-8V17.9h7.53v1.6h-7.53v4.63h8.35v1.61Z" transform="translate(-4.89 -11.9)"/><path d="M125,25.74V12.13h9.18v1.61h-7.38V18h6.38v1.61h-6.38v6.18Z" transform="translate(-4.89 -11.9)"/><path d="M140,25.74v-12h-4.49V12.13h10.78v1.61h-4.5v12Z" transform="translate(-4.89 -11.9)"/><path d="M331.39,25.74V12.13h6a8.09,8.09,0,0,1,2.76.37,3,3,0,0,1,1.51,1.3,3.81,3.81,0,0,1,.57,2,3.42,3.42,0,0,1-.94,2.44,4.74,4.74,0,0,1-2.89,1.26,5,5,0,0,1,1.08.67A9.56,9.56,0,0,1,341,22l2.36,3.71h-2.26l-1.8-2.83c-.53-.82-1-1.45-1.3-1.88a4.53,4.53,0,0,0-.91-.91,2.87,2.87,0,0,0-.83-.36,5.74,5.74,0,0,0-1-.06h-2.09v6Zm1.79-7.6h3.87a5.74,5.74,0,0,0,1.93-.26,2,2,0,0,0,1.06-.81,2.25,2.25,0,0,0,.36-1.22,2,2,0,0,0-.7-1.59,3.28,3.28,0,0,0-2.21-.62h-4.31Z" transform="translate(-4.89 -11.9)"/><path d="M345.38,25.74V12.13h1.8V25.74Z" transform="translate(-4.89 -11.9)"/><path d="M356.72,20.4V18.81h5.76v5a9.8,9.8,0,0,1-2.73,1.59,8.06,8.06,0,0,1-2.9.54,7.76,7.76,0,0,1-3.64-.86,5.64,5.64,0,0,1-2.47-2.48A7.77,7.77,0,0,1,349.9,19a8.5,8.5,0,0,1,.83-3.71,5.54,5.54,0,0,1,2.39-2.55,7.46,7.46,0,0,1,3.59-.84,7.09,7.09,0,0,1,2.67.48,4.45,4.45,0,0,1,1.87,1.33,6,6,0,0,1,1,2.23l-1.62.44a5.05,5.05,0,0,0-.77-1.63,3.15,3.15,0,0,0-1.29-.95,4.77,4.77,0,0,0-1.88-.36,5.51,5.51,0,0,0-2.13.38,3.88,3.88,0,0,0-1.45,1,4.44,4.44,0,0,0-.86,1.34,7,7,0,0,0-.52,2.74,6.75,6.75,0,0,0,.62,3,4,4,0,0,0,1.83,1.82,5.55,5.55,0,0,0,2.54.59,6,6,0,0,0,2.28-.45,5.89,5.89,0,0,0,1.69-1V20.4Z" transform="translate(-4.89 -11.9)"/><path d="M365.19,25.74V12.13H367v5.59h7.07V12.13h1.8V25.74h-1.8V19.32H367v6.42Z" transform="translate(-4.89 -11.9)"/><path d="M382.32,25.74v-12h-4.48V12.13h10.78v1.61h-4.5v12Z" transform="translate(-4.89 -11.9)"/></g></svg>