<?xml version="1.0" encoding="UTF-8"?>
<svg xmlns="http://www.w3.org/2000/svg" viewBox="0 0 472.99 541.05">
  <defs>
    <style>
      .cls-1 {
        fill: red;
      }

      .cls-1, .cls-2 {
        stroke-width: 0px;
      }

      .cls-2 {
        fill: lime;
      }

      .cls-3 {
        stroke: #000;
        stroke-linecap: round;
        stroke-linejoin: round;
      }

      .cls-3, .cls-4 {
        fill: none;
      }

      .cls-4 {
        stroke: red;
        stroke-miterlimit: 10;
        stroke-width: 11px;
      }
    </style>
  </defs>
  <g id="_图层_3" data-name="图层 3">
    <polygon class="cls-2" points="270.37 226.03 267.83 226.71 266.12 228.97 265.65 231.42 266.68 234.28 268.82 235.51 271.85 235.22 273.84 233.71 274.14 231.83 274.1 228.1 273.35 226.71 270.37 226.03"/>
    <polygon class="cls-2" points="295.29 223.64 292.74 224.32 291.03 226.58 290.57 229.04 291.6 231.9 293.74 233.12 296.77 232.83 298.76 231.32 299.06 229.44 299.01 225.71 298.27 224.32 295.29 223.64"/>
    <polygon class="cls-2" points="319.51 221.48 316.97 222.16 315.26 224.42 314.79 226.88 315.83 229.74 317.97 230.96 320.99 230.67 322.98 229.16 323.29 227.28 323.24 223.55 322.5 222.16 319.51 221.48"/>
    <polygon class="cls-1" points="342.38 219.23 339.83 219.92 338.12 222.17 337.66 224.63 338.69 227.49 340.83 228.71 343.85 228.42 345.85 226.91 346.15 225.03 346.1 221.3 345.36 219.92 342.38 219.23"/>
  </g>
  <g id="Make2D::可见线::正切线">
    <path class="cls-3" d="M116.84,18.99c-.23.01-.47.02-.7.02"/>
    <path class="cls-3" d="M89.2,27.65c.2-.01.4-.02.6-.04"/>
    <path class="cls-3" d="M158,15.81c-.07.33-.1.65-.09.98"/>
    <path class="cls-3" d="M157.91,16.79c-.21.03-.42.04-.63.05"/>
    <path class="cls-3" d="M113.45,5.64c-.16,0-.31.04-.46.08"/>
    <path class="cls-3" d="M116.05,17.16c.16,0,.32-.02.48-.03"/>
    <path class="cls-3" d="M116.53,17.13c.02.24.08.46.14.69"/>
    <path class="cls-3" d="M157.86,14.95c-.15,0-.3.02-.44.02"/>
    <path class="cls-3" d="M157.36,15.67c.04-.23.07-.46.05-.69"/>
    <path class="cls-3" d="M154.2,3.57c.16,0,.31,0,.46.03"/>
    <path class="cls-3" d="M88.69,25.4c.22-.01.43-.03.65-.05"/>
    <line class="cls-3" x1="89.34" y1="25.34" x2="90.06" y2="25.26"/>
    <path class="cls-3" d="M163.61,10.7c-1.05.5-2.06,1.05-3.02,1.71"/>
    <path class="cls-3" d="M160.59,12.41c-.97.66-2.06,1.54-2.73,2.54"/>
    <path class="cls-3" d="M108.44,13.57c-.48.05-.96.08-1.44.08"/>
    <line class="cls-3" x1="70.02" y1="26.41" x2="88.69" y2="25.4"/>
    <path class="cls-3" d="M184.1,14.43c.1.32.15.63.16.97"/>
    <path class="cls-3" d="M89.26,19.45c-.07.33-.1.66-.08.99"/>
    <path class="cls-3" d="M165.35,12.75c-.04-.73-.21-1.42-.41-2.11"/>
    <path class="cls-3" d="M164.93,10.64c-.44.04-.88.07-1.32.06"/>
    <path class="cls-3" d="M161.32,4.97c-.07-.04-.14-.06-.22-.08"/>
    <path class="cls-3" d="M108.41,13.4c.01.06.02.12.02.18"/>
    <path class="cls-3" d="M108.41,13.4c-.47.07-.95.12-1.43.15"/>
    <path class="cls-3" d="M107,13.66s0-.07-.01-.11"/>
    <path class="cls-3" d="M163.61,10.7c-.01-.06-.03-.12-.04-.18"/>
    <path class="cls-3" d="M164.93,10.64s-.02-.07-.03-.11"/>
    <path class="cls-3" d="M164.91,10.53c-.45.02-.89.02-1.33,0"/>
    <line class="cls-3" x1="106.99" y1="13.54" x2="96.4" y2="14.1"/>
    <path class="cls-3" d="M89.17,20.44c-.22.03-.43.04-.65.05"/>
    <path class="cls-3" d="M53.23,8.71c.26-.01.52-.03.78-.04"/>
    <path class="cls-3" d="M89.11,18.58c-.15,0-.3.02-.46.02"/>
    <path class="cls-3" d="M88.6,19.31c.04-.23.07-.46.05-.7"/>
    <line class="cls-3" x1="60.64" y1="10.21" x2="60.47" y2="8.23"/>
    <line class="cls-3" x1="58.53" y1="8.33" x2="58.7" y2="10.31"/>
    <line class="cls-3" x1="206.33" y1="2.76" x2="206.18" y2=".83"/>
    <path class="cls-3" d="M177.25,82.79c-3.81.25-7.59.57-11.35,1.21-1.88.32-3.73.7-5.56,1.28-.7.22-1.38.47-2.05.79-.47.23-.92.48-1.31.84-.54.49-.78,1.07-.29,1.71.5.65,1.39,1.02,2.09,1.31.99.42,1.98.84,2.96,1.26,1.75.74,3.51,1.49,5.26,2.23,3.51,1.49,7.01,2.97,10.52,4.46"/>
    <line class="cls-3" x1="204.34" y1=".92" x2="204.49" y2="2.85"/>
    <path class="cls-3" d="M181.35,2.19c-.15,0-.3.03-.45.08"/>
    <path class="cls-3" d="M184.18,13.56c.16,0,.31-.02.47-.02"/>
    <path class="cls-3" d="M184.65,13.54c.01.23.07.46.13.68"/>
    <path class="cls-3" d="M184.95,15.38c-.23.01-.46.02-.69.02"/>
    <line class="cls-3" x1="175.25" y1="9.99" x2="164.91" y2="10.53"/>
    <path class="cls-3" d="M94.91,16.53c.08-.75.11-1.51.16-2.26"/>
    <path class="cls-3" d="M95.07,14.27c-1.09.51-2.14,1.07-3.14,1.73"/>
    <path class="cls-3" d="M342.54,84.61c.53-.18.95-.12,1.44.13"/>
    <path class="cls-3" d="M91.93,16c-1,.66-2.13,1.56-2.82,2.58"/>
    <line class="cls-3" x1="44.18" y1="27.1" x2="46.23" y2="28.56"/>
    <path class="cls-3" d="M104.93,8.03c-.11-.06-.21-.1-.34-.09"/>
    <path class="cls-3" d="M95.03,14.09c.01.06.02.12.04.18"/>
    <path class="cls-3" d="M96.4,14.1s.02.08.03.11"/>
    <path class="cls-3" d="M96.4,14.1c-.46.02-.91.02-1.37,0"/>
    <path class="cls-3" d="M96.43,14.21c.2.7.37,1.4.42,2.13"/>
    <path class="cls-3" d="M96.43,14.21c-.45.04-.9.07-1.36.06"/>
    <path class="cls-3" d="M53.66,9.16c-.12-.17-.25-.33-.43-.45"/>
    <path class="cls-3" d="M183.68,95.09c.27,0,.48.1.7.25"/>
    <path class="cls-3" d="M383.08,82.05c-.29-.14-.58-.22-.91-.22"/>
    <line class="cls-3" x1="225.7" y1="92.65" x2="234.23" y2="94.26"/>
    <line class="cls-3" x1="162.35" y1="120.72" x2="162.29" y2="118.24"/>
    <path class="cls-3" d="M225.12,92.61c-.27-.17-.53-.26-.85-.24"/>
    <path class="cls-3" d="M212.94,2.92c-.05-.05-.1-.1-.15-.15"/>
    <path class="cls-3" d="M184.37,95.34c1.96,1.3,3.15,6.69,3.5,8.51.6,3.09.9,6.17.96,9.31"/>
    <path class="cls-3" d="M176.67,10.02c-.47.05-.94.08-1.41.08"/>
    <path class="cls-3" d="M176.65,9.84c.01.06.02.12.02.18"/>
    <path class="cls-3" d="M176.65,9.84c-.46.07-.93.12-1.4.15"/>
    <path class="cls-3" d="M175.26,10.1s0-.07-.01-.11"/>
    <line class="cls-3" x1="40.2" y1="29.52" x2="40.28" y2="31.49"/>
    <line class="cls-3" x1="200.49" y1="94.26" x2="225.12" y2="92.61"/>
    <line class="cls-3" x1="43.83" y1="31.77" x2="43.75" y2="29.8"/>
    <line class="cls-3" x1="311.34" y1="86.92" x2="319.58" y2="88.52"/>
    <path class="cls-3" d="M310.77,86.89c-.31-.16-.6-.25-.96-.23"/>
    <path class="cls-3" d="M51.52,30.53c.03-.29.06-.59.09-.88"/>
    <path class="cls-3" d="M404.59,394.45c.38-.05.73.15,1,.38"/>
    <path class="cls-3" d="M51.61,29.65c.03-.18.04-.36.06-.55"/>
    <path class="cls-3" d="M46.23,28.56c1.08-.06,1.92-.99,1.87-2.07"/>
    <path class="cls-3" d="M92.97,8.47c-.07-.04-.13-.07-.21-.09"/>
    <path class="cls-3" d="M244.6,424.68c.01.93-.02,1.84-.17,2.76-.07.46-.17.91-.33,1.34-.13.34-.4.94-.87,1"/>
    <path class="cls-3" d="M52.99,11.41c-.04,1.1-.07,2.2-.1,3.3"/>
    <line class="cls-3" x1="211.66" y1=".65" x2="212.41" y2=".61"/>
    <path class="cls-3" d="M173,4.55c-.12-.06-.24-.1-.38-.09"/>
    <path class="cls-3" d="M51.61,29.65c.15.05.3.1.45.13"/>
    <path class="cls-3" d="M51.67,29.11c-.43.11-.86.2-1.3.27"/>
    <path class="cls-3" d="M113.04,5.53c.15,0,.28.03.41.11"/>
    <path class="cls-3" d="M154.41,3.52c-.11-.02-.21-.02-.32,0"/>
    <path class="cls-3" d="M291.68,230.75c-.69-.52-1.13-1.27-1.29-2.11"/>
    <path class="cls-3" d="M105.84,7.72c.18-.06.32-.02.48.07"/>
    <path class="cls-3" d="M316.39,228.53c-.66-.48-1.1-1.17-1.29-1.95"/>
    <path class="cls-3" d="M52.86,8.59c.14,0,.25.04.37.11"/>
    <path class="cls-3" d="M338.84,226.51c-.63-.44-1.07-1.08-1.28-1.81"/>
    <path class="cls-3" d="M180.89,2.09c.17,0,.31.03.46.11"/>
    <path class="cls-3" d="M162.32,4.99c.14,0,.25.03.38.09"/>
    <path class="cls-3" d="M45.7,19.94c0,.11.07.15.15.21"/>
    <path class="cls-3" d="M45.9,24.83c0,.11.07.15.15.21"/>
    <path class="cls-3" d="M94.04,8.48c.13,0,.23.03.33.09"/>
    <path class="cls-3" d="M53.69,10.53c0-.5,0-1-.01-1.51"/>
    <path class="cls-3" d="M92.15,27.73c-3.93.21-7.86.32-11.8.23-3.64-.08-8.16-.33-11.76-.95-.78-.13-1.55-.29-2.31-.49-.56-.15-1.1-.31-1.63-.56-.34-.15-.65-.31-.9-.61-.16-.19-.24-.41-.34-.63-.88-1.76-1.76-3.52-2.64-5.28-.3-.61-.61-1.21-.91-1.82-.21-.43.25-.74.55-.92.74-.43,1.71-.68,2.52-.87,1.92-.46,3.87-.71,5.83-.92"/>
    <path class="cls-3" d="M202.34,8.22c2.11.06,4.2.18,6.3.4,1.24.13,2.47.29,3.69.54.84.17,1.66.43,2.48.69,4.01,1.27,8.02,2.53,12.03,3.8,2.01.63,4.01,1.27,6.02,1.9.73.23,1.48.43,2.2.72.4.16.94.39,1.22.78.57.8-.93,1.4-1.5,1.62-3.11,1.19-9.22,1.74-12.43,1.96"/>
    <path class="cls-3" d="M92.76,8.38s0,0,0,0"/>
    <path class="cls-3" d="M173.8,4.25c.21-.07.37-.04.56.06"/>
    <path class="cls-3" d="M112.74,5.63c.1-.05.19-.09.3-.09"/>
    <path class="cls-3" d="M180.57,2.17c.1-.05.21-.08.32-.08"/>
    <path class="cls-3" d="M46.03,24.61c-.08.06-.14.11-.13.22"/>
    <line class="cls-3" x1="116.84" y1="18.99" x2="116.84" y2="19.1"/>
    <path class="cls-3" d="M91.98,22.63c-.57-.36-.96.14-1.2.61-.24.47-.38.96-.5,1.46-.24,1.01-.35,2.03-.43,3.07"/>
    <path class="cls-3" d="M94.95,35.54c-.07-2.25-.29-4.47-.67-6.7-.2-1.13-1.01-5.4-2.29-6.22"/>
    <path class="cls-3" d="M93.93,20.48c1.53.96,2.48,6.01,2.72,7.35.46,2.63.71,5.25.8,7.92"/>
    <line class="cls-3" x1="217.84" y1="13.89" x2="93.93" y2="20.48"/>
    <line class="cls-3" x1="116.14" y1="19.01" x2="116.14" y2="19.13"/>
    <path class="cls-3" d="M217.84,13.89c.33-.02.61.04.91.19"/>
    <path class="cls-3" d="M217.84,13.89c1.81.9,2.86,5.57,3.16,7.05.52,2.61.76,5.21.8,7.86"/>
    <line class="cls-3" x1="154.2" y1="3.57" x2="113.45" y2="5.64"/>
    <line class="cls-3" x1="441.88" y1="424.09" x2="443.19" y2="425.19"/>
    <path class="cls-3" d="M109.1,15.81c1.73.24,5.4.89,6.87,2.22"/>
    <path class="cls-3" d="M116.66,17.82c.11.39.16.77.18,1.17"/>
    <path class="cls-3" d="M116.66,17.82c-.23.08-.46.15-.69.21"/>
    <path class="cls-3" d="M163.46,12.96c-1.52.44-4.37,1.43-5.46,2.85"/>
    <path class="cls-3" d="M157.28,16.85c0-.4.02-.79.08-1.18"/>
    <path class="cls-3" d="M116.05,17.16c-.06.29-.07.58-.08.88"/>
    <path class="cls-3" d="M158,15.81c-.21-.05-.43-.1-.64-.14"/>
    <path class="cls-3" d="M158,15.81c-.02-.29-.05-.58-.14-.86"/>
    <path class="cls-3" d="M116.05,17.16c-.94-.96-2.42-1.72-3.61-2.23"/>
    <path class="cls-3" d="M112.44,14.93c-1.3-.56-2.64-.99-4-1.36"/>
    <path class="cls-3" d="M108.44,13.57c.31.72.51,1.45.65,2.22"/>
    <line class="cls-3" x1="165.35" y1="12.8" x2="165.43" y2="16.52"/>
    <path class="cls-3" d="M163.47,12.93c.08-.74.11-1.49.15-2.24"/>
    <line class="cls-3" x1="161.32" y1="4.97" x2="154.66" y2="3.61"/>
    <line class="cls-3" x1="96.85" y1="16.4" x2="96.97" y2="20.15"/>
    <line class="cls-3" x1="106.99" y1="15.81" x2="96.85" y2="16.34"/>
    <path class="cls-3" d="M107,13.66c.03.72,0,1.44-.01,2.15"/>
    <line class="cls-3" x1="89.34" y1="25.34" x2="89.17" y2="20.44"/>
    <line class="cls-3" x1="88.52" y1="20.5" x2="88.69" y2="25.4"/>
    <line class="cls-3" x1="88.52" y1="20.5" x2="69.84" y2="21.49"/>
    <line class="cls-3" x1="184.95" y1="15.38" x2="202.91" y2="14.42"/>
    <line class="cls-3" x1="184.95" y1="15.38" x2="184.95" y2="15.48"/>
    <line class="cls-3" x1="184.26" y1="15.39" x2="184.26" y2="15.51"/>
    <path class="cls-3" d="M177.32,12.23c1.7.24,5.34.88,6.78,2.2"/>
    <path class="cls-3" d="M94.91,16.56c-1.56.44-4.52,1.45-5.65,2.89"/>
    <line class="cls-3" x1="112.99" y1="5.73" x2="106.32" y2="7.79"/>
    <path class="cls-3" d="M104.93,8.03c.48-.02.93-.11,1.39-.25"/>
    <path class="cls-3" d="M162.69,5.08c-.46.02-.91,0-1.37-.1"/>
    <path class="cls-3" d="M89.26,19.45c-.22-.05-.44-.1-.66-.14"/>
    <path class="cls-3" d="M88.52,20.5c-.01-.4.01-.8.08-1.19"/>
    <path class="cls-3" d="M89.26,19.45c-.02-.3-.06-.58-.15-.87"/>
    <path class="cls-3" d="M184.18,13.56c-.06.29-.07.58-.08.87"/>
    <path class="cls-3" d="M184.78,14.22c.1.38.16.76.16,1.16"/>
    <path class="cls-3" d="M184.1,14.43c.23-.07.46-.14.68-.21"/>
    <path class="cls-3" d="M184.18,13.56c-.92-.95-2.38-1.7-3.56-2.2"/>
    <path class="cls-3" d="M180.63,11.36c-1.29-.55-2.61-.98-3.95-1.34"/>
    <path class="cls-3" d="M176.67,10.02c.32.71.51,1.43.65,2.19"/>
    <path class="cls-3" d="M46.23,28.56c.76.55,3.33.76,4.14.82"/>
    <line class="cls-3" x1="104.93" y1="8.03" x2="94.38" y2="8.57"/>
    <path class="cls-3" d="M211.66,2.56c-.79.48-1.2,2.14-1.35,2.87-.22,1.07-.33,2.14-.38,3.22"/>
    <line class="cls-3" x1="173" y1="4.55" x2="162.69" y2="5.08"/>
    <path class="cls-3" d="M47.9,21.57c.63.44,2.83.6,3.5.64"/>
    <line class="cls-3" x1="92.97" y1="8.47" x2="86.14" y2="7.09"/>
    <line class="cls-3" x1="180.9" y1="2.27" x2="174.36" y2="4.31"/>
    <path class="cls-3" d="M175.25,12.23c.01-.71.05-1.42.01-2.13"/>
    <path class="cls-3" d="M48.1,26.49c.63.45,2.83.61,3.49.65"/>
    <line class="cls-3" x1="48.1" y1="26.49" x2="47.9" y2="21.57"/>
    <line class="cls-3" x1="46.05" y1="25.04" x2="48.1" y2="26.49"/>
    <line class="cls-3" x1="46.05" y1="25.04" x2="45.85" y2="20.14"/>
    <path class="cls-3" d="M174.36,4.31c1.33.68,2.09,4.45,2.29,5.53"/>
    <line class="cls-3" x1="34.47" y1="27.24" x2="34.39" y2="25.3"/>
    <path class="cls-3" d="M180.9,2.27c-.22-.11-.42-.15-.66-.07"/>
    <path class="cls-3" d="M44.18,27.1c1.08-.06,1.91-.99,1.86-2.06"/>
    <path class="cls-3" d="M212.41.61c.22.11.39.26.56.43"/>
    <path class="cls-3" d="M212.74.92c.02.64.04,1.28.05,1.91"/>
    <path class="cls-3" d="M215.87,9.83c.04-.6.21-2.16.76-2.66"/>
    <path class="cls-3" d="M94.38,8.57c-.48.02-.94,0-1.4-.1"/>
    <path class="cls-3" d="M215.56,3.07c.2,1.06.39,2.11.55,3.17"/>
    <path class="cls-3" d="M95.03,14.09c-.17-1-.89-4.91-2.06-5.62"/>
    <path class="cls-3" d="M89.11,18.58c-.14-2.01-.38-4-.77-5.98-.21-1.04-1-4.78-2.19-5.51"/>
    <path class="cls-3" d="M45.85,20.14c-.03-.87-.03-1.74.06-2.61.05-.44.1-.86.27-1.27.27-.64.6-.35.84.19.58,1.28.82,3.78.88,5.13"/>
    <path class="cls-3" d="M174.36,4.31c-.45.14-.89.22-1.36.24"/>
    <path class="cls-3" d="M112.43,5.65c.22-.07.38-.03.57.08"/>
    <path class="cls-3" d="M175.25,9.99c-.19-1.06-.94-4.77-2.24-5.44"/>
    <path class="cls-3" d="M162.69,5.08c1.28.68,2.03,4.4,2.22,5.45"/>
    <path class="cls-3" d="M94.38,8.57c1.15.7,1.86,4.54,2.03,5.52"/>
    <line class="cls-3" x1="447.11" y1="278.6" x2="448.45" y2="279.5"/>
    <line class="cls-3" x1="447.76" y1="281.48" x2="449.1" y2="282.38"/>
    <path class="cls-3" d="M180.9,2.27c1.37.69,2.23,4.21,2.48,5.33.44,1.97.68,3.94.81,5.95"/>
    <path class="cls-3" d="M212.41.61c-.16-.07-.31-.11-.48-.1"/>
    <line class="cls-3" x1="447.05" y1="282.28" x2="448.39" y2="283.18"/>
    <line class="cls-3" x1="444.22" y1="281.84" x2="445.56" y2="282.75"/>
    <path class="cls-3" d="M106.99,13.54c-.17-1-.89-4.82-2.06-5.51"/>
    <line class="cls-3" x1="208" y1="454.26" x2="208.98" y2="455.46"/>
    <line class="cls-3" x1="175.25" y1="12.23" x2="165.35" y2="12.75"/>
    <path class="cls-3" d="M181.35,2.19c1.37.69,2.24,4.23,2.49,5.36.44,1.98.69,3.96.81,5.98"/>
    <line class="cls-3" x1="207.27" y1="455.08" x2="208.25" y2="456.28"/>
    <line class="cls-3" x1="204.24" y1="454.74" x2="205.21" y2="455.94"/>
    <path class="cls-3" d="M88.65,18.61c-.14-2.02-.38-4.02-.77-6.01-.21-1.05-1.01-4.81-2.2-5.54"/>
    <line class="cls-3" x1="85.67" y1="7.06" x2="66.05" y2="8.05"/>
    <line class="cls-3" x1="207.2" y1="451.41" x2="208.19" y2="452.61"/>
    <path class="cls-3" d="M163.57,10.52c-.19-1.07-.95-4.86-2.25-5.55"/>
    <path class="cls-3" d="M157.86,14.95c-.13-2.01-.37-3.99-.8-5.96-.24-1.1-1.08-4.68-2.4-5.39"/>
    <path class="cls-3" d="M112.99,5.73c1.24.72,2.06,4.4,2.28,5.46.41,1.98.65,3.96.78,5.97"/>
    <path class="cls-3" d="M106.32,7.79c1.2.71,1.92,4.6,2.1,5.61"/>
    <line class="cls-3" x1="258.67" y1="324.25" x2="257.87" y2="323.51"/>
    <line class="cls-3" x1="67.37" y1="10.5" x2="67.39" y2="8.64"/>
    <line class="cls-3" x1="251.89" y1="344.62" x2="252.67" y2="345.37"/>
    <line class="cls-3" x1="253.29" y1="340.84" x2="255.28" y2="340.62"/>
    <line class="cls-3" x1="255.69" y1="338.58" x2="257.12" y2="338.42"/>
    <path class="cls-3" d="M89.2,27.65c-.4-.26-.5-1.92-.51-2.25"/>
    <path class="cls-3" d="M89.34,25.34c.02.56.18,1.21.51,1.68"/>
    <path class="cls-3" d="M154.2,3.57c-.14-.08-.28-.12-.44-.11"/>
    <path class="cls-3" d="M157.42,14.97c-.13-2.02-.37-4.01-.8-5.99-.24-1.11-1.09-4.71-2.41-5.41"/>
    <path class="cls-3" d="M113.45,5.64c1.25.72,2.07,4.42,2.29,5.49.41,1.99.65,3.98.78,6"/>
    <line class="cls-3" x1="157.28" y1="16.85" x2="116.84" y2="18.99"/>
    <line class="cls-3" x1="255.01" y1="288.81" x2="255.8" y2="289.52"/>
    <line class="cls-3" x1="400.97" y1="274.79" x2="400.02" y2="274.12"/>
    <line class="cls-3" x1="242.66" y1="302.63" x2="243.44" y2="303.35"/>
    <line class="cls-3" x1="257.52" y1="337.54" x2="254.9" y2="337.83"/>
    <line class="cls-3" x1="95.03" y1="20.26" x2="94.91" y2="16.56"/>
    <line class="cls-3" x1="175.33" y1="15.99" x2="175.25" y2="12.28"/>
    <line class="cls-3" x1="177.4" y1="15.88" x2="177.32" y2="12.23"/>
    <line class="cls-3" x1="163.55" y1="16.62" x2="163.46" y2="12.96"/>
    <line class="cls-3" x1="109.21" y1="19.5" x2="109.1" y2="15.81"/>
    <line class="cls-3" x1="107.11" y1="19.61" x2="106.99" y2="15.87"/>
    <line class="cls-3" x1="157.91" y1="16.91" x2="157.91" y2="16.79"/>
    <line class="cls-3" x1="157.28" y1="16.95" x2="157.28" y2="16.85"/>
    <line class="cls-3" x1="158.81" y1="120.54" x2="158.75" y2="118.08"/>
    <line class="cls-3" x1="54.04" y1="23.84" x2="52.35" y2="23.93"/>
    <path class="cls-3" d="M45.47,26.03c-.34.09-.67.18-.99.33-.35.16-.71.44-.3.73"/>
    <line class="cls-3" x1="55.76" y1="18.86" x2="52.31" y2="19.04"/>
    <line class="cls-3" x1="172.07" y1="127.82" x2="172.13" y2="130.34"/>
    <line class="cls-3" x1="84.4" y1="27.91" x2="89.2" y2="27.65"/>
    <line class="cls-3" x1="174.56" y1="115.94" x2="174.43" y2="109.73"/>
    <line class="cls-3" x1="237.46" y1="115.28" x2="237.32" y2="105.03"/>
    <path class="cls-3" d="M230.4,108.96c1.39-1.86,4.96-3.27,6.93-3.93"/>
    <line class="cls-3" x1="340.25" y1="97.91" x2="340.24" y2="107.99"/>
    <path class="cls-3" d="M348.87,100.69c-1.81-1.67-6.48-2.48-8.62-2.78"/>
    <path class="cls-3" d="M229.58,108.79c.05-.3.09-.59.07-.9"/>
    <path class="cls-3" d="M230.23,107.86c.11.36.15.73.17,1.1"/>
    <path class="cls-3" d="M177.82,112.09c-.04-1.84-.37-4.96-1.27-6.68-.24-.46-.74-1.2-1.26-.66-.38.39-.53,1.09-.63,1.57-.23,1.14-.26,2.26-.24,3.41"/>
    <line class="cls-3" x1="388.33" y1="99.2" x2="388.28" y2="105.26"/>
    <path class="cls-3" d="M349.58,99.56c.02.3.08.58.15.86"/>
    <path class="cls-3" d="M348.87,100.69c.02-.37.05-.74.13-1.1"/>
    <line class="cls-3" x1="337.63" y1="97.99" x2="337.62" y2="108.08"/>
    <line class="cls-3" x1="203.95" y1="131.03" x2="203.91" y2="128.5"/>
    <path class="cls-3" d="M252.54,114.11c-.04-3.41-.08-6.82-.11-10.22"/>
    <line class="cls-3" x1="239.86" y1="115.01" x2="239.73" y2="104.76"/>
    <line class="cls-3" x1="396.37" y1="116.94" x2="396.34" y2="119.4"/>
    <line class="cls-3" x1="188.84" y1="113.16" x2="229.47" y2="110.31"/>
    <path class="cls-3" d="M388.33,99.2c.03-3.12-.27-6.14-.99-9.19-.48-2.05-1.86-6.81-4.26-7.96"/>
    <line class="cls-3" x1="349.91" y1="101.89" x2="388.33" y2="99.2"/>
    <line class="cls-3" x1="325.31" y1="98.85" x2="325.32" y2="108.95"/>
    <line class="cls-3" x1="204" y1="133.57" x2="203.95" y2="131.03"/>
    <line class="cls-3" x1="398.16" y1="318.95" x2="258.77" y2="334.18"/>
    <line class="cls-3" x1="390.57" y1="330.05" x2="252.67" y2="345.37"/>
    <line class="cls-3" x1="255.1" y1="103.8" x2="255.21" y2="114.02"/>
    <line class="cls-3" x1="321.28" y1="88.63" x2="334.11" y2="87.76"/>
    <path class="cls-3" d="M321.28,88.63c2.01,1.06,3.12,5.58,3.47,7.31"/>
    <line class="cls-3" x1="323" y1="99.1" x2="323.01" y2="109.21"/>
    <path class="cls-3" d="M316.37,102.96c1.34-1.82,4.71-3.2,6.62-3.86"/>
    <path class="cls-3" d="M263.87,106.62c-1.86-1.69-6.59-2.52-8.77-2.82"/>
    <path class="cls-3" d="M323.11,95.97c-.36-1.76-1.49-6.37-3.53-7.44"/>
    <path class="cls-3" d="M315.6,102.8c.05-.29.09-.58.08-.88"/>
    <path class="cls-3" d="M316.22,101.87c.1.36.14.72.15,1.09"/>
    <path class="cls-3" d="M264.6,105.47c.02.3.09.59.16.87"/>
    <path class="cls-3" d="M263.87,106.62c.02-.37.04-.75.12-1.12"/>
    <path class="cls-3" d="M177.12,76.87c1.69,1.08,2.72,5.8,3.01,7.34.51,2.66.77,5.32.83,8.03"/>
    <line class="cls-3" x1="42.6" y1="35.11" x2="42.52" y2="33.13"/>
    <path class="cls-3" d="M179.39,74.35c2.01,1.27,3.22,6.85,3.57,8.67.6,3.15.91,6.29.98,9.49"/>
    <line class="cls-3" x1="34.47" y1="27.24" x2="34.55" y2="29.19"/>
    <path class="cls-3" d="M327.06,83.01c0,1.68-.09,3.34-.31,5"/>
    <path class="cls-3" d="M321.92,65.34c2.35,1.16,3.7,6.27,4.14,8.26.69,3.12.99,6.22.99,9.41"/>
    <path class="cls-3" d="M307.99,117.94c-.34-.26-.69-.49-1.05-.7"/>
    <path class="cls-3" d="M295.87,115.44c-.57.04-1.14.1-1.71.23-.28.06-.56.13-.82.25-.35.16-.49.38-.11.6"/>
    <path class="cls-3" d="M225.16,92.43c-.15-.03-.29-.03-.45,0"/>
    <path class="cls-3" d="M174.04,82.88c.12-1.28.3-2.54.67-3.78.19-.62.39-1.21.78-1.75.41-.57.96-.91,1.63-.48"/>
    <path class="cls-3" d="M301.23,115.94c-.6-.35-2.01-.48-2.65-.52-.91-.06-1.81-.06-2.71,0"/>
    <path class="cls-3" d="M306.94,117.24c-1.73-1-3.72-1.43-5.71-1.29"/>
    <path class="cls-3" d="M293.23,116.52c-2.53.18-4.91,1.28-6.77,2.98"/>
    <path class="cls-3" d="M293.23,116.52c.6.35,2.02.48,2.65.52.91.06,1.81.06,2.72-.01"/>
    <path class="cls-3" d="M298.61,117.03c.57-.04,1.14-.1,1.71-.23.52-.11,1.65-.44.92-.86"/>
    <path class="cls-3" d="M237.46,101.84c-.31-1.66-1.38-6.45-3.23-7.58"/>
    <path class="cls-3" d="M230.23,107.86c-.16-2.71-.51-5.37-1.12-8.01-.39-1.69-1.56-6.07-3.4-7.19"/>
    <line class="cls-3" x1="177.82" y1="112.09" x2="177.95" y2="118.33"/>
    <line class="cls-3" x1="230.36" y1="116.44" x2="230.27" y2="110.22"/>
    <line class="cls-3" x1="349.04" y1="101.91" x2="349.02" y2="108.01"/>
    <path class="cls-3" d="M335.8,87.43c2.08,1.07,3.22,5.64,3.58,7.42"/>
    <path class="cls-3" d="M229.66,107.9c-.16-2.72-.51-5.39-1.13-8.05-.39-1.69-1.56-6.1-3.41-7.23"/>
    <line class="cls-3" x1="229.47" y1="110.31" x2="229.56" y2="116.53"/>
    <line class="cls-3" x1="188.96" y1="119.42" x2="188.84" y2="113.16"/>
    <line class="cls-3" x1="349.9" y1="107.98" x2="349.91" y2="101.89"/>
    <path class="cls-3" d="M344.54,84.63c2.08,1.05,3.36,5.11,3.84,6.93.7,2.64,1.06,5.28,1.2,8"/>
    <path class="cls-3" d="M343.97,84.74c2.07,1.05,3.34,5.09,3.82,6.89.7,2.63,1.06,5.26,1.2,7.96"/>
    <line class="cls-3" x1="335.8" y1="87.43" x2="343.97" y2="84.74"/>
    <line class="cls-3" x1="230.36" y1="116.44" x2="237.46" y2="115.28"/>
    <path class="cls-3" d="M239.04,118.14c-.57-.14-.98-.72-1.2-1.18-.26-.54-.37-1.08-.38-1.68"/>
    <path class="cls-3" d="M240.64,117.96c-.35-.22-.55-1.08-.62-1.4-.11-.51-.16-1.03-.16-1.55"/>
    <path class="cls-3" d="M323.01,109.21c0,.6.12,1.13.38,1.67.23.47.65,1.01,1.22,1.15"/>
    <path class="cls-3" d="M326.15,111.85c-.38-.21-.6-1.03-.67-1.36-.11-.51-.16-1.02-.16-1.54"/>
    <path class="cls-3" d="M338.47,110.97c-.38-.21-.6-1.02-.68-1.36-.11-.51-.17-1.02-.16-1.54"/>
    <path class="cls-3" d="M340.21,110.92c.04-.98.02-1.95.02-2.93"/>
    <line class="cls-3" x1="340.24" y1="107.99" x2="349.02" y2="108.01"/>
    <path class="cls-3" d="M253.33,117.06c-.35-.22-.56-1.07-.63-1.4-.11-.51-.16-1.03-.16-1.55"/>
    <path class="cls-3" d="M255.11,117c.11-.44.1-2.54.1-2.98"/>
    <path class="cls-3" d="M235.98,94.37c1.82,1.11,2.87,5.81,3.18,7.44"/>
    <path class="cls-3" d="M337.63,95.06c-.36-1.75-1.48-6.24-3.51-7.29"/>
    <line class="cls-3" x1="323.01" y1="109.21" x2="316.25" y2="110.34"/>
    <line class="cls-3" x1="255.21" y1="114.02" x2="264.12" y2="114.04"/>
    <path class="cls-3" d="M252.42,100.9c-.32-1.65-1.37-6.32-3.22-7.42"/>
    <line class="cls-3" x1="316.25" y1="110.34" x2="316.24" y2="104.21"/>
    <line class="cls-3" x1="264.12" y1="114.04" x2="264.07" y2="107.86"/>
    <line class="cls-3" x1="250.93" y1="93.14" x2="259.33" y2="90.4"/>
    <path class="cls-3" d="M259.33,90.4c1.91,1.1,3.1,5.39,3.52,7.11.64,2.64.99,5.29,1.14,8"/>
    <path class="cls-3" d="M250.93,93.14c1.89,1.12,2.97,5.87,3.29,7.55"/>
    <path class="cls-3" d="M316.22,101.87c-.15-2.71-.5-5.34-1.18-7.98-.45-1.77-1.7-5.91-3.71-6.98"/>
    <line class="cls-3" x1="315.47" y1="104.3" x2="315.48" y2="110.43"/>
    <line class="cls-3" x1="265.01" y1="114.01" x2="264.96" y2="107.83"/>
    <path class="cls-3" d="M259.91,90.29c1.92,1.11,3.12,5.41,3.54,7.14.64,2.66.99,5.32,1.15,8.04"/>
    <path class="cls-3" d="M315.67,101.92c-.15-2.72-.51-5.37-1.18-8.02-.46-1.78-1.71-5.94-3.72-7.01"/>
    <line class="cls-3" x1="264.96" y1="107.83" x2="315.47" y2="104.3"/>
    <line class="cls-3" x1="452.85" y1="427.32" x2="452.34" y2="427.02"/>
    <line class="cls-3" x1="195.19" y1="298.59" x2="194.46" y2="297.87"/>
    <line class="cls-3" x1="190.91" y1="307.18" x2="191.64" y2="307.91"/>
    <path class="cls-3" d="M367.12,82.96c-1.37-1.11-2.74-2.23-4.11-3.34-.68-.55-1.36-1.11-2.04-1.66-.34-.27-.68-.55-1.01-.82-.35-.29-.69-.58-1.08-.82-2.41-1.43-7.63-2.21-10.24-2.53-6.66-.83-14.47-.99-21.16-.68"/>
    <line class="cls-3" x1="204.12" y1="293.97" x2="203.38" y2="293.25"/>
    <line class="cls-3" x1="447.55" y1="269.31" x2="446.56" y2="268.65"/>
    <line class="cls-3" x1="194.65" y1="456.19" x2="193.94" y2="455.3"/>
    <line class="cls-3" x1="393.95" y1="104.65" x2="395.39" y2="105.36"/>
    <line class="cls-3" x1="215.85" y1="458.09" x2="215.3" y2="457.75"/>
    <path class="cls-3" d="M393.78,97.7c0,.26-.28.43-.46.53-.21.12-.44.21-.67.28-.47.15-.94.26-1.42.35-.96.18-1.93.28-2.9.35"/>
    <line class="cls-3" x1="455.42" y1="285.25" x2="454.88" y2="284.96"/>
    <path class="cls-3" d="M258.09,90.24c.43-.15.85-.06,1.24.16"/>
    <path class="cls-3" d="M339.42,95.08c1.72.47,3.41,1.01,5.05,1.71"/>
    <path class="cls-3" d="M237.33,105c.11-.97.14-1.95.18-2.92"/>
    <path class="cls-3" d="M339.42,95.08c.42.9.66,1.83.82,2.8"/>
    <path class="cls-3" d="M225.7,92.65c-.17-.1-.34-.18-.54-.22"/>
    <path class="cls-3" d="M172.18,118.59c1.36-.1,2.42-1.3,2.39-2.65"/>
    <line class="cls-3" x1="174.56" y1="115.94" x2="177.95" y2="118.33"/>
    <path class="cls-3" d="M388.28,105.26c.97-.07,1.94-.17,2.9-.35.48-.09.95-.2,1.42-.35.28-.1,1.12-.36,1.13-.82"/>
    <path class="cls-3" d="M235.98,94.37c-.59.04-1.17,0-1.75-.1"/>
    <line class="cls-3" x1="213.32" y1="310.5" x2="212.74" y2="310.17"/>
    <path class="cls-3" d="M252.43,103.82c.02-.92.07-1.84.01-2.77"/>
    <line class="cls-3" x1="235.98" y1="94.37" x2="249.2" y2="93.48"/>
    <path class="cls-3" d="M334.11,87.76c-.27-.14-.52-.21-.83-.19"/>
    <path class="cls-3" d="M323.16,96.2c-.02.96-.05,1.92-.16,2.88"/>
    <path class="cls-3" d="M254.26,100.93c1.75.48,3.46,1.03,5.13,1.74"/>
    <path class="cls-3" d="M255.1,103.77c-.17-.99-.42-1.93-.84-2.84"/>
    <path class="cls-3" d="M249.2,93.48c.6-.04,1.17-.15,1.74-.34"/>
    <path class="cls-3" d="M321.28,88.63c-.58.04-1.13,0-1.7-.1"/>
    <line class="cls-3" x1="259.91" y1="90.29" x2="310.77" y2="86.89"/>
    <line class="cls-3" x1="435.01" y1="402.2" x2="425.5" y2="394.32"/>
    <line class="cls-3" x1="428.98" y1="305.49" x2="419.39" y2="298.6"/>
    <line class="cls-3" x1="229.1" y1="439.68" x2="221.67" y2="431.09"/>
    <line class="cls-3" x1="424.53" y1="414.87" x2="415.13" y2="406.84"/>
    <line class="cls-3" x1="205.3" y1="306.57" x2="206.3" y2="307.56"/>
    <line class="cls-3" x1="204.55" y1="307.41" x2="205.55" y2="308.39"/>
    <line class="cls-3" x1="201.45" y1="306.97" x2="202.44" y2="307.96"/>
    <line class="cls-3" x1="204.48" y1="303.58" x2="205.48" y2="304.56"/>
    <path class="cls-3" d="M343.04,84.51c.16-.06.32-.1.5-.11"/>
    <line class="cls-3" x1="200.58" y1="94.2" x2="200.57" y2="93.96"/>
    <line class="cls-3" x1="444.71" y1="420.9" x2="446.02" y2="421.99"/>
    <line class="cls-3" x1="445.35" y1="423.64" x2="446.65" y2="424.74"/>
    <line class="cls-3" x1="444.65" y1="424.42" x2="445.96" y2="425.53"/>
    <line class="cls-3" x1="195.34" y1="302.67" x2="196.04" y2="302.79"/>
    <line class="cls-3" x1="198.27" y1="451.08" x2="199.01" y2="451.07"/>
    <path class="cls-3" d="M217.26,13.76c.21-.01.39.04.58.13"/>
    <path class="cls-3" d="M93.46,20.34c.18,0,.32.04.47.14"/>
    <path class="cls-3" d="M93.93,20.48c-1.12.06-1.98,1.03-1.94,2.15"/>
    <path class="cls-3" d="M321.92,65.34c.37-.02.7.04,1.03.21"/>
    <path class="cls-3" d="M179.39,74.35c-1.3.08-2.3,1.23-2.27,2.52"/>
    <path class="cls-3" d="M320.98,65.14c.34-.02.64.05.94.21"/>
    <path class="cls-3" d="M174.25,115.48c0,.2.18.36.32.46"/>
    <path class="cls-3" d="M178.62,74.13c.3-.02.53.07.77.22"/>
    <path class="cls-3" d="M334.59,87.32c.45-.15.8-.09,1.21.12"/>
    <line class="cls-3" x1="179.39" y1="74.35" x2="321.92" y2="65.34"/>
    <path class="cls-3" d="M235.25,94.17c.28-.02.5.06.73.2"/>
    <path class="cls-3" d="M183.94,92.51c.02.86.02,1.72,0,2.59"/>
    <path class="cls-3" d="M180.96,92.23c.02,1.15,0,2.29-.06,3.44"/>
    <path class="cls-3" d="M343.54,84.41c.37-.02.68.06,1,.22"/>
    <path class="cls-3" d="M320.47,88.44c.3-.02.55.05.82.19"/>
    <path class="cls-3" d="M249.89,93c.4-.13.69-.06,1.04.14"/>
    <path class="cls-3" d="M310.79,86.72c-.16-.03-.32-.04-.49-.02"/>
    <path class="cls-3" d="M259.01,90.05c.34-.02.61.07.9.23"/>
    <path class="cls-3" d="M318.68,221.59c.8-.07,1.61.13,2.27.6"/>
    <path class="cls-3" d="M294.02,223.82c.84-.08,1.67.14,2.35.64"/>
    <path class="cls-3" d="M269.15,226.08c.87-.08,1.74.15,2.44.69"/>
    <path class="cls-3" d="M344.47,96.79c1.48.63,3.37,1.59,4.52,2.8"/>
    <path class="cls-3" d="M233.68,104.44c1.22-.89,2.5-1.66,3.83-2.36"/>
    <path class="cls-3" d="M230.23,107.86c.91-1.43,2.11-2.44,3.45-3.42"/>
    <path class="cls-3" d="M340.25,97.88s0,.02,0,.03"/>
    <path class="cls-3" d="M337.63,97.99c.87-.06,1.74-.09,2.62-.08"/>
    <line class="cls-3" x1="374.6" y1="223.27" x2="371.28" y2="222.23"/>
    <path class="cls-3" d="M239.19,101.96c.27.9.48,1.79.53,2.74"/>
    <path class="cls-3" d="M239.16,101.81c-.57.04-1.13.05-1.7.03"/>
    <path class="cls-3" d="M239.16,101.81s.02.1.04.15"/>
    <path class="cls-3" d="M239.19,101.96c-.56.06-1.12.11-1.69.12"/>
    <path class="cls-3" d="M237.51,102.08c-.02-.08-.04-.15-.05-.23"/>
    <path class="cls-3" d="M339.39,94.85c-.58.09-1.17.16-1.76.2"/>
    <path class="cls-3" d="M339.39,94.85c.02.08.03.15.04.23"/>
    <path class="cls-3" d="M337.65,95.2c.59-.01,1.19-.05,1.78-.12"/>
    <path class="cls-3" d="M337.65,95.2s0-.1-.02-.14"/>
    <path class="cls-3" d="M340.25,97.88c-.87-.01-1.74,0-2.61.04"/>
    <path class="cls-3" d="M337.63,97.93c.04-.91.08-1.81.01-2.73"/>
    <path class="cls-3" d="M335.8,87.43c-.55.18-1.11.29-1.69.33"/>
    <path class="cls-3" d="M229.66,107.9c.19-.01.38-.03.57-.04"/>
    <path class="cls-3" d="M230.27,110.22c-.27.04-.53.07-.8.09"/>
    <path class="cls-3" d="M229.47,110.31c0-.51.03-1.01.12-1.52"/>
    <path class="cls-3" d="M229.58,108.79c.27.06.54.11.81.16"/>
    <path class="cls-3" d="M230.4,108.96c-.09.42-.13.84-.13,1.27"/>
    <path class="cls-3" d="M188.84,113.16c-1.86.13-3.72.14-5.58.03-1.18-.07-4.33-.33-5.43-1.1"/>
    <path class="cls-3" d="M174.43,109.73c-.14-.1-.31-.25-.32-.45"/>
    <path class="cls-3" d="M349.73,100.42c.12.49.18.97.18,1.47"/>
    <path class="cls-3" d="M349.91,101.89c-.29.02-.58.03-.87.03"/>
    <path class="cls-3" d="M349.04,101.91c0-.42-.06-.82-.17-1.22"/>
    <path class="cls-3" d="M349.73,100.42c-.29.1-.58.19-.87.27"/>
    <path class="cls-3" d="M382.25,81.85c0,.06,0,.12,0,.18"/>
    <path class="cls-3" d="M348.99,99.59c.2-.01.39-.02.59-.04"/>
    <path class="cls-3" d="M234.23,94.26c-.15-.09-.3-.15-.46-.19"/>
    <path class="cls-3" d="M337.63,97.93s0,.04,0,.06"/>
    <line class="cls-3" x1="212.9" y1="124.81" x2="212.92" y2="125.62"/>
    <line class="cls-3" x1="391.92" y1="111.87" x2="391.92" y2="112.87"/>
    <line class="cls-3" x1="396.37" y1="116.94" x2="396.39" y2="114.49"/>
    <line class="cls-3" x1="172.07" y1="127.82" x2="172.01" y2="125.3"/>
    <path class="cls-3" d="M175.55,121c1.37-.1,2.43-1.31,2.4-2.67"/>
    <path class="cls-3" d="M177.95,118.33c1.1.78,4.24,1.04,5.42,1.11,1.87.12,3.72.1,5.58-.03"/>
    <path class="cls-3" d="M189.71,122.41c-.33-.23-.52-1.11-.59-1.43-.1-.52-.15-1.03-.16-1.56"/>
    <line class="cls-3" x1="188.96" y1="119.42" x2="229.56" y2="116.53"/>
    <path class="cls-3" d="M230.33,119.5c-.34-.22-.55-1.09-.61-1.41-.1-.52-.16-1.03-.16-1.56"/>
    <path class="cls-3" d="M229.56,116.53c.27-.02.54-.05.8-.09"/>
    <path class="cls-3" d="M231.94,119.32c-.57-.14-.98-.72-1.2-1.19-.26-.55-.37-1.08-.38-1.69"/>
    <path class="cls-3" d="M237.46,115.28c.8-.13,1.59-.21,2.4-.27"/>
    <path class="cls-3" d="M325.32,108.95c-.77.05-1.54.13-2.31.26"/>
    <line class="cls-3" x1="325.32" y1="108.95" x2="337.62" y2="108.08"/>
    <path class="cls-3" d="M337.62,108.08c.87-.06,1.74-.09,2.61-.09"/>
    <path class="cls-3" d="M349.01,110.94c.02-.98.01-1.95.02-2.93"/>
    <path class="cls-3" d="M349.02,108.01c.29,0,.58,0,.87-.03"/>
    <path class="cls-3" d="M350.75,110.88c-.39-.21-.61-1.01-.69-1.35-.12-.51-.17-1.02-.17-1.54"/>
    <line class="cls-3" x1="349.9" y1="107.98" x2="388.28" y2="105.26"/>
    <path class="cls-3" d="M395.39,105.36c-.36.03-.68-.03-1.01-.18"/>
    <path class="cls-3" d="M389.16,108.13c-.4-.2-.63-.99-.71-1.34-.12-.51-.17-1.02-.17-1.54"/>
    <line class="cls-3" x1="252.54" y1="114.11" x2="239.86" y2="115.01"/>
    <line class="cls-3" x1="239.72" y1="104.69" x2="252.43" y2="103.82"/>
    <line class="cls-3" x1="239.16" y1="101.81" x2="252.42" y2="100.9"/>
    <line class="cls-3" x1="325.31" y1="98.78" x2="337.63" y2="97.93"/>
    <line class="cls-3" x1="324.75" y1="95.94" x2="337.63" y2="95.06"/>
    <path class="cls-3" d="M225.12,92.61c.2-.01.39,0,.59.04"/>
    <path class="cls-3" d="M115.97,18.04c.1.32.16.64.17.98"/>
    <path class="cls-3" d="M266.76,232.98c-.72-.56-1.16-1.39-1.28-2.28"/>
    <path class="cls-3" d="M344.54,84.63c-.19.01-.38.05-.56.11"/>
    <path class="cls-3" d="M324.79,96.08c-.54.06-1.08.1-1.63.11"/>
    <path class="cls-3" d="M324.79,96.08c.28.88.48,1.76.52,2.7"/>
    <path class="cls-3" d="M316.25,110.34c0,.6.12,1.13.38,1.68.23.47.65,1.02,1.22,1.15"/>
    <path class="cls-3" d="M412.11,319.04c.96-.23,1.88-.51,2.76-.94.62-.3,2.01-1.04,1.91-2.01"/>
    <path class="cls-3" d="M419.95,389.62c.77,6.96-4.72,13.79-11.64,14.65"/>
    <path class="cls-3" d="M252.66,325.73c.01,1.01-.03,2-.2,3-.08.5-.19.98-.37,1.45-.14.37-.45,1.01-.96,1.07"/>
    <path class="cls-3" d="M230.75,335.55c-.18-.18-.37-.43-.34-.72"/>
    <path class="cls-3" d="M405.6,394.83c2.76-.34,4.96-3.07,4.65-5.85"/>
    <path class="cls-3" d="M401.77,317.75c.04.35.28.62.54.81"/>
    <path class="cls-3" d="M249.5,315.77c.28-.03.54.14.72.31"/>
    <path class="cls-3" d="M409.7,388.09c.05.41.25.65.54.89"/>
    <path class="cls-3" d="M245.9,336.51c-.05.49-.72.78-1.07.91-.47.17-.94.27-1.43.34-.98.15-1.95.18-2.93.17"/>
    <path class="cls-3" d="M241.39,414.5c.33-.04.62.21.81.42"/>
    <path class="cls-3" d="M226.71,423.74c-3.33-3.78-4.66-8.75-4.12-13.67"/>
    <path class="cls-3" d="M172.18,118.59c-.52-.37-.55-.78-.04-1.18.4-.31.84-.48,1.31-.64"/>
    <line class="cls-3" x1="175.55" y1="121" x2="172.18" y2="118.59"/>
    <path class="cls-3" d="M189.71,122.41c-2.4.17-4.78.19-7.18.04-1.52-.09-5.56-.43-6.98-1.44"/>
    <line class="cls-3" x1="230.33" y1="119.5" x2="189.71" y2="122.41"/>
    <path class="cls-3" d="M231.94,119.32c-.53.09-1.07.14-1.61.18"/>
    <line class="cls-3" x1="239.04" y1="118.14" x2="231.94" y2="119.32"/>
    <path class="cls-3" d="M240.64,117.96c-.54.04-1.07.09-1.6.18"/>
    <line class="cls-3" x1="253.33" y1="117.06" x2="240.64" y2="117.96"/>
    <path class="cls-3" d="M255.11,117c-.6,0-1.19.02-1.78.06"/>
    <line class="cls-3" x1="264.03" y1="117.02" x2="255.11" y2="117"/>
    <path class="cls-3" d="M265.81,116.96c-.59.04-1.19.06-1.78.06"/>
    <path class="cls-3" d="M317.86,113.17c-.51.09-1.03.14-1.55.18"/>
    <line class="cls-3" x1="324.62" y1="112.03" x2="317.86" y2="113.17"/>
    <path class="cls-3" d="M326.15,111.85c-.52.04-1.03.09-1.54.18"/>
    <line class="cls-3" x1="338.47" y1="110.97" x2="326.15" y2="111.85"/>
    <path class="cls-3" d="M340.21,110.92c-.58,0-1.16.02-1.74.06"/>
    <line class="cls-3" x1="349.01" y1="110.94" x2="340.21" y2="110.92"/>
    <path class="cls-3" d="M350.75,110.88c-.58.04-1.16.06-1.74.06"/>
    <line class="cls-3" x1="389.16" y1="108.13" x2="350.75" y2="110.88"/>
    <path class="cls-3" d="M395.39,105.36c.91.46,1.09,1,.14,1.52-.65.36-1.34.52-2.06.68-1.42.31-2.86.47-4.3.57"/>
    <path class="cls-3" d="M264.12,114.04c0,.44,0,2.54-.09,2.98"/>
    <path class="cls-3" d="M255.21,114.02c-.89,0-1.78.03-2.67.09"/>
    <path class="cls-3" d="M254.26,100.93c-.61.07-1.21.11-1.82.12"/>
    <path class="cls-3" d="M252.44,101.05s0-.1-.02-.15"/>
    <path class="cls-3" d="M254.22,100.69c-.6.1-1.2.17-1.8.21"/>
    <path class="cls-3" d="M254.22,100.69c.01.08.03.15.03.23"/>
    <path class="cls-3" d="M324.75,95.94s.02.1.04.14"/>
    <path class="cls-3" d="M324.75,95.94c-.55.04-1.09.05-1.64.03"/>
    <path class="cls-3" d="M323.16,96.2c-.02-.08-.04-.15-.05-.23"/>
    <path class="cls-3" d="M401.87,309.66c5.48.04,9.64,4,10.24,9.38"/>
    <path class="cls-3" d="M315.48,110.43c.26-.02.52-.05.77-.09"/>
    <path class="cls-3" d="M265.81,116.96c-.36-.22-.57-1.07-.64-1.39-.11-.51-.16-1.03-.16-1.55"/>
    <path class="cls-3" d="M315.48,110.43c0,.52.05,1.03.16,1.55.07.34.29,1.16.67,1.37"/>
    <line class="cls-3" x1="316.31" y1="113.35" x2="265.81" y2="116.96"/>
    <path class="cls-3" d="M264.12,114.04c.3,0,.59,0,.89-.03"/>
    <path class="cls-3" d="M259.38,102.66c1.51.64,3.43,1.62,4.61,2.84"/>
    <line class="cls-3" x1="412.11" y1="319.04" x2="419.95" y2="389.62"/>
    <path class="cls-3" d="M249.2,93.48c-.24-.14-.46-.22-.74-.2"/>
    <path class="cls-3" d="M319.52,98.51c1.16-.87,2.38-1.62,3.64-2.32"/>
    <path class="cls-3" d="M316.22,101.87c.87-1.39,2.02-2.4,3.3-3.36"/>
    <path class="cls-3" d="M419.95,389.62c.97-.24,1.89-.54,2.77-1.01.66-.35,1.93-1.13,1.82-2.13"/>
    <path class="cls-3" d="M316.24,104.21c-.26.04-.51.07-.77.09"/>
    <path class="cls-3" d="M315.47,104.3c0-.5.04-1,.13-1.5"/>
    <path class="cls-3" d="M315.6,102.8c.26.05.52.11.78.16"/>
    <path class="cls-3" d="M316.37,102.96c-.09.41-.13.83-.13,1.25"/>
    <line class="cls-3" x1="315.48" y1="110.43" x2="265.01" y2="114.01"/>
    <path class="cls-3" d="M264.76,106.34c.13.49.19.98.2,1.49"/>
    <path class="cls-3" d="M264.96,107.83c-.3.02-.59.03-.89.03"/>
    <path class="cls-3" d="M264.07,107.86c0-.43-.07-.83-.19-1.24"/>
    <path class="cls-3" d="M264.76,106.34c-.29.1-.59.2-.88.28"/>
    <path class="cls-3" d="M263.99,105.51c.2-.01.4-.02.6-.04"/>
    <path class="cls-3" d="M315.67,101.92c.18-.01.36-.03.55-.04"/>
    <path class="cls-3" d="M311.34,86.92c-.17-.09-.35-.16-.54-.2"/>
    <path class="cls-3" d="M319.58,88.52c-.15-.08-.3-.14-.47-.17"/>
    <path class="cls-3" d="M259.91,90.29c-.2.01-.39.05-.58.11"/>
    <path class="cls-3" d="M310.77,86.89c.19-.01.38,0,.57.04"/>
    <path class="cls-3" d="M408.31,404.27c-.01.95-.09,1.88-.31,2.82-.16.67-.59,2.09-1.53,2.21"/>
    <path class="cls-3" d="M402.3,318.57c-.13-1.15-.68-2.21-1.61-2.92"/>
    <path class="cls-3" d="M92.73,45.01c.47.32.83.04,1.1-.36.25-.38.38-.79.51-1.22.24-.86.37-1.72.46-2.6.19-1.76.21-3.52.15-5.28"/>
    <path class="cls-3" d="M97.44,35.74c.07,2,.04,3.98-.16,5.97-.1,1-.23,1.98-.48,2.95-.12.49-.26.96-.48,1.41-.18.38-.49.97-1.02,1"/>
    <path class="cls-3" d="M221.8,28.8c.03,2.02-.06,4.02-.37,6.02-.16,1-.36,1.98-.71,2.93-.25.69-.85,2.14-1.85,2.2"/>
    <path class="cls-3" d="M250.22,316.08c1.01.94,1.65,3.43,1.9,4.62.35,1.66.53,3.32.55,5.02"/>
    <line class="cls-3" x1="252.66" y1="325.73" x2="257.89" y2="325.16"/>
    <path class="cls-3" d="M402.3,318.57c1.16.88,3.55,1.04,4.84,1.05,1.69,0,3.33-.18,4.97-.57"/>
    <path class="cls-3" d="M410.24,388.98c1.14.95,3.46,1.17,4.76,1.19,1.69.03,3.31-.15,4.95-.56"/>
    <path class="cls-3" d="M230.75,335.55c1.1-10.01,9.43-18.4,19.47-19.47"/>
    <line class="cls-3" x1="398.26" y1="310.05" x2="401.87" y2="309.66"/>
    <path class="cls-3" d="M401.72,300.37c2.84.32,5.55,1.34,7.87,3.03"/>
    <path class="cls-3" d="M341.12,219.55c.76-.06,1.51.13,2.15.56"/>
    <path class="cls-3" d="M240.47,337.92c.69-6.27,5.91-11.52,12.2-12.2"/>
    <path class="cls-3" d="M240.47,337.92c-1.7-.03-3.37-.21-5.04-.55-1.2-.24-3.7-.86-4.68-1.83"/>
    <path class="cls-3" d="M405.6,394.83c1.12.96,1.83,3.18,2.14,4.46.4,1.65.59,3.28.57,4.98"/>
    <line class="cls-3" x1="408.31" y1="404.27" x2="244.6" y2="424.68"/>
    <line class="cls-3" x1="232.2" y1="412.59" x2="240.47" y2="337.92"/>
    <path class="cls-3" d="M242.2,414.92c.95,1.04,1.57,3.45,1.83,4.71.35,1.68.54,3.35.56,5.06"/>
    <path class="cls-3" d="M244.6,424.68c-7.34.92-13.22-4.7-12.4-12.1"/>
    <path class="cls-3" d="M222.58,410.07c.95,1.06,3.37,1.71,4.59,1.98,1.66.36,3.32.54,5.02.54"/>
    <path class="cls-3" d="M232.2,412.59c1,0,1.98-.06,2.97-.25.49-.09.97-.22,1.43-.42.38-.17.96-.5,1.01-1.01"/>
    <path class="cls-3" d="M222.26,409.26c-.03.31.14.59.33.8"/>
    <path class="cls-3" d="M238.34,413.56c.99,1.09,2.44,1.53,3.86,1.36"/>
  </g>
  <g id="Make2D::可见线::曲线">
    <path class="cls-3" d="M316.29,228.46c-.28.03-.55.03-.82,0"/>
    <path class="cls-3" d="M338.07,225.74c-.09.02-.18.03-.27.04"/>
    <path class="cls-3" d="M401.77,317.75c-.09-.79-.4-1.59-1.07-2.1"/>
    <line class="cls-3" x1="409.7" y1="388.09" x2="401.77" y2="317.75"/>
    <path class="cls-3" d="M226.71,423.74c-3.51-3.99-5.02-9.25-4.45-14.47"/>
    <path class="cls-3" d="M409.58,303.41c4.13,3.03,6.65,7.64,7.2,12.69"/>
    <line class="cls-3" x1="406.47" y1="409.29" x2="243.25" y2="429.79"/>
    <path class="cls-3" d="M237.61,410.91c-.11.93.06,1.92.73,2.65"/>
    <line class="cls-3" x1="236.39" y1="16.31" x2="220.26" y2="8.5"/>
    <line class="cls-3" x1="413.42" y1="407.06" x2="415.13" y2="406.84"/>
    <path class="cls-3" d="M91.95,27.66c.08,0,.14.03.21.07"/>
    <path class="cls-3" d="M124.3,18.7s0-.07,0-.1"/>
    <path class="cls-3" d="M90.14,25.48s-.07,0-.11,0"/>
    <path class="cls-3" d="M400.62,301.81c1.08,2.23,1.41,5.46,1.26,7.85"/>
    <path class="cls-3" d="M401.87,309.66c-.07,1.07-.22,2.1-.54,3.12-.24.76-.84,2.24-1.89,2.36"/>
    <path class="cls-3" d="M401.87,300.2c2.79.44,5.44,1.53,7.72,3.2"/>
    <line class="cls-3" x1="257.95" y1="330.5" x2="251.14" y2="331.24"/>
    <path class="cls-3" d="M404.62,394.45c2.83-.37,5.41-3.48,5.08-6.36"/>
    <line class="cls-3" x1="258.77" y1="334.18" x2="258.67" y2="324.25"/>
    <line class="cls-3" x1="376.53" y1="226.43" x2="373" y2="224.84"/>
    <path class="cls-3" d="M200.57,93.96c-.47.06-.83.42-1.09.76"/>
    <path class="cls-3" d="M255.1,103.8s0-.02,0-.03"/>
    <path class="cls-3" d="M323,99.07s0,.02,0,.03"/>
    <path class="cls-3" d="M238.34,413.56c.78.86,1.99,1.07,3.05.94"/>
    <line class="cls-3" x1="245.9" y1="336.51" x2="237.61" y2="410.91"/>
    <path class="cls-3" d="M173.45,116.78c-1-.03-1.99.03-2.99.1"/>
    <line class="cls-3" x1="170.46" y1="116.87" x2="164.96" y2="117.26"/>
    <line class="cls-3" x1="241.39" y1="414.5" x2="404.59" y2="394.45"/>
    <line class="cls-3" x1="222.26" y1="409.26" x2="230.41" y2="334.83"/>
    <path class="cls-3" d="M164.96,117.26c-.5.04-1,.09-1.49.18-.25.05-.49.1-.73.18-.14.05-.59.18-.58.42"/>
    <path class="cls-3" d="M251.14,331.24c-2.63.29-4.95,2.65-5.24,5.27"/>
    <path class="cls-3" d="M230.41,334.83c1.08-9.9,9.17-18.01,19.09-19.06"/>
    <line class="cls-3" x1="410.21" y1="108.19" x2="397.03" y2="101.68"/>
    <path class="cls-3" d="M397.03,101.68c-.75-.37-2.5-.45-3.27-.46"/>
    <path class="cls-3" d="M383.07,111.06c1.49-.11,2.98-.11,4.47,0,1.11.07,3.32.29,4.38.83"/>
    <line class="cls-3" x1="416.79" y1="316.09" x2="424.55" y2="386.47"/>
    <path class="cls-3" d="M391.92,111.87c.16.08.48.26.48.5"/>
    <path class="cls-3" d="M379.17,112.79c-.16-.08-.46-.26-.46-.49"/>
    <path class="cls-3" d="M204.14,123.94c1.48-.11,2.96-.12,4.44-.02.97.06,3.41.27,4.32.89"/>
    <path class="cls-3" d="M212.9,124.81c.12.08.29.22.29.4"/>
    <path class="cls-3" d="M199.33,125.79c-.12-.08-.28-.22-.28-.39"/>
    <path class="cls-3" d="M381.08,82.66c-1.22.46-2.44.65-3.73.73"/>
    <path class="cls-3" d="M376.53,226.43c-1.25-.57-1.93-1.83-1.93-3.16"/>
    <line class="cls-3" x1="195.06" y1="95.61" x2="192.62" y2="95.78"/>
    <line class="cls-3" x1="266.76" y1="232.98" x2="265.54" y2="232.03"/>
    <line class="cls-3" x1="291.65" y1="230.72" x2="290.49" y2="229.85"/>
    <path class="cls-3" d="M192.62,95.78c-1.63.11-3.24.02-4.86-.17"/>
    <path class="cls-3" d="M255.1,103.77c-.89-.02-1.78,0-2.67.05"/>
    <path class="cls-3" d="M252.43,103.88c.89-.06,1.78-.09,2.67-.09"/>
    <path class="cls-3" d="M252.43,103.82s0,.04,0,.06"/>
    <path class="cls-3" d="M239.73,104.76s0-.04,0-.06"/>
    <path class="cls-3" d="M173.45,116.78c.12,0,.25,0,.37-.01"/>
    <line class="cls-3" x1="162.35" y1="120.72" x2="172.07" y2="127.82"/>
    <line class="cls-3" x1="203.95" y1="131.03" x2="396.37" y2="116.94"/>
    <path class="cls-3" d="M396.37,116.94c2.8-.21,5.58-.51,8.34-1.04,1.38-.27,2.74-.58,4.07-1.04.67-.23,1.31-.49,1.92-.84.37-.21.7-.44.97-.78.19-.23.31-.46.32-.77"/>
    <path class="cls-3" d="M383.06,113.5c-.18.01-.36.03-.54.04"/>
    <path class="cls-3" d="M204.19,126.45c-.52.04-1.03.09-1.54.15"/>
    <path class="cls-3" d="M323,99.1c.77-.12,1.53-.2,2.31-.26"/>
    <line class="cls-3" x1="325.31" y1="98.85" x2="325.2" y2="98.79"/>
    <path class="cls-3" d="M325.31,98.85s0-.04,0-.06"/>
    <path class="cls-3" d="M374.6,223.27c0-1.47.84-2.87,2.11-3.6,1.29-.74,2.92-.72,4.06.33"/>
    <path class="cls-3" d="M172.07,127.82c1.8,1.31,5.63,2.08,7.66,2.42,2.67.45,5.34.71,8.04.89,5.41.34,10.78.3,16.18-.09"/>
    <path class="cls-3" d="M237.33,105s0,.02,0,.03"/>
    <path class="cls-3" d="M237.32,105.03c.8-.13,1.6-.21,2.4-.26"/>
    <line class="cls-3" x1="259.01" y1="90.05" x2="309.81" y2="86.66"/>
    <line class="cls-3" x1="379.01" y1="218.38" x2="380.78" y2="219.99"/>
    <line class="cls-3" x1="270.73" y1="226.1" x2="270.73" y2="225.81"/>
    <line class="cls-3" x1="295.48" y1="223.81" x2="295.48" y2="223.56"/>
    <line class="cls-3" x1="320.03" y1="221.53" x2="320.03" y2="221.32"/>
    <line class="cls-3" x1="342.32" y1="219.47" x2="342.32" y2="219.3"/>
    <path class="cls-3" d="M266.78,233c-.32.02-.64,0-.96-.05"/>
    <path class="cls-3" d="M316.3,228.45s0,0,0,0"/>
    <path class="cls-3" d="M315.67,227.8c-.08.01-.16.02-.24.03"/>
    <path class="cls-3" d="M271.59,226.76c.96.74,1.53,1.88,1.54,3.09"/>
    <path class="cls-3" d="M273.13,229.85c.02,2.05-1.54,3.76-3.58,3.95"/>
    <path class="cls-3" d="M294.4,231.52c-.97.09-1.94-.19-2.72-.77"/>
    <path class="cls-3" d="M319.04,229.25c-.94.09-1.88-.17-2.65-.73"/>
    <path class="cls-3" d="M309.81,86.66c.33-.02.66,0,.99.06"/>
    <path class="cls-3" d="M341.42,227.19c-.92.08-1.83-.16-2.58-.69"/>
    <path class="cls-3" d="M319.11,88.35c.45.09.89.12,1.35.09"/>
    <path class="cls-3" d="M380.78,219.99c.74.67,1.1,1.63,1.09,2.61"/>
    <path class="cls-3" d="M248.45,93.28c.5-.03.97-.13,1.44-.29"/>
    <path class="cls-3" d="M200.78,94c0,.08,0,.16.01.24"/>
    <path class="cls-3" d="M381.87,222.61c0,1.3-.66,2.55-1.69,3.32-1.03.78-2.42,1.05-3.65.5"/>
    <path class="cls-3" d="M67.92,26.82c-.18-.14-.36-.27-.57-.36"/>
    <path class="cls-3" d="M65.4,20.9s0,0,0,0"/>
    <path class="cls-3" d="M232.81,18.96c-.23.12-.43.28-.62.45"/>
    <path class="cls-3" d="M152.58,17.15c-1.84.1-3.69.2-5.53.29"/>
    <path class="cls-3" d="M156.48,16.94c-1.3.07-2.6.14-3.89.21"/>
    <path class="cls-3" d="M200.64,93.95s-.05,0-.07,0"/>
    <line class="cls-3" x1="235.25" y1="94.17" x2="248.45" y2="93.28"/>
    <path class="cls-3" d="M342.54,84.61c.33-.11.66-.18,1-.2"/>
    <path class="cls-3" d="M177.94,97.09h0"/>
    <path class="cls-3" d="M233.76,94.07c.5.1.98.13,1.49.09"/>
    <line class="cls-3" x1="178.62" y1="74.13" x2="320.98" y2="65.14"/>
    <line class="cls-3" x1="162.22" y1="120.52" x2="162.16" y2="118.04"/>
    <path class="cls-3" d="M320.98,65.14c.72-.05,1.33.09,1.98.41"/>
    <path class="cls-3" d="M162.22,120.52c0,.1.06.14.13.19"/>
    <path class="cls-3" d="M177.25,82.79s-.02-.01-.03-.02"/>
    <path class="cls-3" d="M162.16,118.04c0,.1.06.14.13.19"/>
    <line class="cls-3" x1="412.01" y1="110.04" x2="411.99" y2="112.47"/>
    <path class="cls-3" d="M412.01,110.04c.01-.89-1.21-1.56-1.81-1.85"/>
    <path class="cls-3" d="M378.71,112.3c0-.37.67-.59.9-.67.37-.13.75-.21,1.14-.29.77-.15,1.55-.23,2.33-.29"/>
    <path class="cls-3" d="M92.15,27.73s.02.01.02.02"/>
    <line class="cls-3" x1="443.22" y1="423.05" x2="439.7" y2="423.5"/>
    <line class="cls-3" x1="443.86" y1="425.8" x2="443.8" y2="429.38"/>
    <line class="cls-3" x1="450.2" y1="422.15" x2="446.69" y2="422.6"/>
    <line class="cls-3" x1="443.98" y1="418.68" x2="443.92" y2="422.26"/>
    <line class="cls-3" x1="202.4" y1="305.64" x2="198.49" y2="306.04"/>
    <line class="cls-3" x1="203.22" y1="308.63" x2="203.29" y2="312.51"/>
    <line class="cls-3" x1="210.16" y1="304.83" x2="206.25" y2="305.24"/>
    <line class="cls-3" x1="203.07" y1="300.91" x2="203.15" y2="304.8"/>
    <line class="cls-3" x1="221.67" y1="431.09" x2="235.8" y2="429.32"/>
    <path class="cls-3" d="M199.05,125.4c0-.24.26-.41.42-.5.2-.12.41-.2.63-.27.43-.15.88-.25,1.33-.34.9-.17,1.81-.28,2.72-.34"/>
    <path class="cls-3" d="M455.42,285.25c-1.14,2.21-3.01,4.06-5.29,5.08-2.28,1.02-4.91,1.19-7.26.15-2.36-1.05-3.96-3.12-4.58-5.58-.61-2.45-.2-5.05.94-7.26"/>
    <path class="cls-3" d="M439.23,277.64c1.14-2.22,3.01-4.06,5.29-5.09,2.28-1.03,4.92-1.19,7.26-.15,2.36,1.05,3.96,3.12,4.58,5.59.61,2.45.19,5.05-.94,7.26"/>
    <path class="cls-3" d="M198.27,451.08c1.16-2.3,3.12-4.17,5.47-5.24,2.33-1.07,5.04-1.34,7.52-.49,2.5.85,4.42,2.75,5.27,5.26.84,2.49.49,5.19-.67,7.49"/>
    <line class="cls-3" x1="424.53" y1="414.87" x2="229.1" y2="439.68"/>
    <line class="cls-3" x1="472.49" y1="130.54" x2="174.71" y2="153.37"/>
    <line class="cls-3" x1="174.71" y1="153.37" x2=".5" y2="18.94"/>
    <line class="cls-3" x1="175.47" y1="187.58" x2="174.71" y2="153.37"/>
    <path class="cls-3" d="M266.68,234.28c2.28,1.31,5.07.32,6.48-1.74"/>
    <line class="cls-3" x1="396.34" y1="119.4" x2="204" y2="133.57"/>
    <line class="cls-3" x1="378.78" y1="343.32" x2="265.03" y2="356.19"/>
    <line class="cls-3" x1="242.66" y1="302.63" x2="242.79" y2="312.64"/>
    <line class="cls-3" x1="412.56" y1="295.57" x2="412.67" y2="285.82"/>
    <path class="cls-3" d="M442,289.2c-3.29-2.27-4.01-6.52-2.75-10.05,1.26-3.5,4.44-6.35,8.25-6.74"/>
    <line class="cls-3" x1="404.26" y1="298.08" x2="418.61" y2="296.56"/>
    <line class="cls-3" x1="255.01" y1="288.81" x2="204.12" y2="293.97"/>
    <line class="cls-3" x1="3.75" y1="45.12" x2="1.72" y2="45.23"/>
    <line class="cls-3" x1="177.74" y1="187.39" x2="177.78" y2="189.22"/>
    <path class="cls-3" d="M211.18,299.52c2.78,2.68,3.25,6.76,1.77,10.18-1.47,3.39-4.72,5.88-8.43,6.27"/>
    <path class="cls-3" d="M438.95,430.91c-2.81-2.41-3.09-6.39-1.72-9.56,1.36-3.16,4.36-5.68,7.85-6.12"/>
    <path class="cls-3" d="M382.31,81.92s-.03-.05-.06-.07"/>
    <path class="cls-3" d="M452.85,427.32c-1.11,2.14-2.92,3.93-5.1,4.98-2.17,1.04-4.73,1.33-7.04.44-2.34-.9-3.99-2.83-4.62-5.23-.63-2.37-.2-4.9.9-7.04"/>
    <path class="cls-3" d="M436.99,420.46c1.11-2.15,2.92-3.94,5.1-4.98,2.18-1.04,4.73-1.33,7.05-.44,2.34.9,3.99,2.83,4.62,5.24.63,2.38.2,4.9-.91,7.04"/>
    <line class="cls-3" x1="438.95" y1="430.91" x2="438.38" y2="430.42"/>
    <line class="cls-3" x1="450.23" y1="416.31" x2="450.81" y2="416.79"/>
    <path class="cls-3" d="M445.08,415.23c2.04-.26,4.12.23,5.73,1.57"/>
    <line class="cls-3" x1="197.35" y1="313.51" x2="196.91" y2="313.07"/>
    <line class="cls-3" x1="210.74" y1="299.09" x2="211.18" y2="299.52"/>
    <path class="cls-3" d="M204.17,297.19c2.56-.26,5.13.52,7.01,2.33"/>
    <path class="cls-3" d="M446.22,422.48c-.16-.13-.21-.28-.21-.48"/>
    <line class="cls-3" x1="439.67" y1="425.65" x2="443.19" y2="425.19"/>
    <path class="cls-3" d="M443.65,425.32c.16.13.21.28.21.48"/>
    <line class="cls-3" x1="442.35" y1="424.22" x2="443.65" y2="425.32"/>
    <line class="cls-3" x1="446.22" y1="422.48" x2="444.92" y2="421.38"/>
    <path class="cls-3" d="M442.56,424.69s0-.03,0-.04"/>
    <line class="cls-3" x1="440.15" y1="424.31" x2="439.67" y2="425.65"/>
    <line class="cls-3" x1="444.62" y1="426.19" x2="445.9" y2="429.1"/>
    <path class="cls-3" d="M382.14,81.83c-.11,0-.1.09-.1.17"/>
    <path class="cls-3" d="M183.44,95.1c.08,0,.16-.01.24-.01"/>
    <line class="cls-3" x1="447.08" y1="423.42" x2="450.16" y2="424.29"/>
    <path class="cls-3" d="M365.03,83.26c.28-.18.56-.3.89-.34"/>
    <line class="cls-3" x1="444.74" y1="419.13" x2="446.08" y2="418.41"/>
    <line class="cls-3" x1="439.7" y1="423.5" x2="439.67" y2="425.65"/>
    <path class="cls-3" d="M443.19,425.19c.18-.02.32,0,.47.13"/>
    <line class="cls-3" x1="443.8" y1="429.38" x2="445.9" y2="429.1"/>
    <line class="cls-3" x1="445.9" y1="429.1" x2="445.96" y2="425.53"/>
    <path class="cls-3" d="M445.96,425.53c0-.38.31-.74.7-.79"/>
    <line class="cls-3" x1="446.65" y1="424.74" x2="450.16" y2="424.29"/>
    <line class="cls-3" x1="450.16" y1="424.29" x2="450.2" y2="422.15"/>
    <path class="cls-3" d="M446.69,422.6c-.18.02-.32,0-.46-.13"/>
    <line class="cls-3" x1="446.02" y1="421.99" x2="446.08" y2="418.41"/>
    <line class="cls-3" x1="446.08" y1="418.41" x2="443.98" y2="418.68"/>
    <path class="cls-3" d="M443.92,422.26c0,.38-.31.74-.7.79"/>
    <path class="cls-3" d="M444.79,432.55c-2.09.27-4.21-.24-5.84-1.64"/>
    <path class="cls-3" d="M162.34,120.32c-.07.05-.13.1-.13.2"/>
    <path class="cls-3" d="M202.44,307.96c.24-.02.4.03.57.19"/>
    <line class="cls-3" x1="205.48" y1="304.56" x2="205.41" y2="300.67"/>
    <path class="cls-3" d="M203.01,308.15c.14.14.2.28.2.48"/>
    <line class="cls-3" x1="202.02" y1="307.16" x2="203.01" y2="308.15"/>
    <path class="cls-3" d="M205.68,305.05c-.14-.14-.2-.29-.2-.49"/>
    <line class="cls-3" x1="205.68" y1="305.05" x2="204.69" y2="304.07"/>
    <line class="cls-3" x1="199.52" y1="307.17" x2="198.53" y2="308.36"/>
    <path class="cls-3" d="M388.58,113.57c-1.85-.19-3.67-.21-5.52-.08"/>
    <line class="cls-3" x1="204.59" y1="309.32" x2="205.62" y2="312.27"/>
    <path class="cls-3" d="M209.65,126.52c-1.83-.19-3.63-.19-5.46-.06"/>
    <path class="cls-3" d="M183.97,95.14s0-.03,0-.04"/>
    <line class="cls-3" x1="207.22" y1="306.37" x2="210.2" y2="307.15"/>
    <line class="cls-3" x1="204.45" y1="301.66" x2="205.41" y2="300.67"/>
    <line class="cls-3" x1="198.49" y1="306.04" x2="198.53" y2="308.36"/>
    <line class="cls-3" x1="198.53" y1="308.36" x2="202.44" y2="307.96"/>
    <line class="cls-3" x1="203.29" y1="312.51" x2="205.62" y2="312.27"/>
    <line class="cls-3" x1="205.62" y1="312.27" x2="205.55" y2="308.39"/>
    <path class="cls-3" d="M205.55,308.39c0-.42.33-.79.75-.83"/>
    <line class="cls-3" x1="206.3" y1="307.56" x2="210.2" y2="307.15"/>
    <line class="cls-3" x1="210.2" y1="307.15" x2="210.16" y2="304.83"/>
    <path class="cls-3" d="M206.25,305.24c-.23.02-.4-.02-.57-.19"/>
    <line class="cls-3" x1="205.41" y1="300.67" x2="203.07" y2="300.91"/>
    <path class="cls-3" d="M203.15,304.8c0,.42-.33.79-.75.84"/>
    <path class="cls-3" d="M204.52,315.97c-2.63.28-5.28-.55-7.18-2.46"/>
    <path class="cls-3" d="M454.31,270.9c-2.01-1.32-4.39-1.83-6.76-1.59"/>
    <path class="cls-3" d="M194.65,456.19c.05,2.37.81,4.66,2.3,6.52"/>
    <path class="cls-3" d="M217.83,430.89c1.29.3,2.53.36,3.84.19"/>
    <path class="cls-3" d="M425.09,298.2c2.39,1.71,3.71,4.41,3.89,7.29"/>
    <path class="cls-3" d="M196.95,462.72c.45.57.95,1.08,1.52,1.54"/>
    <line class="cls-3" x1="196.95" y1="462.72" x2="196.23" y2="461.82"/>
    <path class="cls-3" d="M453.31,270.24c-2.01-1.32-4.38-1.83-6.75-1.59"/>
    <line class="cls-3" x1="453.31" y1="270.24" x2="454.31" y2="270.9"/>
    <path class="cls-3" d="M419.39,298.6c-.04-.7-.16-1.39-.34-2.07"/>
    <line class="cls-3" x1="425.5" y1="394.32" x2="419.39" y2="298.6"/>
    <path class="cls-3" d="M415.13,406.84c5.98-.75,10.75-6.51,10.37-12.52"/>
    <line class="cls-3" x1="217.82" y1="429.33" x2="224.24" y2="327.49"/>
    <path class="cls-3" d="M258.09,90.24c.3-.1.6-.16.92-.18"/>
    <line class="cls-3" x1="200.65" y1="93.95" x2="224.26" y2="92.37"/>
    <path class="cls-3" d="M382.31,81.93c0,.06,0,.11,0,.17"/>
    <line class="cls-3" x1="428.98" y1="305.49" x2="435.01" y2="402.2"/>
    <path class="cls-3" d="M382.04,82.2c0-.07,0-.13,0-.2"/>
    <line class="cls-3" x1="162.29" y1="118.24" x2="172.01" y2="125.3"/>
    <path class="cls-3" d="M333.28,87.58c.45-.03.88-.12,1.31-.26"/>
    <path class="cls-3" d="M162.86,91.67c-.33-.48-.9-1.14-1.43-1.43"/>
    <path class="cls-3" d="M394.32,105.16s0,0-.01,0"/>
    <line class="cls-3" x1="198.46" y1="464.26" x2="197.75" y2="463.36"/>
    <line class="cls-3" x1="455.72" y1="272.03" x2="454.72" y2="271.37"/>
    <path class="cls-3" d="M178.45,97.06c-.17.01-.34.02-.51.03"/>
    <path class="cls-3" d="M230.94,93.54l-.41.03"/>
    <path class="cls-3" d="M252.61,92.08l-.4.03"/>
    <path class="cls-3" d="M316.33,87.81c-.11,0-.22.01-.32.02"/>
    <path class="cls-3" d="M213.32,310.5c-1.2,2.38-3.23,4.3-5.68,5.35-2.45,1.05-5.24,1.2-7.75.19-2.52-1.01-4.42-3.05-5.25-5.64-.82-2.57-.5-5.35.7-7.73"/>
    <path class="cls-3" d="M195.34,302.67c1.2-2.38,3.23-4.3,5.68-5.35,2.45-1.05,5.25-1.2,7.76-.2,2.53,1.01,4.42,3.06,5.25,5.64.82,2.57.5,5.36-.7,7.74"/>
    <path class="cls-3" d="M215.85,458.09c-1.17,2.3-3.13,4.16-5.47,5.24-2.33,1.07-5.04,1.34-7.51.49-2.49-.85-4.42-2.75-5.27-5.26-.84-2.49-.5-5.19.66-7.48"/>
    <line class="cls-3" x1="235.33" y1="315.93" x2="252.35" y2="314.13"/>
    <path class="cls-3" d="M224.24,327.49c.37-5.91,5.22-10.94,11.1-11.56"/>
    <path class="cls-3" d="M229.1,439.68c-3.34.42-6.75-.64-9-3.27"/>
    <path class="cls-3" d="M435.01,402.2c.38,6.07-4.45,11.9-10.48,12.67"/>
    <path class="cls-3" d="M195.19,298.59c-2.27,2.54-3.62,5.88-3.55,9.32"/>
    <path class="cls-3" d="M204.12,293.97c-3.44.35-6.63,2.06-8.92,4.62"/>
    <line class="cls-3" x1="447.55" y1="269.31" x2="400.02" y2="274.12"/>
    <path class="cls-3" d="M455.72,272.03c-.44-.42-.91-.79-1.41-1.13"/>
    <path class="cls-3" d="M458.96,280.25c.06-3.04-1-6.06-3.24-8.22"/>
    <line class="cls-3" x1="456.32" y1="422.43" x2="458.96" y2="280.25"/>
    <path class="cls-3" d="M452.84,431.06c2.09-2.36,3.42-5.44,3.48-8.63"/>
    <path class="cls-3" d="M444.74,435.5c3.15-.41,6.03-2.1,8.1-4.44"/>
    <line class="cls-3" x1="207.3" y1="466.64" x2="444.74" y2="435.5"/>
    <path class="cls-3" d="M198.46,464.26c2.48,2.05,5.71,2.79,8.84,2.38"/>
    <line class="cls-3" x1="191.64" y1="307.91" x2="194.65" y2="456.19"/>
    <line class="cls-3" x1="190.91" y1="307.18" x2="193.94" y2="455.3"/>
    <path class="cls-3" d="M193.94,455.3c.05,2.36.81,4.65,2.3,6.52"/>
    <line class="cls-3" x1="446.56" y1="268.65" x2="203.38" y2="293.25"/>
    <path class="cls-3" d="M203.38,293.25c-3.44.35-6.63,2.06-8.91,4.61"/>
    <path class="cls-3" d="M194.46,297.87c-2.27,2.54-3.62,5.87-3.55,9.31"/>
    <path class="cls-3" d="M335.74,86.92c-2.46-.03-4.93,0-7.39.11"/>
    <path class="cls-3" d="M382.17,81.83s-.02,0-.04,0"/>
    <line class="cls-3" x1="239.63" y1="104.7" x2="239.73" y2="104.76"/>
    <line class="cls-3" x1="359.26" y1="75.75" x2="239.39" y2="17.76"/>
    <path class="cls-3" d="M308.25,118.11c-.08-.06-.17-.12-.26-.17"/>
    <path class="cls-3" d="M306.94,117.24c.46.26.89.55,1.31.87"/>
    <line class="cls-3" x1="375.34" y1="83.53" x2="363.16" y2="77.64"/>
    <path class="cls-3" d="M286.24,118.18c-.62.48-.38.95.22,1.31"/>
    <path class="cls-3" d="M286.24,118.18c2.98-2.31,6.66-2.91,10.2-3.02,3.42-.1,7.37.27,10.49,2.07"/>
    <path class="cls-3" d="M173.92,82.89c.15-1.81.39-3.55,1.01-5.28.58-1.62,1.68-3.36,3.69-3.48"/>
    <path class="cls-3" d="M300.94,120.89c1.5-.11,2.98-.27,4.45-.58.74-.15,1.45-.33,2.15-.63.76-.33,1.59-.89.7-1.56"/>
    <path class="cls-3" d="M286.47,119.49c1.6.96,5.45,1.31,7.15,1.42,2.45.16,4.88.15,7.33-.03"/>
    <line class="cls-3" x1="472.49" y1="130.54" x2="393.23" y2="92.18"/>
    <line class="cls-3" x1="471.84" y1="163.11" x2="472.49" y2="130.54"/>
    <line class="cls-3" x1=".5" y1="18.94" x2="1.63" y2="43.36"/>
    <path class="cls-3" d="M177.22,82.77c-.1-.06-.2-.1-.33-.09"/>
    <line class="cls-3" x1="42.52" y1="33.13" x2="40.28" y2="31.49"/>
    <path class="cls-3" d="M34.15,28.6c.01.25.22.45.4.58"/>
    <line class="cls-3" x1="34.15" y1="28.6" x2="34.07" y2="26.66"/>
    <path class="cls-3" d="M42.6,35.11c1.71,1.26,7.55,1.74,9.37,1.87,3.21.23,6.41.29,9.63.24"/>
    <path class="cls-3" d="M42.52,33.13c1.55,1.14,6.56,1.63,8.23,1.77,2.82.25,5.64.34,8.47.35"/>
    <path class="cls-3" d="M177.79,97.08s.09.01.14.01"/>
    <line class="cls-3" x1="34.55" y1="29.19" x2="42.6" y2="35.11"/>
    <path class="cls-3" d="M172.01,125.3c1.8,1.31,5.64,2.07,7.67,2.41,2.67.45,5.35.71,8.04.88,5.41.34,10.78.3,16.18-.09"/>
    <line class="cls-3" x1="243.44" y1="303.35" x2="243.57" y2="313.37"/>
    <line class="cls-3" x1="203.91" y1="128.5" x2="396.39" y2="114.49"/>
    <line class="cls-3" x1="205.17" y1="453.72" x2="201.35" y2="454.22"/>
    <line class="cls-3" x1="205.97" y1="456.57" x2="206.04" y2="460.28"/>
    <line class="cls-3" x1="212.76" y1="452.75" x2="208.94" y2="453.24"/>
    <line class="cls-3" x1="205.83" y1="449.18" x2="205.9" y2="452.9"/>
    <line class="cls-3" x1="445.59" y1="280.52" x2="442" y2="280.89"/>
    <line class="cls-3" x1="446.24" y1="283.4" x2="446.18" y2="287.13"/>
    <line class="cls-3" x1="452.72" y1="279.78" x2="449.13" y2="280.15"/>
    <line class="cls-3" x1="446.37" y1="275.98" x2="446.31" y2="279.72"/>
    <line class="cls-3" x1="467.74" y1="165.18" x2="177.78" y2="189.22"/>
    <line class="cls-3" x1="175.53" y1="190.19" x2="471.79" y2="165.6"/>
    <line class="cls-3" x1="175.53" y1="190.19" x2="183.33" y2="540.55"/>
    <path class="cls-3" d="M338.88,227.82c2.2,1.07,4.74.04,6.04-1.87"/>
    <path class="cls-3" d="M316.4,229.84c2.22,1.14,4.84.12,6.18-1.83"/>
    <path class="cls-3" d="M291.65,232.05c2.25,1.22,4.95.21,6.32-1.79"/>
    <path class="cls-3" d="M322.74,222.1c.34.24.62.51.88.84"/>
    <path class="cls-3" d="M345.08,220.02c.36.25.66.53.93.88"/>
    <path class="cls-3" d="M273.35,226.71c.28.21.52.45.74.73"/>
    <line class="cls-3" x1="272.37" y1="225.96" x2="273.35" y2="226.71"/>
    <line class="cls-3" x1="267.14" y1="234.7" x2="266.17" y2="233.94"/>
    <path class="cls-3" d="M298.15,224.39c.31.23.57.48.81.78"/>
    <path class="cls-3" d="M344.94,220.16c-.13-.17-.27-.32-.42-.47"/>
    <path class="cls-3" d="M274.14,233.31c-.75,1.1-1.9,1.92-3.22,2.21-1.32.29-2.7.03-3.78-.82"/>
    <path class="cls-3" d="M298.99,231.02c-.74,1.08-1.86,1.89-3.14,2.19-1.29.3-2.65.07-3.72-.74"/>
    <line class="cls-3" x1="298.99" y1="231.02" x2="298.96" y2="225.18"/>
    <path class="cls-3" d="M323.62,228.76c-1.47,2.16-4.48,3.13-6.73,1.5"/>
    <path class="cls-3" d="M346,226.7c-1.45,2.11-4.38,3.11-6.62,1.54"/>
    <line class="cls-3" x1="346" y1="226.7" x2="346.01" y2="220.9"/>
    <line class="cls-3" x1="465.06" y1="500.19" x2="471.79" y2="165.6"/>
    <line class="cls-3" x1="297.97" y1="230.26" x2="297.96" y2="227.68"/>
    <line class="cls-3" x1="297.97" y1="230.26" x2="298.99" y2="231.02"/>
    <line class="cls-3" x1="344.92" y1="225.95" x2="346" y2="226.7"/>
    <line class="cls-3" x1="346.01" y1="220.9" x2="344.94" y2="220.16"/>
    <path class="cls-3" d="M322.57,222.19c-.12-.15-.24-.29-.38-.42"/>
    <line class="cls-3" x1="323.62" y1="222.94" x2="322.57" y2="222.19"/>
    <line class="cls-3" x1="323.62" y1="228.76" x2="323.62" y2="222.94"/>
    <line class="cls-3" x1="322.58" y1="228.01" x2="323.62" y2="228.76"/>
    <path class="cls-3" d="M273.11,226.68c-.09-.11-.18-.21-.28-.31"/>
    <line class="cls-3" x1="273.11" y1="226.68" x2="273.16" y2="232.54"/>
    <line class="cls-3" x1="274.1" y1="227.44" x2="273.11" y2="226.68"/>
    <line class="cls-3" x1="274.14" y1="233.31" x2="274.1" y2="227.44"/>
    <line class="cls-3" x1="273.16" y1="232.54" x2="274.14" y2="233.31"/>
    <line class="cls-3" x1="298.96" y1="225.18" x2="297.95" y2="224.43"/>
    <path class="cls-3" d="M297.95,224.43c-.1-.13-.21-.25-.33-.37"/>
    <line class="cls-3" x1="177.78" y1="189.22" x2="175.78" y2="187.55"/>
    <line class="cls-3" x1="471.79" y1="165.6" x2="467.78" y2="163.5"/>
    <line class="cls-3" x1="13.47" y1="299.63" x2="1.72" y2="45.23"/>
    <line class="cls-3" x1="1.72" y1="45.23" x2="175.53" y2="190.19"/>
    <line class="cls-3" x1="13.47" y1="299.63" x2="183.33" y2="540.55"/>
    <line class="cls-3" x1="183.33" y1="540.55" x2="465.06" y2="500.19"/>
    <path class="cls-3" d="M396.39,114.49c2.8-.2,5.57-.51,8.34-1.03,1.38-.26,2.74-.57,4.07-1.03.67-.23,1.31-.48,1.92-.84.51-.3,1.29-.8,1.3-1.54"/>
    <path class="cls-3" d="M158.75,118.08c-.38-.28-.84-.71-.85-1.26"/>
    <path class="cls-3" d="M411.96,114.9c0,.32-.13.54-.32.77-.27.34-.6.56-.97.78-.61.36-1.25.62-1.92.85-1.33.46-2.69.78-4.07,1.04-2.76.53-5.54.84-8.34,1.05"/>
    <line class="cls-3" x1="411.99" y1="112.47" x2="411.96" y2="114.9"/>
    <path class="cls-3" d="M157.9,116.82c0-.33.11-.56.31-.81.28-.36.63-.6,1.01-.83.63-.38,1.31-.66,2-.91,1.39-.5,2.8-.85,4.24-1.16,2.88-.6,5.79-.97,8.72-1.23"/>
    <path class="cls-3" d="M157.96,119.28c.01.55.47.98.85,1.26"/>
    <line class="cls-3" x1="157.96" y1="119.28" x2="157.9" y2="116.82"/>
    <path class="cls-3" d="M195.06,95.61c.94-.06,1.87-.19,2.79-.41.76-.18,1.96-.53,2.64-.95"/>
    <path class="cls-3" d="M204,133.57c-5.4.4-10.77.44-16.17.09-2.7-.17-5.37-.44-8.04-.89-2.03-.35-5.86-1.11-7.66-2.43"/>
    <line class="cls-3" x1="158.75" y1="118.08" x2="162.35" y2="120.71"/>
    <line class="cls-3" x1="202.91" y1="14.52" x2="202.91" y2="14.42"/>
    <line class="cls-3" x1="172.13" y1="130.34" x2="158.81" y2="120.54"/>
    <line class="cls-3" x1="55.15" y1="27.11" x2="52.47" y2="27.25"/>
    <path class="cls-3" d="M252.67,345.37c-.01-1.28.08-3.29.63-4.53"/>
    <path class="cls-3" d="M258.77,334.18c.01,1.34-.04,2.65-.27,3.97-.11.66-.25,1.3-.5,1.93-.19.49-.6,1.34-1.28,1.41"/>
    <line class="cls-3" x1="218.07" y1="13.83" x2="218.07" y2="13.89"/>
    <path class="cls-3" d="M407.7,276.28c-.15-.12-.31-.24-.47-.35"/>
    <path class="cls-3" d="M407.23,275.93c-2.11-1.48-4.66-2.07-7.2-1.81"/>
    <path class="cls-3" d="M255.14,352.44c.13.13.26.25.4.37"/>
    <line class="cls-3" x1="255.92" y1="353.2" x2="255.14" y2="352.44"/>
    <path class="cls-3" d="M253.9,337.38c-.67.07-1.07.91-1.26,1.4-.24.62-.38,1.25-.49,1.91-.22,1.31-.27,2.61-.26,3.93"/>
    <path class="cls-3" d="M256.45,338.91c-.3.03-.57-.15-.76-.33"/>
    <path class="cls-3" d="M255.1,315.99c2.32,2.15,3.54,5.14,3.57,8.26"/>
    <path class="cls-3" d="M254.17,339.95c.3-.03.56.15.76.34"/>
    <path class="cls-3" d="M256.73,341.49c-.4.04-.76-.2-1.02-.45"/>
    <path class="cls-3" d="M395.55,326.15c.71-.08,1.2-.73,1.49-1.27.33-.61.53-1.24.69-1.91.32-1.34.43-2.67.44-4.03"/>
    <line class="cls-3" x1="242.79" y1="312.64" x2="243.57" y2="313.37"/>
    <line class="cls-3" x1="45.78" y1="16.58" x2=".5" y2="18.94"/>
    <path class="cls-3" d="M156.48,16.89s0,.04,0,.05"/>
    <line class="cls-3" x1="254.32" y1="315.26" x2="255.1" y2="315.99"/>
    <path class="cls-3" d="M390.57,330.05c-.06,6.52-5.25,12.52-11.79,13.26"/>
    <path class="cls-3" d="M251.89,344.62c.03,2.93,1.13,5.75,3.25,7.82"/>
    <path class="cls-3" d="M265.03,356.19c-3.32.38-6.68-.61-9.11-2.99"/>
    <path class="cls-3" d="M70.07,27.08c-.02-.22-.04-.45-.05-.67"/>
    <line class="cls-3" x1="400.02" y1="274.12" x2="255.01" y2="288.81"/>
    <path class="cls-3" d="M255.01,288.81c-6.89.7-12.44,6.89-12.35,13.82"/>
    <path class="cls-3" d="M69.64,27c-.02-.3-.04-.59-.05-.89"/>
    <path class="cls-3" d="M412.67,285.82c.04-3.6-1.47-7.09-4.49-9.21"/>
    <line class="cls-3" x1="410.2" y1="295.81" x2="412.56" y2="295.57"/>
    <line class="cls-3" x1="243.57" y1="313.37" x2="246.07" y2="313.11"/>
    <path class="cls-3" d="M255.8,289.52c-6.9.7-12.45,6.89-12.36,13.84"/>
    <line class="cls-3" x1="400.97" y1="274.79" x2="255.8" y2="289.52"/>
    <path class="cls-3" d="M390.57,330.05c0-1.16.1-2.27.43-3.4"/>
    <path class="cls-3" d="M67.39,8.64c.95,1.51,1.56,4.63,1.82,6.3.35,2.18.55,4.35.63,6.55"/>
    <path class="cls-3" d="M254.9,337.83c-.26-.24-.61-.49-1-.44"/>
    <line class="cls-3" x1="255.69" y1="338.58" x2="254.9" y2="337.83"/>
    <path class="cls-3" d="M69.41,21.2c-.07-1.83-.23-3.65-.52-5.46-.22-1.39-.72-3.98-1.52-5.24"/>
    <path class="cls-3" d="M253.29,340.84c.15-.33.43-.84.88-.89"/>
    <path class="cls-3" d="M181.35,2.19c6.29-.32,12.58-.64,18.88-.96"/>
    <path class="cls-3" d="M212.71.66c-.07-.04-.14-.08-.22-.11"/>
    <path class="cls-3" d="M183.99,95.27c.1.05.19.12.28.19"/>
    <line class="cls-3" x1="199.55" y1="460.67" x2="199.13" y2="460.13"/>
    <line class="cls-3" x1="214.04" y1="447.85" x2="214.48" y2="448.37"/>
    <path class="cls-3" d="M206.91,445.59c2.81-.36,5.69.54,7.56,2.78"/>
    <line class="cls-3" x1="442" y1="289.2" x2="441.41" y2="288.79"/>
    <line class="cls-3" x1="451.96" y1="273.21" x2="452.56" y2="273.61"/>
    <path class="cls-3" d="M447.5,272.41c1.77-.18,3.55.21,5.06,1.2"/>
    <line class="cls-3" x1="69.59" y1="26.12" x2="69.41" y2="21.2"/>
    <path class="cls-3" d="M205.21,455.94c.23-.03.46.04.62.23"/>
    <line class="cls-3" x1="208.19" y1="452.61" x2="208.12" y2="448.89"/>
    <path class="cls-3" d="M205.83,456.17c.1.12.14.24.14.4"/>
    <line class="cls-3" x1="204.85" y1="454.97" x2="205.83" y2="456.17"/>
    <path class="cls-3" d="M208.33,453.01c-.1-.12-.14-.24-.14-.4"/>
    <line class="cls-3" x1="208.33" y1="453.01" x2="207.35" y2="451.81"/>
    <line class="cls-3" x1="202.35" y1="454.99" x2="201.39" y2="456.44"/>
    <path class="cls-3" d="M66.12,10.02c-.77-.08-1.52-.04-2.28,0"/>
    <line class="cls-3" x1="207.3" y1="456.91" x2="208.32" y2="459.99"/>
    <path class="cls-3" d="M200.22,1.23c.32-.15,1.03-.18,1.36-.2"/>
    <line class="cls-3" x1="165.35" y1="12.8" x2="165.26" y2="12.75"/>
    <line class="cls-3" x1="209.88" y1="454.01" x2="212.8" y2="454.96"/>
    <line class="cls-3" x1="207.17" y1="449.58" x2="208.12" y2="448.89"/>
    <line class="cls-3" x1="201.35" y1="454.22" x2="201.39" y2="456.44"/>
    <line class="cls-3" x1="201.39" y1="456.44" x2="205.21" y2="455.94"/>
    <line class="cls-3" x1="206.04" y1="460.28" x2="208.32" y2="459.99"/>
    <line class="cls-3" x1="208.32" y1="459.99" x2="208.25" y2="456.28"/>
    <path class="cls-3" d="M208.25,456.28c0-.41.33-.77.73-.82"/>
    <line class="cls-3" x1="208.98" y1="455.46" x2="212.8" y2="454.96"/>
    <line class="cls-3" x1="212.8" y1="454.96" x2="212.76" y2="452.75"/>
    <path class="cls-3" d="M208.94,453.24c-.23.03-.46-.04-.61-.23"/>
    <line class="cls-3" x1="208.12" y1="448.89" x2="205.83" y2="449.18"/>
    <path class="cls-3" d="M205.9,452.9c0,.41-.33.77-.73.82"/>
    <path class="cls-3" d="M207.24,463.57c-2.87.38-5.82-.57-7.69-2.9"/>
    <path class="cls-3" d="M448.72,280.05c-.19-.13-.28-.34-.27-.56"/>
    <path class="cls-3" d="M54.09,10.63c.43-.13,1.22-.17,1.66-.2"/>
    <line class="cls-3" x1="441.97" y1="283.12" x2="445.56" y2="282.75"/>
    <path class="cls-3" d="M445.97,282.85c.19.13.28.34.27.55"/>
    <line class="cls-3" x1="444.64" y1="281.94" x2="445.97" y2="282.85"/>
    <line class="cls-3" x1="448.72" y1="280.05" x2="447.38" y2="279.15"/>
    <line class="cls-3" x1="442.45" y1="282.03" x2="441.97" y2="283.12"/>
    <line class="cls-3" x1="447.02" y1="284.12" x2="448.32" y2="286.91"/>
    <path class="cls-3" d="M209.86.62c.6-.02,1.2-.03,1.81.03"/>
    <path class="cls-3" d="M163.47,12.93c.63-.09,1.25-.14,1.88-.19"/>
    <line class="cls-3" x1="449.52" y1="281.3" x2="452.68" y2="282.01"/>
    <line class="cls-3" x1="40.2" y1="29.52" x2="34.39" y2="25.3"/>
    <line class="cls-3" x1="447.14" y1="276.76" x2="448.51" y2="275.76"/>
    <line class="cls-3" x1="442" y1="280.89" x2="441.97" y2="283.12"/>
    <path class="cls-3" d="M445.56,282.75c.16-.02.28.01.41.1"/>
    <line class="cls-3" x1="446.18" y1="287.13" x2="448.32" y2="286.91"/>
    <line class="cls-3" x1="448.32" y1="286.91" x2="448.39" y2="283.18"/>
    <path class="cls-3" d="M448.39,283.18c0-.39.31-.76.71-.8"/>
    <line class="cls-3" x1="449.1" y1="282.38" x2="452.68" y2="282.01"/>
    <line class="cls-3" x1="452.68" y1="282.01" x2="452.72" y2="279.78"/>
    <path class="cls-3" d="M449.13,280.15c-.16.02-.28-.01-.41-.1"/>
    <line class="cls-3" x1="448.45" y1="279.5" x2="448.51" y2="275.76"/>
    <line class="cls-3" x1="448.51" y1="275.76" x2="446.37" y2="275.98"/>
    <path class="cls-3" d="M446.31,279.72c0,.39-.31.76-.71.8"/>
    <path class="cls-3" d="M447.19,290.47c-1.83.19-3.66-.22-5.19-1.27"/>
    <line class="cls-3" x1="85.9" y1="6.99" x2="92.76" y2="8.38"/>
    <path class="cls-3" d="M104.59,7.94c.43-.02.84-.1,1.25-.22"/>
    <line class="cls-3" x1="105.84" y1="7.72" x2="112.43" y2="5.65"/>
    <path class="cls-3" d="M85.67,7.06c-.12-.08-.24-.12-.39-.11"/>
    <line class="cls-3" x1="113.04" y1="5.53" x2="153.76" y2="3.47"/>
    <path class="cls-3" d="M51.4,22.21c-.14-3.5.47-7.49,1.59-10.8"/>
    <path class="cls-3" d="M52.9,14.7c-.52,2.4-.73,4.76-.63,7.21"/>
    <path class="cls-3" d="M52.99,11.41c.17-.5.6-1.72.67-2.25"/>
    <path class="cls-3" d="M217.76,10.42c-.32-1.5-.83-2.87-1.64-4.18"/>
    <path class="cls-3" d="M215.56,3.07c2.05,2.1,3.37,5.02,3.85,7.87"/>
    <line class="cls-3" x1="52.46" y1="26.84" x2="52.27" y2="21.92"/>
    <line class="cls-3" x1="51.59" y1="27.14" x2="51.4" y2="22.21"/>
    <path class="cls-3" d="M51.59,27.14c.02.54-.06,1.19-.32,1.69"/>
    <line class="cls-3" x1="48.17" y1="29.56" x2="48.25" y2="31.53"/>
    <path class="cls-3" d="M211.66.65c.37.04.73.1,1.08.27"/>
    <path class="cls-3" d="M63.73,8.04c.78-.04,1.54-.08,2.32.01"/>
    <line class="cls-3" x1="53.69" y1="10.54" x2="55.68" y2="10.44"/>
    <path class="cls-3" d="M201.71,2.97c-.28.01-.57.03-.85.07"/>
    <path class="cls-3" d="M209.44,2.58c.76-.04,1.51-.08,2.27,0"/>
    <line class="cls-3" x1="180.89" y1="2.09" x2="201.46" y2="1.04"/>
    <path class="cls-3" d="M209.35.64c.17,0,.34-.02.51-.02"/>
    <path class="cls-3" d="M50.37,29.37c-.73.11-1.46.15-2.2.19"/>
    <path class="cls-3" d="M45.26,26.22s0,0,.01,0c0,0,.02-.01.03-.02.04-.03.08-.07.11-.1.05-.05.09-.09.13-.15.08-.11.15-.22.21-.34.11-.25.16-.5.15-.78"/>
    <path class="cls-3" d="M53.69,10.53c0,.16,0,.32,0,.49"/>
    <path class="cls-3" d="M85.9,6.99c-.16-.03-.28,0-.42.07"/>
    <path class="cls-3" d="M452.56,273.61c3.35,2.22,4.13,6.49,2.88,10.05-1.24,3.52-4.42,6.41-8.25,6.81"/>
    <path class="cls-3" d="M214.48,448.37c2.29,2.74,2.3,6.51.74,9.54-1.56,3.01-4.58,5.21-7.97,5.65"/>
    <path class="cls-3" d="M199.55,460.67c-2.22-2.76-2.18-6.51-.6-9.51,1.57-2.98,4.59-5.14,7.96-5.57"/>
    <path class="cls-3" d="M185.75,95.35c-.09-.07-.18-.13-.28-.18"/>
    <line class="cls-3" x1="185.47" y1="95.17" x2="183.99" y2="95.27"/>
    <line class="cls-3" x1="184.27" y1="95.45" x2="185.75" y2="95.35"/>
    <path class="cls-3" d="M382.16,82.11l.92-.06"/>
    <line class="cls-3" x1="211.59" y1=".72" x2="212.71" y2=".66"/>
    <line class="cls-3" x1="212.49" y1=".56" x2="211.37" y2=".61"/>
    <line class="cls-3" x1="254.93" y1="340.28" x2="255.72" y2="341.04"/>
    <line class="cls-3" x1="257.87" y1="323.51" x2="257.98" y2="333.43"/>
    <path class="cls-3" d="M257.98,333.43c.01,1.3-.08,3.33-.64,4.58"/>
    <path class="cls-3" d="M257.34,338.01c-.15.33-.44.85-.89.9"/>
    <line class="cls-3" x1="398.16" y1="318.95" x2="398.26" y2="309.24"/>
    <path class="cls-3" d="M200.17,1.88c-.09-.11-.18-.2-.17-.37"/>
    <path class="cls-3" d="M246.07,313.11c3.28-.35,6.58.61,9.03,2.88"/>
    <line class="cls-3" x1="395.55" y1="326.15" x2="256.73" y2="341.49"/>
    <line class="cls-3" x1="69.84" y1="21.49" x2="70.02" y2="26.41"/>
    <line class="cls-3" x1="253.9" y1="337.38" x2="257.67" y2="336.97"/>
    <path class="cls-3" d="M255.92,353.2c-2.12-2.08-3.22-4.9-3.25-7.83"/>
    <line class="cls-3" x1="407.23" y1="275.93" x2="408.18" y2="276.6"/>
    <path class="cls-3" d="M408.18,276.6c-2.11-1.48-4.67-2.07-7.21-1.81"/>
    <path class="cls-3" d="M290.39,228.89c-.01-1.86,1.01-3.62,2.59-4.58,1.58-.97,3.63-1.05,5.18.09"/>
    <path class="cls-3" d="M265.46,231.17c-.02-1.89,1.03-3.68,2.65-4.64,1.62-.97,3.7-1.01,5.25.18"/>
    <line class="cls-3" x1="322.57" y1="222.19" x2="322.58" y2="228.01"/>
    <line class="cls-3" x1="344.94" y1="220.16" x2="344.92" y2="225.95"/>
    <line class="cls-3" x1="297.96" y1="227.6" x2="297.95" y2="224.43"/>
    <path class="cls-3" d="M337.56,224.57c0-1.8.97-3.52,2.48-4.49,1.52-.98,3.5-1.12,5.04-.06"/>
    <path class="cls-3" d="M315.1,226.63c0-1.83.99-3.57,2.53-4.53,1.55-.97,3.56-1.09,5.11,0"/>
    <path class="cls-3" d="M292.13,232.47c-1.13-.85-1.73-2.19-1.74-3.58"/>
    <path class="cls-3" d="M267.14,234.7c-1.09-.86-1.67-2.17-1.69-3.54"/>
    <path class="cls-3" d="M316.89,230.25c-1.17-.85-1.78-2.21-1.79-3.63"/>
    <path class="cls-3" d="M339.38,228.24c-1.2-.84-1.83-2.23-1.83-3.66"/>
    <path class="cls-3" d="M418.61,296.56c2.29-.24,4.59.29,6.48,1.64"/>
    <path class="cls-3" d="M220.1,436.41c-1.69-1.98-2.44-4.52-2.28-7.08"/>
    <path class="cls-3" d="M197.35,313.51c-2.7-2.72-3.1-6.77-1.59-10.15,1.5-3.35,4.73-5.8,8.42-6.17"/>
    <path class="cls-3" d="M450.81,416.79c2.87,2.38,3.19,6.37,1.83,9.57-1.35,3.18-4.35,5.72-7.86,6.18"/>
    <path class="cls-3" d="M92.18,27.74c.62.44,1.03,2.36,1.14,2.95.21,1.05.33,2.11.4,3.18.07,1.07.09,2.13.01,3.21-.04.54-.1,1.06-.21,1.59-.07.35-.15.68-.33.99-.08.14-.21.33-.41.34"/>
    <path class="cls-3" d="M218.75,14.08c2.06,1.02,3.03,4.28,3.48,6.1.58,2.36.87,4.72.97,7.15.1,2.29.03,4.93-.4,7.2-.21,1.12-.55,2.41-1.12,3.42-.58,1.05-1.5,1.94-2.81,2.02"/>
    <line class="cls-3" x1="209.86" y1=".61" x2="211.93" y2=".51"/>
    <line class="cls-3" x1="200.85" y1="3.01" x2="201.29" y2="2.99"/>
    <line class="cls-3" x1="64.26" y1="10" x2="67.37" y2="9.84"/>
    <line class="cls-3" x1="63.91" y1="8.03" x2="85.28" y2="6.94"/>
    <path class="cls-3" d="M153.78,3.46c.21,0,.42,0,.63.05"/>
    <line class="cls-3" x1="52.47" y1="27.2" x2="55.13" y2="27.06"/>
    <path class="cls-3" d="M51.62,26.76s-.02.09-.04.13"/>
    <path class="cls-3" d="M217.26,13.76c.54-.03,1,.08,1.48.31"/>
    <line class="cls-3" x1="93.46" y1="20.34" x2="217.26" y2="13.76"/>
    <path class="cls-3" d="M217.68,10.09c0,.1,0,.2-.01.3"/>
    <path class="cls-3" d="M53.69,10.65c.13,0,.27-.01.4-.02"/>
    <line class="cls-3" x1="67.37" y1="9.96" x2="66.12" y2="10.02"/>
    <path class="cls-3" d="M89.79,27.77c.1-1.51.26-2.98.7-4.44.42-1.37,1.26-2.9,2.97-2.99"/>
    <path class="cls-3" d="M92.76,8.38c.43.09.85.12,1.28.1"/>
    <path class="cls-3" d="M172.62,4.46c.4-.02.79-.09,1.18-.21"/>
    <path class="cls-3" d="M322.96,65.55c3.3,1.63,4.64,7.56,5.12,10.43.62,3.74.75,8.17.14,11.94"/>
    <line class="cls-3" x1="173.8" y1="4.25" x2="180.23" y2="2.21"/>
    <path class="cls-3" d="M177.94,97.09c.25-.02.43-.21.55-.4.23-.34.35-.71.45-1.09.17-.62.25-1.24.31-1.87.12-1.27.11-2.52.03-3.78-.08-1.27-.24-2.51-.52-3.75-.17-.76-.7-2.87-1.51-3.4"/>
    <path class="cls-3" d="M147.05,17.44c0,.07,0,.14,0,.21"/>
    <path class="cls-3" d="M222.32,20.56c1.77-.12,3.54-.29,5.3-.52.88-.12,1.76-.25,2.63-.42.44-.08.87-.17,1.3-.28.31-.08.61-.16.92-.26.09-.03.18-.06.26-.09.02,0,.05-.02.07-.03,0,0,.02-.03.02-.01"/>
    <line class="cls-3" x1="94.04" y1="8.48" x2="104.59" y2="7.94"/>
    <path class="cls-3" d="M69.62,26.71c-.53.06-1.07.12-1.6.2"/>
    <path class="cls-3" d="M33.99,24.72c0-.24.11-.37.26-.51.24-.23.52-.37.82-.51.48-.22.97-.38,1.47-.53,1-.29,2.02-.5,3.05-.68,2.05-.36,4.12-.6,6.2-.78"/>
    <path class="cls-3" d="M34.07,26.66c.01.25.22.45.4.58"/>
    <line class="cls-3" x1="34.07" y1="26.66" x2="33.99" y2="24.72"/>
    <line class="cls-3" x1="162.32" y1="4.99" x2="172.62" y2="4.46"/>
    <path class="cls-3" d="M180.23,2.2c.22-.07.43-.11.66-.12"/>
    <path class="cls-3" d="M65.4,20.9c1.01,1.95,2,3.9,3,5.86"/>
    <path class="cls-3" d="M68.41,26.76c.04.08.08.16.13.24"/>
    <path class="cls-3" d="M161.11,4.89c.4.08.8.11,1.21.09"/>
    <path class="cls-3" d="M201.58,1.03c.92-.05,1.84-.07,2.75-.11"/>
    <line class="cls-3" x1="338.68" y1="226.4" x2="337.69" y2="225.7"/>
    <path class="cls-3" d="M63.84,10.02c-1.07.05-2.13.14-3.2.19"/>
    <path class="cls-3" d="M55.74,10.44c.98-.05,1.97-.08,2.95-.13"/>
    <path class="cls-3" d="M85.28,6.94c-.15,0-.26.06-.37.15"/>
    <path class="cls-3" d="M55.59,8.45c.98-.05,1.96-.07,2.94-.12"/>
    <line class="cls-3" x1="316.29" y1="228.46" x2="315.22" y2="227.68"/>
    <line class="cls-3" x1="52.86" y1="8.59" x2="55.19" y2="8.47"/>
    <line class="cls-3" x1="319.76" y1="221.34" x2="320.94" y2="222.18"/>
    <line class="cls-3" x1="154.41" y1="3.51" x2="161.11" y2="4.89"/>
    <path class="cls-3" d="M199.99,1.51c0-.17.1-.22.23-.28"/>
    <path class="cls-3" d="M112.43,5.64c.2-.06.4-.1.62-.11"/>
    <line class="cls-3" x1="270.36" y1="225.82" x2="271.59" y2="226.76"/>
    <path class="cls-3" d="M344.96,223.33c0,2.01-1.53,3.68-3.53,3.86"/>
    <path class="cls-3" d="M52.06,29.78c-.15.28-.32.53-.54.75"/>
    <path class="cls-3" d="M52.06,29.78s.04-.08.06-.11"/>
    <path class="cls-3" d="M343.27,220.12c1.06.73,1.69,1.93,1.69,3.21"/>
    <path class="cls-3" d="M322.59,225.36c0,2.02-1.53,3.71-3.55,3.89"/>
    <path class="cls-3" d="M48.25,31.53c.6-.06,1.2-.13,1.79-.22"/>
    <path class="cls-3" d="M320.94,222.18c1.03.73,1.64,1.92,1.64,3.18"/>
    <path class="cls-3" d="M212.74.92c.08.04.16.08.23.12"/>
    <path class="cls-3" d="M297.96,227.6c0,2.03-1.54,3.74-3.56,3.92"/>
    <path class="cls-3" d="M212.97,1.05c.99.54,1.81,1.23,2.59,2.03"/>
    <path class="cls-3" d="M216.11,6.24c-.76-1.23-1.9-2.55-3.17-3.32"/>
    <path class="cls-3" d="M296.37,224.46c1,.74,1.58,1.9,1.59,3.14"/>
    <path class="cls-3" d="M51.28,28.82c.38.21.64.47.84.84"/>
    <path class="cls-3" d="M86.14,7.09c-.08-.05-.16-.08-.24-.1"/>
    <line class="cls-3" x1="249.5" y1="315.77" x2="254.32" y2="315.26"/>
    <path class="cls-3" d="M53.66,9.16s0-.09.01-.14"/>
    <path class="cls-3" d="M53.69,11.09s0-.05,0-.07"/>
    <path class="cls-3" d="M53.69,11.09c-.02.46-.26,1.38-.36,1.82-.15.6-.3,1.2-.43,1.8"/>
    <path class="cls-3" d="M53.67,9.02c0-.2.19-.3.34-.35"/>
    <path class="cls-3" d="M51.28,28.82c-.25.31-.51.49-.91.55"/>
    <path class="cls-3" d="M424.55,386.47c1.21,10.99-7.14,21.45-18.08,22.82"/>
    <path class="cls-3" d="M399.35,315.14s-.07,0-.1,0"/>
    <path class="cls-3" d="M243.23,429.79c-6.16.77-12.36-1.32-16.52-6.05"/>
    <path class="cls-3" d="M50.04,31.31c.61-.09,1.06-.34,1.48-.78"/>
    <line class="cls-3" x1="48.25" y1="31.53" x2="43.83" y2="31.77"/>
    <path class="cls-3" d="M367.97,83.06c2.36.31,4.68.65,7.09.49"/>
    <path class="cls-3" d="M40.28,31.49c.53.38,3.03.31,3.55.29"/>
    <line class="cls-3" x1="40.28" y1="31.49" x2="34.47" y2="27.24"/>
    <path class="cls-3" d="M388.05,113.62c-1.5.11-2.99.11-4.49.01-1.1-.07-3.34-.29-4.39-.83"/>
    <path class="cls-3" d="M208.12,126.67c-1.49.11-2.97.12-4.46.02-.97-.06-3.43-.28-4.33-.9"/>
    <line class="cls-3" x1="367.97" y1="83.06" x2="344.54" y2="84.63"/>
    <path class="cls-3" d="M382.16,82.11c-.33.26-.7.41-1.08.55"/>
    <path class="cls-3" d="M175.25,12.23c.69-.03,1.38-.03,2.07-.02"/>
    <line class="cls-3" x1="377.35" y1="83.4" x2="375.06" y2="83.55"/>
    <path class="cls-3" d="M211.7,2.57c.38.03.74.07,1.09.27"/>
    <path class="cls-3" d="M212.79,2.84s.1.06.15.09"/>
    <path class="cls-3" d="M187.76,95.6c-.8-.09-1.59-.22-2.39-.33"/>
    <path class="cls-3" d="M177.32,12.21s0,.01,0,.02"/>
    <path class="cls-3" d="M94.91,16.56s0-.02,0-.02"/>
    <path class="cls-3" d="M54.09,10.63c-.15.05-.4.14-.4.36"/>
    <path class="cls-3" d="M382.17,81.83s.05.01.08.02"/>
    <path class="cls-3" d="M94.91,16.53c.64-.09,1.29-.15,1.94-.19"/>
    <path class="cls-3" d="M183.97,95.1c-.1,0-.2,0-.3,0"/>
    <path class="cls-3" d="M180.88,96.05c.75-.48,1.65-.88,2.55-.95"/>
    <path class="cls-3" d="M183.97,95.1c.47.03.93.1,1.39.17"/>
    <line class="cls-3" x1="310.79" y1="86.72" x2="319.11" y2="88.35"/>
    <line class="cls-3" x1="249.89" y1="93" x2="258.09" y2="90.24"/>
    <line class="cls-3" x1="343.54" y1="84.41" x2="366.02" y2="82.9"/>
    <path class="cls-3" d="M200.78,94c0-.07-.1-.05-.14-.04"/>
    <line class="cls-3" x1="48.17" y1="29.56" x2="43.75" y2="29.8"/>
    <path class="cls-3" d="M43.75,29.8c-.52.03-3.03.1-3.55-.28"/>
    <path class="cls-3" d="M34.39,25.3c-.17-.13-.39-.33-.4-.58"/>
    <line class="cls-3" x1="320.47" y1="88.44" x2="333.28" y2="87.58"/>
    <path class="cls-3" d="M393.73,103.73c0,.28.05.54.16.8.05.13.12.25.2.36.04.06.08.11.13.16.04.04.07.07.11.11,0,0,.02.02.03.02,0,0,0,.01,0,0"/>
    <path class="cls-3" d="M173.63,116.95s0,0,0,0c0,0,.02-.02.03-.02.04-.03.08-.07.11-.11.05-.05.09-.1.13-.16.08-.11.14-.23.19-.36.11-.26.15-.52.15-.8"/>
    <path class="cls-3" d="M94.91,16.56c.65-.08,1.29-.13,1.94-.16"/>
    <path class="cls-3" d="M392.4,112.38c0,.37-.66.59-.89.66-.37.13-.75.21-1.13.29-.77.15-1.54.23-2.32.29"/>
    <path class="cls-3" d="M213.2,125.21c0,.24-.26.41-.42.5-.2.12-.41.2-.63.27-.43.15-.87.25-1.32.34-.9.17-1.8.28-2.71.34"/>
    <line class="cls-3" x1="225.17" y1="92.43" x2="233.76" y2="94.08"/>
    <path class="cls-3" d="M174.11,109.28c-.07-2.99.24-6.43,1.76-9.17,1.56-2.81,4.32-4.73,7.57-5"/>
    <line class="cls-3" x1="393.78" y1="97.7" x2="393.73" y2="103.73"/>
    <path class="cls-3" d="M206.18.83c1.05-.05,2.11-.13,3.16-.19"/>
    <line class="cls-3" x1="206.18" y1=".83" x2="204.34" y2=".92"/>
    <line class="cls-3" x1="174.25" y1="115.48" x2="174.11" y2="109.28"/>
    <path class="cls-3" d="M161.43,90.24c.26.13.53.23.79.34.43.18.86.36,1.29.55.7.29,1.39.59,2.09.88,1.39.59,2.78,1.18,4.18,1.77,2.78,1.18,5.57,2.36,8.35,3.53"/>
    <path class="cls-3" d="M204.49,2.85c-.92.05-1.85.07-2.77.12"/>
    <line class="cls-3" x1="204.49" y1="2.85" x2="206.33" y2="2.76"/>
    <path class="cls-3" d="M206.33,2.76c1.03-.05,2.07-.13,3.1-.18"/>
    <line class="cls-3" x1="58.7" y1="10.31" x2="60.64" y2="10.21"/>
    <path class="cls-3" d="M202.91,14.42c-.04-2.18-.23-4.32-.62-6.46-.3-1.67-.98-4.64-2.12-6.08"/>
    <line class="cls-3" x1="58.53" y1="8.33" x2="60.47" y2="8.23"/>
    <path class="cls-3" d="M106.99,15.81c.7-.03,1.4-.03,2.11-.02"/>
    <path class="cls-3" d="M85.67,7.06c.16,0,.31,0,.47.03"/>
    <path class="cls-3" d="M52.12,29.66c.3-.94.38-1.85.34-2.82"/>
    <line class="cls-3" x1="209.52" y1="2.57" x2="212.04" y2="2.44"/>
    <path class="cls-3" d="M60.47,8.23c1.09-.05,2.17-.14,3.25-.19"/>
    <path class="cls-3" d="M55.19,8.48c.13,0,.26-.02.4-.02"/>
    <path class="cls-3" d="M54.01,8.67c.39-.15.78-.16,1.18-.19"/>
    <path class="cls-3" d="M45.7,19.94c-.09-2.31.01-5.2,1.13-7.39,1.18-2.3,3.42-3.82,6.03-3.96"/>
    <path class="cls-3" d="M211.93.51c2.7-.14,5.1,1.25,6.56,3.45,1.41,2.11,1.97,4.95,2.15,7.37"/>
    <line class="cls-3" x1="45.9" y1="24.83" x2="45.7" y2="19.94"/>
    <path class="cls-3" d="M211.37.61c.08.03.15.06.22.11"/>
    <path class="cls-3" d="M398.26,309.24c.06-6.59,5.29-12.72,11.94-13.42"/>
    <path class="cls-3" d="M257.87,323.51c-.03-3.11-1.24-6.1-3.56-8.25"/>
    <line class="cls-3" x1="467.78" y1="163.44" x2="467.74" y2="165.18"/>
    <line class="cls-3" x1="1.63" y1="43.36" x2="175.47" y2="187.58"/>
    <line class="cls-3" x1="175.47" y1="187.58" x2="471.84" y2="163.11"/>
    <path class="cls-3" d="M144.24,17.8c0-.09-.02-.18-.03-.26"/>
    <path class="cls-3" d="M202.33,8.16c2.87.08,5.71.24,8.56.62,1.71.23,3.38.54,5.03,1.06,1.09.35,2.19.69,3.28,1.03,5.46,1.72,10.92,3.45,16.38,5.17,1.16.36,2.28.75,3.33,1.39,1.44.88,2.56,2.12,3.13,3.74,1.02,2.88-.03,5.83-2.41,7.65-2.17,1.66-5.5,2.38-8.03,2.83-2.83.5-5.67.79-8.53.99"/>
    <path class="cls-3" d="M92.8,40c-5.55.31-11.08.4-16.64.08-2.77-.16-5.52-.41-8.26-.89-2.51-.44-5.6-1.16-7.68-2.93-.86-.73-1.48-1.57-1.97-2.59-.1-.2-.19-.41-.29-.61-.21-.44-.42-.89-.63-1.33-.41-.88-.82-1.75-1.24-2.63-.31-.65-.62-1.31-.93-1.96-.15-.32-.3-.65-.46-.97-.76-1.61-.95-3.21-.37-4.93.51-1.53,1.53-2.72,2.86-3.58,1.05-.68,2.16-1.09,3.34-1.43,2.58-.74,5.54-1.13,8.2-1.39"/>
    <path class="cls-3" d="M163.46,12.96s0-.02,0-.02"/>
    <path class="cls-3" d="M67.35,26.45s.01,0,.02,0c.02,0,.03.01.05.02.06.02.12.04.18.06.21.07.42.12.64.18.7.17,1.41.3,2.13.41,1.02.16,2.04.27,3.07.37,2.05.19,4.11.3,6.17.37,4.13.12,8.24.02,12.35-.2"/>
    <path class="cls-3" d="M165.35,12.75s0,.03,0,.05"/>
    <path class="cls-3" d="M175.25,12.28s0-.03,0-.05"/>
    <path class="cls-3" d="M175.25,12.28c.69-.04,1.38-.05,2.07-.05"/>
    <path class="cls-3" d="M291.65,230.72c-.3.02-.6.02-.89-.02"/>
    <path class="cls-3" d="M67.37,10.5c-.22-.36-.92-.45-1.24-.48"/>
    <path class="cls-3" d="M66.05,8.05c.4.05,1.07.17,1.34.59"/>
    <path class="cls-3" d="M338.69,226.4c-.26.03-.51.04-.77.03"/>
    <path class="cls-3" d="M109.09,15.79s0,.02,0,.02"/>
    <line class="cls-3" x1="342.12" y1="219.32" x2="343.27" y2="220.12"/>
    <path class="cls-3" d="M96.85,16.34s0,.03,0,.05"/>
    <path class="cls-3" d="M106.99,15.87s0-.03,0-.05"/>
    <line class="cls-3" x1="295.17" y1="223.57" x2="296.37" y2="224.46"/>
    <path class="cls-3" d="M269.55,233.8c-1,.09-2-.2-2.79-.82"/>
    <path class="cls-3" d="M163.46,12.96c.63-.07,1.25-.12,1.88-.16"/>
    <path class="cls-3" d="M400.69,315.65c-.45-.34-.9-.48-1.45-.51"/>
    <line class="cls-3" x1="399.44" y1="315.14" x2="398.2" y2="315.27"/>
    <path class="cls-3" d="M106.99,15.87c.7-.04,1.4-.05,2.11-.05"/>
    <path class="cls-3" d="M367.97,83.06c-.5-.07-1.44-.19-1.95-.16"/>
    <path class="cls-3" d="M200.49,94.26c.05-.03.3-.17.29-.26"/>
    <path class="cls-3" d="M325.31,98.78c-.77.07-1.54.16-2.3.3"/>
    <path class="cls-3" d="M382.16,82.11s.15-.12.14-.19"/>
    <path class="cls-3" d="M239.72,104.69c-.8.07-1.6.16-2.4.3"/>
    <path class="cls-3" d="M224.26,92.37c.31-.02.6,0,.91.06"/>
    <line class="cls-3" x1="334.59" y1="87.32" x2="342.54" y2="84.61"/>
    <path class="cls-3" d="M382.18,81.83c3.91-.2,7.2,1.99,9.12,5.23,1.83,3.09,2.52,7.17,2.49,10.64"/>
    <path class="cls-3" d="M327.44,72.99c7.2-.32,15.59-.12,22.75.83,3.39.45,7.84,1.24,11.02,2.72.67.31,1.31.67,1.92,1.08.41.28.78.59,1.17.9.52.42,1.04.84,1.57,1.27,1.48,1.19,2.95,2.39,4.43,3.58"/>
    <path class="cls-3" d="M174.17,111.88c-4.93-2.17-9.86-4.34-14.78-6.52-1.01-.45-2.03-.89-3.04-1.34-1.54-.68-2.78-1.29-4.05-2.44-2.04-1.85-3.21-4.41-2.97-7.21.24-2.83,1.83-5.09,4.1-6.65,2.17-1.48,4.99-2.36,7.47-2.95,2.63-.63,5.28-1.05,7.95-1.38,2.68-.33,5.36-.54,8.05-.71"/>
    <path class="cls-3" d="M177.94,97.09c-.66.04-1.31.09-1.97.13"/>
    <path class="cls-3" d="M378.77,218.21c-1.55-1.06-3.52-.91-5.04.06-1.51.97-2.48,2.69-2.48,4.49,0,0,.25,1.62,1.54,1.9"/>
  </g>
  <g id="_图层_4" data-name="图层 4">
    <g>
      <line class="cls-1" x1="272.38" y1="297.91" x2="307.32" y2="242.24"/>
      <g>
        <line class="cls-4" x1="272.38" y1="297.91" x2="294.73" y2="262.3"/>
        <polygon class="cls-1" points="306.11 275.12 307.32 242.24 278.23 257.63 306.11 275.12"/>
      </g>
    </g>
  </g>
</svg>